<?xml version="1.0" encoding="UTF-8" standalone="no"?>
<!-- Created with Inkscape (http://www.inkscape.org/) -->

<svg
   width="600"
   height="300"
   viewBox="0 0 600 300"
   version="1.1"
   id="svg1"
   xmlns:xlink="http://www.w3.org/1999/xlink"
   xmlns="http://www.w3.org/2000/svg"
   xmlns:svg="http://www.w3.org/2000/svg">
  <defs
     id="defs1">
    <linearGradient
       id="linearGradient3">
      <stop
         style="stop-color:#4d4d4d;stop-opacity:1"
         offset="0"
         id="stop3" />
      <stop
         style="stop-color:#666666;stop-opacity:1"
         offset="0.38564989"
         id="stop5" />
      <stop
         style="stop-color:#b3b3b3;stop-opacity:0;"
         offset="1"
         id="stop4" />
    </linearGradient>
    <linearGradient
       xlink:href="#linearGradient3"
       id="linearGradient4"
       x1="296.39496"
       y1="0.82848036"
       x2="297.56897"
       y2="302.50571"
       gradientUnits="userSpaceOnUse" />
    <filter
       style="color-interpolation-filters:sRGB"
       id="filter37"
       x="-0.091573423"
       y="-0.14340956"
       width="1.1831468"
       height="1.2868191">
      <feGaussianBlur
         stdDeviation="0.90034645"
         id="feGaussianBlur37" />
    </filter>
  </defs>
  <g
     id="layer1">
    <rect
       style="fill:#800000;fill-opacity:1;stroke-width:5;stroke-linecap:square"
       id="rect4"
       width="611.26154"
       height="304.54922"
       x="-2.4927297"
       y="-1.8278292" />
    <rect
       style="fill:url(#linearGradient4);fill-opacity:1;stroke-width:5;stroke-linecap:square"
       id="rect1"
       width="611.26154"
       height="304.54922"
       x="-2.4927297"
       y="-1.8278292" />
    <path
       id="rect2"
       style="fill:#3a494d;fill-opacity:0.990907;stroke-width:3.27755;stroke-linecap:square"
       d="m -2.4927297,171.85834 c 200.3287597,-10.89723 404.8481297,-8.46165 611.2615397,0 V 302.72141 H -2.4927297 Z" />
    <path
       style="fill:#1c2224;fill-opacity:1;stroke:none;stroke-width:1px;stroke-linecap:butt;stroke-linejoin:miter;stroke-opacity:1"
       d="m 182.02633,167.37981 -120.209768,8.909 -8.68039,-49.69914 c 72.809528,25.02617 140.511408,11.00829 207.237888,21.75929 l 66.01545,23.7689 z"
       id="path32" />
    <path
       style="fill:#242c2f;fill-opacity:1;stroke:none;stroke-width:1px;stroke-linecap:butt;stroke-linejoin:miter;stroke-opacity:1"
       d="M -13.702074,243.36624 121.41197,228.21457 61.51727,150.08587 C 59.715348,127.84648 58.503694,105.70947 80.802961,87.650099 L -13.641605,77.933602 Z"
       id="path31" />
    <path
       id="rect3"
       style="fill:#1c2224;fill-opacity:0.990907;stroke-width:3.27755;stroke-linecap:square"
       d="m -1.6418431,218.79419 49.7668711,2.52205 43.346411,-19.39682 103.755641,3.38462 c 1.37676,10.85256 16.93997,29.80216 63.66604,2.07685 l 104.50099,25.3858 c 44.50495,16.8441 93.68086,16.12639 143.68393,12.29873 l 24.1208,-20.32672 26.68708,8.79568 20.6702,-11.39286 6.06257,-13.51502 24.15011,10.16769 V 302.7214 H -1.6418431 Z" />
  </g>
  <g
     id="layer4">
    <path
       id="ellipse42"
       style="fill:#4d4d4d;fill-opacity:0.73537;stroke:none;stroke-width:2.85403;stroke-linecap:square;stroke-opacity:1"
       d="m 242.04187,43.034416 a 15.152073,14.908033 0 0 0 -13.23633,7.734375 10.963627,10.238676 0 0 0 -7.25586,-2.566406 10.963627,10.238676 0 0 0 -10.96289,10.238281 10.963627,10.238676 0 0 0 5.96484,9.087891 13.674366,10.584898 0 0 0 -0.99609,1.78125 18.830128,18.346258 0 0 0 -1.07422,-0.0332 18.830128,18.346258 0 0 0 -18.12109,13.419922 18.830128,18.346258 0 0 0 -12.96094,-5.044922 18.830128,18.346258 0 0 0 -18.83008,18.345703 18.830128,18.346258 0 0 0 0.42383,3.654297 12.598209,11.957678 0 0 0 -5.39258,9.126943 14.382679,14.405752 0 0 0 -11.35156,14.04492 14.382679,14.405752 0 0 0 14.38281,14.40625 14.382679,14.405752 0 0 0 11.71289,-6.10351 18.830128,18.346258 0 0 0 13.2168,5.3457 18.830128,18.346258 0 0 0 16.78516,-10.11523 18.830128,18.346258 0 0 0 15.41406,7.87304 18.830128,18.346258 0 0 0 18.83008,-18.3457 18.830128,18.346258 0 0 0 -0.20508,-2.70703 15.7999,14.72154 0 0 0 0.97461,0.0644 15.7999,14.72154 0 0 0 15.80078,-14.722646 15.7999,14.72154 0 0 0 -2.48242,-7.912109 16.845539,13.037893 0 0 0 7.1875,-10.652344 16.845539,13.037893 0 0 0 -2.85157,-7.255859 10.54073,11.15748 0 0 0 3.41993,0.630859 10.54073,11.15748 0 0 0 10.54101,-11.158203 10.54073,11.15748 0 0 0 -10.54101,-11.158203 10.54073,11.15748 0 0 0 -4.4668,1.060547 15.152073,14.908033 0 0 0 -13.92578,-9.039063 z m -40.51172,57.847654 a 18.830128,18.346258 0 0 0 4.10547,2.88281 18.830128,18.346258 0 0 0 -2.64258,3.85742 18.830128,18.346258 0 0 0 -2.91602,-3.20117 18.830128,18.346258 0 0 0 1.45313,-3.53906 z" />
  </g>
  
  
  
  
  
  
      <!-- Smoke Group -->
      
<g id="smoke_billowing"
  transform="translate( -400, 0 )"
>
    <g fill="gray" opacity="0.7">
        <circle cx="600" cy="100" r="20">
            <animate attributeName="cy" values="100; 90; 110; 95; 100" dur="4s" repeatCount="indefinite"/>
            <animate attributeName="r" values="20; 30; 25; 35; 20" dur="4s" repeatCount="indefinite"/>
            <animate attributeName="opacity" values="0.7; 0.5; 0.6; 0.4; 0.7" dur="4s" repeatCount="indefinite"/>
        </circle>
        <circle cx="620" cy="80" r="25">
            <animate attributeName="cy" values="80; 75; 85; 78; 80" dur="5s" repeatCount="indefinite"/>
            <animate attributeName="r" values="25; 35; 30; 40; 25" dur="5s" repeatCount="indefinite"/>
            <animate attributeName="opacity" values="0.6; 0.4; 0.5; 0.3; 0.6" dur="5s" repeatCount="indefinite"/>
        </circle>
        <circle cx="580" cy="90" r="30">
            <animate attributeName="cy" values="90; 85; 95; 88; 90" dur="6s" repeatCount="indefinite"/>
            <animate attributeName="r" values="30; 40; 35; 45; 30" dur="6s" repeatCount="indefinite"/>
            <animate attributeName="opacity" values="0.5; 0.3; 0.4; 0.2; 0.5" dur="6s" repeatCount="indefinite"/>
        </circle>
    </g>
</g>
  
  
  
  
  
  <g
     id="layer3">
    <path
       id="path38"
       style="fill:#c83737;stroke-width:5;stroke-linecap:square;filter:url(#filter37)"
       d="m 211.86945,124.51565 c -3.23228,0.76484 -2.15581,1.67433 -2.54388,3.05167 l -17.51048,-0.0771 -3.54235,-4.98712 c 1.92953,1.53393 2.82931,2.80333 6.13208,1.79097 -1.55117,-2.11143 -1.90019,-1.7288 -3.39547,-2.28888 2.55714,-1.4382 -0.31216,-3.96168 -1.4616,-6.14118 4.80116,5.05504 6.51525,3.15818 6.73063,-2.1137 0.84897,1.98532 1.46082,5.72351 2.65642,5.14647 l 1.65252,-3.85431 c 0.33768,3.48104 2.64087,0.0521 4.7068,-2.54271 -1.6344,3.43372 -4.93826,7.31022 -2.07289,9.55053 7.97362,3.16001 5.26975,-2.36428 7.71024,-3.70452 z" />
    <path
       id="path39"
       style="fill:#ffdd55;stroke-width:3.25183;stroke-linecap:square"
       d="m 207.72153,126.3392 c -2.36175,0.44275 -0.16047,0.29416 -0.44402,1.09148 l -12.79447,-0.0446 -2.5883,-2.88696 c 1.40986,0.88797 2.0673,1.6228 4.48055,1.03676 -1.1334,-1.22226 0.22637,-2.45836 -0.8662,-2.78258 1.86845,-0.83254 -0.63562,-2.01316 -1.47549,-3.27483 3.50808,2.92627 2.81797,2.77289 2.97534,-0.2789 0.62032,1.14926 1.8027,3.54596 2.67629,3.21192 l 0.21367,-2.87261 c 0.24673,2.0151 0.81058,-1.25033 2.3201,-2.75236 -1.19421,1.98772 -1.49544,6.15361 0.59822,7.45048 5.82612,1.82927 4.26838,-0.40702 6.05158,-1.18286 z" />
    <path
       style="fill:#1a1a1a;stroke:none;stroke-width:1px;stroke-linecap:butt;stroke-linejoin:miter;stroke-opacity:1"
       d="m 111.85623,126.56428 0.6054,17.1409 115.653,2.94757 -0.26657,-19.18913 -11.46366,-0.0889 -3.15573,-36.120166 -9.34775,-1.012817 -3.382,37.009813 -50.98396,-0.3953 -0.0418,-13.63416 -38.27537,-0.14441 z"
       id="path33" />
    <path
       id="path34"
       style="fill:#c83737;stroke-width:5;stroke-linecap:square;filter:url(#filter37)"
       d="m 169.17391,106.45246 c -3.23228,0.76484 -2.15581,1.67433 -2.54388,3.05167 l -17.51048,-0.0771 -3.54235,-4.98712 c 1.92953,1.53393 2.82931,2.80333 6.13208,1.79097 -1.55117,-2.11143 -1.90019,-1.7288 -3.39547,-2.28888 2.55714,-1.4382 -0.31216,-3.961675 -1.4616,-6.141181 4.80116,5.055041 6.51525,3.158181 6.73063,-2.113699 0.84897,1.985321 1.46082,5.72351 2.65642,5.14647 l 1.65252,-3.854305 c 0.33768,3.481035 2.64087,0.05209 4.7068,-2.54271 -1.6344,3.433721 -4.93826,7.310215 -2.07289,9.550525 7.97362,3.16001 5.26975,-2.36428 7.71024,-3.70452 z"
       transform="translate(6.9244588,17.751686)" />
    <path
       id="path37"
       style="fill:#ffdd55;stroke-width:3.25183;stroke-linecap:square"
       d="m 171.95045,126.0277 c -2.36175,0.44275 -0.16047,0.29416 -0.44402,1.09148 l -12.79447,-0.0446 -2.5883,-2.88696 c 1.40986,0.88797 2.0673,1.6228 4.48055,1.03676 -1.1334,-1.22226 0.22637,-2.45836 -0.8662,-2.78258 1.86845,-0.83254 -0.63562,-2.01316 -1.47549,-3.27483 3.50808,2.92627 2.81797,2.77289 2.97534,-0.2789 0.62032,1.14926 1.8027,3.54596 2.67629,3.21192 l 0.21367,-2.87261 c 0.24673,2.0151 0.81058,-1.25033 2.3201,-2.75236 -1.19421,1.98772 -1.49544,6.15361 0.59822,7.45048 5.82612,1.82927 4.26838,-0.40702 6.05158,-1.18286 z" />
    <path
       id="path40"
       style="fill:#c83737;stroke-width:5;stroke-linecap:square;filter:url(#filter37)"
       d="m 229.47654,124.3886 c -3.23228,0.76484 -2.15581,1.67433 -2.54388,3.05167 l -17.51048,-0.0771 -3.54235,-4.98712 c 1.92953,1.53393 2.82931,2.80333 6.13208,1.79097 -1.55117,-2.11143 -1.90019,-1.7288 -3.39547,-2.28888 2.55714,-1.4382 -0.31216,-3.96168 -1.4616,-6.14118 4.80116,5.05504 6.51525,3.15818 6.73063,-2.1137 0.84897,1.98532 1.46082,5.72351 2.65642,5.14647 l 1.65252,-3.85431 c 0.33768,3.48104 2.64087,0.0521 4.7068,-2.54271 -1.6344,3.43372 -4.93826,7.31022 -2.07289,9.55053 7.97362,3.16001 5.26975,-2.36428 7.71024,-3.70452 z" />
    <path
       id="path41"
       style="fill:#ffdd55;stroke-width:3.25183;stroke-linecap:square"
       d="m 225.32862,126.21215 c -2.36175,0.44275 -0.16047,0.29416 -0.44402,1.09148 l -12.79447,-0.0446 -2.5883,-2.88696 c 1.40986,0.88797 2.0673,1.6228 4.48055,1.03676 -1.1334,-1.22226 0.22637,-2.45836 -0.8662,-2.78258 1.86845,-0.83254 -0.63562,-2.01316 -1.47549,-3.27483 3.50808,2.92627 2.81797,2.77289 2.97534,-0.2789 0.62032,1.14926 1.8027,3.54596 2.67629,3.21192 l 0.21367,-2.87261 c 0.24673,2.0151 0.81058,-1.25033 2.3201,-2.75236 -1.19421,1.98772 -1.49544,6.15361 0.59822,7.45048 5.82612,1.82927 4.26838,-0.40702 6.05158,-1.18286 z" />
  </g>
  <g
     id="layer2">
    <path
       style="fill:#333333;fill-opacity:1;stroke:none;stroke-width:0.751825px;stroke-linecap:butt;stroke-linejoin:miter;stroke-opacity:1"
       d="m 301.69577,158.30811 -6.54516,-42.89497 -1.30884,-1.55304 0.68086,-2.53493 1.64184,-0.53404 8.36111,48.0076 z"
       id="path17" />
    <path
       style="fill:#333333;stroke:none;stroke-width:0.751825px;stroke-linecap:butt;stroke-linejoin:miter;stroke-opacity:1"
       d="m 329.11262,253.42991 12.10257,0.47279 -1.88222,27.50292 6.33124,8.63823 v 2.11049 l -13.21799,0.24173 z"
       id="path12" />
    <path
       style="fill:#333333;stroke:none;stroke-width:0.751825px;stroke-linecap:butt;stroke-linejoin:miter;stroke-opacity:1"
       d="m 303.3729,252.88507 12.10257,0.47279 -1.88222,27.50292 6.33125,8.63823 v 2.11048 l -13.21799,0.24174 z"
       id="path13" />
    <path
       style="fill:#ac9d93;fill-opacity:1;stroke:none;stroke-width:0.60952px;stroke-linecap:butt;stroke-linejoin:miter;stroke-opacity:1"
       d="m 312.44303,135.03625 c 0.17733,2.73318 -0.23092,5.57626 -1.86694,8.60075 l 8.29039,0.39634 c 0.65981,-1.76576 -1.01798,-4.46541 0.98889,-4.71667 0.5232,-0.0655 1.29683,0.0353 2.42759,0.36263 l 1.87035,-11.38908 -0.53525,-4.03936 -0.29315,-2.21235 -12.94025,-1.13484 z"
       id="path11" />
    <path
       style="fill:#333333;stroke:none;stroke-width:0.60952px;stroke-linecap:butt;stroke-linejoin:miter;stroke-opacity:1"
       d="m 323.32491,122.03851 1.76764,2.68789 -1.38662,-3.44205 4.09934,2.26484 -4.6181,-4.99003 c -3.5734,-2.27659 -7.6795,-3.19263 -13.69654,0.77185 -0.11761,5.17787 2.59654,10.22027 2.9524,15.70524 1.28715,-2.25334 2.80309,-3.19733 5.09375,0.29243 l 0.80057,-1.19794 c -1.35837,-2.18476 0.5786,-6.0891 1.96827,-9.77825 l 1.49615,0.0707 z"
       id="path10" />
    <path
       style="fill:none;stroke:#292929;stroke-width:0.751825px;stroke-linecap:butt;stroke-linejoin:miter;stroke-opacity:1"
       d="m 340.15015,200.42502 2.76106,10.81686"
       id="path9" />
    <path
       style="fill:#4d4d4d;stroke:none;stroke-width:0.751825px;stroke-linecap:butt;stroke-linejoin:miter;stroke-opacity:1"
       d="m 299.75325,147.08168 8.96884,-4.05804 h 18.35265 l 4.03375,3.40059 2.05114,25.13251 10.6214,22.41638 -7.764,1.7604 23.69036,52.95872 c -12.72983,2.01762 -0.30074,15.46399 -30.97024,10.07278 -1.61908,-5.25196 -2.77612,-6.40277 -12.90439,-4.84211 0.43915,6.56714 -11.11091,3.58302 -15.54453,4.11893 1.36578,-6.41783 -0.55213,-10.72941 -4.85594,-12.00008 7.21455,-18.0101 5.03126,-32.40615 5.8624,-47.96144 3.53734,-11.02169 -0.1183,-19.8294 -1.47248,-28.4414 -1.16365,-7.40031 0.18298,-14.70779 -0.0689,-22.55724 z"
       id="path5" />
    <path
       style="fill:#333333;fill-opacity:1;stroke:none;stroke-width:0.751825px;stroke-linecap:butt;stroke-linejoin:miter;stroke-opacity:1"
       d="m 297.74985,161.95266 7.95646,-18.5627 5.42114,0.323 -8.96285,19.83497 z"
       id="path16" />
    <path
       style="fill:#333333;fill-opacity:1;stroke:none;stroke-width:0.751825px;stroke-linecap:butt;stroke-linejoin:miter;stroke-opacity:1"
       d="m 313.31555,160.47142 7.95646,-18.5627 5.42114,0.323 -8.96285,19.83496 z"
       id="path15" />
    <path
       style="fill:#ac9d93;stroke:none;stroke-width:0.751825px;stroke-linecap:butt;stroke-linejoin:miter;stroke-opacity:1"
       d="m 335.64817,195.07123 5.49348,-0.9443 0.29563,6.30788 -4.19825,5.42788 -1.69686,-2.13483 z"
       id="path6" />
    <path
       style="fill:#333333;stroke:none;stroke-width:0.751825px;stroke-linecap:butt;stroke-linejoin:miter;stroke-opacity:1"
       d="m 349.26969,207.51471 -4.27178,5.1128 c 3.63821,10.26532 -8.62381,13.97104 -12.70586,5.79507 l -5.63572,-0.30247 z"
       id="path7" />
    <path
       style="fill:none;stroke:#2b2b2b;stroke-width:0.751825px;stroke-linecap:butt;stroke-linejoin:miter;stroke-opacity:1"
       d="m 333.96504,215.62682 2.57495,-14.52915"
       id="path8" />
    <path
       style="fill:#333333;fill-opacity:1;stroke:none;stroke-width:0.751825px;stroke-linecap:butt;stroke-linejoin:miter;stroke-opacity:1"
       d="m 293.56666,160.48307 7.19351,-2.80212 14.61045,0.94559 3.87694,2.70874 2.34883,36.95916 -6.5523,4.21706 -16.4025,-0.93964 -3.86288,-15.57978 -3.46585,-4.11603 z"
       id="path14" />
  </g>
</svg>
