<?xml version="1.0" encoding="UTF-8" standalone="no"?>
<!-- Created with Inkscape (http://www.inkscape.org/) -->

<svg
   width="600"
   height="800"
   viewBox="0 0 158.75 211.66667"
   version="1.1"
   id="svg1"
   inkscape:version="1.3.2 (091e20e, 2023-11-25)"
   sodipodi:docname="my_N.svg"
   xmlns:inkscape="http://www.inkscape.org/namespaces/inkscape"
   xmlns:sodipodi="http://sodipodi.sourceforge.net/DTD/sodipodi-0.dtd"
   xmlns:xlink="http://www.w3.org/1999/xlink"
   xmlns="http://www.w3.org/2000/svg"
   xmlns:svg="http://www.w3.org/2000/svg">
  <sodipodi:namedview
     id="namedview1"
     pagecolor="#ffffff"
     bordercolor="#666666"
     borderopacity="1.0"
     inkscape:showpageshadow="2"
     inkscape:pageopacity="0.0"
     inkscape:pagecheckerboard="0"
     inkscape:deskcolor="#d1d1d1"
     inkscape:document-units="px"
     inkscape:zoom="0.58972706"
     inkscape:cx="360.33619"
     inkscape:cy="313.70445"
     inkscape:window-width="1720"
     inkscape:window-height="1000"
     inkscape:window-x="119"
     inkscape:window-y="34"
     inkscape:window-maximized="0"
     inkscape:current-layer="layer1" />
  <defs
     id="defs1">
    <linearGradient
       id="linearGradient1"
       inkscape:collect="always">
      <stop
         style="stop-color:#b5941c;stop-opacity:1;"
         offset="0"
         id="stop1" />
      <stop
         style="stop-color:#ffe587;stop-opacity:1;"
         offset="0.50752044"
         id="stop3" />
      <stop
         style="stop-color:#a38519;stop-opacity:1;"
         offset="1"
         id="stop2" />
    </linearGradient>
    <linearGradient
       inkscape:collect="always"
       xlink:href="#linearGradient1"
       id="linearGradient2"
       x1="46.419842"
       y1="63.588905"
       x2="116.96891"
       y2="97.699608"
       gradientUnits="userSpaceOnUse"
       gradientTransform="translate(0.42545993,6.687391)" />
  </defs>
  <g
     inkscape:label="background"
     inkscape:groupmode="layer"
     id="layer1"
     sodipodi:insensitive="true">
    <rect
       style="fill:#000000;stroke-width:0.0264583"
       id="rect1"
       width="158.75"
       height="211.66667"
       x="-0.1357545"
       y="0.3966797" />
  </g>
  <g
     inkscape:groupmode="layer"
     id="layer2"
     inkscape:label="N"
     sodipodi:insensitive="true">
    <path
       style="fill:none;stroke:url(#linearGradient2);stroke-width:13.2292;stroke-linecap:square;stroke-linejoin:miter;stroke-dasharray:none"
       d="M 37.067645,143.23732 36.551684,34.944866 122.16319,131.98726 122.29,21.412886"
       id="path1"
       sodipodi:nodetypes="cccc" />
  </g>
  <g
     inkscape:groupmode="layer"
     id="layer3"
     inkscape:label="text"
     sodipodi:insensitive="true">
    <g
       inkscape:label="Hershey Text"
       style="fill:none;stroke:#d0b52d;stroke-width:4.00001;stroke-linecap:round;stroke-linejoin:round;stroke-dasharray:none;stroke-opacity:1"
       transform="matrix(0.264583,0,0,0.264583,108.10896,56.974073)"
       id="g43">
      <g
         transform="translate(-295.185,455.248)"
         id="g42"
         style="stroke:#d0b52d;stroke-width:4.00001;stroke-dasharray:none;stroke-opacity:1">
        <path
           d="M 220,441 V 0 m 0,315 95,95 63,31 h 94 l 64,-31 31,-95 V 0"
           style="stroke:#d0b52d;stroke-width:75.0001;stroke-dasharray:none;stroke-opacity:1"
           transform="scale(0.0533333,-0.0533333)"
           id="path30" />
        <path
           d="m 189,662 31,-32 32,32 -32,31 -31,-31 M 220,441 V 0"
           style="stroke:#d0b52d;stroke-width:75.0001;stroke-dasharray:none;stroke-opacity:1"
           transform="matrix(0.0533333,0,0,-0.0533333,31.8933,0)"
           id="path31" />
        <path
           d="m 567,346 -63,64 -63,31 H 346 L 284,410 220,346 189,252 V 189 L 220,94.5 284,31.5 346,0 h 95 l 63,31.5 63,63"
           style="stroke:#d0b52d;stroke-width:75.0001;stroke-dasharray:none;stroke-opacity:1"
           transform="matrix(0.0533333,0,0,-0.0533333,45.3333,0)"
           id="path32" />
        <path
           d="M 220,662 V 0 M 536,441 220,126 M 346,252 567,0"
           style="stroke:#d0b52d;stroke-width:75.0001;stroke-dasharray:none;stroke-opacity:1"
           transform="matrix(0.0533333,0,0,-0.0533333,75.5733,0)"
           id="path33" />
        <path
           d="M 220,441 V 0 m 0,315 95,95 63,31 h 94 l 64,-31 31,-95 V 0"
           style="stroke:#d0b52d;stroke-width:75.0001;stroke-dasharray:none;stroke-opacity:1"
           transform="matrix(0.0533333,0,0,-0.0533333,104.16,0)"
           id="path34" />
        <path
           d="M 567,441 V 0 m 0,346 -63,64 -63,31 H 346 L 284,410 220,346 189,252 V 189 L 220,94.5 284,31.5 346,0 h 95 l 63,31.5 63,63"
           style="stroke:#d0b52d;stroke-width:75.0001;stroke-dasharray:none;stroke-opacity:1"
           transform="matrix(0.0533333,0,0,-0.0533333,136.053,0)"
           id="path35" />
        <path
           d="M 567,441 V -63 l -31,-95 -32,-31 -63,-31 h -95 l -62,31 m 283,535 -63,64 -63,31 H 346 L 284,410 220,346 189,252 V 189 L 220,94.5 284,31.5 346,0 h 95 l 63,31.5 63,63"
           style="stroke:#d0b52d;stroke-width:75.0001;stroke-dasharray:none;stroke-opacity:1"
           transform="matrix(0.0533333,0,0,-0.0533333,167.947,0)"
           id="path36" />
        <path
           d="m 189,252 h 378 v 63 l -31,63 -32,32 -63,31 H 346 L 284,410 220,346 189,252 V 189 L 220,94.5 284,31.5 346,0 h 95 l 63,31.5 63,63"
           style="stroke:#d0b52d;stroke-width:75.0001;stroke-dasharray:none;stroke-opacity:1"
           transform="matrix(0.0533333,0,0,-0.0533333,199.84,0)"
           id="path37" />
        <path
           d="M 220,662 V 0"
           style="stroke:#d0b52d;stroke-width:75.0001;stroke-dasharray:none;stroke-opacity:1"
           transform="matrix(0.0533333,0,0,-0.0533333,230.08,0)"
           id="path38" />
        <path
           d="m 220,158 -31,-32 31,-31.5 32,31.5 -32,32"
           style="stroke:#d0b52d;stroke-width:75.0001;stroke-dasharray:none;stroke-opacity:1"
           transform="matrix(0.0533333,0,0,-0.0533333,243.52,0)"
           id="path39" />
        <path
           d="m 567,346 -63,64 -63,31 H 346 L 284,410 220,346 189,252 V 189 L 220,94.5 284,31.5 346,0 h 95 l 63,31.5 63,63"
           style="stroke:#d0b52d;stroke-width:75.0001;stroke-dasharray:none;stroke-opacity:1"
           transform="matrix(0.0533333,0,0,-0.0533333,256.96,0)"
           id="path40" />
        <path
           d="M 346,441 284,410 220,346 189,252 V 189 L 220,94.5 284,31.5 346,0 h 95 l 63,31.5 63,63 31,94.5 v 63 l -31,94 -63,64 -63,31 h -95"
           style="stroke:#d0b52d;stroke-width:75.0001;stroke-dasharray:none;stroke-opacity:1"
           transform="matrix(0.0533333,0,0,-0.0533333,287.2,0)"
           id="path41" />
        <path
           d="M 220,441 V 0 m 0,315 95,95 63,31 h 94 l 64,-31 31,-95 V 0 m 0,315 95,95 62,31 h 95 l 63,-31 32,-95 V 0"
           style="stroke:#d0b52d;stroke-width:75.0001;stroke-dasharray:none;stroke-opacity:1"
           transform="matrix(0.0533333,0,0,-0.0533333,319.093,0)"
           id="path42" />
      </g>
    </g>
  </g>
</svg>
