<?xml version="1.0" encoding="UTF-8" standalone="no"?>
<!-- Created with Inkscape (http://www.inkscape.org/) -->

<svg
   width="600"
   height="800"
   viewBox="0 0 600 800"
   version="1.1"
   id="svg1"
   inkscape:version="1.3.2 (091e20e, 2023-11-25)"
   sodipodi:docname="my_N_inkscape.svg"
   inkscape:export-filename="my_N.svg"
   inkscape:export-xdpi="96"
   inkscape:export-ydpi="96"
   xmlns:inkscape="http://www.inkscape.org/namespaces/inkscape"
   xmlns:sodipodi="http://sodipodi.sourceforge.net/DTD/sodipodi-0.dtd"
   xmlns:xlink="http://www.w3.org/1999/xlink"
   xmlns="http://www.w3.org/2000/svg"
   xmlns:svg="http://www.w3.org/2000/svg">
  <sodipodi:namedview
     id="namedview1"
     pagecolor="#ffffff"
     bordercolor="#666666"
     borderopacity="1.0"
     inkscape:showpageshadow="2"
     inkscape:pageopacity="0.0"
     inkscape:pagecheckerboard="0"
     inkscape:deskcolor="#d1d1d1"
     inkscape:document-units="px"
     inkscape:zoom="0.60881894"
     inkscape:cx="299.76071"
     inkscape:cy="373.67431"
     inkscape:window-width="1452"
     inkscape:window-height="773"
     inkscape:window-x="186"
     inkscape:window-y="129"
     inkscape:window-maximized="0"
     inkscape:current-layer="layer3" />
  <defs
     id="defs1">
    <linearGradient
       id="linearGradient1"
       inkscape:collect="always">
      <stop
         style="stop-color:#ae891d;stop-opacity:1;"
         offset="0"
         id="stop1" />
      <stop
         style="stop-color:#ffda54;stop-opacity:1;"
         offset="0.51293963"
         id="stop3" />
      <stop
         style="stop-color:#a38519;stop-opacity:1;"
         offset="1"
         id="stop2" />
    </linearGradient>
    <linearGradient
       inkscape:collect="always"
       xlink:href="#linearGradient1"
       id="linearGradient2"
       x1="182.37302"
       y1="251.96497"
       x2="442.40146"
       y2="397.43665"
       gradientUnits="userSpaceOnUse" />
  </defs>
  <g
     inkscape:label="background"
     inkscape:groupmode="layer"
     id="layer1"
     style="display:inline"
     sodipodi:insensitive="true">
    <rect
       style="fill:#000000;stroke:none;stroke-width:4;stroke-linecap:square"
       id="rect1"
       width="600"
       height="800"
       x="0"
       y="0" />
  </g>
  <g
     inkscape:groupmode="layer"
     id="layer2"
     inkscape:label="N"
     sodipodi:insensitive="true">
    <path
       style="fill:none;stroke:url(#linearGradient2);stroke-width:50;stroke-linecap:square;stroke-linejoin:miter;stroke-dasharray:none;stroke-opacity:1"
       d="M 135.34322,551.25436 133.60078,129.57338 465.34564,504.45677 464.24133,89.173996"
       id="path1"
       sodipodi:nodetypes="cccc" />
  </g>
  <g
     inkscape:groupmode="layer"
     id="layer3"
     inkscape:label="text">
    <text
       xml:space="preserve"
       style="font-style:normal;font-variant:normal;font-weight:normal;font-stretch:normal;font-size:53.3333px;line-height:normal;font-family:sans-serif;font-variant-ligatures:normal;font-variant-position:normal;font-variant-caps:normal;font-variant-numeric:normal;font-variant-alternates:normal;font-variant-east-asian:normal;font-feature-settings:normal;font-variation-settings:normal;text-indent:0;text-align:start;text-decoration-line:none;text-decoration-style:solid;text-decoration-color:#000000;letter-spacing:normal;word-spacing:normal;text-transform:none;writing-mode:lr-tb;direction:ltr;text-orientation:mixed;dominant-baseline:auto;baseline-shift:baseline;text-anchor:start;white-space:normal;shape-padding:0;shape-margin:0;inline-size:0;opacity:1;vector-effect:none;fill:#a88a1c;fill-opacity:1;stroke:none;stroke-width:2;stroke-linecap:butt;stroke-linejoin:miter;stroke-miterlimit:4;stroke-dasharray:none;stroke-dashoffset:0;stroke-opacity:1;-inkscape-stroke:none;stop-color:#000000;stop-opacity:1"
       x="260.0072"
       y="712.24457"
       id="text3"
       transform="translate(386.42102,-21.997609)"><tspan
         sodipodi:role="line"
         id="tspan3"
         x="260.0072"
         y="712.24457">nicknagel.com</tspan></text>
    <g
       inkscape:label="Hershey Text"
       style="fill:#000000;fill-opacity:0;stroke:#d7ab26;stroke-width:5;stroke-linecap:square;stroke-linejoin:miter;stroke-dasharray:none;stroke-opacity:1"
       transform="translate(-149.062,-25.5324)"
       id="g16">
      <g
         transform="translate(260.007,712.245)"
         id="g15"
         style="fill:#000000;fill-opacity:0;stroke:#d7ab26;stroke-width:5;stroke-dasharray:none;stroke-opacity:1;stroke-linecap:square;stroke-linejoin:miter">
        <path
           d="M 220,441 V 0 m 0,315 95,95 63,31 h 94 l 64,-31 31,-95 V 0"
           style="fill:#000000;fill-opacity:0;stroke:#d7ab26;stroke-width:93.7501;stroke-dasharray:none;stroke-opacity:1;stroke-linecap:square;stroke-linejoin:miter"
           transform="scale(0.0533333,-0.0533333)"
           id="path3" />
        <path
           d="m 189,662 31,-32 32,32 -32,31 -31,-31 M 220,441 V 0"
           style="fill:#000000;fill-opacity:0;stroke:#d7ab26;stroke-width:93.7501;stroke-dasharray:none;stroke-opacity:1;stroke-linecap:square;stroke-linejoin:miter"
           transform="matrix(0.0533333,0,0,-0.0533333,31.8933,0)"
           id="path4" />
        <path
           d="m 567,346 -63,64 -63,31 H 346 L 284,410 220,346 189,252 V 189 L 220,94.5 284,31.5 346,0 h 95 l 63,31.5 63,63"
           style="fill:#000000;fill-opacity:0;stroke:#d7ab26;stroke-width:93.7501;stroke-dasharray:none;stroke-opacity:1;stroke-linecap:square;stroke-linejoin:miter"
           transform="matrix(0.0533333,0,0,-0.0533333,45.3333,0)"
           id="path5" />
        <path
           d="M 220,662 V 0 M 536,441 220,126 M 346,252 567,0"
           style="fill:#000000;fill-opacity:0;stroke:#d7ab26;stroke-width:93.7501;stroke-dasharray:none;stroke-opacity:1;stroke-linecap:square;stroke-linejoin:miter"
           transform="matrix(0.0533333,0,0,-0.0533333,75.5733,0)"
           id="path6" />
        <path
           d="M 220,441 V 0 m 0,315 95,95 63,31 h 94 l 64,-31 31,-95 V 0"
           style="fill:#000000;fill-opacity:0;stroke:#d7ab26;stroke-width:93.7501;stroke-dasharray:none;stroke-opacity:1;stroke-linecap:square;stroke-linejoin:miter"
           transform="matrix(0.0533333,0,0,-0.0533333,104.16,0)"
           id="path7" />
        <path
           d="M 567,441 V 0 m 0,346 -63,64 -63,31 H 346 L 284,410 220,346 189,252 V 189 L 220,94.5 284,31.5 346,0 h 95 l 63,31.5 63,63"
           style="fill:#000000;fill-opacity:0;stroke:#d7ab26;stroke-width:93.7501;stroke-dasharray:none;stroke-opacity:1;stroke-linecap:square;stroke-linejoin:miter"
           transform="matrix(0.0533333,0,0,-0.0533333,136.053,0)"
           id="path8" />
        <path
           d="M 567,441 V -63 l -31,-95 -32,-31 -63,-31 h -95 l -62,31 m 283,535 -63,64 -63,31 H 346 L 284,410 220,346 189,252 V 189 L 220,94.5 284,31.5 346,0 h 95 l 63,31.5 63,63"
           style="fill:#000000;fill-opacity:0;stroke:#d7ab26;stroke-width:93.7501;stroke-dasharray:none;stroke-opacity:1;stroke-linecap:square;stroke-linejoin:miter"
           transform="matrix(0.0533333,0,0,-0.0533333,167.947,0)"
           id="path9" />
        <path
           d="m 189,252 h 378 v 63 l -31,63 -32,32 -63,31 H 346 L 284,410 220,346 189,252 V 189 L 220,94.5 284,31.5 346,0 h 95 l 63,31.5 63,63"
           style="fill:#000000;fill-opacity:0;stroke:#d7ab26;stroke-width:93.7501;stroke-dasharray:none;stroke-opacity:1;stroke-linecap:square;stroke-linejoin:miter"
           transform="matrix(0.0533333,0,0,-0.0533333,199.84,0)"
           id="path10" />
        <path
           d="M 220,662 V 0"
           style="fill:#000000;fill-opacity:0;stroke:#d7ab26;stroke-width:93.7501;stroke-dasharray:none;stroke-opacity:1;stroke-linecap:square;stroke-linejoin:miter"
           transform="matrix(0.0533333,0,0,-0.0533333,230.08,0)"
           id="path11" />
        <path
           d="m 220,158 -31,-32 31,-31.5 32,31.5 -32,32"
           style="fill:#000000;fill-opacity:0;stroke:#d7ab26;stroke-width:93.7501;stroke-dasharray:none;stroke-opacity:1;stroke-linecap:square;stroke-linejoin:miter"
           transform="matrix(0.0533333,0,0,-0.0533333,243.52,0)"
           id="path12" />
        <path
           d="m 567,346 -63,64 -63,31 H 346 L 284,410 220,346 189,252 V 189 L 220,94.5 284,31.5 346,0 h 95 l 63,31.5 63,63"
           style="fill:#000000;fill-opacity:0;stroke:#d7ab26;stroke-width:93.7501;stroke-dasharray:none;stroke-opacity:1;stroke-linecap:square;stroke-linejoin:miter"
           transform="matrix(0.0533333,0,0,-0.0533333,256.96,0)"
           id="path13" />
        <path
           d="M 346,441 284,410 220,346 189,252 V 189 L 220,94.5 284,31.5 346,0 h 95 l 63,31.5 63,63 31,94.5 v 63 l -31,94 -63,64 -63,31 h -95"
           style="fill:#000000;fill-opacity:0;stroke:#d7ab26;stroke-width:93.7501;stroke-dasharray:none;stroke-opacity:1;stroke-linecap:square;stroke-linejoin:miter"
           transform="matrix(0.0533333,0,0,-0.0533333,287.2,0)"
           id="path14" />
        <path
           d="M 220,441 V 0 m 0,315 95,95 63,31 h 94 l 64,-31 31,-95 V 0 m 0,315 95,95 62,31 h 95 l 63,-31 32,-95 V 0"
           style="fill:#000000;fill-opacity:0;stroke:#d7ab26;stroke-width:93.7501;stroke-dasharray:none;stroke-opacity:1;stroke-linecap:square;stroke-linejoin:miter"
           transform="matrix(0.0533333,0,0,-0.0533333,319.093,0)"
           id="path15" />
      </g>
    </g>
  </g>
</svg>
