<?xml version="1.0" encoding="UTF-8" standalone="no"?>
<!-- Created with Inkscape (http://www.inkscape.org/)  -->

<svg
   width="50"
   height="60"
   viewBox="27 70 50 60"
   version="1.1"
   id="svg1"
   inkscape:version="1.3.2 (091e20e, 2023-11-25)"
   sodipodi:docname="medusa.svg"
   xmlns:inkscape="http://www.inkscape.org/namespaces/inkscape"
   xmlns:sodipodi="http://sodipodi.sourceforge.net/DTD/sodipodi-0.dtd"
   xmlns="http://www.w3.org/2000/svg"
   xmlns:svg="http://www.w3.org/2000/svg">
  <defs
     id="defs1" />
  <sodipodi:namedview
     id="namedview1"
     pagecolor="#ffffff"
     bordercolor="#666666"
     borderopacity="1.0"
     inkscape:showpageshadow="2"
     inkscape:pageopacity="0.0"
     inkscape:pagecheckerboard="0"
     inkscape:deskcolor="#d1d1d1"
     inkscape:zoom="1.39"
     inkscape:cx="132.73381"
     inkscape:cy="98.201439"
     inkscape:window-width="1572"
     inkscape:window-height="969"
     inkscape:window-x="182"
     inkscape:window-y="57"
     inkscape:window-maximized="0"
     inkscape:current-layer="medusa"
     showgrid="false" />
  <g
     inkscape:groupmode="layer"
     id="layer4"
     inkscape:label="bak"
     sodipodi:insensitive="true"
     style="display:none">
    <rect
       style="opacity:1;fill:#cccccc;stroke:#1780e9;stroke-width:1;stroke-linecap:square"
       id="rect1"
       width="30.303459"
       height="51.906445"
       x="-11.664001"
       y="-25.679352" />
  </g>
  <g
     id="medusa"
     inkscape:groupmode="layer"
     inkscape:label="medusa"
     transform="translate(50,100)">
    <g
       inkscape:groupmode="layer"
       id="g15"
       inkscape:label="low"
       sodipodi:insensitive="true">
      <path
         style="fill:#c4c8b7;stroke:#2e4618;stroke-width:0.1;stroke-linecap:butt;stroke-linejoin:miter;stroke-dasharray:none;stroke-opacity:1"
         d="m -3.2055956,-4.608609 -0.7552452,-1.2951871 0.4503639,-2.177456 0.5536668,-2.5535019 c 0,0 -0.2047574,-1.696949 0.8117586,-1.871744 0.8456286,-0.145411 1.49811494,1.860016 1.49811494,1.860016 l -1.65310034,3.9755564 -0.3139063,0.8499344 z"
         id="path12"
         sodipodi:nodetypes="ccccscccc" />
      <path
         style="fill:#c4c8b7;stroke:#2e4618;stroke-width:0.1;stroke-linecap:butt;stroke-linejoin:miter;stroke-dasharray:none;stroke-opacity:1"
         d="m -2.8861082,-5.2695945 -0.6865756,1.5007888 -2.4188838,2.7661033 -1.4321692,0.30408096 -0.4508291,0.81145894 c -0.2271538,0.36401875 0.00125,0.59497698 -0.395294,0.944892 L -8.4374478,0.33525617 c 0.3215085,-0.53519433 0.2949459,-0.82535678 0.3628892,-1.27450486 l 2.0829874,-1.53584001 0.722808,-2.1457609 1.3048671,-1.3048451 0.2041169,0.3568913 0.5333059,-0.07794"
         id="path13"
         sodipodi:nodetypes="ccccccccccccc" />
      <path
         style="fill:#c4c8b7;stroke:#2e4618;stroke-width:0.1;stroke-linecap:butt;stroke-linejoin:miter;stroke-dasharray:none;stroke-opacity:1"
         d="m 0.9082654,19.861166 c -0.490325,0.593599 -0.95932114,1.187199 -1.83057063,1.780798 l -1.05191787,0.283318 -0.1735597,0.480721 c 0.8573473,0.07352 1.83939985,0.05149 2.51464046,-0.236419 0.66486894,-0.413831 0.6085842,-0.195541 1.32563754,-0.516895 0,0 0.7812475,-0.209039 0.8817508,-0.538429 C 2.6927943,20.72573 2.065901,20.006712 2.065901,20.006712 L 2.3447109,13.588813 1.7238986,9.841961 0.49554964,9.7534096 0.36530311,14.6889 Z"
         id="path14"
         sodipodi:nodetypes="ccccccscccccc" />
      <path
         style="fill:#c4c8b7;stroke:#2e4618;stroke-width:0.1;stroke-linecap:butt;stroke-linejoin:miter;stroke-dasharray:none;stroke-opacity:1"
         d="M 1.6887368,9.8378134 C 1.7622816,9.4164747 1.6728241,8.6796858 1.7474643,8.2587763 2.1319806,6.0904186 2.1212163,4.3545277 1.6799873,1.8625674 L -1.1973094,0.22833493 C -1.3196713,3.5426134 -0.45168465,6.5626926 0.40621644,9.7147973 L 0.53308348,11.35009 Z"
         id="path15"
         sodipodi:nodetypes="csccccc" />
      <path
         style="fill:#c4c8b7;fill-opacity:1;stroke:#2e4618;stroke-width:0.1;stroke-linecap:butt;stroke-linejoin:miter;stroke-dasharray:none;stroke-opacity:1"
         d="m -5.741556,-1.2936998 -0.1646326,0.40877396 -0.5241852,0.92659378 -0.8442802,0.48012924 0.4753418,-0.84003067 c 0.2499966,-0.14123724 0.3083687,-0.46734983 0.3595501,-0.80039981"
         id="path24"
         sodipodi:nodetypes="cccccc" />
    </g>
    <g
       inkscape:groupmode="layer"
       id="g17"
       inkscape:label="mid"
       sodipodi:insensitive="true">
      <path
         id="path16"
         style="fill:#c4c8b7;stroke:#2e4618;stroke-width:0.1;stroke-linecap:butt;stroke-linejoin:miter;stroke-dasharray:none;stroke-opacity:1"
         d="m -2.1718183,-10.893189 c -0.2588404,0.380744 -0.6404787,0.75665 -0.8375253,1.295846 0.2926858,0.4177903 0.4235337,0.8897346 1.1768804,1.1533787 -0.150876,2.9785546 -0.7136179,6.9236507 0.516057,8.88537055 L 1.4414062,2.2460938 3.8632812,0.3984375 C 4.4470903,0.12954413 4.0485887,-2.1273765 2.2558594,-3.1855469 0.62798245,-4.6913649 1.6953956,-6.3737839 2.203125,-8.0195312 L 3.5625,-10.685547 c 1.056813,-1.396974 1.3414129,-2.392746 -0.8085938,-2.125 l -1.1484374,-0.71875 -0.21875,-2.111328 -1.82031255,1.259766 0.55078125,0.896484 c -0.52681488,1.015556 -1.3649013,1.087787 -2.1210937,1.408203"
         sodipodi:nodetypes="ccccccccccccccc" />
    </g>
    <g
       inkscape:groupmode="layer"
       id="g22"
       inkscape:label="upper"
       style="display:inline"
       sodipodi:insensitive="true">
      <path
         style="fill:#c4c8b7;stroke:#2e4618;stroke-width:0.1;stroke-linecap:butt;stroke-linejoin:miter;stroke-dasharray:none;stroke-opacity:1"
         d="M 10.347518,19.589509 7.3789863,12.344895 6.0564861,9.1750999 4.582692,9.3690181 5.1850154,12.755287 c 0.4836345,2.718999 2.6791373,4.474904 4.1137664,6.808893 0.3545561,0.718922 -0.2727545,1.439886 -0.012632,1.855988 0.1886963,0.301847 1.0379542,0.251214 1.0379542,0.251214 0.745289,0.226102 1.233579,0.955422 1.849153,1.435512 0,0 0.296364,0.191477 0.42854,0.123449 0.135508,-0.06974 0.152336,-0.431083 0.152336,-0.431083 l 0.103069,-0.544422 c -0.18978,-0.356672 -0.519995,-0.416109 -1.411556,-1.377117 -0.358288,-0.386197 -0.879714,-0.620979 -1.098128,-1.288212 z"
         id="path19"
         sodipodi:nodetypes="ccccscsccsccsc" />
      <path
         style="fill:#c4c8b7;stroke:#2e4618;stroke-width:0.1;stroke-linecap:butt;stroke-linejoin:miter;stroke-dasharray:none;stroke-opacity:1"
         d="M 6.263211,10.162476 C 5.7367879,7.0208766 5.2807366,3.9171809 4.1336747,0.44129374 L 2.9004707,-0.55389702 1.4460302,2.2402323 c 0.9210557,3.9840521 2.1429767,5.4342534 3.2406954,7.9304707 l 1.3168018,0.889764 z"
         id="path18"
         sodipodi:nodetypes="ccccccc" />
      <path
         style="fill:#c4c8b7;stroke:#2e4618;stroke-width:0.1;stroke-linecap:butt;stroke-linejoin:miter;stroke-dasharray:none;stroke-opacity:1"
         d="m 2.8853382,-10.537069 c 0.6753718,0.0685 0.6446922,3.1748316 0.9605198,4.7902938 l 1.0413272,0.4628375 0.1605485,-0.9978317 -0.030614,-4.5420266 c 0,0 0.066573,-1.948792 -0.2981693,-2.249659 -0.3564275,-0.294008 -1.4082332,0.217417 -1.4082332,0.217417"
         id="path20"
         sodipodi:nodetypes="cccccsc" />
      <path
         style="fill:#c4c8b7;stroke:#2e4618;stroke-width:0.1;stroke-linecap:butt;stroke-linejoin:miter;stroke-dasharray:none;stroke-opacity:1"
         d="m 3.8447452,-5.7541211 c 0.2064043,0.6344695 0.3861349,1.5708293 0.6213322,1.9467226 0.4984991,0.7967033 1.6626241,2.0887364 2.2197779,3.05813243 0.1853786,0.32254154 0.4996952,0.53720698 0.7448096,0.81236985 0.479491,0.23556038 0.958982,0.48832448 1.438473,0.5820252 C 8.5959527,0.25005051 8.1991304,-0.10133668 7.8114695,-0.45596139 L 9.3577828,-0.07383468 10.735938,0.74461071 10.156839,-0.13011293 8.8643277,-0.94864093 7.3789225,-1.059212 c 0,0 -0.8065172,-2.0902062 -1.1967156,-3.2347106 C 5.9710696,-4.9132169 5.0367458,-6.250387 5.0367458,-6.250387"
         id="path21"
         sodipodi:nodetypes="cssccccccccsc" />
    </g>
    <g
       inkscape:groupmode="layer"
       id="layer1"
       inkscape:label="head"
       style="display:inline"
       sodipodi:insensitive="true">
      <path
         id="path23"
         style="fill:#c4c8b7;stroke:#2e4618;stroke-width:0.1;stroke-linecap:square;stroke-dasharray:none;stroke-opacity:1"
         d="m 2.5468113,-18.6307 c 0.4684679,1.985226 -0.9378026,3.664911 -2.93867387,4.699292 -0.94582093,-0.494338 -2.01655213,-0.422096 -3.21162543,-2.19736 -1.5016923,-2.89598 -0.070684,-4.828656 1.8408768,-5.27974 1.91156058,-0.451085 3.8409549,0.792582 4.3094225,2.777808 z"
         sodipodi:nodetypes="sccss"
         inkscape:label="head"
         sodipodi:insensitive="true" />
      <path
         style="fill:#5c6738;fill-opacity:1;stroke:none;stroke-width:0.1;stroke-linecap:butt;stroke-linejoin:miter;stroke-dasharray:none;stroke-opacity:1"
         d="m -3.8744456,-19.754408 c 1.5797636,-0.194993 1.1426293,0.599146 1.7949003,1.304965 0.4459971,-0.767676 0.8952933,-1.665954 2.15611195,-1.773903 1.45157555,0.145095 2.04211575,1.317966 1.96680945,2.959245 0.1324961,-0.68125 0.1723048,-1.619472 0.4152925,-1.551051 -0.3762189,-1.330075 -1.59624349,-2.335688 -2.63058411,-2.555099 -1.48473739,-0.314953 -2.87874989,0.138276 -3.70253009,1.615843 z"
         id="path1"
         sodipodi:nodetypes="cccccsc"
         inkscape:label="hair_line"
         sodipodi:insensitive="true" />
      <path
         style="fill:#8a916f;stroke:#2b451a;stroke-width:0.1;stroke-linecap:butt;stroke-linejoin:miter;stroke-dasharray:none;stroke-opacity:1"
         d="m -1.1761764,-16.586113 c 0.7301652,-0.546844 1.35543901,0.198339 2.15560957,-1.335865 -1.2105704,-1.605168 -1.53530168,0.479366 -2.15560957,1.335865 z"
         id="path48"
         sodipodi:nodetypes="ccc"
         inkscape:label="eye" />
      <path
         style="fill:#8a916f;stroke:#2b451a;stroke-width:0.1;stroke-linecap:butt;stroke-linejoin:miter;stroke-dasharray:none;stroke-opacity:1"
         d="m -3.9074557,-16.981346 c 0.1938849,0.49555 0.7377667,0.341403 1.1561433,0.461219 -0.7259215,-0.682099 -1.0799605,-1.707458 -1.410626,-1.439446 -0.024143,0.374936 0.2544827,0.978227 0.2544827,0.978227 z"
         id="path49"
         sodipodi:nodetypes="cccc"
         inkscape:label="eye" />
      <path
         style="fill:#5c6738;fill-opacity:1;stroke:none;stroke-width:0.1;stroke-linecap:butt;stroke-linejoin:miter;stroke-dasharray:none;stroke-opacity:1"
         d="m -1.1311026,-16.489099 c 0.41018345,-0.01006 0.61454522,-2.102437 2.1621385,-2.122254 -1.20552755,-0.352318 -2.3731297,0.894806 -2.1621385,2.122254 z"
         id="path50"
         sodipodi:nodetypes="ccc"
         transform="translate(-0.19729486,-0.7104119)"
         inkscape:label="brow" />
      <path
         style="fill:#5c6738;fill-opacity:1;stroke:none;stroke-width:0.1;stroke-linecap:butt;stroke-linejoin:miter;stroke-dasharray:none;stroke-opacity:1"
         d="m -2.6099884,-17.156236 c -0.4101834,-0.01006 -0.7466329,-1.052205 -1.6028713,-1.317037 0.4946697,-0.419114 1.265364,0.449835 1.6028713,1.317037 z"
         id="path51"
         sodipodi:nodetypes="ccc"
         inkscape:label="brow" />
      <path
         style="fill:#5c6738;fill-opacity:1;stroke:#2b451a;stroke-width:0.1;stroke-linecap:butt;stroke-linejoin:miter;stroke-dasharray:none;stroke-opacity:1"
         d="m -2.2834723,-15.186651 c 0.9078495,0.417268 0.4344788,-0.01336 1.5360039,0.06847 -0.946617,-0.260704 -1.2240227,-0.643025 -1.5360039,-0.06847 z"
         id="path52"
         sodipodi:nodetypes="ccc"
         transform="translate(0.30003372,0.27063219)"
         inkscape:label="lips" />
      <path
         style="fill:none;stroke:#2b4413;stroke-width:0.1;stroke-linecap:butt;stroke-linejoin:miter;stroke-dasharray:none;stroke-opacity:1"
         d="m -1.9474706,-14.916742 c 0.2231819,-0.14614 0.9445084,0.01466 1.45778147,0.04727"
         id="path53"
         sodipodi:nodetypes="cc"
         inkscape:label="mouth" />
      <path
         style="fill:none;stroke:#2b451a;stroke-width:0.1;stroke-linecap:butt;stroke-linejoin:miter;stroke-dasharray:none;stroke-opacity:1"
         d="m -2.4029666,-16.769577 c 0.6951084,0.218854 0.255368,0.776403 0.2259874,1.078727 l 0.2183871,0.209718 0.4064389,-0.242733"
         id="path54"
         sodipodi:nodetypes="cccc"
         inkscape:label="nose" />
      <path
         style="fill:#394023;fill-opacity:1;stroke:none;stroke-width:0.1;stroke-linecap:butt;stroke-linejoin:miter;stroke-dasharray:none;stroke-opacity:1"
         d="m -0.18300196,-18.19982 c 0.6951084,0.218854 0.55544871,0.797384 0.3924945,1.078512 -0.3176062,-0.157312 -0.66516297,-0.614539 -0.3924945,-1.078512 z"
         id="path55"
         sodipodi:nodetypes="ccc"
         inkscape:label="pupil" />
      <path
         style="fill:#394023;fill-opacity:1;stroke:none;stroke-width:0.1;stroke-linecap:butt;stroke-linejoin:miter;stroke-dasharray:none;stroke-opacity:1"
         d="m -3.8359975,-17.725953 c 0.4291342,0.394114 0.4114409,0.769419 0.2472754,1.005579 -0.2009585,-0.118598 -0.4173559,-0.588384 -0.2472754,-1.005579 z"
         id="path56"
         sodipodi:nodetypes="ccc"
         inkscape:label="pupil" />
    </g>
    <g
       inkscape:groupmode="layer"
       id="layer2"
       inkscape:label="skirt_keys"
       style="display:none"
       sodipodi:insensitive="true">
      <path
         id="path43"
         style="display:none;fill:#e2e3db;stroke:#374129;stroke-width:0.1;stroke-linecap:butt;stroke-linejoin:miter;stroke-dasharray:none;stroke-opacity:1"
         d="M 2.3860677,-13.249349 0.47786458,-9.7604167 C -0.03881843,-8.0453581 0.1532453,-6.129142 -1.0950521,-4.8138021 -1.6282112,-5.6868737 -1.4847257,-6.7483606 -1.5260417,-8.5110677 l -0.2623698,-1.124349 1.00390629,-3.0488283 -0.49739579,0.227214 -1.1940105,2.00651 -0.5807291,0.9622398 1.125,1.110677 c -0.3594768,2.7671612 -0.3875913,5.1121818 -0.2442514,6.1156612 0,0 0.9584929,5.3948077 1.27810554,8.1141565 1.14808485,9.7682095 -1.23707864,10.7648315 -1.23707864,10.7648315 1.34169557,-0.506819 4.3050377,1.98944 5.8044119,2.601767 1.6021868,0.579728 3.2043736,0.54774 4.8065604,0.05879 C 10.465927,18.560081 13.312326,14.820788 15.775027,15.475975 11.809971,9.0209829 7.3031246,9.6868365 3.9036459,-1.4508464 2.7800145,-2.2168147 1.5855803,-2.4450322 0.65755208,-4.6966146 0.9943126,-6.2648951 1.3505465,-7.8371429 2.4459635,-9.5598958 l 0.5839844,-3.3815102 z"
         sodipodi:nodetypes="cccccccccccsccccccccc"
         inkscape:label="skirt_1"
         sodipodi:insensitive="true" />
      <path
         id="path45"
         style="display:none;fill:#e2e3db;stroke:#374129;stroke-width:0.1;stroke-linecap:butt;stroke-linejoin:miter;stroke-dasharray:none;stroke-opacity:1"
         d="M 2.3860677,-13.249349 0.47786458,-9.7604167 C -0.03881843,-8.0453581 0.1532453,-6.129142 -1.0950521,-4.8138021 -1.6282112,-5.6868737 -1.4847257,-6.7483606 -1.5260417,-8.5110677 l -0.2623698,-1.124349 1.00390629,-3.0488283 -0.49739579,0.227214 -1.1940105,2.00651 -0.5807291,0.9622398 1.125,1.110677 c -0.3594768,2.7671612 -0.3875913,5.1121818 -0.2442514,6.1156612 0,0 0.9584929,5.3948077 1.27810554,8.1141565 C 0.25029839,15.620423 -2.1573706,19.047089 -2.1573706,19.047089 1.9850084,14.488827 3.795282,17.254712 5.2946562,17.867039 6.896843,18.446767 6.8739204,19.766552 8.4761072,19.277602 9.8541234,17.960837 13.613006,12.369558 15.66163,15.233119 11.696574,8.7781265 7.3031246,9.6868365 3.9036459,-1.4508464 2.7800145,-2.2168147 1.5855803,-2.4450322 0.65755208,-4.6966146 0.9943126,-6.2648951 1.3505465,-7.8371429 2.4459635,-9.5598958 l 0.5839844,-3.3815102 z"
         sodipodi:nodetypes="cccccccccccsccccccccc"
         inkscape:label="skirt_2"
         sodipodi:insensitive="true" />
      <path
         id="path47"
         style="display:none;fill:#e2e3db;stroke:#374129;stroke-width:0.1;stroke-linecap:butt;stroke-linejoin:miter;stroke-dasharray:none;stroke-opacity:1"
         d="M 2.3860677,-13.249349 0.47786458,-9.7604167 C -0.03881843,-8.0453581 0.1532453,-6.129142 -1.0950521,-4.8138021 -1.6282112,-5.6868737 -1.4847257,-6.7483606 -1.5260417,-8.5110677 l -0.2623698,-1.124349 1.00390629,-3.0488283 -0.49739579,0.227214 -1.1940105,2.00651 -0.5807291,0.9622398 1.125,1.110677 c -0.3594768,2.7671612 -0.3875913,5.1121818 -0.2442514,6.1156612 0,0 0.9584929,5.3948077 1.27810554,8.1141565 C 0.25029839,15.620423 -3.1981601,18.418762 -3.1981601,18.418762 0.08057534,15.303785 0.68033424,17.259261 2.1797084,17.871588 3.7818952,18.451316 5.6401498,20.322695 8.7325373,18.255323 11.344127,16.627875 12.881653,15.527416 16.63925,14.662425 10.914755,11.53295 7.3031246,9.6868365 3.9036459,-1.4508464 2.7800145,-2.2168147 1.5855803,-2.4450322 0.65755208,-4.6966146 0.9943126,-6.2648951 1.3505465,-7.8371429 2.4459635,-9.5598958 l 0.5839844,-3.3815102 z"
         sodipodi:nodetypes="cccccccccccsccccccccc"
         inkscape:label="skirt_3"
         sodipodi:insensitive="true" />
      <path
         id="path46"
         style="display:none;opacity:1;fill:#e2e3db;stroke:#374129;stroke-width:0.1;stroke-linecap:butt;stroke-linejoin:miter;stroke-dasharray:none;stroke-opacity:1"
         d="M 2.3860677,-13.249349 0.47786458,-9.7604167 C -0.03881843,-8.0453581 0.1532453,-6.129142 -1.0950521,-4.8138021 -1.6282112,-5.6868737 -1.4847257,-6.7483606 -1.5260417,-8.5110677 l -0.2623698,-1.124349 1.00390629,-3.0488283 -0.49739579,0.227214 -1.1940105,2.00651 -0.5807291,0.9622398 1.125,1.110677 c -0.3594768,2.7671612 -0.3875913,5.1121818 -0.2442514,6.1156612 0,0 0.9584929,5.3948077 1.27810554,8.1141565 1.14808485,9.7682095 -1.23707864,10.7648315 -1.23707864,10.7648315 1.34169557,-0.506819 4.3050377,1.98944 5.8044119,2.601767 1.6021868,0.579728 3.2043736,0.54774 4.8065604,0.05879 C 10.465927,18.560081 13.312326,14.820788 15.775027,15.475975 11.809971,9.0209829 7.3031246,9.6868365 3.9036459,-1.4508464 2.7800145,-2.2168147 1.5855803,-2.4450322 0.65755208,-4.6966146 0.9943126,-6.2648951 1.3505465,-7.8371429 2.4459635,-9.5598958 l 0.5839844,-3.3815102 z"
         sodipodi:nodetypes="cccccccccccsccccccccc"
         inkscape:label="skirt_1"
         sodipodi:insensitive="true" />
    </g>
    <g
       inkscape:groupmode="layer"
       id="layer3"
       inkscape:label="skirt_anim"
       style="display:inline"
       sodipodi:insensitive="true">
      <path
         id="path44"
         style="display:inline;fill:#e2e3db;stroke:#374129;stroke-width:0.1;stroke-linecap:butt;stroke-linejoin:miter;stroke-dasharray:none;stroke-opacity:1"
         d="M 2.3860677,-13.249349 0.47786458,-9.7604167 C -0.03881843,-8.0453581 0.1532453,-6.129142 -1.0950521,-4.8138021 -1.6282112,-5.6868737 -1.4847257,-6.7483606 -1.5260417,-8.5110677 l -0.2623698,-1.124349 1.00390629,-3.0488283 -0.49739579,0.227214 -1.1940105,2.00651 -0.5807291,0.9622398 c 0.1349862,0.578134 0.6314905,0.8431084 1.125,1.110677 -0.3594768,2.7671612 -0.3875913,5.1121818 -0.2442514,6.1156612 l 1.27810554,8.1141565 0.3203125,13.3118485 c 1.34169553,-0.506819 2.74764656,-0.557577 4.24702076,0.05475 1.6021868,0.579728 3.2043736,0.54774 4.8065604,0.05879 1.9898198,-0.717521 4.2766868,-0.572757 6.7393878,0.08243 L 3.9036459,-1.4508464 C 2.7800145,-2.2168147 1.5855803,-2.4450322 0.65755208,-4.6966146 0.9943126,-6.2648951 1.3505465,-7.8371429 2.4459635,-9.5598958 l 0.5839844,-3.3815102 z"
         sodipodi:nodetypes="ccccccccccccccccccccc"
         inkscape:label="skirt_anim">
        <animate
           id="skirt_anim"
           attributeName="d"
           repeatCount="indefinite"
           dur="1s"
           values=" M 2.3860677,-13.249349 0.47786458,-9.7604167 C -0.03881843,-8.0453581 0.1532453,-6.129142 -1.0950521,-4.8138021 -1.6282112,-5.6868737 -1.4847257,-6.7483606 -1.5260417,-8.5110677 l -0.2623698,-1.124349 1.00390629,-3.0488283 -0.49739579,0.227214 -1.1940105,2.00651 -0.5807291,0.9622398 1.125,1.110677 c -0.3594768,2.7671612 -0.3875913,5.1121818 -0.2442514,6.1156612 0,0 0.9584929,5.3948077 1.27810554,8.1141565 1.14808485,9.7682095 -1.23707864,10.7648315 -1.23707864,10.7648315 1.34169557,-0.506819 4.3050377,1.98944 5.8044119,2.601767 1.6021868,0.579728 3.2043736,0.54774 4.8065604,0.05879 C 10.465927,18.560081 13.312326,14.820788 15.775027,15.475975 11.809971,9.0209829 7.3031246,9.6868365 3.9036459,-1.4508464 2.7800145,-2.2168147 1.5855803,-2.4450322 0.65755208,-4.6966146 0.9943126,-6.2648951 1.3505465,-7.8371429 2.4459635,-9.5598958 l 0.5839844,-3.3815102 z; M 2.3860677,-13.249349 0.47786458,-9.7604167 C -0.03881843,-8.0453581 0.1532453,-6.129142 -1.0950521,-4.8138021 -1.6282112,-5.6868737 -1.4847257,-6.7483606 -1.5260417,-8.5110677 l -0.2623698,-1.124349 1.00390629,-3.0488283 -0.49739579,0.227214 -1.1940105,2.00651 -0.5807291,0.9622398 1.125,1.110677 c -0.3594768,2.7671612 -0.3875913,5.1121818 -0.2442514,6.1156612 0,0 0.9584929,5.3948077 1.27810554,8.1141565 C 0.25029839,15.620423 -2.1573706,19.047089 -2.1573706,19.047089 1.9850084,14.488827 3.795282,17.254712 5.2946562,17.867039 6.896843,18.446767 6.8739204,19.766552 8.4761072,19.277602 9.8541234,17.960837 13.613006,12.369558 15.66163,15.233119 11.696574,8.7781265 7.3031246,9.6868365 3.9036459,-1.4508464 2.7800145,-2.2168147 1.5855803,-2.4450322 0.65755208,-4.6966146 0.9943126,-6.2648951 1.3505465,-7.8371429 2.4459635,-9.5598958 l 0.5839844,-3.3815102 z; M 2.3860677,-13.249349 0.47786458,-9.7604167 C -0.03881843,-8.0453581 0.1532453,-6.129142 -1.0950521,-4.8138021 -1.6282112,-5.6868737 -1.4847257,-6.7483606 -1.5260417,-8.5110677 l -0.2623698,-1.124349 1.00390629,-3.0488283 -0.49739579,0.227214 -1.1940105,2.00651 -0.5807291,0.9622398 1.125,1.110677 c -0.3594768,2.7671612 -0.3875913,5.1121818 -0.2442514,6.1156612 0,0 0.9584929,5.3948077 1.27810554,8.1141565 C 0.25029839,15.620423 -3.1981601,18.418762 -3.1981601,18.418762 0.08057534,15.303785 0.68033424,17.259261 2.1797084,17.871588 3.7818952,18.451316 5.6401498,20.322695 8.7325373,18.255323 11.344127,16.627875 12.881653,15.527416 16.63925,14.662425 10.914755,11.53295 7.3031246,9.6868365 3.9036459,-1.4508464 2.7800145,-2.2168147 1.5855803,-2.4450322 0.65755208,-4.6966146 0.9943126,-6.2648951 1.3505465,-7.8371429 2.4459635,-9.5598958 l 0.5839844,-3.3815102 z; M 2.3860677,-13.249349 0.47786458,-9.7604167 C -0.03881843,-8.0453581 0.1532453,-6.129142 -1.0950521,-4.8138021 -1.6282112,-5.6868737 -1.4847257,-6.7483606 -1.5260417,-8.5110677 l -0.2623698,-1.124349 1.00390629,-3.0488283 -0.49739579,0.227214 -1.1940105,2.00651 -0.5807291,0.9622398 1.125,1.110677 c -0.3594768,2.7671612 -0.3875913,5.1121818 -0.2442514,6.1156612 0,0 0.9584929,5.3948077 1.27810554,8.1141565 1.14808485,9.7682095 -1.23707864,10.7648315 -1.23707864,10.7648315 1.34169557,-0.506819 4.3050377,1.98944 5.8044119,2.601767 1.6021868,0.579728 3.2043736,0.54774 4.8065604,0.05879 C 10.465927,18.560081 13.312326,14.820788 15.775027,15.475975 11.809971,9.0209829 7.3031246,9.6868365 3.9036459,-1.4508464 2.7800145,-2.2168147 1.5855803,-2.4450322 0.65755208,-4.6966146 0.9943126,-6.2648951 1.3505465,-7.8371429 2.4459635,-9.5598958 l 0.5839844,-3.3815102 z " />
      </path>
    </g>
    <g
       inkscape:groupmode="layer"
       id="layer_snakes"
       inkscape:label="snakes_anim"
       style="display:inline"
       sodipodi:insensitive="true">
      <path
         style="color:#000000;display:inline;fill:#5c6738;fill-opacity:1;stroke:#2e4618;stroke-width:0.1;stroke-dasharray:none;stroke-opacity:1"
         d="m -7.0277684,-16.674483 0.7686439,0.371171 c 0.5996733,-0.459901 0.6905249,-2.591565 2.3884198,-0.333219 -0.058509,-0.171785 -0.3197311,-0.742573 -0.379312,-1.570533 -1.7739,-2.172922 -1.5471658,-0.03503 -2.7777517,1.532581 z"
         id="path8"
         sodipodi:nodetypes="ccccc"
         inkscape:label="body_2">
        <animate
           id="sb_2"
           attributeName="d"
           repeatCount="indefinite"
           dur="2s"
           values=" m -7.0277684,-16.674483 0.7686439,0.371171 c 0.5996733,-0.459901 0.6905249,-2.591565 2.3884198,-0.333219 -0.058509,-0.171785 -0.3197311,-0.742573 -0.379312,-1.570533 -1.7739,-2.172922 -1.5471658,-0.03503 -2.7777517,1.532581 z; m -8.3667427,-15.326901 0.7686439,0.371171 c 0.5996733,-0.459901 1.0354385,-2.312269 3.7273941,-1.680801 -0.058509,-0.171785 -0.3197311,-0.742573 -0.379312,-1.570533 -2.6557867,0.09162 -2.8861401,1.312552 -4.116726,2.880163 z; m -7.0277684,-16.674483 0.7686439,0.371171 c 0.5996733,-0.459901 0.6905249,-2.591565 2.3884198,-0.333219 -0.058509,-0.171785 -0.3197311,-0.742573 -0.379312,-1.570533 -1.7739,-2.172922 -1.5471658,-0.03503 -2.7777517,1.532581 z " />
      </path>
      <g
         id="g44"
         inkscape:label="h2">
        <animateTransform
           id="head2"
           attributeName="transform"
           type="translate"
           values="0,0; -1.35,1.5; 0,0"
           keyTimes="0; 0.5; 1"
           dur="2s"
           repeatCount="indefinite" />
        <path
           style="fill:#5c6738;fill-opacity:1;stroke:#2e4618;stroke-width:0.1;stroke-linecap:butt;stroke-linejoin:miter;stroke-dasharray:none;stroke-opacity:1"
           d="m -6.2719421,-17.213555 c -0.7672102,0.08696 -1.3421696,0.590763 -1.954308,1.013952 0.056419,1.144173 -1.6437316,2.501535 -0.6722865,2.442372 l 0.7698702,-0.04689 c 0.6308557,-0.427065 1.3371387,-0.579633 2.0305993,-1.788086 0.1993433,-0.497033 0.109597,-1.042848 -0.173875,-1.621352 z"
           id="path28"
           sodipodi:nodetypes="ccsccc"
           inkscape:label="head_2" />
        <path
           style="display:inline;fill:#decd87;stroke:#33460e;stroke-width:0.1;stroke-linecap:butt;stroke-linejoin:miter;stroke-dasharray:none;stroke-opacity:1"
           d="m -7.0875441,-15.258128 c 0.2086591,-1.047941 0.4706852,-0.837723 0.7368333,-0.530327 -0.1305639,0.538044 -0.4609386,0.448647 -0.7368333,0.530327 z"
           id="path4"
           sodipodi:nodetypes="ccc"
           inkscape:label="eye_2" />
      </g>
      <path
         style="color:#000000;display:inline;fill:#5c6738;fill-opacity:1;stroke:#2e4618;stroke-width:0.1;stroke-dasharray:none;stroke-opacity:1"
         d="m -5.321715,-21.845568 1.4169302,0.490754 c 0.6940233,-0.211794 1.3878489,-0.42583 1.7644368,0.08555 0.4646843,-0.285893 1.28783994,-0.271837 1.90251184,-0.136379 -1.77389994,-2.172922 -3.22680444,-1.579858 -5.08387884,-0.439925 z"
         id="path2"
         sodipodi:nodetypes="cccccc"
         inkscape:label="body_1">
        <!---->
        <animate
           id="sb_1"
           attributeName="d"
           repeatCount="indefinite"
           dur="2s"
           values=" m -5.321715,-21.845568 1.4169302,0.490754 c 0.6940233,-0.211794 1.3878489,-0.42583 1.7644368,0.08555 0.4646843,-0.285893 1.28783994,-0.271837 1.90251184,-0.136379 -1.77389994,-2.172922 -3.22680444,-1.579858 -5.08387884,-0.439925 z; m -6.9535894,-23.063152 1.4169302,0.490754 c 1.6510512,-1.267643 3.0197233,0.791754 3.3963112,1.303134 0.4646843,-0.285893 1.28783994,-0.271837 1.90251184,-0.136379 -1.77389994,-2.172922 -4.23061324,-4.102826 -6.71575324,-1.657509 z; m -5.321715,-21.845568 1.4169302,0.490754 c 0.6940233,-0.211794 1.3878489,-0.42583 1.7644368,0.08555 0.4646843,-0.285893 1.28783994,-0.271837 1.90251184,-0.136379 -1.77389994,-2.172922 -3.22680444,-1.579858 -5.08387884,-0.439925 z" />
      </path>
      <g
         id="g43"
         inkscape:label="h1">
        <animateTransform
           id="head1"
           attributeName="transform"
           type="translate"
           values="0,0; -1.45,-1; 0,0"
           keyTimes="0; 0.5; 1"
           dur="2s"
           repeatCount="indefinite" />
        <path
           style="fill:#5c6738;fill-opacity:1;stroke:#2e4618;stroke-width:0.1;stroke-linecap:butt;stroke-linejoin:miter;stroke-dasharray:none;stroke-opacity:1"
           d="m -4.4127467,-22.369318 c -0.6723458,-0.266385 -2.0548782,0.681839 -2.0548782,0.681839 0.044077,0.601461 -0.3438815,1.44443 -1.0506397,2.465608 0.3304843,0.220197 0.6690215,0.429405 1.475515,0 0.2914796,-0.774505 1.6393877,-0.924162 2.2077269,-1.747528 0,0 -0.035016,-1.184898 -0.577724,-1.399919 z"
           id="path29"
           sodipodi:nodetypes="sccccs"
           inkscape:label="head_1" />
        <path
           style="fill:#decd87;stroke:#33460e;stroke-width:0.1;stroke-linecap:butt;stroke-linejoin:miter;stroke-dasharray:none;stroke-opacity:1"
           d="m -5.0074071,-20.781157 c 0.2086591,-1.047941 0.4706852,-0.837723 0.7368333,-0.530327 -0.1305639,0.538044 -0.4609386,0.448647 -0.7368333,0.530327 z"
           id="path3"
           sodipodi:nodetypes="ccc"
           inkscape:label="eye_1" />
      </g>
      <path
         style="color:#000000;display:inline;fill:#5c6738;fill-opacity:1;stroke:#2e4618;stroke-width:0.1;stroke-dasharray:none;stroke-opacity:1"
         d="m 1.680492,-20.24854 c 0.5384728,0.47531 0.6777598,1.059292 0.7618049,1.658313 0.6940233,-0.211794 0.9781047,0.213322 1.3546926,0.724702 0.4646843,-0.285893 2.8315537,-0.698963 2.22935,-2.753955 -0.8788348,-1.962349 -3.3498536,-1.140389 -4.3458475,0.37094 z"
         id="path9"
         sodipodi:nodetypes="ccccc"
         inkscape:label="body_3">
        <animate
           id="sb_3"
           attributeName="d"
           repeatCount="indefinite"
           dur="2s"
           values=" m 1.680492,-20.24854 c 0.5384728,0.47531 0.6777598,1.059292 0.7618049,1.658313 0.6940233,-0.211794 0.9781047,0.213322 1.3546926,0.724702 0.4646843,-0.285893 2.8315537,-0.698963 2.22935,-2.753955 -0.8788348,-1.962349 -3.3498536,-1.140389 -4.3458475,0.37094 z; m 1.680492,-20.24854 c 0.5384728,0.47531 0.6777598,1.059292 0.7618049,1.658313 0.1749209,-1.344895 5.0943085,-3.182168 1.9521364,0.130923 0.4646843,-0.285893 0.9861459,0.548399 1.6263753,0.08804 2.9536187,-4.214994 -3.3443227,-3.388605 -4.3403166,-1.877276 z; m 1.680492,-20.24854 c 0.5384728,0.47531 0.6777598,1.059292 0.7618049,1.658313 0.6940233,-0.211794 0.9781047,0.213322 1.3546926,0.724702 0.4646843,-0.285893 2.8315537,-0.698963 2.22935,-2.753955 -0.8788348,-1.962349 -3.3498536,-1.140389 -4.3458475,0.37094 z " />
      </path>
      <path
         style="color:#000000;display:inline;fill:#5c6738;fill-opacity:1;stroke:#2e4618;stroke-width:0.1;stroke-dasharray:none;stroke-opacity:1"
         d="m 1.8237161,-16.049105 -0.3278373,0.854217 c 3.7149544,-1.163441 4.6103842,1.476527 3.5096891,2.625066 0.4646843,-0.285893 1.0997398,-0.151715 1.7144117,-0.01626 0.4075654,-3.161176 -2.4124791,-4.935383 -4.8962635,-3.463026 z"
         id="path10"
         sodipodi:nodetypes="cccccc"
         inkscape:label="body_4">
        <animate
           id="sb_4"
           attributeName="d"
           repeatCount="indefinite"
           dur="2s"
           values=" m 1.8237161,-16.049105 -0.3278373,0.854217 c 3.7149544,-1.163441 4.6103842,1.476527 3.5096891,2.625066 0.4646843,-0.285893 1.0997398,-0.151715 1.7144117,-0.01626 0.4075654,-3.161176 -2.4124791,-4.935383 -4.8962635,-3.463026 z; m 2.0974504,-15.954372 -0.6015716,0.759484 c 3.7149544,-1.163441 5.5121585,0.664723 6.0339063,1.495949 0.4646843,-0.285893 1.0997398,-0.151715 1.7144117,-0.01626 -1.5885989,-2.439026 -4.458937,-4.193501 -6.9427214,-2.721144 z; m 1.8237161,-16.049105 -0.3278373,0.854217 c 3.7149544,-1.163441 4.6103842,1.476527 3.5096891,2.625066 0.4646843,-0.285893 1.0997398,-0.151715 1.7144117,-0.01626 0.4075654,-3.161176 -2.4124791,-4.935383 -4.8962635,-3.463026 z " />
      </path>
      <path
         style="color:#000000;display:inline;fill:#5c6738;fill-opacity:1;stroke:#2e4618;stroke-width:0.1;stroke-dasharray:none;stroke-opacity:1"
         d="m -1.7368126,-14.027575 c -0.8214668,0.396545 -0.6855754,1.897627 0.3480118,1.417467 1.09026739,-0.73009 1.93963978,-0.782735 1.92739116,0.152374 0.62927794,-0.509026 1.12488564,-0.338661 1.73955754,-0.203203 -1.77389999,-2.172922 -2.15788606,-2.506571 -4.0149605,-1.366638 z"
         id="path11"
         sodipodi:nodetypes="ccccc"
         inkscape:label="body_5">
        <animate
           id="sb_5"
           attributeName="d"
           repeatCount="indefinite"
           dur="2s"
           values=" m -1.7368126,-14.027575 c -0.8214668,0.396545 -0.6855754,1.897627 0.3480118,1.417467 1.09026739,-0.73009 1.93963978,-0.782735 1.92739116,0.152374 0.62927794,-0.509026 1.12488564,-0.338661 1.73955754,-0.203203 -1.77389999,-2.172922 -2.15788606,-2.506571 -4.0149605,-1.366638 z; m -1.7368126,-14.027575 c -0.8214668,0.396545 -0.6855754,1.897627 0.3480118,1.417467 1.09026739,-0.73009 1.37899089,0.917557 0.2647137,1.668375 0.62927797,-0.509026 1.12488567358,-0.338661 1.73955757,-0.203203 1.11794243,-0.712877 -0.49520863,-4.022572 -2.35228307,-2.882639 z; m -1.7368126,-14.027575 c -0.8214668,0.396545 -0.6855754,1.897627 0.3480118,1.417467 1.09026739,-0.73009 1.93963978,-0.782735 1.92739116,0.152374 0.62927794,-0.509026 1.12488564,-0.338661 1.73955754,-0.203203 -1.77389999,-2.172922 -2.15788606,-2.506571 -4.0149605,-1.366638 z " />
      </path>
      <g
         id="g45"
         inkscape:label="h3">
        <animateTransform
           id="head3"
           attributeName="transform"
           type="translate"
           values="0,0; -2,1.2; 0,0"
           keyTimes="0; 0.5; 1"
           dur="2s"
           repeatCount="indefinite" />
        <path
           style="fill:#5c6738;fill-opacity:1;stroke:#2e4618;stroke-width:0.1;stroke-linecap:butt;stroke-linejoin:miter;stroke-dasharray:none;stroke-opacity:1"
           d="m 2.1463788,-12.975477 c -0.8655301,-0.152055 -1.28313619,0.261397 -1.85587972,0.7795 0.3291676,0.718507 -0.38742432,1.683353 -1.04255023,2.5907288 l 1.19866752,-0.123371 C 1.3169389,-10.134704 1.821938,-10.271263 2.3486783,-11.076058 c 0.0216,-0.596633 0.6688304,-0.936734 -0.2022995,-1.899419 z"
           id="path25"
           sodipodi:nodetypes="cccccc"
           inkscape:label="head_5" />
        <path
           style="fill:#decd87;stroke:#33460e;stroke-width:0.1;stroke-linecap:butt;stroke-linejoin:miter;stroke-dasharray:none;stroke-opacity:1"
           d="m 1.4233418,-11.144497 c 0.2086591,-1.047941 0.4706852,-0.837723 0.7368333,-0.530327 -0.1305639,0.538044 -0.4609386,0.448647 -0.7368333,0.530327 z"
           id="path6"
           sodipodi:nodetypes="ccc"
           inkscape:label="eye_5" />
      </g>
      <g
         id="g47"
         inkscape:label="h5">
        <animateTransform
           id="head5"
           attributeName="transform"
           type="translate"
           values="0,0; 2.26,-0.46; 0,0"
           keyTimes="0; 0.5; 1"
           dur="2s"
           repeatCount="indefinite" />
        <path
           style="fill:#5c6738;fill-opacity:1;stroke:#2e4618;stroke-width:0.1;stroke-linecap:butt;stroke-linejoin:miter;stroke-dasharray:none;stroke-opacity:1"
           d="m 3.1861226,-18.884337 c -0.7344492,-0.10176 -1.4672638,0.795353 -1.9298776,1.38727 0.3311457,0.514878 -0.52626234,1.373961 -0.92671055,2.100708 0.33606806,0.207485 0.46249934,0.694205 1.47551505,0 0.3988115,-1.027768 1.3580651,-1.071918 1.949065,-1.986361 0.09695,-0.390724 0.2120266,-1.393543 -0.5679919,-1.501617 z"
           id="path27"
           sodipodi:nodetypes="sccccs"
           inkscape:label="head_3" />
        <path
           style="fill:#decd87;stroke:#33460e;stroke-width:0.1;stroke-linecap:butt;stroke-linejoin:miter;stroke-dasharray:none;stroke-opacity:1"
           d="m 2.5992511,-16.825982 c 0.2086591,-1.047941 0.4706852,-0.837723 0.7368333,-0.530327 -0.1305639,0.538044 -0.4609386,0.448647 -0.7368333,0.530327 z"
           id="path5"
           sodipodi:nodetypes="ccc"
           inkscape:label="eye_1" />
      </g>
      <g
         id="g46"
         inkscape:label="h4">
        <animateTransform
           id="head4"
           attributeName="transform"
           type="translate"
           values="0,0; 2.84,-1.28; 0,0"
           keyTimes="0; 0.5; 1"
           dur="2s"
           repeatCount="indefinite" />
        <path
           style="fill:#5c6738;fill-opacity:1;stroke:#2e4618;stroke-width:0.1;stroke-linecap:butt;stroke-linejoin:miter;stroke-dasharray:none;stroke-opacity:1"
           d="m 5.2300246,-13.069208 c 0.5089596,0.151141 1.1084477,-0.03308 1.4966618,0.146255 0.3164931,0.146206 0.4775596,0.642931 0.4576464,0.867697 0.2270307,0.91285 0.2000337,1.502361 0.9091585,2.3017682 L 6.9136921,-10.035023 c -0.4512459,-0.91981 -0.8276204,0.09788 -1.8575418,-1.412833 -0.51755,-0.374795 -0.7357795,-0.835748 0.1738743,-1.621352 z"
           id="path26"
           sodipodi:nodetypes="csccccc"
           inkscape:label="head_4" />
        <path
           style="fill:#decd87;stroke:#33460e;stroke-width:0.1;stroke-linecap:butt;stroke-linejoin:miter;stroke-dasharray:none;stroke-opacity:1"
           d="m 6.2130119,-11.600122 c -0.2086591,-1.047941 -0.4706852,-0.837723 -0.7368333,-0.530327 0.1305639,0.538044 0.4609386,0.448647 0.7368333,0.530327 z"
           id="path7"
           sodipodi:nodetypes="ccc"
           inkscape:label="eye_4" />
      </g>
    </g>
    <g
       inkscape:groupmode="layer"
       id="g48"
       inkscape:label="snakes_keys"
       style="display:none"
       sodipodi:insensitive="true">
      <path
         style="color:#000000;display:inline;fill:#5c6738;fill-opacity:1;stroke:#2e4618;stroke-width:0.1;stroke-dasharray:none;stroke-opacity:1"
         d="m -8.3667427,-15.326901 0.7686439,0.371171 c 0.5996733,-0.459901 1.0354385,-2.312269 3.7273941,-1.680801 -0.058509,-0.171785 -0.3197311,-0.742573 -0.379312,-1.570533 -2.6557867,0.09162 -2.8861401,1.312552 -4.116726,2.880163 z"
         id="path17"
         sodipodi:nodetypes="ccccc"
         inkscape:label="body_2" />
      <g
         id="g30"
         inkscape:label="h2"
         transform="translate(-1.3549109,1.5147093)">
        <path
           style="fill:#5c6738;fill-opacity:1;stroke:#2e4618;stroke-width:0.1;stroke-linecap:butt;stroke-linejoin:miter;stroke-dasharray:none;stroke-opacity:1"
           d="m -6.2719421,-17.213555 c -0.7672102,0.08696 -1.3421696,0.590763 -1.954308,1.013952 0.056419,1.144173 -1.6437316,2.501535 -0.6722865,2.442372 l 0.7698702,-0.04689 c 0.6308557,-0.427065 1.3371387,-0.579633 2.0305993,-1.788086 0.1993433,-0.497033 0.109597,-1.042848 -0.173875,-1.621352 z"
           id="path22"
           sodipodi:nodetypes="ccsccc"
           inkscape:label="head_2" />
        <path
           style="display:inline;fill:#decd87;stroke:#33460e;stroke-width:0.1;stroke-linecap:butt;stroke-linejoin:miter;stroke-dasharray:none;stroke-opacity:1"
           d="m -7.0875441,-15.258128 c 0.2086591,-1.047941 0.4706852,-0.837723 0.7368333,-0.530327 -0.1305639,0.538044 -0.4609386,0.448647 -0.7368333,0.530327 z"
           id="path30"
           sodipodi:nodetypes="ccc"
           inkscape:label="eye_2" />
      </g>
      <path
         style="color:#000000;display:inline;fill:#5c6738;fill-opacity:1;stroke:#2e4618;stroke-width:0.1;stroke-dasharray:none;stroke-opacity:1"
         d="m -6.9535894,-23.063152 1.4169302,0.490754 c 1.6510512,-1.267643 3.0197233,0.791754 3.3963112,1.303134 0.4646843,-0.285893 1.28783994,-0.271837 1.90251184,-0.136379 -1.77389994,-2.172922 -4.23061324,-4.102826 -6.71575324,-1.657509 z"
         id="path31"
         sodipodi:nodetypes="ccccc"
         inkscape:label="body_1" />
      <g
         id="g33"
         inkscape:label="h1"
         transform="translate(-1.4471708,-0.99399576)">
        <path
           style="fill:#5c6738;fill-opacity:1;stroke:#2e4618;stroke-width:0.1;stroke-linecap:butt;stroke-linejoin:miter;stroke-dasharray:none;stroke-opacity:1"
           d="m -4.4127467,-22.369318 c -0.6723458,-0.266385 -2.0548782,0.681839 -2.0548782,0.681839 0.044077,0.601461 -0.3438815,1.44443 -1.0506397,2.465608 0.3304843,0.220197 0.6690215,0.429405 1.475515,0 0.2914796,-0.774505 1.6393877,-0.924162 2.2077269,-1.747528 0,0 -0.035016,-1.184898 -0.577724,-1.399919 z"
           id="path32"
           sodipodi:nodetypes="sccccs"
           inkscape:label="head_1" />
        <path
           style="fill:#decd87;stroke:#33460e;stroke-width:0.1;stroke-linecap:butt;stroke-linejoin:miter;stroke-dasharray:none;stroke-opacity:1"
           d="m -5.0074071,-20.781157 c 0.2086591,-1.047941 0.4706852,-0.837723 0.7368333,-0.530327 -0.1305639,0.538044 -0.4609386,0.448647 -0.7368333,0.530327 z"
           id="path33"
           sodipodi:nodetypes="ccc"
           inkscape:label="eye_1" />
      </g>
      <path
         style="color:#000000;display:inline;fill:#5c6738;fill-opacity:1;stroke:#2e4618;stroke-width:0.1;stroke-dasharray:none;stroke-opacity:1"
         d="m 1.680492,-20.24854 c 0.5384728,0.47531 0.6777598,1.059292 0.7618049,1.658313 0.1749209,-1.344895 5.0943085,-3.182168 1.9521364,0.130923 0.4646843,-0.285893 0.9861459,0.548399 1.6263753,0.08804 2.9536187,-4.214994 -3.3443227,-3.388605 -4.3403166,-1.877276 z"
         id="path34"
         sodipodi:nodetypes="ccccc"
         inkscape:label="body_3" />
      <path
         style="color:#000000;display:inline;fill:#5c6738;fill-opacity:1;stroke:#2e4618;stroke-width:0.1;stroke-dasharray:none;stroke-opacity:1"
         d="m 2.0974504,-15.954372 -0.6015716,0.759484 c 3.7149544,-1.163441 5.5121585,0.664723 6.0339063,1.495949 0.4646843,-0.285893 1.0997398,-0.151715 1.7144117,-0.01626 -1.5885989,-2.439026 -4.458937,-4.193501 -6.9427214,-2.721144 z"
         id="path35"
         sodipodi:nodetypes="cccccc"
         inkscape:label="body_4" />
      <path
         style="color:#000000;display:inline;fill:#5c6738;fill-opacity:1;stroke:#2e4618;stroke-width:0.1;stroke-dasharray:none;stroke-opacity:1"
         d="m -1.7368126,-14.027575 c -0.8214668,0.396545 -0.6855754,1.897627 0.3480118,1.417467 1.09026739,-0.73009 1.37899089,0.917557 0.2647137,1.668375 0.62927797,-0.509026 1.12488567358,-0.338661 1.73955757,-0.203203 1.11794243,-0.712877 -0.49520863,-4.022572 -2.35228307,-2.882639 z"
         id="path36"
         sodipodi:nodetypes="ccccc"
         inkscape:label="body_5" />
      <g
         id="g38"
         inkscape:label="h3"
         transform="translate(-1.9759748,1.1907783)">
        <path
           style="fill:#5c6738;fill-opacity:1;stroke:#2e4618;stroke-width:0.1;stroke-linecap:butt;stroke-linejoin:miter;stroke-dasharray:none;stroke-opacity:1"
           d="m 2.1463788,-12.975477 c -0.8655301,-0.152055 -1.28313619,0.261397 -1.85587972,0.7795 0.3291676,0.718507 -0.38742432,1.683353 -1.04255023,2.5907288 l 1.19866752,-0.123371 C 1.3169389,-10.134704 1.821938,-10.271263 2.3486783,-11.076058 c 0.0216,-0.596633 0.6688304,-0.936734 -0.2022995,-1.899419 z"
           id="path37"
           sodipodi:nodetypes="cccccc"
           inkscape:label="head_5" />
        <path
           style="fill:#decd87;stroke:#33460e;stroke-width:0.1;stroke-linecap:butt;stroke-linejoin:miter;stroke-dasharray:none;stroke-opacity:1"
           d="m 1.4233418,-11.144497 c 0.2086591,-1.047941 0.4706852,-0.837723 0.7368333,-0.530327 -0.1305639,0.538044 -0.4609386,0.448647 -0.7368333,0.530327 z"
           id="path38"
           sodipodi:nodetypes="ccc"
           inkscape:label="eye_5" />
      </g>
      <g
         id="g40"
         inkscape:label="h5"
         transform="translate(2.2569286,-0.45755327)">
        <path
           style="fill:#5c6738;fill-opacity:1;stroke:#2e4618;stroke-width:0.1;stroke-linecap:butt;stroke-linejoin:miter;stroke-dasharray:none;stroke-opacity:1"
           d="m 3.1861226,-18.884337 c -0.7344492,-0.10176 -1.4672638,0.795353 -1.9298776,1.38727 0.3311457,0.514878 -0.52626234,1.373961 -0.92671055,2.100708 0.33606806,0.207485 0.46249934,0.694205 1.47551505,0 0.3988115,-1.027768 1.3580651,-1.071918 1.949065,-1.986361 0.09695,-0.390724 0.2120266,-1.393543 -0.5679919,-1.501617 z"
           id="path39"
           sodipodi:nodetypes="sccccs"
           inkscape:label="head_3" />
        <path
           style="fill:#decd87;stroke:#33460e;stroke-width:0.1;stroke-linecap:butt;stroke-linejoin:miter;stroke-dasharray:none;stroke-opacity:1"
           d="m 2.5992511,-16.825982 c 0.2086591,-1.047941 0.4706852,-0.837723 0.7368333,-0.530327 -0.1305639,0.538044 -0.4609386,0.448647 -0.7368333,0.530327 z"
           id="path40"
           sodipodi:nodetypes="ccc"
           inkscape:label="eye_1" />
      </g>
      <g
         id="g42"
         inkscape:label="h4"
         transform="translate(2.8362521,-1.2846967)">
        <path
           style="fill:#5c6738;fill-opacity:1;stroke:#2e4618;stroke-width:0.1;stroke-linecap:butt;stroke-linejoin:miter;stroke-dasharray:none;stroke-opacity:1"
           d="m 5.2300246,-13.069208 c 0.5089596,0.151141 1.1084477,-0.03308 1.4966618,0.146255 0.3164931,0.146206 0.4775596,0.642931 0.4576464,0.867697 0.2270307,0.91285 0.2000337,1.502361 0.9091585,2.3017682 L 6.9136921,-10.035023 c -0.4512459,-0.91981 -0.8276204,0.09788 -1.8575418,-1.412833 -0.51755,-0.374795 -0.7357795,-0.835748 0.1738743,-1.621352 z"
           id="path41"
           sodipodi:nodetypes="csccccc"
           inkscape:label="head_4" />
        <path
           style="fill:#decd87;stroke:#33460e;stroke-width:0.1;stroke-linecap:butt;stroke-linejoin:miter;stroke-dasharray:none;stroke-opacity:1"
           d="m 6.2130119,-11.600122 c -0.2086591,-1.047941 -0.4706852,-0.837723 -0.7368333,-0.530327 0.1305639,0.538044 0.4609386,0.448647 0.7368333,0.530327 z"
           id="path42"
           sodipodi:nodetypes="ccc"
           inkscape:label="eye_4" />
      </g>
    </g>
  </g>
</svg>
