<?xml version="1.0" encoding="UTF-8" standalone="no"?>
<!-- Created with Inkscape (http://www.inkscape.org/) -->

<svg
   width="170"
   height="165"
   viewBox="0 0 170 165"
   version="1.1"
   id="svg1"
   inkscape:version="1.3.2 (091e20e, 2023-11-25)"
   sodipodi:docname="rubins_vase.svg"
   xmlns:inkscape="http://www.inkscape.org/namespaces/inkscape"
   xmlns:sodipodi="http://sodipodi.sourceforge.net/DTD/sodipodi-0.dtd"
   xmlns="http://www.w3.org/2000/svg"
   xmlns:svg="http://www.w3.org/2000/svg">
  <sodipodi:namedview
     id="namedview1"
     pagecolor="#ffffff"
     bordercolor="#666666"
     borderopacity="1.0"
     inkscape:showpageshadow="2"
     inkscape:pageopacity="0.0"
     inkscape:pagecheckerboard="0"
     inkscape:deskcolor="#d1d1d1"
     inkscape:document-units="px"
     inkscape:zoom="1.4142136"
     inkscape:cx="88.388348"
     inkscape:cy="246.07316"
     inkscape:window-width="1515"
     inkscape:window-height="948"
     inkscape:window-x="210"
     inkscape:window-y="95"
     inkscape:window-maximized="0"
     inkscape:current-layer="layer1" />
  <defs
     id="defs1" />
  <g
     inkscape:label="Layer 1"
     inkscape:groupmode="layer"
     id="layer1">
    <rect
       style="fill:#999999;fill-opacity:1;stroke:#323232;stroke-width:0.250198;stroke-linecap:square"
       id="rect1"
       width="169.7498"
       height="164.7498"
       x="0.12509924"
       y="0.125099" />
    <path
       style="fill:#b3b3b3;stroke:none;stroke-width:0.990808px;stroke-linecap:butt;stroke-linejoin:miter;stroke-opacity:1"
       d="M 25.676617,0.17404362 129.4759,0 c -13.8825,24.921953 1.77208,47.052835 -32.022706,63.060484 L 109.48729,73.26296 c 6.11621,9.38544 5.98628,18.429251 -10.345086,24.291079 l 12.575776,6.221751 -10.12483,4.33278 6.60446,8.46204 c 3.29945,3.18356 -13.339336,16.9224 -5.93428,30.40719 9.66625,2.80553 11.04982,11.78837 21.02643,18.0222 l -86.81219,-0.51976 c 17.465278,-10.45868 9.716962,-14.478 23.577317,-18.11582 2.563615,-11.66183 -15.219441,-29.12566 -11.763611,-32.6465 l 8.764472,-5.84939 -9.9469,-4.92863 10.057225,-4.598081 C 46.956464,93.244406 38.99322,80.911821 49.658419,71.719778 l 9.883671,-8.30855 C 24.493124,45.554586 40.229504,23.258841 25.676617,0.17404362 Z"
       id="path1"
       sodipodi:nodetypes="ccccccccccccccccccc" />
  </g>
</svg>
