<svg class="layercake-layout-svg svelte-u84d8d" width="707" height="398"><defs></defs><g class="layercake-layout-svg_g" transform="translate(36, 20)"><g class="axis x-axis"><g class="tick tick-0" transform="translate(0,323)"><line class="tick-mark" y1="0" y2="20" x1="0" x2="0"></line><text x="0" y="30" dy="0" text-anchor="middle">1850</text></g><g class="tick tick-1" transform="translate(165.9974208075722,323)"><line class="tick-mark" y1="0" y2="20" x1="0" x2="0"></line><text x="0" y="30" dy="0" text-anchor="middle">1900</text></g><g class="tick tick-2" transform="translate(331.9948165761922,323)"><line class="tick-mark" y1="0" y2="20" x1="0" x2="0"></line><text x="0" y="30" dy="0" text-anchor="middle">1950</text></g><g class="tick tick-3" transform="translate(497.99221234481223,323)"><line class="tick-mark" y1="0" y2="20" x1="0" x2="0"></line><text x="0" y="30" dy="0" text-anchor="middle">2000</text></g></g> <g class="axis y-axis" transform="translate(-36, 0)"><g class="tick tick-0" transform="translate(0, 323)"><line class="gridline" x1="21" x2="622" y1="0" y2="0"></line><text x="-2" y="0" dx="21" dy="4" style="text-anchor: end;">0</text></g><g class="tick tick-10" transform="translate(0, 258.40000000000003)"><line class="gridline" x1="21" x2="622" y1="0" y2="0"></line><text x="-2" y="0" dx="21" dy="4" style="text-anchor: end;">10</text></g><g class="tick tick-20" transform="translate(0, 193.79999999999998)"><line class="gridline" x1="21" x2="622" y1="0" y2="0"></line><text x="-2" y="0" dx="21" dy="4" style="text-anchor: end;">20</text></g><g class="tick tick-30" transform="translate(0, 129.20000000000002)"><line class="gridline" x1="21" x2="622" y1="0" y2="0"></line><text x="-2" y="0" dx="21" dy="4" style="text-anchor: end;">30</text></g><g class="tick tick-40" transform="translate(0, 64.59999999999998)"><line class="gridline" x1="21" x2="622" y1="0" y2="0"></line><text x="-2" y="0" dx="21" dy="4" style="text-anchor: end;">40</text></g><g class="tick tick-50" transform="translate(0, 0)"><line class="gridline" x1="28" x2="622" y1="0" y2="0"></line><text x="-2" y="0" dx="21" dy="4" class="tick-label-top" style="text-anchor: end;">50</text><text x="-2" y="0" dx="21" dy="4" class="tick-label-top" style="text-anchor: start;">%</text></g></g>  <g class="line-group"><path class="bg-line svelte-10exszr" d="M0,164.73L3.318,166.28L6.636,165.699L9.962,172.03L13.28,171.061L16.598,172.094L19.916,182.947L23.243,199.679L26.56,211.048L29.878,223.322L33.196,221.772L36.523,231.203L39.84,154.523L43.158,140.311L46.476,116.022L49.803,74.548L53.121,52.907L56.438,35.142L59.756,22.222L63.083,33.85L66.401,33.011L69.719,61.305L73.036,77.585L76.363,142.766L79.681,140.247L82.999,133.334L86.316,121.125L89.643,134.368L92.961,135.66L96.279,127.068L99.597,134.885L102.923,130.557L106.241,128.166L109.559,128.942L112.877,138.89L116.204,124.355L119.521,126.939L122.839,119.381L126.157,125.647L129.484,129.071L132.802,131.849L136.119,157.301L139.437,183.141L142.764,168.541L146.082,190.182L149.399,190.958L152.717,189.472L156.044,181.591L159.362,162.986L162.68,132.559L165.997,144.575L169.315,136.241L172.633,142.443L175.951,143.089L179.268,153.167L182.595,169.446L185.913,166.539L189.231,172.611L192.549,168.735L195.875,174.485L199.193,186.629L202.511,191.927L205.829,202.973L209.156,208.723L212.473,226.875L215.791,242.315L219.109,264.343L222.436,277.715L225.754,285.597L229.071,282.948L232.389,281.785L235.716,249.098L239.034,228.167L242.351,224.937L245.669,226.811L248.996,237.663L252.314,236.501L255.632,233.787L258.949,237.082L262.276,235.919L265.594,227.198L268.912,208.335L272.23,196.449L275.556,195.092L278.874,204.071L282.192,209.821L285.51,214.214L288.837,222.03L292.154,223.128L295.472,229.911L298.79,242.185L302.117,235.209L305.435,248.645L308.752,248.258L312.07,261.953L315.397,262.987L318.715,259.046L322.032,274.227L325.35,286.113L328.677,287.276L331.995,284.434L335.313,287.664L338.63,288.762L341.957,287.987L345.275,289.602L348.593,286.889L351.911,286.372L355.237,285.79L358.555,281.398L361.873,277.651L365.191,275.196L368.518,276.423L371.835,274.55L375.153,275.907L378.471,276.488L381.798,273.129L385.115,274.098L388.433,274.292L391.751,277.263L395.078,277.069L398.396,281.01L401.713,283.723L405.031,286.501L408.358,289.15L411.676,298.646L414.994,297.677L418.311,298.064L421.638,298.904L424.956,296.256L428.274,300.39L431.591,303.039L434.918,300.842L438.236,300.797L441.554,301.469L444.872,300.132L448.198,300.119L451.516,299.092L454.834,298.949L458.152,299.589L461.479,300.112L464.796,301.811L468.114,302.121L471.432,302.083L474.759,302.212L478.077,303.394L481.394,307.057L484.712,308.581L488.039,309.634L491.357,310.242L494.674,311.495L497.992,312.729L501.319,312.341L504.637,312.948L507.955,313.006L511.272,313.711L514.599,314.118L517.917,314.524L521.235,314.311L524.553,314.776L527.879,314.26L531.197,314.124L534.515,314.363L537.833,314.357L541.16,313.82L544.477,313.723L547.795,313.123L551.113,312.974L554.44,313.4L557.757,310.461L561.075,303.982L564.393,304.621L567.72,303.549L571.038,303.588L574.355,306.934L577.673,307.38L581,177.65" stroke="#fff"></path><path class="path-line svelte-10exszr" d="M0,164.73L3.318,166.28L6.636,165.699L9.962,172.03L13.28,171.061L16.598,172.094L19.916,182.947L23.243,199.679L26.56,211.048L29.878,223.322L33.196,221.772L36.523,231.203L39.84,154.523L43.158,140.311L46.476,116.022L49.803,74.548L53.121,52.907L56.438,35.142L59.756,22.222L63.083,33.85L66.401,33.011L69.719,61.305L73.036,77.585L76.363,142.766L79.681,140.247L82.999,133.334L86.316,121.125L89.643,134.368L92.961,135.66L96.279,127.068L99.597,134.885L102.923,130.557L106.241,128.166L109.559,128.942L112.877,138.89L116.204,124.355L119.521,126.939L122.839,119.381L126.157,125.647L129.484,129.071L132.802,131.849L136.119,157.301L139.437,183.141L142.764,168.541L146.082,190.182L149.399,190.958L152.717,189.472L156.044,181.591L159.362,162.986L162.68,132.559L165.997,144.575L169.315,136.241L172.633,142.443L175.951,143.089L179.268,153.167L182.595,169.446L185.913,166.539L189.231,172.611L192.549,168.735L195.875,174.485L199.193,186.629L202.511,191.927L205.829,202.973L209.156,208.723L212.473,226.875L215.791,242.315L219.109,264.343L222.436,277.715L225.754,285.597L229.071,282.948L232.389,281.785L235.716,249.098L239.034,228.167L242.351,224.937L245.669,226.811L248.996,237.663L252.314,236.501L255.632,233.787L258.949,237.082L262.276,235.919L265.594,227.198L268.912,208.335L272.23,196.449L275.556,195.092L278.874,204.071L282.192,209.821L285.51,214.214L288.837,222.03L292.154,223.128L295.472,229.911L298.79,242.185L302.117,235.209L305.435,248.645L308.752,248.258L312.07,261.953L315.397,262.987L318.715,259.046L322.032,274.227L325.35,286.113L328.677,287.276L331.995,284.434L335.313,287.664L338.63,288.762L341.957,287.987L345.275,289.602L348.593,286.889L351.911,286.372L355.237,285.79L358.555,281.398L361.873,277.651L365.191,275.196L368.518,276.423L371.835,274.55L375.153,275.907L378.471,276.488L381.798,273.129L385.115,274.098L388.433,274.292L391.751,277.263L395.078,277.069L398.396,281.01L401.713,283.723L405.031,286.501L408.358,289.15L411.676,298.646L414.994,297.677L418.311,298.064L421.638,298.904L424.956,296.256L428.274,300.39L431.591,303.039L434.918,300.842L438.236,300.797L441.554,301.469L444.872,300.132L448.198,300.119L451.516,299.092L454.834,298.949L458.152,299.589L461.479,300.112L464.796,301.811L468.114,302.121L471.432,302.083L474.759,302.212L478.077,303.394L481.394,307.057L484.712,308.581L488.039,309.634L491.357,310.242L494.674,311.495L497.992,312.729L501.319,312.341L504.637,312.948L507.955,313.006L511.272,313.711L514.599,314.118L517.917,314.524L521.235,314.311L524.553,314.776L527.879,314.26L531.197,314.124L534.515,314.363L537.833,314.357L541.16,313.82L544.477,313.723L547.795,313.123L551.113,312.974L554.44,313.4L557.757,310.461L561.075,303.982L564.393,304.621L567.72,303.549L571.038,303.588L574.355,306.934L577.673,307.38L581,177.65" stroke="#6533ff"></path></g> <g class="circle-group"><circle class="circleLabel svelte-10exszr" cx="581" cy="177.65" r="4" fill="#6533ff"></circle></g> <g class="text-group"><text class="line-label line-label--number" text-anchor="start" fill="#6533ff" transform="translate(581.0000000004464, 177.64999999999975)" dx="10" dy="5">22.5%</text></g> </g></svg>