<?xml version="1.0" encoding="UTF-8" standalone="no"?>
<!-- Created with Inkscape (http://www.inkscape.org/) -->

<svg
   width="150"
   height="250"
   viewBox="0 0 39.687517 66.145852"
   version="1.1"
   id="svg1"
   inkscape:version="1.3.2 (091e20e, 2023-11-25)"
   sodipodi:docname="athena.svg"
   inkscape:export-filename="athena.png"
   inkscape:export-xdpi="96"
   inkscape:export-ydpi="96"
   xmlns:inkscape="http://www.inkscape.org/namespaces/inkscape"
   xmlns:sodipodi="http://sodipodi.sourceforge.net/DTD/sodipodi-0.dtd"
   xmlns="http://www.w3.org/2000/svg"
   xmlns:svg="http://www.w3.org/2000/svg">
  <sodipodi:namedview
     id="namedview1"
     pagecolor="#ffffff"
     bordercolor="#666666"
     borderopacity="1.0"
     inkscape:showpageshadow="2"
     inkscape:pageopacity="0.0"
     inkscape:pagecheckerboard="0"
     inkscape:deskcolor="#d1d1d1"
     inkscape:document-units="px"
     inkscape:zoom="4.6159931"
     inkscape:cx="47.335426"
     inkscape:cy="139.08166"
     inkscape:window-width="1675"
     inkscape:window-height="984"
     inkscape:window-x="129"
     inkscape:window-y="34"
     inkscape:window-maximized="0"
     inkscape:current-layer="layer3"
     showguides="true" />
  <defs
     id="defs1" />
  <g
     inkscape:groupmode="layer"
     id="layer5"
     inkscape:label="spare_parts"
     sodipodi:insensitive="true"
     style="display:inline">
    <g
       id="g2"
       transform="translate(-14.733303,-0.60643445)"
       inkscape:label="hand_0"
       style="display:inline">
      <path
         id="path9"
         style="fill:#333333;fill-opacity:1;stroke:none;stroke-width:0.149052px;stroke-linecap:butt;stroke-linejoin:miter;stroke-opacity:1"
         d="m 7.6563829,30.304104 c 0,0 -0.2481957,0.441692 -0.3188437,0.682646 -0.063811,0.217635 0.055294,0.899687 0.055294,0.899687 0.072501,0.657915 0.2796008,1.066029 0.3953249,1.649512 0.034328,0.208175 0.0029,0.45211 -0.029972,0.672326 -0.022656,0.395706 -0.062296,1.326359 -0.179834,1.646929 l 0.1943034,0.83044 c 0.2150991,-0.118857 0.1809015,-0.614726 0.1555456,-0.78653 l 0.1875855,-0.487826 -0.00413,0.664042 0.3958416,0.645956 0.1850017,0.295072 0.188619,-0.234611 0.357601,0.371037 0.1353923,-0.422713 -0.076481,-0.738457 -0.056844,-0.578776 0.3989422,0.607715 c 0.1396176,0.444187 0.3257997,0.634677 0.5234826,0.761194 0.06711,-0.243583 -0.04121,-0.543262 -0.2118736,-0.862996 l -0.63407,-1.540475 C 8.9379155,33.929408 8.6558578,33.700146 8.5726064,33.138041 8.5452757,32.663689 8.8719853,31.671463 9.0216748,30.938174 L 8.5643382,30.432779 Z"
         inkscape:label="hand"
         sodipodi:nodetypes="csccccccccccccccccccccccc" />
      <path
         id="path30"
         style="fill:#f2f2f2;fill-opacity:1;stroke:none;stroke-width:0.149052px;stroke-linecap:butt;stroke-linejoin:miter;stroke-opacity:1"
         d="m 7.6563829,30.304104 c 0,0 -0.195316,0.436268 -0.265964,0.677222 -0.063811,0.217635 0.055294,0.899687 0.055294,0.899687 0.072501,0.657915 0.2796008,1.066029 0.3953249,1.649512 0.034328,0.208175 0.0029,0.45211 -0.029972,0.672326 -0.022656,0.395706 -0.062296,1.326359 -0.179834,1.646929 l 0.1414237,0.835864 c 0.2150991,-0.118857 0.1305332,-0.60076 0.1051773,-0.772564 l 0.2379538,-0.501792 0.077729,0.658026 0.3139823,0.651972 0.1850017,0.295072 0.188619,-0.234611 0.357601,0.371037 0.1353923,-0.422713 -0.1292037,-0.717002 -0.00412,-0.600231 0.4454692,0.600835 c 0.1396176,0.444187 0.2792727,0.641557 0.4769556,0.768074 0.06711,-0.243583 -0.08886,-0.537932 -0.2595231,-0.857666 l -0.63407,-1.540475 C 8.890266,33.934738 8.6082083,33.705476 8.5249569,33.143371 8.4976262,32.669019 8.8719853,31.671463 9.0216748,30.938174 L 9.1029072,30.69533 8.7979583,30.147313 7.812431,30.094805 Z"
         inkscape:label="hand"
         sodipodi:nodetypes="csccccccccccccccccccccccccc" />
    </g>
  </g>
  <g
     inkscape:label="Layer 1"
     inkscape:groupmode="layer"
     id="layer1"
     style="display:none"
     sodipodi:insensitive="true">
    <rect
       style="fill:#cccccc;fill-opacity:1;stroke-width:0.210083"
       id="rect1"
       width="41.173145"
       height="67.675667"
       x="-0.6275624"
       y="-0.60813332" />
  </g>
  <g
     inkscape:groupmode="layer"
     id="layer2"
     inkscape:label="Layer 2"
     sodipodi:insensitive="true">
    <path
       style="fill:#333333;fill-opacity:1;stroke:none;stroke-width:0.134547px;stroke-linecap:butt;stroke-linejoin:miter;stroke-opacity:1"
       d="m 12.664468,25.3604 -1.015532,2.225056 c -0.646447,0.143472 -1.9556056,2.08351 -2.6670691,3.427866 l -1.366951,-0.580284 c 0.3358727,-0.992351 1.2479196,-2.140457 1.7942033,-3.089423 0.2152218,-0.373869 0.4141351,-0.832252 0.4510281,-0.98912 0.1325636,-0.563656 0.3297597,-1.598995 1.2267887,-1.48248 0.295912,0.03844 0.76622,0.425224 1.577532,0.488385 z"
       id="path29"
       sodipodi:nodetypes="ccccsssc" />
    <path
       style="fill:#333333;fill-opacity:1;stroke:none;stroke-width:0.139512px;stroke-linecap:butt;stroke-linejoin:miter;stroke-opacity:1"
       d="m 21.111594,55.969776 1.076912,0.267641 10.586502,-44.247114 c 0.309701,-0.137402 0.301694,-0.413491 0.141334,-0.623298 l 0.20475,-0.796371 c 1.509384,-1.078897 0.824007,-3.1948352 1.655842,-7.5320392 -1.380964,4.174867 -3.074943,5.8857576 -2.274108,7.3684472 l -0.247539,0.839577 c -0.261806,0.103468 -0.320491,0.288733 -0.181937,0.547737 z"
       id="path25"
       sodipodi:nodetypes="cccccccccc"
       inkscape:label="spear_lines" />
    <path
       style="fill:#ffffff;fill-opacity:1;stroke:none;stroke-width:0.139512px;stroke-linecap:butt;stroke-linejoin:miter;stroke-opacity:1"
       d="m 21.171969,55.993796 0.886622,0.284884 10.626323,-44.262429 c 0.309701,-0.137402 0.301694,-0.413491 0.141334,-0.623298 l 0.20475,-0.796371 C 34.540382,9.5176856 33.936619,7.4730084 34.768454,3.1358044 33.38749,7.3106714 31.735475,8.9323669 32.53631,10.415057 l -0.247539,0.839577 c -0.261806,0.103468 -0.320491,0.288733 -0.181937,0.547737 z"
       id="path12"
       sodipodi:nodetypes="cccccccccc"
       inkscape:label="spear" />
    <path
       style="fill:#ffffff;fill-opacity:1;stroke:none;stroke-width:0.134547px;stroke-linecap:butt;stroke-linejoin:miter;stroke-opacity:1"
       d="m 12.664468,25.3604 -1.015532,2.225056 c -0.743709,0.13742 -2.0780931,2.075889 -2.6670691,3.427866 l -1.366951,-0.580284 c 0.3358727,-0.992351 1.3286863,-2.096638 1.87497,-3.045604 0.2152218,-0.373869 0.3333684,-0.876071 0.3702614,-1.032939 0.1325636,-0.563656 0.3587687,-1.490935 1.2557977,-1.37442 0.295912,0.03844 0.737211,0.317164 1.548523,0.380325 z"
       id="path8"
       sodipodi:nodetypes="ccccsssc" />
    <g
       id="g13"
       inkscape:label="leg"
       transform="rotate(-5.8686154,-78.325195,75.945295)"
       style="fill:#e6e6e6;fill-opacity:1;stroke:none">
      <path
         style="fill:#e6e6e6;fill-opacity:1;stroke:none;stroke-width:0.1759px;stroke-linecap:butt;stroke-linejoin:miter;stroke-opacity:1"
         d="m 11.879699,54.710883 1.171383,0.101614 0.767329,3.959051 -0.775404,7.370745 -0.717468,4.31e-4 -0.820254,-7.796134 z"
         id="path5"
         sodipodi:nodetypes="ccccccc" />
      <path
         style="fill:#e6e6e6;fill-opacity:1;stroke:none;stroke-width:0.158782px;stroke-linecap:butt;stroke-linejoin:miter;stroke-opacity:1"
         d="m 11.694147,45.651355 2.794531,0.440974 c -0.474501,3.015727 -0.427144,6.033294 -1.427182,9.047168 l -1.109315,0.27244 C 11.798285,54.879498 11.788595,54.31327 11.907371,53.716941 11.412819,51.68081 11.755532,48.354812 11.694147,45.651355 Z"
         id="path4"
         sodipodi:nodetypes="cccccc" />
      <path
         style="fill:#333333;fill-opacity:1;stroke:none;stroke-width:0.17666px;stroke-linecap:butt;stroke-linejoin:miter;stroke-opacity:1"
         d="m 13.170778,64.999476 c 0.01595,0.623286 -0.08462,1.531567 0.341589,1.772973 0.326985,0.353211 0.497078,0.880786 0.244891,1.053579 -0.215561,0.147695 -1.424426,0.395902 -1.898562,0.900145 -0.355245,0.377803 -0.522837,0.192345 -0.979799,0.40664 -0.593006,0.168451 -0.878538,-0.176236 -0.9240618,-0.333275 -0.2140012,-0.01195 -0.3138024,-0.293495 -0.4148955,-0.548455 -0.1231753,-0.163074 0.027759,-0.436766 0.1766005,-0.465756 0.8984748,-0.174999 1.8221608,-0.726946 2.0421808,-1.079134 0.553706,-0.88632 0.422046,-1.213379 0.415384,-1.811138 z"
         id="path13"
         sodipodi:nodetypes="ccsscccsscc" />
      <path
         style="fill:#ffffff;fill-opacity:1;stroke:none;stroke-width:0.17666px;stroke-linecap:butt;stroke-linejoin:miter;stroke-opacity:1"
         d="m 13.170778,64.999476 c 0.01595,0.623286 -0.08462,1.531567 0.341589,1.772973 0.326985,0.353211 0.405481,0.858622 0.153294,1.031415 -0.215561,0.147695 -1.384588,0.345245 -1.858724,0.849488 -0.355245,0.377803 -0.449707,0.164443 -0.906669,0.378738 -0.593006,0.168451 -0.828882,-0.08775 -0.874406,-0.244789 -0.2140012,-0.01195 -0.2817103,-0.279846 -0.3828034,-0.534806 -0.1231753,-0.163074 0.01353,-0.390938 0.1623717,-0.419928 0.8984747,-0.174999 1.7332707,-0.774186 1.9532907,-1.126374 0.553706,-0.88632 0.422046,-1.213379 0.415384,-1.811138 z"
         id="path24"
         sodipodi:nodetypes="ccsscccsscc" />
    </g>
    <path
       style="fill:#333333;fill-opacity:1;stroke:none;stroke-width:0.231212px;stroke-linecap:butt;stroke-linejoin:miter;stroke-opacity:1"
       d="m 11.062374,24.99466 c 0.200282,0.0021 0.327945,0.260643 0.48007,0.262893 0.988359,0.01462 1.035234,-0.03391 1.113801,-1.010542 0.01348,-0.167545 0.120128,-1.046484 0.116601,-1.256126 l 1.77712,0.528886 c -0.228819,1.896972 1.993743,1.568273 2.73092,1.942677 l 0.550652,0.99535 c -1.050711,1.684581 -3.66075,4.169282 -3.990598,5.89035 l -1.339904,-0.07901 -2.462944,-0.743425 c 0.220034,-0.861155 0.181762,-1.600721 0.671393,-2.58878 C 9.9201825,28.631572 9.8657292,28.16891 9.8405579,27.699979 9.9182103,27.25952 10.392181,27.021997 10.713888,26.706507 l 0.714408,-0.56717 z"
       id="path2"
       sodipodi:nodetypes="csscccccccccccc"
       inkscape:label="torso" />
    <path
       style="fill:#ffffff;fill-opacity:1;stroke:none;stroke-width:0.231212px;stroke-linecap:butt;stroke-linejoin:miter;stroke-opacity:1"
       d="m 11.062374,24.99466 c 0.239156,-0.06416 0.330332,0.235957 0.48007,0.262893 0.91249,0.164143 1.10872,-0.02615 1.187287,-1.002777 0.01348,-0.167545 0.04664,-1.054249 0.04312,-1.263891 l 1.729481,0.534522 c -0.228819,1.988569 2.041382,1.562637 2.778559,1.937041 l 0.51009,0.931861 c -1.050711,1.684581 -3.673877,4.260804 -4.003725,5.981872 l -1.286215,-0.107039 -2.462944,-0.743425 c 0.220034,-0.861155 0.274537,-1.649666 0.764168,-2.637725 -0.789303,-0.305365 -0.8565196,-0.69886 -0.8816909,-1.167791 0.077652,-0.440459 0.5460119,-0.666795 0.8677189,-0.982285 l 0.371473,-0.430024 -0.252702,-1.217549 z"
       id="path28"
       sodipodi:nodetypes="cssccccccccccccc"
       inkscape:label="torso" />
    <path
       style="fill:#333333;fill-opacity:1;stroke:none;stroke-width:0.264583px;stroke-linecap:butt;stroke-linejoin:miter;stroke-opacity:1"
       d="m 8.1212479,37.267188 1.9155371,0.145159 0.761817,0.43758 1.035991,-0.074 0.305509,0.475945 2.733443,-0.481452 -0.09274,-0.942846 c 0.244143,-0.19373 0.0019,-1.27529 -0.383029,-1.957601 -0.447426,-0.79299 -0.765504,-1.133888 -0.780961,-1.50514 0.02248,-0.738043 0.374181,-1.46703 0.43757,-1.665187 l -3.833723,-0.916144 c -0.3799479,0.889574 -0.226044,2.445493 -1.3937331,3.109217 -0.720509,1.336169 -0.745661,2.658124 -0.70568,3.374469 z"
       id="path3"
       sodipodi:nodetypes="cccccccsccccc"
       inkscape:label="pelvis" />
    <path
       style="display:inline;fill:#ffffff;fill-opacity:1;stroke:none;stroke-width:0.264583px;stroke-linecap:butt;stroke-linejoin:miter;stroke-opacity:1"
       d="m 8.1212479,37.267188 1.9155371,0.145159 0.761817,0.43758 1.035991,-0.074 0.305509,0.475945 2.733443,-0.481452 -0.193781,-0.912095 c 0.244143,-0.19373 4.07e-4,-1.257072 -0.384567,-1.939383 -0.447426,-0.79299 -0.720328,-1.182857 -0.735785,-1.554109 0.02248,-0.738043 0.417619,-1.515573 0.481008,-1.71373 l -0.08935,-0.313551 -3.413906,-0.917942 -0.29927,0.248616 c -0.232018,0.896117 -0.243275,2.560769 -1.4109641,3.224493 -0.720509,1.336169 -0.745661,2.658124 -0.70568,3.374469 z"
       id="path27"
       sodipodi:nodetypes="cccccccsccccccc"
       inkscape:label="pelvis" />
    <g
       id="g16"
       inkscape:label="leg_f"
       transform="rotate(-8.6993713,-39.259542,65.786407)"
       style="fill:#e6e6e6;fill-opacity:1;stroke:none">
      <path
         style="fill:#333333;fill-opacity:1;stroke:none;stroke-width:0.169197px;stroke-linecap:butt;stroke-linejoin:miter;stroke-opacity:1"
         d="m 22.229881,66.322124 1.129453,0.03525 0.644731,1.029555 c 0.487134,0.476205 0.937013,1.130276 1.739784,1.596399 l 0.608628,0.463069 c 0.118336,0.132367 0.198595,0.240952 0.223403,0.373318 -0.0021,0.292173 -0.157221,0.56105 -1.006254,0.599202 -0.284498,0.01279 -0.806991,-0.106114 -1.201346,-0.537163 -0.596264,-0.651739 -1.138177,-1.072461 -1.923877,-1.205387 -0.611473,-0.361426 -0.346797,-0.840382 -0.150889,-1.176837 z"
         id="path14"
         sodipodi:nodetypes="ccccccssccc" />
      <path
         style="fill:#e6e6e6;fill-opacity:1;stroke:none;stroke-width:0.1759px;stroke-linecap:butt;stroke-linejoin:miter;stroke-opacity:1"
         d="m 20.798694,56.962363 -1.530401,-0.276458 0.298931,3.851389 2.787718,5.927846 0.999348,0.301803 z"
         id="path7"
         sodipodi:nodetypes="cccccc" />
      <path
         style="fill:#e6e6e6;fill-opacity:1;stroke:none;stroke-width:0.158782px;stroke-linecap:butt;stroke-linejoin:miter;stroke-opacity:1"
         d="m 18.482468,46.070202 -2.82961,0.636848 2.693466,8.540278 0.598356,1.043321 1.726748,0.790971 -0.28656,-1.733011 z"
         id="path6"
         sodipodi:nodetypes="ccccccc" />
      <path
         style="fill:#ffffff;fill-opacity:1;stroke:none;stroke-width:0.169197px;stroke-linecap:butt;stroke-linejoin:miter;stroke-opacity:1"
         d="m 22.229881,66.322124 1.129453,0.03525 0.573349,1.048379 c 0.487134,0.476205 0.94372,1.139699 1.746491,1.605822 l 0.602072,0.423923 c 0.118336,0.132367 0.269826,0.251851 0.294634,0.384217 -0.0021,0.292173 -0.166517,0.484959 -1.01555,0.523111 -0.284498,0.01279 -0.7384,-0.07514 -1.132755,-0.506189 -0.596264,-0.651739 -1.148223,-1.086727 -1.933923,-1.219653 -0.611473,-0.361426 -0.379112,-0.727176 -0.183204,-1.063631 z"
         id="path23"
         sodipodi:nodetypes="ccccccssccc" />
    </g>
    <path
       id="path10"
       style="fill:#333333;fill-opacity:1;stroke:none;stroke-width:0.125936px;stroke-linecap:butt;stroke-linejoin:miter;stroke-opacity:1"
       d="m 16.703379,24.899781 c -0.275426,-0.0024 -0.564137,0.08092 -0.855762,0.298173 l 0.60048,2.85409 c 0.200174,-0.243849 0.668898,-0.53321 0.883151,-0.299206 0.913373,1.689754 1.949941,2.483274 2.816367,3.923793 l 0.281636,0.418579 c 0.726409,0.210048 1.205661,0.569287 1.841749,0.812354 0.997142,0.381035 1.662137,0.384895 3.047877,1.046965 l 0.874366,0.682129 1.052649,0.279053 0.593762,-0.502295 0.07803,-0.898654 c -0.168578,-0.311703 -0.550782,-0.04992 -0.609782,-0.701249 -0.01454,-0.160511 -0.398392,-0.113607 -0.626836,-0.120406 -0.298708,0.274081 -0.749224,0.584437 -0.971,0.636137 L 22.686479,31.426 c -0.757121,-0.354248 -1.388311,-0.324301 -1.898076,-1.075904 -0.406294,-0.780181 -0.536201,-1.537316 -1.241786,-2.342493 -1.281202,-1.463768 -1.009286,-2.138191 -1.62264,-2.60501 -0.33936,-0.256589 -0.761555,-0.498774 -1.220598,-0.502812 z"
       sodipodi:nodetypes="scccccscccccsccccccs" />
    <path
       id="path26"
       style="fill:#ffffff;fill-opacity:1;stroke:none;stroke-width:0.125936px;stroke-linecap:butt;stroke-linejoin:miter;stroke-opacity:1"
       d="m 16.703379,24.99125 c -0.275426,-0.0024 -0.564137,-0.01055 -0.855762,0.206704 l 0.134738,1.510762 0.465742,1.343328 c 0.200174,-0.243849 0.694483,-0.622798 0.908736,-0.388794 0.913373,1.689754 1.97647,2.490381 2.842896,3.9309 l 0.281636,0.418579 c 0.726409,0.210048 1.205661,0.569287 1.841749,0.812354 0.997142,0.381035 1.719398,0.421587 3.105138,1.083657 l 0.740216,0.644908 1.04219,0.248308 0.594573,-0.366202 0.02975,-0.840542 c -0.168578,-0.311703 -0.55147,-0.07385 -0.61047,-0.72518 -0.01454,-0.160511 -0.329169,-0.121906 -0.557613,-0.128705 -0.298708,0.274081 -0.733741,0.595505 -0.955517,0.647205 L 22.604015,31.492959 C 21.846894,31.138711 21.215704,31.168658 20.705939,30.417055 20.299645,29.636874 20.169738,28.879739 19.464153,28.074562 18.182951,26.610794 18.448774,25.902174 17.83542,25.435355 17.49606,25.178766 17.162422,24.995288 16.703379,24.99125 Z"
       sodipodi:nodetypes="sccccccscccccsccccccs" />
    <path
       style="fill:#333333;fill-opacity:1;stroke:none;stroke-width:0.15908px;stroke-linecap:butt;stroke-linejoin:miter;stroke-opacity:1"
       d="m 11.048385,20.252658 c -0.03148,-0.893034 0.749677,-1.348996 1.677404,-1.551327 1.004237,-0.219014 2.002217,0.03178 2.445805,0.908509 0.672917,1.329979 0.335247,3.798318 -1.186994,4.135066 -1.580327,0.349595 -2.882564,-1.969852 -2.936215,-3.492248 z"
       id="path1"
       sodipodi:nodetypes="sssss"
       inkscape:label="head_line" />
    <path
       style="display:inline;fill:#ffffff;fill-opacity:1;stroke:none;stroke-width:0.157291px;stroke-linecap:butt;stroke-linejoin:miter;stroke-opacity:1"
       d="m 11.266958,20.332875 c -0.03124,-0.879815 0.599571,-1.267339 1.520181,-1.466675 0.996534,-0.215772 1.784255,-0.126421 2.22444,0.737328 0.667756,1.310293 0.476835,3.769825 -1.033729,4.101588 -1.568205,0.34442 -2.657652,-1.87238 -2.710892,-3.372241 z"
       id="path32"
       sodipodi:nodetypes="sssss"
       inkscape:label="head" />
  </g>
  <g
     inkscape:groupmode="layer"
     id="layer3"
     inkscape:label="Layer 3"
     style="display:inline"
     sodipodi:insensitive="true">
    <path
       style="fill:#333333;fill-opacity:1;stroke:none;stroke-width:0.264583px;stroke-linecap:butt;stroke-linejoin:miter;stroke-opacity:1"
       d="m 10.720236,15.153533 c -2.2098429,1.224808 -1.8136213,4.614021 0.419461,6.342519 l 1.78477,-1.727012 z"
       id="path34"
       sodipodi:nodetypes="cccc"
       inkscape:label="crest_bak" />
    <path
       style="fill:#ffffff;fill-opacity:1;stroke:none;stroke-width:0.264583px;stroke-linecap:butt;stroke-linejoin:miter;stroke-opacity:1"
       d="m 10.720236,15.153533 c -2.0703906,1.328151 -1.793213,4.287601 0.419461,6.342519 l 1.78477,-1.727012 z"
       id="path21"
       sodipodi:nodetypes="cccc"
       inkscape:label="crest_bak" />
    <path
       style="display:inline;opacity:1;fill:#333333;fill-opacity:1;stroke:none;stroke-width:0.132292;stroke-linecap:butt;stroke-linejoin:miter;stroke-dasharray:none;stroke-opacity:1"
       d="m 4.3896586,55.980641 c 1.0241837,-0.605797 1.7694322,-4.501593 2.0890999,-5.802323 0.30766,-1.39316 1.2418872,-3.03582 1.0473066,-4.63476 -0.183947,-1.51152 0.4231342,-3.692 0.1490386,-5.018863 -0.740425,-3.584293 -0.1311734,-4.653513 0.00697,-5.66673 0.219414,-0.484115 0.5803183,-0.790526 1.1047207,-0.891596 l 5.9940066,1.835443 c 3.816637,6.273528 2.649771,7.523392 3.918489,11.341595 2.05241,3.256945 2.688633,7.587891 4.683558,9.394428 0.327142,0.808827 -0.909531,2.110577 -1.540791,1.824283 -1.269557,-0.57578 -0.395963,0.784689 -3.294801,-0.287909 -0.91082,-0.337012 -1.889484,0.163403 -2.870144,0.70531 -2.202645,1.217164 -1.914185,-0.116217 -2.817632,-0.323436 -1.0103,-0.231728 -2.074094,-0.297905 -3.0254748,-0.131499 -1.461825,0.255688 -2.213204,-0.907053 -3.306268,-0.780783 -1.5562202,0.179774 -2.1954135,-0.786186 -2.1380786,-1.56316 z"
       id="path22"
       sodipodi:nodetypes="cssscccccssssssc"
       inkscape:label="skirt" />
    <path
       style="display:inline;opacity:1;fill:#ffffff;fill-opacity:1;stroke:none;stroke-width:0.132292;stroke-linecap:butt;stroke-linejoin:miter;stroke-dasharray:none;stroke-opacity:1"
       d="m 4.4776587,55.981883 c 1.0241837,-0.605797 1.8711667,-4.502835 2.1908344,-5.803565 0.30766,-1.39316 1.2418872,-3.03582 1.0473066,-4.63476 -0.183947,-1.51152 0.4231342,-3.692 0.1490386,-5.018863 -0.740425,-3.584293 -0.320908,-4.653513 -0.18276,-5.66673 0.3387757,-0.46918 0.6799402,-0.935775 1.3866305,-1.006893 l 5.4457562,1.539141 0.08658,0.307156 c 3.816637,6.273528 2.721321,7.723639 3.990039,11.541842 2.05241,3.256945 2.737126,7.511993 4.732051,9.31853 0.327142,0.808827 -0.898332,2.001611 -1.529592,1.715317 -1.269557,-0.57578 -0.305647,0.79688 -3.204485,-0.275718 -0.91082,-0.337012 -1.889484,0.163403 -2.870144,0.70531 -2.202645,1.21716 -1.914185,-0.116221 -2.817632,-0.32344 -1.010305,-0.231728 -2.074099,-0.297905 -3.0254801,-0.131499 -1.461825,0.255688 -2.213204,-0.907053 -3.306268,-0.780783 -1.5562202,0.179774 -2.1492081,-0.708071 -2.0918732,-1.485045 z"
       id="path18"
       sodipodi:nodetypes="csssccccccssssssc"
       inkscape:label="skirt" />
    <path
       style="display:inline;fill:#333333;fill-opacity:1;stroke:none;stroke-width:0.264583px;stroke-linecap:butt;stroke-linejoin:miter;stroke-opacity:1"
       d="m 13.556259,24.564334 c -0.120448,-0.266669 -0.442582,-0.952261 -0.109785,-1.34265 -1.052888,-0.888668 -0.752156,-1.842144 -0.159056,-1.781493 0.4988,0.05101 0.822105,0.555155 1.167088,1.01581 0.20173,-0.600056 -0.129222,-1.273795 0.36445,-1.354788 0.324361,-0.05322 0.521197,0.160158 0.455627,0.689764 -0.05498,0.444075 -0.125463,1.0431 -0.125463,1.0431 0.292977,0.300919 0.302134,0.727737 0.233722,1.191219 0.498221,-0.194996 0.636335,-1.121286 0.56091,-1.529688 -0.115112,-0.623297 -0.06672,-1.350297 -0.125988,-1.992664 -0.121082,-1.31225 -1.049715,-2.548662 -3.20458,-2.468687 -1.628176,0.597177 -1.950492,1.923341 -1.616427,3.31006 0.240692,0.999121 0.861063,1.246948 0.981478,2.141028 0.116493,0.663367 0.861188,0.96606 1.578024,1.078989 z"
       id="path19"
       sodipodi:nodetypes="ccscssccsscscc"
       inkscape:label="helm_line" />
    <path
       style="display:inline;fill:#ffffff;fill-opacity:1;stroke:none;stroke-width:0.264583px;stroke-linecap:butt;stroke-linejoin:miter;stroke-opacity:1"
       d="m 13.481876,24.502291 c -0.120448,-0.266669 -0.467198,-0.879203 -0.134401,-1.269592 -1.052888,-0.888668 -0.670301,-1.92828 -0.0772,-1.867629 0.4988,0.05101 0.913596,0.583276 1.184232,1.090931 0.08078,-0.600056 -0.145778,-1.317543 0.347894,-1.398536 0.324361,-0.05322 0.583563,0.190163 0.517993,0.719769 -0.05498,0.444075 -0.09775,1.039854 -0.09775,1.039854 0.292977,0.300919 0.294807,0.683903 0.226395,1.147385 0.346027,-0.335289 0.49394,-1.035028 0.418515,-1.44343 -0.115112,-0.623297 -0.09251,-1.308483 -0.151775,-1.95085 -0.121082,-1.31225 -0.947724,-2.615911 -3.102589,-2.535936 -1.628176,0.597177 -1.854038,1.901821 -1.519973,3.28854 0.240692,0.999121 0.892564,1.27355 1.012979,2.16763 0.116493,0.663367 0.65885,0.898935 1.375686,1.011864 z"
       id="path36"
       sodipodi:nodetypes="ccscssccsscscc"
       inkscape:label="helm" />
    <path
       style="display:inline;fill:#333333;fill-opacity:1;stroke:none;stroke-width:0.264583px;stroke-linecap:butt;stroke-linejoin:miter;stroke-opacity:1"
       d="m 13.412856,19.586599 0.690277,-0.05965 c 0.279699,-1.49001 0.607468,-2.575253 1.528719,-3.069684 -0.810802,-1.462781 -1.364809,-2.253724 -2.957848,-2.078529 l -0.892321,0.186144 c -1.316561,0.483822 -1.615707,0.839867 -2.087356,1.552798 l 2.059433,2.364497 c 1.375494,0.07539 1.278377,0.723906 1.659096,1.104426 z"
       id="path20"
       sodipodi:nodetypes="cccccccc"
       inkscape:label="crest_front" />
    <path
       style="display:inline;fill:#ffffff;fill-opacity:1;stroke:none;stroke-width:0.264583px;stroke-linecap:butt;stroke-linejoin:miter;stroke-opacity:1"
       d="m 13.454093,19.537393 0.597657,-0.102502 c 0.279699,-1.49001 0.453378,-2.523737 1.374629,-3.018168 -0.776351,-1.589857 -1.270342,-2.019325 -2.660985,-2.001903 l -0.998777,0.243427 c -1.316561,0.483822 -1.649838,0.936626 -2.1214875,1.649557 l 1.7488245,2.314582 0.293009,-0.154094 c 0.965639,-0.149242 1.519606,0.486129 1.76713,1.069101 z"
       id="path33"
       sodipodi:nodetypes="ccccccccc"
       inkscape:label="crest_front" />
    <path
       id="path17"
       style="fill:#333333;fill-opacity:1;stroke:none;stroke-width:0.149052px;stroke-linecap:butt;stroke-linejoin:miter;stroke-opacity:1"
       d="m 7.7097975,30.243016 c 0,0 -0.248195,0.441692 -0.318843,0.682646 -0.06381,0.217635 -0.1532009,0.992205 -0.1532009,0.992205 6.804e-4,1.024426 0.1412018,2.040983 -0.01403,3.055572 L 8.8431247,34.858376 C 8.4637717,34.409508 8.1817137,34.180246 8.0984627,33.618141 8.0711327,33.143789 8.925434,31.610375 9.075123,30.877086 L 8.617787,30.371691 Z"
       inkscape:label="arm"
       sodipodi:nodetypes="csccccccc" />
    <path
       id="path35"
       style="fill:#ffffff;fill-opacity:1;stroke:none;stroke-width:0.149052px;stroke-linecap:butt;stroke-linejoin:miter;stroke-opacity:1"
       d="m 7.7097975,30.243016 c 0,0 -0.1585826,0.441692 -0.2292306,0.682646 -0.06381,0.217635 -0.1748416,0.998666 -0.1748416,0.998666 6.804e-4,1.024426 0.1041116,2.042277 -0.05112,3.056866 L 8.8431247,34.858376 C 8.4637717,34.409508 8.1162839,34.180246 8.0330329,33.618141 8.0057029,33.143789 8.8879932,31.579263 9.0376822,30.845974 L 9.1713464,30.496116 8.7679008,30.539037 8.4823063,30.507592 8.2610296,30.297444 7.9852453,29.971289 Z"
       inkscape:label="arm"
       sodipodi:nodetypes="csccccccccccc" />
  </g>
  <g
     inkscape:groupmode="layer"
     id="layer4"
     inkscape:label="Layer 4"
     sodipodi:insensitive="true">
    <path
       style="color:#000000;fill:#999999;fill-opacity:1;-inkscape-stroke:none"
       d="m 8.484375,48.253906 c -1.4327198,2.956379 -0.9451519,5.546909 -1.40625,8.023438 0.7160112,-1.971245 0.085754,-4.617607 1.40625,-8.023438 z"
       id="path37"
       sodipodi:nodetypes="ccc" />
    <path
       style="color:#000000;fill:#999999;fill-opacity:1;-inkscape-stroke:none"
       d="m 11.279297,37.810547 c 1.832477,6.933767 2.683142,8.647212 1.622204,19.485701 1.380003,-12.581496 0.488985,-11.871477 -1.622204,-19.485701 z"
       id="path38"
       sodipodi:nodetypes="ccc" />
    <path
       style="color:#000000;fill:#999999;-inkscape-stroke:none"
       d="m 13.296875,36.427734 c 0.756254,2.657301 2.604696,5.964289 2.994107,9.500435 -0.621488,-4.781792 -2.370969,-7.698094 -2.994107,-9.500435 z"
       id="path40"
       sodipodi:nodetypes="ccc" />
    <path
       style="color:#000000;fill:#999999;-inkscape-stroke:none"
       d="m 18.00642,48.29979 c 0.78212,3.629488 0.271943,3.843979 2.771293,9.009738 -2.286439,-5.345389 -1.253826,-3.674054 -2.771293,-9.009738 z"
       id="path41"
       sodipodi:nodetypes="ccc" />
    <path
       style="color:#000000;fill:#999999;fill-opacity:1;-inkscape-stroke:none"
       d="M 8.7545555,37.601544 C 8.1055696,40.740308 11.323842,47.188533 9.0742188,56.695309 11.532633,48.57366 8.6418524,43.773408 8.7545555,37.601544 Z"
       id="path42"
       sodipodi:nodetypes="ccc" />
    <path
       style="color:#000000;fill:#999999;-inkscape-stroke:none"
       d="m 16.319524,47.591223 c 0.38552,3.883761 -0.872011,5.315623 0.06579,9.71872 -0.746844,-3.435316 0.446015,-4.289318 -0.06579,-9.71872 z"
       id="path44"
       sodipodi:nodetypes="ccc" />
    <g
       id="g17"
       inkscape:label="hand_1"
       transform="matrix(0.88658505,0,0,0.85201168,0.93236684,5.0054479)"
       sodipodi:insensitive="true">
      <path
         style="fill:#333333;stroke:none;stroke-width:0.264583px;stroke-linecap:butt;stroke-linejoin:miter;stroke-opacity:1"
         d="m 7.0957951,35.032137 c 0.1911829,-0.222292 0.6341981,-1.273392 1.0777684,-1.28776 l 1.4975426,0.919554 c -0.2287812,0.158831 -0.5234386,0.112944 -0.7537044,0.03605 l -0.5385169,-0.183662 1.3017986,1.035505 c 0.15391,0.282881 -0.080427,0.396737 -0.2872629,0.308584 0.1116275,0.21621 -0.1567221,0.379517 -0.3590045,0.238429 l -1.1728618,-0.778844 0.624454,1.137602 c -0.0195,0.189909 -0.1531315,0.16529 -0.3175869,0.08273 l -0.6475321,-0.814813 -0.088556,0.295331 c -0.2960092,0.11275 -0.4630041,0.01 -0.5157931,-0.158626 z"
         id="path11"
         sodipodi:nodetypes="ccccccccccccccc" />
      <path
         style="fill:#ffffff;fill-opacity:1;stroke:none;stroke-width:0.264583px;stroke-linecap:butt;stroke-linejoin:miter;stroke-opacity:1"
         d="m 7.1702639,35.059999 c 0.1911829,-0.222292 0.5453996,-1.221505 0.9889699,-1.235873 l 1.5118723,0.839805 c -0.2287812,0.158831 -0.5102599,0.05744 -0.7405257,-0.01945 l -0.5516956,-0.128158 1.2328491,1.05799 c 0.15391,0.282881 -0.068796,0.308662 -0.2756323,0.220509 0.1116275,0.21621 -0.049339,0.387841 -0.2516213,0.246753 L 7.827334,35.281825 8.3986869,36.451242 C 8.38355,36.56934 8.2577852,36.52973 8.1927085,36.468008 l -0.6824507,-0.8297 -0.1351437,0.329298 c -0.2960092,0.11275 -0.3322044,-0.0147 -0.3849934,-0.183327 z"
         id="path15"
         sodipodi:nodetypes="ccccccccccccccc" />
      <path
         style="fill:#333333;fill-opacity:1;stroke:none;stroke-width:0.264583px;stroke-linecap:butt;stroke-linejoin:miter;stroke-opacity:1"
         d="m 8.0665933,34.936431 c 0.4056384,0.236974 0.8370108,0.434016 1.2092834,0.806278 C 8.8377852,35.471954 8.4402346,35.203511 8.0665933,34.936431 Z"
         id="path16"
         sodipodi:nodetypes="ccc" />
    </g>
  </g>
</svg>
