<?xml version="1.0" encoding="UTF-8" standalone="no"?>
<!-- Created with Inkscape (http://www.inkscape.org/) -->

<svg  id="svg1"
   width="600"
   height="600"
   viewBox="-50 -50 300 300"
   version="1.1"
   
   inkscape:version="1.3.2 (091e20e, 2023-11-25)"
   sodipodi:docname="scraps.svg"
   inkscape:export-filename="../../../../../nn/content/svg/behavior_trees/tank_bot.svg"
   inkscape:export-xdpi="96"
   inkscape:export-ydpi="96"
   xmlns:inkscape="http://www.inkscape.org/namespaces/inkscape"
   xmlns:sodipodi="http://sodipodi.sourceforge.net/DTD/sodipodi-0.dtd"
   xmlns="http://www.w3.org/2000/svg"
   xmlns:svg="http://www.w3.org/2000/svg">
  <sodipodi:namedview
     id="namedview1"
     pagecolor="#ffffff"
     bordercolor="#666666"
     borderopacity="1.0"
     inkscape:showpageshadow="2"
     inkscape:pageopacity="0.0"
     inkscape:pagecheckerboard="0"
     inkscape:deskcolor="#d1d1d1"
     inkscape:document-units="px"
     inkscape:zoom="1.632"
     inkscape:cx="163.60294"
     inkscape:cy="179.22794"
     inkscape:window-width="1652"
     inkscape:window-height="901"
     inkscape:window-x="177"
     inkscape:window-y="43"
     inkscape:window-maximized="0"
     inkscape:current-layer="layer6" />
  <defs
     id="defs1" />
  <g
     inkscape:groupmode="layer"
     id="layer6"
     inkscape:label="background"
     style="display:inline">
    <rect
       style="fill:#c8c4b7;fill-opacity:1;fill-rule:evenodd;stroke:#3a4530;stroke-width:0.15;stroke-linecap:square;stroke-dasharray:none;stroke-opacity:1"
       id="rect21"
       width="302.35934"
       height="303.49332"
       x="-0.036613613"
       y="-2.4318321"
       inkscape:label="ground"
       inkscape:export-filename="../../../../../nn/content/svg/behavior_trees/tank_bot.svg"
       inkscape:export-xdpi="96"
       inkscape:export-ydpi="96" />
    <path
       id="rect19"
       style="fill:#808080;fill-opacity:1;fill-rule:evenodd;stroke:#3a4530;stroke-width:0.15;stroke-linecap:square;stroke-dasharray:none;stroke-opacity:1"
       d="m 36.426036,-30.259286 -0.236076,70.965142 -62.281757,100.967974 -0.991969,41.22038 23.8300642,0.1073 154.1169818,1.56489 v 181.05664 h 43.4082 V 184.44141 l 124.41511,-0.29763 -0.055,-35.99557 -70.63487,-0.23706 -53.72521,-50.784395 V -28.808594 h -43.4082 L 149.59972,144.89081 13.114664,143.34182 68.128116,49.619228 68.540764,-31.071774 Z"
       sodipodi:nodetypes="cccccccccccccccccccc"
       inkscape:label="street" />
    <path
       id="rect22"
       style="fill:#b3b3b3;fill-rule:evenodd;stroke:#3a4530;stroke-width:0.15;stroke-linecap:square"
       d="m 198.77606,31.805225 6.50562,-9.956005 100.13603,0.240644 -4.08644,121.289426 -50.8878,0.98703 -50.52098,-47.612321 z"
       sodipodi:nodetypes="ccccccc"
       inkscape:label="building_wall" />
    <path
       id="rect50"
       style="display:inline;fill:#7c7c7c;fill-opacity:1;fill-rule:evenodd;stroke:#3a4530;stroke-width:0.15;stroke-linecap:square"
       d="m 213.62874,108.67015 3.9563,-2.33968 0.6783,-3.8571 6.73063,1.12273 15.54383,-29.149425 37.72041,55.434405 -25.11907,-0.0826 1.78769,6.30785 -0.50407,4.37317 -4.55944,2.43667 z"
       sodipodi:nodetypes="ccccccccccc"
       inkscape:label="hole" />
    <g
       id="g60"
       inkscape:label="rubble"
       style="display:inline">
      <path
         id="path60"
         style="fill:#b3b3b3;fill-rule:evenodd;stroke:#3a4530;stroke-width:0.15;stroke-linecap:square"
         d="m 261.40249,118.32199 -3.67831,4.84418 -7.39853,0.52236 -4.93036,-0.89971 1.19406,-5.78603 0.30258,-5.25731 6.6492,-2.44668 2.00744,5.1917 z"
         sodipodi:nodetypes="ccccccccc" />
      <path
         id="path52"
         style="fill:#cccccc;fill-rule:evenodd;stroke:#3a4530;stroke-width:0.15;stroke-linecap:square"
         d="m 254.35924,129.12425 -1.68687,5.32712 2.05374,1.81732 -0.30434,3.92717 -2.20305,-0.5544 -1.007,5.96571 -5.47716,-1.07703 -4.08058,-5.56101 5.68255,-4.30293 -1.96114,-5.01937 z"
         sodipodi:nodetypes="ccccccccccc" />
      <path
         id="path59"
         style="fill:#b3b3b3;fill-rule:evenodd;stroke:#3a4530;stroke-width:0.15;stroke-linecap:square"
         d="m 236.87552,93.660151 3.62985,4.8806 -1.55623,7.251849 -2.23563,4.48552 -5.22554,-2.75638 -4.96567,-1.75301 -0.50058,-7.067359 5.5452,-0.48409 z"
         sodipodi:nodetypes="ccccccccc" />
      <path
         id="path51"
         style="fill:#b3b3b3;fill-rule:evenodd;stroke:#3a4530;stroke-width:0.15;stroke-linecap:square"
         d="m 231.40939,104.93433 3.62985,4.8806 -1.55623,7.25185 -2.23563,4.48552 -5.22554,-2.75638 -4.96567,-1.75301 -0.50058,-7.06736 5.5452,-0.48409 z"
         sodipodi:nodetypes="ccccccccc" />
      <path
         id="rect51"
         style="fill:#cccccc;fill-rule:evenodd;stroke:#3a4530;stroke-width:0.15;stroke-linecap:square"
         d="m 214.37418,108.17245 6.05578,-0.56886 5.39033,5.09466 -1.8879,4.03972 3.73094,4.76275 -8.31439,1.80642 -6.30036,-3.24092 2.46483,-4.99081 z"
         sodipodi:nodetypes="ccccccccc" />
      <path
         id="path53"
         style="fill:#b3b3b3;fill-rule:evenodd;stroke:#3a4530;stroke-width:0.15;stroke-linecap:square"
         d="m 248.54624,116.08922 -1.68687,5.32712 -3.53676,0.90334 2.51248,1.8599 0.57063,2.42685 -1.007,5.96571 -5.47716,-1.07703 -4.08058,-5.56101 5.68255,-4.30293 -1.96114,-5.01937 z"
         sodipodi:nodetypes="ccccccccccc" />
      <path
         id="path54"
         style="fill:#b3b3b3;fill-rule:evenodd;stroke:#3a4530;stroke-width:0.15;stroke-linecap:square"
         d="m 241.89652,115.32376 -2.22062,0.85112 c -7.65355,-0.62667 -4.14093,4.84818 1.46006,8.39014 l -7.29497,-0.76565 -2.39764,-3.34841 c 2.5345,-1.07972 1.60051,-3.4625 0.7682,-5.80707 z"
         sodipodi:nodetypes="ccccccc" />
      <path
         id="path55"
         style="fill:#cccccc;fill-rule:evenodd;stroke:#3a4530;stroke-width:0.15;stroke-linecap:square"
         d="m 235.68897,133.17304 -4.45542,0.18098 -2.51393,5.50308 -2.31387,-4.83714 -3.11325,-1.71562 -0.0189,-7.08503 5.98514,1.99993 z"
         sodipodi:nodetypes="cccccccc" />
      <path
         id="path56"
         style="fill:#cccccc;fill-rule:evenodd;stroke:#3a4530;stroke-width:0.0805673;stroke-linecap:square"
         d="m 221.95734,126.3813 -2.46575,0.0943 -1.39127,2.86868 -1.28056,-2.52153 -1.72295,-0.89433 -0.0105,-3.69332 3.31233,1.04253 z"
         sodipodi:nodetypes="cccccccc" />
      <path
         id="path57"
         style="fill:#cccccc;fill-rule:evenodd;stroke:#3a4530;stroke-width:0.0805673;stroke-linecap:square"
         d="m 241.6197,127.9458 0.53555,2.40874 3.07188,0.85352 -2.25059,1.71254 -0.5704,1.85554 -3.6314,0.67354 0.43078,-3.44569 z"
         sodipodi:nodetypes="cccccccc" />
      <path
         id="path58"
         style="fill:#cccccc;fill-rule:evenodd;stroke:#3a4530;stroke-width:0.0805673;stroke-linecap:square"
         d="m 233.88362,135.91541 3.64036,1.48686 3.07188,0.85352 -1.03875,2.52888 -1.78224,1.0392 -3.6314,0.67354 -0.96373,-3.13932 z"
         sodipodi:nodetypes="cccccccc" />
    </g>
    <path
       id="path50"
       style="display:inline;fill:#cccccc;fill-rule:evenodd;stroke:#3a4530;stroke-width:0.15;stroke-linecap:square"
       d="m 198.77606,31.805225 99.63757,1.290938 1.24307,120.066887 -40.21147,-0.57224 -12.59453,-11.81461 10.5307,-3.41231 -4.68184,-13.38014 -8.0197,-3.14736 4.80585,-10.57759 -8.84406,-14.161509 -13.82881,15.609859 -2.64198,-6.35255 -4.89408,9.55518 -19.35429,-18.155781 z"
       sodipodi:nodetypes="ccccccccccccccc"
       transform="translate(5.8309892,-10.991938)"
       inkscape:label="rooftop_2" />
    <path
       id="path22"
       style="display:inline;fill:#cccccc;fill-rule:evenodd;stroke:#3a4530;stroke-width:0.15;stroke-linecap:square"
       d="m 198.77606,31.805225 99.63757,1.290938 1.24307,120.066887 -40.21147,-0.57224 -59.52274,-55.836811 z"
       sodipodi:nodetypes="cccccc"
       transform="translate(5.8309892,-10.991938)"
       inkscape:label="rooftop_1" />
    <path
       id="path23"
       style="fill:#916f6f;fill-rule:evenodd;stroke:#3a4530;stroke-width:0.15;stroke-linecap:square"
       d="m 254.98297,-4.7678924 10.49,13.1025189 -3.23146,131.9941035 -40.21147,-0.57224 -8.99926,-13.94858 z"
       sodipodi:nodetypes="cccccc"
       transform="translate(-124.15875,-3.0650532)" />
    <path
       id="path24"
       style="fill:#b3b3b3;fill-rule:evenodd;stroke:#3a4530;stroke-width:0.15;stroke-linecap:square"
       d="m 179.07513,8.1908278 51.38042,0.051264 0.65503,42.5774942 32.05922,1.552293 1.05079,47.995831 -3.46514,5.45944 -87.18329,-89.439831 z"
       sodipodi:nodetypes="cccccccc"
       transform="translate(-168.58471,190.51215)" />
    <path
       id="path26"
       style="fill:#b3b3b3;fill-rule:evenodd;stroke:#3a4530;stroke-width:0.15;stroke-linecap:square"
       d="m 84.865955,196.15481 13.463288,0.23541 6.934267,-10.30942 30.12516,0.39382 8.66926,13.74657 -43.58068,13.95308 -24.237514,-2.8855 z"
       sodipodi:nodetypes="cccccccc" />
    <path
       id="path25"
       style="fill:#cccccc;fill-rule:evenodd;stroke:#3a4530;stroke-width:0.15;stroke-linecap:square"
       d="m 76.516658,210.67151 22.868658,-0.90973 6.934264,-10.30942 37.6731,-0.0927 -1.01377,36.70717 -66.735565,0.73228 z"
       sodipodi:nodetypes="ccccccc" />
    <path
       id="rect25"
       style="fill:#c8b7b7;fill-rule:evenodd;stroke:#3a4530;stroke-width:0.14066;stroke-linecap:square"
       d="m 207.83441,195.04434 79.25916,0.53646 7.07238,8.05369 -81.85468,-0.35866 -1.04013,83.91751 -3.32038,-4.04668 z"
       sodipodi:nodetypes="ccccccc" />
    <rect
       style="fill:#e3dbdb;fill-opacity:1;fill-rule:evenodd;stroke:#3a4530;stroke-width:0.15;stroke-linecap:square;stroke-dasharray:none;stroke-opacity:1"
       id="rect26"
       width="83.02887"
       height="83.526947"
       x="210.82422"
       y="203.44012" />
    <path
       id="path27"
       style="fill:#ac9393;fill-rule:evenodd;stroke:#3a4530;stroke-width:0.15;stroke-linecap:square"
       d="M 64.969153,-7.7767498 131.54186,-8.7827083 128.3104,123.2114 88.098933,122.63916 64.934823,64.882238 Z"
       sodipodi:nodetypes="cccccc" />
    <path
       id="path28"
       style="fill:#cccccc;fill-rule:evenodd;stroke:#3a4530;stroke-width:0.15;stroke-linecap:square"
       d="m 4.7221131,204.59817 48.8344599,0.0813 -0.24511,42.99297 38.24822,0.68259 0.61803,47.46069 -86.7940699,1.21887 z"
       sodipodi:nodetypes="ccccccc" />
    <path
       id="path29"
       style="fill:#5d6c53;fill-rule:evenodd;stroke:#3a4530;stroke-width:0.15;stroke-linecap:square"
       d="m 45.246094,102.57617 c 0.04199,2.13916 -0.562187,4.37843 0.666015,6.33203 -1.262375,0.8266 -2.177352,-1.26479 -4.113281,-1.58008 1.391026,1.82166 1.684072,3.56535 4.074219,3.49415 -0.508087,1.04261 -0.811807,2.14115 -1.048828,3.26171 -6.45e-4,6.4e-4 -0.0013,0.001 -0.002,0.002 -0.22713,0.22319 -0.449969,0.44115 -0.669922,0.64844 -0.543704,-2.17774 -1.277921,-4.84033 -2.136719,-7 0.04199,2.13915 -0.562187,4.37842 0.666016,6.33203 -1.262376,0.8266 -2.177353,-1.26479 -4.113282,-1.58008 1.391026,1.82166 1.684073,3.56534 4.074219,3.49414 -0.99503,2.04184 -1.213257,4.30126 -1.658203,6.51172 1.012433,-1.71842 1.052353,-3.32091 2.84375,-5.46094 1.549736,2.31572 2.57682,4.02159 4.3125,5.80859 -1.203814,-2.35835 -1.080085,-4.90454 -2.96875,-7.1914 1.127135,-0.53463 1.972256,-1.46005 2.736328,-2.4961 1.119323,1.69117 2.067222,3.09236 3.462891,4.5293 -1.03598,-2.02956 -1.090976,-4.19802 -2.289063,-6.2207 0.42059,-0.61832 0.848427,-1.22671 1.322266,-1.77149 -0.638299,0.27993 -1.241714,0.63429 -1.814453,1.03516 -0.05993,-0.0787 -0.123007,-0.15628 -0.1875,-0.23438 2.368397,-1.12338 3.496076,-3.96268 5.232422,-5.95898 -2.524202,1.10699 -4.492324,3.38667 -6.251954,5.04492 -0.543703,-2.17774 -1.27792,-4.84032 -2.136718,-7 z m 1.8125,9.29688 c 0.01114,0.0166 0.02017,0.0303 0.03125,0.0469 -0.08373,0.0738 -0.165564,0.14797 -0.248047,0.22266 0.07039,-0.0896 0.140219,-0.17805 0.216797,-0.26953 z" />
    <path
       id="path30"
       style="fill:#5d6c53;fill-rule:evenodd;stroke:#3a4530;stroke-width:0.15;stroke-linecap:square"
       d="m 50.612066,101.79287 c 1.888667,2.28686 1.763802,4.83261 2.967617,7.19097 -1.735682,-1.78701 -2.762121,-3.49246 -4.311859,-5.80818 -1.791399,2.14003 -1.832339,3.74226 -2.844773,5.46068 0.444946,-2.21046 0.664781,-4.4698 1.659812,-6.51164 -2.390149,0.0712 -2.684393,-1.67144 -4.07542,-3.493096 1.935931,0.31529 2.851022,2.406256 4.113399,1.579656 -1.228204,-1.953606 -0.624617,-4.193756 -0.666605,-6.332916 0.858799,2.15968 1.593626,4.82262 2.13733,7.000356 1.759631,-1.658246 3.727084,-3.937706 6.251288,-5.044696 -1.736347,1.9963 -2.862389,4.835476 -5.230789,5.958866 z"
       sodipodi:nodetypes="ccccccccccc"
       inkscape:spray-origin="#path29" />
    <path
       id="path32"
       style="fill:#5d6c53;fill-rule:evenodd;stroke:#3a4530;stroke-width:0.15;stroke-linecap:square"
       d="m 61.671657,120.56636 c 1.888667,2.28686 1.763802,4.83261 2.967617,7.19097 -1.735682,-1.78701 -2.762121,-3.49246 -4.311859,-5.80818 -1.791399,2.14003 -1.832339,3.74226 -2.844773,5.46068 0.444946,-2.21046 0.664781,-4.4698 1.659812,-6.51164 -2.390149,0.0712 -2.684393,-1.67144 -4.07542,-3.4931 1.935931,0.31529 2.851022,2.40626 4.113399,1.57966 -1.228204,-1.95361 -0.624617,-4.19376 -0.666605,-6.33292 0.858799,2.15968 1.593626,4.82262 2.13733,7.00036 1.759631,-1.65825 3.727084,-3.93771 6.251288,-5.0447 -1.736347,1.9963 -2.862389,4.83548 -5.230789,5.95887 z"
       sodipodi:nodetypes="ccccccccccc"
       inkscape:spray-origin="#path29" />
    <path
       id="path33"
       style="fill:#5d6c53;fill-rule:evenodd;stroke:#3a4530;stroke-width:0.15;stroke-linecap:square"
       d="m 59.884667,123.94825 c 1.888667,2.28686 1.763802,4.83261 2.967617,7.19097 -1.735682,-1.78701 -2.762121,-3.49246 -4.311859,-5.80818 -1.791399,2.14003 -1.832339,3.74226 -2.844773,5.46068 0.444946,-2.21046 0.664781,-4.4698 1.659812,-6.51164 -2.390149,0.0712 -2.684393,-1.67144 -4.07542,-3.4931 1.935931,0.31529 2.851022,2.40626 4.113399,1.57966 -1.228204,-1.95361 -0.624617,-4.19376 -0.666605,-6.33292 0.858799,2.15968 1.593626,4.82262 2.13733,7.00036 1.759631,-1.65825 3.727084,-3.93771 6.251288,-5.0447 -1.736347,1.9963 -2.862389,4.83548 -5.230789,5.95887 z"
       sodipodi:nodetypes="ccccccccccc"
       inkscape:spray-origin="#path29" />
    <path
       id="path34"
       style="fill:#5d6c53;fill-rule:evenodd;stroke:#3a4530;stroke-width:0.15;stroke-linecap:square"
       d="m 58.419476,129.51982 c 1.888667,2.28686 1.763802,4.83261 2.967617,7.19097 -1.735682,-1.78701 -2.762121,-3.49246 -4.311859,-5.80818 -1.791399,2.14003 -1.832339,3.74226 -2.844773,5.46068 0.444946,-2.21046 0.664781,-4.4698 1.659812,-6.51164 -2.390149,0.0712 -2.684393,-1.67144 -4.07542,-3.4931 1.935931,0.31529 2.851022,2.40626 4.113399,1.57966 -1.228204,-1.95361 -0.624617,-4.19376 -0.666605,-6.33292 0.858799,2.15968 1.593626,4.82262 2.13733,7.00036 1.759631,-1.65825 3.727084,-3.93771 6.251288,-5.0447 -1.736347,1.9963 -2.862389,4.83548 -5.230789,5.95887 z"
       sodipodi:nodetypes="ccccccccccc"
       inkscape:spray-origin="#path29" />
    <path
       id="path35"
       style="fill:#5d6c53;fill-rule:evenodd;stroke:#3a4530;stroke-width:0.15;stroke-linecap:square"
       d="m 67.683033,114.56532 c 1.888667,2.28686 1.763802,4.83261 2.967617,7.19097 -1.735682,-1.78701 -2.762121,-3.49246 -4.311859,-5.80818 -1.791399,2.14003 -1.832339,3.74226 -2.844773,5.46068 0.444946,-2.21046 0.664781,-4.4698 1.659812,-6.51164 -2.390149,0.0712 -2.684393,-1.67144 -4.07542,-3.4931 1.935931,0.31529 2.851022,2.40626 4.113399,1.57966 -1.228204,-1.95361 -0.624617,-4.19376 -0.666605,-6.33292 0.858799,2.15968 1.593626,4.82262 2.13733,7.00036 1.759631,-1.65825 3.727084,-3.93771 6.251288,-5.0447 -1.736347,1.9963 -2.862389,4.83548 -5.230789,5.95887 z"
       sodipodi:nodetypes="ccccccccccc"
       inkscape:spray-origin="#path29" />
    <path
       id="path36"
       style="fill:#5d6c53;fill-rule:evenodd;stroke:#3a4530;stroke-width:0.15;stroke-linecap:square"
       d="m 77.240234,120.35352 c 0.03066,1.56225 -0.279649,3.17823 0.02734,4.69726 -0.449882,0.38026 -0.87864,0.77836 -1.294922,1.17774 -0.597897,-0.44361 -1.274189,-0.9759 -2.177734,-1.12305 0.537592,0.70402 0.910434,1.39629 1.304687,1.97656 -0.378808,0.37435 -0.750781,0.74019 -1.109375,1.07813 -0.543703,-2.17774 -1.27792,-4.84033 -2.136718,-7 0.04199,2.13915 -0.562188,4.37842 0.666015,6.33203 -1.262375,0.8266 -2.177352,-1.26284 -4.113281,-1.57813 1.391026,1.82166 1.686025,3.56339 4.076172,3.49219 -0.99503,2.04184 -1.215211,4.30126 -1.660156,6.51172 1.012433,-1.71842 1.054306,-3.32091 2.845703,-5.46094 1.001514,1.49653 1.784565,2.7386 2.68164,3.91211 -0.04549,0.24785 -0.09091,0.49519 -0.140625,0.74219 0.108254,-0.18374 0.203602,-0.36695 0.292969,-0.54883 0.448085,0.57394 0.924693,1.13494 1.476563,1.70312 -0.468476,-0.91777 -0.735038,-1.86426 -0.998047,-2.8125 0.452352,-1.15786 0.862445,-2.35513 2.074219,-3.80273 1.549736,2.31572 2.576819,4.02159 4.3125,5.80859 -1.203814,-2.35835 -1.080085,-4.90454 -2.96875,-7.1914 2.368397,-1.12339 3.494123,-3.96269 5.230468,-5.95899 -2.524201,1.10699 -4.490371,3.38668 -6.25,5.04493 -0.178064,-0.71322 -0.378999,-1.4811 -0.595703,-2.26368 0.465115,-0.68774 0.933416,-1.37035 1.458985,-1.97461 -0.610981,0.26795 -1.189544,0.60644 -1.740235,0.98633 -0.378406,-1.29304 -0.801941,-2.59181 -1.261719,-3.74804 z m 0.560547,6.15429 c 0.03384,0.0596 0.0703,0.11869 0.107422,0.17774 -0.122396,0.0801 -0.242261,0.13254 -0.359375,0.16211 0.08548,-0.11122 0.168587,-0.22571 0.251953,-0.33985 z m -1.546875,1.74414 c 0.416371,0.23777 0.928648,0.36811 1.615235,0.34766 -0.599223,1.22963 -0.914501,2.53798 -1.169922,3.86719 -0.346992,-1.15746 -0.788703,-2.30429 -1.6875,-3.39258 0.456263,-0.21642 0.864892,-0.49679 1.242187,-0.82227 z" />
    <path
       id="path38"
       style="fill:#5d6c53;fill-rule:evenodd;stroke:#3a4530;stroke-width:0.15;stroke-linecap:square"
       d="m 72.835477,131.27544 c 1.888667,2.28686 1.763802,4.83261 2.967617,7.19097 -1.735682,-1.78701 -2.762121,-3.49246 -4.311859,-5.80818 -1.791399,2.14003 -1.832339,3.74226 -2.844773,5.46068 0.444946,-2.21046 0.664781,-4.4698 1.659812,-6.51164 -2.390149,0.0712 -2.684393,-1.67144 -4.07542,-3.4931 1.935931,0.31529 2.851022,2.40626 4.113399,1.57966 -1.228204,-1.95361 -0.624617,-4.19376 -0.666605,-6.33292 0.858799,2.15968 1.593626,4.82262 2.13733,7.00036 1.759631,-1.65825 3.727084,-3.93771 6.251288,-5.0447 -1.736347,1.9963 -2.862389,4.83548 -5.230789,5.95887 z"
       sodipodi:nodetypes="ccccccccccc"
       inkscape:spray-origin="#path29" />
    <path
       id="path39"
       style="fill:#5d6c53;fill-rule:evenodd;stroke:#3a4530;stroke-width:0.15;stroke-linecap:square"
       d="m 57.896484,71.386719 c 0.04199,2.139158 -0.562187,4.380376 0.666016,6.333984 -1.262376,0.826599 -2.177352,-1.264788 -4.113281,-1.580078 1.391025,1.821658 1.686025,3.565341 4.076172,3.494141 -0.885223,1.816509 -1.157052,3.804111 -1.519532,5.777343 -0.479253,-0.336807 -1.023054,-0.653505 -1.6875,-0.761718 1.052913,1.378872 1.479428,2.71013 2.660157,3.246093 0.106482,0.280952 0.239807,0.557164 0.410156,0.828125 -1.262376,0.8266 -2.179305,-1.264788 -4.115234,-1.580078 1.391025,1.821658 1.686025,3.565341 4.076171,3.494141 -0.99503,2.041838 -1.21521,4.301261 -1.660156,6.511719 0.576016,-0.977681 0.838744,-1.918505 1.287109,-2.941407 0.09567,-0.188591 0.184276,-0.376427 0.265626,-0.564453 0.30702,-0.609436 0.705231,-1.252959 1.292968,-1.955078 1.549737,2.315718 2.574867,4.021586 4.310547,5.808594 -1.203814,-2.358358 -1.078132,-4.904549 -2.966797,-7.191406 0.111166,-0.05273 0.218336,-0.111851 0.324219,-0.171875 1.21952,1.844199 2.201693,3.337441 3.6875,4.867187 -0.258796,-0.507001 -0.453857,-1.023081 -0.623047,-1.542969 0.337223,0.118412 0.731967,0.178389 1.212891,0.164063 -0.99503,2.041838 -1.215211,4.301258 -1.660157,6.511723 1.012433,-1.718426 1.054306,-3.320914 2.845704,-5.460942 1.549736,2.315718 2.574866,4.021583 4.310546,5.808592 -1.203813,-2.358359 -1.078131,-4.904547 -2.966796,-7.191404 2.368397,-1.123389 3.494123,-3.962687 5.230468,-5.958985 -2.524201,1.106989 -4.49037,3.386674 -6.25,5.044922 -0.509582,-2.041071 -1.190397,-4.502334 -1.980468,-6.582031 0.349987,-0.505364 0.708931,-0.998099 1.099609,-1.447266 -0.421754,0.184961 -0.826454,0.404427 -1.21875,0.646485 0.748596,-1.055065 1.438265,-2.191644 2.263672,-3.140625 -1.453207,0.637304 -2.718414,1.664073 -3.869141,2.736328 -0.540416,-1.784513 -0.84136,-3.605131 -2.230468,-5.28711 2.368397,-1.123389 3.494123,-3.962686 5.230468,-5.958984 -2.524201,1.106989 -4.492324,3.386674 -6.251953,5.044922 -0.543703,-2.177738 -1.27792,-4.842275 -2.136719,-7.001953 z m 1.8125,9.298828 c 1.138835,1.701721 1.997777,3.073472 3.060547,4.390625 -0.653924,0.631604 -1.271937,1.261198 -1.865234,1.820312 -0.434405,-1.739957 -0.992552,-3.785351 -1.636719,-5.640625 0.136197,-0.186521 0.278213,-0.375359 0.441406,-0.570312 z m -1.027343,1.464844 c -0.06999,1.410064 -0.04889,2.806233 0.751953,4.080078 -0.128536,0.08416 -0.254174,0.135439 -0.376953,0.164062 -0.295935,-1.026394 -0.621179,-2.060996 -0.970703,-3.033203 0.165404,-0.389815 0.354307,-0.791665 0.595703,-1.210937 z m -1.035157,2.310547 c -0.02545,0.468321 -0.04459,0.936183 -0.03125,1.398437 -0.137575,-0.100662 -0.280227,-0.210575 -0.427734,-0.318359 0.173013,-0.358303 0.318234,-0.719114 0.458984,-1.080078 z m 7.199219,1.570312 c -0.05706,1.936965 -0.429771,3.924276 0.673828,5.679688 -0.65619,0.42967 -1.22214,0.06788 -1.882812,-0.419922 -0.235236,-0.795396 -0.513318,-1.586429 -0.947266,-2.357422 0.802174,-0.852379 1.467403,-1.893453 2.15625,-2.902344 z" />
    <path
       id="path42"
       style="fill:#5d6c53;fill-rule:evenodd;stroke:#3a4530;stroke-width:0.15;stroke-linecap:square"
       d="m 56.908808,94.836092 c 1.888667,2.28686 1.763802,4.83261 2.967617,7.190968 -1.735682,-1.78701 -2.762121,-3.492458 -4.311859,-5.808178 -1.791399,2.14003 -1.832339,3.74226 -2.844773,5.460678 0.444946,-2.210458 0.664781,-4.469798 1.659812,-6.511638 -2.390149,0.0712 -2.684393,-1.67144 -4.07542,-3.4931 1.935931,0.31529 2.851022,2.40626 4.113399,1.57966 -1.228204,-1.95361 -0.624617,-4.19376 -0.666605,-6.33292 0.858799,2.15968 1.593626,4.82262 2.13733,7.00036 1.759631,-1.65825 3.727084,-3.93771 6.251288,-5.0447 -1.736347,1.9963 -2.862389,4.83548 -5.230789,5.95887 z"
       sodipodi:nodetypes="ccccccccccc"
       inkscape:spray-origin="#path29" />
    <path
       id="path44"
       style="fill:#5d6c53;fill-rule:evenodd;stroke:#3a4530;stroke-width:0.15;stroke-linecap:square"
       d="m 60.874003,102.92637 c 1.888667,2.28686 1.763802,4.83261 2.967617,7.19097 -1.735682,-1.78701 -2.762121,-3.49246 -4.311859,-5.80818 -1.791399,2.14003 -1.832339,3.74226 -2.844773,5.46068 0.444946,-2.21046 0.664781,-4.4698 1.659812,-6.51164 -2.390149,0.0712 -2.684393,-1.67144 -4.07542,-3.493103 1.935931,0.315293 2.851022,2.406263 4.113399,1.579663 -1.228204,-1.953613 -0.624617,-4.193763 -0.666605,-6.332923 0.858799,2.15968 1.593626,4.82262 2.13733,7.000363 1.759631,-1.65825 3.727084,-3.937713 6.251288,-5.044703 -1.736347,1.9963 -2.862389,4.835483 -5.230789,5.958873 z"
       sodipodi:nodetypes="ccccccccccc"
       inkscape:spray-origin="#path29" />
    <path
       id="path45"
       style="fill:#5d6c53;fill-rule:evenodd;stroke:#3a4530;stroke-width:0.15;stroke-linecap:square"
       d="m 109.98828,265.52734 c 0.042,2.13916 -0.56023,4.38038 0.66797,6.33399 -0.51891,0.33978 -0.97999,0.18348 -1.47656,-0.13672 -0.30337,-0.97681 -0.62977,-1.93743 -0.97852,-2.81445 0.0134,0.68169 -0.0367,1.37283 -0.0742,2.0625 -0.45428,-0.3097 -0.96629,-0.59081 -1.58398,-0.69141 0.65225,0.85417 1.06339,1.68755 1.5625,2.32813 0.049,0.90996 0.23843,1.79734 0.76367,2.63281 -0.70973,0.46473 -1.31551,0.005 -2.04883,-0.54102 -0.0282,-0.0727 -0.0555,-0.14909 -0.084,-0.2207 0.001,0.0526 -2.9e-4,0.10552 0,0.1582 -0.55079,-0.40811 -1.17456,-0.84531 -1.98047,-0.97656 0.79798,1.04502 1.23522,2.06302 1.91406,2.72851 -0.0869,1.52618 -0.13142,3.04668 0.73438,4.42383 -1.26238,0.8266 -2.17931,-1.26479 -4.11524,-1.58007 1.38754,1.81708 1.68493,3.55413 4.0586,3.49218 -0.004,0.0209 -0.008,0.0416 -0.0117,0.0625 -0.96949,2.02548 -1.19043,4.26117 -1.63086,6.44922 1.01243,-1.71842 1.0543,-3.31896 2.8457,-5.45898 1.54974,2.31571 2.57487,4.01963 4.31055,5.80664 -1.20382,-2.35836 -1.07813,-4.9026 -2.9668,-7.18946 0.74631,-0.35399 1.36823,-0.87946 1.92578,-1.49414 0.75774,1.09546 1.51716,2.09333 2.50781,3.11328 -0.73359,-1.43717 -0.97539,-2.94456 -1.47851,-4.41992 0.37112,-0.52213 0.72895,-1.06287 1.09375,-1.59375 0.65071,0.91063 1.32731,1.76132 2.17187,2.63086 -0.6366,-1.24715 -0.90327,-2.54606 -1.29101,-3.83203 0.0989,-0.12357 0.19798,-0.24509 0.30078,-0.36328 -0.12146,0.0533 -0.24046,0.11143 -0.35938,0.16992 -0.21466,-0.68716 -0.47485,-1.36973 -0.8496,-2.03711 0.91766,-1.19914 1.69923,-2.58456 2.67382,-3.70508 -0.37052,0.1625 -0.72658,0.3532 -1.07422,0.56055 0.99998,-1.25054 1.82151,-2.74785 2.86133,-3.94336 -2.52419,1.10699 -4.49036,3.38668 -6.25,5.04492 -0.5437,-2.17773 -1.27987,-4.84032 -2.13867,-7 z m 18.72656,7.70118 c 0.0307,1.56224 -0.2796,3.17823 0.0273,4.69726 -0.44988,0.38026 -0.87864,0.77836 -1.29492,1.17774 -0.59789,-0.44361 -1.2742,-0.9759 -2.17774,-1.12305 0.53759,0.70402 0.91043,1.39629 1.30469,1.97656 -0.37881,0.37435 -0.75079,0.74019 -1.10938,1.07813 -0.5437,-2.17774 -1.27792,-4.84034 -2.13672,-7 0.042,2.13914 -0.56219,4.37842 0.66602,6.33203 -0.53264,0.34877 -1.00389,0.17704 -1.51562,-0.16016 -0.39443,-1.36536 -0.84018,-2.74854 -1.32618,-3.9707 0.0193,0.98521 -0.0969,1.99223 -0.10937,2.98242 -0.34684,-0.19621 -0.72804,-0.35899 -1.16211,-0.42969 0.51265,0.67136 0.8773,1.33164 1.25195,1.89453 0.10259,0.64843 0.30717,1.28175 0.6875,1.88672 -1.26238,0.8266 -2.1793,-1.26479 -4.11523,-1.58008 1.39103,1.82166 1.68602,3.56339 4.07617,3.49219 -0.99503,2.04184 -1.21522,4.30126 -1.66016,6.51172 0.99717,-1.69252 1.05649,-3.27328 2.76953,-5.36523 -0.2182,1.04699 -0.38166,2.11045 -0.59374,3.16406 0.50509,-0.85731 0.76918,-1.68567 1.1289,-2.56641 1.29859,1.96142 2.29993,3.51772 3.85156,5.11524 -1.17846,-2.30871 -1.08419,-4.79573 -2.85156,-7.04492 0.0702,-0.10637 0.1445,-0.21331 0.22266,-0.32227 0.22311,-0.12733 0.43442,-0.27165 0.63672,-0.42773 0.92919,1.39473 1.68833,2.58439 2.53906,3.69726 -0.0455,0.24785 -0.0909,0.49519 -0.14063,0.74219 0.10825,-0.18374 0.2036,-0.36695 0.29297,-0.54883 0.44808,0.57394 0.9247,1.13495 1.47656,1.70312 -0.46846,-0.91776 -0.73504,-1.86426 -0.99804,-2.8125 0.45235,-1.15785 0.86245,-2.35513 2.07422,-3.80273 1.54974,2.31572 2.57682,4.0216 4.3125,5.80859 -1.20381,-2.35834 -1.08009,-4.90454 -2.96875,-7.1914 2.36839,-1.12339 3.49413,-3.96269 5.23047,-5.95899 -2.5242,1.10699 -4.49038,3.38668 -6.25,5.04493 -0.17806,-0.71322 -0.37901,-1.4811 -0.59571,-2.26368 0.46511,-0.68774 0.93343,-1.37035 1.45899,-1.97461 -0.61098,0.26795 -1.18955,0.60644 -1.74024,0.98633 -0.37841,-1.29304 -0.80194,-2.59182 -1.26172,-3.74804 z m -18.95507,0.47851 c 0.2534,0.0518 0.53595,0.076 0.85742,0.0664 -0.1982,0.40671 -0.36518,0.82227 -0.50977,1.24414 -0.11167,-0.43116 -0.22348,-0.86071 -0.34765,-1.31055 z m 2.83007,2.30469 c 0.30599,0.46257 0.61014,0.91829 0.90039,1.3418 -0.41441,0.28 -0.81403,0.58282 -1.19921,0.90234 -0.24637,-0.48537 -0.54551,-0.9641 -0.93164,-1.43164 0.45122,-0.21403 0.85661,-0.49161 1.23046,-0.8125 z m -4.96875,0.98242 c 0.33626,0.11737 0.73019,0.17637 1.20899,0.16211 -0.26814,0.55024 -0.47722,1.11674 -0.65235,1.69336 -0.17427,-0.61697 -0.36166,-1.24065 -0.55664,-1.85547 z m 2.39453,1.21289 c 0.31141,0.46532 0.59195,0.89085 0.8711,1.3125 -0.70899,0.67884 -1.37395,1.35991 -2.01172,1.96094 -0.0848,-0.33956 -0.18353,-0.70505 -0.27734,-1.06445 0.14639,-0.31039 0.3157,-0.63048 0.51757,-0.96094 -0.0505,0.27731 -0.10258,0.55377 -0.1582,0.83008 0.3512,-0.5961 0.58735,-1.18387 0.81836,-1.7793 0.0773,-0.0991 0.15535,-0.19743 0.24023,-0.29883 z m 19.25977,1.17578 c 0.0338,0.0596 0.0703,0.11869 0.10742,0.17774 -0.1224,0.0801 -0.24225,0.13254 -0.35937,0.16211 0.0855,-0.11122 0.16858,-0.22571 0.25195,-0.33985 z m -1.54687,1.74414 c 0.41637,0.23777 0.92864,0.36811 1.61523,0.34766 -0.59923,1.22963 -0.9145,2.53798 -1.16992,3.86719 -0.32398,-1.08066 -0.73552,-2.1507 -1.51953,-3.17383 0.14365,-0.17846 0.28258,-0.36164 0.41992,-0.54883 0.22897,-0.14849 0.44695,-0.31332 0.6543,-0.49219 z m -4.70704,1.06641 c 0.2738,0.0643 0.57917,0.0985 0.93555,0.0879 -0.0881,0.1808 -0.16749,0.36481 -0.24414,0.54883 -0.14111,0.13721 -0.2835,0.27585 -0.42187,0.40625 -0.0829,-0.33218 -0.17795,-0.69172 -0.26954,-1.04297 z" />
    <path
       id="path49"
       style="fill:#5d6c53;fill-rule:evenodd;stroke:#3a4530;stroke-width:0.15;stroke-linecap:square"
       d="m 113.72534,239.92654 c 0.042,2.13916 -0.56023,4.38038 0.66797,6.33399 -0.51891,0.33978 -0.97999,0.18348 -1.47656,-0.13672 -0.30337,-0.97681 -0.62977,-1.93743 -0.97852,-2.81445 0.0134,0.68169 -0.0367,1.37283 -0.0742,2.0625 -0.45428,-0.3097 -0.96629,-0.59081 -1.58398,-0.69141 0.65225,0.85417 1.06339,1.68755 1.5625,2.32813 0.049,0.90996 0.23843,1.79734 0.76367,2.63281 -0.70973,0.46473 -1.31551,0.005 -2.04883,-0.54102 -0.0282,-0.0727 -0.0555,-0.14909 -0.084,-0.2207 0.001,0.0526 -2.9e-4,0.10552 0,0.1582 -0.55079,-0.40811 -1.17456,-0.84531 -1.98047,-0.97656 0.79798,1.04502 1.23522,2.06302 1.91406,2.72851 -0.0869,1.52618 -0.13142,3.04668 0.73438,4.42383 -1.26238,0.8266 -2.17931,-1.26479 -4.11524,-1.58007 1.38754,1.81708 1.68493,3.55413 4.0586,3.49218 -0.004,0.0209 -0.008,0.0416 -0.0117,0.0625 -0.96949,2.02548 -1.19043,4.26117 -1.63086,6.44922 1.01243,-1.71842 1.0543,-3.31896 2.8457,-5.45898 1.54974,2.31571 2.57487,4.01963 4.31055,5.80664 -1.20382,-2.35836 -1.07813,-4.9026 -2.9668,-7.18946 0.74631,-0.35399 1.36823,-0.87946 1.92578,-1.49414 0.75774,1.09546 1.51716,2.09333 2.50781,3.11328 -0.73359,-1.43717 -0.97539,-2.94456 -1.47851,-4.41992 0.37112,-0.52213 0.72895,-1.06287 1.09375,-1.59375 0.65071,0.91063 1.32731,1.76132 2.17187,2.63086 -0.6366,-1.24715 -0.90327,-2.54606 -1.29101,-3.83203 0.0989,-0.12357 0.19798,-0.24509 0.30078,-0.36328 -0.12146,0.0533 -0.24046,0.11143 -0.35938,0.16992 -0.21466,-0.68716 -0.47485,-1.36973 -0.8496,-2.03711 0.91766,-1.19914 1.69923,-2.58456 2.67382,-3.70508 -0.37052,0.1625 -0.72658,0.3532 -1.07422,0.56055 0.99998,-1.25054 1.82151,-2.74785 2.86133,-3.94336 -2.52419,1.10699 -4.49036,3.38668 -6.25,5.04492 -0.5437,-2.17773 -1.27987,-4.84032 -2.13867,-7 z m 18.72656,7.70118 c 0.0307,1.56224 -0.2796,3.17823 0.0274,4.69726 -0.44988,0.38026 -0.87864,0.77836 -1.29492,1.17774 -0.59789,-0.44361 -1.2742,-0.9759 -2.17774,-1.12305 0.53759,0.70402 0.91043,1.39629 1.30469,1.97656 -0.37881,0.37435 -0.75079,0.74019 -1.10938,1.07813 -0.5437,-2.17774 -1.27792,-4.84034 -2.13672,-7 0.042,2.13914 -0.56219,4.37842 0.66602,6.33203 -0.53264,0.34877 -1.00389,0.17704 -1.51562,-0.16016 -0.39443,-1.36536 -0.84018,-2.74854 -1.32618,-3.9707 0.0193,0.98521 -0.0969,1.99223 -0.10937,2.98242 -0.34684,-0.19621 -0.72804,-0.35899 -1.16211,-0.42969 0.51265,0.67136 0.8773,1.33164 1.25195,1.89453 0.10259,0.64843 0.30717,1.28175 0.6875,1.88672 -1.26238,0.8266 -2.1793,-1.26479 -4.11523,-1.58008 1.39103,1.82166 1.68602,3.56339 4.07617,3.49219 -0.99503,2.04184 -1.21522,4.30126 -1.66016,6.51172 0.99717,-1.69252 1.05649,-3.27328 2.76953,-5.36523 -0.2182,1.04699 -0.38166,2.11045 -0.59374,3.16406 0.50509,-0.85731 0.76918,-1.68567 1.1289,-2.56641 1.29859,1.96142 2.29993,3.51772 3.85156,5.11524 -1.17846,-2.30871 -1.08419,-4.79573 -2.85156,-7.04492 0.0702,-0.10637 0.1445,-0.21331 0.22266,-0.32227 0.22311,-0.12733 0.43442,-0.27165 0.63672,-0.42773 0.92919,1.39473 1.68833,2.58439 2.53906,3.69726 -0.0455,0.24785 -0.0909,0.49519 -0.14063,0.74219 0.10825,-0.18374 0.2036,-0.36695 0.29297,-0.54883 0.44808,0.57394 0.9247,1.13495 1.47656,1.70312 -0.46846,-0.91776 -0.73504,-1.86426 -0.99804,-2.8125 0.45235,-1.15785 0.86245,-2.35513 2.07422,-3.80273 1.54974,2.31572 2.57682,4.0216 4.3125,5.80859 -1.20381,-2.35834 -1.08009,-4.90454 -2.96875,-7.1914 2.36839,-1.12339 3.49413,-3.96269 5.23047,-5.95899 -2.5242,1.10699 -4.49038,3.38668 -6.25,5.04493 -0.17806,-0.71322 -0.37901,-1.4811 -0.59571,-2.26368 0.46511,-0.68774 0.93343,-1.37035 1.45899,-1.97461 -0.61098,0.26795 -1.18955,0.60644 -1.74024,0.98633 -0.37841,-1.29304 -0.80194,-2.59182 -1.26172,-3.74804 z m -18.95507,0.47851 c 0.2534,0.0518 0.53595,0.076 0.85742,0.0664 -0.1982,0.40671 -0.36518,0.82227 -0.50977,1.24414 -0.11167,-0.43116 -0.22348,-0.86071 -0.34765,-1.31055 z m 2.83007,2.30469 c 0.30599,0.46257 0.61014,0.91829 0.90039,1.3418 -0.41441,0.28 -0.81403,0.58282 -1.19921,0.90234 -0.24637,-0.48537 -0.54551,-0.9641 -0.93164,-1.43164 0.45122,-0.21403 0.85661,-0.49161 1.23046,-0.8125 z m -4.96875,0.98242 c 0.33626,0.11737 0.73019,0.17637 1.20899,0.16211 -0.26814,0.55024 -0.47722,1.11674 -0.65235,1.69336 -0.17427,-0.61697 -0.36166,-1.24065 -0.55664,-1.85547 z m 2.39453,1.21289 c 0.31141,0.46532 0.59195,0.89085 0.8711,1.3125 -0.70899,0.67884 -1.37395,1.35991 -2.01172,1.96094 -0.0848,-0.33956 -0.18353,-0.70505 -0.27734,-1.06445 0.14639,-0.31039 0.3157,-0.63048 0.51757,-0.96094 -0.0505,0.27731 -0.10258,0.55377 -0.1582,0.83008 0.3512,-0.5961 0.58735,-1.18387 0.81836,-1.7793 0.0773,-0.0991 0.15535,-0.19743 0.24023,-0.29883 z m 19.25977,1.17578 c 0.0338,0.0596 0.0703,0.11869 0.10742,0.17774 -0.1224,0.0801 -0.24225,0.13254 -0.35937,0.16211 0.0855,-0.11122 0.16858,-0.22571 0.25195,-0.33985 z m -1.54687,1.74414 c 0.41637,0.23777 0.92864,0.36811 1.61523,0.34766 -0.59923,1.22963 -0.9145,2.53798 -1.16992,3.86719 -0.32398,-1.08066 -0.73552,-2.1507 -1.51953,-3.17383 0.14365,-0.17846 0.28258,-0.36164 0.41992,-0.54883 0.22897,-0.14849 0.44695,-0.31332 0.6543,-0.49219 z m -4.70704,1.06641 c 0.2738,0.0643 0.57917,0.0985 0.93555,0.0879 -0.0881,0.1808 -0.16749,0.36481 -0.24414,0.54883 -0.14111,0.13721 -0.2835,0.27585 -0.42187,0.40625 -0.0829,-0.33218 -0.17795,-0.69172 -0.26954,-1.04297 z"
       inkscape:label="path49" />
  </g>
  <g  id="tank_sprite"
     inkscape:groupmode="layer"
     
     inkscape:label="tank"
     style="display:inline">
    <rect
       style="fill:#728566;fill-opacity:1;fill-rule:evenodd;stroke:#333d2b;stroke-width:0.3;stroke-linecap:square;stroke-dasharray:none;stroke-opacity:1"
       id="rect10"
       width="13.790402"
       height="17.306084"
       x="-6.9152036"
       y="-8.6608238"
       inkscape:label="body" />
    <rect
       style="fill:#5d6c53;fill-opacity:1;fill-rule:evenodd;stroke:#3a4530;stroke-width:0.3;stroke-linecap:square;stroke-dasharray:none;stroke-opacity:1"
       id="rect12"
       width="3.0833642"
       height="20.027111"
       x="3.8589785"
       y="-10.017914"
       inkscape:label="tread" />
    <rect
       style="fill:#5d6c53;fill-opacity:1;fill-rule:evenodd;stroke:#3a4530;stroke-width:0.3;stroke-linecap:square;stroke-dasharray:none;stroke-opacity:1"
       id="l_tread"
       width="3.0833642"
       height="20.027111"
       x="-6.9"
       y="-10.017914"
       inkscape:label="tread" />
    <g
       id="gun_turret"
       style="display:inline">
      <path
         id="rect18"
         style="display:inline;fill:#9dac93;fill-rule:evenodd;stroke:#333d2b;stroke-width:0.133058;stroke-linecap:square"
         inkscape:label="body"
         d="M -2.7981557,-2.7387652 H 3.5980418 L 4.6608653,-0.904973 V 2.656739 L 3.563726,4.1806984 H -2.7625838 L -3.866191,2.7904048 -3.880001,-1.0404437 Z"
         sodipodi:nodetypes="ccccccccc"
         transform="translate(-0.44871353,-0.72632077)" />
      <rect
         style="display:inline;fill:#9dac93;fill-opacity:1;fill-rule:evenodd;stroke:#333d2b;stroke-width:0.165146;stroke-linecap:square;stroke-dasharray:none;stroke-opacity:1"
         id="rect17"
         width="0.99229825"
         height="11.763488"
         x="0.012376411"
         y="-14.764388"
         inkscape:label="body"
         transform="translate(-0.44871353,-0.72632077)" />
      <rect
         style="display:inline;fill:#9dac93;fill-opacity:1;fill-rule:evenodd;stroke:#333d2b;stroke-width:0.165146;stroke-linecap:square;stroke-dasharray:none;stroke-opacity:1"
         id="rect16"
         width="2.7669747"
         height="1.9373411"
         x="-0.89277261"
         y="-4.7297387"
         inkscape:label="body"
         transform="translate(-0.44871353,-0.72632077)" />
      <rect
         style="display:inline;fill:#9dac93;fill-opacity:1;fill-rule:evenodd;stroke:#333d2b;stroke-width:0.133058;stroke-linecap:square;stroke-dasharray:none;stroke-opacity:1"
         id="rect14"
         width="6.2887726"
         height="7.4653864"
         x="-2.7156754"
         y="-3.0141544"
         inkscape:label="body"
         transform="translate(-0.44871353,-0.72632077)" />
      <path
         id="rect15"
         style="display:inline;fill:#8f9c86;fill-rule:evenodd;stroke:#333d2b;stroke-width:0.15;stroke-linecap:square"
         inkscape:label="body"
         d="M -0.75049654,-1.525704 H 1.6603016 L 2.7398006,-0.46186335 2.7343072,2.2239345 1.822443,2.9627818 H -1.1399797 L -1.8753741,2.2622081 v -2.84678902 z"
         sodipodi:nodetypes="ccccccccc"
         transform="translate(-0.44871353,-0.72632077)" />
    </g>
  </g>





<!-- FIRE SMOKE EFFECT: 
https://chatgpt.com/c/68a5c96d-0b34-8333-bb74-495fe20a06bb
   -->
<g id="hole_smoke" transform="translate(230,105)" visibility="visible">
  <!-- Flickering flames -->
  <path d="M0,0 C-3,-8 -1,-14 0,-18 C2,-14 4,-8 2,0 Z"
        fill="orange" opacity="0.8">
    <animate attributeName="opacity" values="0.8;0.4;0.8" dur="0.6s" repeatCount="indefinite"/>
    <animate attributeName="d"
             values="M0,0 C-3,-8 -1,-14 0,-18 C2,-14 4,-8 2,0 Z;
                     M0,0 C-2,-6 -1,-12 0,-16 C1,-12 3,-6 1,0 Z;
                     M0,0 C-4,-9 -2,-15 0,-19 C3,-15 5,-9 3,0 Z"
             dur="1s" repeatCount="indefinite"/>
  </path>

  <!-- Rising smoke puffs -->
  <circle cx="0" cy="0" r="6" fill="gray" opacity="0.4">
    <animate attributeName="cy" from="0" to="-40" dur="4s" repeatCount="indefinite"/>
    <animate attributeName="opacity" values="0.4;0.3;0.2;0" dur="4s" repeatCount="indefinite"/>
    <animate attributeName="r" from="6" to="20" dur="4s" repeatCount="indefinite"/>
  </circle>

  <circle cx="8" cy="0" r="4" fill="darkgray" opacity="0.5">
    <animate attributeName="cy" from="0" to="-50" dur="5s" begin="1s" repeatCount="indefinite"/>
    <animate attributeName="opacity" values="0.5;0.3;0.1;0" dur="5s" repeatCount="indefinite"/>
    <animate attributeName="r" from="4" to="18" dur="5s" repeatCount="indefinite"/>
  </circle>

  <circle cx="-6" cy="0" r="5" fill="lightgray" opacity="0.3">
    <animate attributeName="cy" from="0" to="-45" dur="6s" begin="2s" repeatCount="indefinite"/>
    <animate attributeName="opacity" values="0.3;0.2;0.1;0" dur="6s" repeatCount="indefinite"/>
    <animate attributeName="r" from="5" to="22" dur="6s" repeatCount="indefinite"/>
  </circle>
</g>



</svg>
