<?xml version="1.0" encoding="UTF-8" standalone="no"?>
<!-- Created with Inkscape (http://www.inkscape.org/) -->

<svg
   width="100"
   height="100"
   viewBox="0 0 100 100"
   version="1.1"
   id="svg1"
   inkscape:version="1.3.2 (091e20e, 2023-11-25)"
   sodipodi:docname="logo.svg"
   xmlns:inkscape="http://www.inkscape.org/namespaces/inkscape"
   xmlns:sodipodi="http://sodipodi.sourceforge.net/DTD/sodipodi-0.dtd"
   xmlns:xlink="http://www.w3.org/1999/xlink"
   xmlns="http://www.w3.org/2000/svg"
   xmlns:svg="http://www.w3.org/2000/svg">
  <sodipodi:namedview
     id="namedview1"
     pagecolor="#ffffff"
     bordercolor="#666666"
     borderopacity="1.0"
     inkscape:showpageshadow="2"
     inkscape:pageopacity="0.0"
     inkscape:pagecheckerboard="0"
     inkscape:deskcolor="#d1d1d1"
     inkscape:document-units="px"
     inkscape:zoom="3.336"
     inkscape:cx="7.0443645"
     inkscape:cy="8.3932854"
     inkscape:window-width="1848"
     inkscape:window-height="1016"
     inkscape:window-x="72"
     inkscape:window-y="27"
     inkscape:window-maximized="1"
     inkscape:current-layer="layer3" />
  <defs  id="defs_nn_card">
    <linearGradient
       id="linearGradient17"
       inkscape:collect="always">
      <stop
         style="stop-color:#ffeeaa;stop-opacity:1;"
         offset="0"
         id="stop17" />
      <stop
         style="stop-color:#ffeeaa;stop-opacity:0;"
         offset="1"
         id="stop18" />
    </linearGradient>
    <linearGradient
       id="linearGradient15"
       inkscape:collect="always">
      <stop
         style="stop-color:#003189;stop-opacity:1;"
         offset="0"
         id="stop15" />
      <stop
         style="stop-color:#a9ebff;stop-opacity:1;"
         offset="1"
         id="stop16" />
    </linearGradient>
    <inkscape:path-effect
       effect="powerstroke"
       id="path-effect14"
       is_visible="true"
       lpeversion="1.3"
       scale_width="1"
       interpolator_type="CentripetalCatmullRom"
       interpolator_beta="0.2"
       start_linecap_type="zerowidth"
       end_linecap_type="zerowidth"
       offset_points="0.23352873,1.1060128 | 0.97526263,0.19839828 | 1.6286887,1.2796543"
       linejoin_type="round"
       miter_limit="4"
       not_jump="false"
       sort_points="true"
       message="&lt;b&gt;Ctrl + click&lt;/b&gt; on existing node and move it" />
    <inkscape:path-effect
       effect="powerstroke"
       id="path-effect13"
       is_visible="true"
       lpeversion="1.3"
       scale_width="1"
       interpolator_type="CentripetalCatmullRom"
       interpolator_beta="0.2"
       start_linecap_type="zerowidth"
       end_linecap_type="zerowidth"
       offset_points="0.25777063,0.47384717 | 2,1 | 3.8,1"
       linejoin_type="round"
       miter_limit="4"
       not_jump="false"
       sort_points="true"
       message="&lt;b&gt;Ctrl + click&lt;/b&gt; on existing node and move it" />
    <inkscape:path-effect
       effect="powerstroke"
       id="path-effect12"
       is_visible="true"
       lpeversion="1.3"
       scale_width="1"
       interpolator_type="CentripetalCatmullRom"
       interpolator_beta="0.2"
       start_linecap_type="square"
       end_linecap_type="zerowidth"
       offset_points="0.2,1 | 0.5,1 | 0.7645063,0.62110199"
       linejoin_type="round"
       miter_limit="4"
       not_jump="false"
       sort_points="true"
       message="&lt;b&gt;Ctrl + click&lt;/b&gt; on existing node and move it" />
    <inkscape:path-effect
       effect="powerstroke"
       id="path-effect11"
       is_visible="true"
       lpeversion="1.3"
       scale_width="1"
       interpolator_type="CentripetalCatmullRom"
       interpolator_beta="0.2"
       start_linecap_type="square"
       end_linecap_type="zerowidth"
       offset_points="0.2,1 | 0.5,1 | 0.8,1"
       linejoin_type="round"
       miter_limit="4"
       not_jump="false"
       sort_points="true"
       message="&lt;b&gt;Ctrl + click&lt;/b&gt; on existing node and move it" />
    <inkscape:path-effect
       effect="powerstroke"
       id="path-effect10"
       is_visible="true"
       lpeversion="1.3"
       scale_width="1"
       interpolator_type="CentripetalCatmullRom"
       interpolator_beta="0.2"
       start_linecap_type="zerowidth"
       end_linecap_type="zerowidth"
       offset_points="0.2,1 | 1.5,1 | 2.7776969,0.48713839"
       linejoin_type="round"
       miter_limit="4"
       not_jump="false"
       sort_points="true"
       message="&lt;b&gt;Ctrl + click&lt;/b&gt; on existing node and move it" />
    <linearGradient
       inkscape:collect="always"
       xlink:href="#linearGradient15"
       id="linearGradient16"
       x1="-48.815212"
       y1="50.257839"
       x2="51.582497"
       y2="-50.146336"
       gradientUnits="userSpaceOnUse" />
    <radialGradient
       inkscape:collect="always"
       xlink:href="#linearGradient17"
       id="radialGradient18"
       cx="20.483149"
       cy="-27.122955"
       fx="20.483149"
       fy="-27.122955"
       r="10.038182"
       gradientTransform="matrix(0.02164649,-1.4064092,1.146736,-0.08363189,53.014102,8.2625488)"
       gradientUnits="userSpaceOnUse" />
  </defs>
  <g
     inkscape:label="back"
     inkscape:groupmode="layer"
     id="layer1"
     style="display:inline"
     sodipodi:insensitive="true">
    <rect
       style="fill:#000000;fill-opacity:1;fill-rule:evenodd;stroke:none;stroke-width:2.25;stroke-dasharray:none"
       id="rect14"
       width="150"
       height="150"
       x="-75"
       y="-75" />
  </g>
  <g
     inkscape:groupmode="layer"
     id="layer2"
     inkscape:label="ground">

     
    <g
       id="g14"
       inkscape:label="sea"
       style="display:inline"
       inkscape:groupmode="layer"
       sodipodi:insensitive="true">
      <path
         style="fill:#528bc2;fill-opacity:1;fill-rule:nonzero;stroke:none;stroke-width:2;stroke-linecap:butt;stroke-linejoin:miter;stroke-dasharray:none;stroke-opacity:1"
         d="m -46.884294,16.295014 c 0.512415,0.874614 1.638153,3.257565 3.645004,5.46746 0.327513,0.360649 0.699916,0.744902 1.114889,1.141397 1.536694,1.468268 3.70007,3.15022 6.545478,4.513917 2.286671,1.095916 4.985175,1.976638 8.239575,2.466865 3.001381,0.452113 6.391427,0.560504 10.298554,0.263019 2.569392,-0.207102 4.688647,-0.618354 6.527355,-1.186684 1.9579829,-0.605196 3.5493391,-1.374797 4.9345599,-2.186326 1.4179515,-0.830705 2.7370077,-1.788413 4.1950486,-2.930847 1.3530651,-1.060182 2.7742005,-2.238599 4.3891872,-3.483989 2.2657777,-1.722987 4.372672,-2.879577 6.2990072,-3.598966 1.9666351,-0.734438 3.7419361,-1.012261 5.3123971,-0.977422 1.636272,0.0363 3.066241,0.412041 4.284963,0.984433 1.305849,0.613313 2.381144,1.45741 3.232829,2.383352 0.950578,1.033459 1.624131,2.16831 2.06984,3.249834 0.539202,1.308389 0.745438,2.530472 0.770803,3.546705 0.0068,0.270722 8.33e-4,0.527642 -0.01469,0.770143 -0.06267,0.979074 -0.282575,1.830015 -0.599919,2.551636 -0.628148,1.428371 -1.601551,2.264436 -2.268724,2.692902 0.685789,-0.315501 1.904401,-0.959275 2.823801,-2.39244 0.470203,-0.732955 0.844628,-1.648828 1.013135,-2.744277 0.04159,-0.27036 0.07189,-0.557973 0.08739,-0.862139 0.05823,-1.142864 -0.09445,-2.525089 -0.63113,-4.016259 -0.444287,-1.234461 -1.150821,-2.536163 -2.188815,-3.739821 -0.932265,-1.081056 -2.133075,-2.081726 -3.622208,-2.824905 -1.392929,-0.695166 -3.033871,-1.160841 -4.906119,-1.234343 -1.796328,-0.07052 -3.789707,0.220878 -5.9543864,1.001363 -2.1173922,0.763435 -4.3859322,1.990193 -6.7831407,3.785463 -1.67160342,1.234364 -3.1258402,2.391234 -4.4707657,3.401998 -1.4518035,1.091087 -2.7102262,1.963286 -4.0325344,2.702098 -1.2862321,0.718655 -2.7513514,1.36241 -4.5433938,1.846969 -1.685275,0.455691 -3.654034,0.770307 -6.083708,0.900354 -3.766139,0.219938 -6.965189,0.05189 -9.745641,-0.40526 -3.006473,-0.494306 -5.460465,-1.317029 -7.538217,-2.282265 -2.588064,-1.202305 -4.628438,-2.648769 -6.203264,-3.862545 -0.424334,-0.327051 -0.820746,-0.642119 -1.18026,-0.929266 -2.102593,-1.679352 -4.346454,-3.395861 -5.016896,-4.012154 z"
         id="path9"
         sodipodi:nodetypes="cssc"
         inkscape:path-effect="#path-effect10"
         inkscape:original-d="m -46.884294,16.295014 c 6.982438,8.657341 14.703987,13.68762 29.763889,12.672074 9.8701294,-0.66558 13.0524682,-4.388321 19.5882742,-9.319631 C 21.005277,5.6608584 31.249203,26.947482 22.091864,31.962443" />
      <path
         style="fill:#346aad;fill-opacity:1;fill-rule:nonzero;stroke:none;stroke-width:1.5;stroke-linecap:butt;stroke-linejoin:miter;stroke-dasharray:none;stroke-opacity:1"
         d="m -29.268827,40.370575 c 1.697799,0.09381 4.3416,0.220084 7.556505,-0.136519 3.248949,-0.360379 6.594312,-1.161467 9.913439,-2.540565 0.346741,-0.144071 0.697565,-0.296301 1.05231,-0.456862 4.6847152,-2.120344 8.7120511,-5.026592 13.1229336,-8.506879 1.7453999,-1.37716 3.4316162,-2.739083 4.9670097,-3.844327 0.7587676,-0.546194 1.4895226,-1.036626 2.1969,-1.454503 0.7073807,-0.417879 1.3873567,-0.760814 2.0465607,-1.01531 0.665666,-0.256991 1.307036,-0.422578 1.931228,-0.485309 0.63745,-0.06406 1.256168,-0.02072 1.861522,0.141329 0.627072,0.167859 1.235454,0.462052 1.826855,0.888508 0.370779,0.267366 0.732216,0.584824 1.084535,0.951386 0.108334,0.112713 0.216448,0.230725 0.324357,0.354156 -0.956305,-0.159615 -1.8356,-0.135815 -2.627833,0.0652 -0.95282,0.241762 -1.780126,0.741696 -2.42214,1.472104 -0.653812,0.74383 -1.086672,1.695856 -1.256653,2.756537 -0.17769,1.108783 -0.06282,2.299852 0.339614,3.459145 0.436032,1.256087 1.191925,2.427229 2.202119,3.417321 0.0313,0.03068 0.06283,0.06116 0.09457,0.09145 1.029386,0.982174 2.368161,1.83564 3.989822,2.489327 4.532146,1.826896 9.665701,1.516444 13.158293,1.148783 -3.658657,0.0061 -8.459056,-0.691682 -12.259126,-2.976412 -1.320546,-0.793957 -2.309611,-1.649261 -3.076565,-2.468679 -0.02373,-0.02535 -0.04731,-0.05074 -0.07075,-0.07616 -0.752676,-0.816401 -1.351485,-1.66594 -1.773068,-2.538611 -0.388901,-0.805018 -0.62393,-1.625506 -0.675167,-2.418322 -0.04879,-0.754992 0.06975,-1.491858 0.392855,-2.133699 0.316447,-0.628612 0.838416,-1.179709 1.595549,-1.522123 0.7615,-0.344389 1.73673,-0.464044 2.881289,-0.241524 a 0.20659095,0.21043268 76.058617 0 0 0.205718,-0.334567 C 19.06712,24.158275 18.821121,23.885296 18.575606,23.635064 18.206217,23.258577 17.829847,22.925203 17.443918,22.6368 16.828739,22.17708 16.191276,21.833095 15.519451,21.6086 14.869494,21.391412 14.194103,21.288314 13.48444,21.295531 c -0.694323,0.0071 -1.411942,0.119617 -2.15815,0.325573 -0.738096,0.203716 -1.4981592,0.497144 -2.2832873,0.863827 -0.7848046,0.366533 -1.5918031,0.804942 -2.4210366,1.295857 -1.6773592,0.993013 -3.4944478,2.232054 -5.3236809,3.481966 -4.8721304,3.32912 -8.3537309,5.626171 -13.0112502,7.931192 -0.333487,0.165043 -0.661741,0.324344 -0.985377,0.478646 -3.12463,1.489757 -6.102769,2.642918 -9.217161,3.46687 -3.046049,0.805872 -5.646859,1.133277 -7.353324,1.231113 z"
         id="path10"
         sodipodi:nodetypes="ccc"
         inkscape:path-effect="#path-effect14"
         inkscape:original-d="M -29.268827,40.370575 C -1.2247247,40.341531 9.496514,12.662784 19.152049,24.586493 9.7826117,22.565332 9.884909,40.349804 32.093122,39.165552" />
    </g>
    <g
       id="g8"
       inkscape:label="ol_man"
       style="display:inline"
       inkscape:groupmode="layer"
       sodipodi:insensitive="true">
      <path
         style="fill:none;stroke:#8fcfed;stroke-width:2;stroke-linecap:butt;stroke-linejoin:miter;stroke-dasharray:none;stroke-opacity:1"
         d="m -5.5490947,-24.106495 c 0.14129,-2.398252 1.3045545,-4.87846 -3.2988989,-6.896213 -6.3022834,-6.20907 -14.5118324,-3.922553 -22.7039164,5.31595 -7.31968,4.522552 -7.387129,15.556316 -0.480231,13.483184 12.043305,-4.461913 22.8896502,-16.37327 32.99858595,-9.752127 1.82489105,1.195266 -0.2291741,2.260426 -3.45810995,3.775283 1.58534225,2.219746 2.05616265,4.439491 1.97264665,6.659236 0,0 0.5486446,2.1129552 3.01111365,6.3870477 1.0281031,1.7844723 -3.5532214,1.5657091 -3.5532214,1.5657091 l 0.45662356,3.33313251 -0.49756986,3.04014689 c 1.93455475,2.119611 2.1348463,2.4467792 2.3549733,4.5203013 0.1661705,1.5652699 -0.85516061,3.1066265 -0.045256,5.1769115"
         id="path2"
         sodipodi:nodetypes="cscccsccscccc" />
      <path
         style="fill:#8fcfed;fill-opacity:1;fill-rule:nonzero;stroke:none;stroke-width:2;stroke-linecap:butt;stroke-linejoin:miter;stroke-dasharray:none;stroke-opacity:1"
         d="m -33.751149,-11.728064 c -0.193736,0.590417 -0.45959,1.568258 -0.445605,2.7087699 0.0064,0.5245942 0.07049,1.012112 0.175182,1.4644029 0.06927,0.2992351 0.157897,0.5996188 0.269194,0.9016911 0.259909,0.7054215 0.624179,1.3672092 1.079231,1.9928889 0.449942,0.6186544 0.966746,1.1710869 1.484695,1.6425941 1.073555,0.9772957 2.362867,1.8463682 3.356665,2.57453066 0.06251,0.0458022 0.124508,0.0914786 0.185982,0.13708472 0.444122,0.32948376 0.900578,0.66656253 1.337406,1.04513392 0.642057,0.5564308 1.013205,1.0127263 1.231732,1.3472321 -0.08386,-0.3821731 -0.243251,-0.9846824 -0.683709,-1.78456366 -0.296107,-0.53773658 -0.659406,-1.05456367 -1.02354,-1.50235144 -0.05117,-0.062922 -0.102976,-0.1256927 -0.155381,-0.1883295 -0.875004,-1.0458357 -1.916334,-2.0494417 -2.843753,-3.051707 -0.435956,-0.4711395 -0.859433,-0.940563 -1.231019,-1.4393118 -0.370744,-0.4976192 -0.659828,-0.9852583 -0.858554,-1.4872525 -0.08513,-0.2150547 -0.151663,-0.4278198 -0.200471,-0.6386706 -0.07359,-0.3178885 -0.119206,-0.6624516 -0.12381,-1.0378949 -0.01015,-0.828128 0.184556,-1.5684849 0.346065,-2.0606909 l 0.311778,-0.950155 -1.90031,-0.623556 z"
         id="path3"
         sodipodi:nodetypes="cc"
         inkscape:path-effect="#path-effect12"
         inkscape:original-d="m -32.800994,-11.416286 c -2.269644,6.9168301 5.868849,9.0812098 7.724327,13.5025503" />
      <path
         style="fill:#8fcfed;fill-opacity:1;fill-rule:nonzero;stroke:none;stroke-width:2;stroke-linecap:butt;stroke-linejoin:miter;stroke-dasharray:none;stroke-opacity:1"
         d="m -28.782964,-0.14405268 c 0.157806,0.6243144 0.327941,1.51704728 0.246585,2.41111738 -0.0365,0.40114 -0.118059,0.74775 -0.226936,1.0523068 -0.07265,0.2032301 -0.162646,0.4021934 -0.272085,0.5982858 -0.2559,0.4585174 -0.610181,0.8875406 -1.078177,1.3187686 -0.459655,0.4235421 -0.994429,0.8178716 -1.57375,1.2178327 -0.571287,0.3944147 -1.234951,0.7819606 -1.897925,1.2177636 -0.682446,0.4486026 -1.345093,0.9380931 -1.908758,1.5313652 -0.242086,0.2548012 -0.459566,0.5223976 -0.646055,0.8029496 -0.281651,0.423715 -0.511126,0.920218 -0.673459,1.453656 -0.358856,1.179223 -0.297935,2.199336 -0.281456,2.803928 0.253628,-0.599557 0.753743,-1.358387 1.508932,-2.095047 0.341901,-0.333513 0.657576,-0.594175 0.970288,-0.86774 0.201125,-0.175948 0.407202,-0.358225 0.622384,-0.545553 0.519399,-0.452168 1.019344,-0.8700883 1.640039,-1.347463 0.583287,-0.4486037 1.198561,-0.891183 1.8023,-1.3080025 0.601511,-0.4152809 1.228338,-0.8728421 1.792715,-1.3928792 0.584192,-0.5382948 1.086794,-1.1294466 1.469345,-1.8148966 0.163163,-0.2923525 0.298968,-0.5921029 0.408937,-0.899721 0.165614,-0.4632783 0.283644,-0.9751848 0.335432,-1.544313 0.111847,-1.2291493 -0.121883,-2.38042041 -0.29934,-3.08247796 l -0.24506,-0.96950794 -1.939016,0.4901196 z"
         id="path4"
         sodipodi:nodetypes="cc"
         inkscape:path-effect="#path-effect11"
         inkscape:original-d="M -27.813456,-0.38911247 C -25.67704,8.0629975 -35.6713,6.7178984 -37.09498,14.263921" />
      <path
         style="fill:#8fcfed;fill-opacity:1;fill-rule:nonzero;stroke:none;stroke-width:2;stroke-linecap:butt;stroke-linejoin:miter;stroke-dasharray:none;stroke-opacity:1"
         d="m -14.457519,-2.926124 c -0.286609,0.6254217 -0.915506,1.9104545 -0.7398,3.55363662 0.0037,0.0349365 0.0078,0.0699962 0.0123,0.10517575 0.111888,0.88098103 0.446917,1.88484483 1.163709,2.98724593 0.560429,0.8619188 1.278395,1.6730915 2.141481,2.5124304 0.745211,0.7247072 1.561958,1.4310498 2.3047919,2.1170024 0.091037,0.094096 0.1953508,0.1861135 0.3099066,0.2755003 0.1129358,0.088123 0.2387764,0.1759752 0.3756644,0.2621769 0.2718082,0.1711645 0.5902135,0.3377896 0.9405769,0.4861984 0.7477239,0.316725 1.6013382,0.5344492 2.4471432,0.5592431 0.071438,0.00315 0.1499219,0.016989 0.2371532,0.045326 0.085182,0.027671 0.1805562,0.069855 0.2854667,0.1306702 0.2053984,0.119065 0.4355679,0.302552 0.6845247,0.562148 0.4802249,0.500746 0.9525616,1.203232 1.3740946,1.993786 0.4048076,0.759187 0.7274184,1.533852 0.928509,2.134181 0.1003585,0.299607 0.1655324,0.541919 0.1927643,0.69395 0.01208,0.06744 0.016927,0.127381 0.00809,0.109375 -0.0027,-0.0055 -0.010417,-0.03375 -0.011608,-0.09511 -5.9e-4,-0.03039 3.785e-4,-0.0778 0.00847,-0.137963 0.00776,-0.0577 0.025059,-0.149766 0.067615,-0.258844 l 2.2710687,1.181158 C 0.99802383,15.6304 1.2562776,14.867378 1.3889296,14.143293 1.5392774,13.322614 1.5384288,12.503694 1.45343,11.787438 1.3419701,10.848204 1.0867978,10.071785 0.80309167,9.5301031 0.72461865,9.380274 0.64391065,9.2480702 0.56307885,9.1339 -0.01536104,8.316887 -0.81133701,8.2486555 -1.0617025,8.1602733 c -0.00114,0.2877675 -0.2753985,0.9161947 -0.2438772,1.6864483 0.00449,0.1096093 0.013724,0.2288534 0.026032,0.3589704 0.04368,0.46176 0.1305074,1.090954 0.1560759,1.796144 0.019959,0.550466 0.00188,1.130125 -0.09143,1.677563 -0.083705,0.491082 -0.2188555,0.899681 -0.3955636,1.207194 l 2.27106871,1.181158 c 0.048014,-0.122694 0.0696026,-0.231412 0.0803029,-0.308329 0.011021,-0.07922 0.0137681,-0.148931 0.0136157,-0.203819 C 0.75422487,15.448551 0.74260539,15.353761 0.7310031,15.281865 0.70796276,15.139091 0.66929706,14.99325 0.62946762,14.861666 0.54917456,14.596402 0.42854065,14.273916 0.28372116,13.930109 -0.00844547,13.236493 -0.43362078,12.373889 -0.94993903,11.531002 -1.4805448,10.664791 -2.1130729,9.8093146 -2.8194428,9.1544743 -3.1909443,8.810074 -3.593499,8.5110887 -4.0252146,8.294834 -4.2502294,8.1821198 -4.4848145,8.0910592 -4.7280381,8.0283461 -4.9796792,7.9634627 -5.237391,7.9297677 -5.4988042,7.932488 -6.0559228,7.9558371 -6.6811078,7.846631 -7.2893635,7.6463732 -7.5689542,7.5543228 -7.8192722,7.4514123 -8.0288165,7.3527828 -8.1341296,7.3032133 -8.2246283,7.2568773 -8.3020287,7.2151206 -8.3799822,7.1730656 -8.4417143,7.1367996 -8.4825514,7.1143742 -9.2856631,6.4327711 -10.117114,5.7764115 -10.859716,5.1274704 c -0.862299,-0.7535398 -1.549438,-1.4415056 -2.10346,-2.1556432 -0.701704,-0.9045009 -1.073505,-1.70729 -1.293872,-2.43148452 -0.0089,-0.0291074 -0.01751,-0.0581649 -0.02597,-0.0871752 -0.405096,-1.38944599 -0.324862,-2.65400984 -0.174499,-3.37929144 z"
         id="path5"
         sodipodi:nodetypes="csscc"
         inkscape:path-effect="#path-effect13"
         inkscape:original-d="m -14.457519,-2.926124 c -1.688823,5.1467549 2.453319,8.0259262 5.4287253,10.6579947 0.5379332,0.47586 2.0450078,1.198434 3.5285197,1.2006162 2.7078574,0.00398 5.14319819,6.2178151 4.96724574,6.6563921 1.21517663,-1.864306 0.82240131,-5.510804 -0.52867424,-7.4286057" />
      <path
         style="fill:none;fill-opacity:1;stroke:#8fcfed;stroke-width:2;stroke-linecap:butt;stroke-linejoin:miter;stroke-dasharray:none;stroke-opacity:1"
         d="m -4.6710574,1.8749785 c 1.0452086,-2.23869413 1.645039,-0.6182999 4.05838934,-2.00088413"
         id="path6"
         sodipodi:nodetypes="cc" />
      <path
         style="fill:none;stroke:#8fcfed;stroke-width:2;stroke-linecap:butt;stroke-linejoin:miter;stroke-dasharray:none;stroke-opacity:1"
         d="m -5.3262019,-11.025252 c 1.0452086,-2.238695 2.1957779,-0.227831 3.2961635,-1.597488"
         id="path7"
         sodipodi:nodetypes="cc" />
      <path
         style="fill:none;stroke:#8fcfed;stroke-width:2;stroke-linecap:butt;stroke-linejoin:miter;stroke-dasharray:none;stroke-opacity:1"
         d="m -3.7879549,-10.643453 c 0.6984828,-0.596839 0.2349915,-0.1609 0.1720499,-1.427944"
         id="path8"
         sodipodi:nodetypes="cc" />
    </g>
    <g
       inkscape:groupmode="layer"
       id="layer3"
       inkscape:label="star">
      <path
         id="path16"
         style="fill:url(#radialGradient18);fill-opacity:1;fill-rule:evenodd;stroke:none;stroke-width:1.77699;stroke-dasharray:none;stroke-opacity:1"
         inkscape:transform-center-x="-0.40580719"
         inkscape:transform-center-y="0.61846429"
         d="m 22.375507,-32.139915 -1.501953,11.648437 -5.105469,-4.263671 3.832031,4.968749 -9.6523429,1.349609 9.8535149,1.556641 -3.460938,4.273438 4.691408,-3.373047 1.289062,11.3046876 1.451172,-11.2539066 4.779296,3.990235 -3.876953,-5.029297 10.074219,-1.408203 -10.097656,-1.597656 3.330078,-4.113282 -4.332031,3.113281 z" />
    </g>
    <circle
       style="fill:none;fill-opacity:1;fill-rule:evenodd;stroke:url(#linearGradient16);stroke-width:2;stroke-dasharray:none"
       id="path1"
       cx="0.5"
       cy="0.5"
       r="50"
       inkscape:label="circle" />


  </g>
</svg>
