<?xml version="1.0" encoding="UTF-8" standalone="no"?>
<svg
   width="600"
   height="500"
   viewBox="0 0 600 500"
   version="1.1"
   id="viewport"
   xmlns="http://www.w3.org/2000/svg"
   xmlns:svg="http://www.w3.org/2000/svg">
  <g
     id="green_fairy_sprite"
     transform="translate(-0.57006537,-0.48081573)">
    <path
       id="path1"
       style="fill:#c4c8b7;stroke:#4d844d;stroke-width:0.0264583;stroke-linecap:butt;stroke-linejoin:miter;stroke-dasharray:none;stroke-opacity:1"
       d="m 19.419459,5.776646 c -0.0163,1.511e-4 -0.03231,6.434e-4 -0.04858,0.00155 -0.583265,0.032507 -1.07374,0.3078644 -1.233517,0.7539591 -0.195853,0.621326 -0.03799,1.0306954 0.342615,1.4004313 C 18.346198,8.2735818 18.219564,8.6079428 17.956499,8.4834575 16.047557,8.521709 15.602235,9.8731379 13.34076,9.9748393 13.103926,9.8088796 12.777115,9.3637346 12.286561,9.1779888 11.705816,8.9580934 10.950905,9.0461984 10.632915,9.5996684 9.1756195,10.181281 8.1703359,11.184895 6.9432172,11.981435 6.8264116,10.835457 5.4080989,10.168381 5.2358278,8.7831808 5.3906611,8.4105911 5.1374244,8.2131774 4.6002077,8.1377422 4.4054341,7.9240754 4.1944065,7.6149918 4.0369346,7.6240784 3.5715462,7.5326196 3.8019188,7.3529162 3.3821942,7.346576 l 0.1632975,0.3601847 c 0.562332,0.3538078 0.2592143,0.446103 0.9787517,1.1963094 l 1.4614095,3.1998049 c 0.050448,0.313812 0.2609861,1.235223 1.262972,0.937927 1.4532716,-0.208467 2.8652421,-0.428213 4.1356651,-1.374593 L 13.322156,11.5303 c 1.203408,-0.115499 2.202734,0.351458 3.504179,-0.166915 0.320049,0.240637 0.641939,0.477668 1.177706,0.289905 0.424226,-0.469009 0.417051,-1.006214 0.523483,-1.525488 0.106515,-0.9414664 0.331648,-1.4397053 0.593762,-1.8009241 0.245603,0.1331249 0.378396,0.2141712 0.583427,0.42323 0.235664,0.220762 0.355368,0.098467 0.552421,-0.1291911 l 0.225309,-0.2428792 0.174666,-0.084233 -0.07906,-0.3860229 C 20.812755,7.3989054 20.806221,6.7664939 20.609567,6.4391378 20.440384,6.1244168 19.924878,5.7719624 19.419459,5.776646 Z" />
    <path
       id="path2"
       style="fill:#000000;fill-opacity:0.1;stroke:none;stroke-width:0.0264583;stroke-linecap:butt;stroke-linejoin:miter;stroke-dasharray:none;stroke-opacity:1"
       d="M 9.7712309,10.014483 C 8.7451585,10.59226 7.91354,11.351585 6.9432172,11.981435 6.8264116,10.835457 5.4080989,10.168381 5.2358278,8.7831808 5.3906611,8.4105911 5.1374244,8.2131774 4.6002077,8.1377422 4.4054341,7.9240754 4.1944065,7.6149918 4.0369346,7.6240784 3.5715462,7.5326196 3.8019188,7.3529162 3.3821942,7.346576 l 0.1632975,0.3601847 c 0.562332,0.3538078 0.2592143,0.446103 0.9787517,1.1963094 l 1.4614095,3.1998049 c 0.050448,0.313812 0.2609861,1.235223 1.262972,0.937927 1.4532716,-0.208467 2.8652421,-0.428213 4.1356651,-1.374593 z" />
    <path
       style="display:inline;fill:#c4c8b7;fill-opacity:1;stroke:#4d844d;stroke-width:0.0264583;stroke-linecap:butt;stroke-linejoin:miter;stroke-dasharray:none;stroke-opacity:1"
       d="M 13.379546,11.523723 11.31257,11.769162 6.9952509,11.018303 C 6.6777155,10.977318 6.4155422,10.897215 6.2191781,10.770613 5.0429616,10.16366 3.8717385,9.180787 2.5844647,8.8763623 2.1426519,8.8421698 1.7602003,8.6690283 1.0905873,8.5782666 L 0.61448273,8.2878857 c 0.1494847,-0.00553 0.1252795,-0.084295 0.39068797,0.060569 0.4480111,-0.1434949 1.0421284,0.1553647 1.4176016,-0.2198669 0.1160781,-0.1402783 0.2987606,-0.4875736 0.5580625,-0.097663 0.077934,0.3204157 0.2297954,0.3941754 0.3710966,0.5031698 0.9389124,0.6226448 1.8914124,0.3463688 3.048558,1.3855335 0.1578009,0.043047 0.574859,0.033792 0.7873991,-0.015528 1.654951,-0.3840303 2.276511,-0.3130443 3.6792675,-0.1777692 0.654044,-0.7694324 1.515858,-0.3826301 1.977543,0.046762"
       id="path3" />
    <g
       id="g20"
       transform="matrix(0.87728662,0.1969479,-0.19134208,0.90298881,1.9329954,0.21134978)">
      <path
         style="fill:#d8d9d1;fill-opacity:1;stroke:#8a916f;stroke-width:0.0264583;stroke-linecap:butt;stroke-linejoin:miter;stroke-dasharray:none;stroke-opacity:1"
         d="M 18.798869,5.3071253 C 16.041364,2.905965 14.058885,0.33537369 10.408174,-1.9103354 c -0.533339,-0.026458 -1.3375776,0.00645 1.549779,4.36856 0.58288,0.8317695 4.132749,1.752798 5.722092,3.593351"
         id="path18" />
      <path
         style="fill:none;stroke:#8a916f;stroke-width:0.0264583;stroke-linecap:butt;stroke-linejoin:miter;stroke-dasharray:none;stroke-opacity:1"
         d="M 18.271036,5.5954916 C 12.560471,1.5909343 14.71788,1.2666738 10.889245,-0.83957247"
         id="path19" />
      <path
         style="fill:none;stroke:#8a916f;stroke-width:0.0264583;stroke-linecap:butt;stroke-linejoin:miter;stroke-dasharray:none;stroke-opacity:1"
         d="M 15.809496,3.7188569 C 14.189052,2.7518544 12.671693,3.172327 11.449302,0.50017235"
         id="path20" />
    </g>
    <g
       id="g17"
       transform="translate(-1.521665,3.2495675)">
      <path
         style="fill:#e2e3db;stroke:#8a916f;stroke-width:0.0264583;stroke-linecap:butt;stroke-linejoin:miter;stroke-dasharray:none;stroke-opacity:1"
         d="M 18.798869,5.3071253 C 16.041364,2.905965 14.058885,0.33537369 10.408174,-1.9103354 c -0.533339,-0.026458 -1.3375776,0.00645 1.549779,4.36856 0.58288,0.8317695 4.132749,1.752798 5.722092,3.593351"
         id="path15" />
      <path
         style="fill:none;stroke:#8a916f;stroke-width:0.0264583;stroke-linecap:butt;stroke-linejoin:miter;stroke-dasharray:none;stroke-opacity:1"
         d="M 18.271036,5.5954916 C 12.560471,1.5909343 14.71788,1.2666738 10.889245,-0.83957247"
         id="path16" />
      <path
         style="fill:none;stroke:#8a916f;stroke-width:0.0264583;stroke-linecap:butt;stroke-linejoin:miter;stroke-dasharray:none;stroke-opacity:1"
         d="M 15.809496,3.7188569 C 14.189052,2.7518544 12.671693,3.172327 11.449302,0.50017235"
         id="path17" />
    </g>
    <path
       style="fill:#a7ac93;fill-opacity:1;stroke:#4d844d;stroke-width:0.0264583;stroke-linecap:butt;stroke-linejoin:miter;stroke-dasharray:none;stroke-opacity:1"
       d="M 11.971848,5.6796002 11.918156,5.0525108 11.007738,4.5925055 c 0.07114,0.2627278 0.465407,0.3578736 0.716729,0.6520263 L 11.049703,5.0900622 c 0.183396,0.2215672 0.326673,0.1121792 0.606965,0.3573172 z"
       id="path8" />
    <path
       style="display:inline;fill:#c4c8b7;fill-opacity:1;stroke:#4d844d;stroke-width:0.0264583;stroke-linecap:butt;stroke-linejoin:miter;stroke-dasharray:none;stroke-opacity:1"
       d="M 18.358926,8.6657018 C 17.901836,8.5219416 17.485859,8.175395 16.634511,8.4092732 15.885913,8.1444752 15.191848,8.068764 14.388716,7.6148792 13.77955,7.1545669 12.835832,6.3914708 12.346177,5.789641 L 12.004095,5.0164734 11.273433,4.3159313 c 0.09679,0.3655087 0.298199,0.5756156 0.503076,0.7805721 l 0.0058,0.4656055 c -0.288875,0.2176315 -0.581703,-0.2378966 -0.801738,0.00778 0.57171,0.2225004 0.662926,0.5058705 1.003003,0.5303055 0.65259,0.4519257 0.85662,1.294544 1.89991,2.1177082 0.124601,0.133959 0.256949,0.2770893 0.545084,0.2748906 l 2.082238,0.6961982 0.533781,0.097108 0.01665,0.5788063"
       id="path6" />
    <path
       style="fill:#4e854d;fill-opacity:1;stroke:none;stroke-width:0.264583px;stroke-linecap:butt;stroke-linejoin:miter;stroke-opacity:1"
       d="m 20.087542,7.6772332 c 0.0883,-0.1455803 0.267854,-0.2869273 0.520442,-0.3140797 0.126101,0.2086187 0.01933,0.3872451 -0.131633,0.5198185 -0.01441,-0.1301667 -0.267203,-0.1366141 -0.388809,-0.2057388 z"
       id="path9" />
    <path
       style="fill:#4d844d;fill-opacity:1;stroke:none;stroke-width:0.264583px;stroke-linecap:butt;stroke-linejoin:miter;stroke-opacity:1"
       d="m 19.979003,8.3045402 c 0.06583,0.094271 0.134549,0.1876259 0.295993,0.2515686 l -0.197142,0.185221 c -0.0962,-0.1464055 -0.123835,-0.2746081 -0.09885,-0.4367896 z"
       id="path10" />
    <path
       style="fill:#4d844d;fill-opacity:1;stroke:none;stroke-width:0.264583px;stroke-linecap:butt;stroke-linejoin:miter;stroke-opacity:1"
       d="m 20.309499,7.458918 1.24156,-0.5238767 c 0,0 -0.9283,0.4309864 -0.884465,0.4309864 0.04383,0 0.857662,-0.017155 0.857662,-0.017155 l -0.844237,0.052914 0.488363,0.1356318 -0.50871,-0.09074 z"
       id="path11" />
    <path
       style="color:#000000;fill:#4d844d;fill-opacity:1;-inkscape-stroke:none"
       d="m 20.201328,7.2846775 c 0.20425,-0.1040262 0.382603,-0.27701 0.583596,-0.065129 -0.163615,0.026703 -0.252394,-0.057808 -0.583596,0.065129 z"
       id="path12" />
    <path
       style="fill:#4e854d;fill-opacity:1;stroke:#4d844d;stroke-width:0.0264583;stroke-linecap:butt;stroke-linejoin:miter;stroke-dasharray:none;stroke-opacity:1"
       d="M 19.098198,6.8749381 C 19.26254,6.0328191 20.3106,6.2801316 20.651027,6.4937797 20.665767,4.439542 18.825118,5.1780902 17.59064,4.8348542 18.23362,5.8724109 16.887533,6.939105 18.484934,7.9485815 18.448954,7.606243 18.603056,7.4705696 18.757592,7.3860937 Z"
       id="path14" />
    <path
       style="fill:#c4c8b7;fill-opacity:1;stroke:#4d844d;stroke-width:0.0264583;stroke-linecap:butt;stroke-linejoin:miter;stroke-dasharray:none;stroke-opacity:1"
       d="M 19.111485,6.9014321 C 18.900523,6.5753611 18.627774,6.3453101 18.3246,6.1625379 c -0.05248,0.3886994 0.239734,0.6893055 0.405648,1.0221902 -0.002,0.2808345 0.10207,0.253071 0.297318,0.1981713"
       id="path13" />
  </g>
</svg>
