<?xml version="1.0" encoding="UTF-8" standalone="no"?>
<!-- Created with Inkscape (http://www.inkscape.org/) -->

<svg
   width="400"
   height="500"
   viewBox="0 0 400 500"
   version="1.1"
   id="svg1"
   xml:space="preserve"
   xmlns:xlink="http://www.w3.org/1999/xlink"
   xmlns="http://www.w3.org/2000/svg"
   xmlns:svg="http://www.w3.org/2000/svg"><defs
     id="defs1"><linearGradient
       id="linearGradient23"><stop
         style="stop-color:#00ccff;stop-opacity:1;"
         offset="0"
         id="stop23" /><stop
         style="stop-color:#bef2ff;stop-opacity:1;"
         offset="1"
         id="stop24" /></linearGradient><linearGradient
       xlink:href="#linearGradient23"
       id="linearGradient24"
       x1="209.62715"
       y1="-8.7842321"
       x2="209.61127"
       y2="518.06128"
       gradientUnits="userSpaceOnUse" /></defs><g
     id="layer1"><rect
       style="opacity:1;fill:url(#linearGradient24);fill-opacity:1;stroke:none;stroke-width:5;stroke-linecap:square"
       id="rect23"
       width="410.20724"
       height="514.2536"
       x="-6.0842681"
       y="-5.0278993" /><path
       style="fill:#2ca05a;stroke:none;stroke-width:1px;stroke-linecap:butt;stroke-linejoin:miter;stroke-opacity:1"
       d="m -3.7318535,441.21605 1.0810689,84.7569 411.3795846,-7.53726 0.98644,-69.61176 c -40.04125,0.92514 -118.63669,-8.66131 -175.48931,-6.69025 -73.51554,2.54876 -143.015383,15.7952 -237.9577835,-0.91763 z"
       id="path24" /><path
       style="fill:#87deaa;stroke:none;stroke-width:1px;stroke-linecap:butt;stroke-linejoin:miter;stroke-opacity:1"
       d="m -2.7069166,442.63705 1.0810689,84.7569 411.3795777,-7.53726 0.98644,-69.61176 c -40.04125,0.92514 -118.63669,-8.66131 -175.48931,-6.69025 -73.51554,2.54876 -143.015376,15.7952 -237.9577766,-0.91763 z"
       id="path25" /></g><g
     id="layer2"
     style="display:inline"><path
       style="fill:#f4d7d7;stroke:#000000;stroke-width:1px;stroke-linecap:butt;stroke-linejoin:miter;stroke-opacity:1"
       d="m 104.74583,228.5152 173.61186,10.73828 c 26.52383,-38.87563 23.86941,-87.91897 9.95057,-137.81304 l -103.208,103.44829 -25.08604,-4.84566 -65.433279,-81.42182 C 86.99795,143.20469 80.183197,192.35837 104.74583,228.5152 Z"
       id="path6" /><path
       style="fill:#ffb380;fill-opacity:1;stroke:#000000;stroke-width:1px;stroke-linecap:butt;stroke-linejoin:miter;stroke-opacity:1"
       d="m 134.85781,409.54522 -10.83643,26.71622 c -31.2856,-10.92237 -14.74294,38.82661 7.02783,33.68718 l 21.50638,-33.69489 z"
       id="path5" /><path
       style="fill:#ffb380;stroke:#000000;stroke-width:1px;stroke-linecap:butt;stroke-linejoin:miter;stroke-opacity:1"
       d="m 145.47766,334.25888 c -16.88426,28.90398 -27.99277,69.36949 1.9938,108.08151 -8.5094,34.71137 10.75657,23.66323 19.43413,19.86384 10.76701,4.74219 18.85668,14.02908 39.78345,1.52533 l 11.59571,0.44459 c 38.42294,19.87601 78.53496,9.36532 119.20529,-11.18925 38.7588,-51.04276 11.70343,-76.2763 -52.04957,-87.11875 -12.01679,-11.86471 -25.7953,-23.55527 -52.31488,-33.98639 l -41.76592,-17.83659 z"
       id="path4" /><path
       style="fill:#ffb380;fill-opacity:1;stroke:#000000;stroke-width:1px;stroke-linecap:butt;stroke-linejoin:miter;stroke-opacity:1"
       d="m 172.00108,181.22036 c -15.48439,6.40145 -30.5824,-2.28958 -41.08962,-18.16147 -10.71911,-16.19194 -16.8796,-39.6791 -36.204907,-44.02726 3.823702,47.54757 26.736347,48.86776 30.811347,85.93463 z"
       id="path3" /><path
       style="fill:#ffb380;stroke:#000000;stroke-width:1px;stroke-linecap:butt;stroke-linejoin:miter;stroke-opacity:1"
       d="m 278.47454,279.91885 c 6.09683,-54.8917 -3.71434,-101.11196 -98.10183,-101.22978 -60.93129,11.4276 -93.791858,46.15817 -86.638727,114.10618 l 89.838247,4.82412 z"
       id="path7" /><path
       style="fill:#ffffff;stroke:#000000;stroke-width:1px;stroke-linecap:butt;stroke-linejoin:miter;stroke-opacity:1"
       d="m 148.76273,339.99828 32.38574,-6.22628 51.89847,-1.31299 c 9.23189,8.67639 19.49319,17.47005 5.71593,23.52506 2.29171,14.90821 -3.11973,18.01773 -15.76163,10.05258 0.21301,12.58327 -0.17566,23.10595 -8.34239,6.99094 -3.69341,7.04403 -3.27001,21.25651 -19.89226,5.78802 -9.55158,19.27115 -17.00652,11.48096 -24.3778,2.6109 -6.09847,3.02073 -11.96241,8.98666 -20.31538,-16.30575 -10.29459,-3.6324 -14.95177,-9.97651 -1.31068,-25.12248 z"
       id="path21" /><path
       style="fill:#ffffff;stroke:#000000;stroke-width:1px;stroke-linecap:butt;stroke-linejoin:miter;stroke-opacity:1"
       d="m 93.733983,292.79525 c -6.463826,5.25564 -9.563256,10.62534 -12.457234,16.002 15.482387,6.5952 44.721851,30.27266 75.839031,33.71826 l 30.9192,0.0176 c 45.33676,-1.10207 64.184,-25.10892 101.589,-48.8513 -7.05524,-3.88656 -9.1557,-8.81356 -11.14944,-13.76296 -17.63199,-2.28141 -47.5586,3.34244 -76.86514,8.56759 l -46.73353,-3.99902 c -21.42195,0.51889 -44.05058,-1.56994 -61.141887,8.30783 z"
       id="path1" /><path
       style="fill:#ffb380;fill-opacity:1;stroke:#000000;stroke-width:1px;stroke-linecap:butt;stroke-linejoin:miter;stroke-opacity:1"
       d="m 174.76279,191.64926 c -11.85519,4.77742 -24.40764,-1.64734 -3.50105,-9.82686 -9.38148,0.0447 -29.64154,-20.06816 13.41185,-19.63756 12.80731,0.12809 14.74975,5.08928 19.95324,8.96083 22.769,-35.9975 45.28051,-61.18747 83.54913,-69.79785 -14.44791,37.06686 -33.81805,73.33835 -37.89305,110.40522"
       id="path2" /><path
       style="fill:#ffffff;stroke:#000000;stroke-width:1px;stroke-linecap:butt;stroke-linejoin:miter;stroke-opacity:1"
       d="m 220.97778,465.57343 c -9.04157,-26.11497 -15.53319,-70.09475 67.35599,-99.95261 -5.05193,21.20222 26.19418,16.2975 -14.52713,25.34544 l 12.16943,3.23175 c 8.10493,3.62085 -14.6104,8.26823 -15.3439,23.10573 -0.48056,9.72095 20.64834,2.58674 28.94688,12.05329 -24.96947,25.0666 -34.50067,6.06652 -46.51668,-5.96618 -10.83603,25.87305 17.72903,24.19888 15.93385,29.27064 -2.89742,8.18584 -25.81066,19.16508 -48.01844,12.91194 z"
       id="path22" /><path
       style="fill:none;stroke:#000000;stroke-width:1px;stroke-linecap:butt;stroke-linejoin:miter;stroke-opacity:1"
       d="m 163.49939,401.39236 c -3.4171,7.6656 4.5109,16.63838 12.18471,25.58186 24.38702,-1.59445 30.043,-13.99241 37.07483,-25.59682"
       id="path23" /></g><g
     id="layer5"
     style="display:inline"><ellipse
       style="display:inline;fill:#000000;fill-opacity:1;stroke-width:5;stroke-linecap:square"
       id="path8"
       cx="324.87488"
       cy="118.53655"
       rx="20.781996"
       ry="30.398737"
       transform="rotate(30.713779)" /><ellipse
       style="display:inline;fill:#000000;fill-opacity:1;stroke-width:3.17948;stroke-linecap:square"
       id="ellipse8"
       cx="166.37627"
       cy="419.97818"
       rx="12.815804"
       ry="19.932787"
       transform="matrix(-0.741261,0.67121691,0.5833471,0.81222297,0,0)" /><ellipse
       style="display:inline;fill:#ffd5d5;fill-opacity:1;stroke-width:2.60994;stroke-linecap:square"
       id="ellipse9"
       cx="309.46967"
       cy="99.352921"
       rx="10.330688"
       ry="16.662342"
       transform="matrix(0.08825496,0.99609792,0.99736877,-0.07249504,0,0)" /><ellipse
       style="display:inline;fill:#ffd5d5;fill-opacity:1;stroke-width:2.60994;stroke-linecap:square"
       id="ellipse10"
       cx="320.43701"
       cy="200.15422"
       rx="10.330688"
       ry="16.662342"
       transform="matrix(0.08825496,0.99609792,0.99736877,-0.07249504,0,0)" /><ellipse
       style="display:inline;fill:#000000;fill-opacity:1;stroke-width:2.01266;stroke-linecap:square"
       id="ellipse11"
       cx="322.17712"
       cy="149.19458"
       rx="9.1454935"
       ry="11.192793"
       transform="matrix(0.06683594,0.99776398,0.99541027,-0.09569947,0,0)" /><path
       id="ellipse12"
       style="display:inline;stroke-width:5;stroke-linecap:square"
       d="m 166.23216,464.60427 c -19.45123,6.43634 -33.34614,-0.21961 -18.88251,-19.54251 0.96828,-11.43666 11.2676,-11.58126 28.28266,-19.05519 18.32873,1.39186 16.40257,18.69169 24.11052,28.22001 18.0357,22.29512 -22.04629,18.93116 -33.51067,10.37769 z" /><ellipse
       style="display:inline;fill:#000000;fill-opacity:1;stroke-width:4.66292;stroke-linecap:square"
       id="ellipse13"
       cx="12.337386"
       cy="289.69424"
       rx="18.993559"
       ry="28.927547"
       transform="matrix(-0.83977686,0.5429317,0.47915191,0.87773199,0,0)" /><ellipse
       style="display:inline;fill:#ffffff;fill-opacity:1;stroke-width:2.16493;stroke-linecap:square"
       id="ellipse14"
       cx="314.72104"
       cy="119.93685"
       rx="8.9319983"
       ry="13.259951"
       transform="matrix(0.85265939,0.52246719,-0.4991107,0.86653823,0,0)" /><ellipse
       style="display:inline;fill:#ffffff;fill-opacity:1;stroke-width:2.44066;stroke-linecap:square"
       id="ellipse15"
       cx="336.30606"
       cy="285.69339"
       rx="9.854744"
       ry="15.274635"
       transform="matrix(0.99868364,0.05129322,-0.38966854,0.92095517,0,0)" /><ellipse
       style="display:inline;fill:#ffffff;fill-opacity:1;stroke-width:2.16493;stroke-linecap:square"
       id="ellipse16"
       cx="24.30374"
       cy="292.30634"
       rx="8.9319983"
       ry="13.259951"
       transform="matrix(0.92825367,-0.37194774,0.39702775,0.91780661,0,0)" /><ellipse
       style="display:inline;fill:#ffffff;fill-opacity:1;stroke-width:2.4311;stroke-linecap:square"
       id="ellipse17"
       cx="-24.588312"
       cy="288.37833"
       rx="9.2738962"
       ry="16.104488"
       transform="matrix(0.79420522,-0.60764962,0.49825901,0.86702823,0,0)" /><path
       style="display:inline;fill:none;stroke:#000000;stroke-width:1px;stroke-linecap:butt;stroke-linejoin:miter;stroke-opacity:1"
       d="m 169.33286,320.49879 c 4.21618,5.36718 -5.04912,13.25289 -8.37761,5.69894"
       id="path17" /><path
       style="display:inline;fill:none;stroke:#000000;stroke-width:1px;stroke-linecap:butt;stroke-linejoin:miter;stroke-opacity:1"
       d="m 177.24516,321.75104 c 1.69813,5.95316 -4.03833,8.64922 -7.62402,5.29915"
       id="path18" /><path
       style="fill:#1a1a1a;stroke:none;stroke-width:1px;stroke-linecap:butt;stroke-linejoin:miter;stroke-opacity:1"
       d="m 231.88961,133.2898 c 14.37135,7.79397 23.46885,16.89015 31.48258,26.25392 8.47526,-18.81257 10.72814,-27.41805 26.08642,-59.03785 -13.7945,-0.0746 -32.36706,10.52301 -57.569,32.78393 z"
       id="path19" /><path
       style="fill:#1a1a1a;stroke:none;stroke-width:1px;stroke-linecap:butt;stroke-linejoin:miter;stroke-opacity:1"
       d="m 131.96705,161.77936 c -8.69818,3.50472 -12.54527,8.4995 -17.34398,13.20197 -8.47526,-18.81257 -17.164344,-26.76158 -19.931525,-54.99934 13.794505,-0.0746 20.128015,14.20682 37.275505,41.79737 z"
       id="path20" /></g><g
     id="layer6"><path
       id="path26"
       style="fill:#de8787;stroke:none;stroke-width:1px;stroke-linecap:butt;stroke-linejoin:miter;stroke-opacity:1"
       d="m 192.78906,16.128906 c -8.89421,-0.285295 -15.63452,10.209252 -16.62109,16.267578 -1.68614,10.354249 -3.31484,23.152034 14.7207,44.013672 l -0.13867,0.3125 c 0.14538,-0.0057 0.2812,-0.01541 0.42578,-0.02148 0.0385,0.0383 0.0726,0.07492 0.11133,0.113281 l 0.0508,-0.123047 c 39.66134,-1.713195 49.1668,-18.777659 51.33984,-30.240234 1.82926,-9.649147 -5.5836,-29.548139 -31.66796,-15.394531 C 209.48338,21.861372 202.8194,16.17036 192.78908,16.12891 Z" /><path
       id="path27"
       style="fill:#de8787;stroke:none;stroke-width:0.725421px;stroke-linecap:butt;stroke-linejoin:miter;stroke-opacity:1"
       d="m 48.417532,40.784638 c -4.066139,5.09641 -1.560461,14.284791 1.165266,17.878474 4.658525,6.141942 10.616987,13.465157 29.442668,13.216975 l 0.101936,0.237067 c 0.06105,-0.08846 0.115812,-0.173276 0.176324,-0.261446 0.03693,-0.0036 0.07106,-0.0055 0.108125,-0.0092 l -0.04181,-0.09111 C 95.944601,47.54474 91.229681,33.460774 86.207462,26.48093 81.979778,20.605325 68.334847,15.075936 64.229435,37.476621 58.760556,33.80305 52.856866,34.897844 48.417543,40.784628 Z" /><path
       id="path28"
       style="opacity:1;fill:#aaffaa;fill-opacity:1;stroke:none;stroke-width:5;stroke-linecap:square"
       d="m 60.971507,252.90798 -33.96289,0.72461 7.75586,41.24804 a 8.061883,7.1361904 0 0 0 -3.03125,-0.52343 8.061883,7.1361904 0 0 0 -8.0625,7.13476 8.061883,7.1361904 0 0 0 8.0625,7.13672 8.061883,7.1361904 0 0 0 8.0625,-7.13672 8.061883,7.1361904 0 0 0 -3.75586,-6.03125 l -3.67188,-33.24609 26.74219,-2.34766 10.38672,24.46485 a 8.9513903,7.0288639 0 0 0 -1.24609,-0.0703 8.9513903,7.0288639 0 0 0 -8.95118,7.0293 8.9513903,7.0288639 0 0 0 8.95118,7.0293 8.9513903,7.0288639 0 0 0 8.951167,-7.0293 8.9513903,7.0288639 0 0 0 -6.105469,-6.66406 z" /><path
       id="path31"
       style="opacity:1;fill:#aaffaa;fill-opacity:1;stroke:none;stroke-width:5;stroke-linecap:square"
       d="m 50.973813,114.26307 -32.61124,-9.51367 -4.996291,41.67243 a 8.061883,7.1361904 17.485785 0 0 -2.733906,-1.41004 8.061883,7.1361904 17.485785 0 0 -9.83371903,4.38254 8.061883,7.1361904 17.485785 0 0 5.54557973,9.22947 8.061883,7.1361904 17.485785 0 0 9.8343083,-4.38441 8.061883,7.1361904 17.485785 0 0 -1.770103,-6.88107 l 6.487218,-32.81313 26.211873,5.79603 2.555832,26.45525 a 8.9513903,7.0288639 17.485785 0 0 -1.167387,-0.44146 8.9513903,7.0288639 17.485785 0 0 -10.649647,4.01493 8.9513903,7.0288639 17.485785 0 0 6.425471,9.39404 8.9513903,7.0288639 17.485785 0 0 10.649635,-4.01493 8.9513903,7.0288639 17.485785 0 0 -3.821,-8.19063 z" /><path
       id="path32"
       style="opacity:1;fill:#aaffaa;fill-opacity:1;stroke:none;stroke-width:5;stroke-linecap:square"
       d="m 45.625767,190.63823 -8.322161,-1.22488 -9.036298,28.77163 c -0.245418,-0.33509 -0.509986,-0.65746 -0.791769,-0.96477 -3.346689,-3.63887 -8.376038,-4.45829 -11.23321,-1.8302 -2.857582,2.62762 -2.461184,7.70785 0.885374,11.34684 3.346691,3.63885 8.376032,4.45826 11.2332,1.83019 2.223391,-2.04487 2.534243,-5.67024 0.772129,-9.00501 z" /></g><g
     id="layer3"><path
       style="opacity:1;fill:#ffffff;fill-opacity:1;stroke:none;stroke-width:5;stroke-linecap:square"
       id="path33"
       d="m -78.49685,108.28762 c -2.032659,0.93997 -9.020887,-19.449533 -11.25853,-19.35898 -2.237643,0.09055 -7.555467,20.97806 -9.657433,20.20541 -2.101967,-0.77265 7.374168,-20.131627 5.727884,-21.649849 -1.646283,-1.518222 -20.176251,9.491207 -21.116221,7.458547 -0.93997,-2.032659 19.449536,-9.020887 19.358983,-11.25853 -0.09055,-2.237643 -20.978063,-7.555467 -20.205413,-9.657433 0.77265,-2.101966 20.13163,7.374168 21.649852,5.727884 1.518222,-1.646283 -9.491202,-20.176251 -7.458552,-21.11622 2.032664,-0.939969 9.020892,19.449535 11.258535,19.358982 2.237643,-0.09055 7.555467,-20.97806 9.657433,-20.205412 2.101966,0.772649 -7.374168,20.131629 -5.727884,21.649851 1.646283,1.518222 20.176251,-9.491207 21.11622,-7.458547 0.939969,2.032659 -19.449535,9.020887 -19.358982,11.25853 0.09055,2.237643 20.978061,7.555468 20.205412,9.657433 -0.772649,2.101966 -20.131629,-7.374168 -21.649851,-5.727884 -1.518222,1.646283 9.491207,20.176248 7.458547,21.116218 z"
       transform="translate(435.6007,129.31037)" /><path
       style="opacity:1;fill:#ffffff;fill-opacity:1;stroke:none;stroke-width:5;stroke-linecap:square"
       id="path34"
       d="m -78.49685,108.28762 c -2.032659,0.93997 -9.020887,-19.449533 -11.25853,-19.35898 -2.237643,0.09055 -7.555467,20.97806 -9.657433,20.20541 -2.101967,-0.77265 7.374168,-20.131627 5.727884,-21.649849 -1.646283,-1.518222 -20.176251,9.491207 -21.116221,7.458547 -0.93997,-2.032659 19.449536,-9.020887 19.358983,-11.25853 -0.09055,-2.237643 -20.978063,-7.555467 -20.205413,-9.657433 0.77265,-2.101966 20.13163,7.374168 21.649852,5.727884 1.518222,-1.646283 -9.491202,-20.176251 -7.458552,-21.11622 2.032664,-0.939969 9.020892,19.449535 11.258535,19.358982 2.237643,-0.09055 7.555467,-20.97806 9.657433,-20.205412 2.101966,0.772649 -7.374168,20.131629 -5.727884,21.649851 1.646283,1.518222 20.176251,-9.491207 21.11622,-7.458547 0.939969,2.032659 -19.449535,9.020887 -19.358982,11.25853 0.09055,2.237643 20.978061,7.555468 20.205412,9.657433 -0.772649,2.101966 -20.131629,-7.374168 -21.649851,-5.727884 -1.518222,1.646283 9.491207,20.176248 7.458547,21.116218 z"
       transform="translate(434.60709,-11.898709)" /><path
       style="opacity:1;fill:#ffffff;fill-opacity:1;stroke:none;stroke-width:5;stroke-linecap:square"
       id="path35"
       d="m -78.49685,108.28762 c -2.032659,0.93997 -9.020887,-19.449533 -11.25853,-19.35898 -2.237643,0.09055 -7.555467,20.97806 -9.657433,20.20541 -2.101967,-0.77265 7.374168,-20.131627 5.727884,-21.649849 -1.646283,-1.518222 -20.176251,9.491207 -21.116221,7.458547 -0.93997,-2.032659 19.449536,-9.020887 19.358983,-11.25853 -0.09055,-2.237643 -20.978063,-7.555467 -20.205413,-9.657433 0.77265,-2.101966 20.13163,7.374168 21.649852,5.727884 1.518222,-1.646283 -9.491202,-20.176251 -7.458552,-21.11622 2.032664,-0.939969 9.020892,19.449535 11.258535,19.358982 2.237643,-0.09055 7.555467,-20.97806 9.657433,-20.205412 2.101966,0.772649 -7.374168,20.131629 -5.727884,21.649851 1.646283,1.518222 20.176251,-9.491207 21.11622,-7.458547 0.939969,2.032659 -19.449535,9.020887 -19.358982,11.25853 0.09055,2.237643 20.978061,7.555468 20.205412,9.657433 -0.772649,2.101966 -20.131629,-7.374168 -21.649851,-5.727884 -1.518222,1.646283 9.491207,20.176248 7.458547,21.116218 z"
       transform="translate(223.74402,-18.691468)" /><path
       style="opacity:1;fill:#ffffff;fill-opacity:1;stroke:none;stroke-width:5;stroke-linecap:square"
       id="path36"
       d="m -78.49685,108.28762 c -2.032659,0.93997 -9.020887,-19.449533 -11.25853,-19.35898 -2.237643,0.09055 -7.555467,20.97806 -9.657433,20.20541 -2.101967,-0.77265 7.374168,-20.131627 5.727884,-21.649849 -1.646283,-1.518222 -20.176251,9.491207 -21.116221,7.458547 -0.93997,-2.032659 19.449536,-9.020887 19.358983,-11.25853 -0.09055,-2.237643 -20.978063,-7.555467 -20.205413,-9.657433 0.77265,-2.101966 20.13163,7.374168 21.649852,5.727884 1.518222,-1.646283 -9.491202,-20.176251 -7.458552,-21.11622 2.032664,-0.939969 9.020892,19.449535 11.258535,19.358982 2.237643,-0.09055 7.555467,-20.97806 9.657433,-20.205412 2.101966,0.772649 -7.374168,20.131629 -5.727884,21.649851 1.646283,1.518222 20.176251,-9.491207 21.11622,-7.458547 0.939969,2.032659 -19.449535,9.020887 -19.358982,11.25853 0.09055,2.237643 20.978061,7.555468 20.205412,9.657433 -0.772649,2.101966 -20.131629,-7.374168 -21.649851,-5.727884 -1.518222,1.646283 9.491207,20.176248 7.458547,21.116218 z"
       transform="translate(146.93589,293.75055)" /><path
       style="opacity:1;fill:#ffffff;fill-opacity:1;stroke:none;stroke-width:5;stroke-linecap:square"
       id="path37"
       d="m -78.49685,108.28762 c -2.032659,0.93997 -9.020887,-19.449533 -11.25853,-19.35898 -2.237643,0.09055 -7.555467,20.97806 -9.657433,20.20541 -2.101967,-0.77265 7.374168,-20.131627 5.727884,-21.649849 -1.646283,-1.518222 -20.176251,9.491207 -21.116221,7.458547 -0.93997,-2.032659 19.449536,-9.020887 19.358983,-11.25853 -0.09055,-2.237643 -20.978063,-7.555467 -20.205413,-9.657433 0.77265,-2.101966 20.13163,7.374168 21.649852,5.727884 1.518222,-1.646283 -9.491202,-20.176251 -7.458552,-21.11622 2.032664,-0.939969 9.020892,19.449535 11.258535,19.358982 2.237643,-0.09055 7.555467,-20.97806 9.657433,-20.205412 2.101966,0.772649 -7.374168,20.131629 -5.727884,21.649851 1.646283,1.518222 20.176251,-9.491207 21.11622,-7.458547 0.939969,2.032659 -19.449535,9.020887 -19.358982,11.25853 0.09055,2.237643 20.978061,7.555468 20.205412,9.657433 -0.772649,2.101966 -20.131629,-7.374168 -21.649851,-5.727884 -1.518222,1.646283 9.491207,20.176248 7.458547,21.116218 z"
       transform="translate(445.73006,222.86283)" /></g><g
     id="layer4"
     style="display:none;opacity:0.3"><image
       width="402.75284"
       height="537.00385"
       preserveAspectRatio="none"
       xlink:href="../images/gorgon/ale_fox.jpg"
       id="image1"
       x="1.0361344"
       y="2.1047716" /></g></svg>
