<?xml version="1.0" encoding="UTF-8" standalone="no"?>
<!-- Created with Inkscape (http://www.inkscape.org/) -->

<svg
   width="200"
   height="200"
   viewBox="-100 -100 200 200"
   version="1.1"
   id="svg1"
   inkscape:version="1.3.2 (091e20e, 2023-11-25)"
   sodipodi:docname="chesire.svg"
   xmlns:inkscape="http://www.inkscape.org/namespaces/inkscape"
   xmlns:sodipodi="http://sodipodi.sourceforge.net/DTD/sodipodi-0.dtd"
   xmlns="http://www.w3.org/2000/svg"
   xmlns:svg="http://www.w3.org/2000/svg">
  <sodipodi:namedview
     id="namedview1"
     pagecolor="#ffffff"
     bordercolor="#666666"
     borderopacity="1.0"
     inkscape:showpageshadow="2"
     inkscape:pageopacity="0.0"
     inkscape:pagecheckerboard="0"
     inkscape:deskcolor="#d1d1d1"
     inkscape:document-units="px"
     inkscape:zoom="2.8284271"
     inkscape:cx="-26.870058"
     inkscape:cy="23.334524"
     inkscape:window-width="1848"
     inkscape:window-height="1016"
     inkscape:window-x="72"
     inkscape:window-y="27"
     inkscape:window-maximized="1"
     inkscape:current-layer="g11" />
  <defs
     id="defs1" />
  <g
     inkscape:label="background"
     inkscape:groupmode="layer"
     id="layer1"
     sodipodi:insensitive="true">
    <rect
       style="fill:#e6e6e6;fill-rule:evenodd;stroke-width:0.5;stroke-linecap:square"
       id="rect1"
       width="200"
       height="200"
       x="-100"
       y="-100" />
  </g>
  <g
     inkscape:groupmode="layer"
     id="layer3"
     inkscape:label="tail">
    <path
       style="fill:#b3b3b3;fill-opacity:1;stroke:#000000;stroke-width:0.5;stroke-linecap:butt;stroke-linejoin:miter;stroke-dasharray:none;stroke-opacity:1"
       d="M -0.59536972,0.40494426 C 15.654292,5.1191418 39.618918,4.9299292 61.930327,5.0402383 90.941167,5.1836698 116.90161,4.2462813 116.85255,-1.0335998 116.42768,-7.6491285 90.729595,-7.9401642 61.682132,-6.7139026 39.19731,-5.7646879 14.466492,-4.7830038 -0.59536972,0.40494426 Z"
       id="path13"
       sodipodi:nodetypes="cscsc"
       inkscape:label="tail_target_path" />
    <path
       style="fill:#b3b3b3;fill-opacity:1;stroke:#000000;stroke-width:0.456785;stroke-linecap:butt;stroke-linejoin:miter;stroke-dasharray:none;stroke-opacity:1"
       d="m 26.469738,14.403481 c 4.714726,-15.8677754 -3.611863,-35.565525 6.939845,-61.753883 9.345779,-23.195354 -21.254696,-45.223142 -27.9940013,-39.803029 -6.31454318,11.61204 22.0238513,17.261554 13.1282583,40.740954 -8.6214483,22.75581 3.082821,46.01068503 7.925898,60.815958 z"
       id="path14"
       sodipodi:nodetypes="cscsc" />
  </g>
  <g
     inkscape:groupmode="layer"
     id="layer2"
     inkscape:label="cat">
    <path
       id="path1"
       style="fill:#b3b3b3;fill-rule:evenodd;stroke:#000000;stroke-width:0.5;stroke-linecap:square;stroke-dasharray:none"
       inkscape:label="body"
       d="m 16.421875,-17.023438 c -18.5745648,0 -31.828967,28.200284 -46.333984,29.544922 -17.016219,7.124399 -5.36317,17.821092 -10.070789,28.681571 10.458557,8.348146 40.11581184,5.310242 34.6957886,1.683664 -8.7088206,-5.827137 24.0686184,-1.556088 33.9257814,-5.734375 3.563606,0.160176 2.958384,1.15996 -7.416016,5.074218 -4.678349,1.551473 -4.849615,2.911876 -5.865234,4.488282 -0.528952,1.363837 1.823028,4.81938 7.158203,4.3125 2.944943,0.927709 4.965084,1.466368 7.683884,1.33419 3.754161,-0.234332 2.560041,-2.826883 3.517288,-4.119346 l 8.427734,-2.619141 c 5.785013,-1.454116 7.274795,-4.323688 2.699219,-9.195313 4.633693,-4.116966 5.946,-14.753009 4.851562,-19.777343 C 48.142469,10.728405 44.989472,6.4004118 41.027344,3.3984375 36.746012,-7.0077121 27.431833,-17.023438 16.421875,-17.023438 Z"
       sodipodi:nodetypes="sccsccccccccccs" />
    <path
       id="ellipse2"
       style="fill:#b3b3b3;fill-rule:evenodd;stroke:#000000;stroke-width:0.256865;stroke-linecap:square"
       inkscape:label="hind"
       d="m 201.33496,-3.4854736 c 7.50496,0.2079164 11.508,10.4450995 11.2145,20.7054346 -0.42842,8.09892 -7.88164,6.130041 -8.39156,8.74696 -1.49606,6.04818 3.18601,4.089663 6.33466,8.086353 0.68063,4.326314 -6.98975,6.04015 -6.30149,13.013932 0.3756,3.805714 -10.63319,5.127481 -16.85415,0.67689 -5.05318,-6.193106 8.34335,-10.13192 6.22965,-12.202097 -3.5123,-3.43999 -13.55936,0.974945 -10.97347,-17.130589 1.45129,-10.161415 11.2369,-22.1047994 18.74186,-21.8968836 z"
       sodipodi:nodetypes="ccccsccsc" />
    <path
       id="ellipse3"
       style="fill:#b3b3b3;fill-rule:evenodd;stroke:#000000;stroke-width:0.5000001;stroke-linecap:square;stroke-dasharray:none"
       inkscape:label="front"
       transform="matrix(0.02859355,-0.99959112,0.99961647,0.02769325,0,0)"
       d="M -15.623861,-0.62976795 C -15.748422,17.09433 -38.714524,12.272284 -48.649266,18.399714 c -3.718473,4.457335 -10.084269,-5.295174 -12.536053,-8.8041046 -2.236524,-3.200856 -5.66534,-0.9296489 -6.131733,-11.1118488 -1.162075,-3.5688683 -1.027023,-7.0238638 0.633411,-7.8090321 0.737409,-4.2206705 5.906988,-4.0405425 8.808338,1.8759521 3.262515,5.4104898 3.441228,9.0869615 6.271986,6.429566 1.326307,-1.2450808 0.217956,1.07503842 3.007417,-6.3488195 7.534344,0 21.528742,-13.2350171 25.157782,-5.9272841 2.862852,5.7648716 6.24251,4.0402901 7.814257,12.66608905 z"
       sodipodi:nodetypes="ccccccscsc" />
    <g
       id="g11"
       style="display:inline"
       sodipodi:insensitive="true"
       inkscape:label="head">
      <path
         style="fill:#b3b3b3;fill-opacity:1;stroke:#000000;stroke-width:0.5;stroke-linecap:butt;stroke-linejoin:miter;stroke-dasharray:none;stroke-opacity:1"
         d="m -50.731522,25.864401 c -2.008791,-6.663035 -7.372196,-4.980504 -12.628521,-9.400715 -0.202411,7.981248 0.906515,15.128706 4.237539,22.258482 z"
         id="path4"
         sodipodi:nodetypes="cccc" />
      <path
         id="ellipse1"
         style="fill:#b3b3b3;fill-rule:evenodd;stroke:#000000;stroke-width:0.5;stroke-linecap:square;stroke-dasharray:none"
         inkscape:label="head"
         d="m 0.77539062,18.744141 c -4.21052622,2.791587 -12.15791162,0.471308 -11.24218762,10.27539 -0.476835,-1.729258 -7.551049,-8.178735 -23.58594,-8.183589 -16.614164,-4.29e-4 -30.082726,9.694802 -30.082032,21.654296 0.925341,11.876109 17.780501,21.267459 30.082032,21.652344 C -19.689959,63.277884 -5.4050976,54.319565 -4.0195342,43.00977 -1.9906574,41.052197 1.2043631,40.068686 2.0554269,32.82462 2.6811673,27.498456 0.06539649,23.770575 0.77539062,18.744141 Z"
         sodipodi:nodetypes="ccccccsc" />
      <path
         style="fill:#f9f9f9;stroke:#000000;stroke-width:0.5;stroke-linecap:butt;stroke-linejoin:miter;stroke-dasharray:none;stroke-opacity:1"
         d="m -57.265957,46.908795 c 7.464678,7.979869 30.450739,8.613847 43.978768,0.566632 -1.892924,4.309541 0.282336,10.84138 -13.800454,14.224682 -6.508368,1.356358 -11.031848,1.088481 -18.355402,-0.788744 -12.970077,-4.342563 -8.982133,-9.850558 -11.822912,-14.00257 z"
         id="path5"
         sodipodi:nodetypes="ccccc" />
      <path
         style="fill:#e3e2db;stroke:#000000;stroke-width:0.5;stroke-linecap:butt;stroke-linejoin:miter;stroke-dasharray:none;stroke-opacity:1"
         d="m -60.067871,32.256288 c 4.204707,-1.236403 9.016208,1.372387 12.396694,11.676132 -5.849252,0.123085 -13.431577,-1.647446 -12.396694,-11.676132 z"
         id="path6"
         sodipodi:nodetypes="ccc" />
      <path
         style="fill:#e3e2db;stroke:#000000;stroke-width:0.5;stroke-linecap:butt;stroke-linejoin:miter;stroke-dasharray:none;stroke-opacity:1"
         d="m -27.482577,34.288782 c -4.157056,-3.722286 -11.080095,0.741135 -14.487751,12.462311 5.849252,0.123085 15.522634,-2.433625 14.487751,-12.462311 z"
         id="path7"
         sodipodi:nodetypes="ccc"
         transform="translate(15.534126,-1.6821747)" />
      <path
         style="fill:#e9afaf;stroke:#000000;stroke-width:0.5;stroke-linecap:butt;stroke-linejoin:miter;stroke-dasharray:none;stroke-opacity:1"
         d="m -36.883901,47.83061 c -2.031262,-0.921499 -4.263967,-1.249147 -6.3349,-0.30889 2.548149,1.787779 2.148716,3.098141 6.3349,0.30889 z"
         id="path8"
         sodipodi:nodetypes="ccc" />
      <path
         style="fill:#333333;stroke:none;stroke-width:1px;stroke-linecap:butt;stroke-linejoin:miter;stroke-opacity:1"
         d="m -19.224593,33.340174 c -1.160384,3.134405 -0.576984,6.322427 1.318533,9.372634 2.288222,-3.122075 2.367149,-6.904765 -1.318533,-9.372634 z"
         id="path9"
         sodipodi:nodetypes="ccc" />
      <path
         style="fill:#333333;stroke:none;stroke-width:1px;stroke-linecap:butt;stroke-linejoin:miter;stroke-opacity:1"
         d="m -55.610657,33.644672 c 1.005046,2.381711 1.489962,5.97182 0.903702,8.445645 -2.52466,-2.454029 -3.751396,-4.848694 -0.903702,-8.445645 z"
         id="path10"
         sodipodi:nodetypes="ccc" />
      <path
         style="fill:none;stroke:#000000;stroke-width:0.5;stroke-linecap:butt;stroke-linejoin:miter;stroke-dasharray:none;stroke-opacity:1"
         d="m -55.804824,51.914634 c 0.171036,1.569595 0.956292,3.192388 2.649612,4.517241 -0.01733,-0.998148 -0.125365,-2.010227 0.971597,-2.837228 0.09822,1.505345 0.636351,2.19218 1.180598,2.867636 l 0.786267,-2.334998 c 4.288016,2.089348 15.550523,3.086159 25.351343,1.567515 l -0.59906,2.236534 c 2.480385,-0.587228 3.150939,-1.695592 3.905559,-2.77975 1.475184,0.407688 0.940288,1.837103 0.697667,3.117955 2.071347,-0.78562 4.897791,-3.300861 5.734936,-4.681923"
         id="path11"
         sodipodi:nodetypes="cccccccccc" />
    </g>
    <path
       style="fill:#c8b7b7;stroke:#000000;stroke-width:0.5;stroke-linecap:butt;stroke-linejoin:miter;stroke-dasharray:none;stroke-opacity:1"
       d="M -4.0927048,43.574188 C -4.9371975,39.863243 -5.7994905,36.178903 -7.7878724,34.177627 -7.2576207,28.923791 -4.590308,24.362963 0.58753204,20.616249 1.6190867,31.845463 6.211037,34.274081 -4.0927048,43.574188 Z"
       id="path12"
       sodipodi:nodetypes="cccc" />
  </g>
</svg>
