<?xml version="1.0" encoding="UTF-8" standalone="no"?>
<!-- Created with Inkscape (http://www.inkscape.org/) -->

<svg
   width="600"
   height="500"
   viewBox="0 0 158.75 132.29167"
   version="1.1"
   id="svg1"
   inkscape:version="1.3.2 (091e20e, 2023-11-25)"
   sodipodi:docname="crowley.svg"
   inkscape:export-filename="crowley.png"
   inkscape:export-xdpi="96"
   inkscape:export-ydpi="96"
   xmlns:inkscape="http://www.inkscape.org/namespaces/inkscape"
   xmlns:sodipodi="http://sodipodi.sourceforge.net/DTD/sodipodi-0.dtd"
   xmlns:xlink="http://www.w3.org/1999/xlink"
   xmlns="http://www.w3.org/2000/svg"
   xmlns:svg="http://www.w3.org/2000/svg">
  <sodipodi:namedview
     id="namedview1"
     pagecolor="#ffffff"
     bordercolor="#666666"
     borderopacity="1.0"
     inkscape:showpageshadow="2"
     inkscape:pageopacity="0.0"
     inkscape:pagecheckerboard="0"
     inkscape:deskcolor="#d1d1d1"
     inkscape:document-units="px"
     inkscape:zoom="1.1539983"
     inkscape:cx="333.1894"
     inkscape:cy="250.00037"
     inkscape:window-width="1652"
     inkscape:window-height="927"
     inkscape:window-x="181"
     inkscape:window-y="53"
     inkscape:window-maximized="0"
     inkscape:current-layer="layer2" />
  <defs
     id="defs1">
    <linearGradient
       id="linearGradient42"
       inkscape:collect="always">
      <stop
         style="stop-color:#363636;stop-opacity:1;"
         offset="0"
         id="stop42" />
      <stop
         style="stop-color:#000000;stop-opacity:1"
         offset="1"
         id="stop43" />
    </linearGradient>
    <linearGradient
       id="linearGradient38"
       inkscape:collect="always">
      <stop
         style="stop-color:#3b3b3b;stop-opacity:1;"
         offset="0"
         id="stop39" />
      <stop
         style="stop-color:#000000;stop-opacity:1"
         offset="1"
         id="stop40" />
    </linearGradient>
    <linearGradient
       id="linearGradient36"
       inkscape:collect="always">
      <stop
         style="stop-color:#333333;stop-opacity:1"
         offset="0"
         id="stop37" />
      <stop
         style="stop-color:#1a1a1a;stop-opacity:1"
         offset="1"
         id="stop38" />
    </linearGradient>
    <linearGradient
       id="linearGradient35"
       inkscape:collect="always">
      <stop
         style="stop-color:#f9f9f9;stop-opacity:1"
         offset="0"
         id="stop35" />
      <stop
         style="stop-color:#000000;stop-opacity:1"
         offset="1"
         id="stop36" />
    </linearGradient>
    <filter
       inkscape:collect="always"
       style="color-interpolation-filters:sRGB"
       id="filter34"
       x="-0.2562099"
       y="-0.35119767"
       width="1.5124198"
       height="1.7023953">
      <feGaussianBlur
         inkscape:collect="always"
         stdDeviation="4.6631018"
         id="feGaussianBlur34" />
    </filter>
    <filter
       inkscape:collect="always"
       style="color-interpolation-filters:sRGB"
       id="filter35"
       x="-0.26694366"
       y="-0.338101"
       width="1.5338873"
       height="1.676202">
      <feGaussianBlur
         inkscape:collect="always"
         stdDeviation="4.6631018"
         id="feGaussianBlur35" />
    </filter>
    <radialGradient
       inkscape:collect="always"
       xlink:href="#linearGradient35"
       id="radialGradient36"
       cx="33.14267"
       cy="78.600449"
       fx="33.14267"
       fy="78.600449"
       r="83.376579"
       gradientTransform="matrix(0.00124327,-1.4553033,1.0739571,9.0255044e-4,-9.8215334,161.6984)"
       gradientUnits="userSpaceOnUse" />
    <radialGradient
       inkscape:collect="always"
       xlink:href="#linearGradient36"
       id="radialGradient38"
       cx="73.83036"
       cy="103.45814"
       fx="73.83036"
       fy="103.45814"
       r="82.081958"
       gradientTransform="matrix(-1.2501192,-9.829399e-4,1.9363139e-4,-0.25851262,170.44247,155.2306)"
       gradientUnits="userSpaceOnUse" />
    <radialGradient
       inkscape:collect="always"
       xlink:href="#linearGradient38"
       id="radialGradient40"
       cx="74.494667"
       cy="86.863884"
       fx="74.494667"
       fy="86.863884"
       r="51.803286"
       gradientTransform="matrix(0.00582517,-0.95594805,1.1821244,0.00720343,-27.495388,162.04936)"
       gradientUnits="userSpaceOnUse" />
    <radialGradient
       inkscape:collect="always"
       xlink:href="#linearGradient42"
       id="radialGradient43"
       cx="74.553955"
       cy="45.80418"
       fx="74.553955"
       fy="45.80418"
       r="38.090911"
       gradientTransform="matrix(1.1286112,-0.02966409,0.01654903,0.62974214,-9.1917076,-1.0483381)"
       gradientUnits="userSpaceOnUse" />
    <filter
       inkscape:collect="always"
       style="color-interpolation-filters:sRGB"
       id="filter43"
       x="-0.23221968"
       y="-0.37770348"
       width="1.4644394"
       height="1.755407">
      <feGaussianBlur
         inkscape:collect="always"
         stdDeviation="2.8690893"
         id="feGaussianBlur43" />
    </filter>
    <filter
       inkscape:collect="always"
       style="color-interpolation-filters:sRGB"
       id="filter48"
       x="-0.15998551"
       y="-0.085720914"
       width="1.319971"
       height="1.1714418">
      <feGaussianBlur
         inkscape:collect="always"
         stdDeviation="1.0506008"
         id="feGaussianBlur48" />
    </filter>
    <filter
       inkscape:collect="always"
       style="color-interpolation-filters:sRGB"
       id="filter51"
       x="-0.17327091"
       y="-0.12764654"
       width="1.3465418"
       height="1.2552931">
      <feGaussianBlur
         inkscape:collect="always"
         stdDeviation="1.3994584"
         id="feGaussianBlur51" />
    </filter>
    <filter
       inkscape:collect="always"
       style="color-interpolation-filters:sRGB"
       id="filter66"
       x="-0.077862549"
       y="-0.17619987"
       width="1.1557251"
       height="1.3523997">
      <feGaussianBlur
         inkscape:collect="always"
         stdDeviation="0.44788646"
         id="feGaussianBlur66" />
    </filter>
    <filter
       inkscape:collect="always"
       style="color-interpolation-filters:sRGB"
       id="filter68"
       x="-0.08218602"
       y="-0.088374981"
       width="1.164372"
       height="1.17675">
      <feGaussianBlur
         inkscape:collect="always"
         stdDeviation="0.24654827"
         id="feGaussianBlur68" />
    </filter>
  </defs>
  <g
     inkscape:label="background"
     inkscape:groupmode="layer"
     id="layer1"
     sodipodi:insensitive="true">
    <rect
       style="fill:url(#radialGradient36);fill-opacity:1;stroke:none;stroke-width:0.264583"
       id="rect3"
       width="166.75316"
       height="138.46913"
       x="-4.7291188"
       y="-3.7458684" />
  </g>
  <g
     inkscape:groupmode="layer"
     id="layer2"
     inkscape:label="crowley">
    <path
       style="fill:#000000;stroke:none;stroke-width:0.264583px;stroke-linecap:butt;stroke-linejoin:miter;stroke-opacity:1"
       d="m 38.929396,36.845556 c -1.658268,2.530481 21.413999,5.78293 36.74656,5.924203 C 91.110397,42.911971 116.94899,40.532947 114.88231,38.08609 86.814414,32.342544 85.761956,24.259643 75.780276,9.7149861 62.600748,23.944937 58.585073,32.428799 38.929396,36.845556 Z"
       id="path6"
       sodipodi:nodetypes="csccc"
       inkscape:label="hat" />
    <path
       style="fill:#000000;stroke:none;stroke-width:0.264583px;stroke-linecap:butt;stroke-linejoin:miter;stroke-opacity:1"
       d="m 26.547437,119.06533 103.606573,0.62787 c -2.73933,-12.16376 -2.50673,-25.225457 -8.39382,-36.502018 -4.17192,-7.991189 -0.79108,-22.623501 -8.80704,-29.856683 L 75.158174,44.28411 39.440721,53.737507 c -6.764133,3.287081 -4.125232,17.27533 -9.762624,30.743059 -4.592078,10.970472 -1.201883,24.812014 -3.13066,34.584764 z"
       id="path38"
       sodipodi:nodetypes="ccscccsc"
       inkscape:label="body" />
    <path
       style="fill:url(#radialGradient40);fill-opacity:1;stroke:none;stroke-width:0.264583px;stroke-linecap:butt;stroke-linejoin:miter;stroke-opacity:1"
       d="m 26.547437,119.06533 103.606573,0.62787 c -2.73933,-12.16376 -2.50673,-25.225457 -8.39382,-36.502018 -4.17192,-7.991189 -0.79108,-22.623501 -8.80704,-29.856683 L 75.158174,44.28411 39.440721,53.737507 c -6.764133,3.287081 -4.125232,17.27533 -9.762624,30.743059 -4.592078,10.970472 -1.201883,24.812014 -3.13066,34.584764 z"
       id="path2"
       sodipodi:nodetypes="ccscccsc"
       inkscape:label="body" />
    <path
       style="fill:#000000;fill-opacity:1;stroke:none;stroke-width:0.264583px;stroke-linecap:butt;stroke-linejoin:miter;stroke-opacity:1"
       d="m 61.184585,52.485204 -0.133866,-8.439761 -2.640211,-0.709224 -0.384728,5.824173 1.603481,4.830823 1.174634,-0.100272 z"
       id="path32"
       inkscape:label="ear" />
    <path
       style="fill:#cccccc;fill-opacity:1;stroke:none;stroke-width:0.264583px;stroke-linecap:butt;stroke-linejoin:miter;stroke-opacity:1"
       d="m 61.184585,52.485204 -0.133866,-8.439761 -2.392758,-0.357394 -0.348281,5.553081 1.319581,4.750085 1.174634,-0.100272 z"
       id="path53"
       inkscape:label="ear"
       sodipodi:nodetypes="ccccccc" />
    <path
       style="fill:#000000;fill-opacity:1;stroke:none;stroke-width:0.264583px;stroke-linecap:butt;stroke-linejoin:miter;stroke-opacity:1"
       d="m 89.827308,52.838394 0.133866,-8.439761 2.640211,-0.709224 0.384728,5.824173 -1.603481,4.830823 -1.174634,-0.100272 z"
       id="path54"
       inkscape:label="ear" />
    <path
       style="fill:#cccccc;fill-opacity:1;stroke:none;stroke-width:0.264583px;stroke-linecap:butt;stroke-linejoin:miter;stroke-opacity:1"
       d="m 89.827308,52.838394 0.133866,-8.439761 2.472684,-0.321327 0.362645,5.436276 -1.413871,4.830823 -1.174634,-0.100272 z"
       id="path33"
       inkscape:label="ear"
       sodipodi:nodetypes="ccccccc" />
    <path
       id="path52"
       style="fill:#1f1f1f;fill-opacity:1;stroke:none;stroke-width:0.264583"
       d="m 91.157414,43.320034 c 0.899065,7.70664 -0.436204,16.600937 -5.82941,24.40151 -1.08023,1.562422 -5.089486,7.499117 -9.601048,7.806389 -3.710447,0.25271 -8.47891,-6.112605 -10.715885,-8.37977 -5.754686,-5.832349 -5.910553,-16.340794 -5.067824,-23.869337 1.129731,-10.09249 7.119974,-17.639975 15.621191,-17.639975 8.501217,0 14.427589,7.69167 15.592976,17.681183 z"
       sodipodi:nodetypes="sssssss"
       inkscape:label="head"
       sodipodi:insensitive="true" />
    <path
       id="path1"
       style="fill:#cccccc;fill-opacity:1;stroke:none;stroke-width:0.264583"
       d="m 90.957253,43.50034 c 0.899065,7.70664 -0.0032,14.920387 -5.396406,22.72096 -1.08023,1.562422 -5.3878,2.443547 -9.899362,2.750819 -3.710447,0.25271 -7.797333,-0.743759 -10.034308,-3.010924 -5.754686,-5.832349 -6.298283,-14.932312 -5.455554,-22.460855 1.129731,-10.09249 6.891598,-17.861489 15.392815,-17.861489 8.501217,0 14.227428,7.871976 15.392815,17.861489 z"
       sodipodi:nodetypes="sssssss"
       inkscape:label="head"
       sodipodi:insensitive="true" />
    <path
       style="fill:url(#radialGradient38);fill-opacity:1;stroke:none;stroke-width:0.264583px;stroke-linecap:butt;stroke-linejoin:miter;stroke-opacity:1"
       d="M -0.98875688,133.00239 -0.69812545,109.4394 C 54.160256,94.667957 108.61853,96.149677 162.78218,109.60009 l 0.39298,25.38856 z"
       id="path3"
       sodipodi:nodetypes="ccccc"
       inkscape:label="table" />
    <path
       style="fill:#393939;fill-opacity:1;stroke:none;stroke-width:0.264583px;stroke-linecap:butt;stroke-linejoin:miter;stroke-opacity:1;filter:url(#filter34)"
       d="m 11.07254,133.57247 21.427531,-27.91732 c 0,0 22.934251,1.73689 22.23768,2.93082 -0.696574,1.19392 -3.801459,28.93569 -3.801459,28.93569 z"
       id="path23"
       inkscape:label="refl" />
    <path
       style="fill:url(#radialGradient43);fill-opacity:1;stroke:none;stroke-width:0.264583px;stroke-linecap:butt;stroke-linejoin:miter;stroke-opacity:1"
       d="m 38.887014,37.587073 c 0.08056,-0.890822 3.764002,-1.343686 16.578564,-1.8807 7.045987,-0.295272 14.53896,-2.869009 19.916993,-2.795119 7.419817,0.101943 18.09311,2.971271 27.621989,3.592228 10.50609,0.684638 11.63833,1.584091 11.9229,2.432727 C 116.43511,35.594503 102.30448,32.298156 96.449712,26.328776 89.501661,19.244709 83.235414,16.589257 75.94688,4.6363675 68.578376,16.439607 58.561006,20.196581 51.059021,27.609616 c -4.598339,4.543817 -12.7538,7.31487 -12.172007,9.977457 z"
       id="path7"
       sodipodi:nodetypes="cssscscsc"
       inkscape:label="hat" />
    <path
       style="fill:#4d4d4d;stroke:none;stroke-width:0.264583px;stroke-linecap:butt;stroke-linejoin:miter;stroke-opacity:1"
       d="m 64.828181,45.505871 3.262182,-0.339974 5.236279,1.680292 1.002682,-0.150088 -6.175145,-2.981741 z"
       id="path24"
       transform="translate(-0.28463503,-3.2052157)"
       sodipodi:nodetypes="cccccc" />
    <path
       style="fill:#4d4d4d;stroke:none;stroke-width:0.264583px;stroke-linecap:butt;stroke-linejoin:miter;stroke-opacity:1"
       d="m 87.30127,42.333919 -3.262182,-0.339974 -4.384586,1.545384 -1.582188,-0.182658 5.902958,-2.814263 z"
       id="path25"
       sodipodi:nodetypes="cccccc" />
    <path
       style="fill:#4d4d4d;fill-opacity:1;stroke:none;stroke-width:0.264583px;stroke-linecap:butt;stroke-linejoin:miter;stroke-opacity:1"
       d="M 71.717628,59.580436 C 72.664642,59.0559 74.88853,58.878189 74.88853,58.878189 l 1.284375,0.479423 1.066256,-0.541191 c 0,0 1.824394,0.423208 2.714116,0.685541 0.849993,0.250619 0.915484,1.053888 0.915484,1.053888 -1.170223,0.261036 -3.02974,0.259276 -4.800254,0.291447 -1.794597,-0.134853 -3.524508,-0.546639 -5.414457,-0.273267 0,0 0.410206,-0.631702 1.063578,-0.993594 z"
       id="path27"
       sodipodi:nodetypes="scccscccs"
       inkscape:label="lip" />
    <path
       id="path26"
       style="display:inline;fill:#4d4d4d;stroke:none;stroke-width:0.264583px;stroke-linecap:butt;stroke-linejoin:miter;stroke-opacity:1;fill-opacity:1"
       d="m 70.604743,60.881226 -0.163297,0.02584 c 0.397389,0.754448 0.937519,1.388018 1.839164,1.716175 1.013515,0.263814 2.566413,-0.721429 3.559989,-0.782898 1.657503,-0.102539 2.380403,0.912358 3.999756,0.944128 0.815893,-0.367466 1.306656,-0.844824 1.353923,-1.472262 -0.141315,0.51059 -0.604005,0.91255 -1.312065,1.23145 -1.619353,-0.03177 -2.342253,-1.046668 -3.999756,-0.944129 -0.993576,0.06147 -2.546474,1.046196 -3.559989,0.782382 -0.813938,-0.296236 -1.332019,-0.842427 -1.717725,-1.500684 z"
       inkscape:label="lip" />
    <path
       style="color:#000000;fill:#a5a5a5;fill-opacity:1;-inkscape-stroke:none;filter:url(#filter68)"
       d="m 79.474818,53.216526 -1.121126,0.154766 -0.358413,0.725201 c -1.104479,0.746051 -2.284725,0.952922 -3.649792,-0.155465 l 2.564727,3.196596 3.291316,1.288118 1.337371,1.486297 0.0063,-1.429224 c -0.825199,-1.730209 -2.088231,-3.24898 -2.070354,-5.266289 z"
       id="path60"
       sodipodi:nodetypes="cccccccccc"
       inkscape:label="shadow" />
    <path
       id="path28"
       style="fill:#4d4d4d;stroke:none;stroke-width:0.264583px;stroke-linecap:butt;stroke-linejoin:miter;stroke-opacity:1"
       d="m 77.203041,44.152344 0.422196,6.157764 0.162264,0.699182 c 0.644217,0.817814 1.884797,2.163591 1.207161,2.208651 -1.482645,-0.133823 -0.25207,1.310903 -2.849438,1.321883 -1.814886,0.05439 -1.9636,-1.589472 -3.167249,-1.477946 -0.647899,-0.01227 -0.05399,-1.061266 0.66611,-1.742012 l 0.3234,-0.943525 -0.558011,0.862395 c -0.720099,0.680746 -1.220991,2.029984 -0.573092,2.042252 1.203649,-0.111526 1.310504,1.69512 3.125391,1.640727 2.597368,-0.01098 1.789506,-1.646909 3.272151,-1.513086 0.677636,-0.04506 0.08249,-1.635783 -0.561722,-2.453597 L 78.509938,50.25585 Z"
       sodipodi:nodetypes="ccccccccccccccc"
       inkscape:label="nose" />
    <path
       style="fill:#393939;fill-opacity:1;stroke:none;stroke-width:0.264583px;stroke-linecap:butt;stroke-linejoin:miter;stroke-opacity:1;filter:url(#filter35)"
       d="m 87.122623,138.4241 7.644563,-31.57974 21.356404,0.40023 c 1.38203,0.0259 12.9234,32.70066 12.9234,32.70066 z"
       id="path34"
       inkscape:label="refl"
       sodipodi:nodetypes="ccscc" />
    <path
       style="fill:#1a1a1a;fill-opacity:0.242983;stroke:none;stroke-width:0.264583px;stroke-linecap:butt;stroke-linejoin:miter;stroke-opacity:1"
       d="m 70.827341,64.245834 c 0.142497,-0.33363 0.380155,-0.669653 0.569882,-1.020581 0.160828,-0.297474 0.287215,-0.605659 0.292004,-0.932175 1.146228,0.333838 2.752838,-0.309446 4.345651,-0.561013 1.314846,0.188912 3.077616,1.029972 4.032426,0.926953 -0.08778,0.682606 0.281297,0.720462 0.577581,1.711476 -2.882328,-1.127139 -6.745424,-0.898956 -9.817544,-0.12466 z"
       id="path5"
       sodipodi:nodetypes="csccccc" />
    <g
       id="g55"
       inkscape:label="eye_l">
      <path
         style="fill:#000000;stroke:none;stroke-width:0.307313px;stroke-linecap:butt;stroke-linejoin:miter;stroke-opacity:1"
         d="m 64.970485,45.528317 c 0,0 0.242626,1.305576 3.956533,1.490481 2.236002,0.111319 3.740746,-1.4621 3.740746,-1.4621 0,0 -1.291828,-1.935148 -4.403107,-2.124557 -2.782635,-0.169401 -3.294172,2.096176 -3.294172,2.096176 z"
         id="path55"
         sodipodi:nodetypes="cscsc"
         inkscape:label="eye" />
      <path
         style="fill:#ffffff;stroke:none;stroke-width:0.264583px;stroke-linecap:butt;stroke-linejoin:miter;stroke-opacity:1"
         d="m 65.477328,45.254856 c 0,0 0.22665,1.035961 3.696007,1.182681 2.088768,0.08833 3.494429,-1.160161 3.494429,-1.160161 0,0 -1.206765,-1.535519 -4.113175,-1.685814 -2.599407,-0.134418 -3.077261,1.663294 -3.077261,1.663294 z"
         id="path21"
         sodipodi:nodetypes="cscsc"
         inkscape:label="eye" />
      <ellipse
         style="fill:#782121;fill-opacity:1;stroke:none;stroke-width:0.264583"
         id="path30"
         cx="69.01503"
         cy="45.112698"
         rx="0.5867911"
         ry="0.55165339" />
      <ellipse
         style="fill:#f9f9f9;fill-opacity:1;stroke:none;stroke-width:0.103758"
         id="ellipse23"
         cx="-68.840378"
         cy="44.896461"
         rx="0.236222"
         ry="0.21073826"
         transform="scale(-1,1)" />
    </g>
    <g
       id="g48"
       inkscape:label="arm_r">
      <path
         style="fill:#000000;stroke:none;stroke-width:0.264583px;stroke-linecap:butt;stroke-linejoin:miter;stroke-opacity:1"
         d="m 117.01414,105.99218 c 0.58221,1.04158 -1.56095,4.99041 -3.88506,5.50706 -2.19385,0.48769 -2.97804,2.29801 -7.03626,2.12735 -3.15228,-0.13256 -7.797734,-1.19986 -9.694573,-2.71724 -2.992864,-1.83386 -0.0973,-29.951307 -1.853302,-46.207458 -2.842656,-3.362412 -4.223846,-5.265231 -4.696355,-8.479621 l 2.369389,-7.905803 9.051561,-4.456882 4.39703,1.216987 0.80991,9.379076 2.34296,-0.456955 c -0.22864,-3.47905 0.36727,-5.68599 2.86155,-6.811059 0.0777,1.602021 -0.0423,2.646836 -0.0282,3.737884 0.0338,2.611445 0.73735,4.499345 0.97646,6.910432 -2.28073,1.780464 -4.284,5.141076 -7.23051,5.394372 1.87068,15.278147 9.95787,29.92818 11.61536,42.761857 z"
         id="path29"
         sodipodi:nodetypes="csscccccccccsccc"
         inkscape:label="arm_ln" />
      <path
         style="fill:#cccccc;fill-opacity:1;stroke:none;stroke-width:0.264583px;stroke-linecap:butt;stroke-linejoin:miter;stroke-opacity:1"
         d="m 116.50843,105.99218 c 0.58221,1.04158 -1.05524,4.99041 -3.37935,5.50706 -2.19385,0.48769 -2.97804,2.29801 -7.03626,2.12735 -3.15228,-0.13256 -7.280759,-1.51161 -9.177598,-3.02899 -2.992864,-1.83386 -0.614275,-29.639557 -2.370277,-45.895708 -2.842656,-3.362412 -3.71023,-5.223914 -4.182739,-8.438304 l 1.855773,-7.94712 1.451687,-0.482057 0.162484,2.992802 0.424081,-3.387698 2.729421,-1.174328 0.113887,3.64599 0.660459,-4.043815 2.883292,-1.274171 0.0366,5.407877 0.42602,-5.690915 3.96308,0.939706 0.93273,9.389281 3.294,-0.480717 c -0.22864,-3.47905 -0.29188,-5.278191 2.2024,-6.40326 0.0777,1.602021 -0.17077,1.98727 -0.15664,3.078318 0.0338,2.611445 0.66038,4.644388 0.89949,7.055475 -2.28073,1.780464 -3.89571,5.088071 -6.84222,5.341367 1.87068,15.278147 9.45216,29.92818 11.10965,42.761857 z"
         id="path47"
         sodipodi:nodetypes="csscccccccccccccccccsccc"
         inkscape:label="arm" />
      <path
         style="fill:#000000;fill-opacity:0.161283;stroke:none;stroke-width:0.264583px;stroke-linecap:butt;stroke-linejoin:miter;stroke-opacity:1;filter:url(#filter48)"
         d="m 94.200151,52.243778 2.854897,0.05956 3.171802,-1.023387 2.8278,1.244491 2.57691,-0.716818 0.34411,2.748015 3.02259,-0.202126 c 0.19012,1.859123 -0.84457,3.99263 0.96233,5.489554 -0.74674,1.522732 -2.25505,2.842038 -4.2549,3.602227 l 3.52415,17.249204 -8.02527,-17.643152 -5.08049,-0.444655 z"
         id="path48"
         sodipodi:nodetypes="ccccccccccccc" />
    </g>
    <g
       id="g51"
       inkscape:label="arm_l"
       transform="matrix(-1,0,0,1,150.66329,-1.3470065)">
      <path
         style="fill:#000000;stroke:none;stroke-width:0.264583px;stroke-linecap:butt;stroke-linejoin:miter;stroke-opacity:1"
         d="m 117.01414,105.99218 c 0.58221,1.04158 -1.56095,4.99041 -3.88506,5.50706 -2.19385,0.48769 -2.97804,2.29801 -7.03626,2.12735 -3.15228,-0.13256 -7.797734,-1.19986 -9.694573,-2.71724 -2.992864,-1.83386 -0.0973,-29.951307 -1.853302,-46.207458 -2.842656,-3.362412 -4.223846,-5.265231 -4.696355,-8.479621 l 2.369389,-7.905803 9.051561,-4.456882 4.39703,1.216987 0.80991,9.379076 2.34296,-0.456955 c -0.22864,-3.47905 0.36727,-5.68599 2.86155,-6.811059 0.0777,1.602021 -0.0423,2.646836 -0.0282,3.737884 0.0338,2.611445 0.73735,4.499345 0.97646,6.910432 -2.28073,1.780464 -4.284,5.141076 -7.23051,5.394372 1.87068,15.278147 9.95787,29.92818 11.61536,42.761857 z"
         id="path49"
         sodipodi:nodetypes="csscccccccccsccc"
         inkscape:label="arm_ln" />
      <path
         style="fill:#cccccc;fill-opacity:1;stroke:none;stroke-width:0.264583px;stroke-linecap:butt;stroke-linejoin:miter;stroke-opacity:1"
         d="m 116.50843,105.99218 c 0.58221,1.04158 -1.05524,4.99041 -3.37935,5.50706 -2.19385,0.48769 -2.97804,2.29801 -7.03626,2.12735 -3.15228,-0.13256 -7.280759,-1.51161 -9.177598,-3.02899 -2.992864,-1.83386 -0.614275,-29.639557 -2.370277,-45.895708 -2.842656,-3.362412 -3.71023,-5.223914 -4.182739,-8.438304 l 1.855773,-7.94712 1.451687,-0.482057 0.162484,2.992802 0.424081,-3.387698 2.729421,-1.174328 0.113887,3.64599 0.660459,-4.043815 2.883292,-1.274171 0.0366,5.407877 0.42602,-5.690915 3.96308,0.939706 0.93273,9.389281 3.294,-0.480717 c -0.22864,-3.47905 -0.29188,-5.278191 2.2024,-6.40326 0.0777,1.602021 -0.17077,1.98727 -0.15664,3.078318 0.0338,2.611445 0.66038,4.644388 0.89949,7.055475 -2.28073,1.780464 -3.89571,5.088071 -6.84222,5.341367 1.87068,15.278147 9.45216,29.92818 11.10965,42.761857 z"
         id="path50"
         sodipodi:nodetypes="csscccccccccccccccccsccc"
         inkscape:label="arm" />
      <path
         style="fill:#000000;fill-opacity:0.24822694;stroke:none;stroke-width:0.264583px;stroke-linecap:butt;stroke-linejoin:miter;stroke-opacity:1;filter:url(#filter51)"
         d="m 90.576493,55.857368 6.478555,-3.55403 3.171802,-1.023387 2.8278,1.244491 2.57691,-0.716818 0.34411,2.748015 3.02259,-0.202126 c 0.19012,1.859123 -0.84457,3.99263 0.96233,5.489554 -0.74674,1.522732 -2.25505,2.842038 -4.2549,3.602227 l -0.16177,1.760895 -4.33935,-2.154843 -4.469175,0.903532 -1.52747,13.637578 -0.772729,-13.172548 c -2.574891,-2.134913 -3.696453,-5.081005 -3.858703,-8.56254 z"
         id="path51"
         sodipodi:nodetypes="ccccccccccccccc" />
    </g>
    <g
       id="g58"
       inkscape:label="eye_l"
       transform="matrix(-1,0,0,1,152.33045,0.33192554)">
      <path
         style="fill:#000000;stroke:none;stroke-width:0.307313px;stroke-linecap:butt;stroke-linejoin:miter;stroke-opacity:1"
         d="m 64.970485,45.528317 c 0,0 0.242626,1.305576 3.956533,1.490481 2.236002,0.111319 3.740746,-1.4621 3.740746,-1.4621 0,0 -1.291828,-1.935148 -4.403107,-2.124557 -2.782635,-0.169401 -3.294172,2.096176 -3.294172,2.096176 z"
         id="path56"
         sodipodi:nodetypes="cscsc"
         inkscape:label="eye" />
      <path
         style="fill:#ffffff;stroke:none;stroke-width:0.264583px;stroke-linecap:butt;stroke-linejoin:miter;stroke-opacity:1"
         d="m 65.477328,45.254856 c 0,0 0.22665,1.035961 3.696007,1.182681 2.088768,0.08833 3.494429,-1.160161 3.494429,-1.160161 0,0 -1.206765,-1.535519 -4.113175,-1.685814 -2.599407,-0.134418 -3.077261,1.663294 -3.077261,1.663294 z"
         id="path57"
         sodipodi:nodetypes="cscsc"
         inkscape:label="eye" />
      <ellipse
         style="fill:#782121;fill-opacity:1;stroke:none;stroke-width:0.264583"
         id="ellipse57"
         cx="69.01503"
         cy="45.112698"
         rx="0.5867911"
         ry="0.55165339" />
      <ellipse
         style="fill:#f9f9f9;fill-opacity:1;stroke:none;stroke-width:0.103758"
         id="ellipse58"
         cx="-68.840378"
         cy="44.896461"
         rx="0.236222"
         ry="0.21073826"
         transform="scale(-1,1)" />
    </g>
    <path
       style="fill:#ababab;fill-opacity:1;stroke:none;stroke-width:0.264583px;stroke-linecap:butt;stroke-linejoin:miter;stroke-opacity:1"
       d="M 71.717628,59.580436 C 72.664642,59.0559 74.88853,59.175768 74.88853,59.175768 l 1.284375,0.479423 1.066256,-0.541191 c 0,0 1.683472,0.173703 2.573194,0.436036 0.849993,0.250619 0.913459,0.874123 0.913459,0.874123 -1.170223,0.261036 -2.754897,0.08692 -4.525411,0.119094 -1.794597,-0.134853 -3.442102,-0.425547 -5.332051,-0.152175 0,0 0.195904,-0.44875 0.849276,-0.810642 z"
       id="path58"
       sodipodi:nodetypes="scccscccs"
       inkscape:label="lip" />
    <path
       style="color:#000000;fill:#4d4d4d;-inkscape-stroke:none;fill-opacity:1"
       d="m 72.818046,51.985736 c -0.788059,2.469474 -2.27223,4.279209 -3.872498,6.244172 2.606489,-2.091877 2.77074,-2.106929 3.587655,-5.07561 z"
       id="path59"
       sodipodi:nodetypes="cccc" />
    <path
       style="color:#000000;fill:#4d4d4d;fill-opacity:1;-inkscape-stroke:none"
       d="m 72.187693,47.273974 c -1.955458,1.209423 -3.418429,1.259782 -5.674335,1.135476 l -1.433635,0.252543 c 2.26709,0.334093 5.692674,-0.008 7.695667,-1.695196 z"
       id="path61"
       sodipodi:nodetypes="ccccc" />
    <path
       style="color:#000000;fill:#4d4d4d;-inkscape-stroke:none;fill-opacity:1"
       d="m 84.637968,64.469813 c -3.007006,2.62286 -5.570445,3.314503 -8.934843,3.360265 -3.364398,0.04576 -5.981433,-0.481917 -9.755744,-3.136146 l -1.097772,-0.522057 c 3.806024,2.676531 7.424097,3.970527 10.857422,3.923828 3.433325,-0.0467 6.674212,-1.43595 9.716797,-4.089844 z"
       id="path63"
       sodipodi:nodetypes="csccscc" />
    <path
       style="fill:#b3b3b3;stroke:none;stroke-width:0.264583px;stroke-linecap:butt;stroke-linejoin:miter;stroke-opacity:1;fill-opacity:1;filter:url(#filter66)"
       d="m 68.510285,36.800003 c 5.554671,-1.452894 9.879443,-0.97137 13.80545,0.137342 -0.971698,1.573425 -1.860463,3.126398 -4.282989,5.0576 l -4.17076,-0.04333 c -2.402488,-1.350666 -3.737889,-3.333626 -5.351701,-5.151616 z"
       id="path64"
       sodipodi:nodetypes="ccccc" />
    <path
       style="color:#000000;fill:#4d4d4d;fill-opacity:1;-inkscape-stroke:none"
       d="m 105.24966,64.032508 c -0.27171,0.945302 0.066,1.414664 -0.0317,2.002143 0.93893,10.425899 3.15961,34.156449 6.34571,40.633399 0.11809,-0.79444 -0.82013,-1.83217 -0.7327,-2.40344 -4.30066,-14.339101 -3.89897,-25.184776 -5.58128,-40.232102 z"
       id="path66"
       sodipodi:nodetypes="ccccc" />
    <path
       style="color:#000000;fill:#4d4d4d;fill-opacity:1;-inkscape-stroke:none"
       d="m 80.142013,47.601867 c 2.190058,1.103625 3.455105,1.227051 5.674335,1.135476 l 1.433635,0.252543 c -2.26709,0.334093 -5.692674,-0.008 -7.695667,-1.695196 z"
       id="path67"
       sodipodi:nodetypes="ccccc" />
    <path
       style="color:#000000;fill:#4d4d4d;fill-opacity:1;-inkscape-stroke:none"
       d="m 79.250041,51.933911 c 0.679525,2.129371 1.247504,4.82255 2.6112,6.176226 l -0.383573,1.854847 0.06863,-1.456698 C 80.690336,57.616595 79.491526,55.150633 79.38831,53.131132 Z"
       id="path68"
       sodipodi:nodetypes="cccccc" />
    <path
       style="color:#000000;fill:#4d4d4d;fill-opacity:1;-inkscape-stroke:none"
       d="m 46.649828,62.492625 0.2257,2.528018 c -2.658466,8.793899 -6.296424,33.919784 -7.426389,42.612607 -0.11809,-0.79444 -0.0318,-2.01297 -0.11923,-2.58424 z"
       id="path69"
       sodipodi:nodetypes="ccccc" />
    <path
       style="color:#000000;fill:#4d4d4d;fill-opacity:1;-inkscape-stroke:none"
       d="m 55.41908,63.84529 -0.697908,2.440234 c 0.954195,9.137265 -1.699601,29.858055 -2.227498,38.608106 0.265639,-0.75797 0.410451,-1.97094 0.603936,-2.51551 z"
       id="path70"
       sodipodi:nodetypes="ccccc" />
  </g>
  <g
     inkscape:groupmode="layer"
     id="layer3"
     inkscape:label="symbol"
     style="display:inline"
     sodipodi:insensitive="true">
    <path
       style="fill:#decd87;stroke:none;stroke-width:0.183846px;stroke-linecap:butt;stroke-linejoin:miter;stroke-opacity:1"
       d="m 66.507537,25.910606 c 3.711461,-0.166378 5.769175,-1.084368 8.818993,-1.049809 2.843605,0.03222 5.018567,0.921606 8.903499,1.397537 -3.316761,-3.837942 -5.878142,-7.787958 -8.758968,-10.74081 -3.539995,2.707322 -5.022927,6.479841 -8.963524,10.393082 z"
       id="path8"
       sodipodi:nodetypes="csccc"
       sodipodi:insensitive="true" />
    <ellipse
       style="fill:#decd87;fill-opacity:0.473952;stroke:none;stroke-width:0.264583;filter:url(#filter43)"
       id="path43"
       cx="76.035805"
       cy="22.042553"
       rx="14.826078"
       ry="9.1153708"
       sodipodi:insensitive="true" />
    <path
       style="fill:#28220b;stroke:none;stroke-width:0.264583px;stroke-linecap:butt;stroke-linejoin:miter;stroke-opacity:1"
       d="m 71.624561,21.430243 c 2.869835,2.159993 4.508982,2.271477 7.184378,0.02463 -2.436692,-1.996079 -5.179643,-1.761676 -7.184378,-0.02463 z"
       id="path46"
       sodipodi:nodetypes="ccc" />
    <ellipse
       style="fill:#ffdd55;fill-opacity:0.473952;stroke:none;stroke-width:0.247055"
       id="path45"
       cx="75.212799"
       cy="21.539484"
       rx="1.3031468"
       ry="0.98862207" />
  </g>
</svg>
