<svg id="travelling_wave_anim"
    width="300" 
    height="300" 
    viewBox="0 -50 50 100" 
    preserveAspectRatio="xMaxYMid slice"
    xmlns="http://www.w3.org/2000/svg">

    <rect x="0" y="-25" width="50" height="50" fill="black" />

    <path  id="sineWave" 
        fill="none" 
        stroke="red" 
        stroke-width="1" 
        d="M -50 -1.2246467991473533e-15 L -49.5 -0.3139525976465663 L -49 -0.6266661678215233 L -48.5 -0.9369065729286234 L -48 -1.2434494358242767 L -47.5 -1.5450849718747381 L -47 -1.8406227634233894 L -46.5 -2.128896457825365 L -46 -2.4087683705085805 L -45.5 -2.6791339748949854 L -45 -2.938926261462367 L -44.5 -3.1871199487434483 L -44 -3.422735529643445 L -43.5 -3.6448431371070606 L -43 -3.852566213878948 L -42.5 -4.045084971874738 L -42 -4.221639627510075 L -41.5 -4.3815334002193165 L -41 -4.524135262330099 L -40.5 -4.648882429441258 L -40 -4.755282581475768 L -39.5 -4.842915805643155 L -39 -4.911436253643443 L -38.5 -4.9605735065723895 L -38 -4.990133642141358 L -37.5 -5 L -37 -4.990133642141358 L -36.5 -4.960573506572389 L -36 -4.911436253643443 L -35.5 -4.842915805643156 L -35 -4.755282581475767 L -34.5 -4.648882429441257 L -34 -4.524135262330099 L -33.5 -4.381533400219318 L -33 -4.2216396275100765 L -32.5 -4.045084971874736 L -32 -3.852566213878947 L -31.5 -3.644843137107058 L -31 -3.422735529643442 L -30.5 -3.1871199487434483 L -30 -2.9389262614623632 L -29.5 -2.6791339748949823 L -29 -2.408768370508577 L -28.5 -2.1288964578253613 L -28 -1.8406227634233896 L -27.5 -1.5450849718747364 L -27 -1.243449435824273 L -26.5 -0.9369065729286239 L -26 -0.6266661678215214 L -25.5 -0.31395259764656674 L -25 6.123233995736766e-16 L -24.5 0.3139525976465679 L -24 0.6266661678215226 L -23.5 0.9369065729286229 L -23 1.2434494358242763 L -22.5 1.5450849718747375 L -22 1.8406227634233907 L -21.5 2.1288964578253644 L -21 2.408768370508576 L -20.5 2.679133974894985 L -20 2.9389262614623664 L -19.5 3.187119948743449 L -19 3.422735529643444 L -18.5 3.644843137107057 L -18 3.852566213878946 L -17.5 4.045084971874737 L -17 4.221639627510075 L -16.5 4.381533400219317 L -16 4.524135262330097 L -15.5 4.648882429441257 L -15 4.755282581475768 L -14.5 4.842915805643155 L -14 4.911436253643443 L -13.5 4.9605735065723895 L -13 4.990133642141358 L -12.5 5 L -12 4.990133642141358 L -11.5 4.960573506572389 L -11 4.911436253643443 L -10.5 4.842915805643155 L -10 4.755282581475767 L -9.5 4.648882429441256 L -9 4.524135262330098 L -8.5 4.381533400219318 L -8 4.221639627510076 L -7.5 4.045084971874736 L -7 3.852566213878946 L -6.5 3.644843137107058 L -6 3.422735529643443 L -5.5 3.1871199487434483 L -5 2.938926261462366 L -4.5 2.679133974894983 L -4 2.4087683705085765 L -3.5 2.1288964578253635 L -3 1.8406227634233896 L -2.5 1.545084971874737 L -2 1.243449435824274 L -1.5 0.936906572928623 L -1 0.6266661678215213 L -0.5 0.31395259764656686 L 0 0 L 0.5 -0.31395259764656686 L 1 -0.6266661678215213 L 1.5 -0.936906572928623 L 2 -1.243449435824274 L 2.5 -1.545084971874737 L 3 -1.8406227634233896 L 3.5 -2.1288964578253635 L 4 -2.4087683705085765 L 4.5 -2.679133974894983 L 5 -2.938926261462366 L 5.5 -3.1871199487434483 L 6 -3.422735529643443 L 6.5 -3.644843137107058 L 7 -3.852566213878946 L 7.5 -4.045084971874736 L 8 -4.221639627510076 L 8.5 -4.381533400219318 L 9 -4.524135262330098 L 9.5 -4.648882429441256 L 10 -4.755282581475767 L 10.5 -4.842915805643155 L 11 -4.911436253643443 L 11.5 -4.960573506572389 L 12 -4.990133642141358 L 12.5 -5 L 13 -4.990133642141358 L 13.5 -4.9605735065723895 L 14 -4.911436253643443 L 14.5 -4.842915805643155 L 15 -4.755282581475768 L 15.5 -4.648882429441257 L 16 -4.524135262330097 L 16.5 -4.381533400219317 L 17 -4.221639627510075 L 17.5 -4.045084971874737 L 18 -3.852566213878946 L 18.5 -3.644843137107057 L 19 -3.422735529643444 L 19.5 -3.187119948743449 L 20 -2.9389262614623664 L 20.5 -2.679133974894985 L 21 -2.408768370508576 L 21.5 -2.1288964578253644 L 22 -1.8406227634233907 L 22.5 -1.5450849718747375 L 23 -1.2434494358242763 L 23.5 -0.9369065729286229 L 24 -0.6266661678215226 L 24.5 -0.3139525976465679 L 25 -6.123233995736766e-16 L 25.5 0.31395259764656674 L 26 0.6266661678215214 L 26.5 0.9369065729286239 L 27 1.243449435824273 L 27.5 1.5450849718747364 L 28 1.8406227634233896 L 28.5 2.1288964578253613 L 29 2.408768370508577 L 29.5 2.6791339748949823 L 30 2.9389262614623632 L 30.5 3.1871199487434483 L 31 3.422735529643442 L 31.5 3.644843137107058 L 32 3.852566213878947 L 32.5 4.045084971874736 L 33 4.2216396275100765 L 33.5 4.381533400219318 L 34 4.524135262330099 L 34.5 4.648882429441257 L 35 4.755282581475767 L 35.5 4.842915805643156 L 36 4.911436253643443 L 36.5 4.960573506572389 L 37 4.990133642141358 L 37.5 5 L 38 4.990133642141358 L 38.5 4.9605735065723895 L 39 4.911436253643443 L 39.5 4.842915805643155 L 40 4.755282581475768 L 40.5 4.648882429441258 L 41 4.524135262330099 L 41.5 4.3815334002193165 L 42 4.221639627510075 L 42.5 4.045084971874738 L 43 3.852566213878948 L 43.5 3.6448431371070606 L 44 3.422735529643445 L 44.5 3.1871199487434483 L 45 2.938926261462367 L 45.5 2.6791339748949854 L 46 2.4087683705085805 L 46.5 2.128896457825365 L 47 1.8406227634233894 L 47.5 1.5450849718747381 L 48 1.2434494358242767 L 48.5 0.9369065729286234 L 49 0.6266661678215233 L 49.5 0.3139525976465663 L 50 1.2246467991473533e-15">

            <animateTransform id='travel' 
                attributeName='transform'
                type='translate'
                from="0 0"
                to="50 0"
                dur="3s"
                repeatCount="indefinite"
            />

    </path>

</svg>

