<?xml version="1.0" encoding="UTF-8" standalone="no"?>
<!-- Created with Inkscape (http://www.inkscape.org/) -->

<svg
   width="500"
   height="200"
   viewBox="0 0 500 200"
   version="1.1"
   id="svg1"
   inkscape:version="1.3.2 (091e20e, 2023-11-25)"
   sodipodi:docname="path_interpolation.svg"
   xmlns:inkscape="http://www.inkscape.org/namespaces/inkscape"
   xmlns:sodipodi="http://sodipodi.sourceforge.net/DTD/sodipodi-0.dtd"
   xmlns="http://www.w3.org/2000/svg"
   xmlns:svg="http://www.w3.org/2000/svg">
  <sodipodi:namedview
     id="namedview1"
     pagecolor="#ffffff"
     bordercolor="#666666"
     borderopacity="1.0"
     inkscape:showpageshadow="2"
     inkscape:pageopacity="0.0"
     inkscape:pagecheckerboard="0"
     inkscape:deskcolor="#d1d1d1"
     inkscape:document-units="px"
     inkscape:zoom="1.1539983"
     inkscape:cx="237.43537"
     inkscape:cy="161.17875"
     inkscape:window-width="1721"
     inkscape:window-height="924"
     inkscape:window-x="135"
     inkscape:window-y="93"
     inkscape:window-maximized="0"
     inkscape:current-layer="svg1" />
  <defs
     id="defs1" />
  <rect
     style="display:inline;fill:#005522;fill-rule:evenodd;stroke:#16502d;stroke-width:0.332848;stroke-linecap:square;stroke-opacity:0.0639648"
     id="rect48"
     width="499.66718"
     height="199.66716"
     x="0.16642401"
     y="0.16642401"
     inkscape:label="background"
     sodipodi:insensitive="true" />
  <path
     style="display:none;fill:none;fill-opacity:0;stroke:#00ff66;stroke-width:1px;stroke-linecap:butt;stroke-linejoin:miter;stroke-opacity:1"
     d="m 38.139731,165.83462 c 26.274326,39.0046 66.292329,26.03614 109.602859,-0.42859 41.6526,-25.45166 83.90944,-41.76365 144.59181,0.76399 55.56456,38.94096 85.14511,-0.57503 122.90171,-33.68613 63.53525,-55.718 122.11435,-82.854226 144.56755,35.09938"
     id="path14"
     sodipodi:nodetypes="csssc"
     inkscape:label="start_path"
     sodipodi:insensitive="true" />
  <path
     style="display:none;fill:none;fill-opacity:0;stroke:#16502d;stroke-width:1px;stroke-linecap:butt;stroke-linejoin:miter;stroke-opacity:1"
     d="M 36.737084,65.279128 C 66.523501,49.011807 97.172903,34.004063 150.09838,64.211474 184.0085,83.5658 219.53611,117.56118 286.89095,62.923141 327.82241,29.719673 387.79171,28.88207 414.3747,61.72248 c 49.41081,61.04171 98.57635,41.58836 149.30126,-1.406142"
     id="path15"
     sodipodi:nodetypes="csssc"
     inkscape:label="end_path"
     sodipodi:insensitive="true" />
  <g
     id="g57"
     transform="translate(-58.520638,-18.831622)">
    <path
       d="m 36.7371,65.2791 c 28.8231,-15.7412 58.4542,-30.303 108.2959,-3.858 1.665,0.8838 3.354,1.8134 5.065,2.7904 32.165,18.3579 65.784,49.8885 126.639,6.4598 3.303,-2.3572 6.686,-4.9352 10.154,-7.7482 34.189,-27.7337 81.659,-32.8867 111.863,-14.6945 5.956,3.588 11.242,8.084 15.621,13.4939 49.411,61.0415 98.576,41.5885 149.301,-1.4062"
       style="fill:none;fill-opacity:0;stroke:#16502d;stroke-width:1px;stroke-opacity:1"
       id="path48" />
    <path
       d="m 36.8929,76.452 c 28.5399,-9.6584 59.3252,-24.0431 108.4411,-3.4771 1.679,0.6645 3.378,1.3715 5.098,2.1228 33.029,13.7044 67.491,40.2643 128.038,6.1845 3.385,-1.7806 6.826,-3.8036 10.328,-6.0779 35.744,-21.7696 81.05,-30.3734 111.787,-17.614 5.937,2.6262 11.272,6.0859 15.795,10.3939 50.221,49.2538 99.509,30.5541 146.866,4.2507"
       style="fill:none;fill-opacity:0;stroke:#136333;stroke-width:1px;stroke-opacity:1"
       id="path49" />
    <path
       d="m 37.0488,87.6248 c 28.2567,-3.5755 60.196,-17.7832 108.5862,-3.096 1.692,0.445 3.402,0.9294 5.131,1.4551 33.894,9.051 69.199,30.6411 129.437,5.9093 3.467,-1.204 6.966,-2.672 10.503,-4.4077 37.299,-15.8054 80.439,-27.8601 111.71,-20.5335 5.918,1.6645 11.303,4.0878 15.97,7.294 51.031,37.466 100.441,19.5197 144.429,9.9074"
       style="fill:none;fill-opacity:0;stroke:#117639;stroke-width:1px;stroke-opacity:1"
       id="path50" />
    <path
       d="m 37.2046,98.7976 c 27.9735,2.5074 61.067,-11.5233 108.7314,-2.7149 1.706,0.2256 3.427,0.4873 5.164,0.7875 34.759,4.3978 70.906,21.0178 130.836,5.6338 3.549,-0.627 7.106,-1.54 10.677,-2.7374 38.855,-9.8412 79.829,-25.3467 111.635,-23.4529 5.897,0.7028 11.333,2.0897 16.144,4.194 51.841,25.6783 101.373,8.4854 141.993,15.5643"
       style="fill:none;fill-opacity:0;stroke:#0e8a40;stroke-width:1px;stroke-opacity:1"
       id="path51" />
    <path
       d="m 37.3605,109.97 c 27.6903,8.591 61.9378,-5.263 108.8765,-2.333 1.719,0.006 3.451,0.045 5.197,0.119 35.624,-0.256 72.613,11.395 132.235,5.359 3.631,-0.051 7.246,-0.409 10.852,-1.067 40.41,-3.877 79.218,-22.8336 111.558,-26.3726 5.878,-0.2589 11.364,0.0917 16.318,1.094 52.652,13.8906 102.306,-2.5489 139.558,21.2216"
       style="fill:none;fill-opacity:0;stroke:#0c9d46;stroke-width:1px;stroke-opacity:1"
       id="path52" />
    <path
       d="m 37.5163,121.143 c 27.4071,14.673 62.8087,0.997 109.0217,-1.953 1.732,-0.213 3.475,-0.396 5.23,-0.547 36.488,-4.91 74.32,1.771 133.634,5.083 3.713,0.526 7.385,0.723 11.026,0.603 41.965,2.087 78.608,-20.32 111.483,-29.2919 5.857,-1.2207 11.394,-1.9064 16.492,-2.0059 53.462,2.1029 103.238,-13.5833 137.122,26.8778"
       style="fill:none;fill-opacity:0;stroke:#09b14c;stroke-width:1px;stroke-opacity:1"
       id="path53" />
    <path
       d="m 37.6722,132.316 c 27.1239,20.756 63.6798,7.257 109.1668,-1.572 1.746,-0.432 3.499,-0.838 5.263,-1.215 37.353,-9.563 76.027,-7.852 135.033,4.808 3.795,1.102 7.525,1.854 11.201,2.273 43.52,8.051 77.998,-17.807 111.406,-32.211 5.838,-2.183 11.425,-3.905 16.666,-5.1061 54.273,-9.6849 104.171,-24.6176 134.686,32.5351"
       style="fill:none;fill-opacity:0;stroke:#07c453;stroke-width:1px;stroke-opacity:1"
       id="path54" />
    <path
       d="m 37.828,143.489 c 26.8408,26.839 64.551,13.516 109.312,-1.191 1.759,-0.652 3.524,-1.281 5.296,-1.883 38.218,-14.216 77.735,-17.475 136.432,4.533 3.877,1.679 7.665,2.986 11.375,3.943 45.076,14.016 77.388,-15.293 111.33,-35.131 5.818,-3.144 11.455,-5.902 16.841,-8.205 55.082,-21.473 105.103,-35.6523 132.25,38.191"
       style="fill:none;fill-opacity:0;stroke:#04d859;stroke-width:1px;stroke-opacity:1"
       id="path55" />
    <path
       d="m 37.9839,154.662 c 26.5575,32.922 65.4211,19.776 109.4571,-0.81 1.773,-0.871 3.548,-1.723 5.328,-2.551 39.084,-18.87 79.443,-27.099 137.832,4.258 3.959,2.255 7.805,4.117 11.549,5.613 46.632,19.98 76.778,-12.779 111.255,-38.05 5.798,-4.106 11.485,-7.9 17.015,-11.306 55.892,-33.26 106.035,-46.6859 129.814,43.849"
       style="fill:none;fill-opacity:0;stroke:#02eb5f;stroke-width:1px;stroke-opacity:1"
       id="path56" />
    <path
       d="m 38.1397,165.835 c 26.2744,39.004 66.2923,26.036 109.6033,-0.429 1.785,-1.091 3.571,-2.165 5.36,-3.218 39.948,-23.524 81.15,-36.723 139.231,3.982 4.041,2.832 7.945,5.249 11.724,7.284 48.187,25.943 76.167,-10.267 111.178,-40.97 5.779,-5.068 11.516,-9.899 17.189,-14.406 56.703,-45.048 106.968,-57.7205 127.379,49.505"
       style="fill:none;fill-opacity:0;stroke:#00ff66;stroke-width:1px;stroke-opacity:1"
       id="path57" />
  </g>
</svg>
