<?xml version="1.0" encoding="UTF-8" standalone="no"?>
<!-- Created with Inkscape (http://www.inkscape.org/) -->

<svg
   width="600"
   height="500"
   viewBox="0 0 158.75 132.29167"
   version="1.1"
   id="svg1"
   xmlns="http://www.w3.org/2000/svg"
   xmlns:svg="http://www.w3.org/2000/svg">
  <defs
     id="defs1">
    <filter
       style="color-interpolation-filters:sRGB"
       id="filter38"
       x="-0.17980933"
       y="-0.16976907"
       width="1.3596187"
       height="1.3395381">
      <feGaussianBlur
         stdDeviation="6.3664371"
         id="feGaussianBlur38" />
    </filter>
    <filter
       style="color-interpolation-filters:sRGB"
       id="filter39"
       x="-0.16787593"
       y="-0.18063323"
       width="1.3357519"
       height="1.3612665">
      <feGaussianBlur
         stdDeviation="6.3664371"
         id="feGaussianBlur39" />
    </filter>
    <filter
       style="color-interpolation-filters:sRGB"
       id="filter40"
       x="-0.26278497"
       y="-0.15447989"
       width="1.5255699"
       height="1.3089598">
      <feGaussianBlur
         stdDeviation="6.3664371"
         id="feGaussianBlur40" />
    </filter>
    <filter
       style="color-interpolation-filters:sRGB"
       id="filter41"
       x="-0.22866574"
       y="-0.15770254"
       width="1.4573315"
       height="1.3154051">
      <feGaussianBlur
         stdDeviation="6.3664371"
         id="feGaussianBlur41" />
    </filter>
    <filter
       style="color-interpolation-filters:sRGB"
       id="filter42"
       x="-0.15724959"
       y="-0.22528063"
       width="1.3144992"
       height="1.4505613">
      <feGaussianBlur
         stdDeviation="6.3664371"
         id="feGaussianBlur42" />
    </filter>
    <filter
       style="color-interpolation-filters:sRGB"
       id="filter43"
       x="-0.15420809"
       y="-0.20309044"
       width="1.3084162"
       height="1.4061809">
      <feGaussianBlur
         stdDeviation="6.3664371"
         id="feGaussianBlur43" />
    </filter>
    <filter
       style="color-interpolation-filters:sRGB"
       id="filter44"
       x="-0.15468341"
       y="-0.25279173"
       width="1.3093668"
       height="1.5055835">
      <feGaussianBlur
         stdDeviation="6.3664371"
         id="feGaussianBlur44" />
    </filter>
    <filter
       style="color-interpolation-filters:sRGB"
       id="filter45"
       x="-0.26963121"
       y="-0.15478425"
       width="1.5392624"
       height="1.3095685">
      <feGaussianBlur
         stdDeviation="6.3664371"
         id="feGaussianBlur45" />
    </filter>
    <filter
       style="color-interpolation-filters:sRGB"
       id="filter46"
       x="-0.17563074"
       y="-0.18686642"
       width="1.3512615"
       height="1.3737328">
      <feGaussianBlur
         stdDeviation="6.3664371"
         id="feGaussianBlur46" />
    </filter>
    <filter
       style="color-interpolation-filters:sRGB"
       id="filter47"
       x="-0.16861742"
       y="-0.18497996"
       width="1.3372348"
       height="1.3699599">
      <feGaussianBlur
         stdDeviation="6.3664371"
         id="feGaussianBlur47" />
    </filter>
    <filter
       style="color-interpolation-filters:sRGB"
       id="filter48"
       x="-0.18070122"
       y="-0.1697857"
       width="1.3614024"
       height="1.3395714">
      <feGaussianBlur
         stdDeviation="6.3664371"
         id="feGaussianBlur48" />
    </filter>
    <filter
       style="color-interpolation-filters:sRGB"
       id="filter49"
       x="-0.26196268"
       y="-0.15232852"
       width="1.5239254"
       height="1.304657">
      <feGaussianBlur
         stdDeviation="6.3664371"
         id="feGaussianBlur49" />
    </filter>
    <filter
       style="color-interpolation-filters:sRGB"
       id="filter50"
       x="-0.26972726"
       y="-0.15447427"
       width="1.5394545"
       height="1.3089485">
      <feGaussianBlur
         stdDeviation="6.3664371"
         id="feGaussianBlur50" />
    </filter>
    <filter
       style="color-interpolation-filters:sRGB"
       id="filter51"
       x="-0.15461078"
       y="-0.26240423"
       width="1.3092216"
       height="1.5248085">
      <feGaussianBlur
         stdDeviation="6.3664371"
         id="feGaussianBlur51" />
    </filter>
    <filter
       style="color-interpolation-filters:sRGB"
       id="filter52"
       x="-0.16147558"
       y="-0.18380282"
       width="1.3229512"
       height="1.3676056">
      <feGaussianBlur
         stdDeviation="6.3664371"
         id="feGaussianBlur52" />
    </filter>
    <filter
       style="color-interpolation-filters:sRGB"
       id="filter53"
       x="-0.15778974"
       y="-0.22072317"
       width="1.3155795"
       height="1.4414463">
      <feGaussianBlur
         stdDeviation="6.3664371"
         id="feGaussianBlur53" />
    </filter>
    <filter
       style="color-interpolation-filters:sRGB"
       id="filter54"
       x="-0.23070821"
       y="-0.15843881"
       width="1.4614164"
       height="1.3168776">
      <feGaussianBlur
         stdDeviation="6.3664371"
         id="feGaussianBlur54" />
    </filter>
    <filter
       style="color-interpolation-filters:sRGB"
       id="filter55"
       x="-0.16483694"
       y="-0.2079774"
       width="1.3296739"
       height="1.4159548">
      <feGaussianBlur
         stdDeviation="6.3664371"
         id="feGaussianBlur55" />
    </filter>
  </defs>
  <g
     id="layer1">
    <g
       id="g12"
       style="fill:#5f8dd3"
       transform="translate(-179.22337,-109.10472)">
      <path
         style="color:#000000;fill:#5f8dd3;fill-rule:evenodd;-inkscape-stroke:none"
         d="M 83.430722,10.882328 C 70.865724,10.570556 56.473862,18.67665 46.9375,28.03125 l 0.185547,0.1875 c 18.965144,-18.60367 50.33317,-17.573699 68.607423,1.455078 19.0112,19.796156 17.88344,52.190642 -1.92188,71.009762 l 0.18164,0.19141 C 133.90181,81.954907 139.08884,47.606704 119.97415,27.702781 110.78629,18.135566 95.995721,11.194101 83.430722,10.882328 Z"
         id="path3"
         transform="translate(-47.121866,-27.645643)" />
      <path
         style="color:#000000;fill:#5f8dd3;fill-rule:evenodd;-inkscape-stroke:none"
         d="M 0.57617187,0.53710937 0.38671875,0.72265625 C 18.990389,19.6878 17.960417,51.05778 -1.0683594,69.332031 -20.864516,88.343236 -53.259003,87.213523 -72.078125,67.408203 l -0.191406,0.181641 c 18.920092,19.91158 58.271043,24.451449 78.174965,5.336751 C 25.039865,54.55088 22.404605,14.049873 0.57617187,0.53710937 Z"
         id="path4" />
      <path
         style="color:#000000;fill:#5f8dd3;fill-rule:evenodd;-inkscape-stroke:none"
         d="M 1.5507812,0.08398437 1.5332031,0.34765625 C 28.042654,2.0861121 48.183193,26.156603 46.177734,52.462891 44.091402,79.830042 19.189049,100.58056 -8.0410156,98.359375 L -8.0625,98.623047 C 19.313661,100.85615 47.850194,80.000507 49.947883,52.484375 51.964477,26.032027 30.995632,-2.8468862 1.5507812,0.08398437 Z"
         id="path5" />
      <path
         style="color:#000000;fill:#5f8dd3;fill-rule:evenodd;-inkscape-stroke:none"
         d="m 18.146484,-96.521484 c -23.2977167,-1.351816 -48.569459,13.912028 -55.066658,37.167968 -7.263642,25.999329 8.38569,55.5008227 37.82837713,59.63671913 L 0.97265625,0.02734375 C -24.788503,-6.4638747 -34.657969,-31.874037 -27.94077,-57.387207 -20.952684,-83.929256 1.6835178,-101.7464 28.066406,-94.650391 l 0.06836,-0.255859 c -3.315555,-0.89176 -6.660036,-1.422118 -9.988282,-1.615234 z"
         id="path6" />
      <path
         style="color:#000000;fill:#5f8dd3;fill-rule:evenodd;-inkscape-stroke:none"
         d="M 52.492644,-40.987554 C 29.961784,-42.181679 6.3546136,-23.114192 0.64257812,-0.4453125 L 0.8984375,-0.3808594 C 7.3896563,-26.142018 34.697768,-41.609777 60.210937,-34.892578 86.752986,-27.904492 102.67218,0.33195662 95.576172,26.714844 l 0.255859,0.06836 c 7.134079,-26.52443798 -5.373002,-58.978488 -32.05954,-66.004615 -3.206853,-0.844312 -8.061153,-1.595553 -11.279847,-1.766143 z"
         id="path7" />
      <path
         style="color:#000000;fill:#5f8dd3;fill-rule:evenodd;-inkscape-stroke:none"
         d="m 22.134856,-63.64137 c -23.6273059,12.064152 -34.790005,38.937731 -22.38876225,62.6023075 l 0.234375,-0.1230469 C -20.564779,-23.850268 -7.4630043,-58.738458 15.998411,-70.80513 c 24.596467,-12.650452 65.304013,-3.196231 72.622683,26.734818 l 0.236328,-0.119141 C 75.179718,-69.155103 46.054683,-76.164748 22.134856,-63.64137 Z"
         id="path8" />
      <path
         style="color:#000000;fill:#5f8dd3;fill-rule:evenodd;-inkscape-stroke:none"
         d="m 0.0546875,-0.19726562 -0.26171875,0.0449219 C 4.3819016,26.014714 -16.579186,44.080464 -42.61209,48.361876 -69.694833,52.815948 -93.40668,40.739306 -97.697266,13.757813 l -0.261718,0.04101 c 4.313605,27.126256 32.522132,50.369197 59.752308,45.890878 C -12.029229,55.384522 4.6696513,26.118226 0.0546875,-0.19726562 Z"
         id="path9" />
      <path
         style="color:#000000;fill:#5f8dd3;fill-rule:evenodd;-inkscape-stroke:none"
         d="m -14.5,-97.669922 c -27.126255,4.313606 -46.503709,30.5042 -42.025391,57.734375 4.305185,26.177448 29.707946,44.8942606 56.02343788,40.279297 l -0.046875,-0.26171875 C -26.715886,4.6709639 -47.411676,-14.580102 -51.693089,-40.613008 -56.14716,-67.69575 -41.440477,-93.117617 -14.458984,-97.408203 Z"
         id="path10" />
      <path
         style="color:#000000;fill:#5f8dd3;fill-rule:evenodd;-inkscape-stroke:none"
         d="M -76.443359,-62.333984 C -93.790451,-41.037991 -90.779065,-8.5979818 -69.291016,8.7167969 -48.633703,25.36218 -17.223459,22.382602 -0.68164062,1.4023437 L -0.88867188,1.2402344 C -18.441314,14.856851 -44.453233,19.701489 -64.908911,3.7226642 -86.538585,-13.173221 -93.492798,-40.985624 -76.238281,-62.167969 Z"
         id="path11" />
    </g>
    <g
       id="g20"
       transform="rotate(-11.651431,-624.35743,824.29576)"
       style="fill:#ff6600">
      <path
         style="color:#000000;fill:#ff6600;fill-rule:evenodd;-inkscape-stroke:none"
         d="M 83.430722,10.882328 C 70.865724,10.570556 56.473862,18.67665 46.9375,28.03125 l 0.185547,0.1875 c 18.965144,-18.60367 50.33317,-17.573699 68.607423,1.455078 19.0112,19.796156 17.88344,52.190642 -1.92188,71.009762 l 0.18164,0.19141 C 133.90181,81.954907 139.08884,47.606704 119.97415,27.702781 110.78629,18.135566 95.995721,11.194101 83.430722,10.882328 Z"
         id="path12"
         transform="translate(-47.121866,-27.645643)" />
      <path
         style="color:#000000;fill:#ff6600;fill-rule:evenodd;-inkscape-stroke:none"
         d="M 0.57617187,0.53710937 0.38671875,0.72265625 C 18.990389,19.6878 17.960417,51.05778 -1.0683594,69.332031 -20.864516,88.343236 -53.259003,87.213523 -72.078125,67.408203 l -0.191406,0.181641 c 18.920092,19.91158 58.271043,24.451449 78.174965,5.336751 C 25.039865,54.55088 22.404605,14.049873 0.57617187,0.53710937 Z"
         id="path13" />
      <path
         style="color:#000000;fill:#ff6600;fill-rule:evenodd;-inkscape-stroke:none"
         d="M 1.5507812,0.08398437 1.5332031,0.34765625 C 28.042654,2.0861121 48.183193,26.156603 46.177734,52.462891 44.091402,79.830042 19.189049,100.58056 -8.0410156,98.359375 L -8.0625,98.623047 C 19.313661,100.85615 47.850194,80.000507 49.947883,52.484375 51.964477,26.032027 30.995632,-2.8468862 1.5507812,0.08398437 Z"
         id="path14" />
      <path
         style="color:#000000;fill:#ff6600;fill-rule:evenodd;-inkscape-stroke:none"
         d="m 18.146484,-96.521484 c -23.2977167,-1.351816 -48.569459,13.912028 -55.066658,37.167968 -7.263642,25.999329 8.38569,55.5008227 37.82837713,59.63671913 L 0.97265625,0.02734375 C -24.788503,-6.4638747 -34.657969,-31.874037 -27.94077,-57.387207 -20.952684,-83.929256 1.6835178,-101.7464 28.066406,-94.650391 l 0.06836,-0.255859 c -3.315555,-0.89176 -6.660036,-1.422118 -9.988282,-1.615234 z"
         id="path15" />
      <path
         style="color:#000000;fill:#ff6600;fill-rule:evenodd;-inkscape-stroke:none"
         d="M 52.492644,-40.987554 C 29.961784,-42.181679 6.3546136,-23.114192 0.64257812,-0.4453125 L 0.8984375,-0.3808594 C 7.3896563,-26.142018 34.697768,-41.609777 60.210937,-34.892578 86.752986,-27.904492 102.67218,0.33195662 95.576172,26.714844 l 0.255859,0.06836 c 7.134079,-26.52443798 -5.373002,-58.978488 -32.05954,-66.004615 -3.206853,-0.844312 -8.061153,-1.595553 -11.279847,-1.766143 z"
         id="path16" />
      <path
         style="color:#000000;fill:#ff6600;fill-rule:evenodd;-inkscape-stroke:none"
         d="m 22.134856,-63.64137 c -23.6273059,12.064152 -34.790005,38.937731 -22.38876225,62.6023075 l 0.234375,-0.1230469 C -20.564779,-23.850268 -7.4630043,-58.738458 15.998411,-70.80513 c 24.596467,-12.650452 65.304013,-3.196231 72.622683,26.734818 l 0.236328,-0.119141 C 75.179718,-69.155103 46.054683,-76.164748 22.134856,-63.64137 Z"
         id="path17" />
      <path
         style="color:#000000;fill:#ff6600;fill-rule:evenodd;-inkscape-stroke:none"
         d="m 0.0546875,-0.19726562 -0.26171875,0.0449219 C 4.3819016,26.014714 -16.579186,44.080464 -42.61209,48.361876 -69.694833,52.815948 -93.40668,40.739306 -97.697266,13.757813 l -0.261718,0.04101 c 4.313605,27.126256 32.522132,50.369197 59.752308,45.890878 C -12.029229,55.384522 4.6696513,26.118226 0.0546875,-0.19726562 Z"
         id="path18" />
      <path
         style="color:#000000;fill:#ff6600;fill-rule:evenodd;-inkscape-stroke:none"
         d="m -14.5,-97.669922 c -27.126255,4.313606 -46.503709,30.5042 -42.025391,57.734375 4.305185,26.177448 29.707946,44.8942606 56.02343788,40.279297 l -0.046875,-0.26171875 C -26.715886,4.6709639 -47.411676,-14.580102 -51.693089,-40.613008 -56.14716,-67.69575 -41.440477,-93.117617 -14.458984,-97.408203 Z"
         id="path19" />
      <path
         style="color:#000000;fill:#ff6600;fill-rule:evenodd;-inkscape-stroke:none"
         d="M -76.443359,-62.333984 C -93.790451,-41.037991 -90.779065,-8.5979818 -69.291016,8.7167969 -48.633703,25.36218 -17.223459,22.382602 -0.68164062,1.4023437 L -0.88867188,1.2402344 C -18.441314,14.856851 -44.453233,19.701489 -64.908911,3.7226642 -86.538585,-13.173221 -93.492798,-40.985624 -76.238281,-62.167969 Z"
         id="path20" />
    </g>
  </g>
  <g
     id="layer2">
    <g
       id="g55"
       transform="matrix(1.0765881,0,0,0.23758167,-11.671146,128.71622)">
      <path
         style="color:#000000;fill:#5f8dd3;fill-rule:evenodd;-inkscape-stroke:none;filter:url(#filter38)"
         d="m 125.29037,-192.92283 c -12.565,-0.31177 -26.956804,7.79432 -36.493166,17.14891 l 0.185547,0.1875 c 18.965089,-18.60366 50.333119,-17.57369 68.607369,1.45508 19.0112,19.79616 17.88344,52.19064 -1.92188,71.00976 l 0.18164,0.19141 c 19.91158,-18.92009 25.09861,-53.26828 5.98392,-73.17222 -9.18786,-9.5672 -23.97843,-16.50867 -36.54343,-16.82044 z"
         id="path21" />
      <path
         style="color:#000000;fill:#5f8dd3;fill-rule:evenodd;-inkscape-stroke:none;filter:url(#filter39)"
         d="m 89.041823,-105.01305 -0.189453,0.18555 c 18.6037,18.96516 17.57373,50.33514 -1.455078,68.60938 -19.796157,19.01121 -52.190644,17.88149 -71.009766,-1.92383 l -0.191407,0.18165 c 18.920093,19.91157 58.271044,24.45144 78.174966,5.33675 19.134465,-18.37571 16.499205,-58.87673 -5.329262,-72.3895 z"
         id="path22" />
      <path
         style="color:#000000;fill:#5f8dd3;fill-rule:evenodd;-inkscape-stroke:none;filter:url(#filter40)"
         d="m 90.113279,-119.09174 -0.01758,0.26368 c 26.509431,1.73845 46.649971,25.80896 44.644511,52.11525 -2.08633,27.36715 -26.98869,48.11766 -54.21873,45.89648 L 80.5,-20.55266 c 27.37614,2.2331 55.91267,-18.62254 58.01036,-46.13867 2.01659,-26.45235 -18.95225,-55.33128 -48.397079,-52.40041 z"
         id="path23" />
      <path
         style="color:#000000;fill:#5f8dd3;fill-rule:evenodd;-inkscape-stroke:none;filter:url(#filter41)"
         d="M 106.50366,-82.36841 C 83.206041,-83.72023 57.934299,-68.4564 51.4371,-45.20044 44.173458,-19.20111 59.82279,10.3004 89.265477,14.43629 l 0.06445,-0.25586 C 63.568768,7.68922 53.699302,-17.72096 60.416501,-43.23413 67.404587,-69.7762 90.040789,-87.59332 116.42358,-80.49732 l 0.0684,-0.25586 c -3.31555,-0.89176 -6.66003,-1.42212 -9.98828,-1.61523 z"
         id="path24" />
      <path
         style="color:#000000;fill:#5f8dd3;fill-rule:evenodd;-inkscape-stroke:none;filter:url(#filter42)"
         d="m 141.86629,-211.56466 c -22.53086,-1.19413 -46.137983,17.87335 -51.850019,40.54225 l 0.255859,0.0645 c 6.491219,-25.76118 33.79928,-41.22893 59.31245,-34.51173 26.54205,6.98809 42.46124,35.22454 35.36524,61.60743 l 0.25586,0.0684 c 7.13407,-26.52444 -5.37301,-58.97849 -32.05954,-66.00462 -3.20686,-0.84431 -8.06116,-1.59555 -11.27985,-1.76614 z"
         id="path25" />
      <path
         style="color:#000000;fill:#5f8dd3;fill-rule:evenodd;-inkscape-stroke:none;filter:url(#filter43)"
         d="m 111.37841,-218.08063 c -23.627283,12.06415 -34.789982,38.93773 -22.388739,62.60232 l 0.234375,-0.12305 c -20.545248,-22.68817 -7.443473,-57.57636 16.017944,-69.64303 24.59644,-12.65045 65.30399,-3.19623 72.62266,26.73482 l 0.23633,-0.11914 c -13.67771,-24.96565 -42.80274,-31.9753 -66.72257,-19.45192 z"
         id="path26" />
      <path
         style="color:#000000;fill:#5f8dd3;fill-rule:evenodd;-inkscape-stroke:none;filter:url(#filter44)"
         d="m 88.94326,-190.82618 -0.261718,0.0449 c 4.588933,26.16707 -16.372155,44.23281 -42.405059,48.51423 -27.082743,4.45407 -50.7945898,-7.62257 -55.0851758,-34.60407 l -0.261718,0.041 c 4.313605,27.12626 32.5221318,50.36919 59.7523078,45.89087 26.177447,-4.30517 42.876327,-33.57146 38.261363,-59.88697 z"
         id="path27" />
      <path
         style="color:#000000;fill:#5f8dd3;fill-rule:evenodd;-inkscape-stroke:none;filter:url(#filter45)"
         d="m 74.102285,-118.22404 c -27.126255,4.3136 -46.503709,30.5042 -42.025391,57.73439 4.305185,26.17744 29.707946,44.89426 56.023438,40.2793 l -0.04687,-0.26172 c -26.167058,4.58893 -46.862848,-14.66214 -51.144261,-40.69504 -4.454071,-27.08276 10.252612,-52.50463 37.234105,-56.79521 z"
         id="path28" />
      <path
         style="color:#000000;fill:#5f8dd3;fill-rule:evenodd;-inkscape-stroke:none;filter:url(#filter46)"
         d="m 12.776969,-174.23805 c -17.3470898,21.296 -14.3357059,53.736 7.152345,71.05079 20.657313,16.64538 52.067557,13.6658 68.609375,-7.31447 l -0.207031,-0.16211 c -17.552642,13.61663 -43.564561,18.46127 -64.020239,2.48243 -21.6296759,-16.89588 -28.5838868,-44.70827 -11.329372,-65.89062 z"
         id="path29" />
      <path
         style="color:#000000;fill:#ff6600;fill-rule:evenodd;-inkscape-stroke:none;filter:url(#filter47)"
         d="m 121.19385,-197.67346 c -12.36905,2.23224 -24.827288,13.07783 -32.277919,24.16562 l 0.219591,0.14617 c 14.817208,-22.05048 45.746898,-27.37673 67.487598,-12.43068 22.61744,15.5488 28.05521,47.50354 12.45865,69.93471 l 0.21656,0.15078 c 15.68024,-22.55152 13.82352,-57.23952 -8.91704,-72.87296 -10.9307,-7.51451 -26.81838,-11.32588 -39.18744,-9.09364 z"
         id="path30" />
      <path
         style="color:#000000;fill:#ff6600;fill-rule:evenodd;-inkscape-stroke:none;filter:url(#filter48)"
         d="m 89.076549,-83.12015 -0.148077,0.21998 c 22.050518,14.81722 27.377158,45.74882 12.431058,67.48952 C 85.810735,7.20679 53.855604,12.64266 31.424436,-2.95391 l -0.150778,0.21656 c 22.551517,15.68024 62.008475,12.17936 77.641952,-10.56121 15.02905,-21.86141 4.26862,-60.99566 -19.839061,-69.82159 z"
         id="path31" />
      <ellipse
         style="fill:#000000;fill-opacity:1;fill-rule:evenodd;stroke:#4d4d4d;stroke-width:0.0523156;stroke-linecap:square"
         id="path56"
         cx="86.944138"
         cy="-86.279274"
         rx="53.664116"
         ry="145.75986" />
      <path
         style="color:#000000;fill:#ff6600;fill-rule:evenodd;-inkscape-stroke:none;filter:url(#filter49)"
         d="m 90.123566,-154.94445 0.03603,0.26179 c 26.314244,-3.65114 50.900984,15.85585 54.249584,42.0251 3.48365,27.22458 -16.71486,52.57673 -43.83235,55.90062 l 0.0322,0.26257 c 27.263,-3.34172 50.99957,-29.53078 47.49696,-56.90356 -3.3672,-26.31455 -29.73628,-50.36359 -57.982438,-41.54652 z"
         id="path32" />
      <path
         style="color:#000000;fill:#ff6600;fill-rule:evenodd;-inkscape-stroke:none;filter:url(#filter50)"
         d="m 86.613041,-96.72243 c -23.090661,3.38118 -44.75902,23.4343 -46.425637,47.5232 -1.86322,26.93054 19.421685,52.66366 49.092961,50.76817 l 0.01145,-0.26361 C 62.750533,0.15052 47.95267,-22.74285 49.37889,-49.08689 c 1.483735,-27.40643 20.055204,-49.42798 47.327546,-47.8064 l 0.01528,-0.26439 c -3.427333,-0.20379 -6.810008,-0.0478 -10.108675,0.43525 z"
         id="path33" />
      <path
         style="color:#000000;fill:#ff6600;fill-rule:evenodd;-inkscape-stroke:none;filter:url(#filter51)"
         d="m 132.39611,-203.63643 c -22.30776,3.38074 -41.577611,26.82298 -42.593804,50.17835 l 0.263604,0.0114 c 1.154813,-26.54129 24.77633,-47.2054 51.12037,-45.77918 27.40643,1.48373 48.70015,25.92336 47.07857,53.19572 l 0.2644,0.0153 c 1.63027,-27.41867 -17.17342,-56.6781 -44.72904,-58.16991 -3.31129,-0.17927 -8.21728,0.0653 -11.4041,0.5483 z"
         id="path34" />
      <path
         style="color:#000000;fill:#ff6600;fill-rule:evenodd;-inkscape-stroke:none;filter:url(#filter52)"
         d="m 97.415163,-135.3982 c -20.704008,16.58726 -26.209381,45.16148 -9.284444,65.83392 l 0.204696,-0.16785 c -24.703936,-18.0714 -18.918051,-54.88669 1.622976,-71.44292 21.534729,-17.35721 63.312819,-16.31898 76.525469,11.51726 l 0.2074,-0.16441 c -18.43786,-21.6889 -48.3784,-22.6721 -69.276097,-5.576 z"
         id="path35" />
      <path
         style="color:#000000;fill:#ff6600;fill-rule:evenodd;-inkscape-stroke:none;filter:url(#filter53)"
         d="m 88.661928,-175.27759 -0.247253,0.0969 c 9.778999,24.70109 -7.101665,46.62783 -31.733482,56.07854 -25.625154,9.83185 -51.2873659,2.79283 -60.9386478,-22.76617 l -0.248043,0.093 c 9.7030626,25.69613 42.0244108,42.76323 67.7890628,32.87785 24.768583,-9.50319 35.212834,-41.53888 25.378363,-66.3801 z"
         id="path36" />
      <path
         style="color:#000000;fill:#ff6600;fill-rule:evenodd;-inkscape-stroke:none;filter:url(#filter54)"
         d="m 54.703351,-132.6099 c -25.696138,9.70306 -39.38493,39.26739 -29.499562,65.03206 9.503197,24.76859 38.162512,37.96946 63.003731,28.13499 l -0.09877,-0.24686 c -24.701101,9.779 -48.858331,-4.89572 -58.309054,-29.52755 -9.831846,-25.62517 -0.562331,-53.49332 24.996677,-63.1446 z"
         id="path37" />
      <path
         style="color:#000000;fill:#ff6600;fill-rule:evenodd;-inkscape-stroke:none;filter:url(#filter55)"
         d="m 1.640379,-184.76737 c -12.688765,24.36055 -3.1879399,55.52396 21.354179,68.1423 23.59331,12.1305 53.754579,2.86879 65.718429,-21.0199 l -0.235504,-0.11696 C 74.036497,-120.881 49.53898,-110.8829 26.277766,-122.4013 1.681539,-134.58077 -10.74629,-160.41564 1.8747592,-184.64619 Z"
         id="path38" />
    </g>
  </g>
</svg>
