<?xml version="1.0" encoding="UTF-8" standalone="no"?>
<!-- Created with Inkscape (http://www.inkscape.org/) -->

<svg
   id="go_ask_alice"
   width="300"
   height="300"
   viewBox="-185 -225 300 300"
   version="1.1"
   inkscape:version="1.3.2 (091e20e, 2023-11-25)"
   sodipodi:docname="go_ask_alice_3.svg"
   inkscape:export-filename="../../../../../../nn/content/svg/isometric/go_ask_alice_2.svg"
   inkscape:export-xdpi="96"
   inkscape:export-ydpi="96"
   xmlns:inkscape="http://www.inkscape.org/namespaces/inkscape"
   xmlns:sodipodi="http://sodipodi.sourceforge.net/DTD/sodipodi-0.dtd"
   xmlns:xlink="http://www.w3.org/1999/xlink"
   xmlns="http://www.w3.org/2000/svg"
   xmlns:svg="http://www.w3.org/2000/svg">
  <sodipodi:namedview
     id="namedview1"
     pagecolor="#ffffff"
     bordercolor="#666666"
     borderopacity="1.0"
     inkscape:showpageshadow="2"
     inkscape:pageopacity="0.0"
     inkscape:pagecheckerboard="0"
     inkscape:deskcolor="#d1d1d1"
     inkscape:document-units="px"
     inkscape:zoom="1.4142136"
     inkscape:cx="189.85817"
     inkscape:cy="131.52186"
     inkscape:window-width="1848"
     inkscape:window-height="1016"
     inkscape:window-x="72"
     inkscape:window-y="27"
     inkscape:window-maximized="1"
     inkscape:current-layer="layer5" />
  <defs
     id="defs1">
    <clipPath
       clipPathUnits="userSpaceOnUse"
       id="clipPath5">
      <path
         id="path6"
         style="fill:#ffffff;fill-rule:evenodd;stroke-linecap:square"
         d="m -11.214609,-103.62497 c 3.7396129,0.3982 4.7375636,1.69979 5.6213855,4.296753 l -0.613106,0.509256 c -0.5536248,-1.823379 -4.0757905,-2.654539 -5.1743265,-2.508749 z"
         sodipodi:nodetypes="ccccc"
         inkscape:label="eye" />
    </clipPath>
    <clipPath
       clipPathUnits="userSpaceOnUse"
       id="clipPath6">
      <path
         id="path7"
         style="fill:#ffffff;fill-rule:evenodd;stroke-linecap:square"
         d="m -19.477514,-102.59011 0.06501,0.75042 c 0.52966,0.15078 2.909797,-0.85633 3.64862,-0.0223 0.63436,-0.52092 0.88515,-1.47924 0.769991,-1.96359 -1.674074,-0.40531 -3.700819,0.35074 -4.483618,1.23548 z"
         sodipodi:nodetypes="ccccc"
         inkscape:label="gird" />
    </clipPath>
  </defs>
  <g
     id="g93"
     display="inline"
     inkscape:label="wonderland"
     inkscape:groupmode="layer"
     sodipodi:insensitive="true">
    <path
       id="rect108"
       style="fill:#f4d7d7;fill-rule:evenodd;stroke:#db8484;stroke-linecap:square;stroke-opacity:0.995862"
       d="m -8.9172038,-398.91729 219.9328638,93.79614 -3.467,520.0635 L -2.9209521,102.40594 Z"
       sodipodi:nodetypes="ccccc"
       inkscape:export-filename="../../../../../../nn/content/svg/isometric/go_ask_alice_2.svg"
       inkscape:export-xdpi="96"
       inkscape:export-ydpi="96" />
    <path
       id="path108"
       style="fill:#e9c0c0;fill-opacity:1;fill-rule:evenodd;stroke:#e99c9c;stroke-linecap:square;stroke-opacity:0.995862"
       d="M -0.39422779,-396.04146 -196.8839,-339.27028 -195.65861,196.21239 -2.9209521,102.40594 Z"
       sodipodi:nodetypes="ccccc" />
    <g
       id="g94"
       inkscape:label="grid"
       transform="matrix(1.5639588,0,0,1.7483777,5.9021996,79.843663)">
      <path
         id="path33"
         style="fill:#ffaaaa;fill-rule:evenodd;stroke-width:0.0113777;stroke-linecap:square"
         d="M 0.80956,-14.55314 33.44715,-0.30274 1.89239,14.43669 -30.7452,0.18628 Z" />
      <path
         id="path55"
         style="fill:#ff8080;fill-rule:evenodd;stroke-width:0.0113777;stroke-linecap:square"
         d="M 32.90568,-28.46825 65.543273,-14.21784 33.98851,0.52158 1.35091,-13.72882 Z" />
      <path
         id="path58"
         style="fill:#ffaaaa;fill-rule:evenodd;stroke-width:0.0113777;stroke-linecap:square"
         d="M 63.932013,-43.54293 96.569605,-29.29253 65.014846,-14.5531 32.37725,-28.80351 Z" />
      <path
         id="path66"
         style="fill:#ff8080;fill-rule:evenodd;stroke-width:0.0113777;stroke-linecap:square"
         d="m 96.028142,-57.45807 32.637588,14.2504 -31.554755,14.73943 -32.637592,-14.25041 z" />
      <path
         id="path71"
         style="fill:#ffaaaa;fill-rule:evenodd;stroke-width:0.0113777;stroke-linecap:square"
         d="m 0.07912,-42.81389 32.63759,14.25041 -31.55476,14.73942 -32.63759,-14.2504 z" />
      <path
         id="path72"
         style="fill:#ff8080;fill-rule:evenodd;stroke-width:0.0113777;stroke-linecap:square"
         d="m -31.58718,-28.73468 32.6376,14.25041 -31.55477,14.73943 -32.6376,-14.25041 z" />
      <path
         id="path73"
         style="fill:#ffaaaa;fill-rule:evenodd;stroke-width:0.0113777;stroke-linecap:square"
         d="m 63.535709,-71.66726 32.637592,14.2504 -31.554759,14.73942 -32.637592,-14.2504 z" />
      <path
         id="path74"
         style="fill:#ff8080;fill-rule:evenodd;stroke-width:0.0113777;stroke-linecap:square"
         d="M 31.59219,-57.42497 64.229786,-43.17457 32.67502,-28.43514 0.03743,-42.68555 Z" />
      <path
         id="path75"
         style="fill:#ffaaaa;fill-rule:evenodd;stroke-width:0.0113777;stroke-linecap:square"
         d="m -63.14403,-42.84095 32.63759,14.25041 -31.55476,14.73942 -32.63759,-14.25041 z" />
      <path
         id="path81"
         style="fill:#ff8080;fill-rule:evenodd;stroke-width:0.0113777;stroke-linecap:square"
         d="m -31.04789,-56.75606 32.63759,14.25041 -31.55477,14.73942 -32.63759,-14.2504 z" />
      <path
         id="path88"
         style="fill:#ffaaaa;fill-rule:evenodd;stroke-width:0.0113777;stroke-linecap:square"
         d="m -0.02156,-71.83074 32.63759,14.2504 -31.55476,14.73942 -32.63759,-14.2504 z" />
      <path
         id="path89"
         style="fill:#ff8080;fill-rule:evenodd;stroke-width:0.0113777;stroke-linecap:square"
         d="M 32.07456,-85.74588 64.71215,-71.49547 33.15738,-56.75605 0.51979,-71.00645 Z" />
      <path
         id="path90"
         style="fill:#ffaaaa;fill-rule:evenodd;stroke-width:0.0113777;stroke-linecap:square"
         d="m -63.87445,-71.1017 32.6376,14.2504 -31.55477,14.73943 -32.63759,-14.25041 z" />
      <path
         id="path91"
         style="fill:#ff8080;fill-rule:evenodd;stroke-width:0.0113777;stroke-linecap:square"
         d="m -95.54072,-57.02251 32.6376,14.25041 -31.55476,14.73942 -32.6376,-14.25041 z" />
      <path
         id="path92"
         style="fill:#ffaaaa;fill-rule:evenodd;stroke-width:0.0113777;stroke-linecap:square"
         d="m -0.41787,-99.95507 32.6376,14.2504 -31.55476,14.73942 -32.6376,-14.2504 z" />
      <path
         id="path93"
         style="fill:#ff8080;fill-rule:evenodd;stroke-width:0.0113777;stroke-linecap:square"
         d="m -32.36135,-85.71277 32.63759,14.2504 -31.55477,14.73943 -32.63759,-14.25041 z" />
    </g>
    <g
       id="g121"
       inkscape:label="grid"
       transform="matrix(1.5639588,0,0,1.7483777,-192.37795,180.21171)">
      <path
         id="path105"
         style="fill:#ffaaaa;fill-rule:evenodd;stroke-width:0.0113777;stroke-linecap:square"
         d="M 0.80956,-14.55314 33.44715,-0.30274 1.89239,14.43669 -30.7452,0.18628 Z" />
      <path
         id="path106"
         style="fill:#ff8080;fill-rule:evenodd;stroke-width:0.0113777;stroke-linecap:square"
         d="M 32.90568,-28.46825 65.543273,-14.21784 33.98851,0.52158 1.35091,-13.72882 Z" />
      <path
         id="path107"
         style="fill:#ffaaaa;fill-rule:evenodd;stroke-width:0.0113777;stroke-linecap:square"
         d="M 63.932013,-43.54293 96.569605,-29.29253 65.014846,-14.5531 32.37725,-28.80351 Z" />
      <path
         id="path109"
         style="fill:#ff8080;fill-rule:evenodd;stroke-width:0.0113777;stroke-linecap:square"
         d="m 96.028142,-57.45807 32.637588,14.2504 -31.554755,14.73943 -32.637592,-14.25041 z" />
      <path
         id="path110"
         style="fill:#ffaaaa;fill-rule:evenodd;stroke-width:0.0113777;stroke-linecap:square"
         d="m 0.07912,-42.81389 32.63759,14.25041 -31.55476,14.73942 -32.63759,-14.2504 z" />
      <path
         id="path111"
         style="fill:#ff8080;fill-rule:evenodd;stroke-width:0.0113777;stroke-linecap:square"
         d="m -31.58718,-28.73468 32.6376,14.25041 -31.55477,14.73943 -32.6376,-14.25041 z" />
      <path
         id="path112"
         style="fill:#ffaaaa;fill-rule:evenodd;stroke-width:0.0113777;stroke-linecap:square"
         d="m 63.535709,-71.66726 32.637592,14.2504 -31.554759,14.73942 -32.637592,-14.2504 z" />
      <path
         id="path113"
         style="fill:#ff8080;fill-rule:evenodd;stroke-width:0.0113777;stroke-linecap:square"
         d="M 31.59219,-57.42497 64.229786,-43.17457 32.67502,-28.43514 0.03743,-42.68555 Z" />
      <path
         id="path114"
         style="fill:#ffaaaa;fill-rule:evenodd;stroke-width:0.0113777;stroke-linecap:square"
         d="m -63.14403,-42.84095 32.63759,14.25041 -31.55476,14.73942 -32.63759,-14.25041 z" />
      <path
         id="path115"
         style="fill:#ff8080;fill-rule:evenodd;stroke-width:0.0113777;stroke-linecap:square"
         d="m -31.04789,-56.75606 32.63759,14.25041 -31.55477,14.73942 -32.63759,-14.2504 z" />
      <path
         id="path116"
         style="fill:#ffaaaa;fill-rule:evenodd;stroke-width:0.0113777;stroke-linecap:square"
         d="m -0.02156,-71.83074 32.63759,14.2504 -31.55476,14.73942 -32.63759,-14.2504 z" />
      <path
         id="path117"
         style="fill:#ff8080;fill-rule:evenodd;stroke-width:0.0113777;stroke-linecap:square"
         d="M 32.07456,-85.74588 64.71215,-71.49547 33.15738,-56.75605 0.51979,-71.00645 Z" />
      <path
         id="path118"
         style="fill:#ffaaaa;fill-rule:evenodd;stroke-width:0.0113777;stroke-linecap:square"
         d="m -63.87445,-71.1017 32.6376,14.2504 -31.55477,14.73943 -32.63759,-14.25041 z" />
      <path
         id="path119"
         style="fill:#ff8080;fill-rule:evenodd;stroke-width:0.0113777;stroke-linecap:square"
         d="m -95.54072,-57.02251 32.6376,14.25041 -31.55476,14.73942 -32.6376,-14.25041 z" />
      <path
         id="path120"
         style="fill:#ffaaaa;fill-rule:evenodd;stroke-width:0.0113777;stroke-linecap:square"
         d="m -0.41787,-99.95507 32.6376,14.2504 -31.55476,14.73942 -32.6376,-14.2504 z" />
      <path
         id="path121"
         style="fill:#ff8080;fill-rule:evenodd;stroke-width:0.0113777;stroke-linecap:square"
         d="m -32.36135,-85.71277 32.63759,14.2504 -31.55477,14.73943 -32.63759,-14.25041 z" />
    </g>
    <g
       id="g142"
       inkscape:label="grid"
       transform="matrix(1.5639588,0,0,1.7483777,206.85155,179.18327)">
      <path
         id="path122"
         style="fill:#ffaaaa;fill-rule:evenodd;stroke-width:0.0113777;stroke-linecap:square"
         d="M 0.80956,-14.55314 33.44715,-0.30274 1.89239,14.43669 -30.7452,0.18628 Z" />
      <path
         id="path123"
         style="fill:#ff8080;fill-rule:evenodd;stroke-width:0.0113777;stroke-linecap:square"
         d="M 32.90568,-28.46825 65.543273,-14.21784 33.98851,0.52158 1.35091,-13.72882 Z" />
      <path
         id="path124"
         style="fill:#ffaaaa;fill-rule:evenodd;stroke-width:0.0113777;stroke-linecap:square"
         d="M 63.932013,-43.54293 96.569605,-29.29253 65.014846,-14.5531 32.37725,-28.80351 Z" />
      <path
         id="path125"
         style="fill:#ff8080;fill-rule:evenodd;stroke-width:0.0113777;stroke-linecap:square"
         d="m 96.028142,-57.45807 32.637588,14.2504 -31.554755,14.73943 -32.637592,-14.25041 z" />
      <path
         id="path127"
         style="fill:#ffaaaa;fill-rule:evenodd;stroke-width:0.0113777;stroke-linecap:square"
         d="m 0.07912,-42.81389 32.63759,14.25041 -31.55476,14.73942 -32.63759,-14.2504 z" />
      <path
         id="path128"
         style="fill:#ff8080;fill-rule:evenodd;stroke-width:0.0113777;stroke-linecap:square"
         d="m -31.58718,-28.73468 32.6376,14.25041 -31.55477,14.73943 -32.6376,-14.25041 z" />
      <path
         id="path129"
         style="fill:#ffaaaa;fill-rule:evenodd;stroke-width:0.0113777;stroke-linecap:square"
         d="m 63.535709,-71.66726 32.637592,14.2504 -31.554759,14.73942 -32.637592,-14.2504 z" />
      <path
         id="path131"
         style="fill:#ff8080;fill-rule:evenodd;stroke-width:0.0113777;stroke-linecap:square"
         d="M 31.59219,-57.42497 64.229786,-43.17457 32.67502,-28.43514 0.03743,-42.68555 Z" />
      <path
         id="path132"
         style="fill:#ffaaaa;fill-rule:evenodd;stroke-width:0.0113777;stroke-linecap:square"
         d="m -63.14403,-42.84095 32.63759,14.25041 -31.55476,14.73942 -32.63759,-14.25041 z" />
      <path
         id="path133"
         style="fill:#ff8080;fill-rule:evenodd;stroke-width:0.0113777;stroke-linecap:square"
         d="m -31.04789,-56.75606 32.63759,14.25041 -31.55477,14.73942 -32.63759,-14.2504 z" />
      <path
         id="path134"
         style="fill:#ffaaaa;fill-rule:evenodd;stroke-width:0.0113777;stroke-linecap:square"
         d="m -0.02156,-71.83074 32.63759,14.2504 -31.55476,14.73942 -32.63759,-14.2504 z" />
      <path
         id="path135"
         style="fill:#ff8080;fill-rule:evenodd;stroke-width:0.0113777;stroke-linecap:square"
         d="M 32.07456,-85.74588 64.71215,-71.49547 33.15738,-56.75605 0.51979,-71.00645 Z" />
      <path
         id="path136"
         style="fill:#ffaaaa;fill-rule:evenodd;stroke-width:0.0113777;stroke-linecap:square"
         d="m -63.87445,-71.1017 32.6376,14.2504 -31.55477,14.73943 -32.63759,-14.25041 z" />
      <path
         id="path137"
         style="fill:#ff8080;fill-rule:evenodd;stroke-width:0.0113777;stroke-linecap:square"
         d="m -95.54072,-57.02251 32.6376,14.25041 -31.55476,14.73942 -32.6376,-14.25041 z" />
      <path
         id="path141"
         style="fill:#ffaaaa;fill-rule:evenodd;stroke-width:0.0113777;stroke-linecap:square"
         d="m -0.41787,-99.95507 32.6376,14.2504 -31.55476,14.73942 -32.6376,-14.2504 z" />
      <path
         id="path142"
         style="fill:#ff8080;fill-rule:evenodd;stroke-width:0.0113777;stroke-linecap:square"
         d="m -32.36135,-85.71277 32.63759,14.2504 -31.55477,14.73943 -32.63759,-14.25041 z" />
    </g>
  </g>
  <g
     inkscape:groupmode="layer"
     id="layer4"
     inkscape:label="shadow"
     transform="matrix(1.0130057,0,0,1.1598878,-9.1679824,5.0357889)"
     style="display:none"
     sodipodi:insensitive="true">
    <path
       id="path47"
       style="fill:#1a1a1a;fill-opacity:0.26393;fill-rule:evenodd;stroke-width:0.484028;stroke-linecap:square"
       inkscape:label="shadow"
       d="m 84.676614,-35.300089 c -4.001663,-2.031493 -9.031107,-1.99819 -13.087314,-0.19916 -1.37291,0.796709 -5.193972,3.838485 -7.948596,4.836657 -1.888838,1.20272 -1.391758,5.248052 -3.984847,2.296762 -2.901871,-2.59016 -10.138066,-2.475446 -12.463026,0.08261 -0.349708,1.689916 -3.453711,1.606424 -4.82601,2.148381 -2.422126,0.843432 -7.211625,2.262792 -9.788367,2.452715 -2.76511,0.363687 -5.34783,3.89819 -6.987421,0.311422 -1.593418,-0.279536 -6.522854,0.654317 -2.307891,0.687723 1.668441,0.03259 2.180545,2.595925 0.05897,1.205118 -2.858556,-0.172927 -1.270374,0.607626 0.345203,0.889866 3.145826,1.85965 6.885518,0.20778 10.263517,0.110647 3.423332,-0.482059 12.03481,-1.321568 15.423224,-2.000124 -2.835225,2.906477 -6.332251,5.434969 -10.628154,4.951863 -5.425036,0.382965 -11.2219,1.77729 -16.417665,-0.439369 -3.712692,0.668322 -5.697,3.733325 -7.880608,6.383113 -1.425946,1.209991 -4.8350822,2.1014539 -1.669879,3.7167284 1.138776,1.3810296 6.157568,1.845689 3.068399,3.4805091 C 12.525201,-1.9322222 9.3407746,0.96807351 5.4456773,2.4355785 3.9612897,2.496083 3.4285845,2.2021702 4.5804179,2.4975271 L 1.5842358,5.0684735 5.0297077,15.549953 C 6.6303227,13.499651 8.4280358,11.549435 9.9051462,9.4364185 L 11.917937,6.1885083 c 4.661895,-1.6752876 8.733878,-2.7376303 13.437996,-4.2974886 3.730658,2.7780011 8.757243,1.2486773 12.957712,2.6831604 3.626371,1.0726848 8.144877,1.0420535 11.301979,-0.7722278 -0.412278,-1.3763301 -1.786057,-5.7521403 0.510659,-2.82717297 -0.07787,2.38176697 2.430876,-1.16290768 2.137918,-2.56923703 1.759507,1.38315585 -0.383644,-1.6027798 -0.63811,-2.4636027 2.290759,-1.701119 5.369456,-2.528428 7.566412,-4.4220497 L 70.64437,-11.480027 c 3.571835,0.45767 2.529106,-4.186812 4.994189,-6.541374 4.069636,-0.836096 3.524959,-4.549438 6.207299,-6.578881 2.585356,-1.712352 6.117019,-3.940378 5.704067,-7.489859 -0.339911,-1.481561 -1.597471,-2.515986 -2.873311,-3.209948 z m -21.852747,19.984331 c -2.438538,2.079738 -7.921068,4.496686 -10.718926,6.0982277 -1.346799,0.7841595 -4.299997,5.0571343 -4.388912,4.3117791 1.058496,-2.4948634 3.450698,-4.6296422 4.289528,-6.9505218 2.808295,-1.294068 7.80645,-2.771668 10.81831,-3.459485 z"
       sodipodi:nodetypes="sscccccssssccccccccsccccccccccccsccsccccc" />
  </g>
  <g
     inkscape:groupmode="layer"
     id="layer2"
     inkscape:label="alice"
     style="display:inline">
    <path
       style="fill:#666666;fill-opacity:1;fill-rule:evenodd;stroke-width:0.899794;stroke-linecap:square"
       d="M 0.18381965,-14.701934 C 4.6155959,-15.067875 5.831089,-17.567607 6.1623256,-20.653984 3.2907667,-26.980653 0.309807,-30.215679 -2.6164523,-34.996526 l -15.4367437,-0.167036 7.259069,10.389238"
       id="path18"
       sodipodi:nodetypes="ccccc" />
    <path
       id="path1"
       style="fill:#666666;fill-opacity:1;fill-rule:evenodd;stroke-width:0.899794;stroke-linecap:square"
       d="M 15.534426,-24.562999 4.5705116,-33.625212 11.350791,-47.494198 19.601307,-37.0578 c 10.168926,-4.905886 10.653183,1.795772 15.304005,-3.772152 l 7.518502,3.597743 -3.336355,1.42065 -2.918209,0.927787 c -3.837768,2.351942 -6.615835,2.499335 -11.513305,7.055825 -2.316418,3.795887 -6.214895,4.354432 -9.121519,3.264948 z"
       sodipodi:nodetypes="cccccccccc"
       inkscape:label="legs" />
    <path
       id="path19"
       style="display:inline;fill:#ffffff;fill-opacity:1;fill-rule:evenodd;stroke-width:0.899794;stroke-linecap:square"
       d="M 15.961117,-24.793281 4.5705116,-33.625212 11.350791,-47.494198 19.601307,-37.0578 c 10.18819,-4.365809 11.404068,2.057232 14.851101,-3.613903 l 7.971406,3.439494 -3.336355,1.42065 -2.918209,0.927787 c -3.837768,2.351942 -6.838896,2.10721 -11.736366,6.6637 -2.316418,3.795887 -5.565143,4.516275 -8.471767,3.426791 z"
       sodipodi:nodetypes="cccccccccc"
       inkscape:label="legs" />
    <rect
       style="display:none;fill:#ffaaaa;fill-rule:evenodd;stroke-width:1.01517;stroke-linecap:square"
       id="rect19"
       width="79.056938"
       height="79.056938"
       x="-39.528469"
       y="-39.528469"
       transform="matrix(0.89442719,0.4472136,-0.89442719,0.4472136,0,0)"
       inkscape:label="gird"
       sodipodi:insensitive="true" />
    <path
       id="rect21"
       style="display:none;fill:#ff8080;fill-opacity:0.502959;fill-rule:evenodd;stroke-width:0.898872;stroke-linecap:square"
       d="m 1.9883528,-150.61743 70.0000002,35 L 69.940206,1.0246436 -0.05979336,-33.975356 Z"
       sodipodi:nodetypes="ccccc"
       inkscape:label="back"
       sodipodi:insensitive="true" />
    <path
       style="fill:#d38d5f;fill-opacity:1;fill-rule:evenodd;stroke-width:0.811012;stroke-linecap:square"
       sodipodi:type="inkscape:offset"
       inkscape:radius="0.27973524"
       inkscape:original="M 14.535156 -81.392578 L 8.0332031 -79.984375 L 7.8671875 -73.162109 L 15.392578 -58.251953 C 16.59526 -54.527393 20.764183 -50.207072 23.794922 -46.115234 C 24.626839 -45.4029 25.437479 -44.915 26.953125 -44.744141 L 29.181641 -44.677734 L 32.644531 -43.841797 C 32.866204 -44.51716 32.366467 -44.8637 31.291016 -45.539062 C 30.405841 -45.771761 28.8278 -45.966861 29.121094 -46.457031 C 29.804227 -47.16915 32.525192 -48.341445 33.216797 -48.109375 C 33.58887 -48.206765 34.054511 -47.756794 35.189453 -46.763672 C 35.531909 -46.464006 36.678245 -46.34396 36.734375 -46.447266 C 36.094188 -47.353032 35.89531 -47.316561 35.564453 -48.039062 C 34.974777 -48.744751 33.480509 -50.127682 32.890625 -50.482422 C 30.636292 -50.056208 27.050204 -48.093449 25.96875 -49.234375 C 24.143895 -52.749355 23.920101 -55.899698 20.484375 -59.78125 L 14.535156 -81.392578 z "
       xlink:href="#path64"
       id="path14"
       inkscape:href="#path64"
       d="m 14.476563,-81.666016 -6.5019536,1.408204 a 0.27976321,0.27976321 0 0 0 -0.2207032,0.267578 l -0.1660156,6.822265 a 0.27976321,0.27976321 0 0 0 0.029297,0.132813 L 15.142578,-58.125 c 1.257385,3.834059 5.424449,8.121008 8.427734,12.175781 a 0.27976321,0.27976321 0 0 0 0.04297,0.04687 c 0.852176,0.729681 1.745076,1.259292 3.308594,1.435547 a 0.27976321,0.27976321 0 0 0 0.02344,0.002 l 2.199219,0.06641 3.433594,0.828125 a 0.27976321,0.27976321 0 0 0 0.332031,-0.183594 c 0.134682,-0.410332 0.02724,-0.821408 -0.248047,-1.125 -0.275286,-0.303592 -0.683208,-0.557722 -1.222656,-0.896485 a 0.27976321,0.27976321 0 0 0 -0.07813,-0.03516 c -0.463527,-0.121854 -1.075709,-0.228149 -1.517578,-0.359375 -0.195857,-0.05817 -0.330978,-0.123184 -0.410156,-0.171875 0.323075,-0.284659 1.068922,-0.717661 1.839843,-1.037109 0.415821,-0.172305 0.831177,-0.315003 1.173829,-0.398438 0.342651,-0.08343 0.626572,-0.08423 0.679687,-0.06641 a 0.27976321,0.27976321 0 0 0 0.160156,0.0059 c 0.05629,-0.01473 0.181168,0.0079 0.464844,0.216797 0.283676,0.208912 0.684947,0.570496 1.253906,1.06836 0.273706,0.239505 0.659362,0.31659 1.019532,0.375 0.180084,0.0292 0.347757,0.04523 0.488281,0.04687 0.07026,8.2e-4 0.133231,-0.0014 0.197265,-0.01172 0.03202,-0.0052 0.06304,-0.01197 0.105469,-0.0293 0.04243,-0.01733 0.110168,-0.04339 0.164063,-0.142578 a 0.27976321,0.27976321 0 0 0 -0.01758,-0.294922 c -0.328995,-0.465477 -0.554259,-0.699813 -0.71875,-0.886719 -0.164491,-0.186906 -0.269929,-0.319817 -0.425782,-0.660156 a 0.27976321,0.27976321 0 0 0 -0.03906,-0.0625 c -0.311735,-0.373066 -0.835989,-0.894855 -1.363281,-1.378906 -0.527293,-0.484052 -1.037735,-0.918655 -1.38086,-1.125 a 0.27976321,0.27976321 0 0 0 -0.197265,-0.03516 c -1.17758,0.222638 -2.634958,0.823133 -3.929688,1.21875 -0.647365,0.197808 -1.251958,0.34324 -1.734375,0.371093 -0.469204,0.02709 -0.788495,-0.0594 -0.980469,-0.248047 -1.763945,-3.425341 -2.039574,-6.607251 -5.455078,-10.49414 l -5.933593,-21.556641 a 0.27976321,0.27976321 0 0 0 -0.328125,-0.199219 z" />
    <path
       id="path64"
       style="fill:#ffe6d5;fill-opacity:1;fill-rule:evenodd;stroke-width:0.811012;stroke-linecap:square"
       d="m 7.8670729,-73.162439 0.166844,-6.821822 6.5017461,-1.409086 5.948888,21.611364 c 3.435726,3.881552 3.66011,7.032326 5.484965,10.547306 1.081454,1.140926 4.666178,-0.82231 6.920511,-1.248524 0.589884,0.35474 2.084917,1.738225 2.674593,2.443914 0.330857,0.722501 0.529452,0.685762 1.169639,1.591528 -0.05613,0.103306 -1.202534,-0.01694 -1.54499,-0.316606 -1.134942,-0.993122 -1.599618,-1.442292 -1.971691,-1.344902 -0.691605,-0.23207 -3.413592,0.940315 -4.096725,1.652434 -0.293294,0.49017 1.285046,0.685301 2.170221,0.917999 1.075451,0.675363 1.575005,1.022563 1.353332,1.697926 l -3.462039,-0.836203 -2.228413,-0.06668 c -1.515646,-0.170859 -2.326308,-0.658188 -3.158225,-1.370522 -3.030739,-4.091838 -7.199796,-8.412379 -8.402478,-12.136939 z"
       sodipodi:nodetypes="ccccccccsccccccccc"
       inkscape:label="arm" />
    <path
       style="fill:#ffffff;fill-opacity:1;fill-rule:evenodd;stroke-width:0.899794;stroke-linecap:square"
       d="M -0.34553937,-15.042869 C 4.0862369,-15.40881 5.3989226,-17.58869 5.7301592,-20.675067 2.8586003,-27.001736 0.309807,-30.215679 -2.6164523,-34.996526 l -15.4367437,-0.167036 7.98748,10.580931"
       id="path2"
       sodipodi:nodetypes="ccccc" />
    <path
       style="fill:#2d7587;fill-opacity:1;fill-rule:evenodd;stroke-width:0.823841;stroke-linecap:square"
       sodipodi:type="inkscape:offset"
       inkscape:radius="0.26634407"
       inkscape:original="M -6.6542969 -93.615234 C -9.6897329 -93.578964 -14.588663 -91.318249 -21.005859 -90.431641 C -24.356567 -89.714301 -26.517415 -88.610094 -27.865234 -87.283203 C -28.207291 -87.043493 -28.463791 -86.79436 -28.615234 -86.542969 C -28.691944 -86.391885 -28.762342 -86.246677 -28.833984 -86.099609 C -29.117781 -85.649638 -29.311495 -85.177277 -29.466797 -84.697266 C -32.122681 -78.276602 -29.448727 -76.082289 -27.089844 -73.638672 C -25.411166 -72.99225 -23.778383 -72.805265 -22.166016 -72.824219 L -19.283203 -71.386719 L -19.369141 -66.146484 C -18.475317 -63.255414 -17.565939 -58.527078 -17.396484 -55.474609 C -24.174191 -49.265632 -25.202257 -48.653326 -29.791016 -43.634766 C -32.603054 -39.556166 -37.045934 -30.869843 -43.962891 -31.380859 C -43.542727 -26.560298 -43.142908 -25.782785 -35.476562 -23.515625 C -31.656679 -22.949126 -17.941564 -17.052433 -12.025391 -25.703125 C -11.001958 -27.1996 -11.293877 -30.337542 -9.7480469 -31.171875 C 0.79058415 -36.859905 1.9668362 -21.493514 10.455078 -25.542969 C 13.769189 -27.389466 11.871142 -32.208623 13.457031 -33.955078 C 15.399082 -36.093755 18.239402 -36.569317 19.849609 -36.978516 C 21.579567 -37.418145 23.086145 -37.956668 23.394531 -38.501953 C 16.661984 -38.725439 15.65968 -46.464269 11.666016 -49.722656 C 7.0887779 -53.457176 5.1410913 -54.806306 1.4628906 -57.662109 C 1.041962 -60.54709 2.1704689 -61.16177 3.4472656 -64.121094 C 4.7014734 -64.777413 10.146434 -69.18507 9.5644531 -73.943359 C 12.120209 -74.255742 15.288989 -73.905109 16.443359 -75.734375 C 20.837179 -81.10291 18.757301 -86.728931 16.675781 -88.162109 C 13.484702 -90.359247 9.9290974 -92.260766 5.9375 -92.783203 L -6.0722656 -93.591797 C -6.2579667 -93.610227 -6.4519345 -93.617654 -6.6542969 -93.615234 z "
       xlink:href="#path34"
       id="path15"
       inkscape:href="#path34"
       d="m -6.6582031,-93.880859 c -3.1642252,0.03781 -8.0101759,2.304825 -14.3847659,3.185547 a 0.2663707,0.2663707 0 0 0 -0.01953,0.0039 c -3.35763,0.718822 -5.556841,1.828379 -6.955078,3.189453 -0.0017,0.0012 -0.0022,0.0027 -0.0039,0.0039 -0.359383,0.252513 -0.643217,0.521144 -0.822266,0.81836 a 0.2663707,0.2663707 0 0 0 -0.0098,0.01563 c -0.07812,0.153857 -0.149205,0.300494 -0.220703,0.447265 l 0.01563,-0.02539 c -0.29557,0.468638 -0.495763,0.956739 -0.654297,1.443359 -0.0015,0.0036 -0.0024,0.0062 -0.0039,0.0098 -0.001,0.0032 -0.0029,0.0065 -0.0039,0.0098 -1.335275,3.237808 -1.344619,5.473073 -0.6875,7.197266 0.65857,1.728001 1.954771,2.914618 3.126953,4.128906 a 0.2663707,0.2663707 0 0 0 0.0957,0.0625 c 1.689621,0.650636 3.334878,0.838529 4.945313,0.826172 l 2.6875,1.341797 -0.08203,5.072265 a 0.2663707,0.2663707 0 0 0 0.01172,0.08203 c 0.873913,2.826667 1.766164,7.467267 1.949219,10.486328 -6.647642,6.085323 -7.751759,6.777524 -12.314453,11.767578 a 0.2663707,0.2663707 0 0 0 -0.02148,0.0293 c -1.418965,2.058077 -3.226258,5.233714 -5.527343,7.822265 -2.301085,2.588552 -5.062539,4.563436 -8.40625,4.316407 a 0.2663707,0.2663707 0 0 0 -0.285157,0.289062 c 0.105305,1.208162 0.208419,2.171977 0.433594,2.990235 0.225175,0.818257 0.581155,1.493819 1.171875,2.068359 1.181441,1.14908 3.230411,1.903492 7.070313,3.039062 a 0.2663707,0.2663707 0 0 0 0.03711,0.0078 c 3.646091,0.540725 17.654659,6.554775 23.710937,-2.300781 0.567346,-0.829579 0.737217,-2.009317 0.982422,-3.072266 0.245206,-1.062949 0.557242,-1.964951 1.2011722,-2.3125 2.5887232,-1.397215 4.5419103,-1.485807 6.1972657,-0.931641 1.6553553,0.554167 3.02867371,1.781096 4.35937498,3.087891 1.33070122,1.306795 2.61306752,2.689319 4.13867182,3.501953 1.5256044,0.812634 3.3127946,1.018141 5.4960943,-0.02344 a 0.2663707,0.2663707 0 0 0 0.01367,-0.0078 c 0.881,-0.49086 1.428715,-1.194922 1.759766,-1.976562 0.331051,-0.78164 0.455444,-1.638189 0.525391,-2.476563 0.06995,-0.838374 0.08584,-1.661585 0.179687,-2.365234 0.09384,-0.703649 0.267754,-1.274577 0.605469,-1.646485 1.868374,-2.05754 4.626792,-2.529831 6.261719,-2.945312 0.87225,-0.221663 1.689272,-0.466867 2.339843,-0.732422 0.650572,-0.265555 1.143906,-0.516257 1.371094,-0.917969 a 0.2663707,0.2663707 0 0 0 -0.222656,-0.396484 c -3.264826,-0.108376 -5.105525,-2.011128 -6.679688,-4.355469 -1.574162,-2.344341 -2.822224,-5.119055 -4.890625,-6.80664 C 7.2992859,-53.6295 5.3269228,-55.005196 1.7246094,-57.798828 1.5453968,-59.13263 1.6980487,-59.927686 2.0625,-60.755859 c 0.3683301,-0.836988 0.9616166,-1.740903 1.5957031,-3.19336 0.7341868,-0.405288 2.3122442,-1.617074 3.7421875,-3.376953 1.4148418,-1.741293 2.6234924,-3.988027 2.4414063,-6.373047 1.1953091,-0.126146 2.5182641,-0.133705 3.7246091,-0.30664 1.28438,-0.184122 2.459283,-0.571645 3.09961,-1.583985 2.223223,-2.72824 2.823009,-5.544607 2.585937,-7.861328 -0.237747,-2.323315 -1.28507,-4.14428 -2.425781,-4.929687 -3.208071,-2.208837 -6.799644,-4.135428 -10.8535158,-4.666016 a 0.2663707,0.2663707 0 0 0 -0.017578,-0.002 L -6.046875,-93.857422 h -0.00781 c -0.1945038,-0.01899 -0.3952945,-0.02593 -0.6035156,-0.02344 z" />
    <path
       id="path34"
       style="fill:#55ddff;fill-opacity:1;fill-rule:evenodd;stroke-width:0.823841;stroke-linecap:square"
       inkscape:label="dress"
       d="m -6.6542969,-93.615234 c -3.035436,0.03627 -7.9343661,2.296985 -14.3515621,3.183593 -3.350708,0.71734 -5.511556,1.821547 -6.859375,3.148438 -0.342057,0.23971 -0.598557,0.488843 -0.75,0.740234 -0.07671,0.151084 -0.147108,0.296292 -0.21875,0.44336 -0.283797,0.449971 -0.477511,0.922332 -0.632813,1.402343 -2.655884,6.420664 0.01807,8.614977 2.376953,11.058594 1.678678,0.646422 3.311461,0.833407 4.923828,0.814453 l 2.882813,1.4375 -0.08594,5.240235 c 0.893824,2.89107 1.803202,7.619406 1.972657,10.671875 -6.777707,6.208977 -7.805773,6.821283 -12.394532,11.839843 -2.812038,4.0786 -7.254918,12.764923 -14.171875,12.253907 0.420164,4.820561 0.819983,5.598074 8.486329,7.865234 3.819883,0.566499 17.534998,6.463192 23.451171,-2.1875 1.023433,-1.496475 0.731514,-4.634417 2.2773441,-5.46875 10.53863103,-5.68803 11.714883,9.678361 20.2031249,5.628906 3.314111,-1.846497 1.416064,-6.665654 3.001953,-8.412109 1.942051,-2.138677 4.782371,-2.614239 6.392578,-3.023438 1.729958,-0.439629 3.236536,-0.978152 3.544922,-1.523437 -6.732547,-0.223486 -7.734851,-7.962316 -11.728515,-11.220703 -4.5772377,-3.73452 -6.5249247,-5.08365 -10.2031254,-7.939453 -0.4209286,-2.884981 0.7075783,-3.499661 1.984375,-6.458985 1.2542078,-0.656319 6.6991684,-5.063976 6.1171875,-9.822265 2.5557559,-0.312383 5.7245359,0.03825 6.8789059,-1.791016 4.39382,-5.368535 2.313942,-10.994556 0.232422,-12.427734 -3.191079,-2.197138 -6.7466836,-4.098657 -10.738281,-4.621094 l -12.0097656,-0.808594 c -0.1857011,-0.01843 -0.3796689,-0.02586 -0.5820313,-0.02344 z" />
    <path
       style="fill:#2d7587;fill-opacity:1;fill-rule:evenodd;stroke-linecap:square"
       sodipodi:type="inkscape:offset"
       inkscape:radius="0.23220238"
       inkscape:original="M -1.8007812 -94.740234 C -5.0734658 -94.565945 -8.6302833 -93.551049 -12.658203 -92.039062 C -9.1230014 -84.037224 -1.1897987 -70.584182 -7.7324219 -64.712891 C -8.8082603 -63.747443 -7.9065623 -61.350522 -8.0488281 -59.919922 L 0.59375 -60.496094 C 0.77602105 -64.515158 4.1984552 -65.984686 6.3125 -70.494141 C 8.6117254 -75.398603 10.214948 -85.097184 7.3535156 -92.402344 C 4.4597787 -94.248019 1.4719033 -94.914524 -1.8007812 -94.740234 z "
       xlink:href="#path45"
       id="path16"
       inkscape:href="#path45"
       d="m -1.8125,-94.972656 c -3.3115617,0.176359 -6.889719,1.20102 -10.927734,2.716797 a 0.2322256,0.2322256 0 0 0 -0.13086,0.310547 c 1.774107,4.015644 4.6367707,9.371076 6.2343753,14.4375 0.7988022,2.533211 1.2788549,4.991775 1.1601562,7.160156 -0.1186987,2.16838 -0.8246689,4.040088 -2.4101562,5.46289 -0.6330113,0.568059 -0.6606534,1.49428 -0.5859376,2.41211 0.074716,0.91783 0.2584482,1.874775 0.1933594,2.529297 a 0.2322256,0.2322256 0 0 0 0.2460938,0.255859 l 8.6425781,-0.576172 a 0.2322256,0.2322256 0 0 0 0.21679688,-0.222656 c 0.0882135,-1.945102 0.94926532,-3.256188 2.08398442,-4.679688 1.134719,-1.4235 2.5399326,-2.940916 3.6132812,-5.230468 2.331554,-4.973422 3.9445025,-14.69228 1.046875,-22.089844 a 0.2322256,0.2322256 0 0 0 -0.091797,-0.111328 c -2.9334631,-1.871013 -5.9794469,-2.551361 -9.2910156,-2.375 z" />
    <path
       id="path45"
       style="fill:#f9f9f9;fill-opacity:1;fill-rule:evenodd;stroke-linecap:square"
       d="m 7.3538079,-92.402802 c -5.7874738,-3.69135 -11.9565552,-2.660502 -20.0123949,0.363471 3.5352017,8.001838 11.4689689,21.456046 4.9263457,27.327337 -1.0758384,0.965448 -0.1741809,3.3611 -0.3164467,4.7917 l 8.64165974,-0.576115 c 0.18227105,-4.019064 3.60471256,-5.487947 5.71875736,-9.997402 2.2992254,-4.904462 3.9035109,-14.603831 1.0420788,-21.908991 z"
       sodipodi:nodetypes="ccsccsc"
       inkscape:label="lace" />
    <path
       id="path12"
       style="display:inline;fill:#d38d5f;fill-opacity:1;fill-rule:evenodd;stroke-linecap:square"
       d="m 19.739339,-111.24663 c -3.098631,-5.63086 -10.0774308,-7.98997 -14.4794868,-7.96931 -5.15340399,0.0242 -11.0744846,3.28388 -13.2042626,8.91331 -1.8073892,4.77729 -1.3701186,7.68438 -0.3530545,11.766192 l 4.0783086,7.27063 5.6558255,5.13986 c 1.020843,0.95332 2.077837,1.69931 3.356407,1.1745 3.678247,-1.58497 7.5341058,-2.10891 9.2448338,-4.73146 0.64638,-1.824 0.467519,-3.83488 3.036137,-5.22354 5.018863,-7.047662 5.621751,-10.124972 2.665292,-16.340182 z"
       sodipodi:nodetypes="cssccccccc"
       inkscape:label="head" />
    <path
       id="path40"
       style="display:inline;fill:#ffe6d5;fill-opacity:1;fill-rule:evenodd;stroke-linecap:square"
       d="m 19.739339,-111.24663 c -3.098631,-5.63086 -10.0774308,-7.98997 -14.4794868,-7.96931 -5.15340399,0.0242 -11.0744846,3.28388 -13.2042626,8.91331 -1.8073892,4.77729 -1.3701186,7.68438 -0.3530545,11.766192 l 4.2757393,6.934221 5.7220142,5.389966 c 1.020843,0.95332 2.1808021,1.439955 3.4593721,0.915145 3.678247,-1.58497 6.9717063,-1.977641 8.6824343,-4.600191 0.64638,-1.824 0.663334,-3.620491 3.231952,-5.009151 5.018863,-7.047662 5.621751,-10.124972 2.665292,-16.340182 z"
       sodipodi:nodetypes="cssccccccc"
       inkscape:label="head" />
    <path
       style="fill:#666666;fill-opacity:1;fill-rule:evenodd;stroke:none;stroke-width:0.899794;stroke-linecap:square"
       d="m -8.0197816,-25.024324 c -10.4824354,-0.926039 -14.6282754,3.237203 -22.6903454,4.295885 l -8.30666,5.448294 2.985096,5.117919 7.170772,-4.092471 29.04473865,-0.447237 2.43876475,-4.109802 z"
       id="path35"
       sodipodi:nodetypes="cccccccc" />
    <path
       id="path44"
       style="fill:#d38d5f;fill-opacity:1;fill-rule:evenodd;stroke-linecap:square"
       d="m -16.923964,-77.711574 c -4.493449,0.04068 -8.200622,0.708163 -7.176989,5.146947 3.410951,3.646481 9.922855,5.684045 12.120931,8.266433 0.536848,0.824574 0.990551,1.223958 1.514059,1.31907 1.0806379,0.196333 4.3374241,-1.294784 5.6797565,-2.178918 0.7080231,-0.466344 1.8507501,-2.329515 1.9599063,-5.440957 -2.4780102,-0.05762 -2.4294204,3.956864 -2.9368682,3.427985 -3.5596196,-3.709958 -6.7185576,-7.909869 -11.1607956,-10.54056 z"
       sodipodi:nodetypes="cccsscsc"
       inkscape:label="neck" />
    <path
       id="path9"
       style="fill:#ffe6d5;fill-opacity:1;fill-rule:evenodd;stroke-linecap:square"
       d="m -17.114241,-77.75928 c -4.493449,0.04068 -8.023201,0.464686 -6.999568,4.90347 3.410951,3.646481 10.095749,5.902507 12.293825,8.484895 0.536848,0.824574 0.866127,1.1148 1.389635,1.209912 1.0806379,0.196333 4.1931065,-1.324176 5.5354389,-2.20831 0.7080231,-0.466344 1.7534753,-2.417508 1.8626315,-5.52895 -2.4780102,-0.05762 -2.3449611,4.348396 -2.8524089,3.819517 -3.5596196,-3.709958 -7.0802885,-7.83035 -11.2295535,-10.680534 z"
       sodipodi:nodetypes="cccsscsc"
       inkscape:label="neck" />
    <path
       style="fill:#ffffff;fill-opacity:1;fill-rule:evenodd;stroke:none;stroke-width:0.899794;stroke-linecap:square"
       d="m -8.0197816,-25.024324 c -10.6466894,-0.04582 -14.0238514,3.646262 -22.0859214,4.704943 l -8.911084,5.039236 2.985096,5.117919 7.537433,-4.7242 29.47118953,-0.239757 2.98033157,-4.042487 z"
       id="path17"
       sodipodi:nodetypes="cccccccc" />
    <path
       id="path38"
       style="fill:#000000;fill-opacity:1;fill-rule:evenodd;stroke-width:0.395246;stroke-linecap:square"
       d="m -33.08494,-10.642753 c 1.145292,-0.676295 1.989578,-2.017496 4.891431,-3.856456 l -3.07541,0.670173 c -1.778315,1.289701 -6.667106,2.895844 -5.221046,-0.767471 1.42041,-3.223293 4.419281,-4.724529 6.788026,-6.268251 -1.640297,-0.362018 -1.308856,-0.603698 -3.553083,-0.837329 -2.386682,-0.271899 -3.400446,0.227194 -4.680621,1.225555 -2.547871,2.714391 -4.340663,6.644707 -6.074797,8.84118 -2.595141,6.1449501 -1.595859,9.1821404 2.195639,7.3265011 2.049809,-1.00322 6.237644,-4.9459643 8.729861,-6.3339021 z"
       sodipodi:nodetypes="ccccccccsc"
       inkscape:label="shoe" />
    <path
       id="path39"
       style="fill:#000000;fill-opacity:1;fill-rule:evenodd;stroke-width:0.395246;stroke-linecap:square"
       d="m 43.208533,-36.801737 c -2.624925,0.946567 -5.46104,2.130756 -7.211649,2.093577 l 3.914542,-2.077798 c 0.74604,-0.781865 -0.12143,-1.27764 -1.056913,-1.761356 -1.748969,-0.931256 -3.740992,-0.97178 -5.835959,-0.63504 l 0.206293,-2.424156 c 0.969332,-2.957987 6.218208,-1.177814 9.723048,-1.151054 2.33197,0.528394 5.983584,-0.206723 8.06418,2.989448 0.27866,1.642092 -5.309303,2.257412 -7.803542,2.966379 z"
       sodipodi:nodetypes="ccccccccc"
       inkscape:label="shoe" />
    <path
       style="color:#000000;fill:#2d7587;-inkscape-stroke:none"
       d="m -1.3708305,-40.765297 c -1.194539,4.377051 1.58292804,8.581724 4.4001274,13.230141 -2.14029261,-3.83424 -3.38428769,-6.335196 -4.0463677,-9.076347 -1.2679186,-5.249452 1.11096365,-4.532429 4.3198052,-3.286934 -1.5340877,-0.562299 -4.25335656,-2.406595 -4.6735649,-0.86686 z"
       id="path21"
       sodipodi:nodetypes="scscs" />
    <path
       style="color:#000000;fill:#2d7587;stroke-width:1.14565;-inkscape-stroke:none"
       d="m -26.626121,-41.435406 c 4.110695,-0.130732 4.804797,0.697876 3.075461,5.436362 -1.39079,3.810851 -3.52485,7.737491 -2.303852,10.97308 -1.471006,-4.623551 2.968668,-9.352661 3.677779,-14.538214 -0.012,-2.798936 -3.454909,-2.366847 -4.449389,-1.871226 z"
       id="path22"
       sodipodi:nodetypes="csccc" />
  </g>
  <g
     inkscape:groupmode="layer"
     id="layer3"
     inkscape:label="face"
     style="display:inline">
    <path
       id="path13"
       style="display:inline;fill:#aa8800;fill-opacity:1;fill-rule:evenodd;stroke-linecap:square"
       d="m 17.469592,-116.29715 c -2.575585,-2.08103 -22.6037646,-12.11364 -32.467034,14.75858 -5.987964,4.948596 -8.094236,5.534563 -5.83639,11.053429 1.788759,-0.05648 3.150795,-0.562437 4.563238,-0.746837 5.252721,0.155817 8.8675261,3.938214 11.4367101,-3.721684 2.4422659,-7.281498 9.7922274,-9.005788 16.6500749,-11.425258 1.671536,4.40893 5.566312,7.635009 5.695981,11.895306 6.71656,-7.267156 4.942715,-17.785496 -0.04258,-21.813536 z"
       sodipodi:nodetypes="scccsccs"
       inkscape:label="hair" />
    <path
       id="path42"
       style="display:inline;fill:#ffe680;fill-opacity:1;fill-rule:evenodd;stroke-linecap:square"
       d="m 17.314939,-115.89053 c -2.575585,-2.08103 -21.9145412,-12.16861 -31.777811,14.70361 -5.987964,4.9486 -8.032587,5.083579 -5.774741,10.602445 1.788759,-0.05648 2.579942,-0.846231 3.992385,-1.030631 5.252721,0.155817 8.3614567,4.140471 10.9306407,-3.519427 2.4422659,-7.281497 10.669977,-9.459687 17.5278243,-11.879157 1.671536,4.40893 5.374144,7.73693 5.503813,11.997227 5.23721,-6.687007 4.583184,-16.846027 -0.402109,-20.874067 z"
       sodipodi:nodetypes="scccsccss"
       inkscape:label="hair" />
    <path
       style="fill:#d38d5f;fill-opacity:1;stroke:none;stroke-width:1px;stroke-linecap:butt;stroke-linejoin:miter;stroke-opacity:1"
       d="m -5.2921842,-96.895567 c -0.4455015,0.900367 -0.8934611,1.83513 -1.3336043,2.660517 l 0.064171,2.273829 c 0.061599,1.520922 0.4623615,1.317362 0.7242406,1.819956 0.4141637,-1.428532 0.2292501,-2.171084 0.4672548,-3.485241 0.2018668,-1.114618 0.8578546,-2.070793 0.077938,-3.269061 z"
       id="path10"
       sodipodi:nodetypes="ccccsc"
       inkscape:label="thumb" />
    <path
       id="path62"
       style="fill:#c7a93a;fill-opacity:1;fill-rule:evenodd;stroke-width:2.7465;stroke-linecap:square"
       d="m -12.98511,-100.49441 c -0.825165,-8.16197 7.2974228,-17.2737 21.6021359,-18.25416 -15.3276885,0.76044 -21.9617679,10.18866 -21.9834829,18.26906 -0.694065,3.892705 -6.531529,2.914252 -6.610657,9.555868 0.07771,-6.682513 6.41232,-6.162762 6.992004,-9.570768 z"
       sodipodi:nodetypes="ccccc"
       inkscape:label="path62" />
    <path
       id="path52"
       style="fill:#2d7587;fill-opacity:1;fill-rule:evenodd;stroke-width:1.05488;stroke-linecap:square"
       d="m -16.311417,-77.531602 c -3.167743,-1.128855 -10.080816,-0.09852 -7.768305,4.480543 -0.568639,-3.621126 2.086815,-5.002372 7.768305,-4.480543 z"
       sodipodi:nodetypes="ccc" />
    <path
       style="color:#000000;fill:#c7a93a;fill-opacity:1;-inkscape-stroke:none"
       d="m 18.64029,-113.59152 c 3.971224,8.18086 2.138012,12.44332 1.81176,14.201083 l -0.04487,-0.232813 c 0.800685,-3.58012 0.522768,-9.7485 -1.766894,-13.96827 z"
       id="path76"
       sodipodi:nodetypes="cccc" />
    <path
       id="path85"
       style="fill:#c7a93a;fill-opacity:1;fill-rule:evenodd;stroke-width:3.17198;stroke-linecap:square"
       d="m -12.268835,-100.31404 c 0.513321,-12.28074 12.236484,-18.49295 22.930903,-17.46794 -12.7333791,-0.78218 -21.81426,7.10841 -22.76169,17.44868 -0.694065,5.192215 -6.413063,4.696146 -7.728797,9.476826 1.267955,-4.56454 6.9799,-4.911861 7.559584,-9.457566 z"
       sodipodi:nodetypes="ccccc" />
    <path
       style="color:#000000;fill:#c7a93a;fill-opacity:1;-inkscape-stroke:none"
       d="m 18.967335,-103.69898 c 1.718403,-4.98566 -4.412125,-6.19946 -4.32759,-10.62304 -0.513395,4.33389 5.862511,6.38088 4.32759,10.62304 z"
       id="path86"
       sodipodi:nodetypes="ccc"
       transform="translate(-0.75825119,6.6142998)" />
    <path
       style="color:#000000;fill:#c7a93a;fill-opacity:1;stroke-width:2.95097;-inkscape-stroke:none"
       d="m 10.607394,-107.58961 c -21.740458,0.48672 -14.4395156,14.077636 -23.992405,14.693884 3.3968651,-0.896615 4.461932,-1.331489 6.0341419,-5.453321 1.3218445,-3.626143 3.8995638,-7.423313 13.5661189,-9.168053 z"
       id="path87"
       sodipodi:nodetypes="ccccc" />
    <rect
       style="display:none;fill:#ffaaaa;fill-opacity:0.257494;fill-rule:evenodd;stroke-width:1.00497;stroke-linecap:square"
       id="rect20"
       width="78.262383"
       height="78.262383"
       x="-167.70509"
       y="-167.70509"
       transform="matrix(0.89442719,0.44721359,-0.89442719,0.44721359,0,0)"
       inkscape:label="top"
       sodipodi:insensitive="true" />
    <g
       id="g11"
       inkscape:label="face">
      <path
         id="path48"
         style="fill:#ffffff;fill-rule:evenodd;stroke-linecap:square"
         d="m 33.245806,-121.76432 c -3.67239,-0.81045 -5.032135,0.10667 -6.695197,2.28832 l 0.41956,0.67765 c 1.104206,-1.55304 4.707962,-1.22219 5.703265,-0.73496 z"
         sodipodi:nodetypes="ccccc"
         inkscape:label="eye"
         transform="translate(-27.159188,21.885218)" />
      <path
         id="path49"
         style="fill:#ffffff;fill-rule:evenodd;stroke-linecap:square"
         d="m 40.577645,-119.54871 -0.423109,0.62317 c -0.535855,-0.127 -2.121362,-2.16795 -3.173335,-1.80079 -0.299298,-0.76432 -0.05028,-1.72311 0.286665,-2.08959 1.658886,0.46359 3.058555,2.1129 3.309779,3.26721 z"
         sodipodi:nodetypes="ccccc"
         inkscape:label="gird"
         transform="translate(-26.66586,24.409626)" />
      <path
         id="path50"
         style="fill:#cfbbad;fill-opacity:1;fill-rule:evenodd;stroke-linecap:square"
         d="m 5.5011959,-94.616544 c 0.9487432,0.534231 1.9161119,1.351579 3.2014369,0.469309 l -1.0662111,0.863653 c -0.203,0.0662 -0.280433,0.20435 -0.829442,0.0721 z"
         sodipodi:nodetypes="ccccc" />
      <path
         id="path53"
         style="fill:#decd87;fill-rule:evenodd;stroke-linecap:square"
         d="m 6.6299869,-103.54449 c -2.1801261,3.17255 -3.6575757,-0.33021 -7.14046606,3.49017 1.85385746,-3.84037 5.17432536,-2.28391 7.14046606,-3.49017 z"
         sodipodi:nodetypes="ccc" />
      <path
         id="path54"
         style="fill:#decd87;fill-rule:evenodd;stroke-linecap:square"
         d="m 12.557058,-101.26135 c 1.629328,1.679195 2.266866,3.212993 3.069974,5.2466 -0.603396,-1.932276 -0.104351,-2.899446 -1.066907,-4.00201 -0.640552,-0.73372 -1.15974,-0.82669 -2.003067,-1.24459 z"
         sodipodi:nodetypes="ccsc" />
      <g
         id="g81"
         inkscape:label="eye"
         transform="matrix(-0.94819534,-0.3176879,-0.3176879,0.94819534,-37.467421,-5.1851273)"
         clip-path="url(#clipPath5)">
        <ellipse
           style="fill:#2d7587;fill-opacity:1;fill-rule:evenodd;stroke-width:0.241283;stroke-linecap:square"
           id="ellipse62"
           cx="-8.85361"
           cy="-101.63449"
           rx="1.7429779"
           ry="2.036658" />
        <ellipse
           style="fill:#00ccff;fill-opacity:1;fill-rule:evenodd;stroke-width:0.222185;stroke-linecap:square"
           id="ellipse71"
           cx="-8.85361"
           cy="-101.63449"
           rx="1.6323797"
           ry="1.8440205" />
        <ellipse
           style="fill:#2d7587;fill-opacity:1;fill-rule:evenodd;stroke-width:0.147142;stroke-linecap:square"
           id="ellipse73"
           cx="-9.0324984"
           cy="-101.68624"
           rx="1.0188445"
           ry="1.295756" />
        <ellipse
           style="fill:#d7eef4;fill-opacity:1;fill-rule:evenodd;stroke-width:0.0436857;stroke-linecap:square"
           id="ellipse75"
           cx="-8.682416"
           cy="-102.13406"
           rx="0.34319329"
           ry="0.33907706" />
      </g>
      <g
         id="g82"
         inkscape:label="eye"
         style="display:inline"
         transform="matrix(-0.87272213,-0.48821726,-0.48821726,0.87272213,-53.172941,-15.115677)"
         clip-path="url(#clipPath6)">
        <ellipse
           style="fill:#347581;fill-opacity:1;fill-rule:evenodd;stroke-width:0.203918;stroke-linecap:square"
           id="ellipse63"
           cx="-17.164934"
           cy="-102.79263"
           rx="1.3979791"
           ry="1.8136829" />
        <ellipse
           style="fill:#00ccff;fill-opacity:1;fill-rule:evenodd;stroke-width:0.188607;stroke-linecap:square"
           id="ellipse72"
           cx="-17.164934"
           cy="-102.79263"
           rx="1.2481822"
           ry="1.737749" />
        <ellipse
           style="fill:#2d7587;fill-opacity:1;fill-rule:evenodd;stroke-width:0.133296;stroke-linecap:square"
           id="ellipse74"
           cx="-17.243423"
           cy="-102.81917"
           rx="0.9099012"
           ry="1.1906881" />
        <ellipse
           style="fill:#d7eef4;fill-opacity:1;fill-rule:evenodd;stroke-width:0.0436857;stroke-linecap:square"
           id="ellipse76"
           cx="-16.970377"
           cy="-103.11526"
           rx="0.34319329"
           ry="0.33907706" />
      </g>
      <path
         style="color:#000000;fill:#666666;-inkscape-stroke:none"
         d="m 13.934431,-95.1185 c -0.385797,-1.603943 -2.711373,-3.298024 -3.380348,-3.345688 0.865666,-0.390327 3.370194,1.814506 3.380348,3.345688 z"
         id="path77"
         sodipodi:nodetypes="ccc" />
      <path
         style="color:#000000;fill:#666666;fill-opacity:1;-inkscape-stroke:none"
         d="m 6.0716695,-99.858877 c -2.7064878,-0.718253 -5.56568042,0.159475 -6.72931498,2.323995 0.81141173,-2.189538 4.69234398,-3.689468 6.72931498,-2.323995 z"
         id="path78"
         sodipodi:nodetypes="ccc" />
      <path
         style="color:#000000;fill:#666666;fill-opacity:1;-inkscape-stroke:none"
         d="m 5.5353213,-97.59356 c -1.701879,-0.582492 -4.1523255,-0.533735 -5.68145137,0.649575 C 0.9527287,-98.43252 3.8433313,-98.34153 5.5353213,-97.59356 Z"
         id="path79"
         sodipodi:nodetypes="ccc" />
      <path
         style="color:#000000;fill:#686868;fill-opacity:1;-inkscape-stroke:none"
         d="m 13.484451,-94.483705 c -0.999953,-0.132695 -2.03189,-1.932104 -3.16069,-1.826104 0.880887,-0.540242 2.58479,1.561574 3.16069,1.826104 z"
         id="path80"
         sodipodi:nodetypes="ccc" />
      <g
         id="g13"
         inkscape:label="mouth"
         transform="matrix(0.71000448,0,0,0.7192384,1.5303361,-25.168939)">
        <path
           id="path51"
           style="display:inline;fill:#de8787;fill-rule:evenodd;stroke-width:1.05488;stroke-linecap:square"
           d="m 7.9646634,-88.470046 c -0.011281,-0.382594 1.0672091,-3.251557 -1.283218,-2.999958 -2.9025213,-0.995841 -3.4282375,0.545756 -4.3409898,2.093136 1.3570357,0.673559 1.7799919,2.735146 4.4664061,1.475063 0.1321003,-0.06196 1.0597054,-0.439463 1.1578017,-0.568241 z"
           sodipodi:nodetypes="cccsc" />
        <path
           id="path82"
           style="fill:#000000;fill-opacity:0.137428;fill-rule:evenodd;stroke-width:1.05488;stroke-linecap:square"
           d="m 2.3921604,-89.349908 c 0.9281897,-1.571414 2.7638707,-1.170563 4.1423559,-0.863211 0.6676217,0.234812 1.2129567,0.616094 1.4244764,1.587236 0.666406,-2.029948 -0.052826,-3.168096 -1.2510986,-2.806012 -2.8515486,-1.171507 -3.7613519,0.812565 -4.3157337,2.081987 z"
           sodipodi:nodetypes="ccccc"
           inkscape:label="path82" />
        <path
           id="path3"
           style="fill:#6c5353;fill-opacity:1;fill-rule:evenodd;stroke-width:1.05488;stroke-linecap:square"
           d="m 2.3921604,-89.349908 c 1.3199205,-0.0064 3.1085529,1.538601 5.5668323,0.724025 0.6532224,-1.582358 -0.5558202,-1.320848 -1.480113,-1.606484 -1.6630177,-0.513925 -3.5322073,-0.387032 -4.0867193,0.882459 z"
           sodipodi:nodetypes="ccsc" />
      </g>
    </g>
    <path
       style="fill:#ffe6d5;fill-opacity:1;stroke:none;stroke-width:1px;stroke-linecap:butt;stroke-linejoin:miter;stroke-opacity:1"
       d="m -5.3212905,-96.511251 c -0.4455015,0.900367 -0.682534,1.495573 -1.1226772,2.32096 l -0.029913,1.971598 c 0.061599,1.520922 0.4508396,1.562313 0.7127187,2.064907 0.4141637,-1.428532 0.095767,-2.186499 0.3337713,-3.500656 0.2018668,-1.114618 0.8860168,-1.658541 0.1061002,-2.856809 z"
       id="path11"
       sodipodi:nodetypes="ccccsc" />
    <path
       id="path63"
       style="display:inline;fill:#d38d5f;fill-opacity:1;fill-rule:evenodd;stroke-width:0.750233;stroke-linecap:square"
       d="m -11.480094,-68.481417 1.329957,4.5439 c 0,0 4.4108972,-0.248988 5.6826429,-1.811498 1.810753,-2.224753 2.2048365,-9.297221 2.2048365,-9.297221 l 1.0817056,-11.761347 0.70195066,-2.971664 1.00671721,-4.690399 c -0.0428298,-0.823794 -0.10217145,-1.740394 -0.7585046,-0.279123 l -0.61360581,1.52623 -0.25435026,-0.02101 -0.040099,-1.526185 0.032455,-1.865405 -0.01612,-1.955513 c -0.1606064,-0.249433 -0.2658475,-0.582358 -0.8014601,-0.266281 -0.4600803,-0.653045 -0.5989809,-0.288091 -0.8513764,-0.282866 l -1.975673,2.50141 -0.9809911,2.259953 -0.5917561,3.495203 c 0.6479486,1.374518 1.5260052,1.636618 1.9433397,4.126002 -1.3464219,10.565369 -6.3883362,12.574253 -7.0996682,18.275821 z"
       sodipodi:nodetypes="ccscccccccccccccccccc"
       inkscape:label="arm" />
    <path
       id="path8"
       style="display:inline;fill:#ffe6d5;fill-opacity:1;fill-rule:evenodd;stroke-width:0.750233;stroke-linecap:square"
       d="m -11.480094,-68.481417 1.075395,4.756802 c 0,0 4.6654592,-0.46189 5.9372049,-2.0244 1.810753,-2.224753 1.8883692,-9.405749 1.8883692,-9.405749 l 1.1998563,-11.623844 0.72879661,-3.032529 0.986938,-4.504785 c 0.13741243,-1.117345 -0.0481925,-1.474524 -0.52105876,-0.1447 l -0.62463795,1.479313 -0.3742797,-0.13697 -0.083582,-3.590882 0.032258,-1.300236 c -0.065099,-0.558537 -0.1448346,-1.077026 -0.5892702,-0.597599 l -0.2502177,-0.07003 c -0.2954816,-0.596583 -0.655055,-0.447233 -1.3914212,0.564184 l -1.1487408,1.563726 -0.9605921,2.361107 -0.4600735,1.690984 -0.3322759,1.317484 c 0.7030431,1.391665 1.5912136,2.017889 2.2665279,4.364485 -1.2689707,10.615258 -6.1587841,12.959988 -7.3791931,18.33364 z"
       sodipodi:nodetypes="ccsccccccccccccccccccc"
       inkscape:label="arm" />
  </g>
  <g
     inkscape:groupmode="layer"
     id="layer1"
     inkscape:label="tears">
    <ellipse
       style="fill:#d3eaf6;fill-opacity:0.50959563;fill-rule:evenodd;stroke:#2d7587;stroke-width:0.1;stroke-linecap:square;stroke-opacity:1"
       id="path23"
       cx="-36.760372"
       cy="-87.83165"
       rx="1.0582142"
       ry="0.55893421"
       transform="rotate(30.362386)" />
    <ellipse
       style="fill:#d3eaf6;fill-opacity:0.50959563;fill-rule:evenodd;stroke:#2d7587;stroke-width:0.1;stroke-linecap:square;stroke-opacity:1"
       id="ellipse23"
       cx="-35.255386"
       cy="-86.123146"
       rx="0.69138867"
       ry="0.55893421"
       transform="rotate(30.362386)" />
    <ellipse
       style="fill:#d3eaf6;fill-opacity:0.50959563;fill-rule:evenodd;stroke:#2d7587;stroke-width:0.0987349;stroke-linecap:square;stroke-opacity:1"
       id="ellipse24"
       cx="-27.718113"
       cy="-79.844048"
       rx="0.64372748"
       ry="0.58522445"
       transform="matrix(0.80097667,0.59869556,-0.41725153,0.90879104,0,0)" />
    <ellipse
       style="fill:#d3eaf6;fill-opacity:0.50959563;fill-rule:evenodd;stroke:#2d7587;stroke-width:0.111525;stroke-linecap:square;stroke-opacity:1"
       id="ellipse25"
       cx="-17.074509"
       cy="-74.755821"
       rx="0.65229732"
       ry="0.73686302"
       transform="matrix(0.55250944,0.83350664,-0.29344335,0.95597646,0,0)" />
    <ellipse
       style="fill:#d3eaf6;fill-opacity:0.50959563;fill-rule:evenodd;stroke:#2d7587;stroke-width:0.0896077;stroke-linecap:square;stroke-opacity:1"
       id="ellipse26"
       cx="-27.360456"
       cy="-81.93512"
       rx="0.58931035"
       ry="0.52653801"
       transform="matrix(0.81138165,0.58451674,-0.43006884,0.9027961,0,0)" />
    <ellipse
       style="fill:#d3eaf6;fill-opacity:0.50959563;fill-rule:evenodd;stroke:#2d7587;stroke-width:0.133358;stroke-linecap:square;stroke-opacity:1"
       id="ellipse27"
       cx="-36.325985"
       cy="-111.78185"
       rx="0.9436599"
       ry="0.72829592"
       transform="matrix(0.96530546,-0.26112329,-0.31255493,0.94989969,0,0)" />
    <ellipse
       style="fill:#d3eaf6;fill-opacity:0.50959563;fill-rule:evenodd;stroke:#2d7587;stroke-width:0.0908615;stroke-linecap:square;stroke-opacity:1"
       id="ellipse28"
       cx="-33.832615"
       cy="-111.62846"
       rx="0.62960935"
       ry="0.50672781"
       transform="matrix(0.96184767,-0.27358555,-0.29864596,0.95436397,0,0)" />
    <ellipse
       style="fill:#fdfdfd;fill-opacity:1;fill-rule:evenodd;stroke:none;stroke-width:0.0485211;stroke-linecap:square;stroke-opacity:1"
       id="ellipse29"
       cx="-39.378101"
       cy="-89.179909"
       rx="0.52200305"
       ry="0.2667616"
       transform="matrix(0.87712926,0.48025437,-0.53108064,0.84732128,0,0)" />
    <ellipse
       style="fill:#fdfdfd;fill-opacity:1;fill-rule:evenodd;stroke:none;stroke-width:0.0316928;stroke-linecap:square;stroke-opacity:1"
       id="ellipse30"
       cx="-31.168989"
       cy="-84.751312"
       rx="0.32631952"
       ry="0.18205982"
       transform="matrix(0.8363468,0.54820072,-0.46383388,0.88592219,0,0)" />
    <ellipse
       style="fill:#fdfdfd;fill-opacity:1;fill-rule:evenodd;stroke:none;stroke-width:0.0316928;stroke-linecap:square;stroke-opacity:1"
       id="ellipse31"
       cx="-30.316931"
       cy="-82.882408"
       rx="0.32631952"
       ry="0.18205982"
       transform="matrix(0.8363468,0.54820072,-0.46383388,0.88592219,0,0)" />
    <ellipse
       style="fill:#fdfdfd;fill-opacity:1;fill-rule:evenodd;stroke:none;stroke-width:0.0316928;stroke-linecap:square;stroke-opacity:1"
       id="ellipse32"
       cx="-67.979851"
       cy="-52.708191"
       rx="0.32631952"
       ry="0.18205982"
       transform="matrix(0.47762298,0.8785649,-0.82767703,0.56120472,0,0)" />
    <ellipse
       style="fill:#fdfdfd;fill-opacity:1;fill-rule:evenodd;stroke:none;stroke-width:0.0316928;stroke-linecap:square;stroke-opacity:1"
       id="ellipse33"
       cx="-67.979851"
       cy="-52.708191"
       rx="0.32631952"
       ry="0.18205982"
       transform="matrix(0.47762298,0.8785649,-0.82767703,0.56120472,0,0)" />
    <ellipse
       style="fill:#fdfdfd;fill-opacity:1;fill-rule:evenodd;stroke:none;stroke-width:0.0316928;stroke-linecap:square;stroke-opacity:1"
       id="ellipse34"
       cx="-76.438202"
       cy="-34.425396"
       rx="0.32631952"
       ry="0.18205982"
       transform="matrix(0.25740779,0.96630287,-0.93651814,0.35061913,0,0)" />
    <ellipse
       style="fill:#fdfdfd;fill-opacity:1;fill-rule:evenodd;stroke:none;stroke-width:0.0485211;stroke-linecap:square;stroke-opacity:1"
       id="ellipse35"
       cx="56.228539"
       cy="-75.509438"
       rx="0.52200305"
       ry="0.2667616"
       transform="matrix(0.77662601,-0.62996194,0.58312773,0.81238048,0,0)" />
    <ellipse
       style="fill:#fdfdfd;fill-opacity:1;fill-rule:evenodd;stroke:none;stroke-width:0.0243949;stroke-linecap:square;stroke-opacity:1"
       id="ellipse36"
       cx="92.411102"
       cy="-104.16666"
       rx="0.28371719"
       ry="0.12406401"
       transform="matrix(0.9202121,-0.39142009,0.80747633,0.58989997,0,0)" />
  </g>
  <g
     inkscape:groupmode="layer"
     id="layer5"
     inkscape:label="grid_overlay"
     style="display:inline">
    <path
       id="rect94"
       style="fill:#00ffff;fill-opacity:0.168679;fill-rule:evenodd;stroke:#238f8c;stroke-linecap:square;stroke-opacity:0.995862"
       d="M -172.16128,-142.82162 -49.91883,-90.368591 -50.165861,32.578713 -171.63736,-26.256933 Z"
       sodipodi:nodetypes="ccccc" />
    <path
       style="fill:none;stroke:#d40000;stroke-width:1px;stroke-linecap:butt;stroke-linejoin:miter;stroke-opacity:1"
       d="m -170.87107,-76.214763 121.01646,56.650576"
       id="path94"
       sodipodi:nodetypes="cc" />
    <path
       style="fill:none;stroke:#d40000;stroke-width:1px;stroke-linecap:butt;stroke-linejoin:miter;stroke-opacity:1"
       d="M -112.73781,1.3121333 -112.90303,-116.09717"
       id="path95"
       sodipodi:nodetypes="cc" />
    <path
       style="fill:none;stroke:#008080;stroke-width:1px;stroke-linecap:butt;stroke-linejoin:miter;stroke-opacity:1"
       d="m -111.6147,-34.994448 34.259014,2.189316"
       id="path96"
       sodipodi:nodetypes="cc" />
    <path
       style="fill:none;stroke:#008080;stroke-width:1px;stroke-linecap:butt;stroke-linejoin:miter;stroke-opacity:1"
       d="m -111.6147,-34.994448 -30.24194,-26.880675"
       id="path97"
       sodipodi:nodetypes="cc" />
    <path
       style="fill:none;stroke:#008080;stroke-width:1px;stroke-linecap:butt;stroke-linejoin:miter;stroke-opacity:1"
       d="m -112.90255,-64.889476 35.546864,32.084344"
       id="path98"
       sodipodi:nodetypes="cc" />
    <path
       style="fill:none;stroke:#008080;stroke-width:1px;stroke-linecap:butt;stroke-linejoin:miter;stroke-opacity:1"
       d="m -112.90255,-64.889476 -29.23473,2.496496"
       id="path99"
       sodipodi:nodetypes="cc" />
    <path
       style="fill:none;stroke:#ff00ff;stroke-width:1px;stroke-linecap:butt;stroke-linejoin:miter;stroke-opacity:1"
       d="m -104.52971,-45.510158 c -2.26868,-5.127331 -0.12203,-6.918143 5.058897,-6.416054"
       id="path100"
       sodipodi:nodetypes="cc" />
    <path
       style="fill:none;stroke:#ff00ff;stroke-width:1px;stroke-linecap:butt;stroke-linejoin:miter;stroke-opacity:1"
       d="m -151.07753,-67.388195 c 6.85808,-11.273469 16.15758,-13.172382 29.3776,3.27982"
       id="path101"
       sodipodi:nodetypes="cc" />
    <path
       id="path102"
       style="fill:#f9f9f9;fill-opacity:1;fill-rule:evenodd;stroke:#999999;stroke-width:0.849281;stroke-linecap:square;stroke-dasharray:none;stroke-opacity:0.995862"
       d="m 71.636736,-158.61757 a 25.855116,26.680522 46.894779 0 0 -12.980962,4.33349 19.467064,20.163515 56.243398 0 0 -9.78893,-1.8566 19.467064,20.163515 56.243398 0 0 -19.28113,20.9311 19.467064,20.163515 56.243398 0 0 20.60016,18.35272 19.467064,20.163515 56.243398 0 0 0.682614,-0.0892 25.855116,26.680522 46.894779 0 0 22.526892,10.70494 25.855116,26.680522 46.894779 0 0 16.807165,-7.40134 19.467064,20.163515 56.243398 0 0 11.097515,2.59073 19.467064,20.163515 56.243398 0 0 19.28113,-20.9311 19.467064,20.163515 56.243398 0 0 -20.600242,-18.35468 19.467064,20.163515 56.243398 0 0 -6.42343,1.52192 25.855116,26.680522 46.894779 0 0 -21.920781,-9.802 z" />
    <ellipse
       style="fill:#f9f9f9;fill-opacity:1;fill-rule:evenodd;stroke:#999999;stroke-width:0.773444;stroke-linecap:square;stroke-dasharray:none;stroke-opacity:0.995862"
       id="path103"
       cx="23.174347"
       cy="-103.555"
       rx="3.1016994"
       ry="2.223202" />
    <ellipse
       style="fill:#f9f9f9;fill-opacity:1;fill-rule:evenodd;stroke:#999999;stroke-width:0.773444;stroke-linecap:square;stroke-dasharray:none;stroke-opacity:0.995862"
       id="path104"
       cx="45.155491"
       cy="-106.12682"
       rx="5.4794774"
       ry="4.0283818" />
    <ellipse
       style="fill:#f9f9f9;fill-opacity:1;fill-rule:evenodd;stroke:#999999;stroke-width:0.773444;stroke-linecap:square;stroke-dasharray:none;stroke-opacity:0.995862"
       id="ellipse104"
       cx="33.479168"
       cy="-105.08813"
       rx="3.960489"
       ry="2.7379987" />
    <text
       xml:space="preserve"
       style="font-style:normal;font-variant:normal;font-weight:normal;font-stretch:normal;font-size:12px;line-height:normal;font-family:sans-serif;font-variant-ligatures:normal;font-variant-position:normal;font-variant-caps:normal;font-variant-numeric:normal;font-variant-alternates:normal;font-variant-east-asian:normal;font-feature-settings:normal;font-variation-settings:normal;text-indent:0;text-align:start;text-decoration-line:none;text-decoration-style:solid;text-decoration-color:#000000;letter-spacing:normal;word-spacing:normal;text-transform:none;writing-mode:lr-tb;direction:ltr;text-orientation:mixed;dominant-baseline:auto;baseline-shift:baseline;text-anchor:start;white-space:normal;shape-padding:0;shape-margin:0;inline-size:0;opacity:1;vector-effect:none;fill:#333333;fill-opacity:1;stroke:none;stroke-width:2;stroke-linecap:butt;stroke-linejoin:miter;stroke-miterlimit:4;stroke-dasharray:none;stroke-dashoffset:0;stroke-opacity:1;-inkscape-stroke:none;stop-color:#000000;stop-opacity:1"
       x="106.20399"
       y="-135.491"
       id="text104"
       transform="matrix(0.65917104,0.05393913,-0.04286837,1.0002235,-5.3603409,-9.4919913)"><tspan
         sodipodi:role="line"
         x="106.20399"
         y="-135.491"
         id="tspan105"
         style="text-align:center;text-anchor:middle">... any road</tspan><tspan
         sodipodi:role="line"
         x="106.20399"
         y="-120.491"
         style="text-align:center;text-anchor:middle"
         id="tspan36">will take you there</tspan></text>
    <text
       xml:space="preserve"
       style="font-style:normal;font-variant:normal;font-weight:normal;font-stretch:normal;font-size:12px;line-height:normal;font-family:sans-serif;font-variant-ligatures:normal;font-variant-position:normal;font-variant-caps:normal;font-variant-numeric:normal;font-variant-alternates:normal;font-variant-east-asian:normal;font-feature-settings:normal;font-variation-settings:normal;text-indent:0;text-align:start;text-decoration-line:none;text-decoration-style:solid;text-decoration-color:#000000;letter-spacing:normal;word-spacing:normal;text-transform:none;writing-mode:lr-tb;direction:ltr;text-orientation:mixed;dominant-baseline:auto;baseline-shift:baseline;text-anchor:start;white-space:normal;shape-padding:0;shape-margin:0;inline-size:0;opacity:1;vector-effect:none;fill:#333333;fill-opacity:1;stroke:none;stroke-width:2;stroke-linecap:butt;stroke-linejoin:miter;stroke-miterlimit:4;stroke-dasharray:none;stroke-dashoffset:0;stroke-opacity:1;-inkscape-stroke:none;stop-color:#000000;stop-opacity:1"
       x="-309.108"
       y="-157.89114"
       id="text106"
       transform="matrix(0.54914843,0,0,0.6343798,10.39378,19.603387)"><tspan
         sodipodi:role="line"
         id="tspan106"
         x="-309.108"
         y="-157.89114">120 deg</tspan></text>
    <text
       xml:space="preserve"
       style="font-style:normal;font-variant:normal;font-weight:normal;font-stretch:normal;font-size:12px;line-height:normal;font-family:sans-serif;font-variant-ligatures:normal;font-variant-position:normal;font-variant-caps:normal;font-variant-numeric:normal;font-variant-alternates:normal;font-variant-east-asian:normal;font-feature-settings:normal;font-variation-settings:normal;text-indent:0;text-align:start;text-decoration-line:none;text-decoration-style:solid;text-decoration-color:#000000;letter-spacing:normal;word-spacing:normal;text-transform:none;writing-mode:lr-tb;direction:ltr;text-orientation:mixed;dominant-baseline:auto;baseline-shift:baseline;text-anchor:start;white-space:normal;shape-padding:0;shape-margin:0;inline-size:0;opacity:1;vector-effect:none;fill:#333333;fill-opacity:1;stroke:none;stroke-width:2;stroke-linecap:butt;stroke-linejoin:miter;stroke-miterlimit:4;stroke-dasharray:none;stroke-dashoffset:0;stroke-opacity:1;-inkscape-stroke:none;stop-color:#000000;stop-opacity:1"
       x="-309.108"
       y="-157.89114"
       id="text107"
       transform="matrix(0.32948683,0.10470321,-0.06539405,0.28870101,-28.572964,23.601452)"><tspan
         sodipodi:role="line"
         id="tspan107"
         x="-309.108"
         y="-157.89114">30 deg</tspan></text>
    <path
       id="path36"
       style="fill:#f9f9f9;fill-opacity:1;fill-rule:evenodd;stroke:#999999;stroke-width:0.973118;stroke-linecap:square;stroke-dasharray:none;stroke-opacity:0.995862"
       d="m -64.670409,-203.16258 a 33.25896,27.230762 85.518795 0 1 13.461379,5.48634 24.950414,20.65459 85.079874 0 1 10.151212,-2.35052 24.950414,20.65459 85.079874 0 1 19.994715,26.49946 24.950414,20.65459 85.079874 0 1 -21.362561,23.23515 24.950414,20.65459 85.079874 0 1 -0.707877,-0.11293 33.25896,27.230762 85.518795 0 1 -23.360599,13.5528 33.25896,27.230762 85.518795 0 1 -17.429188,-9.37034 24.950414,20.65459 85.079874 0 1 -11.508227,3.27995 24.950414,20.65459 85.079874 0 1 -19.994705,-26.49946 24.950414,20.65459 85.079874 0 1 21.362637,-23.23762 24.950414,20.65459 85.079874 0 1 6.661157,1.9268 33.25896,27.230762 85.518795 0 1 22.732056,-12.40965 z" />
    <text
       xml:space="preserve"
       style="font-style:normal;font-variant:normal;font-weight:normal;font-stretch:normal;font-size:12px;line-height:normal;font-family:sans-serif;font-variant-ligatures:normal;font-variant-position:normal;font-variant-caps:normal;font-variant-numeric:normal;font-variant-alternates:normal;font-variant-east-asian:normal;font-feature-settings:normal;font-variation-settings:normal;text-indent:0;text-align:center;text-decoration-line:none;text-decoration-style:solid;text-decoration-color:#000000;letter-spacing:normal;word-spacing:normal;text-transform:none;writing-mode:lr-tb;direction:ltr;text-orientation:mixed;dominant-baseline:auto;baseline-shift:baseline;text-anchor:middle;white-space:normal;shape-padding:0;shape-margin:0;inline-size:0;opacity:1;vector-effect:none;fill:#333333;fill-opacity:1;stroke:none;stroke-width:2;stroke-linecap:butt;stroke-linejoin:miter;stroke-miterlimit:4;stroke-dasharray:none;stroke-dashoffset:0;stroke-opacity:1;-inkscape-stroke:none;stop-color:#000000;stop-opacity:1"
       x="157.66614"
       y="57.707127"
       id="text37"
       transform="matrix(0.72679852,-0.09874454,0.1145646,0.84324035,-187.82675,-213.05478)"><tspan
         sodipodi:role="line"
         id="tspan37"
         x="157.66614"
         y="57.707127">If you don't</tspan><tspan
         sodipodi:role="line"
         x="157.66614"
         y="72.707123"
         id="tspan38">know where </tspan><tspan
         sodipodi:role="line"
         x="157.66614"
         y="87.707123"
         id="tspan39">you're going...</tspan></text>
    <ellipse
       style="fill:#f9f9f9;fill-opacity:1;fill-rule:evenodd;stroke:#999999;stroke-width:0.773444;stroke-linecap:square;stroke-dasharray:none;stroke-opacity:0.995862"
       id="ellipse41"
       cx="-35.967834"
       cy="-136.35094"
       rx="5.4794774"
       ry="4.0283818" />
    <ellipse
       style="fill:#f9f9f9;fill-opacity:1;fill-rule:evenodd;stroke:#999999;stroke-width:0.641791;stroke-linecap:square;stroke-dasharray:none;stroke-opacity:0.995862"
       id="ellipse42"
       cx="-25.029303"
       cy="-126.89729"
       rx="4.2776127"
       ry="3.5530238" />
    <ellipse
       style="fill:#f9f9f9;fill-opacity:1;fill-rule:evenodd;stroke:#999999;stroke-width:0.538188;stroke-linecap:square;stroke-dasharray:none;stroke-opacity:0.995862"
       id="ellipse43"
       cx="-15.860285"
       cy="-120.67649"
       rx="3.9521022"
       ry="2.7042828" />
  </g>
  <g
     inkscape:groupmode="layer"
     id="layer6"
     inkscape:label="my_n"
     sodipodi:insensitive="true">
    <g
       id="layer21"
       style="display:inline;fill:#a02c2c"
       transform="matrix(0.37603922,-0.35916775,0.6112115,0.34289337,55.570108,53.72669)">
      <path
         style="fill:#a02c2c;stroke:none;stroke-width:1px;stroke-linecap:butt;stroke-linejoin:miter;stroke-opacity:1"
         d="M -7.4578747,-9.4190221 -5.807887,-15.846128 C -0.70518593,-5.0685255 0.04217479,2.5427912 6.702759,10.403181 L 4.4884114,16.104186 C -1.665111,8.5563718 -4.0993577,1.1338758 -7.4578747,-9.4190221 Z"
         id="path271" />
      <path
         style="color:#000000;fill:#a02c2c;-inkscape-stroke:none"
         d="m -5.9594036,-15.777868 c -2.6658505,9.7745242 -3.9182644,18.697548 -8.0796594,28.97904 -1.140724,2.570841 -4.974126,2.909408 -6.652343,0.929687 -0.900016,-1.061709 -1.759127,-3.468307 -0.751953,-5.4140621 0.517437,-0.9996386 1.772469,-2.6626619 4.189453,-1.9609375 2.137629,0.620619 2.402426,2.6455272 0.40039,3.7070316 0.91007,-0.172268 2.217981,-0.5647038 2.138672,-1.9687504 -0.05441,-1.1447601 -0.828111,-2.2829986 -2.261718,-2.6992187 -2.198747,-0.6383633 -4.822309,-0.2214147 -5.974072,2.0036801 -1.42804,2.758827 0.09553,6.64834 0.672524,7.351963 1.65189,2.014408 7.457119,3.107285 9.64305,-1.617697 4.7194973,-10.2013927 5.3956529,-15.8209543 8.0395861,-25.515117 z"
         id="path272" />
      <path
         style="color:#000000;fill:#a02c2c;-inkscape-stroke:none"
         d="m 15.516382,-14.708552 c -1.985888,1.702361 -2.981883,4.877606 -4.204232,7.1412368 -2.6414219,7.51920617 -5.3762359,13.1319709 -8.9044925,21.0085712 0.374081,0.02422 2.3746468,3.234504 2.4023716,2.595666 2.0220585,-6.4100667 4.6909577,-12.6156888 6.7355269,-19.0180365 1.255621,-3.2607506 2.28629,-7.1052265 4.586579,-9.7635565 2.265702,-2.793475 7.767106,-0.487294 4.377577,5.7229867 -1.751578,3.4442289 -4.659419,1.2114278 -5.03437,-0.1651411 -0.50483,2.2652628 2.117097,3.5909262 4.052005,2.657547 2.694661,-1.2998756 3.835198,-7.4795766 2.690336,-9.3878106 -1.66595,-2.776774 -4.428919,-2.777211 -6.701301,-0.791463 z"
         id="path273" />
      <path
         style="fill:#a02c2c;fill-opacity:1;stroke:none;stroke-width:1px;stroke-linecap:butt;stroke-linejoin:miter;stroke-opacity:1"
         d="m -6.8014595,-11.842452 0.9928422,-3.956041 C -15.4979,-24.05338 -25.362592,-15.915315 -11.496837,-5.5050323 -25.609338,-18.466944 -10.235298,-20.713754 -6.8014595,-11.842452 Z"
         id="path274" />
    </g>
  </g>
</svg>
