<?xml version="1.0" encoding="UTF-8" standalone="no"?>
<!-- Created with Inkscape (http://www.inkscape.org/) -->

<svg
   width="100"
   height="100"
   viewBox="0 0 100 100"
   version="1.1"
   id="svg1"
   inkscape:version="1.3.2 (091e20e, 2023-11-25)"
   sodipodi:docname="jotunheim.svg"
   xmlns:inkscape="http://www.inkscape.org/namespaces/inkscape"
   xmlns:sodipodi="http://sodipodi.sourceforge.net/DTD/sodipodi-0.dtd"
   xmlns="http://www.w3.org/2000/svg"
   xmlns:svg="http://www.w3.org/2000/svg">
  <sodipodi:namedview
     id="namedview1"
     pagecolor="#ffffff"
     bordercolor="#666666"
     borderopacity="1.0"
     inkscape:showpageshadow="2"
     inkscape:pageopacity="0.0"
     inkscape:pagecheckerboard="0"
     inkscape:deskcolor="#d1d1d1"
     inkscape:document-units="px"
     inkscape:zoom="2"
     inkscape:cx="-5.25"
     inkscape:cy="17.5"
     inkscape:window-width="1652"
     inkscape:window-height="956"
     inkscape:window-x="153"
     inkscape:window-y="66"
     inkscape:window-maximized="0"
     inkscape:current-layer="g121"
     showgrid="false">
    <inkscape:grid
       id="grid1"
       units="px"
       originx="0"
       originy="0"
       spacingx="1"
       spacingy="1"
       empcolor="#3f3fff"
       empopacity="0.25098039"
       color="#3f3fff"
       opacity="0.1254902"
       empspacing="5"
       dotted="false"
       gridanglex="30"
       gridanglez="30"
       visible="false" />
  </sodipodi:namedview>
  <defs
     id="defs1">
    <clipPath
       clipPathUnits="userSpaceOnUse"
       id="clipPath95">
      <ellipse
         style="fill:#1a1a1a;fill-rule:evenodd;stroke-width:0.0539052;stroke-linecap:square"
         id="ellipse95"
         cx="2.9802327e-09"
         cy="-2.9197421"
         rx="4.3154612"
         ry="1.9833736"
         inkscape:label="mask" />
    </clipPath>
  </defs>
  <g
     inkscape:groupmode="layer"
     id="g121"
     inkscape:label="jotunheim"
     style="display:inline">
    <path
       id="path69"
       style="display:inline;fill:#000000;fill-opacity:0.269625;fill-rule:evenodd;stroke:#969696;stroke-width:0.1;stroke-linecap:square"
       d="m -59.936983,8.3825379 15.022236,-17.70727 14.118281,-1.3396599 75.02193,21.62564 -41.3080299,15.53688 c -12.39798,-4.05163 -21.4501801,-10.71572 -39.9698991,-9.9874 -10.683153,-4.86741 -20.667342,-5.65099 -22.884518,-8.1281901 z"
       sodipodi:nodetypes="ccccccc" />
    <path
       id="path17"
       style="display:inline;fill:#6f8a91;fill-rule:evenodd;stroke:#969696;stroke-width:0.1;stroke-linecap:square"
       d="m -23.867166,-20.562532 5.72847,-32.63763 14.7233601,14.34238 5.10055,-9.04982 28.3144099,27.3911 36.71312,20.42524993 L 43.064384,11.103288 5.1690841,20.366258 -31.177443,10.035438 -38.934975,5.5233679 Z"
       sodipodi:nodetypes="ccccccccccc" />
    <path
       id="path68"
       style="display:inline;fill:#b7c4c8;fill-rule:evenodd;stroke:#969696;stroke-width:0.1;stroke-linecap:square"
       d="m -23.867166,-20.562532 5.72847,-32.63763 14.7233601,14.34238 5.10055,-9.04982 28.3144099,27.3911 -5.3582,-0.80682 1.49875,5.87321 -10.22611,-1.67913 -7.3414099,2.39445 -9.29119999,-7.09757 -6.70121001,8.84078 -12.9682581,-2.8374 z"
       sodipodi:nodetypes="ccccccccccccc" />
    <path
       id="path70"
       style="display:inline;fill:#000000;fill-opacity:0.230652;fill-rule:evenodd;stroke:#969696;stroke-width:0.1;stroke-linecap:square"
       d="m -38.924626,5.8617679 14.636327,-25.8229399 6.203143,-32.93066 -0.688948,38.99375 9.2774981,30.34886 -21.7717431,-5.65592 z"
       sodipodi:nodetypes="ccccccc" />
    <path
       id="path71"
       style="display:inline;fill:#000000;fill-opacity:0.230652;fill-rule:evenodd;stroke:#969696;stroke-width:0.1;stroke-linecap:square"
       d="m -7.2495459,-5.4960521 0.25328,-7.0410999 3.43693,-25.16416 5.16419,-9.59178 0.15991,18.83691 8.15466,14.16027 -4.01385,7.4889999 -1.10972,27.1091201 z"
       sodipodi:nodetypes="ccccccccc" />
    <path
       id="path72"
       style="display:inline;fill:#000000;fill-opacity:0.230652;fill-rule:evenodd;stroke:#969696;stroke-width:0.1;stroke-linecap:square"
       d="m 21.487296,16.511348 1.6012,-12.1203101 -7.1223,-21.7186699 -0.57969,-10.48051 16.46302,16.28015 -1.90422,8.4348499 13.60433,14.0207001 -10.40589,2.68421 z"
       sodipodi:nodetypes="ccccccccc" />
  </g>
</svg>
