<?xml version="1.0" encoding="UTF-8" standalone="no"?>
<!-- Created with Inkscape (http://www.inkscape.org/) 
Norse Cosmology art process
https://www.deviantart.com/rowye/art/Yggdrasil-Process-Animation-735295941

-->

<svg
   width="600"
   height="600"
   viewBox="0 0 600 600"
   version="1.1"
   id="svg1"
   inkscape:version="1.3.2 (091e20e, 2023-11-25)"
   sodipodi:docname="scene_graph.svg"
   xmlns:inkscape="http://www.inkscape.org/namespaces/inkscape"
   xmlns:sodipodi="http://sodipodi.sourceforge.net/DTD/sodipodi-0.dtd"
   xmlns:xlink="http://www.w3.org/1999/xlink"
   xmlns="http://www.w3.org/2000/svg"
   xmlns:svg="http://www.w3.org/2000/svg">
  <sodipodi:namedview
     id="namedview1"
     pagecolor="#ffffff"
     bordercolor="#666666"
     borderopacity="1.0"
     inkscape:showpageshadow="2"
     inkscape:pageopacity="0.0"
     inkscape:pagecheckerboard="0"
     inkscape:deskcolor="#d1d1d1"
     inkscape:document-units="px"
     inkscape:zoom="0.834"
     inkscape:cx="108.51319"
     inkscape:cy="308.15348"
     inkscape:window-width="1452"
     inkscape:window-height="752"
     inkscape:window-x="2189"
     inkscape:window-y="102"
     inkscape:window-maximized="0"
     inkscape:current-layer="layer3" />
  <defs
     id="defs1">
    <linearGradient
       id="linearGradient1"
       inkscape:collect="always">
      <stop
         style="stop-color:#ff0000;stop-opacity:1"
         offset="0"
         id="stop1" />
      <stop
         style="stop-color:#ffff00;stop-opacity:1"
         offset="0.419002"
         id="stop4" />
      <stop
         style="stop-color:#00ff00;stop-opacity:1"
         offset="0.59516484"
         id="stop3" />
      <stop
         style="stop-color:#00ffff;stop-opacity:1"
         offset="0.70708501"
         id="stop5" />
      <stop
         style="stop-color:#ff00ff;stop-opacity:1"
         offset="1"
         id="stop2" />
    </linearGradient>
    <linearGradient
       inkscape:collect="always"
       xlink:href="#linearGradient1"
       id="linearGradient2"
       x1="268.54919"
       y1="383.52032"
       x2="293.08429"
       y2="360.16409"
       gradientUnits="userSpaceOnUse" />
  </defs>
  <g
     inkscape:label="twirl"
     inkscape:groupmode="layer"
     id="layer1"
     style="display:inline"
     sodipodi:insensitive="true">='world_tree'&gt;
      ='world_tree'&gt;
      <path
   style="color:#000000;fill:#808080;fill-rule:evenodd;stroke:#727272;stroke-width:1;stroke-dasharray:none;stroke-opacity:1"
   d="m 499.07738,529.27033 c -0.32291,-19.1189 -35.71916,-51.90675 -118.71258,-69.35068 -98.10667,-20.62051 -229.31074,2.23215 -222.1406,34.80498 6.53289,29.6779 83.18538,25.1977 143.2435,26.04031 51.52466,0.7229 85.6895,-7.47362 83.39159,-24.49885 -0.65838,-4.87798 0.99227,-7.97227 -14.07773,-14.68512 -14.95,-6.01052 -33.32018,-10.99215 -63.43918,-13.12187 -17.997,-0.46575 -35.748,0.85098 -48.617,3.5542 -11.796,3.09672 -17.429,7.50231 -8.531,10.74684 6.015,2.02567 14.795,2.80067 25.811,3.2689 5.552,0.33238 12.441,0.61026 19.326,0.10239 7.029,-0.38234 11.543,-1.75521 12.419,-3.20943 l -28.892,-1.73994 c 0.403,-0.11148 1.261,-0.39597 2.653,-0.51323 2.103,-0.16764 2.443,-0.0343 1.201,-0.12593 -2.479,-0.17425 -7.974,-1.29815 -7.243,-0.99137 -3.692,-1.57189 -1.675,-2.82255 4.601,-4.17932 6.569,-1.24447 18.063,-1.92492 27.074,-1.66067 18.802,1.06816 33.941,3.98444 45.184,7.79175 11.335,4.15084 18.32,8.86156 18.763,12.29396 4.782,11.87735 -30.17137,15.53123 -72.78453,15.74641 -52.89967,0.26712 -126.15334,1.18099 -128.83347,-19.61978 -3.22258,-25.01077 108.72377,-44.36392 193.34373,-26.48548 104.37924,22.05316 129.32711,57.69142 107.89527,75.35206 -25.20181,20.76724 -65.12583,17.57003 -122.57709,0.93105 -2.11196,-0.76016 -3.40079,-1.8459 -6.34719,-4.0395 l -6.5961,18.36593 c 1.96741,1.15959 6.48917,1.52531 8.3577,2.18556 57.08668,20.68186 110.72923,24.96689 142.53168,-2.8827 7.67844,-6.72405 13.17519,-13.47081 12.996,-24.08047 z"
   id="path28"
   sodipodi:nodetypes="ssssscccccccccccccccssssccccss" />
<path
   style="color:#000000;fill:#808080;fill-rule:evenodd;stroke:#747474;stroke-width:1;stroke-dasharray:none;stroke-opacity:1"
   d="m 95.135335,521.86526 c 0.322912,-19.11889 32.813585,-55.0419 115.807005,-72.48584 98.10667,-20.62051 249.67018,3.17108 242.50003,35.74392 -6.53289,29.6779 -107.0049,18.66918 -167.06303,19.5118 -51.52466,0.72289 -96.96786,3.71618 -94.66995,-13.30904 0.65839,-4.87798 10.59441,-10.18561 25.78395,-16.62339 14.83554,-6.28774 39.258,-11.51896 69.377,-13.64867 17.997,-0.46575 35.748,0.85097 48.617,3.5542 11.796,3.09672 17.429,7.50231 8.531,10.74684 -6.015,2.02567 -14.795,2.80067 -25.811,3.26889 -5.552,0.33238 -12.441,0.61026 -19.326,0.1024 -7.029,-0.38234 -11.543,-1.75522 -12.419,-3.20943 l 28.892,-1.73995 c -0.403,-0.11148 -1.261,-0.39596 -2.653,-0.51322 -2.103,-0.16764 -2.443,-0.0343 -1.201,-0.12594 2.479,-0.17424 7.974,-1.29814 7.243,-0.99136 3.692,-1.57189 1.675,-2.82255 -4.601,-4.17933 -6.569,-1.24446 -18.063,-1.92491 -27.074,-1.66066 -18.802,1.06816 -33.98891,3.84578 -45.184,7.79175 -11.38461,4.01277 -23.95513,10.37076 -25.07297,13.64613 -4.13556,12.11758 37.28182,9.24431 79.89497,9.45949 52.89968,0.26713 144.28657,7.80833 146.9667,-12.99243 3.22258,-25.01077 -134.21111,-49.61658 -218.83107,-31.73814 -104.37925,22.05316 -122.77347,61.25146 -101.34163,78.91211 26.32253,21.69076 77.59948,21.73558 139.5717,3.29771 1.05382,-0.98761 1.60086,-1.73032 2.45543,-2.73285 l 7.25153,19.3734 c -1.63718,0.47927 -3.87846,0.23075 -5.37495,0.56834 -70.57618,20.27119 -126.80805,18.73282 -159.27271,-5.94623 -8.12526,-6.17668 -13.175199,-13.4708 -12.996005,-24.08047 z"
   id="path29"
   sodipodi:nodetypes="ssssssccccccccccccssssssccccsss" />
</g>
  <g
     inkscape:groupmode="layer"
     id="layer2"
     inkscape:label="roots"
     style="display:inline"
     sodipodi:insensitive="true">
    <line
       x1="-142.43898"
       y1="542.42041"
       x2="-142.43898"
       y2="442.42041"
       stroke="#4a3521"
       stroke-linecap="round"
       stroke-width="11"
       id="line1-9" />
    <line
       x1="-142.43898"
       y1="442.42041"
       x2="-168.07878"
       y2="380.52048"
       stroke="#4a3521"
       stroke-linecap="round"
       stroke-width="7.7"
       id="line2-1" />
    <line
       x1="-168.07878"
       y1="380.52048"
       x2="-199.8208"
       y2="348.77847"
       stroke="#4a3521"
       stroke-linecap="round"
       stroke-width="5.489"
       id="line3-2" />
    <line
       x1="-199.8208"
       y1="348.77847"
       x2="-227.60767"
       y2="337.26877"
       stroke="#4a3521"
       stroke-linecap="round"
       stroke-width="4.00763"
       id="line4-7" />
    <line
       x1="-227.60767"
       y1="337.26877"
       x2="-247.75879"
       y2="337.26877"
       stroke="#4a3521"
       stroke-linecap="round"
       stroke-width="3.01511"
       id="line5-0" />
    <line
       x1="-227.60767"
       y1="337.26877"
       x2="-241.85666"
       y2="323.01978"
       stroke="#4a3521"
       stroke-linecap="round"
       stroke-width="3.01511"
       id="line6-9" />
    <line
       x1="-199.8208"
       y1="348.77847"
       x2="-211.33049"
       y2="320.99158"
       stroke="#4a3521"
       stroke-linecap="round"
       stroke-width="4.00763"
       id="line7-3" />
    <line
       x1="-211.33049"
       y1="320.99158"
       x2="-225.57948"
       y2="306.74258"
       stroke="#4a3521"
       stroke-linecap="round"
       stroke-width="3.01511"
       id="line8" />
    <line
       x1="-211.33049"
       y1="320.99158"
       x2="-211.33049"
       y2="300.84045"
       stroke="#4a3521"
       stroke-linecap="round"
       stroke-width="3.01511"
       id="line9" />
    <line
       x1="-168.07878"
       y1="380.52048"
       x2="-168.07878"
       y2="335.63049"
       stroke="#4a3521"
       stroke-linecap="round"
       stroke-width="5.489"
       id="line10" />
    <line
       x1="-168.07878"
       y1="335.63049"
       x2="-179.58849"
       y2="307.8436"
       stroke="#4a3521"
       stroke-linecap="round"
       stroke-width="4.00763"
       id="line11" />
    <line
       x1="-179.58849"
       y1="307.8436"
       x2="-193.83748"
       y2="293.5946"
       stroke="#4a3521"
       stroke-linecap="round"
       stroke-width="3.01511"
       id="line12" />
    <line
       x1="-179.58849"
       y1="307.8436"
       x2="-179.58849"
       y2="287.69247"
       stroke="#4a3521"
       stroke-linecap="round"
       stroke-width="3.01511"
       id="line13" />
    <line
       x1="-168.07878"
       y1="335.63049"
       x2="-156.56908"
       y2="307.8436"
       stroke="#4a3521"
       stroke-linecap="round"
       stroke-width="4.00763"
       id="line14" />
    <line
       x1="-156.56908"
       y1="307.8436"
       x2="-156.56908"
       y2="287.69247"
       stroke="#4a3521"
       stroke-linecap="round"
       stroke-width="3.01511"
       id="line15" />
    <line
       x1="-156.56908"
       y1="307.8436"
       x2="-142.32008"
       y2="293.5946"
       stroke="#4a3521"
       stroke-linecap="round"
       stroke-width="3.01511"
       id="line16" />
    <line
       x1="-142.43898"
       y1="442.42041"
       x2="-116.79918"
       y2="380.52048"
       stroke="#4a3521"
       stroke-linecap="round"
       stroke-width="7.7"
       id="line17" />
    <line
       x1="-116.79918"
       y1="380.52048"
       x2="-116.79918"
       y2="335.63049"
       stroke="#4a3521"
       stroke-linecap="round"
       stroke-width="5.489"
       id="line18" />
    <line
       x1="-116.79918"
       y1="335.63049"
       x2="-128.30888"
       y2="307.8436"
       stroke="#4a3521"
       stroke-linecap="round"
       stroke-width="4.00763"
       id="line19" />
    <line
       x1="-128.30888"
       y1="307.8436"
       x2="-142.55788"
       y2="293.5946"
       stroke="#4a3521"
       stroke-linecap="round"
       stroke-width="3.01511"
       id="line20" />
    <line
       x1="-128.30888"
       y1="307.8436"
       x2="-128.30888"
       y2="287.69247"
       stroke="#4a3521"
       stroke-linecap="round"
       stroke-width="3.01511"
       id="line21" />
    <line
       x1="-116.79918"
       y1="335.63049"
       x2="-105.28947"
       y2="307.8436"
       stroke="#4a3521"
       stroke-linecap="round"
       stroke-width="4.00763"
       id="line22" />
    <line
       x1="-105.28947"
       y1="307.8436"
       x2="-105.28947"
       y2="287.69247"
       stroke="#4a3521"
       stroke-linecap="round"
       stroke-width="3.01511"
       id="line23" />
    <line
       x1="-105.28947"
       y1="307.8436"
       x2="-91.040482"
       y2="293.5946"
       stroke="#4a3521"
       stroke-linecap="round"
       stroke-width="3.01511"
       id="line24" />
    <line
       x1="-116.79918"
       y1="380.52048"
       x2="-85.057175"
       y2="348.77847"
       stroke="#4a3521"
       stroke-linecap="round"
       stroke-width="5.489"
       id="line25" />
    <line
       x1="-85.057175"
       y1="348.77847"
       x2="-73.54747"
       y2="320.99158"
       stroke="#4a3521"
       stroke-linecap="round"
       stroke-width="4.00763"
       id="line26" />
    <line
       x1="-73.54747"
       y1="320.99158"
       x2="-73.54747"
       y2="300.84045"
       stroke="#4a3521"
       stroke-linecap="round"
       stroke-width="3.01511"
       id="line27" />
    <line
       x1="-73.54747"
       y1="320.99158"
       x2="-59.298473"
       y2="306.74258"
       stroke="#4a3521"
       stroke-linecap="round"
       stroke-width="3.01511"
       id="line28" />
    <line
       x1="-85.057175"
       y1="348.77847"
       x2="-57.270275"
       y2="337.26877"
       stroke="#4a3521"
       stroke-linecap="round"
       stroke-width="4.00763"
       id="line29" />
    <line
       x1="-57.270275"
       y1="337.26877"
       x2="-43.021282"
       y2="323.01978"
       stroke="#4a3521"
       stroke-linecap="round"
       stroke-width="3.01511"
       id="line30" />
    <line
       x1="-57.270275"
       y1="337.26877"
       x2="-37.119152"
       y2="337.26877"
       stroke="#4a3521"
       stroke-linecap="round"
       stroke-width="3.01511"
       id="line31" />
  </g>
  <g
     id="g1"
     transform="translate(-21.132399,-238.29621)"
     inkscape:label="tree"
     inkscape:groupmode="layer"
     style="display:inline"
     sodipodi:insensitive="true">
    <path
       style="color:#000000;fill:#727272;fill-opacity:1;stroke-linecap:round;-inkscape-stroke:none;image-rendering:auto"
       sodipodi:type="inkscape:offset"
       inkscape:radius="1"
       inkscape:original="M 176.57031 291.65039 L 81.830078 311.38867 L 82.652344 318.56641 C 119.6497 328.18255 143.13706 343.37321 170.45703 356.98242 L 227.17383 400.06055 C 237.42398 417.48749 252.66388 430.64849 259.81641 449.62305 C 269.16435 461.76974 265.5051 463.68846 254.04102 458.52148 C 231.22339 450.97241 206.30958 444.1252 198.46094 431.56445 L 124.68945 426.9043 L 74.140625 431.62891 L 59.898438 448.13867 C 87.477673 456.44066 109.18199 468.15553 125.86914 482.7832 C 141.28934 469.03294 161.08001 466.50267 180.70703 463.55273 C 212.83492 444.59487 223.22009 463.07574 272.85352 475.10742 C 289.00317 494.43587 299.20561 515.43762 304.63867 537.78125 C 310.81154 588.96438 306.61879 638.86997 304.08789 689.05664 L 298.7207 719.18555 C 298.52739 738.63156 297.72521 757.28484 285.77344 772.04883 L 292.85352 789.3457 L 311.19922 784.84766 C 312.00846 775.60529 312.463 763.9653 318.52539 755.60156 C 329.68789 763.09729 334.51327 774.46851 338.82422 785.50195 L 358.12305 792.54883 L 364.67383 776.23438 C 340.92109 756.53602 335.91202 727.6349 330.05469 694.74414 C 330.33707 675.29928 327.7655 656.13145 328.74609 636.85352 C 328.37964 619.51443 336.56018 611.38362 338.82617 606.00195 C 350.22698 578.92518 355.26559 566.66138 374.49414 539.52344 C 405.00108 535.01394 414.87771 532.45781 445.35938 527.7832 C 464.77078 535.82941 476.63184 549.13809 487.74414 562.96875 C 500.96581 544.41169 521.47039 526.92999 546.30859 510.08594 L 485.70508 498.58789 L 437.63477 519.45117 C 416.87239 525.76505 395.23686 528.06245 373.40234 529.45117 C 366.24277 522.97958 367.20787 508.19788 370.00391 501.98438 L 370.00391 487.16992 L 450.85938 458.10742 L 503.96875 450.12891 L 486.49023 442.60352 L 390.77734 419.95508 L 295.18555 438.96484 L 359.76172 484.80664 C 359.76772 502.20766 359.86304 519.60929 359.67969 537.00977 C 345.44371 559.73953 334.5684 582.3869 323.24023 573.63672 C 322.60398 563.1168 320.22088 553.15283 324.58203 541.04297 C 307.75455 516.4272 296.62965 488.51065 282.46094 462.33398 C 275.85118 445.52633 265.34194 432.20782 254.95898 418.07422 C 242.00791 397.96146 204.13203 366.09867 216.96289 357.86719 C 224.25673 335.94684 249.28903 328.03472 268.65234 315.64453 L 176.57031 291.65039 z "
       xlink:href="#path2"
       id="path22"
       inkscape:href="#path2"
       d="m 176.36719,290.67187 -94.740237,19.73829 a 1.0001,1.0001 0 0 0 -0.791016,1.09179 l 0.822266,7.17774 a 1.0001,1.0001 0 0 0 0.742188,0.85547 c 36.803299,9.5657 60.174419,24.6646 87.511719,38.29101 l 56.53125,42.9375 c 10.355,17.50752 25.42389,30.60686 32.4375,49.21289 a 1.0001,1.0001 0 0 0 0.14258,0.25586 c 2.30999,3.0016 3.79763,5.35994 4.53125,7.0332 0.36681,0.83664 0.53749,1.50086 0.5664,1.93946 0.0289,0.43859 -0.0524,0.60192 -0.14062,0.70312 -0.0883,0.1012 -0.27647,0.22471 -0.72852,0.2793 -0.45204,0.0546 -1.12634,0.015 -1.96484,-0.15039 -1.67701,-0.33087 -4.00923,-1.15371 -6.83594,-2.42774 a 1.0001,1.0001 0 0 0 -0.0957,-0.0371 C 242.92922,453.79196 231.01378,450.19473 221.02539,446 c -9.98839,-4.19473 -18.00118,-9.01847 -21.7168,-14.96484 a 1.0001,1.0001 0 0 0 -0.78515,-0.46875 l -73.77149,-4.66016 a 1.0001,1.0001 0 0 0 -0.15625,0.002 l -50.548825,4.72461 a 1.0001,1.0001 0 0 0 -0.664063,0.34375 l -14.242187,16.50977 a 1.0001,1.0001 0 0 0 0.46875,1.60937 c 27.46924,8.26888 49.038625,19.92067 65.601565,34.43946 a 1.0001,1.0001 0 0 0 1.32422,-0.006 c 15.14845,-13.50794 34.67872,-16.03615 54.32031,-18.98828 a 1.0001,1.0001 0 0 0 0.35937,-0.12696 c 15.90083,-9.38267 26.05288,-9.457 38.72071,-5.74609 12.60323,3.69198 27.64726,11.28926 52.33593,17.31445 15.93222,19.13821 26.00304,39.89626 31.38282,61.9961 6.14065,51.00236 1.97052,100.79902 -0.56055,150.95898 l -5.35742,30.07227 a 1.0001,1.0001 0 0 0 -0.0156,0.16601 c -0.1931,19.42485 -1.01825,37.78332 -12.72461,52.24414 a 1.0001,1.0001 0 0 0 -0.14843,1.00781 l 7.08007,17.29688 a 1.0001,1.0001 0 0 0 1.16407,0.5918 l 18.3457,-4.49805 a 1.0001,1.0001 0 0 0 0.75781,-0.88281 c 0.78459,-8.96076 1.33455,-19.90146 6.60156,-27.8711 10.26753,7.30869 14.90908,18.08553 19.09571,28.80078 a 1.0001,1.0001 0 0 0 0.58789,0.57618 l 19.29883,7.04687 a 1.0001,1.0001 0 0 0 1.27148,-0.56641 l 6.55078,-16.31445 a 1.0001,1.0001 0 0 0 -0.28906,-1.14258 c -23.41814,-19.42087 -28.40774,-47.96237 -34.25977,-80.82422 0.27183,-19.50172 -2.28101,-38.61905 -1.30859,-57.73632 a 1.0001,1.0001 0 0 0 0.002,-0.0723 c -0.17983,-8.50907 1.7254,-14.69662 3.95899,-19.46484 2.23359,-4.76823 4.81285,-8.05507 6.04297,-10.97657 11.34823,-26.9519 16.36475,-39.12863 35.33593,-65.95117 29.95913,-4.442 40.15928,-7.01367 70.13477,-11.61914 19.03401,7.96236 30.70417,21.03233 41.74609,34.77539 a 1.0001,1.0001 0 0 0 1.59375,-0.0469 c 13.11037,-18.40084 33.5268,-35.82764 58.31055,-52.63477 a 1.0001,1.0001 0 0 0 -0.375,-1.81054 l -60.60352,-11.49805 a 1.0001,1.0001 0 0 0 -0.58398,0.0644 l -48.00586,20.83594 c -20.47377,6.22029 -41.84887,8.52089 -63.47266,9.91016 -3.09248,-2.99619 -4.57258,-7.87221 -4.85937,-12.85157 -0.29518,-5.12497 0.65335,-10.29452 1.94727,-13.16992 a 1.0001,1.0001 0 0 0 0.0879,-0.41016 v -14.11132 l 80.10156,-28.79102 53.01172,-7.96484 a 1.0001,1.0001 0 0 0 0.24609,-1.90625 l -17.47851,-7.52539 a 1.0001,1.0001 0 0 0 -0.16407,-0.0547 l -95.71289,-22.64844 a 1.0001,1.0001 0 0 0 -0.42578,-0.008 l -95.5918,19.00976 a 1.0001,1.0001 0 0 0 -0.38281,1.79493 l 64.1543,45.54101 c 0.008,17.14183 0.0956,34.27863 -0.082,51.40625 -7.07034,11.3079 -13.31635,22.54206 -19.0918,29.77735 -2.90955,3.64499 -5.70738,6.25077 -8.2793,7.38281 -2.45454,1.08038 -4.64986,0.93246 -7.10937,-0.82813 -0.68521,-10.42763 -2.86783,-20.03742 1.32422,-31.67773 a 1.0001,1.0001 0 0 0 -0.11524,-0.90234 c -16.74456,-24.49448 -27.86229,-52.37541 -42.06836,-78.6211 -6.67855,-16.92107 -17.22811,-30.29156 -27.57422,-44.375 l 0.0332,0.0508 c -6.58563,-10.22735 -19.29424,-23.1988 -28.73438,-34.65429 -4.72006,-5.72775 -8.61315,-11.08453 -10.48242,-15.36133 -0.93464,-2.1384 -1.34837,-3.99025 -1.20703,-5.42774 0.14134,-1.43748 0.74059,-2.49145 2.12695,-3.38086 a 1.0001,1.0001 0 0 0 0.41016,-0.52539 c 3.55009,-10.66918 11.41459,-17.95523 20.91601,-24.16406 9.50143,-6.20882 20.59825,-11.28475 30.36329,-17.5332 a 1.0001,1.0001 0 0 0 -0.28711,-1.8086 l -92.08203,-23.99414 a 1.0001,1.0001 0 0 0 -0.45508,-0.0117 z"
       inkscape:label="tree_offset" />
    <path
       id="path2"
       style="color:#000000;fill:#808080;stroke-linecap:round;-inkscape-stroke:none"
       d="m 170.45682,356.98255 56.71725,43.07864 c 10.25015,17.42694 25.48903,30.58738 32.64156,49.56194 9.34794,12.14669 5.68855,14.06568 -5.77553,8.8987 -22.81763,-7.54907 -47.73008,-14.39678 -55.57872,-26.95753 l -73.77108,-4.6608 -50.548935,4.72593 -14.242819,16.50975 c 27.579236,8.30199 49.283454,20.01596 65.970604,34.64363 15.4202,-13.75026 35.21069,-16.28049 54.83771,-19.23043 32.12789,-18.95786 42.51281,-0.4773 92.14624,11.55438 16.14965,19.32845 26.3521,40.33019 31.78516,62.67382 6.17287,51.18313 1.98012,101.08942 -0.55078,151.27609 l -5.36726,30.12913 c -0.19331,19.44601 -0.99496,38.09901 -12.94673,52.863 l 7.07962,17.29681 18.34578,-4.49709 c 0.80924,-9.24237 1.26485,-20.88367 7.32724,-29.24741 11.1625,7.49573 15.98728,18.86735 20.29823,29.90079 l 19.29787,7.04772 6.55138,-16.3162 c -23.75274,-19.69836 -28.76129,-48.59816 -34.61862,-81.48892 0.28238,-19.44486 -2.28915,-38.61359 -1.30856,-57.89152 -0.36645,-17.33909 7.81344,-25.46878 10.07943,-30.85045 11.40081,-27.07677 16.43932,-39.34182 35.66787,-66.47976 30.50694,-4.5095 40.38456,-7.06419 70.86622,-11.7388 19.41141,8.04621 31.2727,21.35483 42.385,35.18549 13.22167,-18.55706 33.72449,-36.04043 58.56269,-52.88448 l -60.60324,-11.49656 -48.06963,20.86303 c -20.76238,6.31388 -42.39832,8.61033 -64.23284,9.99905 -7.15957,-6.47159 -6.19448,-21.25255 -3.39844,-27.46606 V 487.1697 l 80.85532,-29.06174 53.11091,-7.97865 -17.47867,-7.52663 -95.71435,-22.647 -95.59132,19.00881 64.57561,45.84288 c 0.006,17.40102 0.10285,34.80264 -0.0805,52.20312 -14.23598,22.72976 -25.11265,45.37598 -36.44082,36.6258 -0.63625,-10.51992 -3.0192,-20.48413 1.34195,-32.59399 -16.82748,-24.61577 -27.95191,-52.53173 -42.12062,-78.7084 -6.60976,-16.80765 -17.11826,-30.12531 -27.50122,-44.25891 -12.95107,-20.11276 -50.8284,-51.97554 -37.99754,-60.20702 7.29384,-21.92035 32.32629,-29.83414 51.6896,-42.22433 l -92.0807,-23.99353 -94.741673,19.73855 0.822185,7.17812 c 36.997358,9.61614 60.485198,24.80656 87.805168,38.41577 z"
       sodipodi:nodetypes="cccccccccccccccccccccccscccccccccccccccccccccccccc" />
    <path
       id="path18"
       style="fill:#a98c1c;fill-opacity:1;fill-rule:evenodd;stroke:#969696;stroke-width:0.0717432;stroke-linecap:square"
       d="m -197.22059,309.68042 34.62585,-14.27671 26.50753,-1.35775 20.96376,4.91028 11.09018,5.35007 16.008542,7.81165 -0.18653,13.8529 -3.83128,-7.41423 -12.178052,-2.89945 -11.99181,-6.18465 -19.38585,-1.82747 -25.11516,1.62303 -36.47295,14.33263 z"
       sodipodi:nodetypes="cccccccccccccc" />
    <path
       id="rect15"
       style="fill:#ffd42a;fill-opacity:1;fill-rule:evenodd;stroke:#969696;stroke-width:0.0717432;stroke-linecap:square"
       d="m -100.16701,319.40341 11.560682,-5.37299 -0.1889,14.92452 -10.98673,4.64138 z"
       sodipodi:nodetypes="ccccc" />
    <path
       id="path15"
       style="fill:#b8b8b8;fill-opacity:1;fill-rule:evenodd;stroke:#969696;stroke-width:0.1;stroke-linecap:square"
       d="m 455.34281,323.02637 80.09418,-15.24163 94.01658,20.37861 -0.63129,60.78189 50.22229,4.45954 -38.38781,16.41584 -41.60198,-7.62162 16.99773,-10.15454 0.93328,-61.3105 -114.41468,19.90448 z"
       transform="translate(-146.18165,118.45292)"
       sodipodi:nodetypes="ccccccccccc" />
    <path
       id="path69"
       style="fill:#000000;fill-opacity:0.269625;fill-rule:evenodd;stroke:#969696;stroke-width:0.1;stroke-linecap:square"
       d="m 58.695443,448.48215 15.022236,-17.70727 14.118281,-1.33966 75.02193,21.62564 -41.30803,15.53688 c -12.39798,-4.05163 -21.45018,-10.71572 -39.969899,-9.9874 -10.683153,-4.86741 -20.667342,-5.65099 -22.884518,-8.12819 z"
       sodipodi:nodetypes="ccccccc" />
    <path
       id="path17"
       style="fill:#6f8a91;fill-rule:evenodd;stroke:#969696;stroke-width:0.1;stroke-linecap:square"
       d="m 94.76526,419.53708 5.72847,-32.63763 14.72336,14.34238 5.10055,-9.04982 28.31441,27.3911 36.71312,20.42525 -23.64836,11.19454 -37.8953,9.26297 -36.346527,-10.33082 -7.757532,-4.51207 z"
       sodipodi:nodetypes="ccccccccccc" />
    <path
       style="color:#000000;display:inline;fill:url(#linearGradient2);fill-opacity:1;-inkscape-stroke:none"
       d="m 230.44073,331.03999 -17.75447,5.73706 c 42.03704,7.88399 59.88599,20.58674 73.43802,41.29704 8.80697,13.45889 22.98338,44.45745 52.30663,52.16071 l 18.64135,-2.88402 c -32.00483,-8.81443 -51.66614,-43.74035 -57.64629,-53.54617 -12.15792,-19.9357 -33.2103,-39.2026 -68.98524,-42.76462 z"
       id="path21"
       inkscape:label="bridge"
       sodipodi:nodetypes="ccsccsc" />
    <path
       id="path68"
       style="fill:#b7c4c8;fill-rule:evenodd;stroke:#969696;stroke-width:0.1;stroke-linecap:square"
       d="m 94.76526,419.53708 5.72847,-32.63763 14.72336,14.34238 5.10055,-9.04982 28.31441,27.3911 -5.3582,-0.80682 1.49875,5.87321 -10.22611,-1.67913 -7.34141,2.39445 -9.2912,-7.09757 -6.70121,8.84078 -12.968258,-2.8374 z"
       sodipodi:nodetypes="ccccccccccccc" />
    <path
       id="path70"
       style="fill:#000000;fill-opacity:0.230652;fill-rule:evenodd;stroke:#969696;stroke-width:0.1;stroke-linecap:square"
       d="m 79.7078,445.96138 14.636327,-25.82294 6.203143,-32.93066 -0.688948,38.99375 9.277498,30.34886 -21.771743,-5.65592 z"
       sodipodi:nodetypes="ccccccc" />
    <path
       id="path71"
       style="fill:#000000;fill-opacity:0.230652;fill-rule:evenodd;stroke:#969696;stroke-width:0.1;stroke-linecap:square"
       d="m 111.38288,434.60356 0.25328,-7.0411 3.43693,-25.16416 5.16419,-9.59178 0.15991,18.83691 8.15466,14.16027 -4.01385,7.489 -1.10972,27.10912 z"
       sodipodi:nodetypes="ccccccccc" />
    <path
       id="path72"
       style="fill:#000000;fill-opacity:0.230652;fill-rule:evenodd;stroke:#969696;stroke-width:0.1;stroke-linecap:square"
       d="m 110.03496,439.68277 1.6012,-12.12031 -7.1223,-21.71867 -0.57969,-10.48051 16.46302,16.28015 -1.90422,8.43485 13.60433,14.0207 -10.40589,2.68421 z"
       sodipodi:nodetypes="ccccccccc"
       transform="translate(30.084762,16.928186)" />
    <path
       id="path85"
       style="fill:#ffcc00;fill-opacity:1;fill-rule:evenodd;stroke:#969696;stroke-width:0.0369726;stroke-linecap:square"
       d="m -167.15085,307.71176 -6.50231,1.44682 0.51296,10.98585 4.86276,2.51486 7.17721,-0.65113 -0.30556,-12.8564 z"
       sodipodi:nodetypes="ccccccc" />
    <path
       id="path73"
       style="fill:#ffd42a;fill-opacity:1;fill-rule:evenodd;stroke:#969696;stroke-width:0.0717432;stroke-linecap:square"
       d="m -198.30595,309.28378 15.12916,6.98063 24.18215,2.84183 22.38091,6.71579 14.00146,-2.6707 0.747,17.18029 -15.30147,4.73263 -24.70217,-8.3489 -23.57471,-3.52146 -13.02714,-8.57073 z"
       sodipodi:nodetypes="ccccccccccc" />
    <path
       id="path74"
       style="fill:#000000;fill-opacity:0.209334;fill-rule:evenodd;stroke:#969696;stroke-width:0.0717432;stroke-linecap:square"
       d="m -198.30595,309.28378 15.12916,6.98063 -0.80291,17.92111 -14.49106,-9.56236 z"
       sodipodi:nodetypes="ccccc" />
    <path
       id="path75"
       style="fill:#000000;fill-opacity:0.0882246;fill-rule:evenodd;stroke:#969696;stroke-width:0.0717432;stroke-linecap:square"
       d="m -162.08589,318.49336 -21.0909,-2.22895 -0.80291,17.92111 21.44713,2.29482 z"
       sodipodi:nodetypes="ccccc" />
    <path
       id="path76"
       style="fill:#000000;fill-opacity:0.135502;fill-rule:evenodd;stroke:#969696;stroke-width:0.0717432;stroke-linecap:square"
       d="m -161.81039,318.3977 25.8523,7.40444 0.26896,20.19713 -26.84344,-9.51893 z"
       sodipodi:nodetypes="ccccc" />
    <path
       id="path77"
       style="fill:#ffd42a;fill-opacity:1;fill-rule:evenodd;stroke:#969696;stroke-width:0.0717432;stroke-linecap:square"
       d="m -124.0419,330.54521 25.431162,-7.1133 0.14748,9.2679 -24.944162,7.69602 z"
       sodipodi:nodetypes="ccccc" />
    <path
       id="path78"
       style="fill:#ffd42a;fill-opacity:1;fill-rule:evenodd;stroke:#969696;stroke-width:0.0717432;stroke-linecap:square"
       d="m -116.94732,324.16375 5.33694,-3.57779 6.22861,1.66527 0.93639,12.82338 -11.41227,2.73979 z"
       sodipodi:nodetypes="cccccc" />
    <path
       id="path79"
       style="fill:#a0892c;fill-opacity:1;fill-rule:evenodd;stroke:#969696;stroke-width:0.0480813;stroke-linecap:square"
       d="m -114.51053,327.82433 3.56833,-2.40344 4.16451,1.11867 0.62608,8.61432 -7.63035,1.8405 z"
       sodipodi:nodetypes="cccccc" />
    <rect
       style="fill:#806600;fill-opacity:1;fill-rule:evenodd;stroke-width:0.0829766;stroke-linecap:square"
       id="rect86"
       width="8.1210613"
       height="11.706336"
       x="-139.65384"
       y="299.47934" />
    <path
       id="path80"
       style="fill:#ffcc00;fill-opacity:1;fill-rule:evenodd;stroke:#969696;stroke-width:0.0369726;stroke-linecap:square"
       d="m -148.83552,302.98968 -7.33259,1.09863 0.4911,5.34867 10.64683,3.42547 8.03917,-1.02202 -0.0431,-5.61243 z"
       sodipodi:nodetypes="ccccccc" />
    <ellipse
       style="fill:#e6b900;fill-opacity:1;fill-rule:evenodd;stroke-width:0.0834341;stroke-linecap:square"
       id="path86"
       cx="-135.73985"
       cy="300.56894"
       rx="4.6120696"
       ry="1.7434218" />
  </g>
  <g
     inkscape:groupmode="layer"
     id="layer3"
     inkscape:label="midgard">
    <path
       style="display:inline;fill:#c8beb7;fill-rule:evenodd;stroke:none;stroke-width:0.1;stroke-linecap:square"
       d="m 609.40377,337.51678 c 5.36191,0.91186 9.43645,3.32254 14.2021,5.14101 -5.52539,2.10109 -12.06939,6.48962 -15.58417,4.0756 -13.61095,2.61343 -23.37703,7.59487 -40.91733,7.78828 -11.19687,-0.0579 -21.39069,-1.45875 -33.7343,0.0188 -5.06166,0.0931 -9.1986,-0.87779 -12.86894,-2.38552 0.81342,-2.2823 4.50429,-3.65986 7.53817,-5.1607 -2.45713,0.31765 -4.81537,0.69027 -8.02696,0.58852 -2.36769,-0.53735 -4.66212,-0.80277 -6.52462,0.53508 -2.88525,-1.67739 -5.64327,-3.41681 -6.59602,-6.03641 4.50064,-0.62391 9.04595,-1.00104 13.32994,-2.82158 z"
       transform="translate(-192.95659,-135.44067)"
       id="path1"
       sodipodi:nodetypes="cccccccccccc"
       inkscape:label="base" />
    <path
       style="display:inline;fill:#536c67;fill-rule:evenodd;stroke:none;stroke-width:0.1;stroke-linecap:square"
       d="m 520.22164,339.25986 c 5.54589,-2.15654 10.75219,-4.59061 14.53247,-8.19009 5.36101,-4.54133 10.23479,-9.73946 14.6301,-15.58259 l 29.5143,0.98239 2.33333,5.33755 c 4.24463,3.87411 8.38766,6.48952 12.50789,8.82233 5.13987,3.38738 10.15519,5.99329 15.66404,6.88733 -4.77135,1.9862 -10.17207,3.94966 -23.52974,5.62573 -12.84717,3.35718 -26.01261,2.85707 -40.79068,0.47644 -4.88138,-0.5965 -7.46587,-1.67617 -15.83279,-1.53945 -4.55454,-0.0455 -7.57112,-0.98132 -9.02892,-2.81964 z"
       transform="translate(-192.95659,-135.44067)"
       id="path3"
       sodipodi:nodetypes="ccccccccccc"
       inkscape:label="mid" />
    <path
       style="display:inline;fill:#ececec;fill-rule:evenodd;stroke:none;stroke-width:0.1;stroke-linecap:square"
       d="m 549.38421,315.48718 c 4.68241,-4.12781 9.04826,-8.86794 15.03151,-10.47943 6.56607,3.13324 9.99623,7.50637 14.48279,11.46182 l -6.70022,0.16199 -4.89334,1.67385 -6.97109,-1.08777 -7.87332,0.55363 z"
       transform="translate(-192.95659,-135.44067)"
       id="path16"
       sodipodi:nodetypes="cccccccc"
       inkscape:label="peak" />
    <path
       style="fill:#6c5353;stroke:none;stroke-width:1px;stroke-linecap:butt;stroke-linejoin:miter;stroke-opacity:1"
       d="m 421.03141,159.6114 -6.84303,0.13772 -4.58827,1.67883 1.27049,1.68204 4.35293,1.22012 8.01864,0.18375 z"
       id="path5"
       transform="translate(-35.194973,21.429451)"
       sodipodi:nodetypes="ccccccc" />
    <path
       style="fill:#333333;fill-opacity:0.134894;stroke:none;stroke-width:1px;stroke-linecap:butt;stroke-linejoin:miter;stroke-opacity:1"
       d="m 370.92392,175.06075 -3.74093,6.44281 -2.11477,8.78978 -4.30526,10.40373 -2.61549,8.16067 c 13.27311,2.82694 24.66694,0.99403 34.18636,-1.36534 l -20.85268,-16.41905 7.29724,-9.97283 z"
       id="path6"
       sodipodi:nodetypes="ccccccccc" />
    <path
       style="fill:#333333;fill-opacity:0.271843;stroke:none;stroke-width:1px;stroke-linecap:butt;stroke-linejoin:miter;stroke-opacity:1"
       d="m 366.99347,171.64104 -10.8387,8.44493 c -3.24828,4.98319 -7.51426,9.33648 -11.72317,13.7251 -4.79647,4.75246 -10.55768,7.27203 -16.18274,10.10669 1.7739,2.13636 6.64993,2.85651 13.0111,2.89864 l 16.56245,2.02845 3.21818,-9.18 3.9715,-8.73732 1.87074,-8.99353 3.97017,-6.73353 z"
       id="path7"
       sodipodi:nodetypes="ccccccccccc" />
    <path
       style="fill:#333333;fill-opacity:0.177183;stroke:none;stroke-width:1px;stroke-linecap:butt;stroke-linejoin:miter;stroke-opacity:1"
       d="m 376.18707,184.36217 -4.84794,6.92442 10.39721,7.66711 z"
       id="path4"
       sodipodi:nodetypes="cccc" />
  </g>
  <g
     id="thor_rig"
     transform="translate(263,120)"
     sodipodi:insensitive="true">
    <g
       inkscape:label="chariot"
       inkscape:groupmode="layer"
       id="g36"
       style="display:inline">
      <g
         transform="matrix(0.7,0,0,1,1.5,0.8)"
         id="wheel_2"
         inkscape:label="wheel_2"
         sodipodi:insensitive="true">
        <ellipse
           style="fill:#ffcd05;fill-opacity:1;fill-rule:evenodd;stroke:none;stroke-width:7.8527;stroke-linecap:square"
           id="ellipse8-6"
           cx="0.13327706"
           cy="-0.014107663"
           rx="1.3636045"
           ry="1.3524531"
           inkscape:label="wheel_2" />
        <path
           id="spokes_2"
           style="fill:#918a6f;fill-rule:evenodd;stroke-width:0.1;stroke-linecap:square"
           d="m -0.00680431,-1.0360541 c -0.5655674,0.00138 -0.7721334,0.30691811 -1.03320299,0.56640611 l 0.77929679,0.041016 0.125,0.2363281 h 0.2226562 l 0.2148438,-0.3730469 -0.1210938,-0.46093741 c -0.066618,-0.00673 -0.128993,-0.00991 -0.1875,-0.00977 z m 0.953125,0.39648431 -0.4570312,0.63476557 -0.265625,-0.02343749 -0.1210938,0.1875 0.1972656,0.38085938 0.453125,0.1484375 C 1.1973885,0.12946954 1.0315652,-0.24244579 0.94632069,-0.63956979 Z m -1.5957031,0.5605468 -0.35546869,0.31640628 c 0.26056399,0.6649842 0.66645679,0.7084307 1.05273429,0.83398441 l -0.3203125,-0.71289066 0.1542969,-0.21875 -0.1015625,-0.19726563 z"
           inkscape:label="spokes_2">
          <animateTransform
             attributeName="transform"
             attributeType="XML"
             type="rotate"
             values="0; 360"
             dur="1s"
             repeatCount="indefinite" />
        </path>
      </g>
      <path
         id="base"
         style="fill:#a58400;fill-opacity:1;fill-rule:evenodd;stroke-width:0.1;stroke-linecap:square"
         d="m -3.4634322,0.0826407 c -0.125719,-0.16445474 -0.4626459,-0.59582302 -0.5772584,-0.71578077 0.372854,-0.25732309 1.6037541,-0.51568883 2.7070933,-0.46574333 L 1.8008505,0.59649071 -1.210927,1.5695962 Z"
         sodipodi:nodetypes="cccccc"
         inkscape:label="base"
         sodipodi:insensitive="true" />
      <g
         id="g11"
         inkscape:label="THOR"
         sodipodi:insensitive="true">
        <path
           style="display:inline;fill:#a48989;fill-opacity:1;stroke:none;stroke-width:0.0501539;stroke-linecap:butt;stroke-linejoin:miter;stroke-dasharray:none;stroke-opacity:1"
           d="m 1.9516266,-2.9104739 -0.2483488,-0.040313 -0.1879873,-0.082381 -0.83274073,-0.2065088 -0.1089935,-0.046242 c -0.1537407,-0.163045 -0.275671,-0.2560677 -0.58793382,-0.272401 l -0.2220606,-0.3782191 0.1671305,-0.342456 c 0.179089,0.031357 0.51047482,-0.099912 0.66449772,0.1940356 0.1215493,0.1436375 0.2341185,0.012203 0.39705805,0.4016642 0.18718028,0.1391382 0.27406198,0.3017516 0.56261518,0.4171631 l 0.1855345,-0.085839 0.2716898,0.052399 0.097547,0.2732847 z"
           id="path8"
           sodipodi:nodetypes="ccccccccccccccc" />
        <path
           style="display:inline;fill:#a48989;fill-opacity:1;stroke:none;stroke-width:0.0501539;stroke-linecap:butt;stroke-linejoin:miter;stroke-dasharray:none;stroke-opacity:1"
           d="M -0.00379053,0.26275275 0.22938843,0.31528199 0.28916107,0.42003878 0.73174445,0.54502623 1.2310822,0.44027544 1.1781532,0.15130249 0.5815559,-0.27837778 0.32576927,-1.1023378 l -0.47155732,-1.5803394 -0.31403781,0.3393211 -0.17198756,0.4456962 0.29004812,0.95817486 0.29225736,0.82971871 z"
           id="path9"
           sodipodi:nodetypes="cccccccccccccc" />
        <path
           style="display:inline;fill:#ac9393;fill-opacity:1;stroke:#000000;stroke-width:0.0501539;stroke-linecap:butt;stroke-linejoin:miter;stroke-dasharray:none;stroke-opacity:1"
           d="m -1.2999354,-1.8163324 1.12258303,-0.093754 0.0651784,-0.8371608 -1.07237203,0.039766 c -0.089127,0.1467805 -0.085365,0.052343 -0.2895161,0.3161511 -0.040448,0.2430275 0.079133,0.4025038 0.1741267,0.5749977 z"
           id="path10"
           sodipodi:nodetypes="cccccc" />
        <path
           style="display:inline;fill:#ac9393;fill-opacity:1;stroke:none;stroke-width:0.0704039;stroke-linecap:butt;stroke-linejoin:miter;stroke-dasharray:none;stroke-opacity:1"
           d="m -0.43013993,-4.6979023 -1.25053467,0.5950796 0.4973332,1.4221938 0.86015679,0.1220155 0.22661333,-0.2265674 c 0.0231123,-0.1191767 0.22321124,-0.2765031 0.34732719,-0.4175826 0.0344495,-0.3126785 0.0317729,-0.6349592 -0.0307998,-0.9727311 z"
           id="path11"
           sodipodi:nodetypes="cccccccc" />
        <path
           style="display:inline;fill:#ac9393;fill-opacity:1;stroke:none;stroke-width:0.0501539;stroke-linecap:butt;stroke-linejoin:miter;stroke-dasharray:none;stroke-opacity:1"
           d="m -1.8026293,0.07704188 0.1761514,0.23457519 0.2215733,0.39146182 0.2029083,0.13559972 0.68252203,-0.0430732 7.5366e-4,-0.22394425 C -0.64606798,0.39843998 -0.79397688,0.23132585 -0.79731471,0.02127217 -1.0340434,-0.21042865 -0.83499691,-0.61945857 -0.85383801,-0.93982394 l 0.0587739,-1.03564296 -0.26416289,-0.2972346 -0.3945046,0.068757 -0.1701392,1.0897238 c -0.023148,0.31741075 0.052008,0.59160744 -0.1121734,0.97101561 z"
           id="path12"
           sodipodi:nodetypes="cccccccccccccc" />
        <path
           style="display:inline;fill:#ac9393;fill-opacity:1;stroke:none;stroke-width:0.0501539;stroke-linecap:butt;stroke-linejoin:miter;stroke-dasharray:none;stroke-opacity:1"
           d="m -3.2378099,-2.8117218 0.2906624,-0.1749021 0.8327408,-0.2065088 0.1089935,-0.046242 c 0.1537407,-0.163045 0.275671,-0.2560677 0.5879338,-0.272401 l 0.2220606,-0.3782191 -0.1671305,-0.342456 c -0.179089,0.031357 -0.5104748,-0.099912 -0.6644977,0.1940356 -0.1215493,0.1436375 -0.2341185,0.012203 -0.3970581,0.4016642 -0.1871803,0.1391382 -0.274062,0.3017516 -0.5626152,0.4171631 l -0.5271665,-1.104e-4 0.030427,0.2829336 z"
           id="path13"
           sodipodi:nodetypes="ccccccccccccc" />
        <path
           style="display:inline;fill:#000000;stroke:none;stroke-width:0.0501539;stroke-linecap:butt;stroke-linejoin:miter;stroke-dasharray:none;stroke-opacity:1"
           d="m -3.1234379,-2.8121243 0.1159389,-0.1056384 -0.5635668,-0.6171439 -0.6398149,-0.5760243 0.06796,-0.2032614 0.010678,-0.1336352 -0.146149,0.00828 -0.2526043,0.077374 -0.4248467,0.3055924 -5.163e-4,0.081156 -0.091929,-0.00749 -0.084372,0.067233 0.050819,0.2581064 0.2498623,0.088725 0.076311,-0.055779 -5.37e-4,-0.080895 0.078654,0.023796 0.2494244,-0.1823145 0.6162575,0.5668369 z"
           id="path14"
           sodipodi:nodetypes="cccccccccccccccccccc" />
        <path
           style="display:inline;fill:#e4b99c;fill-opacity:1;stroke:none;stroke-width:0.0704039;stroke-linecap:butt;stroke-linejoin:miter;stroke-dasharray:none;stroke-opacity:1"
           d="m -1.1139225,-4.8900878 c -0.041259,0.1942942 -0.061012,0.3734101 -0.1971491,0.6346668 l 0.32048374,-0.1556646 0.0853209,0.1593505 c 0.1543272,0.1916392 0.30090248,0.2268688 0.4629816,0.5749175 l 0.10963506,0.1446852 0.19614612,-0.1590682 0.17943176,0.08966 0.02970143,-0.1629892 c -0.12899458,-0.3490808 -0.15285675,-0.7854071 -0.20472847,-1.1984893 z"
           id="path19"
           sodipodi:nodetypes="ccccccccccc" />
        <path
           style="display:inline;fill:#ac9393;stroke:none;stroke-width:0.0501539;stroke-linecap:butt;stroke-linejoin:miter;stroke-dasharray:none;stroke-opacity:1"
           d="m -3.358317,-2.9654062 0.1693083,0.1099004 0.053713,-0.0616 -0.2107771,-0.1682339 0.022517,-0.0654 0.3368397,-0.068849 -0.1551088,-0.1134627 -0.1421125,-0.00537 -0.2299452,0.1187268 0.062979,0.2098841 z"
           id="path20"
           sodipodi:nodetypes="ccccccccccc" />
        <path
           style="display:inline;fill:#6c5353;stroke:none;stroke-width:0.0501539;stroke-linecap:butt;stroke-linejoin:miter;stroke-dasharray:none;stroke-opacity:1"
           d="m -1.8026293,0.07704188 0.1761514,0.23457519 0.2215733,0.39146182 0.2029083,0.13559972 0.68252203,-0.0430732 7.5366e-4,-0.22394425 c -0.12734737,-0.17322118 -0.27525627,-0.34033531 -0.2785941,-0.55038899 -0.23672869,-0.23170082 -0.0376822,-0.64073074 -0.0565233,-0.96109611 -0.15593179,0.2459347 -0.49750379,0.14675085 -0.79435859,-0.0964015 -0.023148,0.31741051 0.076334,0.5136119 -0.087848,0.89302007 z"
           id="path23"
           sodipodi:nodetypes="ccccccccccc" />
        <path
           style="display:inline;fill:#664f4f;fill-opacity:1;stroke:none;stroke-width:0.0501539;stroke-linecap:butt;stroke-linejoin:miter;stroke-dasharray:none;stroke-opacity:1"
           d="M -0.00379053,0.26275275 0.22938843,0.31528199 0.28916107,0.42003878 0.73174445,0.54502623 1.2310822,0.44027544 1.1781532,0.15130249 0.5815559,-0.27837778 0.32576927,-1.1023378 c 0.0698291,0.2655446 -0.36431505,0.23512616 -0.66753457,0.16285276 l 0.29225736,0.82971871 z"
           id="path24"
           sodipodi:nodetypes="ccccccccccc" />
        <path
           style="display:inline;fill:#6c5353;fill-opacity:1;stroke:none;stroke-width:0.0501539;stroke-linecap:butt;stroke-linejoin:miter;stroke-dasharray:none;stroke-opacity:1"
           d="m -1.7988921,-1.8180128 c 0.2765358,0.1120484 0.7881999,0.4820586 1.06298727,0.2698247 0.2312503,-0.1786078 0.85360154,0.09968 0.98961373,-0.230707 -0.15789198,-0.2804962 -0.20890504,-0.4629293 -0.33435773,-0.8763657 -0.23028121,0.062906 -0.54709039,0.094658 -1.15482337,-0.068918 -0.089127,0.1467805 -0.119246,0.09733 -0.3233972,0.3611381 -0.040448,0.2430275 -0.1493431,0.4322978 -0.2400227,0.5450279 z"
           id="path25"
           sodipodi:nodetypes="csccccc" />
        <path
           style="display:inline;fill:#483737;fill-opacity:1;stroke:none;stroke-width:0.0501539;stroke-linecap:butt;stroke-linejoin:miter;stroke-dasharray:none;stroke-opacity:1"
           d="m -1.4897351,-2.4458648 c 0.3518063,0.095648 0.87664082,0.1315316 1.51199582,0.046404 -0.09234709,-0.1742175 -0.02415334,-0.3738195 -0.0065803,-0.5654175 -0.4254699,0.036557 -0.86128639,0.027431 -1.31305132,-0.05211 0.022555,0.2558845 -0.099367,0.4188237 -0.1923642,0.5711235 z"
           id="path26"
           sodipodi:nodetypes="ccccc" />
        <path
           style="display:inline;fill:#e6e6e6;fill-opacity:1;stroke:none;stroke-width:0.0501539;stroke-linecap:butt;stroke-linejoin:miter;stroke-dasharray:none;stroke-opacity:1"
           d="m -0.86042449,-2.3441385 0.0855092,0.04917 c 0.25095004,0.037667 0.45527689,0.037085 0.61641797,0.00107 l 0.0391019,-0.6775174 c -0.16952989,-0.017749 -0.3751732,-0.019245 -0.63366909,0.00305 l -0.0760507,0.011546 z"
           id="path27"
           sodipodi:nodetypes="ccccccc" />
        <path
           style="display:inline;fill:#e9c6af;stroke:none;stroke-width:0.0704039;stroke-linecap:butt;stroke-linejoin:miter;stroke-dasharray:none;stroke-opacity:1"
           d="m -1.0609154,-4.9086027 c -0.041259,0.1942942 -0.03214,0.3168026 -0.1682771,0.5780593 l 0.24171314,-0.1279474 0.13846345,0.1819549 c 0.1543272,0.1916392 0.27932321,0.2100479 0.44140233,0.5580966 l 0.0867774,0.1172809 0.17454492,-0.1415969 0.12136348,0.06815 0.038017,-0.1017838 C -0.11590536,-4.12547 -0.11165941,-4.5257131 -0.16353113,-4.9387953 Z"
           id="path30"
           sodipodi:nodetypes="ccccccccccc" />
        <path
           style="display:inline;fill:#ac9393;fill-opacity:1;stroke:none;stroke-width:0.0704039;stroke-linecap:butt;stroke-linejoin:miter;stroke-dasharray:none;stroke-opacity:1"
           d="m -0.96522563,-4.9153309 c -0.041259,0.1942942 -0.0923488,0.080577 0.10683456,0.3340282 0.0832609,0.1261372 0.33309716,0.012954 0.48265166,-0.035621 0.22369647,0.028897 0.30892463,0.057858 0.18645192,-0.3307144 z"
           id="path31"
           sodipodi:nodetypes="ccccc" />
        <path
           style="display:inline;fill:#4d4d4d;stroke:none;stroke-width:0.0704039;stroke-linecap:butt;stroke-linejoin:miter;stroke-dasharray:none;stroke-opacity:1"
           d="m -0.73919044,-5.5213734 -0.14881441,0.1385033 c -0.74554915,0.063493 -1.02792975,-0.352643 -1.40090815,-0.7406667 0.2697596,0.56514 0.5985996,0.9229403 1.2218852,0.999011 l -0.046895,0.234438 0.50843383,-0.030648 0.17250636,0.3678945 0.14743207,-0.012953 -0.0564635,-0.381631 0.20991429,-0.015593 -0.1773488,-0.2704703 c 0.58324627,-0.1915229 0.68336866,-0.6982771 0.82723767,-1.1100391 -0.2653552,0.5025116 -0.58432004,0.8599272 -1.07871663,0.9394096 z"
           id="path32"
           sodipodi:nodetypes="cccccccccccccc" />
        <path
           style="display:inline;fill:#e6e6e6;fill-opacity:1;stroke:none;stroke-width:0.0704039;stroke-linecap:butt;stroke-linejoin:miter;stroke-dasharray:none;stroke-opacity:1"
           d="m -0.80854938,-4.8827576 0.0136706,0.062099 0.20899101,0.024583 -0.0137511,-0.07869 z"
           id="path33"
           sodipodi:nodetypes="ccccc" />
        <path
           style="display:inline;fill:#e6e6e6;fill-opacity:1;stroke:none;stroke-width:0.0704039;stroke-linecap:butt;stroke-linejoin:miter;stroke-dasharray:none;stroke-opacity:1"
           d="m -0.28621766,-4.8290613 -0.0311955,-0.071411 0.13570066,-0.031113 -0.0137511,0.07869 z"
           id="path34"
           sodipodi:nodetypes="ccccc" />
      </g>
      <path
         id="path35"
         style="fill:#c8ab37;fill-opacity:1;fill-rule:evenodd;stroke-width:10;stroke-linecap:square"
         d="m -3.1138374,-0.46494596 c 0.99311,0.71667 1.0453326,0.34001828 2.14882257,-0.86855174 1.44662,-1.6572001 2.08511003,-0.9072801 2.87830003,-0.6181601 l -0.1151,2.53401012 C 1.0337652,1.2272323 -0.04474483,1.4903323 -1.2572948,1.5905023 L -3.449748,0.13808857 -4.0481215,-0.64707869 c 0.2137311,0.16053159 0.4838439,0.26345581 0.9342841,0.18213273 z"
         sodipodi:nodetypes="cccccccc"
         inkscape:label="chariot"
         sodipodi:insensitive="true" />
      <path
         style="fill:none;fill-rule:evenodd;stroke:#ffdd55;stroke-width:0.0861486;stroke-linecap:square"
         d="m 0.53570933,-0.48150156 c 0.20065161,0.11655824 0.40072365,0.23313422 0.56250007,0.34328837 0.1617765,0.11015514 0.2841814,0.21386647 0.3447421,0.30420302 0.060563,0.0903362 0.058644,0.16716337 -0.00412,0.22331488 -0.062766,0.0561616 -0.18631,0.0913998 -0.3457269,0.0997684 -0.15941685,0.008369 -0.35398298,-0.01045 -0.54568885,-0.05889 C 0.35571267,0.38174421 0.16795484,0.30338765 0.01989435,0.19841879 -0.1281698,0.09345068 -0.23551846,-0.0382918 -0.28298535,-0.18672315 c -0.0474668,-0.14843077 -0.0345159,-0.31350152 0.0339939,-0.47937305 0.0685068,-0.16586992 0.19240264,-0.33226459 0.34515285,-0.4808297 0.15275023,-0.148565 0.33355979,-0.2788573 0.50535024,-0.3747362 0.17179003,-0.095883 0.33348043,-0.1568546 0.45276976,-0.173803 0.1192902,-0.016948 0.1952615,0.010517 0.2136185,0.081282 0.018349,0.070767 -0.021282,0.1850005 -0.1094702,0.3308753 -0.088188,0.1458748 -0.22460958,0.32329564 -0.38019215,0.51242034 -0.15558237,0.18912447 -0.32943746,0.38962406 -0.4850562,0.5787718 -0.15561886,0.18914675 -0.29191095,0.36648267 -0.38019166,0.51241913 -0.08828073,0.14593645 -0.12771295,0.26002433 -0.10946571,0.33087557 0.0182396,0.0708497 0.0944064,0.0981494 0.21361411,0.0812896 C 0.13634511,0.71560942 0.29813541,0.65447496 0.46990664,0.55865505 0.64167889,0.4628451 0.8224514,0.33245183 0.9752573,0.18392272 1.1280633,0.0353936 1.2517958,-0.13103536 1.320413,-0.29690752 1.38903,-0.46277952 1.401752,-0.62781638 1.354401,-0.77627958 1.3070577,-0.92474434 1.1995075,-1.0564009 1.051524,-1.1614219 0.90354109,-1.266443 0.71569894,-1.3446889 0.52399955,-1.3931862 c -0.19169949,-0.048498 -0.38620294,-0.067203 -0.54568735,-0.058884 -0.15948607,0.00831 -0.2828402,0.043642 -0.34572013,0.099757 -0.0628799,0.056115 -0.0645679,0.133009 -0.004127,0.2233193 0.0604403,0.09031 0.18304256,0.19406095 0.34474431,0.30420258 0.16170176,0.11014165 0.36184847,0.22673013 0.56250003,0.34328836"
         title="sin(2*t + 0) sin(3*t)"
         id="path36"
         inkscape:label="lissajous_knot"
         sodipodi:insensitive="true" />
      <g
         transform="matrix(0.7,0,0,1,-2.2,1.4)"
         id="wheel_1"
         inkscape:label="wheel_1"
         sodipodi:insensitive="true">
        <ellipse
           style="fill:#ffcd05;fill-opacity:1;fill-rule:evenodd;stroke:none;stroke-width:7.8527;stroke-linecap:square"
           id="ellipse36"
           cx="0.13327706"
           cy="-0.014107663"
           rx="1.3636045"
           ry="1.3524531"
           inkscape:label="wheel_1" />
        <path
           id="spokes_1"
           style="fill:#918a6f;fill-rule:evenodd;stroke-width:0.1;stroke-linecap:square"
           d="m -0.00680431,-1.0360541 c -0.5655674,0.00138 -0.7721334,0.30691811 -1.03320299,0.56640611 l 0.77929679,0.041016 0.125,0.2363281 h 0.2226562 l 0.2148438,-0.3730469 -0.1210938,-0.46093741 c -0.066618,-0.00673 -0.128993,-0.00991 -0.1875,-0.00977 z m 0.953125,0.39648431 -0.4570312,0.63476557 -0.265625,-0.02343749 -0.1210938,0.1875 0.1972656,0.38085938 0.453125,0.1484375 C 1.1973885,0.12946954 1.0315652,-0.24244579 0.94632069,-0.63956979 Z m -1.5957031,0.5605468 -0.35546869,0.31640628 c 0.26056399,0.6649842 0.66645679,0.7084307 1.05273429,0.83398441 l -0.3203125,-0.71289066 0.1542969,-0.21875 -0.1015625,-0.19726563 z"
           inkscape:label="spokes_1">
          <animateTransform
             attributeName="transform"
             attributeType="XML"
             type="rotate"
             values="0; 360"
             dur="1s"
             repeatCount="indefinite" />
        </path>
      </g>
    </g>
    <g
       id="GOAT_2"
       style="display:inline"
       inkscape:label="GOAT"
       transform="translate(6.2,2.2)">
      <g
         id="g_leg_ru2">
        <animateTransform
           attributeName="transform"
           attributeType="XML"
           type="rotate"
           values="-35 1.15 1.01; -5 1.15 1.01; -35 1.15 1.01"
           dur="0.5s"
           repeatCount="indefinite" />
        <path
           style="fill:#4d4d4d;fill-rule:evenodd;stroke-width:7.88883;stroke-linecap:square"
           d="M 1.8568929,1.3529794 1.3399858,1.5044488 1.2081921,2.245662 0.57776281,2.4271347 0.43812279,2.6108312 0.37519755,2.6274347 0.39084195,2.4881713 0.20992136,2.5254844 0.25869435,2.4135631 0.48134478,2.2586633 0.97008897,1.9674125 0.67784884,0.88711839 1.2136033,0.85123681 1.7955376,0.96576899 Z"
           id="leg_ru_2"
           sodipodi:nodetypes="ccccccccccccccc" />
      </g>
      <g
         id="g_leg_rl2">
        <animateTransform
           attributeName="transform"
           attributeType="XML"
           type="rotate"
           values="-5 -0.55 0.16; -35 -0.55 0.16; -5 -0.55 0.16"
           dur="0.5s"
           repeatCount="indefinite" />
        <path
           style="fill:#4d4d4d;fill-opacity:1;fill-rule:evenodd;stroke-width:7.88883;stroke-linecap:square"
           d="m -0.00919954,0.01711166 -0.07416929,0.48900819 -0.55148885,0.30246957 -0.15389169,0.82804768 0.0458243,0.1412221 -0.007753,0.1799214 -0.11079338,0.055344 0.007351,-0.160989 -0.078039,0.1585044 -0.14585635,-0.076425 0.13193482,-0.2961215 -0.24754382,-1.24230912 0.36350327,-0.34478247 0.20069098,-0.63676125 0.58193428,0.11453219 z"
           id="leg_rl_2"
           sodipodi:nodetypes="cccccccccccccccc" />
      </g>
      <path
         style="fill:#575757;fill-opacity:1;fill-rule:evenodd;stroke-width:7.88883;stroke-linecap:square"
         d="m -1.5682857,-0.58364637 0.1958421,-0.45988803 c 0.2309714,-0.3350173 0.3635333,-0.3404623 0.47107583,-0.3216995 1.00860421,0.48376279 1.59477088,0.47099898 2.40243037,0.61143889 0.4074199,0.13913282 0.6465773,0.33625806 0.9698659,0.50438709 L 2.7607536,0.44077279 C 2.4114122,0.74340659 2.1024034,1.0631344 1.8556682,1.4092557 1.5787272,1.6306902 1.4643212,1.5629334 1.400002,1.5314002 L 0.07369652,0.87994207 -0.6852535,0.23776818 -1.3736772,-0.08060484 c -0.064881,-0.16763358 -0.1716705,-0.15928082 -0.1946085,-0.50304153 z"
         id="path49"
         sodipodi:nodetypes="cccccccccccc" />
      <g
         id="g2">
        <animateTransform
           attributeName="transform"
           attributeType="XML"
           type="rotate"
           values="0 -0.90 0.16; 45 -0.90 0.16; 0 -0.90 0.16"
           dur="0.5s"
           repeatCount="indefinite" />
        <path
           style="fill:#666666;fill-rule:evenodd;stroke-width:8.63031;stroke-linecap:square"
           d="M -0.46524987,0.03174795 -0.6703378,0.57829352 -1.2108977,0.953811 l 0.042602,0.7043336 -0.023175,0.4118832 -0.099823,0.00951 -0.00212,-0.2257476 -0.077746,0.2183743 -0.159319,-0.1265073 0.1435693,-0.3126878 -0.3498672,-1.02588053 c -0.076949,-0.15892533 -0.00441,-0.18396808 0.045268,-0.24367161 l 0.2603674,-0.31241255 0.1791196,-0.76755418 0.58487322,0.12323651 z"
           id="path37"
           sodipodi:nodetypes="cccccccccccccccc" />
      </g>
      <g
         id="g_head_2">
        <animateTransform
           attributeName="transform"
           attributeType="XML"
           type="rotate"
           values="0 2.70 -0.05; -25 2.70 -0.05; 0 2.70 -0.05"
           dur="2.1s"
           repeatCount="indefinite" />
        <path
           style="display:inline;fill:#1a1a1a;fill-rule:evenodd;stroke-width:7.88883;stroke-linecap:square"
           d="m 4.0626735,-0.68702369 c 0,0 0.3815126,0.25998477 0.5889769,0.26082592 0.3653142,0.001481 0.8757298,-0.65894403 0.8757298,-0.65894403 0,0 -0.4371909,0.83638903 -0.8457101,0.93564272 C 4.4039954,-0.08203531 4.1693159,-0.42004084 3.8867494,-0.37748772 3.6197598,-0.33728041 3.364955,0.07950912 3.364955,0.07950912 l -0.08252,-0.54704969 c 0.3120283,-0.18654909 0.4997781,-0.43409962 0.7802385,-0.21948312 z"
           id="path53"
           sodipodi:nodetypes="sscssccs" />
        <path
           id="head_2"
           style="fill:#666666;fill-rule:evenodd;stroke-width:7.88883;stroke-linecap:square"
           d="m 2.6755817,-0.89749619 0.3068205,0.2200193 c 0.077969,0.14746537 0.170233,0.2490636 0.3038737,0.21790623 L 3.459484,-0.33536407 C 3.511233,0.12574823 3.1030232,0.47331971 3.0620745,0.86952716 L 2.827564,1.0033391 2.5707072,0.79551482 C 2.3511905,0.36200551 2.1270088,-0.01006209 2.0376878,-0.47642447 2.2374812,-0.66786768 2.3930123,-0.86135025 2.6755817,-0.89749619 Z"
           sodipodi:nodetypes="ccccccccc" />
        <path
           style="fill:#1a1a1a;fill-rule:evenodd;stroke-width:7.88883;stroke-linecap:square"
           d="m 3.2038701,-1.4880067 c 0,0 0.4311057,0.2292684 0.6230876,0.137688 0.3193135,-0.152321 0.4741432,-0.9495544 0.4741432,-0.9495544 0,0 -1.708e-4,0.9259063 -0.3160873,1.1857571 C 3.7622354,-0.93087432 3.3605973,-1.2181603 3.1215471,-1.056721 2.9048211,-0.91035805 2.8497482,-0.49815948 2.8497482,-0.49815948 2.653644,-0.51069699 2.6145552,-0.60345691 2.5225732,-0.76803903 2.7135658,-1.0683048 2.8688123,-1.5620467 3.2038701,-1.4880067 Z"
           id="path54"
           sodipodi:nodetypes="sscssccs" />
        <path
           id="rect1"
           style="fill:#ff0000;fill-rule:evenodd;stroke-width:0.1;stroke-linecap:square"
           d="m 2.6061144,-0.24474074 c 0.264132,-0.12959677 0.090949,0.14224485 0.1575433,0.21081624 -0.1773779,-0.03914296 -0.16598,-0.13301499 -0.1575433,-0.21081624 z"
           sodipodi:nodetypes="ccc" />
      </g>
      <g
         id="g_leg_fu2"
         style="fill:#666666;fill-opacity:1">
        <animateTransform
           attributeName="transform"
           attributeType="XML"
           type="rotate"
           values="0 0.85 1.06; -45 0.85 1.06; 0 0.85 1.06"
           dur="0.5s"
           repeatCount="indefinite" />
        <path
           style="fill:#666666;fill-opacity:1;fill-rule:evenodd;stroke-width:7.88883;stroke-linecap:square"
           d="M 0.93504275,1.2539468 0.44121112,1.3041962 0.30941736,2.0454093 0.10159533,2.5546769 0.13980586,2.6504735 0.0721567,2.8216836 0.02079696,2.7115015 -0.11788001,2.7895074 -0.07219939,2.5947853 0.07131426,1.7671826 -0.17909676,0.84151391 c -0.0194823,-0.1545473 0.0727497,-0.16268732 0.11208776,-0.16491197 l 0.38183761,-0.025519 0.58193427,0.11453218 z"
           id="leg_fu_2"
           sodipodi:nodetypes="ccccccccccccccc" />
      </g>
    </g>
    <g
       id="GOAT_1"
       style="display:inline"
       inkscape:label="GOAT"
       transform="translate(3.1,3.2)">
      <g
         id="g_leg_ru1">
        <animateTransform
           attributeName="transform"
           attributeType="XML"
           type="rotate"
           values="-35 1.15 1.01; -5 1.15 1.01; -35 1.15 1.01"
           dur="0.5s"
           repeatCount="indefinite" />
        <path
           style="fill:#4d4d4d;fill-rule:evenodd;stroke-width:7.88883;stroke-linecap:square"
           d="M 1.8568929,1.3529794 1.3399858,1.5044488 1.2081921,2.245662 0.57776281,2.4271347 0.43812279,2.6108312 0.37519755,2.6274347 0.39084195,2.4881713 0.20992136,2.5254844 0.25869435,2.4135631 0.48134478,2.2586633 0.97008897,1.9674125 0.67784884,0.88711839 1.2136033,0.85123681 1.7955376,0.96576899 Z"
           id="leg_fl_1"
           sodipodi:nodetypes="ccccccccccccccc" />
      </g>
      <g
         id="g_leg_rl1">
        <animateTransform
           attributeName="transform"
           attributeType="XML"
           type="rotate"
           values="-5 -0.55 0.16; -35 -0.55 0.16; -5 -0.55 0.16"
           dur="0.5s"
           repeatCount="indefinite" />
        <path
           style="fill:#4d4d4d;fill-opacity:1;fill-rule:evenodd;stroke-width:7.88883;stroke-linecap:square"
           d="m -0.00919954,0.01711166 -0.07416929,0.48900819 -0.55148885,0.30246957 -0.15389169,0.82804768 0.0458243,0.1412221 -0.007753,0.1799214 -0.11079338,0.055344 0.007351,-0.160989 -0.078039,0.1585044 -0.14585635,-0.076425 0.13193482,-0.2961215 -0.24754382,-1.24230912 0.36350327,-0.34478247 0.20069098,-0.63676125 0.58193428,0.11453219 z"
           id="leg_rl_1"
           sodipodi:nodetypes="cccccccccccccccc" />
      </g>
      <path
         style="fill:#575757;fill-opacity:1;fill-rule:evenodd;stroke-width:7.88883;stroke-linecap:square"
         d="m -1.5682857,-0.58364637 0.1958421,-0.45988803 c 0.2309714,-0.3350173 0.3635333,-0.3404623 0.47107583,-0.3216995 1.00860421,0.48376279 1.59477088,0.47099898 2.40243037,0.61143889 0.4074199,0.13913282 0.6465773,0.33625806 0.9698659,0.50438709 L 2.7607536,0.44077279 C 2.4114122,0.74340659 2.1024034,1.0631344 1.8556682,1.4092557 1.5787272,1.6306902 1.4643212,1.5629334 1.400002,1.5314002 L 0.07369652,0.87994207 -0.6852535,0.23776818 -1.3736772,-0.08060484 c -0.064881,-0.16763358 -0.1716705,-0.15928082 -0.1946085,-0.50304153 z"
         id="path38"
         sodipodi:nodetypes="cccccccccccc" />
      <g
         id="g38">
        <animateTransform
           attributeName="transform"
           attributeType="XML"
           type="rotate"
           values="0 -0.90 0.16; 45 -0.90 0.16; 0 -0.90 0.16"
           dur="0.5s"
           repeatCount="indefinite" />
        <path
           style="fill:#666666;fill-rule:evenodd;stroke-width:8.63031;stroke-linecap:square"
           d="M -0.46524987,0.03174795 -0.6703378,0.57829352 -1.2108977,0.953811 l 0.042602,0.7043336 -0.023175,0.4118832 -0.099823,0.00951 -0.00212,-0.2257476 -0.077746,0.2183743 -0.159319,-0.1265073 0.1435693,-0.3126878 -0.3498672,-1.02588053 c -0.076949,-0.15892533 -0.00441,-0.18396808 0.045268,-0.24367161 l 0.2603674,-0.31241255 0.1791196,-0.76755418 0.58487322,0.12323651 z"
           id="leg_ru_1"
           sodipodi:nodetypes="cccccccccccccccc" />
      </g>
      <g
         id="g_head_1">
        <animateTransform
           attributeName="transform"
           attributeType="XML"
           type="rotate"
           values="0 2.70 -0.05; -25 2.70 -0.05; 0 2.70 -0.05"
           dur="2s"
           repeatCount="indefinite" />
        <path
           style="display:inline;fill:#1a1a1a;fill-rule:evenodd;stroke-width:7.88883;stroke-linecap:square"
           d="m 4.0626735,-0.68702369 c 0,0 0.3815126,0.25998477 0.5889769,0.26082592 0.3653142,0.001481 0.8757298,-0.65894403 0.8757298,-0.65894403 0,0 -0.4371909,0.83638903 -0.8457101,0.93564272 C 4.4039954,-0.08203531 4.1693159,-0.42004084 3.8867494,-0.37748772 3.6197598,-0.33728041 3.364955,0.07950912 3.364955,0.07950912 l -0.08252,-0.54704969 c 0.3120283,-0.18654909 0.4997781,-0.43409962 0.7802385,-0.21948312 z"
           id="path39"
           sodipodi:nodetypes="sscssccs" />
        <path
           id="head_1"
           style="fill:#888888;fill-rule:evenodd;stroke-width:7.88883;stroke-linecap:square"
           d="m 2.6755817,-0.89749619 0.3068205,0.2200193 c 0.077969,0.14746537 0.170233,0.2490636 0.3038737,0.21790623 L 3.459484,-0.33536407 C 3.511233,0.12574823 3.1030232,0.47331971 3.0620745,0.86952716 L 2.827564,1.0033391 2.5707072,0.79551482 C 2.3511905,0.36200551 2.1270088,-0.01006209 2.0376878,-0.47642447 2.2374812,-0.66786768 2.3930123,-0.86135025 2.6755817,-0.89749619 Z"
           sodipodi:nodetypes="ccccccccc" />
        <path
           style="fill:#1a1a1a;fill-rule:evenodd;stroke-width:7.88883;stroke-linecap:square"
           d="m 3.2038701,-1.4880067 c 0,0 0.4311057,0.2292684 0.6230876,0.137688 0.3193135,-0.152321 0.4741432,-0.9495544 0.4741432,-0.9495544 0,0 -1.708e-4,0.9259063 -0.3160873,1.1857571 C 3.7622354,-0.93087432 3.3605973,-1.2181603 3.1215471,-1.056721 2.9048211,-0.91035805 2.8497482,-0.49815948 2.8497482,-0.49815948 2.653644,-0.51069699 2.6145552,-0.60345691 2.5225732,-0.76803903 2.7135658,-1.0683048 2.8688123,-1.5620467 3.2038701,-1.4880067 Z"
           id="path40"
           sodipodi:nodetypes="sscssccs" />
        <path
           id="path41"
           style="fill:#ff0000;fill-rule:evenodd;stroke-width:0.1;stroke-linecap:square"
           d="m 2.6061144,-0.24474074 c 0.264132,-0.12959677 0.090949,0.14224485 0.1575433,0.21081624 -0.1773779,-0.03914296 -0.16598,-0.13301499 -0.1575433,-0.21081624 z"
           sodipodi:nodetypes="ccc" />
      </g>
      <g
         id="g_leg_fu1"
         style="fill:#666666;fill-opacity:1">
        <animateTransform
           attributeName="transform"
           attributeType="XML"
           type="rotate"
           values="0 0.85 1.06; -45 0.85 1.06; 0 0.85 1.06"
           dur="0.5s"
           repeatCount="indefinite" />
        <path
           style="fill:#666666;fill-opacity:1;fill-rule:evenodd;stroke-width:7.88883;stroke-linecap:square"
           d="M 0.93504275,1.2539468 0.44121112,1.3041962 0.30941736,2.0454093 0.10159533,2.5546769 0.13980586,2.6504735 0.0721567,2.8216836 0.02079696,2.7115015 -0.11788001,2.7895074 -0.07219939,2.5947853 0.07131426,1.7671826 -0.17909676,0.84151391 c -0.0194823,-0.1545473 0.0727497,-0.16268732 0.11208776,-0.16491197 l 0.38183761,-0.025519 0.58193427,0.11453218 z"
           id="leg_fu_1"
           sodipodi:nodetypes="ccccccccccccccc" />
      </g>
    </g>
  </g>
  <g
     display="none"
     inkscape:groupmode="layer"
     id="layer4"
     inkscape:label="thor">
    <ellipse
       style="fill:#333333;fill-opacity:1;fill-rule:evenodd;stroke:none;stroke-width:7.8527;stroke-linecap:square"
       id="ellipse41"
       cx="262.53351"
       cy="118.61942"
       rx="0.84995943"
       ry="1.3524531" />
    <g
       id="g47"
       transform="matrix(0.68725432,-0.14269035,0.14355699,0.69142838,53.199974,80.51727)">
      <path
         style="fill:#666666;stroke:#000000;stroke-width:0.1;stroke-linecap:butt;stroke-linejoin:miter;stroke-dasharray:none;stroke-opacity:1"
         d="m 280.19364,103.90448 -1.91676,0.46509 0.35521,2.44271 1.3321,-0.14758 0.74623,-0.49118 0.23876,-1.35757 z"
         id="path42"
         sodipodi:nodetypes="ccccccc" />
      <path
         style="fill:#4d4d4d;stroke:#000000;stroke-width:0.0712373;stroke-linecap:butt;stroke-linejoin:miter;stroke-dasharray:none;stroke-opacity:1"
         d="m 279.21495,110.81574 1.55823,0.80701 -0.23738,-0.66073 -0.46705,-0.75399 -0.17433,-1.18839 -0.15184,-1.54682 -0.31773,-0.37814 -0.57429,0.34858 0.12652,1.62105 z"
         id="path44"
         sodipodi:nodetypes="cccccccccc" />
      <path
         style="fill:#666666;stroke:#000000;stroke-width:0.0712373;stroke-linecap:butt;stroke-linejoin:miter;stroke-dasharray:none;stroke-opacity:1"
         d="m 276.5751,108.15118 1.64991,0.10868 0.37954,-1.25497 -1.32798,-0.17756 -0.84621,0.41924 z"
         id="path43"
         sodipodi:nodetypes="cccccc"
         transform="translate(1.4676855,-0.30426912)" />
      <path
         style="fill:#666666;stroke:#000000;stroke-width:0.0712373;stroke-linecap:butt;stroke-linejoin:miter;stroke-dasharray:none;stroke-opacity:1"
         d="m 276.93115,110.39218 0.58229,0.96664 0.77822,0.13398 0.007,-1.19301 0.21553,-1.30666 0.32289,-1.45817 -0.53895,-0.53701 -0.57429,0.34858 -0.0966,1.41375 z"
         id="path45"
         sodipodi:nodetypes="cccccccccc" />
      <path
         style="fill:#666666;stroke:#000000;stroke-width:0.0712373;stroke-linecap:butt;stroke-linejoin:miter;stroke-dasharray:none;stroke-opacity:1"
         d="m 275.73085,105.71144 0.45611,-0.15883 1.28463,-0.0438 1.00125,-0.24398 0.4193,-0.46048 -0.3274,-0.53829 -0.78968,0.0931 -0.6702,0.44261 -0.90563,0.41644 -0.73533,-0.15191 -0.0395,0.40105 z"
         id="path46"
         sodipodi:nodetypes="cccccccccccc" />
      <path
         style="fill:#666666;stroke:#000000;stroke-width:0.0712373;stroke-linecap:butt;stroke-linejoin:miter;stroke-dasharray:none;stroke-opacity:1"
         d="m 275.81802,105.67497 0.19202,-0.0754 -0.53461,-0.98677 -0.72567,-0.98285 0.26064,-0.48544 -0.76606,0.0702 -0.89789,0.61686 0.30657,0.31639 0.72219,-0.23823 0.69547,0.96333 z"
         id="path47"
         sodipodi:nodetypes="ccccccccccc" />
      <path
         style="fill:#b3b3b3;stroke:#000000;stroke-width:0.1;stroke-linecap:butt;stroke-linejoin:miter;stroke-dasharray:none;stroke-opacity:1"
         d="m 280.00103,102.67376 -0.15865,0.17255 c -1.05838,-0.12659 -1.42081,-0.80821 -1.82871,-1.45358 0.21262,0.86123 0.70918,1.46466 1.55659,1.74956 l -0.27479,0.29888 0.10618,0.94515 0.47932,0.93041 0.7897,0.12483 0.0155,-1.81887 -0.32094,-0.50809 c 0.8772,0.026 1.22542,-0.77674 1.74027,-1.3184 -0.62028,0.56556 -1.24292,1.11588 -1.95559,1.08376 z"
         id="path48"
         sodipodi:nodetypes="ccccccccccccc" />
    </g>
    <path
       id="rect8"
       style="fill:#666666;fill-rule:evenodd;stroke-width:10;stroke-linecap:square"
       d="m 257.28616,116.09009 c 0.99311,0.71667 1.97784,1.57962 3.08133,0.37105 1.44662,-1.6572 2.08511,-0.90728 2.8783,-0.61816 l -0.1151,2.53401 c -0.76442,0.64488 -1.84293,0.90798 -3.05548,1.00815 l -2.9863,-2.40236 z"
       sodipodi:nodetypes="ccccccc" />
    <ellipse
       style="fill:#333333;fill-opacity:1;fill-rule:evenodd;stroke:none;stroke-width:7.8527;stroke-linecap:square"
       id="ellipse8"
       cx="259.45932"
       cy="119.0617"
       rx="0.84995943"
       ry="1.3524531" />
    <g
       id="g32"
       inkscape:label="goat1"
       transform="matrix(0.81864567,0,0,0.76020301,50.01524,29.455914)">
      <path
         style="fill:#4d4d4d;fill-rule:evenodd;stroke-width:10;stroke-linecap:square"
         d="m 268.19146,122.13993 -0.60323,0.0661 -0.16099,0.97502 -1.44333,-0.051 1.15248,-0.31502 -0.35698,-1.42106 0.65444,-0.0472 0.71085,0.15066 z"
         id="path50"
         sodipodi:nodetypes="ccccccccc" />
      <path
         style="fill:#4d4d4d;fill-opacity:1;fill-rule:evenodd;stroke-width:10;stroke-linecap:square"
         d="m 265.94016,120.24953 -0.0906,0.64326 -0.67366,0.39788 -0.2809,1.62764 -0.40165,-2.17066 0.44403,-0.45354 0.24515,-0.83762 0.71085,0.15066 z"
         id="path51"
         sodipodi:nodetypes="ccccccccc" />
      <path
         style="fill:#666666;fill-rule:evenodd;stroke-width:10;stroke-linecap:square"
         d="m 264.03569,119.45927 0.81466,-1.02813 c 1.23204,0.63636 1.94806,0.61957 2.93464,0.80431 l 1.18472,0.66349 0.35403,0.90789 -1.31621,1.51668 -1.96611,-0.93898 -0.92708,-0.84474 -0.84093,-0.4188 z"
         id="path52"
         sodipodi:nodetypes="cccccccccc" />
      <path
         style="fill:#666666;fill-rule:evenodd;stroke-width:10.9399;stroke-linecap:square"
         d="m 265.20316,120.21485 -0.0706,0.77288 -0.66031,0.49397 9.3e-4,1.45738 -0.69928,-2.09023 0.42932,-0.55474 0.2188,-1.00967 0.71444,0.16211 z"
         id="path55"
         sodipodi:nodetypes="ccccccccc" />
      <path
         id="path56"
         style="fill:#4d4d4d;fill-rule:evenodd;stroke-width:10;stroke-linecap:square"
         d="m 269.2197,119.04642 0.95756,0.73945 -0.33075,1.42764 -0.688,0.3194 -0.23523,-0.27338 -0.56386,-1.71646 z"
         sodipodi:nodetypes="ccccccc" />
      <path
         style="fill:#4d4d4d;fill-rule:evenodd;stroke-width:10;stroke-linecap:square"
         d="m 266.59882,122.03138 -0.60323,0.0661 -0.16099,0.97502 -0.61936,1.03211 0.32851,-1.3981 -0.35698,-1.42106 0.65444,-0.0471 0.71085,0.15066 z"
         id="path57"
         sodipodi:nodetypes="ccccccccc" />
      <path
         style="fill:#666666;fill-rule:evenodd;stroke-width:10;stroke-linecap:square"
         d="m 270.54891,119.34899 0.63558,-0.13423 0.60378,0.49755 1.06973,-0.8668 -1.03306,1.23078 -0.98035,-0.39636 -0.7828,0.65168 -0.1008,-0.71961 z"
         id="path58"
         sodipodi:nodetypes="ccccccccc" />
      <path
         style="fill:#666666;fill-rule:evenodd;stroke-width:10;stroke-linecap:square"
         d="m 269.35333,118.66985 0.51169,-0.40021 0.76112,0.18112 0.57918,-1.24908 -0.38611,1.55979 -1.05475,0.0755 -0.41617,0.92965 -0.40716,-0.60184 z"
         id="path59"
         sodipodi:nodetypes="ccccccccc" />
    </g>
    <g
       id="g40"
       inkscape:label="goat2"
       transform="matrix(0.81864567,0,0,0.76020301,46.594761,30.529676)">
      <path
         style="fill:#666666;fill-rule:evenodd;stroke-width:10;stroke-linecap:square"
         d="m 268.19146,122.13993 -0.60323,0.0661 -0.16099,0.97502 -1.44333,-0.051 1.15248,-0.31502 -0.35698,-1.42106 0.65444,-0.0472 0.71085,0.15066 z"
         id="path60"
         sodipodi:nodetypes="ccccccccc" />
      <path
         style="fill:#4d4d4d;fill-opacity:1;fill-rule:evenodd;stroke-width:10;stroke-linecap:square"
         d="m 265.94016,120.24953 -0.0906,0.64326 -0.67366,0.39788 -0.2809,1.62764 -0.40165,-2.17066 0.44403,-0.45354 0.24515,-0.83762 0.71085,0.15066 z"
         id="path61"
         sodipodi:nodetypes="ccccccccc" />
      <path
         style="fill:#999999;fill-rule:evenodd;stroke-width:10;stroke-linecap:square"
         d="m 264.03569,119.45927 0.81466,-1.02813 c 1.23204,0.63636 1.94806,0.61957 2.93464,0.80431 l 1.18472,0.66349 0.35403,0.90789 -1.31621,1.51668 -1.96611,-0.93898 -0.92708,-0.84474 -0.84093,-0.4188 z"
         id="path62"
         sodipodi:nodetypes="cccccccccc" />
      <path
         style="fill:#666666;fill-rule:evenodd;stroke-width:10.9399;stroke-linecap:square"
         d="m 265.20316,120.21485 -0.0706,0.77288 -0.66031,0.49397 9.3e-4,1.45738 -0.69928,-2.09023 0.42932,-0.55474 0.2188,-1.00967 0.71444,0.16211 z"
         id="path63"
         sodipodi:nodetypes="ccccccccc" />
      <path
         id="path64"
         style="fill:#4d4d4d;fill-rule:evenodd;stroke-width:10;stroke-linecap:square"
         d="m 269.2197,119.04642 0.95756,0.73945 -0.33075,1.42764 -0.688,0.3194 -0.23523,-0.27338 -0.56386,-1.71646 z"
         sodipodi:nodetypes="ccccccc" />
      <path
         style="fill:#4d4d4d;fill-rule:evenodd;stroke-width:10;stroke-linecap:square"
         d="m 267.0059,121.76135 -0.60323,0.0661 -0.16099,0.97502 -0.61936,1.03211 0.32851,-1.3981 -0.35698,-1.42106 0.65444,-0.0471 0.71085,0.15066 z"
         id="path65"
         sodipodi:nodetypes="ccccccccc" />
      <path
         style="fill:#4d4d4d;fill-rule:evenodd;stroke-width:10;stroke-linecap:square"
         d="m 270.54891,119.34899 0.63558,-0.13423 0.60378,0.49755 1.06973,-0.8668 -1.03306,1.23078 -0.98035,-0.39636 -0.7828,0.65168 -0.1008,-0.71961 z"
         id="path66"
         sodipodi:nodetypes="ccccccccc" />
      <path
         style="fill:#4d4d4d;fill-rule:evenodd;stroke-width:10;stroke-linecap:square"
         d="m 269.35333,118.66985 0.51169,-0.40021 0.76112,0.18112 0.57918,-1.24908 -0.38611,1.55979 -1.05475,0.0755 -0.41617,0.92965 -0.40716,-0.60184 z"
         id="path67"
         sodipodi:nodetypes="ccccccccc" />
    </g>
  </g>
  <g
     inkscape:groupmode="layer"
     id="layer6"
     inkscape:label="asgard"
     sodipodi:insensitive="true">
    <path
       id="path108"
       style="display:inline;fill:#cccccc;fill-opacity:1;fill-rule:evenodd;stroke:#4d4d4d;stroke-width:0.1;stroke-linecap:square"
       d="m 159.78152,65.147317 25.62229,4.712861 -2.96107,3.356614 23.3658,2.924945 -13.05742,2.474672 11.94201,3.424679 -43.88939,10.39186 -55.93706,-11.28196 24.99427,-3.751568 -16.32493,-0.677832 23.34219,-4.336345 -1.37995,-3.46827 z"
       sodipodi:nodetypes="ccccccccccccc" />
    <path
       id="path144"
       style="display:inline;fill:#c1c1c1;fill-opacity:1;fill-rule:evenodd;stroke:#4d4d4d;stroke-width:0.1;stroke-linecap:square"
       d="m 168.14074,72.242091 10.86677,5.335646 0.19531,3.649621 -3.00643,-1.673596 -0.16757,-1.555185 -4.92621,-2.193784 -0.0108,1.952723 -2.93419,-1.255229 z"
       sodipodi:nodetypes="ccccccccc" />
    <path
       id="path141"
       style="display:inline;fill:#b5b5b5;fill-opacity:1;fill-rule:evenodd;stroke:#4d4d4d;stroke-width:0.1;stroke-linecap:square"
       d="m 136.99982,76.904078 16.16006,-6.174274 0.15683,6.166882 -2.185,0.526525 c -0.0722,-3.574418 -4.47368,-3.800697 -4.09365,1.083895 l -2.81599,1.05628 c -0.0105,-4.439246 -4.19753,-3.168193 -4.01648,0.684138 l -3.08889,1.791924 z"
       sodipodi:nodetypes="ccccccccc" />
    <path
       id="path142"
       style="display:inline;fill:#c1c1c1;fill-opacity:1;fill-rule:evenodd;stroke:#4d4d4d;stroke-width:0.1;stroke-linecap:square"
       d="m 152.97875,72.228991 8.35434,1.899489 -0.0283,4.391798 -8.14288,-1.516152 z"
       sodipodi:nodetypes="ccccc" />
    <path
       id="path143"
       style="display:inline;fill:#b1b1b1;fill-opacity:1;fill-rule:evenodd;stroke:#4d4d4d;stroke-width:0.1;stroke-linecap:square"
       d="m 168.24399,72.325049 -6.9109,1.803431 -0.0283,4.391798 6.85285,-2.017991 z"
       sodipodi:nodetypes="ccccc" />
    <path
       id="path122"
       style="display:inline;fill:#e6e6e6;fill-opacity:1;fill-rule:evenodd;stroke:#4d4d4d;stroke-width:0.1;stroke-linecap:square"
       d="m 160.61826,64.463256 -25.58008,4.242188 10.82422,2.435547 -16.41601,4.273437 -5.60352,-1.158203 -20.13086,3.44336 55.9375,11.281253 45.86719,-9.611332 -13.21094,-3.804687 -6.16601,1.140625 -12.10743,-4.65625 11.24219,-2.380859 z m -7.60742,8.28711 8.58008,1.93164 6.52734,-1.380859 9.84961,4.916016 -18.4414,3.414065 -22.77149,-4.707034 z" />
    <path
       id="path124"
       style="display:inline;fill:#cccccc;fill-opacity:1;fill-rule:evenodd;stroke:#4d4d4d;stroke-width:0.1;stroke-linecap:square"
       d="m 160.38134,65.951551 9.14391,2.589354 -8.97419,2.386656 -9.71584,-2.824052 z"
       sodipodi:nodetypes="ccccc" />
    <path
       id="path125"
       style="display:inline;fill:#cccccc;fill-opacity:1;fill-rule:evenodd;stroke:#4d4d4d;stroke-width:0.1;stroke-linecap:square"
       d="m 159.99452,56.168455 9.57004,2.573395 -9.30378,2.766106 -9.36633,-3.21661 z"
       sodipodi:nodetypes="ccccc" />
    <path
       id="path126"
       style="display:inline;fill:#cccccc;fill-opacity:1;fill-rule:evenodd;stroke:#4d4d4d;stroke-width:0.0525485;stroke-linecap:square"
       d="m 159.52608,43.055094 5.54077,1.866262 -5.47529,1.695015 -5.36919,-1.711851 z"
       sodipodi:nodetypes="ccccc" />
    <path
       id="path127"
       style="display:inline;fill:#cccccc;fill-opacity:1;fill-rule:evenodd;stroke:#4d4d4d;stroke-width:0.0525485;stroke-linecap:square"
       d="m 159.51102,39.338572 5.54077,1.86626 -5.47529,1.695015 -5.36918,-1.711852 z"
       sodipodi:nodetypes="ccccc" />
    <path
       id="path128"
       style="display:inline;fill:#cccccc;fill-opacity:1;fill-rule:evenodd;stroke:#4d4d4d;stroke-width:0.0253033;stroke-linecap:square"
       d="m 159.45113,32.434809 3.29391,0.727892 -3.25498,0.6611 -3.1919,-0.667667 z"
       sodipodi:nodetypes="ccccc" />
    <path
       id="path133"
       style="display:inline;fill:#b3b3b3;fill-opacity:1;fill-rule:evenodd;stroke:#4d4d4d;stroke-width:0.0714932;stroke-linecap:square"
       d="m 157.01661,32.980509 2.44043,0.353411 0.17184,8.724439 -2.5416,-0.57858 z"
       sodipodi:nodetypes="ccccc" />
    <path
       id="path130"
       style="display:inline;fill:#cccccc;fill-opacity:1;fill-rule:evenodd;stroke:#4d4d4d;stroke-width:0.0253033;stroke-linecap:square"
       d="m 158.60075,28.905223 0.35048,0.127243 0.53883,4.791335 -3.1919,-0.667667 z"
       sodipodi:nodetypes="ccccc" />
    <path
       id="path134"
       style="display:inline;fill:#999999;fill-opacity:1;fill-rule:evenodd;stroke:#4d4d4d;stroke-width:0.0714932;stroke-linecap:square"
       d="m 161.84228,33.013739 -2.35273,0.328129 0.13933,8.716491 2.39105,-0.665271 z"
       sodipodi:nodetypes="ccccc" />
    <path
       id="path131"
       style="display:inline;fill:#b3b3b3;fill-opacity:1;fill-rule:evenodd;stroke:#4d4d4d;stroke-width:0.0253033;stroke-linecap:square"
       d="m 159.33033,28.931895 -0.3791,0.100571 0.53883,4.791335 3.32605,-0.61443 z"
       sodipodi:nodetypes="ccccc" />
    <path
       id="path129"
       style="display:inline;fill:#cccccc;fill-opacity:1;fill-rule:evenodd;stroke:#4d4d4d;stroke-width:0.0253033;stroke-linecap:square"
       d="m 158.92743,28.802388 0.4029,0.135362 -0.38561,0.111656 -0.34878,-0.135058 z"
       sodipodi:nodetypes="ccccc" />
    <path
       id="path137"
       style="display:inline;fill:#bcbcbc;fill-opacity:1;fill-rule:evenodd;stroke:#4d4d4d;stroke-width:0.0525485;stroke-linecap:square"
       d="m 154.70914,44.772141 4.822,1.392669 0.15176,14.012532 -4.92977,-1.54231 z"
       sodipodi:nodetypes="ccccc" />
    <path
       id="path138"
       style="display:inline;fill:#a7a7a7;fill-opacity:1;fill-rule:evenodd;stroke:#4d4d4d;stroke-width:0.0525485;stroke-linecap:square"
       d="m 164.70058,44.727498 -5.16944,1.437312 0.17877,13.956086 5.05771,-1.30876 z"
       sodipodi:nodetypes="ccccc" />
    <path
       id="path135"
       style="display:inline;fill:#bcbcbc;fill-opacity:1;fill-rule:evenodd;stroke:#4d4d4d;stroke-width:0.0525485;stroke-linecap:square"
       d="m 154.27061,44.938629 5.37,1.740647 -0.0641,-3.779429 -5.36918,-1.711852 z"
       sodipodi:nodetypes="ccccc" />
    <path
       id="path136"
       style="display:inline;fill:#b3b3b3;fill-opacity:1;fill-rule:evenodd;stroke:#4d4d4d;stroke-width:0.0525485;stroke-linecap:square"
       d="m 165.08215,44.926889 -5.44154,1.752387 -0.0641,-3.779429 5.44235,-1.723592 z"
       sodipodi:nodetypes="ccccc" />
    <path
       id="path139"
       style="display:inline;fill:#c1c1c1;fill-opacity:1;fill-rule:evenodd;stroke:#4d4d4d;stroke-width:0.1;stroke-linecap:square"
       d="m 150.94785,58.217611 9.59772,3.21377 0.006,9.49618 -9.71585,-2.824052 z"
       sodipodi:nodetypes="ccccc" />
    <path
       id="path140"
       style="display:inline;fill:#bababa;fill-opacity:1;fill-rule:evenodd;stroke:#4d4d4d;stroke-width:0.1;stroke-linecap:square"
       d="m 169.56961,58.637571 -9.02404,2.79381 0.006,9.49618 8.90592,-2.404092 z"
       sodipodi:nodetypes="ccccc" />
    <path
       id="path145"
       style="display:inline;fill:#cacaca;fill-opacity:1;fill-rule:evenodd;stroke:#4d4d4d;stroke-width:0.1;stroke-linecap:square"
       d="m 104.00868,74.206953 55.74175,11.371705 -0.2783,3.31446 -55.39636,-11.08337 z"
       sodipodi:nodetypes="ccccc" />
    <path
       id="path146"
       style="display:inline;fill:#bcbcbc;fill-opacity:1;fill-rule:evenodd;stroke:#4d4d4d;stroke-width:0.1;stroke-linecap:square"
       d="m 204.5689,76.112654 -44.81847,9.466004 -0.2783,3.31446 44.7937,-9.496976 z"
       sodipodi:nodetypes="ccccc" />
    <path
       id="path147"
       style="display:inline;fill:#cccccc;fill-opacity:1;fill-rule:evenodd;stroke:#4d4d4d;stroke-width:0.0202982;stroke-linecap:square"
       d="m 140.64106,60.922235 2.40875,0.64054 -2.38028,0.581764 -2.33416,-0.587543 z"
       sodipodi:nodetypes="ccccc" />
    <path
       id="path148"
       style="display:inline;fill:#b3b3b3;fill-opacity:1;fill-rule:evenodd;stroke:#4d4d4d;stroke-width:0.0573515;stroke-linecap:square"
       d="m 138.86076,61.402447 1.78462,0.311 0.12567,7.677448 -1.85862,-0.509146 z"
       sodipodi:nodetypes="ccccc" />
    <path
       id="path149"
       style="display:inline;fill:#cccccc;fill-opacity:1;fill-rule:evenodd;stroke:#4d4d4d;stroke-width:0.0202982;stroke-linecap:square"
       d="m 140.0192,57.816223 0.25629,0.111973 0.39404,4.216343 -2.33416,-0.587543 z"
       sodipodi:nodetypes="ccccc" />
    <path
       id="path150"
       style="display:inline;fill:#999999;fill-opacity:1;fill-rule:evenodd;stroke:#4d4d4d;stroke-width:0.0573515;stroke-linecap:square"
       d="m 142.38965,61.431689 -1.7205,0.288752 0.1019,7.670454 1.74851,-0.585434 z"
       sodipodi:nodetypes="ccccc" />
    <path
       id="path151"
       style="display:inline;fill:#b3b3b3;fill-opacity:1;fill-rule:evenodd;stroke:#4d4d4d;stroke-width:0.0202982;stroke-linecap:square"
       d="m 140.55273,57.839694 -0.27724,0.0885 0.39404,4.216343 2.43226,-0.540695 z"
       sodipodi:nodetypes="ccccc" />
    <path
       id="path152"
       style="display:inline;fill:#cccccc;fill-opacity:1;fill-rule:evenodd;stroke:#4d4d4d;stroke-width:0.0202982;stroke-linecap:square"
       d="m 140.25809,57.725728 0.29463,0.119118 -0.28198,0.09826 -0.25506,-0.11885 z"
       sodipodi:nodetypes="ccccc" />
    <path
       id="path164"
       style="display:inline;fill:#b3b3b3;fill-opacity:1;fill-rule:evenodd;stroke:#4d4d4d;stroke-width:0.0573515;stroke-linecap:square"
       d="m 146.59722,66.583251 -5.14836,-1.418371 -0.0134,4.062929 5.16498,1.375797 z"
       sodipodi:nodetypes="ccccc" />
    <path
       id="path165"
       style="display:inline;fill:#e6e6e6;fill-opacity:1;fill-rule:evenodd;stroke:#4d4d4d;stroke-width:0.0573515;stroke-linecap:square"
       d="m 146.59722,66.583251 -5.14836,-1.418371 0.77586,-0.136476 4.89562,1.324649 z"
       sodipodi:nodetypes="ccccc" />
    <path
       id="path166"
       style="display:inline;fill:#999999;fill-opacity:1;fill-rule:evenodd;stroke:#4d4d4d;stroke-width:0.0573515;stroke-linecap:square"
       d="m 146.59722,66.583251 -0.0387,3.936754 0.63742,-0.116601 -0.0756,-4.050351 z"
       sodipodi:nodetypes="ccccc" />
    <path
       id="path167"
       style="display:inline;fill:#cccccc;fill-opacity:1;fill-rule:evenodd;stroke:#4d4d4d;stroke-width:0.0202982;stroke-linecap:square"
       d="m 180.85973,61.634248 -2.40875,0.64054 2.38028,0.581764 2.33416,-0.587543 z"
       sodipodi:nodetypes="ccccc" />
    <path
       id="path168"
       style="display:inline;fill:#b3b3b3;fill-opacity:1;fill-rule:evenodd;stroke:#4d4d4d;stroke-width:0.0573515;stroke-linecap:square"
       d="m 182.64003,62.11446 -1.78462,0.311 -0.12567,7.677448 1.85862,-0.509146 z"
       sodipodi:nodetypes="ccccc" />
    <path
       id="path169"
       style="display:inline;fill:#cccccc;fill-opacity:1;fill-rule:evenodd;stroke:#4d4d4d;stroke-width:0.0202982;stroke-linecap:square"
       d="m 181.48159,58.528236 -0.2563,0.111973 -0.39403,4.216343 2.33416,-0.587543 z"
       sodipodi:nodetypes="ccccc" />
    <path
       id="path170"
       style="display:inline;fill:#999999;fill-opacity:1;fill-rule:evenodd;stroke:#4d4d4d;stroke-width:0.0573515;stroke-linecap:square"
       d="m 179.11114,62.143702 1.7205,0.288752 -0.1019,7.670454 -1.74851,-0.585434 z"
       sodipodi:nodetypes="ccccc" />
    <path
       id="path171"
       style="display:inline;fill:#b3b3b3;fill-opacity:1;fill-rule:evenodd;stroke:#4d4d4d;stroke-width:0.0202982;stroke-linecap:square"
       d="m 180.94806,58.551707 0.27723,0.0885 -0.39403,4.216343 -2.43226,-0.540695 z"
       sodipodi:nodetypes="ccccc" />
    <path
       id="path172"
       style="display:inline;fill:#cccccc;fill-opacity:1;fill-rule:evenodd;stroke:#4d4d4d;stroke-width:0.0202982;stroke-linecap:square"
       d="m 181.2427,58.437741 -0.29463,0.119118 0.28198,0.09826 0.25506,-0.11885 z"
       sodipodi:nodetypes="ccccc" />
    <path
       id="path173"
       style="display:inline;fill:#b3b3b3;fill-opacity:1;fill-rule:evenodd;stroke:#4d4d4d;stroke-width:0.0573515;stroke-linecap:square"
       d="m 174.90357,67.295264 5.14836,-1.418371 0.0134,4.062929 -5.16498,1.375797 z"
       sodipodi:nodetypes="ccccc" />
    <path
       id="path174"
       style="display:inline;fill:#e6e6e6;fill-opacity:1;fill-rule:evenodd;stroke:#4d4d4d;stroke-width:0.0573515;stroke-linecap:square"
       d="m 174.90357,67.295264 5.14836,-1.418371 -0.77586,-0.136476 -4.89562,1.324649 z"
       sodipodi:nodetypes="ccccc" />
    <path
       id="path175"
       style="display:inline;fill:#999999;fill-opacity:1;fill-rule:evenodd;stroke:#4d4d4d;stroke-width:0.0573515;stroke-linecap:square"
       d="m 174.90357,67.295264 0.0387,3.936755 -0.63742,-0.116602 0.0755,-4.050351 z"
       sodipodi:nodetypes="ccccc" />
    <path
       id="path176"
       style="display:inline;fill:#b3b3b3;fill-opacity:1;fill-rule:evenodd;stroke:#4d4d4d;stroke-width:0.0573515;stroke-linecap:square"
       d="m 160.31408,69.963305 -9.43083,-2.324418 -0.0134,4.062929 9.44745,2.281845 z"
       sodipodi:nodetypes="ccccc" />
    <path
       id="path177"
       style="display:inline;fill:#e6e6e6;fill-opacity:1;fill-rule:evenodd;stroke:#4d4d4d;stroke-width:0.0573515;stroke-linecap:square"
       d="m 160.31408,69.963305 -9.43083,-2.324418 0.77587,-0.136476 9.17808,2.230697 z"
       sodipodi:nodetypes="ccccc" />
    <path
       id="path178"
       style="display:inline;fill:#999999;fill-opacity:1;fill-rule:evenodd;stroke:#4d4d4d;stroke-width:0.0573515;stroke-linecap:square"
       d="m 160.31408,69.963305 -0.0387,3.936755 0.63743,-0.116602 -0.0755,-4.05035 z"
       sodipodi:nodetypes="ccccc" />
    <path
       id="path179"
       style="display:inline;fill:#cccccc;fill-opacity:1;fill-rule:evenodd;stroke:#4d4d4d;stroke-width:0.0202982;stroke-linecap:square"
       d="m 161.07321,65.881544 2.40875,0.64054 -2.38028,0.581764 -2.33416,-0.587543 z"
       sodipodi:nodetypes="ccccc" />
    <path
       id="path180"
       style="display:inline;fill:#c1c1c1;fill-opacity:1;fill-rule:evenodd;stroke:#4d4d4d;stroke-width:0.0573515;stroke-linecap:square"
       d="m 159.40197,66.63818 1.78463,0.311 0.12566,7.677448 -1.85861,-0.509146 z"
       sodipodi:nodetypes="ccccc" />
    <path
       id="path181"
       style="display:inline;fill:#cccccc;fill-opacity:1;fill-rule:evenodd;stroke:#4d4d4d;stroke-width:0.0202982;stroke-linecap:square"
       d="m 160.56041,63.051956 0.2563,0.111973 0.39403,4.216343 -2.33416,-0.587543 z"
       sodipodi:nodetypes="ccccc" />
    <g
       id="g187"
       style="display:inline"
       transform="translate(160.76084,79.017944)">
      <path
         id="path185"
         style="display:inline;fill:#b3b3b3;fill-opacity:1;fill-rule:evenodd;stroke:#4d4d4d;stroke-width:0.0573515;stroke-linecap:square"
         d="m 1.5832683,-8.7002992 5.148363,-1.4183708 0.01336,4.0629292 -5.16498,1.3757971 z"
         sodipodi:nodetypes="ccccc" />
      <path
         id="path186"
         style="display:inline;fill:#e6e6e6;fill-opacity:1;fill-rule:evenodd;stroke:#4d4d4d;stroke-width:0.0573515;stroke-linecap:square"
         d="m 1.5832683,-8.7002992 5.148363,-1.4183708 -0.775863,-0.136476 -4.895616,1.3246488 z"
         sodipodi:nodetypes="ccccc" />
      <path
         id="path187"
         style="display:inline;fill:#999999;fill-opacity:1;fill-rule:evenodd;stroke:#4d4d4d;stroke-width:0.0573515;stroke-linecap:square"
         d="m 1.5832683,-8.7002992 0.03875,3.9367547 -0.63742302,-0.1166014 0.07555,-4.0503513 z"
         sodipodi:nodetypes="ccccc" />
    </g>
    <path
       id="path182"
       style="display:inline;fill:#b1b1b1;fill-opacity:1;fill-rule:evenodd;stroke:#4d4d4d;stroke-width:0.0573515;stroke-linecap:square"
       d="m 162.93087,66.667422 -1.7205,0.288752 0.10189,7.670454 1.97123,-0.416107 z"
       sodipodi:nodetypes="ccccc" />
    <path
       id="path183"
       style="display:inline;fill:#b3b3b3;fill-opacity:1;fill-rule:evenodd;stroke:#4d4d4d;stroke-width:0.0202982;stroke-linecap:square"
       d="m 161.09394,63.075427 -0.27723,0.0885 0.39403,4.216343 2.43226,-0.540695 z"
       sodipodi:nodetypes="ccccc" />
    <path
       id="path184"
       style="display:inline;fill:#cccccc;fill-opacity:1;fill-rule:evenodd;stroke:#4d4d4d;stroke-width:0.0202982;stroke-linecap:square"
       d="m 160.69024,62.685037 0.29463,0.119118 -0.28198,0.09826 -0.25506,-0.11885 z"
       sodipodi:nodetypes="ccccc" />
  </g>
</svg>
