<?xml version="1.0" encoding="UTF-8" standalone="no"?>
<!-- Created with Inkscape (http://www.inkscape.org/) -->

<svg
   width="600"
   height="600"
   viewBox="0 0 600 600"
   version="1.1"
   id="svg1"
   inkscape:version="1.3.2 (091e20e, 2023-11-25)"
   sodipodi:docname="spiral_twirl.svg"
   xmlns:inkscape="http://www.inkscape.org/namespaces/inkscape"
   xmlns:sodipodi="http://sodipodi.sourceforge.net/DTD/sodipodi-0.dtd"
   xmlns="http://www.w3.org/2000/svg"
   xmlns:svg="http://www.w3.org/2000/svg">
  <sodipodi:namedview
     id="namedview1"
     pagecolor="#ffffff"
     bordercolor="#666666"
     borderopacity="1.0"
     inkscape:showpageshadow="2"
     inkscape:pageopacity="0.0"
     inkscape:pagecheckerboard="0"
     inkscape:deskcolor="#d1d1d1"
     inkscape:document-units="px"
     inkscape:zoom="0.58972706"
     inkscape:cx="300.9867"
     inkscape:cy="400.18513"
     inkscape:window-width="1452"
     inkscape:window-height="752"
     inkscape:window-x="243"
     inkscape:window-y="148"
     inkscape:window-maximized="0"
     inkscape:current-layer="svg1" />
  <defs
     id="defs1" />
  <path
     style="color:#000000;fill:#ffccaa;fill-rule:evenodd;-inkscape-stroke:none"
     d="m 491.78401,346.22499 c -0.03,-46.311 -34.6,-116.348 -115.807,-175.555 -99.337,-32.699 -221.273,17.466 -233.084,93.009 23.039,47.992 97.752,51.722 157.647,40.816 51.172,14.68 94.709,12.669 91.209,-28.066 0.57,-11.841 -7.253,-28.17 -22.323,-44.428 -14.95,-14.557 -39.258,-27.898 -69.377,-33.056 -17.997,-1.128 -35.748,2.061 -48.617,8.608 -11.796,7.5 -17.429,18.17 -8.531,26.028 6.015,4.906 14.795,6.783 25.811,7.917 5.552,0.805 12.441,1.478 19.326,0.248 7.029,-0.926 11.543,-4.251 12.419,-7.773 l -28.892,-4.214 c 0.403,-0.27 1.261,-0.959 2.653,-1.243 2.103,-0.406 2.443,-0.083 1.201,-0.305 -2.479,-0.422 -7.974,-3.144 -7.243,-2.401 -3.692,-3.807 -1.675,-6.836 4.601,-10.122 6.569,-3.014 18.063,-4.662 27.074,-4.022 18.802,2.587 33.941,9.65 45.184,18.871 11.335,10.053 18.32,21.462 18.763,29.775 4.782,28.766 -31.095,34.043 -73.585,26.185 -52.769,9.023 -113.914,1.994 -128.033,-35.566 9.09,-56.969 109.641,-99.35 195.575,-75.679 102.375,72.687 131.014,166.565 105.664,194.03 -21.527,66.09 -79.56,52.627 -143.121,5.389 l 4.919,26.722 c 61.144,58.57 121.101,78.57 153.571,3.153 8.865,-12.25 13.468,-32.647 12.996,-58.321 z"
     id="path28" />
  <path
     style="color:#000000;fill:#87cdde;fill-rule:evenodd;-inkscape-stroke:none"
     d="m 87.84197,328.29051 c 0.03,-46.311 34.6,-116.348 115.807,-175.55501 99.337,-32.699 221.273,17.466 233.084,93.00901 -23.039,47.992 -97.752,51.722 -157.647,40.816 -51.172,14.68 -94.709,12.669 -91.209,-28.066 -0.57,-11.841 7.253,-28.17 22.323,-44.428 14.95,-14.557 39.258,-27.898 69.377,-33.056 17.997,-1.128 35.748,2.061 48.617,8.608 11.796,7.5 17.429,18.17 8.531,26.028 -6.015,4.906 -14.795,6.783 -25.811,7.917 -5.552,0.805 -12.441,1.478 -19.326,0.248 -7.029,-0.926 -11.543,-4.251 -12.419,-7.773 l 28.892,-4.214 c -0.403,-0.27 -1.261,-0.959 -2.653,-1.243 -2.103,-0.406 -2.443,-0.083 -1.201,-0.305 2.479,-0.422 7.974,-3.144 7.243,-2.401 3.692,-3.807 1.675,-6.836 -4.601,-10.122 -6.569,-3.014 -18.063,-4.662 -27.074,-4.022 -18.802,2.587 -33.941,9.65 -45.184,18.871 -11.335,10.053 -18.32,21.462 -18.763,29.775 -4.782,28.766 31.095,34.043 73.585,26.185 52.769,9.023 113.914,1.994 128.033,-35.566 -9.09,-56.969 -109.641,-99.35001 -195.575,-75.67901 -102.375,72.68701 -131.014,166.56501 -105.664,194.03001 21.527,66.09 79.56,52.627 143.121,5.389 l -4.919,26.722 c -61.144,58.57 -121.101,78.57 -153.571,3.153 -8.865,-12.25 -13.468,-32.647 -12.996,-58.321 z"
     id="path29" />
</svg>
