<?xml version="1.0" encoding="UTF-8" standalone="no"?>
<!-- Created with Inkscape (http://www.inkscape.org/) -->

<svg
   width="400"
   height="400"
   viewBox="-10 -10 20 20"
   id="TESTER"
   sodipodi:docname="test_goat.svg"
   inkscape:version="1.3.2 (091e20e, 2023-11-25)"
   version="1.1"
   xmlns:inkscape="http://www.inkscape.org/namespaces/inkscape"
   xmlns:sodipodi="http://sodipodi.sourceforge.net/DTD/sodipodi-0.dtd"
   xmlns="http://www.w3.org/2000/svg"
   xmlns:svg="http://www.w3.org/2000/svg">
  <sodipodi:namedview
     id="namedview1"
     pagecolor="#ffffff"
     bordercolor="#666666"
     borderopacity="1.0"
     inkscape:showpageshadow="2"
     inkscape:pageopacity="0.0"
     inkscape:pagecheckerboard="0"
     inkscape:deskcolor="#d1d1d1"
     inkscape:zoom="188.71266"
     inkscape:cx="0.87169564"
     inkscape:cy="0.074186863"
     inkscape:window-width="1848"
     inkscape:window-height="1016"
     inkscape:window-x="72"
     inkscape:window-y="27"
     inkscape:window-maximized="1"
     inkscape:current-layer="layer1" />
  <defs
     id="defs1" />

<g id="thor_rig" >

  <g
     inkscape:label="chariot"
     inkscape:groupmode="layer"
     id="layer1"
     style="display:inline">
   <g transform="translate(1.5  0.8) scale( 0.7 1 )"
       id="wheel_2"
       inkscape:label="wheel_2"
       sodipodi:insensitive="true"
       >
      <ellipse
         style="fill:#ffcd05;fill-opacity:1;fill-rule:evenodd;stroke:none;stroke-width:7.8527;stroke-linecap:square"
         id="ellipse8-6"
         cx="0.13327706"
         cy="-0.014107663"
         rx="1.3636045"
         ry="1.3524531"
         inkscape:label="wheel_2" />
      <path
         id="spokes_2"
         style="fill:#918a6f;fill-rule:evenodd;stroke-width:0.1;stroke-linecap:square"
         d="m -0.00680431,-1.0360541 c -0.5655674,0.00138 -0.7721334,0.30691811 -1.03320299,0.56640611 l 0.77929679,0.041016 0.125,0.2363281 h 0.2226562 l 0.2148438,-0.3730469 -0.1210938,-0.46093741 c -0.066618,-0.00673 -0.128993,-0.00991 -0.1875,-0.00977 z m 0.953125,0.39648431 -0.4570312,0.63476557 -0.265625,-0.02343749 -0.1210938,0.1875 0.1972656,0.38085938 0.453125,0.1484375 C 1.1973885,0.12946954 1.0315652,-0.24244579 0.94632069,-0.63956979 Z m -1.5957031,0.5605468 -0.35546869,0.31640628 c 0.26056399,0.6649842 0.66645679,0.7084307 1.05273429,0.83398441 l -0.3203125,-0.71289066 0.1542969,-0.21875 -0.1015625,-0.19726563 z"
         inkscape:label="spokes_2" >
         <animateTransform
            attributeName="transform"
            attributeType="XML"
            type="rotate"
            values="0; 360"
            dur="1s"
            repeatCount="indefinite" 
         />
      </path>
    </g>
    <path
       id="base"
       style="fill:#a58400;fill-opacity:1;fill-rule:evenodd;stroke-width:0.1;stroke-linecap:square"
       d="m -3.4634322,0.0826407 c -0.125719,-0.16445474 -0.4626459,-0.59582302 -0.5772584,-0.71578077 0.372854,-0.25732309 1.6037541,-0.51568883 2.7070933,-0.46574333 L 1.8008505,0.59649071 -1.210927,1.5695962 Z"
       sodipodi:nodetypes="cccccc"
       inkscape:label="base"
       sodipodi:insensitive="true" />
    <g
       id="g11"
       inkscape:label="THOR"
       
       sodipodi:insensitive="true">
      <path
         style="display:inline;fill:#a48989;fill-opacity:1;stroke:none;stroke-width:0.0501539;stroke-linecap:butt;stroke-linejoin:miter;stroke-dasharray:none;stroke-opacity:1"
         d="m 1.9516266,-2.9104739 -0.2483488,-0.040313 -0.1879873,-0.082381 -0.83274073,-0.2065088 -0.1089935,-0.046242 c -0.1537407,-0.163045 -0.275671,-0.2560677 -0.58793382,-0.272401 l -0.2220606,-0.3782191 0.1671305,-0.342456 c 0.179089,0.031357 0.51047482,-0.099912 0.66449772,0.1940356 0.1215493,0.1436375 0.2341185,0.012203 0.39705805,0.4016642 0.18718028,0.1391382 0.27406198,0.3017516 0.56261518,0.4171631 l 0.1855345,-0.085839 0.2716898,0.052399 0.097547,0.2732847 z"
         id="path18"
         sodipodi:nodetypes="ccccccccccccccc" />
      <path
         style="display:inline;fill:#a48989;fill-opacity:1;stroke:none;stroke-width:0.0501539;stroke-linecap:butt;stroke-linejoin:miter;stroke-dasharray:none;stroke-opacity:1"
         d="M -0.00379053,0.26275275 0.22938843,0.31528199 0.28916107,0.42003878 0.73174445,0.54502623 1.2310822,0.44027544 1.1781532,0.15130249 0.5815559,-0.27837778 0.32576927,-1.1023378 l -0.47155732,-1.5803394 -0.31403781,0.3393211 -0.17198756,0.4456962 0.29004812,0.95817486 0.29225736,0.82971871 z"
         id="path5"
         sodipodi:nodetypes="cccccccccccccc" />
      <path
         style="display:inline;fill:#ac9393;fill-opacity:1;stroke:#000000;stroke-width:0.0501539;stroke-linecap:butt;stroke-linejoin:miter;stroke-dasharray:none;stroke-opacity:1"
         d="m -1.2999354,-1.8163324 1.12258303,-0.093754 0.0651784,-0.8371608 -1.07237203,0.039766 c -0.089127,0.1467805 -0.085365,0.052343 -0.2895161,0.3161511 -0.040448,0.2430275 0.079133,0.4025038 0.1741267,0.5749977 z"
         id="path6"
         sodipodi:nodetypes="cccccc" />
      <path
         style="display:inline;fill:#ac9393;fill-opacity:1;stroke:none;stroke-width:0.0704039;stroke-linecap:butt;stroke-linejoin:miter;stroke-dasharray:none;stroke-opacity:1"
         d="m -0.43013993,-4.6979023 -1.25053467,0.5950796 0.4973332,1.4221938 0.86015679,0.1220155 0.22661333,-0.2265674 c 0.0231123,-0.1191767 0.22321124,-0.2765031 0.34732719,-0.4175826 0.0344495,-0.3126785 0.0317729,-0.6349592 -0.0307998,-0.9727311 z"
         id="path4"
         sodipodi:nodetypes="cccccccc" />
      <path
         style="display:inline;fill:#ac9393;fill-opacity:1;stroke:none;stroke-width:0.0501539;stroke-linecap:butt;stroke-linejoin:miter;stroke-dasharray:none;stroke-opacity:1"
         d="m -1.8026293,0.07704188 0.1761514,0.23457519 0.2215733,0.39146182 0.2029083,0.13559972 0.68252203,-0.0430732 7.5366e-4,-0.22394425 C -0.64606798,0.39843998 -0.79397688,0.23132585 -0.79731471,0.02127217 -1.0340434,-0.21042865 -0.83499691,-0.61945857 -0.85383801,-0.93982394 l 0.0587739,-1.03564296 -0.26416289,-0.2972346 -0.3945046,0.068757 -0.1701392,1.0897238 c -0.023148,0.31741075 0.052008,0.59160744 -0.1121734,0.97101561 z"
         id="path7"
         sodipodi:nodetypes="cccccccccccccc" />
      <path
         style="display:inline;fill:#ac9393;fill-opacity:1;stroke:none;stroke-width:0.0501539;stroke-linecap:butt;stroke-linejoin:miter;stroke-dasharray:none;stroke-opacity:1"
         d="m -3.2378099,-2.8117218 0.2906624,-0.1749021 0.8327408,-0.2065088 0.1089935,-0.046242 c 0.1537407,-0.163045 0.275671,-0.2560677 0.5879338,-0.272401 l 0.2220606,-0.3782191 -0.1671305,-0.342456 c -0.179089,0.031357 -0.5104748,-0.099912 -0.6644977,0.1940356 -0.1215493,0.1436375 -0.2341185,0.012203 -0.3970581,0.4016642 -0.1871803,0.1391382 -0.274062,0.3017516 -0.5626152,0.4171631 l -0.5271665,-1.104e-4 0.030427,0.2829336 z"
         id="path9"
         sodipodi:nodetypes="ccccccccccccc" />
      <path
         style="display:inline;fill:#000000;stroke:none;stroke-width:0.0501539;stroke-linecap:butt;stroke-linejoin:miter;stroke-dasharray:none;stroke-opacity:1"
         d="m -3.1234379,-2.8121243 0.1159389,-0.1056384 -0.5635668,-0.6171439 -0.6398149,-0.5760243 0.06796,-0.2032614 0.010678,-0.1336352 -0.146149,0.00828 -0.2526043,0.077374 -0.4248467,0.3055924 -5.163e-4,0.081156 -0.091929,-0.00749 -0.084372,0.067233 0.050819,0.2581064 0.2498623,0.088725 0.076311,-0.055779 -5.37e-4,-0.080895 0.078654,0.023796 0.2494244,-0.1823145 0.6162575,0.5668369 z"
         id="path10"
         sodipodi:nodetypes="cccccccccccccccccccc" />
      <path
         style="display:inline;fill:#e4b99c;fill-opacity:1;stroke:none;stroke-width:0.0704039;stroke-linecap:butt;stroke-linejoin:miter;stroke-dasharray:none;stroke-opacity:1"
         d="m -1.1139225,-4.8900878 c -0.041259,0.1942942 -0.061012,0.3734101 -0.1971491,0.6346668 l 0.32048374,-0.1556646 0.0853209,0.1593505 c 0.1543272,0.1916392 0.30090248,0.2268688 0.4629816,0.5749175 l 0.10963506,0.1446852 0.19614612,-0.1590682 0.17943176,0.08966 0.02970143,-0.1629892 c -0.12899458,-0.3490808 -0.15285675,-0.7854071 -0.20472847,-1.1984893 z"
         id="path11"
         sodipodi:nodetypes="ccccccccccc" />
      <path
         style="display:inline;fill:#ac9393;stroke:none;stroke-width:0.0501539;stroke-linecap:butt;stroke-linejoin:miter;stroke-dasharray:none;stroke-opacity:1"
         d="m -3.358317,-2.9654062 0.1693083,0.1099004 0.053713,-0.0616 -0.2107771,-0.1682339 0.022517,-0.0654 0.3368397,-0.068849 -0.1551088,-0.1134627 -0.1421125,-0.00537 -0.2299452,0.1187268 0.062979,0.2098841 z"
         id="path12"
         sodipodi:nodetypes="ccccccccccc" />
      <path
         style="display:inline;fill:#6c5353;stroke:none;stroke-width:0.0501539;stroke-linecap:butt;stroke-linejoin:miter;stroke-dasharray:none;stroke-opacity:1"
         d="m -1.8026293,0.07704188 0.1761514,0.23457519 0.2215733,0.39146182 0.2029083,0.13559972 0.68252203,-0.0430732 7.5366e-4,-0.22394425 c -0.12734737,-0.17322118 -0.27525627,-0.34033531 -0.2785941,-0.55038899 -0.23672869,-0.23170082 -0.0376822,-0.64073074 -0.0565233,-0.96109611 -0.15593179,0.2459347 -0.49750379,0.14675085 -0.79435859,-0.0964015 -0.023148,0.31741055 0.076334,0.51361194 -0.087848,0.89302011 z"
         id="path13"
         sodipodi:nodetypes="ccccccccccc" />
      <path
         style="display:inline;fill:#664f4f;fill-opacity:1;stroke:none;stroke-width:0.0501539;stroke-linecap:butt;stroke-linejoin:miter;stroke-dasharray:none;stroke-opacity:1"
         d="M -0.00379053,0.26275275 0.22938843,0.31528199 0.28916107,0.42003878 0.73174445,0.54502623 1.2310822,0.44027544 1.1781532,0.15130249 0.5815559,-0.27837778 0.32576927,-1.1023378 c 0.0698291,0.2655446 -0.36431505,0.23512616 -0.66753457,0.16285276 l 0.29225736,0.82971871 z"
         id="path14"
         sodipodi:nodetypes="ccccccccccc" />
      <path
         style="display:inline;fill:#6c5353;fill-opacity:1;stroke:none;stroke-width:0.0501539;stroke-linecap:butt;stroke-linejoin:miter;stroke-dasharray:none;stroke-opacity:1"
         d="m -1.7988921,-1.8180128 c 0.2765358,0.1120484 0.7881999,0.4820586 1.06298727,0.2698247 0.2312503,-0.1786078 0.85360154,0.09968 0.98961373,-0.230707 -0.15789198,-0.2804962 -0.20890504,-0.4629293 -0.33435773,-0.8763657 -0.23028121,0.062906 -0.54709039,0.094658 -1.15482337,-0.068918 -0.089127,0.1467805 -0.119246,0.09733 -0.3233972,0.3611381 -0.040448,0.2430275 -0.1493431,0.4322978 -0.2400227,0.5450279 z"
         id="path15"
         sodipodi:nodetypes="csccccc" />
      <path
         style="display:inline;fill:#483737;fill-opacity:1;stroke:none;stroke-width:0.0501539;stroke-linecap:butt;stroke-linejoin:miter;stroke-dasharray:none;stroke-opacity:1"
         d="m -1.4897351,-2.4458648 c 0.3518063,0.095648 0.87664082,0.1315316 1.51199582,0.046404 -0.09234709,-0.1742175 -0.02415334,-0.3738195 -0.0065803,-0.5654175 -0.4254699,0.036557 -0.86128639,0.027431 -1.31305132,-0.05211 0.022555,0.2558845 -0.099367,0.4188237 -0.1923642,0.5711235 z"
         id="path16"
         sodipodi:nodetypes="ccccc" />
      <path
         style="display:inline;fill:#e6e6e6;fill-opacity:1;stroke:none;stroke-width:0.0501539;stroke-linecap:butt;stroke-linejoin:miter;stroke-dasharray:none;stroke-opacity:1"
         d="m -0.86042449,-2.3441385 0.0855092,0.04917 c 0.25095004,0.037667 0.45527689,0.037085 0.61641797,0.00107 l 0.0391019,-0.6775174 c -0.16952989,-0.017749 -0.3751732,-0.019245 -0.63366909,0.00305 l -0.0760507,0.011546 z"
         id="path17"
         sodipodi:nodetypes="ccccccc" />
      <path
         style="display:inline;fill:#e9c6af;stroke:none;stroke-width:0.0704039;stroke-linecap:butt;stroke-linejoin:miter;stroke-dasharray:none;stroke-opacity:1"
         d="m -1.0609154,-4.9086027 c -0.041259,0.1942942 -0.03214,0.3168026 -0.1682771,0.5780593 l 0.24171314,-0.1279474 0.13846345,0.1819549 c 0.1543272,0.1916392 0.27932321,0.2100479 0.44140233,0.5580966 l 0.0867774,0.1172809 0.17454492,-0.1415969 0.12136348,0.06815 0.038017,-0.1017838 C -0.11590536,-4.12547 -0.11165941,-4.5257131 -0.16353113,-4.9387953 Z"
         id="path20"
         sodipodi:nodetypes="ccccccccccc" />
      <path
         style="display:inline;fill:#ac9393;fill-opacity:1;stroke:none;stroke-width:0.0704039;stroke-linecap:butt;stroke-linejoin:miter;stroke-dasharray:none;stroke-opacity:1"
         d="m -0.96522563,-4.9153309 c -0.041259,0.1942942 -0.0923488,0.080577 0.10683456,0.3340282 0.0832609,0.1261372 0.33309716,0.012954 0.48265166,-0.035621 0.22369647,0.028897 0.30892463,0.057858 0.18645192,-0.3307144 z"
         id="path21"
         sodipodi:nodetypes="ccccc" />
      <path
         style="display:inline;fill:#4d4d4d;stroke:none;stroke-width:0.0704039;stroke-linecap:butt;stroke-linejoin:miter;stroke-dasharray:none;stroke-opacity:1"
         d="m -0.73919044,-5.5213734 -0.14881441,0.1385033 c -0.74554915,0.063493 -1.02792975,-0.352643 -1.40090815,-0.7406667 0.2697596,0.56514 0.5985996,0.9229403 1.2218852,0.999011 l -0.046895,0.234438 0.50843383,-0.030648 0.17250636,0.3678945 0.14743207,-0.012953 -0.0564635,-0.381631 0.20991429,-0.015593 -0.1773488,-0.2704703 c 0.58324627,-0.1915229 0.68336866,-0.6982771 0.82723767,-1.1100391 -0.2653552,0.5025116 -0.58432004,0.8599272 -1.07871663,0.9394096 z"
         id="path19"
         sodipodi:nodetypes="cccccccccccccc" />
      <path
         style="display:inline;fill:#e6e6e6;fill-opacity:1;stroke:none;stroke-width:0.0704039;stroke-linecap:butt;stroke-linejoin:miter;stroke-dasharray:none;stroke-opacity:1"
         d="m -0.80854938,-4.8827576 0.0136706,0.062099 0.20899101,0.024583 -0.0137511,-0.07869 z"
         id="path22"
         sodipodi:nodetypes="ccccc" />
      <path
         style="display:inline;fill:#e6e6e6;fill-opacity:1;stroke:none;stroke-width:0.0704039;stroke-linecap:butt;stroke-linejoin:miter;stroke-dasharray:none;stroke-opacity:1"
         d="m -0.28621766,-4.8290613 -0.0311955,-0.071411 0.13570066,-0.031113 -0.0137511,0.07869 z"
         id="path28"
         sodipodi:nodetypes="ccccc" />
    </g>
    <path
       id="path2"
       style="fill:#c8ab37;fill-opacity:1;fill-rule:evenodd;stroke-width:10;stroke-linecap:square"
       d="m -3.1138374,-0.46494596 c 0.99311,0.71667 1.0453326,0.34001828 2.14882257,-0.86855174 1.44662,-1.6572001 2.08511003,-0.9072801 2.87830003,-0.6181601 l -0.1151,2.53401012 C 1.0337652,1.2272323 -0.04474483,1.4903323 -1.2572948,1.5905023 L -3.449748,0.13808857 -4.0481215,-0.64707869 c 0.2137311,0.16053159 0.4838439,0.26345581 0.9342841,0.18213273 z"
       sodipodi:nodetypes="cccccccc"
       inkscape:label="chariot"
       sodipodi:insensitive="true" />
    <path
       style="fill:none;fill-rule:evenodd;stroke:#ffdd55;stroke-width:0.0861486;stroke-linecap:square"
       d="m 0.53570933,-0.48150156 c 0.20065161,0.11655824 0.40072365,0.23313422 0.56250007,0.34328837 0.1617765,0.11015514 0.2841814,0.21386647 0.3447421,0.30420302 0.060563,0.0903362 0.058644,0.16716337 -0.00412,0.22331488 -0.062766,0.0561616 -0.18631,0.0913998 -0.3457269,0.0997684 -0.15941685,0.008369 -0.35398298,-0.01045 -0.54568885,-0.05889 C 0.35571267,0.38174421 0.16795484,0.30338765 0.01989435,0.19841879 -0.1281698,0.09345068 -0.23551846,-0.0382918 -0.28298535,-0.18672315 c -0.0474668,-0.14843077 -0.0345159,-0.31350152 0.0339939,-0.47937305 0.0685068,-0.16586992 0.19240264,-0.33226459 0.34515285,-0.4808297 0.15275023,-0.148565 0.33355979,-0.2788573 0.50535024,-0.3747362 0.17179003,-0.095883 0.33348043,-0.1568546 0.45276976,-0.173803 0.1192902,-0.016948 0.1952615,0.010517 0.2136185,0.081282 0.018349,0.070767 -0.021282,0.1850005 -0.1094702,0.3308753 -0.088188,0.1458748 -0.22460958,0.32329564 -0.38019215,0.51242034 -0.15558237,0.18912447 -0.32943746,0.38962406 -0.4850562,0.5787718 -0.15561886,0.18914675 -0.29191095,0.36648267 -0.38019166,0.51241913 -0.08828073,0.14593645 -0.12771295,0.26002433 -0.10946571,0.33087557 0.0182396,0.0708497 0.0944064,0.0981494 0.21361411,0.0812896 C 0.13634511,0.71560942 0.29813541,0.65447496 0.46990664,0.55865505 0.64167889,0.4628451 0.8224514,0.33245183 0.9752573,0.18392272 1.1280633,0.0353936 1.2517958,-0.13103536 1.320413,-0.29690752 1.38903,-0.46277952 1.401752,-0.62781638 1.354401,-0.77627958 1.3070577,-0.92474434 1.1995075,-1.0564009 1.051524,-1.1614219 0.90354109,-1.266443 0.71569894,-1.3446889 0.52399955,-1.3931862 c -0.19169949,-0.048498 -0.38620294,-0.067203 -0.54568735,-0.058884 -0.15948607,0.00831 -0.2828402,0.043642 -0.34572013,0.099757 -0.0628799,0.056115 -0.0645679,0.133009 -0.004127,0.2233193 0.0604403,0.09031 0.18304256,0.19406095 0.34474431,0.30420258 0.16170176,0.11014165 0.36184847,0.22673013 0.56250003,0.34328836"
       title="sin(2*t + 0) sin(3*t)"
       id="path3"
       inkscape:label="lissajous_knot"
       sodipodi:insensitive="true" />
    <g transform="translate(-2.2  1.4) scale( 0.7 1 )"
       id="wheel_1"
       inkscape:label="wheel_1"
       sodipodi:insensitive="true"
       >
      <ellipse
         style="fill:#ffcd05;fill-opacity:1;fill-rule:evenodd;stroke:none;stroke-width:7.8527;stroke-linecap:square"
         id="ellipse8-6"
         cx="0.13327706"
         cy="-0.014107663"
         rx="1.3636045"
         ry="1.3524531"
         inkscape:label="wheel_1" />
      <path
         id="spokes_1"
         style="fill:#918a6f;fill-rule:evenodd;stroke-width:0.1;stroke-linecap:square"
         d="m -0.00680431,-1.0360541 c -0.5655674,0.00138 -0.7721334,0.30691811 -1.03320299,0.56640611 l 0.77929679,0.041016 0.125,0.2363281 h 0.2226562 l 0.2148438,-0.3730469 -0.1210938,-0.46093741 c -0.066618,-0.00673 -0.128993,-0.00991 -0.1875,-0.00977 z m 0.953125,0.39648431 -0.4570312,0.63476557 -0.265625,-0.02343749 -0.1210938,0.1875 0.1972656,0.38085938 0.453125,0.1484375 C 1.1973885,0.12946954 1.0315652,-0.24244579 0.94632069,-0.63956979 Z m -1.5957031,0.5605468 -0.35546869,0.31640628 c 0.26056399,0.6649842 0.66645679,0.7084307 1.05273429,0.83398441 l -0.3203125,-0.71289066 0.1542969,-0.21875 -0.1015625,-0.19726563 z"
         inkscape:label="spokes_1" >
         <animateTransform
            attributeName="transform"
            attributeType="XML"
            type="rotate"
            values="0; 360"
            dur="1s"
            repeatCount="indefinite" 
         />
      </path>
    </g>
  </g>
  <g id="GOAT_2"
     style="display:inline"
     inkscape:label="GOAT"
     transform="translate( 6.2 2.2 )"
   >
    <g
       id="g_leg_ru2">
      <animateTransform
         attributeName="transform"
         attributeType="XML"
         type="rotate"
         values="-35 1.15 1.01; -5 1.15 1.01; -35 1.15 1.01"
         dur="0.5s"
         repeatCount="indefinite" />
      <path
         style="fill:#4d4d4d;fill-rule:evenodd;stroke-width:7.88883;stroke-linecap:square"
         d="M 1.8568929,1.3529794 1.3399858,1.5044488 1.2081921,2.245662 0.57776281,2.4271347 0.43812279,2.6108312 0.37519755,2.6274347 0.39084195,2.4881713 0.20992136,2.5254844 0.25869435,2.4135631 0.48134478,2.2586633 0.97008897,1.9674125 0.67784884,0.88711839 1.2136033,0.85123681 1.7955376,0.96576899 Z"
         id="leg_ru_2"
         sodipodi:nodetypes="ccccccccccccccc" />
    </g>
    <g
       id="g_leg_rl2">
      <animateTransform
         attributeName="transform"
         attributeType="XML"
         type="rotate"
         values="-5 -0.55 0.16; -35 -0.55 0.16; -5 -0.55 0.16"
         dur="0.5s"
         repeatCount="indefinite" />
      <path
         style="fill:#4d4d4d;fill-opacity:1;fill-rule:evenodd;stroke-width:7.88883;stroke-linecap:square"
         d="m -0.00919954,0.01711166 -0.07416929,0.48900819 -0.55148885,0.30246957 -0.15389169,0.82804768 0.0458243,0.1412221 -0.007753,0.1799214 -0.11079338,0.055344 0.007351,-0.160989 -0.078039,0.1585044 -0.14585634,-0.076425 0.13193481,-0.2961215 -0.24754381,-1.24230912 0.36350326,-0.34478247 0.20069098,-0.63676125 0.58193428,0.11453219 z"
         id="leg_rl_2"
         sodipodi:nodetypes="cccccccccccccccc" />
    </g>
    <path
       style="fill:#575757;fill-opacity:1;fill-rule:evenodd;stroke-width:7.88883;stroke-linecap:square"
       d="m -1.5682857,-0.58364637 0.1958421,-0.45988803 c 0.2309714,-0.3350173 0.3635333,-0.3404623 0.47107583,-0.3216995 1.00860421,0.48376279 1.59477088,0.47099898 2.40243037,0.61143889 0.4074199,0.13913282 0.6465773,0.33625806 0.9698659,0.50438709 L 2.7607536,0.44077279 C 2.4114122,0.74340659 2.1024034,1.0631344 1.8556682,1.4092557 1.5787272,1.6306902 1.4643212,1.5629334 1.400002,1.5314002 L 0.07369652,0.87994207 -0.6852535,0.23776818 -1.3736772,-0.08060484 c -0.064881,-0.16763358 -0.1716705,-0.15928082 -0.1946085,-0.50304153 z"
       id="path49"
       sodipodi:nodetypes="cccccccccccc" />
    <g
       id="g2">
      <animateTransform
         attributeName="transform"
         attributeType="XML"
         type="rotate"
         values="0 -0.90 0.16; 45 -0.90 0.16; 0 -0.90 0.16"
         dur="0.5s"
         repeatCount="indefinite" />
      <path
         style="fill:#666666;fill-rule:evenodd;stroke-width:8.63031;stroke-linecap:square"
         d="M -0.46524987,0.03174795 -0.6703378,0.57829352 -1.2108977,0.953811 l 0.042602,0.7043336 -0.023175,0.4118832 -0.099823,0.00951 -0.00212,-0.2257476 -0.077746,0.2183743 -0.159319,-0.1265073 0.1435693,-0.3126878 -0.3498672,-1.02588053 c -0.076949,-0.15892533 -0.00441,-0.18396808 0.045268,-0.24367161 l 0.2603674,-0.31241255 0.1791196,-0.76755418 0.58487322,0.12323651 z"
         id="leg_ru_2"
         sodipodi:nodetypes="cccccccccccccccc" />
    </g>
    <g
       id="g_head_2">
      <animateTransform
         attributeName="transform"
         attributeType="XML"
         type="rotate"
         values="0 2.70 -0.05; -25 2.70 -0.05; 0 2.70 -0.05"
         dur="2.1s"
         repeatCount="indefinite" />
      <path
         style="display:inline;fill:#1a1a1a;fill-rule:evenodd;stroke-width:7.88883;stroke-linecap:square"
         d="m 4.0626735,-0.68702369 c 0,0 0.3815126,0.25998477 0.5889769,0.26082592 0.3653142,0.001481 0.8757298,-0.65894403 0.8757298,-0.65894403 0,0 -0.4371909,0.83638903 -0.8457101,0.93564272 C 4.4039954,-0.08203531 4.1693159,-0.42004084 3.8867494,-0.37748772 3.6197598,-0.33728041 3.364955,0.07950912 3.364955,0.07950912 l -0.08252,-0.54704969 c 0.3120283,-0.18654909 0.4997781,-0.43409962 0.7802385,-0.21948312 z"
         id="path53"
         sodipodi:nodetypes="sscssccs" />
      <path
         id="head_2"
         style="fill:#666666;fill-rule:evenodd;stroke-width:7.88883;stroke-linecap:square"
         d="m 2.6755817,-0.89749619 0.3068205,0.2200193 c 0.077969,0.14746537 0.170233,0.2490636 0.3038737,0.21790623 L 3.459484,-0.33536407 C 3.511233,0.12574823 3.1030232,0.47331971 3.0620745,0.86952716 L 2.827564,1.0033391 2.5707072,0.79551482 C 2.3511905,0.36200551 2.1270088,-0.01006209 2.0376878,-0.47642447 2.2374812,-0.66786768 2.3930123,-0.86135025 2.6755817,-0.89749619 Z"
         sodipodi:nodetypes="ccccccccc" />
      <path
         style="fill:#1a1a1a;fill-rule:evenodd;stroke-width:7.88883;stroke-linecap:square"
         d="m 3.2038701,-1.4880067 c 0,0 0.4311057,0.2292684 0.6230876,0.137688 0.3193135,-0.152321 0.4741432,-0.9495544 0.4741432,-0.9495544 0,0 -1.708e-4,0.9259063 -0.3160873,1.1857571 C 3.7622354,-0.93087432 3.3605973,-1.2181603 3.1215471,-1.056721 2.9048211,-0.91035805 2.8497482,-0.49815948 2.8497482,-0.49815948 2.653644,-0.51069699 2.6145552,-0.60345691 2.5225732,-0.76803903 2.7135658,-1.0683048 2.8688123,-1.5620467 3.2038701,-1.4880067 Z"
         id="path54"
         sodipodi:nodetypes="sscssccs" />
      <path
         id="rect1"
         style="fill:#ff0000;fill-rule:evenodd;stroke-width:0.1;stroke-linecap:square"
         d="m 2.6061144,-0.24474074 c 0.264132,-0.12959677 0.090949,0.14224485 0.1575433,0.21081624 -0.1773779,-0.03914296 -0.16598,-0.13301499 -0.1575433,-0.21081624 z"
         sodipodi:nodetypes="ccc" />
    </g>
    <g
       id="g_leg_fu2"
       style="fill:#666666;fill-opacity:1">
      <animateTransform
         attributeName="transform"
         attributeType="XML"
         type="rotate"
         values="0 0.85 1.06; -45 0.85 1.06; 0 0.85 1.06"
         dur="0.5s"
         repeatCount="indefinite" />
      <path
         style="fill:#666666;fill-opacity:1;fill-rule:evenodd;stroke-width:7.88883;stroke-linecap:square"
         d="M 0.93504275,1.2539468 0.44121112,1.3041962 0.30941736,2.0454093 0.10159533,2.5546769 0.13980586,2.6504735 0.0721567,2.8216836 0.02079696,2.7115015 -0.11788001,2.7895074 -0.07219939,2.5947853 0.07131426,1.7671826 -0.17909676,0.84151391 c -0.0194823,-0.1545473 0.0727497,-0.16268732 0.11208776,-0.16491197 l 0.38183761,-0.025519 0.58193427,0.11453218 z"
         id="leg_fu_2"
         sodipodi:nodetypes="ccccccccccccccc" />
    </g>
  </g>
  <g id="GOAT_1"
     style="display:inline"
     inkscape:label="GOAT"
     transform="translate( 3.1 3.2 )"
   >
    <g
       id="g_leg_ru1">
      <animateTransform
         attributeName="transform"
         attributeType="XML"
         type="rotate"
         values="-35 1.15 1.01; -5 1.15 1.01; -35 1.15 1.01"
         dur="0.5s"
         repeatCount="indefinite" />
      <path
         style="fill:#4d4d4d;fill-rule:evenodd;stroke-width:7.88883;stroke-linecap:square"
         d="M 1.8568929,1.3529794 1.3399858,1.5044488 1.2081921,2.245662 0.57776281,2.4271347 0.43812279,2.6108312 0.37519755,2.6274347 0.39084195,2.4881713 0.20992136,2.5254844 0.25869435,2.4135631 0.48134478,2.2586633 0.97008897,1.9674125 0.67784884,0.88711839 1.2136033,0.85123681 1.7955376,0.96576899 Z"
         id="leg_fl_1"
         sodipodi:nodetypes="ccccccccccccccc" />
    </g>
    <g
       id="g_leg_rl1">
      <animateTransform
         attributeName="transform"
         attributeType="XML"
         type="rotate"
         values="-5 -0.55 0.16; -35 -0.55 0.16; -5 -0.55 0.16"
         dur="0.5s"
         repeatCount="indefinite" />
      <path
         style="fill:#4d4d4d;fill-opacity:1;fill-rule:evenodd;stroke-width:7.88883;stroke-linecap:square"
         d="m -0.00919954,0.01711166 -0.07416929,0.48900819 -0.55148885,0.30246957 -0.15389169,0.82804768 0.0458243,0.1412221 -0.007753,0.1799214 -0.11079338,0.055344 0.007351,-0.160989 -0.078039,0.1585044 -0.14585634,-0.076425 0.13193481,-0.2961215 -0.24754381,-1.24230912 0.36350326,-0.34478247 0.20069098,-0.63676125 0.58193428,0.11453219 z"
         id="leg_rl_1"
         sodipodi:nodetypes="cccccccccccccccc" />
    </g>
    <path
       style="fill:#575757;fill-opacity:1;fill-rule:evenodd;stroke-width:7.88883;stroke-linecap:square"
       d="m -1.5682857,-0.58364637 0.1958421,-0.45988803 c 0.2309714,-0.3350173 0.3635333,-0.3404623 0.47107583,-0.3216995 1.00860421,0.48376279 1.59477088,0.47099898 2.40243037,0.61143889 0.4074199,0.13913282 0.6465773,0.33625806 0.9698659,0.50438709 L 2.7607536,0.44077279 C 2.4114122,0.74340659 2.1024034,1.0631344 1.8556682,1.4092557 1.5787272,1.6306902 1.4643212,1.5629334 1.400002,1.5314002 L 0.07369652,0.87994207 -0.6852535,0.23776818 -1.3736772,-0.08060484 c -0.064881,-0.16763358 -0.1716705,-0.15928082 -0.1946085,-0.50304153 z"
       id="path49"
       sodipodi:nodetypes="cccccccccccc" />
    <g
       id="g1">
      <animateTransform
         attributeName="transform"
         attributeType="XML"
         type="rotate"
         values="0 -0.90 0.16; 45 -0.90 0.16; 0 -0.90 0.16"
         dur="0.5s"
         repeatCount="indefinite" />
      <path
         style="fill:#666666;fill-rule:evenodd;stroke-width:8.63031;stroke-linecap:square"
         d="M -0.46524987,0.03174795 -0.6703378,0.57829352 -1.2108977,0.953811 l 0.042602,0.7043336 -0.023175,0.4118832 -0.099823,0.00951 -0.00212,-0.2257476 -0.077746,0.2183743 -0.159319,-0.1265073 0.1435693,-0.3126878 -0.3498672,-1.02588053 c -0.076949,-0.15892533 -0.00441,-0.18396808 0.045268,-0.24367161 l 0.2603674,-0.31241255 0.1791196,-0.76755418 0.58487322,0.12323651 z"
         id="leg_ru_1"
         sodipodi:nodetypes="cccccccccccccccc" />
    </g>
    <g
       id="g_head_1">
      <animateTransform
         attributeName="transform"
         attributeType="XML"
         type="rotate"
         values="0 2.70 -0.05; -25 2.70 -0.05; 0 2.70 -0.05"
         dur="2s"
         repeatCount="indefinite" />
      <path
         style="display:inline;fill:#1a1a1a;fill-rule:evenodd;stroke-width:7.88883;stroke-linecap:square"
         d="m 4.0626735,-0.68702369 c 0,0 0.3815126,0.25998477 0.5889769,0.26082592 0.3653142,0.001481 0.8757298,-0.65894403 0.8757298,-0.65894403 0,0 -0.4371909,0.83638903 -0.8457101,0.93564272 C 4.4039954,-0.08203531 4.1693159,-0.42004084 3.8867494,-0.37748772 3.6197598,-0.33728041 3.364955,0.07950912 3.364955,0.07950912 l -0.08252,-0.54704969 c 0.3120283,-0.18654909 0.4997781,-0.43409962 0.7802385,-0.21948312 z"
         id="path53"
         sodipodi:nodetypes="sscssccs" />
      <path
         id="head_1"
         style="fill:#888;fill-rule:evenodd;stroke-width:7.88883;stroke-linecap:square"
         d="m 2.6755817,-0.89749619 0.3068205,0.2200193 c 0.077969,0.14746537 0.170233,0.2490636 0.3038737,0.21790623 L 3.459484,-0.33536407 C 3.511233,0.12574823 3.1030232,0.47331971 3.0620745,0.86952716 L 2.827564,1.0033391 2.5707072,0.79551482 C 2.3511905,0.36200551 2.1270088,-0.01006209 2.0376878,-0.47642447 2.2374812,-0.66786768 2.3930123,-0.86135025 2.6755817,-0.89749619 Z"
         sodipodi:nodetypes="ccccccccc" />
      <path
         style="fill:#1a1a1a;fill-rule:evenodd;stroke-width:7.88883;stroke-linecap:square"
         d="m 3.2038701,-1.4880067 c 0,0 0.4311057,0.2292684 0.6230876,0.137688 0.3193135,-0.152321 0.4741432,-0.9495544 0.4741432,-0.9495544 0,0 -1.708e-4,0.9259063 -0.3160873,1.1857571 C 3.7622354,-0.93087432 3.3605973,-1.2181603 3.1215471,-1.056721 2.9048211,-0.91035805 2.8497482,-0.49815948 2.8497482,-0.49815948 2.653644,-0.51069699 2.6145552,-0.60345691 2.5225732,-0.76803903 2.7135658,-1.0683048 2.8688123,-1.5620467 3.2038701,-1.4880067 Z"
         id="path54"
         sodipodi:nodetypes="sscssccs" />
      <path
         id="rect1"
         style="fill:#ff0000;fill-rule:evenodd;stroke-width:0.1;stroke-linecap:square"
         d="m 2.6061144,-0.24474074 c 0.264132,-0.12959677 0.090949,0.14224485 0.1575433,0.21081624 -0.1773779,-0.03914296 -0.16598,-0.13301499 -0.1575433,-0.21081624 z"
         sodipodi:nodetypes="ccc" />
    </g>
    <g
       id="g_leg_fu1"
       style="fill:#666666;fill-opacity:1">
      <animateTransform
         attributeName="transform"
         attributeType="XML"
         type="rotate"
         values="0 0.85 1.06; -45 0.85 1.06; 0 0.85 1.06"
         dur="0.5s"
         repeatCount="indefinite" />
      <path
         style="fill:#666666;fill-opacity:1;fill-rule:evenodd;stroke-width:7.88883;stroke-linecap:square"
         d="M 0.93504275,1.2539468 0.44121112,1.3041962 0.30941736,2.0454093 0.10159533,2.5546769 0.13980586,2.6504735 0.0721567,2.8216836 0.02079696,2.7115015 -0.11788001,2.7895074 -0.07219939,2.5947853 0.07131426,1.7671826 -0.17909676,0.84151391 c -0.0194823,-0.1545473 0.0727497,-0.16268732 0.11208776,-0.16491197 l 0.38183761,-0.025519 0.58193427,0.11453218 z"
         id="leg_fu_1"
         sodipodi:nodetypes="ccccccccccccccc" />
    </g>
  </g>

</g>

</svg>
