<?xml version="1.0" encoding="UTF-8" standalone="no"?>
<!-- Created with Inkscape (http://www.inkscape.org/) -->

<svg
   width="100"
   height="200"
   viewBox="0 0 100 200"
   version="1.1"
   id="svg1"
   inkscape:version="1.3.2 (091e20e, 2023-11-25)"
   sodipodi:docname="tree_structure.svg"
   xmlns:inkscape="http://www.inkscape.org/namespaces/inkscape"
   xmlns:sodipodi="http://sodipodi.sourceforge.net/DTD/sodipodi-0.dtd"
   xmlns="http://www.w3.org/2000/svg"
   xmlns:svg="http://www.w3.org/2000/svg">
  <sodipodi:namedview
     id="namedview1"
     pagecolor="#ffffff"
     bordercolor="#666666"
     borderopacity="1.0"
     inkscape:showpageshadow="2"
     inkscape:pageopacity="0.0"
     inkscape:pagecheckerboard="0"
     inkscape:deskcolor="#d1d1d1"
     inkscape:document-units="px"
     inkscape:zoom="5.6568542"
     inkscape:cx="77.074639"
     inkscape:cy="69.384853"
     inkscape:window-width="1753"
     inkscape:window-height="809"
     inkscape:window-x="72"
     inkscape:window-y="57"
     inkscape:window-maximized="0"
     inkscape:current-layer="layer4" />
  <defs
     id="defs1" />
  <g
     inkscape:label="tree_model_1"
     inkscape:groupmode="layer"
     id="layer1"
     sodipodi:insensitive="true"
     style="display:inline">
    <path
       id="path2"
       style="fill:#f2f2f2;fill-rule:evenodd;stroke:#747474;stroke-width:0.5;stroke-linecap:square"
       d="m -60.830236,166.5166 c 0,-14.07611 -9.54548,-23.75903 -24.708869,-30.35392 -16.086005,6.24195 -26.069585,18.32204 -26.069585,32.39814 0,14.07611 9.21325,18.57595 26.069585,18.57595 16.856331,0 24.70887,-6.54407 24.708869,-20.62017 z"
       sodipodi:nodetypes="ccssc" />
    <path
       id="ellipse2"
       style="fill:#ac9d93;fill-rule:evenodd;stroke:#78675c;stroke-width:0.5;stroke-linecap:square;stroke-dasharray:none;stroke-opacity:1"
       d="m -102.57429,145.90954 c 1.61347,-3.11107 5.470837,-9.3095 13.185545,-13.26953 l 0.171875,-5.47461 a 11.156111,9.852107 0 0 1 -7.902344,-9.41602 11.156111,9.852107 0 0 1 8.496094,-9.54687 l 0.25,-7.97852 a 11.156111,9.852107 0 0 1 -8.392578,-9.525386 11.156111,9.852107 0 0 1 2.910156,-6.61328 l -23.195318,-39.04297 1.63477,-1.46094 24.183595,38.63086 a 11.156111,9.852107 0 0 1 3.457031,-1.1543 l 0.853516,-27.25781 2.849609,0.02539 0.365234,27.18164 a 11.156111,9.852107 0 0 1 3.308594,1.00782 l 25.574219,-39.60547 1.59375,1.09179 -24.501953,40.25586 a 11.156111,9.852107 0 0 1 3.279297,6.94141 11.156111,9.852107 0 0 1 -9.097657,9.681636 l 0.240235,7.82227 a 11.156111,9.852107 0 0 1 8.503906,9.54687 11.156111,9.852107 0 0 1 -7.923828,9.42774 l 0.166015,5.45312 c 6.309942,3.72889 12.228112,8.98887 13.261719,12.50977 -5.986744,-5.18617 -11.048732,-8.25737 -16.18164,-9.66797 -4.910316,0.7058 -12.086152,6.03534 -17.089842,10.4375 z" />
    <path
       id="rect4"
       style="fill:#93ac93;fill-rule:evenodd;stroke:#374837;stroke-width:0.5;stroke-linecap:square;stroke-dasharray:none"
       d="m -98.910154,29.754434 c 0.09069,6.77452 11.911936,16.46897 11.911936,16.46897 l -0.02936,6.71448 3.101138,0.009 0.210353,-6.89527 c 0,0 13.594285,-9.81566 13.906643,-17.1756 0.437215,-10.3019 -14.709651,-24.38039 -14.709651,-24.38039 -6.023928,7.70176 -14.540336,14.10709 -14.391057,25.25881 z"
       sodipodi:nodetypes="sccccscs" />
    <path
       id="rect5"
       style="fill:#93ac93;fill-rule:evenodd;stroke:#374837;stroke-width:0.5;stroke-linecap:square;stroke-dasharray:none"
       d="m -128.60292,25.573534 c 0.28171,4.17268 7.3797,10.14669 7.3797,10.14669 -0.65652,3.32383 0.21808,7.84778 3.4997,8.61438 l 1.59274,-1.28693 c -3.24033,-0.92535 -3.55257,-4.72984 -3.1405,-7.36123 0,0 7.37391,-6.05266 7.33084,-10.18836 -0.0547,-5.24785 -8.69265,-12.57363 -8.69265,-12.57363 0,0 -8.31427,7.54719 -7.96983,12.64908 z"
       sodipodi:nodetypes="sccccscs" />
    <path
       id="path5"
       style="fill:#93ac93;fill-rule:evenodd;stroke:#374837;stroke-width:0.5;stroke-linecap:square;stroke-dasharray:none"
       d="m -41.558998,24.129914 c -0.281709,4.17268 -7.379703,10.14669 -7.379703,10.14669 0.656528,3.32383 -0.303411,7.63421 -3.585032,8.40081 l -1.507404,-1.07336 c 3.240325,-0.92535 3.55257,-4.72984 3.140501,-7.36123 0,0 -7.373911,-6.05266 -7.330844,-10.18836 0.05465,-5.24785 8.692649,-12.57363 8.692649,-12.57363 0,0 8.314274,7.54719 7.969833,12.64908 z"
       sodipodi:nodetypes="sccccscs" />
  </g>
  <g
     inkscape:groupmode="layer"
     id="layer3"
     inkscape:label="tree_model_2"
     sodipodi:insensitive="true">
    <path
       id="path12"
       style="color:#000000;display:inline;fill:#000000;-inkscape-stroke:none"
       d="M 65.90625,8.9199219 C 55.54061,10.517042 39.966253,5.113611 40.175781,20.923828 c -18.18507,20.600616 -11.849514,43.17284 0.257813,67.216797 0,0 -0.730783,11.209318 1.728515,15.962895 2.452965,4.74134 11.273699,11.37221 11.273699,11.37221 6.104074,12.95887 10.037809,23.63717 4.361067,32.95591 -3.674159,6.03138 -12.421184,10.38051 -24.776424,12.2929 L 1.0253906,144.07227 1.0644531,183.79102 32.351562,165.1543 c 14.154822,-4.1528 23.664589,-8.90775 27.668848,-15.48101 5.985659,-9.82586 1.080277,-22.49983 -4.768457,-35.00141 0,0 -0.412151,-6.91008 -1.808594,-9.99415 -1.171643,-3.3754 -3.672971,-5.958338 -3.513671,-10.12695 3.869054,-4.26079 8.348326,-7.18178 14.313624,-8.512444 9.724368,9.15367 19.51705,1.105281 29.291844,-2.438728 C 83.355405,81.693184 72.3829,71.879274 63.746094,85.363277 57.64985,86.981708 52.008635,90.256489 48.28125,94.919922 c -1.741194,0.06212 -2.706205,-1.939199 -3.359375,-4.769531 0.04043,-17.070106 6.839385,-35.141587 18.746094,-43.777344 15.275085,9.92798 20.267258,-1.944871 28.126953,-7.738281 -9.849239,1.045804 -22.8181,-6.558435 -28.28711,6.632812 -11.916693,8.352513 -18.832978,25.593625 -19.53125,42.236328 -0.16349,1.34658 -0.407097,2.596085 -0.974609,3.453125 C 30.24162,66.338278 22.459565,43.60399 39.943359,22.699219 56.936691,29.370381 60.020861,17.253227 65.90625,8.9199219 Z"
       sodipodi:nodetypes="cccscsccccsccccccccccccccc" />
  </g>
  <g
     inkscape:groupmode="layer"
     id="layer4"
     inkscape:label="text">
    <text
       xml:space="preserve"
       style="font-style:normal;font-variant:normal;font-weight:normal;font-stretch:normal;font-size:12px;line-height:normal;font-family:sans-serif;font-variant-ligatures:normal;font-variant-position:normal;font-variant-caps:normal;font-variant-numeric:normal;font-variant-alternates:normal;font-variant-east-asian:normal;font-feature-settings:normal;font-variation-settings:normal;text-indent:0;text-align:start;text-decoration-line:none;text-decoration-style:solid;text-decoration-color:#000000;letter-spacing:normal;word-spacing:normal;text-transform:none;writing-mode:lr-tb;direction:ltr;text-orientation:mixed;dominant-baseline:auto;baseline-shift:baseline;text-anchor:start;white-space:normal;shape-padding:0;shape-margin:0;inline-size:0;opacity:1;vector-effect:none;fill:#ffffff;fill-opacity:1;stroke:none;stroke-width:2;stroke-linecap:butt;stroke-linejoin:miter;stroke-miterlimit:4;stroke-dasharray:none;stroke-dashoffset:0;stroke-opacity:1;-inkscape-stroke:none;stop-color:#000000;stop-opacity:1"
       x="134.72968"
       y="78.415924"
       id="text20"
       transform="translate(-131.66647,87.423889)"><tspan
         sodipodi:role="line"
         x="134.72968"
         y="78.415924"
         id="tspan21">svg</tspan></text>
    <text
       xml:space="preserve"
       style="font-style:normal;font-variant:normal;font-weight:normal;font-stretch:normal;font-size:12px;line-height:normal;font-family:sans-serif;font-variant-ligatures:normal;font-variant-position:normal;font-variant-caps:normal;font-variant-numeric:normal;font-variant-alternates:normal;font-variant-east-asian:normal;font-feature-settings:normal;font-variation-settings:normal;text-indent:0;text-align:start;text-decoration-line:none;text-decoration-style:solid;text-decoration-color:#000000;letter-spacing:normal;word-spacing:normal;text-transform:none;writing-mode:lr-tb;direction:ltr;text-orientation:mixed;dominant-baseline:auto;baseline-shift:baseline;text-anchor:start;white-space:normal;shape-padding:0;shape-margin:0;inline-size:0;opacity:1;vector-effect:none;fill:#ffffff;fill-opacity:1;stroke:none;stroke-width:2;stroke-linecap:butt;stroke-linejoin:miter;stroke-miterlimit:4;stroke-dasharray:none;stroke-dashoffset:0;stroke-opacity:1;-inkscape-stroke:none;stop-color:#000000;stop-opacity:1"
       x="136.21985"
       y="109.46286"
       id="text22"
       transform="matrix(0.77934002,0,0,0.70829176,-63.387854,25.05864)"><tspan
         sodipodi:role="line"
         x="136.21985"
         y="109.46286"
         id="tspan23">g</tspan></text>
    <text
       xml:space="preserve"
       style="font-style:normal;font-variant:normal;font-weight:normal;font-stretch:normal;font-size:12px;line-height:normal;font-family:sans-serif;font-variant-ligatures:normal;font-variant-position:normal;font-variant-caps:normal;font-variant-numeric:normal;font-variant-alternates:normal;font-variant-east-asian:normal;font-feature-settings:normal;font-variation-settings:normal;text-indent:0;text-align:start;text-decoration-line:none;text-decoration-style:solid;text-decoration-color:#000000;letter-spacing:normal;word-spacing:normal;text-transform:none;writing-mode:lr-tb;direction:ltr;text-orientation:mixed;dominant-baseline:auto;baseline-shift:baseline;text-anchor:start;white-space:normal;shape-padding:0;shape-margin:0;inline-size:0;opacity:1;vector-effect:none;fill:#ffffff;fill-opacity:1;stroke:none;stroke-width:2;stroke-linecap:butt;stroke-linejoin:miter;stroke-miterlimit:4;stroke-dasharray:none;stroke-dashoffset:0;stroke-opacity:1;-inkscape-stroke:none;stop-color:#000000;stop-opacity:1"
       x="137.19733"
       y="136.60684"
       id="text24"
       transform="matrix(0.46397684,-0.18709932,0.15714371,0.38969164,-41.031115,-6.9481719)"><tspan
         sodipodi:role="line"
         x="137.19733"
         y="136.60684"
         id="tspan25">path</tspan></text>
    <text
       xml:space="preserve"
       style="font-style:normal;font-variant:normal;font-weight:normal;font-stretch:normal;font-size:12px;line-height:normal;font-family:sans-serif;font-variant-ligatures:normal;font-variant-position:normal;font-variant-caps:normal;font-variant-numeric:normal;font-variant-alternates:normal;font-variant-east-asian:normal;font-feature-settings:normal;font-variation-settings:normal;text-indent:0;text-align:start;text-decoration-line:none;text-decoration-style:solid;text-decoration-color:#000000;letter-spacing:normal;word-spacing:normal;text-transform:none;writing-mode:lr-tb;direction:ltr;text-orientation:mixed;dominant-baseline:auto;baseline-shift:baseline;text-anchor:start;white-space:normal;shape-padding:0;shape-margin:0;inline-size:0;opacity:1;vector-effect:none;fill:#ffffff;fill-opacity:1;stroke:none;stroke-width:2;stroke-linecap:butt;stroke-linejoin:miter;stroke-miterlimit:4;stroke-dasharray:none;stroke-dashoffset:0;stroke-opacity:1;-inkscape-stroke:none;stop-color:#000000;stop-opacity:1"
       x="137.19733"
       y="136.60684"
       id="text26"
       transform="matrix(0.53142062,0,0,0.45208456,-5.8918447,-16.382016)"><tspan
         sodipodi:role="line"
         x="137.19733"
         y="136.60684"
         id="tspan26">path</tspan></text>
    <text
       xml:space="preserve"
       style="font-style:normal;font-variant:normal;font-weight:normal;font-stretch:normal;font-size:12px;line-height:normal;font-family:sans-serif;font-variant-ligatures:normal;font-variant-position:normal;font-variant-caps:normal;font-variant-numeric:normal;font-variant-alternates:normal;font-variant-east-asian:normal;font-feature-settings:normal;font-variation-settings:normal;text-indent:0;text-align:start;text-decoration-line:none;text-decoration-style:solid;text-decoration-color:#000000;letter-spacing:normal;word-spacing:normal;text-transform:none;writing-mode:lr-tb;direction:ltr;text-orientation:mixed;dominant-baseline:auto;baseline-shift:baseline;text-anchor:start;white-space:normal;shape-padding:0;shape-margin:0;inline-size:0;opacity:1;vector-effect:none;fill:#ffffff;fill-opacity:1;stroke:none;stroke-width:2;stroke-linecap:butt;stroke-linejoin:miter;stroke-miterlimit:4;stroke-dasharray:none;stroke-dashoffset:0;stroke-opacity:1;-inkscape-stroke:none;stop-color:#000000;stop-opacity:1"
       x="137.19733"
       y="136.60684"
       id="text27"
       transform="matrix(0.4604795,0,0,0.45248035,5.2255838,24.344503)"><tspan
         sodipodi:role="line"
         x="137.19733"
         y="136.60684"
         id="tspan27">path</tspan></text>
  </g>
</svg>
