<?xml version="1.0" encoding="UTF-8" standalone="no"?>
<!-- Created with Inkscape (http://www.inkscape.org/) -->

<svg
   width="200"
   height="200"
   viewBox="-25 -25 50 50"
   version="1.1"
   id="svg1"
   inkscape:version="1.3.2 (091e20e, 2023-11-25)"
   sodipodi:docname="carousel.svg"
   xmlns:inkscape="http://www.inkscape.org/namespaces/inkscape"
   xmlns:sodipodi="http://sodipodi.sourceforge.net/DTD/sodipodi-0.dtd"
   xmlns:xlink="http://www.w3.org/1999/xlink"
   xmlns="http://www.w3.org/2000/svg"
   xmlns:svg="http://www.w3.org/2000/svg">
  <sodipodi:namedview
     id="namedview1"
     pagecolor="#ffffff"
     bordercolor="#666666"
     borderopacity="1.0"
     inkscape:showpageshadow="2"
     inkscape:pageopacity="0.0"
     inkscape:pagecheckerboard="0"
     inkscape:deskcolor="#d1d1d1"
     inkscape:document-units="px"
     inkscape:zoom="8"
     inkscape:cx="2.5625"
     inkscape:cy="-14.5"
     inkscape:window-width="1630"
     inkscape:window-height="944"
     inkscape:window-x="144"
     inkscape:window-y="87"
     inkscape:window-maximized="0"
     inkscape:current-layer="layer1" />
  <defs
     id="defs1">
    <linearGradient
       id="linearGradient63"
       inkscape:collect="always"
       inkscape:label="doll_body">
      <stop
         style="stop-color:#ddf3fc;stop-opacity:1;"
         offset="0"
         id="stop61" />
      <stop
         style="stop-color:#ddf3fc;stop-opacity:1;"
         offset="0.62015504"
         id="stop62" />
      <stop
         style="stop-color:#35b9ef;stop-opacity:1;"
         offset="1"
         id="stop63" />
    </linearGradient>
    <linearGradient
       id="linearGradient56"
       inkscape:collect="always"
       inkscape:label="doll_body">
      <stop
         style="stop-color:#ddf3fc;stop-opacity:1;"
         offset="0"
         id="stop56" />
      <stop
         style="stop-color:#ddf3fc;stop-opacity:1;"
         offset="0.58218235"
         id="stop58" />
      <stop
         style="stop-color:#35b9ef;stop-opacity:1;"
         offset="1"
         id="stop57" />
    </linearGradient>
    <clipPath
       clipPathUnits="userSpaceOnUse"
       id="clipPath7">
      <path
         style="fill:#f9f9f9;stroke:none;stroke-width:1px;stroke-linecap:butt;stroke-linejoin:miter;stroke-opacity:1"
         d="m -3.8324197,-14.754716 c 0.6688493,-0.838017 2.86861932,-3.103637 3.31115895,0.276993 -0.86482265,0.542196 -2.34002825,0.212424 -3.31115895,-0.276993 z"
         id="path8"
         sodipodi:nodetypes="ccc" />
    </clipPath>
    <filter
       inkscape:collect="always"
       style="color-interpolation-filters:sRGB"
       id="filter25"
       x="-0.36210958"
       y="-0.41021895"
       width="1.7242192"
       height="1.8204379">
      <feGaussianBlur
         inkscape:collect="always"
         stdDeviation="0.2735312"
         id="feGaussianBlur25" />
    </filter>
    <radialGradient
       inkscape:collect="always"
       xlink:href="#linearGradient56"
       id="radialGradient57"
       cx="0.87632692"
       cy="1.806982"
       fx="0.87632692"
       fy="1.806982"
       r="12.496094"
       gradientTransform="matrix(-0.00191383,-2.2515224,1.1377593,-9.6710812e-4,-1.5321656,5.3294739)"
       gradientUnits="userSpaceOnUse" />
    <radialGradient
       inkscape:collect="always"
       xlink:href="#linearGradient63"
       id="radialGradient61"
       cx="0.3950882"
       cy="-0.77559674"
       fx="0.3950882"
       fy="-0.77559674"
       r="12.496094"
       gradientTransform="matrix(-1.069795,0.00330609,-0.00435221,-1.4083008,0.81437597,2.0153993)"
       gradientUnits="userSpaceOnUse" />
  </defs>
  <g
     inkscape:label="body"
     inkscape:groupmode="layer"
     id="layer1">
    <path
       style="fill:#35b9ef;fill-opacity:1;fill-rule:evenodd;stroke-width:0.3;stroke-linecap:square"
       sodipodi:type="inkscape:offset"
       inkscape:radius="0.2674937"
       inkscape:original="M 0.47265625 -23.798828 C -4.0238553 -23.798109 -7.6684434 -20.561876 -7.6679688 -16.570312 C -7.6640587 -14.162067 -6.7135781 -10.603249 -8.1894531 -8.4355469 C -11.137965 -4.1048987 -11.866682 -2.8187348 -11.878906 3.2753906 L 13.113281 3.2753906 C 13.112847 -2.8956743 11.917548 -4.7695997 8.7832031 -9.0390625 C 7.2736127 -11.095358 8.6084626 -14.222168 8.6152344 -16.570312 C 8.615709 -20.562552 4.9699308 -23.799066 0.47265625 -23.798828 z M 0.33007812 -20.761719 A 5.7931366 5.7550125 0 0 1 6.1230469 -15.005859 A 5.7931366 5.7550125 0 0 1 0.33007812 -9.2519531 A 5.7931366 5.7550125 0 0 1 -5.4628906 -15.005859 A 5.7931366 5.7550125 0 0 1 0.33007812 -20.761719 z "
       xlink:href="#path2"
       id="path63"
       inkscape:href="#path2"
       d="m 0.57421875,-24.066406 c -4.62483095,7.39e-4 -8.40869705,3.341689 -8.40820315,7.496094 0.00201,1.239098 0.2421187,2.728659 0.2949219,4.167968 0.052803,1.43931 -0.084954,2.8109288 -0.7695313,3.8164065 -2.9508362,4.3340618 -3.7240612,5.7459604 -3.7363282,11.8613281 a 0.26752044,0.26752044 0 0 0 0.267578,0.2675782 H 13.214844 A 0.26752044,0.26752044 0 0 0 13.482422,3.2753906 C 13.481985,-2.9302056 12.236848,-4.9238601 9.0996094,-9.1972656 8.4053478,-10.142957 8.3548579,-11.358156 8.4980469,-12.666016 c 0.1431889,-1.307859 0.482797,-2.679881 0.4863281,-3.904296 4.94e-4,-4.155107 -3.7845421,-7.496339 -8.41015625,-7.496094 z m -0.14257812,3.572265 c 0.54263737,1.6e-5 9.9803e-4,-0.02551 0.54101562,0.02734 0.54001755,0.05286 0.004922,-0.02706 0.53710935,0.07813 0.532187,0.105186 0.00812,-0.02564 0.5273438,0.13086 0.519222,0.156496 0.00852,-0.02465 0.5097656,0.18164 0.5012498,0.206292 0.011789,-0.02362 0.4902344,0.230469 0.4784456,0.254092 0.013812,-0.02209 0.4648437,0.277344 0.451032,0.299434 0.016271,-0.02157 0.4355469,0.320312 0.4192758,0.341883 0.018858,-0.0197 0.4023437,0.361328 0.3834858,0.381029 0.019272,-0.01611 0.3632813,0.400391 0.3440089,0.416498 0.022991,-0.01631 0.3242187,0.431641 0.3012274,0.447951 0.02179,-0.0122 0.2773438,0.46289 0.2555541,0.475088 0.024993,-0.01132 0.2324219,0.486328 0.2074293,0.497649 0.024325,-0.0076 0.1816406,0.507813 0.1573159,0.51542 0.027118,-0.0067 0.1328125,0.521484 0.105695,0.528234 0.025063,-0.0028 0.078125,0.533203 0.053062,0.535967 0.027424,-0.0014 0.027344,0.53711 -1.042e-4,0.538586 0.025893,0.0011 -0.027344,0.537109 -0.053237,0.535989 0.027736,0.005 -0.078125,0.533203 -0.1058606,0.52824 0.024658,0.0061 -0.1328125,0.521484 -0.1574704,0.515415 0.025931,0.01018 -0.1816406,0.507813 -0.2075719,0.497632 0.023262,0.01126 -0.2324219,0.486328 -0.2556842,0.475063 0.022048,0.01302 -0.2792969,0.460938 -0.3013448,0.44792 0.021848,0.01713 -0.3222656,0.433593 -0.3441138,0.416464 0.020297,0.01745 -0.3632813,0.398438 -0.3835785,0.380992 0.017014,0.01948 -0.4023437,0.361328 -0.4193572,0.341845 0.015556,0.02091 -0.4355469,0.320312 -0.4511029,0.299399 0.013663,0.02329 -0.4648437,0.277344 -0.4785073,0.25406 0.011069,0.0242 -0.4902344,0.230469 -0.5013035,0.2062648 0.00755,0.025166 -0.5117187,0.1816406 -0.5192696,0.156475 0.00684,0.025688 -0.5253907,0.1308594 -0.53222976,0.1051711 0.00295,0.027229 -0.53710935,0.080078 -0.54005763,0.052849 0.001661,0.025375 -0.54101562,0.025391 -0.54267649,-1.56e-5 -9.58e-4,0.027459 -0.54101563,-0.025391 -0.54005763,-0.052849 -0.00488,0.025093 -0.53710937,-0.080078 -0.53222983,-0.1051711 -0.006121,0.025616 -0.52539063,-0.1308594 -0.5192695,-0.156475 -0.010415,0.024624 -0.5117187,-0.1816406 -0.5013036,-0.206265 -0.011727,0.023591 -0.4902344,-0.230469 -0.4785073,-0.254059 -0.013741,0.02205 -0.4648438,-0.277344 -0.4511029,-0.299398 -0.01619,0.02153 -0.4355469,-0.320312 -0.4193571,-0.341845 -0.018765,0.01966 -0.4023437,-0.361328 -0.3835786,-0.380992 -0.019167,0.01803 -0.3632813,-0.398438 -0.3441138,-0.416463 -0.020921,0.01433 -0.3222656,-0.433593 -0.3013448,-0.447921 -0.023613,0.01412 -0.2792968,-0.460938 -0.2556842,-0.475063 -0.02485,0.0113 -0.2324219,-0.486328 -0.2075719,-0.497632 -0.02417,0.0076 -0.1816406,-0.507813 -0.1574704,-0.515414 -0.026952,0.0068 -0.1328125,-0.521484 -0.1058606,-0.52824 -0.024888,0.0028 -0.078125,-0.533203 -0.053237,-0.535989 -0.02724,0.0015 -0.027344,-0.537109 -7.98e-5,-0.538548 -0.025718,-0.0011 0.027344,-0.53711 0.053062,-0.535967 -0.02757,-0.005 0.078125,-0.533203 0.1056949,-0.528233 -0.024503,-0.0061 0.1328125,-0.521484 0.1573158,-0.51542 -0.025789,-0.01016 0.1816406,-0.507813 0.2074293,-0.497648 -0.023132,-0.01124 0.2324219,-0.486328 0.255554,-0.475088 -0.023884,-0.01494 0.2773437,-0.46289 0.3012273,-0.447952 -0.01979,-0.01514 0.3242187,-0.431641 0.344009,-0.416499 -0.020204,-0.01936 0.3632813,-0.400391 0.3834857,-0.381029 -0.016932,-0.01945 0.4023437,-0.361328 0.4192758,-0.341882 -0.015485,-0.02088 0.4355469,-0.320312 0.451032,-0.299435 -0.013602,-0.02325 0.4648438,-0.277344 0.4784456,-0.254092 -0.011015,-0.02418 0.4902344,-0.230469 0.5012497,-0.206292 -0.00946,-0.02514 0.5097656,-0.18164 0.51922205,-0.156497 -0.00484,-0.02567 0.52734373,-0.13086 0.53218694,-0.105186 -0.002908,-0.02527 0.53710937,-0.07813 0.54001759,-0.05286 -0.001622,-0.02733 0.54101563,-0.02734 z"
       inkscape:label="upper_outline" />
    <path
       style="fill:#35b9ef;fill-opacity:1;fill-rule:evenodd;stroke-width:0.3;stroke-linecap:square"
       sodipodi:type="inkscape:offset"
       inkscape:radius="0.21451072"
       inkscape:original="M -11.824219 3.1601562 C -11.824042 8.9269583 -10.308593 15.102888 -6.3203125 17.603516 L -9.9941406 20.201172 L 11.238281 20.429688 L 8.0664062 17.613281 C 12.042821 15.108111 13.167792 8.9164624 13.167969 3.1601562 L -11.824219 3.1601562 z "
       xlink:href="#path1"
       id="path64"
       inkscape:href="#path1"
       d="m -11.824219,2.9453125 a 0.21453218,0.21453218 0 0 0 -0.214844,0.2148438 c 1.75e-4,5.6804188 1.456846,11.7626577 5.3632818,14.4316407 l -3.4414068,2.433594 a 0.21453218,0.21453218 0 0 0 0.1210942,0.390625 l 21.2324218,0.228515 a 0.21453218,0.21453218 0 0 0 0.144531,-0.375 L 8.4101563,17.630859 c 1.9122887,-1.309212 3.1475717,-3.453883 3.9042967,-5.96289 0.787404,-2.6107266 1.068271,-5.6156908 1.06836,-8.5078127 A 0.21453218,0.21453218 0 0 0 13.167969,2.9453125 Z"
       inkscape:label="lower_outline" />
    <g
       id="g103"
       inkscape:label="UPPER_DOLL"
       transform="translate(0,-0.09984499)">
      <g
         id="g64"
         inkscape:label="face"
         transform="translate(-0.05400859,0.11590635)">
        <ellipse
           style="fill:#f4e3d7;fill-opacity:1;fill-rule:evenodd;stroke-width:0.3;stroke-linecap:square"
           id="path3"
           cx="0.41772461"
           cy="-15.043106"
           rx="5.7931366"
           ry="5.7550125" />
        <path
           style="fill:#c87137;stroke:none;stroke-width:1px;stroke-linecap:butt;stroke-linejoin:miter;stroke-opacity:1"
           d="m -4.4510428,-15.992209 c 1.4027071,-1.141247 3.0724896,-2.043608 4.0780236,-0.07407 -1.223584,-1.712903 -2.9153398,-0.633629 -4.0780236,0.07407 z"
           id="path23"
           sodipodi:nodetypes="ccc" />
        <path
           style="fill:#c87137;stroke:none;stroke-width:1px;stroke-linecap:butt;stroke-linejoin:miter;stroke-opacity:1"
           d="m 5.2801536,-15.989677 c -1.4027071,-1.141247 -3.0724896,-2.043608 -4.0780236,-0.07407 1.223584,-1.712903 2.9153398,-0.633629 4.0780236,0.07407 z"
           id="path43"
           sodipodi:nodetypes="ccc" />
        <path
           id="path47"
           style="fill:#b04600;fill-rule:evenodd;stroke-width:0.3;stroke-linecap:square"
           d="m 0.42505482,-21.276266 c -4.56732522,0.01591 -7.57386832,4.510849 -5.60949652,8.459796 0.5059841,-2.513225 1.875225,-3.274902 3.0985042,-3.910042 0.6116396,-0.317571 1.22754743,-0.588655 1.734375,-1.017579 0.36680138,-0.31042 0.66530169,-0.712926 0.8515625,-1.251953 0.21168094,0.525007 0.47629883,0.965071 0.8203125,1.275391 0.4841026,0.436687 1.0520225,0.719574 1.6171875,1.042969 1.1303301,0.646788 2.43091,1.570748 3.0847149,4.06754 1.2916201,-4.504889 -0.8483414,-8.56629 -5.59716008,-8.666122 z"
           sodipodi:nodetypes="ccsscsscc" />
        <path
           id="ellipse4"
           style="fill:#ff9955;fill-opacity:1;fill-rule:evenodd;stroke-width:0.3;stroke-linecap:square"
           d="m 0.41796875,-21.248047 c -3.35459445,8.8e-5 -6.07403595,2.778116 -6.07421875,6.205078 0.00546,0.753194 0.1451097,1.499079 0.4121094,2.201172 1.0351742,-5.141713 5.23089262,-3.42055 5.70147495,-6.859169 0.74150455,3.473176 4.27585435,1.806855 5.60907185,6.898232 0.2762724,-0.713435 0.4206403,-1.473022 0.4257813,-2.240235 -1.828e-4,-3.426962 -2.7196243,-6.20499 -6.07421875,-6.205078 z"
           sodipodi:nodetypes="ccccccc" />
        <g
           id="g56">
          <path
             style="fill:#b04600;fill-rule:evenodd;stroke-width:0.25973;stroke-linecap:square"
             d="m 2.0384954,-18.478287 c 0.3709542,0.254681 0.8223823,0.657569 1.2301378,0.872638 1.0192841,0.537617 1.9194031,1.437359 2.5089774,3.512717 -0.4175553,-1.98205 -1.8133337,-3.82499 -3.7391152,-4.385355 z"
             id="path54"
             sodipodi:nodetypes="cscc" />
          <path
             style="fill:#b04600;fill-rule:evenodd;stroke-width:0.3;stroke-linecap:square"
             d="m -5.3503127,-13.315995 c 0.8629943,-1.802993 1.6769534,-3.026058 2.8853736,-3.83534 0.517487,-0.268686 1.2944444,-0.487217 1.74939339,-0.813097 -2.28681179,0.533968 -3.97687169,2.253852 -4.63476699,4.648437 z"
             id="path49"
             sodipodi:nodetypes="cccc" />
          <path
             style="fill:#b04600;fill-rule:evenodd;stroke-width:0.25973;stroke-linecap:square"
             d="m 2.1819269,-17.88883 c 0.3709542,0.254681 0.8223823,0.657569 1.2301378,0.872638 1.0192841,0.537617 1.9194031,1.437359 2.5089774,3.512717 -0.4175553,-1.98205 -1.8133337,-3.82499 -3.7391152,-4.385355 z"
             id="path55"
             sodipodi:nodetypes="cscc" />
          <path
             style="fill:#b04600;fill-rule:evenodd;stroke-width:0.3;stroke-linecap:square"
             d="m -5.3991923,-13.764734 c 0.8629943,-1.802993 1.6769534,-3.026058 2.8853736,-3.83534 0.517487,-0.268686 1.2944444,-0.487217 1.74939344,-0.813097 -2.28681184,0.533968 -3.97687174,2.253852 -4.63476704,4.648437 z"
             id="path56"
             sodipodi:nodetypes="cccc" />
        </g>
        <path
           style="fill:#000000;stroke:none;stroke-width:1.06669px;stroke-linecap:butt;stroke-linejoin:miter;stroke-opacity:1"
           d="m -4.190043,-14.637122 c 0.678264,-0.929943 3.19463131,-3.353035 3.52277206,0.270681 -1.11633286,0.584732 -2.49540306,0.238233 -3.52277206,-0.270681 z"
           id="path9"
           sodipodi:nodetypes="ccc" />
        <path
           style="fill:#f9f9f9;stroke:none;stroke-width:1px;stroke-linecap:butt;stroke-linejoin:miter;stroke-opacity:1"
           d="m -3.9947215,-14.661885 c 0.6688493,-0.838017 2.8686193,-3.103637 3.31115896,0.276993 -0.86482266,0.542196 -2.34002826,0.212424 -3.31115896,-0.276993 z"
           id="path4"
           sodipodi:nodetypes="ccc" />
        <g
           id="g7"
           clip-path="url(#clipPath7)"
           transform="translate(-0.13334656,0.09466553)">
          <path
             style="fill:#007795;fill-opacity:1;fill-rule:evenodd;stroke:none;stroke-width:0.336964;stroke-linecap:square"
             sodipodi:type="inkscape:offset"
             inkscape:radius="0.074459165"
             inkscape:original="M -1.9355469 -16.142578 A 0.88205737 0.95243245 0 0 0 -2.8183594 -15.189453 A 0.88205737 0.95243245 0 0 0 -1.9355469 -14.236328 A 0.88205737 0.95243245 0 0 0 -1.0546875 -15.189453 A 0.88205737 0.95243245 0 0 0 -1.9355469 -16.142578 z "
             xlink:href="#path5"
             id="path6"
             inkscape:href="#path5"
             d="m -1.9355469,-16.216797 c -0.2522244,-2.33e-4 -0.5030051,0.11198 -0.6796875,0.302734 -0.1766823,0.190755 -0.2775241,0.456941 -0.2773437,0.72461 -1.804e-4,0.267668 0.1006614,0.533855 0.2773437,0.724609 0.1766824,0.190755 0.4274631,0.302968 0.6796875,0.302735 0.2518692,-3.7e-4 0.5014996,-0.112042 0.6777344,-0.302735 0.1762348,-0.190693 0.27752398,-0.457317 0.27734375,-0.724609 1.8023e-4,-0.267292 -0.10110895,-0.533916 -0.27734375,-0.72461 -0.1762348,-0.190693 -0.4258652,-0.302365 -0.6777344,-0.302734 z" />
          <ellipse
             style="fill:#52c4ff;fill-opacity:1;fill-rule:evenodd;stroke:none;stroke-width:0.336964;stroke-linecap:square"
             id="path5"
             cx="-1.9361575"
             cy="-15.189357"
             rx="0.88205737"
             ry="0.95243245" />
          <ellipse
             style="fill:#000000;fill-opacity:1;fill-rule:evenodd;stroke:none;stroke-width:0.216622;stroke-linecap:square"
             id="ellipse5"
             cx="-1.9474771"
             cy="-15.158801"
             rx="0.6039421"
             ry="0.57487488" />
          <ellipse
             style="fill:#ffffff;fill-opacity:1;fill-rule:evenodd;stroke:none;stroke-width:0.112881;stroke-linecap:square"
             id="ellipse6"
             cx="-1.7089016"
             cy="-15.390467"
             rx="0.30679601"
             ry="0.30729431" />
        </g>
        <path
           style="fill:#000000;stroke:none;stroke-width:0.400462px;stroke-linecap:butt;stroke-linejoin:miter;stroke-opacity:1"
           d="m -4.1128741,-14.628287 c -0.3110923,-0.145578 -0.6496185,-0.112825 -0.8848365,-0.690719 0.2587468,0.507354 0.6015156,0.473574 0.9529516,0.602912 z"
           id="path10"
           sodipodi:nodetypes="cccc" />
        <path
           style="fill:#000000;stroke:none;stroke-width:0.360499px;stroke-linecap:butt;stroke-linejoin:miter;stroke-opacity:1"
           d="m -3.9955127,-14.787087 c -0.3642363,-0.0768 -0.5817298,-0.394056 -0.7523703,-0.677741 0.2201057,0.240139 0.4541262,0.587451 0.8379095,0.600386 z"
           id="path11"
           sodipodi:nodetypes="cccc" />
        <path
           style="fill:#000000;stroke:none;stroke-width:0.352483px;stroke-linecap:butt;stroke-linejoin:miter;stroke-opacity:1"
           d="m -3.896976,-14.959814 c -0.2679343,-0.130951 -0.3716367,-0.445741 -0.5543611,-0.722112 0.2211665,0.205924 0.3298649,0.549564 0.6876873,0.616867 z"
           id="path12"
           sodipodi:nodetypes="cccc" />
        <path
           style="fill:#000000;stroke:none;stroke-width:0.352483px;stroke-linecap:butt;stroke-linejoin:miter;stroke-opacity:1"
           d="m -3.6645781,-15.169567 c -0.2679343,-0.130951 -0.3991402,-0.404832 -0.5818646,-0.681203 0.2211665,0.205924 0.3475908,0.47986 0.6502718,0.596203 z"
           id="path13"
           sodipodi:nodetypes="cccc" />
        <path
           style="fill:#000000;stroke:none;stroke-width:0.290113px;stroke-linecap:butt;stroke-linejoin:miter;stroke-opacity:1"
           d="m -3.4736742,-15.369897 c -0.2123734,-0.111917 -0.2927417,-0.355248 -0.437575,-0.591448 0.1753038,0.175993 0.2788335,0.406661 0.5187483,0.506093 z"
           id="path14"
           sodipodi:nodetypes="cccc" />
        <path
           style="fill:#000000;stroke:none;stroke-width:0.290113px;stroke-linecap:butt;stroke-linejoin:miter;stroke-opacity:1"
           d="m -3.3071127,-15.533241 c -0.2123734,-0.111917 -0.2200679,-0.366498 -0.3649012,-0.602698 0.1753038,0.175993 0.2427869,0.443585 0.4827017,0.543017 z"
           id="path15"
           sodipodi:nodetypes="cccc" />
        <path
           style="fill:#000000;stroke:none;stroke-width:0.2366px;stroke-linecap:butt;stroke-linejoin:miter;stroke-opacity:1"
           d="m -3.0998806,-15.699251 c -0.1743442,-0.09067 -0.2092069,-0.294066 -0.3281053,-0.485433 0.1439126,0.142588 0.185509,0.315206 0.3824629,0.395765 z"
           id="path16"
           sodipodi:nodetypes="cccc" />
        <path
           style="fill:#000000;stroke:none;stroke-width:0.170761px;stroke-linecap:butt;stroke-linejoin:miter;stroke-opacity:1"
           d="m -2.9087524,-15.847337 c -0.1239664,-0.06642 -0.2013397,-0.246926 -0.2858817,-0.387116 0.1023282,0.104456 0.2197329,0.262274 0.3597758,0.32129 z"
           id="path17"
           sodipodi:nodetypes="cccc" />
        <path
           style="fill:#000000;stroke:none;stroke-width:0.170761px;stroke-linecap:butt;stroke-linejoin:miter;stroke-opacity:1"
           d="m -2.6877997,-15.958082 c -0.1239664,-0.06642 -0.1708845,-0.185074 -0.2554265,-0.325264 0.1023282,0.104456 0.1773997,0.181654 0.3174426,0.24067 z"
           id="path18"
           sodipodi:nodetypes="cccc" />
        <path
           style="fill:#000000;stroke:none;stroke-width:0.257098px;stroke-linecap:butt;stroke-linejoin:miter;stroke-opacity:1"
           d="m -4.1303144,-14.65349 c -0.2560107,0.07291 -0.3550982,0.248184 -0.529691,0.402064 0.2113242,-0.114656 0.3151853,-0.305991 0.6570839,-0.343465 z"
           id="path19"
           sodipodi:nodetypes="cccc" />
        <path
           style="fill:#000000;stroke:none;stroke-width:0.186145px;stroke-linecap:butt;stroke-linejoin:miter;stroke-opacity:1"
           d="m -3.9461542,-14.558722 c -0.1918343,0.05101 -0.2660827,0.173625 -0.3969089,0.281277 0.1583498,-0.08021 0.2361752,-0.214066 0.4923672,-0.240282 z"
           id="path20"
           sodipodi:nodetypes="cccc" />
        <path
           style="fill:#000000;stroke:none;stroke-width:0.190088px;stroke-linecap:butt;stroke-linejoin:miter;stroke-opacity:1"
           d="m -3.7664302,-14.509448 c -0.1681109,0.0607 -0.2331773,0.206609 -0.3478246,0.334712 0.1387672,-0.09545 0.2069682,-0.254733 0.4314779,-0.285929 z"
           id="path21"
           sodipodi:nodetypes="cccc" />
        <path
           style="fill:#000000;stroke:none;stroke-width:0.135047px;stroke-linecap:butt;stroke-linejoin:miter;stroke-opacity:1"
           d="m -3.5485226,-14.404884 c -0.1014149,0.05079 -0.140667,0.172864 -0.2098294,0.280044 0.083713,-0.07986 0.1248561,-0.213128 0.2602943,-0.239229 z"
           id="path22"
           sodipodi:nodetypes="cccc" />
        <ellipse
           style="mix-blend-mode:normal;fill:#e9afaf;fill-opacity:1;fill-rule:evenodd;stroke:none;stroke-width:0.3;stroke-linecap:square;filter:url(#filter25)"
           id="path25"
           cx="-2.7197008"
           cy="-12.167385"
           rx="0.90645885"
           ry="0.80015182" />
        <path
           style="fill:#000000;stroke:none;stroke-width:1.06669px;stroke-linecap:butt;stroke-linejoin:miter;stroke-opacity:1"
           d="m 5.0191538,-14.63459 c -0.678264,-0.929943 -3.1946313,-3.353035 -3.5227721,0.270681 1.1163329,0.584732 2.4954031,0.238233 3.5227721,-0.270681 z"
           id="path26"
           sodipodi:nodetypes="ccc" />
        <path
           style="fill:#f9f9f9;stroke:none;stroke-width:1px;stroke-linecap:butt;stroke-linejoin:miter;stroke-opacity:1"
           d="M 4.8238323,-14.659353 C 4.154983,-15.49737 1.955213,-17.76299 1.5126733,-14.38236 c 0.8648227,0.542196 2.3400283,0.212424 3.311159,-0.276993 z"
           id="path27"
           sodipodi:nodetypes="ccc" />
        <g
           id="g30"
           clip-path="url(#clipPath7)"
           transform="matrix(-1,0,0,1,0.9624574,0.09719849)">
          <path
             style="fill:#007795;fill-opacity:1;fill-rule:evenodd;stroke:none;stroke-width:0.336964;stroke-linecap:square"
             sodipodi:type="inkscape:offset"
             inkscape:radius="0.074459165"
             inkscape:original="M -1.9355469 -16.142578 A 0.88205737 0.95243245 0 0 0 -2.8183594 -15.189453 A 0.88205737 0.95243245 0 0 0 -1.9355469 -14.236328 A 0.88205737 0.95243245 0 0 0 -1.0546875 -15.189453 A 0.88205737 0.95243245 0 0 0 -1.9355469 -16.142578 z "
             xlink:href="#path5"
             id="path28"
             inkscape:href="#path5"
             d="m -1.9355469,-16.216797 c -0.2522244,-2.33e-4 -0.5030051,0.11198 -0.6796875,0.302734 -0.1766823,0.190755 -0.2775241,0.456941 -0.2773437,0.72461 -1.804e-4,0.267668 0.1006614,0.533855 0.2773437,0.724609 0.1766824,0.190755 0.4274631,0.302968 0.6796875,0.302735 0.2518692,-3.7e-4 0.5014996,-0.112042 0.6777344,-0.302735 0.1762348,-0.190693 0.27752398,-0.457317 0.27734375,-0.724609 1.8023e-4,-0.267292 -0.10110895,-0.533916 -0.27734375,-0.72461 -0.1762348,-0.190693 -0.4258652,-0.302365 -0.6777344,-0.302734 z" />
          <ellipse
             style="fill:#52c4ff;fill-opacity:1;fill-rule:evenodd;stroke:none;stroke-width:0.336964;stroke-linecap:square"
             id="ellipse28"
             cx="-1.9361575"
             cy="-15.189357"
             rx="0.88205737"
             ry="0.95243245" />
          <ellipse
             style="fill:#000000;fill-opacity:1;fill-rule:evenodd;stroke:none;stroke-width:0.216622;stroke-linecap:square"
             id="ellipse29"
             cx="-1.9474771"
             cy="-15.158801"
             rx="0.6039421"
             ry="0.57487488" />
          <ellipse
             style="fill:#ffffff;fill-opacity:1;fill-rule:evenodd;stroke:none;stroke-width:0.112881;stroke-linecap:square"
             id="ellipse30"
             cx="-1.7089016"
             cy="-15.390467"
             rx="0.30679601"
             ry="0.30729431" />
        </g>
        <path
           style="fill:#000000;stroke:none;stroke-width:0.400462px;stroke-linecap:butt;stroke-linejoin:miter;stroke-opacity:1"
           d="m 4.9419849,-14.625755 c 0.3110923,-0.145578 0.6496185,-0.112825 0.8848365,-0.690719 -0.2587468,0.507354 -0.6015156,0.473574 -0.9529516,0.602912 z"
           id="path30"
           sodipodi:nodetypes="cccc" />
        <path
           style="fill:#000000;stroke:none;stroke-width:0.360499px;stroke-linecap:butt;stroke-linejoin:miter;stroke-opacity:1"
           d="m 4.8246235,-14.784555 c 0.3642363,-0.0768 0.5817298,-0.394056 0.7523703,-0.677741 -0.2201057,0.240139 -0.4541262,0.587451 -0.8379095,0.600386 z"
           id="path31"
           sodipodi:nodetypes="cccc" />
        <path
           style="fill:#000000;stroke:none;stroke-width:0.352483px;stroke-linecap:butt;stroke-linejoin:miter;stroke-opacity:1"
           d="m 4.7260868,-14.957282 c 0.2679343,-0.130951 0.3716367,-0.445741 0.5543611,-0.722112 -0.2211665,0.205924 -0.3298649,0.549564 -0.6876873,0.616867 z"
           id="path32"
           sodipodi:nodetypes="cccc" />
        <path
           style="fill:#000000;stroke:none;stroke-width:0.352483px;stroke-linecap:butt;stroke-linejoin:miter;stroke-opacity:1"
           d="m 4.4936889,-15.167035 c 0.2679343,-0.130951 0.3991402,-0.404832 0.5818646,-0.681203 -0.2211665,0.205924 -0.3475908,0.47986 -0.6502718,0.596203 z"
           id="path33"
           sodipodi:nodetypes="cccc" />
        <path
           style="fill:#000000;stroke:none;stroke-width:0.290113px;stroke-linecap:butt;stroke-linejoin:miter;stroke-opacity:1"
           d="m 4.302785,-15.367365 c 0.2123734,-0.111917 0.2927417,-0.355248 0.437575,-0.591448 -0.1753038,0.175993 -0.2788335,0.406661 -0.5187483,0.506093 z"
           id="path34"
           sodipodi:nodetypes="cccc" />
        <path
           style="fill:#000000;stroke:none;stroke-width:0.290113px;stroke-linecap:butt;stroke-linejoin:miter;stroke-opacity:1"
           d="m 4.1362235,-15.530709 c 0.2123734,-0.111917 0.2200679,-0.366498 0.3649012,-0.602698 -0.1753038,0.175993 -0.2427869,0.443585 -0.4827017,0.543017 z"
           id="path35"
           sodipodi:nodetypes="cccc" />
        <path
           style="fill:#000000;stroke:none;stroke-width:0.2366px;stroke-linecap:butt;stroke-linejoin:miter;stroke-opacity:1"
           d="m 3.9289914,-15.696719 c 0.1743442,-0.09067 0.2092069,-0.294066 0.3281053,-0.485433 -0.1439126,0.142588 -0.185509,0.315206 -0.3824629,0.395765 z"
           id="path36"
           sodipodi:nodetypes="cccc" />
        <path
           style="fill:#000000;stroke:none;stroke-width:0.170761px;stroke-linecap:butt;stroke-linejoin:miter;stroke-opacity:1"
           d="m 3.7378632,-15.844805 c 0.1239664,-0.06642 0.2013397,-0.246926 0.2858817,-0.387116 -0.1023282,0.104456 -0.2197329,0.262274 -0.3597758,0.32129 z"
           id="path37"
           sodipodi:nodetypes="cccc" />
        <path
           style="fill:#000000;stroke:none;stroke-width:0.170761px;stroke-linecap:butt;stroke-linejoin:miter;stroke-opacity:1"
           d="m 3.5169105,-15.95555 c 0.1239664,-0.06642 0.1708845,-0.185074 0.2554265,-0.325264 -0.1023282,0.104456 -0.1773997,0.181654 -0.3174426,0.24067 z"
           id="path38"
           sodipodi:nodetypes="cccc" />
        <path
           style="fill:#000000;stroke:none;stroke-width:0.257098px;stroke-linecap:butt;stroke-linejoin:miter;stroke-opacity:1"
           d="m 4.9594252,-14.650958 c 0.2560107,0.07291 0.3550982,0.248184 0.529691,0.402064 -0.2113242,-0.114656 -0.3151853,-0.305991 -0.6570839,-0.343465 z"
           id="path39"
           sodipodi:nodetypes="cccc" />
        <path
           style="fill:#000000;stroke:none;stroke-width:0.186145px;stroke-linecap:butt;stroke-linejoin:miter;stroke-opacity:1"
           d="m 4.775265,-14.55619 c 0.1918343,0.05101 0.2660827,0.173625 0.3969089,0.281277 -0.1583498,-0.08021 -0.2361752,-0.214066 -0.4923672,-0.240282 z"
           id="path40"
           sodipodi:nodetypes="cccc" />
        <path
           style="fill:#000000;stroke:none;stroke-width:0.190088px;stroke-linecap:butt;stroke-linejoin:miter;stroke-opacity:1"
           d="m 4.595541,-14.506916 c 0.1681109,0.0607 0.2331773,0.206609 0.3478246,0.334712 -0.1387672,-0.09545 -0.2069682,-0.254733 -0.4314779,-0.285929 z"
           id="path41"
           sodipodi:nodetypes="cccc" />
        <path
           style="fill:#000000;stroke:none;stroke-width:0.135047px;stroke-linecap:butt;stroke-linejoin:miter;stroke-opacity:1"
           d="m 4.3776334,-14.402352 c 0.1014149,0.05079 0.140667,0.172864 0.2098294,0.280044 -0.083713,-0.07986 -0.1248561,-0.213128 -0.2602943,-0.239229 z"
           id="path42"
           sodipodi:nodetypes="cccc" />
        <ellipse
           style="mix-blend-mode:normal;fill:#e9afaf;fill-opacity:1;fill-rule:evenodd;stroke:none;stroke-width:0.3;stroke-linecap:square;filter:url(#filter25)"
           id="ellipse43"
           cx="-2.5863543"
           cy="-12.262051"
           rx="0.90645885"
           ry="0.80015182"
           transform="matrix(-1,0,0,1,0.9624574,0.09719849)" />
        <path
           style="fill:#dba47c;fill-opacity:1;stroke:none;stroke-width:0.735626px;stroke-linecap:butt;stroke-linejoin:miter;stroke-opacity:1"
           d="m 0.01510966,-12.593862 c 0.43523509,-0.364644 0.59290046,-0.361345 0.92422081,-0.03992 -0.224014,-0.549719 -0.51815329,-0.66034 -0.92422081,0.03992 z"
           id="path44"
           sodipodi:nodetypes="ccc" />
        <path
           style="fill:#e91c16;fill-opacity:1;stroke:none;stroke-width:0.897142px;stroke-linecap:butt;stroke-linejoin:miter;stroke-opacity:1"
           d="m -0.10741936,-10.968145 c 0.61055969,0.547727 0.83403104,0.539052 1.24455716,0.0064 -0.32336527,0.91692 -0.75041173,1.0433122 -1.24455716,-0.0064 z"
           id="path45"
           sodipodi:nodetypes="ccc" />
        <path
           style="fill:#e91c16;fill-opacity:1;stroke:none;stroke-width:0.850111px;stroke-linecap:butt;stroke-linejoin:miter;stroke-opacity:1"
           d="m -0.10741936,-10.968145 c 0.67589495,0.382236 0.88811418,0.28426 1.23866436,-0.03978 -0.35484626,-0.458773 -0.49083422,-0.208081 -0.57662604,-0.03324 -0.154251,-0.0806 -0.0146496,-0.459012 -0.66203832,0.07302 z"
           id="path46"
           sodipodi:nodetypes="cccc" />
        <path
           style="fill:#b04600;fill-rule:evenodd;stroke-width:0.3;stroke-linecap:square"
           d="m 1.1658519,-20.546968 c 2.5473153,6.6e-5 4.3454303,2.424418 5.2477353,4.695895 -0.9338491,-2.03167 -2.5721691,-4.502873 -5.2477353,-4.695895 z"
           id="path50"
           sodipodi:nodetypes="ccc" />
        <path
           style="fill:#b04600;fill-rule:evenodd;stroke-width:0.3;stroke-linecap:square"
           d="m 0.41018191,-20.755277 c -4.37524201,0.01524 -7.09435391,4.093195 -5.60733691,7.911544 -0.163111,-0.559385 -0.3339678,-1.109729 -0.3382418,-1.695066 -0.3718959,-3.479197 2.5510005,-6.193838 5.93971971,-6.189134"
           id="path48"
           sodipodi:nodetypes="cccc" />
        <path
           style="fill:#b04600;fill-rule:evenodd;stroke-width:0.259461;stroke-linecap:square"
           d="m 0.2497603,-20.47861 c -3.9142526,-0.01639 -6.6064224,3.350084 -5.5256037,6.786023 -0.1478036,-0.462906 -0.2761601,-0.999064 -0.1518799,-1.708418 1.64e-4,-2.844716 2.6906304,-4.984881 5.62036789,-5.112417"
           id="path51"
           sodipodi:nodetypes="cccc" />
        <path
           style="fill:#b04600;fill-rule:evenodd;stroke-width:0.3;stroke-linecap:square"
           d="m 1.4514282,-20.752875 c 2.7197428,0.370568 3.848484,1.924596 4.7012369,4.089598 -1.019068,-1.99998 -2.1725001,-3.916712 -4.7012369,-4.089598 z"
           id="path53"
           sodipodi:nodetypes="ccc" />
      </g>
      <path
         id="path2"
         style="fill:url(#radialGradient57);fill-opacity:1;fill-rule:evenodd;stroke-width:0.3;stroke-linecap:square"
         inkscape:label="upper"
         d="m 0.47333516,-23.798155 c -4.49651156,7.19e-4 -8.14109946,3.236952 -8.14062486,7.228515 0.00391,2.408245 0.9543906,5.967063 -0.5214844,8.1347648 -2.9485119,4.3306482 -3.6772299,5.6168123 -3.6894539,11.7109377 H 13.11396 C 13.113526,-2.8950024 11.918227,-4.7689274 8.7838821,-9.0383902 7.2742917,-11.094686 8.6091416,-14.221496 8.6159134,-16.56964 8.616388,-20.56188 4.9706097,-23.798393 0.47333516,-23.798155 Z m -0.14257813,3.037109 a 5.7931366,5.7550125 0 0 1 5.79296887,5.755859 5.7931366,5.7550125 0 0 1 -5.79296887,5.7539058 5.7931366,5.7550125 0 0 1 -5.79296863,-5.7539058 5.7931366,5.7550125 0 0 1 5.79296863,-5.755859 z" />
      <g
         id="g100"
         inkscape:label="line_art_upper">
        <g
           id="g101"
           inkscape:label="upper_line_art">
          <path
             id="path65"
             style="fill:#35b9ef;fill-opacity:1;fill-rule:evenodd;stroke:none;stroke-width:0.3;stroke-linecap:square"
             d="m 0.33856953,-20.938781 a 6.1006203,5.8714218 0 0 0 -6.09960923,5.871094 6.1006203,5.8714218 0 0 0 6.09960923,5.8730468 6.1006203,5.8714218 0 0 0 6.10156257,-5.8730468 6.1006203,5.8714218 0 0 0 -6.10156257,-5.871094 z m -0.0546875,0.41211 A 5.7362137,5.6126709 0 0 1 6.0202103,-14.91339 5.7362137,5.6126709 0 0 1 0.28388203,-9.3001092 5.7362137,5.6126709 0 0 1 -5.452446,-14.91339 5.7362137,5.6126709 0 0 1 0.28388203,-20.526671 Z" />
          <path
             style="fill:#35b9ef;fill-opacity:1;stroke:none;stroke-width:1px;stroke-linecap:butt;stroke-linejoin:miter;stroke-opacity:1"
             d="m -6.322455,-8.9418937 c 5.1960427,2.1161563 9.9881934,1.454564 13.9579673,-0.2789492 -5.4722807,2.1869349 -9.958228,1.7683188 -13.9579673,0.2789492 z"
             id="path83"
             sodipodi:nodetypes="ccc" />
          <path
             style="color:#000000;fill:#35b9ef;fill-opacity:1;fill-rule:evenodd;stroke-width:0.688299;-inkscape-stroke:none"
             d="m -5.8671143,-7.9631844 c -2.0268269,-0.3944836 -5.7172267,4.647391 -5.3689887,7.66099283 0.123806,1.90601857 1.9523749,2.20478087 3.559508,0.049681 1.3661707,-1.96618043 1.0258976,-4.81370423 -0.883488,-3.52011893 -1.0708181,0.5197673 -0.9780945,2.5409748 -0.449769,2.3180936 -0.5100744,-2.0558177 2.110221,-3.0480378 1.4269981,-0.6028621 -0.3660938,3.02677887 -3.0577481,3.8050429 -3.3057681,1.61783743 0.08721,-3.11407523 1.7293212,-5.63406953 5.0215077,-7.52362383 z"
             id="path85"
             sodipodi:nodetypes="cccccccc" />
          <path
             style="color:#000000;fill:#35b9ef;fill-opacity:1;fill-rule:evenodd;stroke-width:0.688299;-inkscape-stroke:none"
             d="m 6.874873,-8.1320878 c 2.0268272,-0.3944836 5.717227,4.647391 5.368989,7.66099288 C 12.120056,1.4349236 10.291487,1.7336859 8.684354,-0.42141392 7.318183,-2.3875944 7.658456,-5.2351182 9.567842,-3.9415329 c 1.070818,0.5197673 0.978095,2.5409748 0.449769,2.3180936 C 10.527685,-3.679257 7.90739,-4.6714771 8.5906129,-2.2263014 8.9567067,0.80047752 11.648361,1.5787415 11.896381,-0.60846392 11.809171,-3.7225392 10.16706,-6.2425335 6.874873,-8.1320878 Z"
             id="path86"
             sodipodi:nodetypes="cccccccc" />
        </g>
      </g>
      <g
         id="g98"
         inkscape:label="scarf">
        <path
           style="fill:#57c5f2;fill-opacity:1;fill-rule:evenodd;stroke:none;stroke-width:0.174806;stroke-linecap:square"
           sodipodi:type="inkscape:offset"
           inkscape:radius="0.23124181"
           inkscape:original="M 1.5976562 -9.3476562 C 1.3811496 -9.303805 1.1884684 -9.1870768 1.0410156 -8.9726562 C 0.68021166 -8.9943362 0.17594675 -9.2132878 -0.09765625 -8.9023438 C -0.50705125 -9.6156558 -1.6511131 -9.4784545 -2.5175781 -8.5234375 C -3.7772181 -7.5609615 -5.3370947 -6.3865428 -6.6054688 -6.2304688 C -3.2940668 -4.8283037 -0.97986138 -5.4776941 0.22851562 -7.6738281 C 0.36775062 -7.4202831 0.23635488 -7.4818048 0.49804688 -7.4804688 C 0.75776088 -7.4813848 0.69977275 -7.4118194 0.83984375 -7.6621094 C 2.0986447 -5.6441394 4.557785 -4.9700561 7.203125 -6.8613281 C 6.40296 -6.0619151 4.8085706 -7.2053324 3.6035156 -8.4902344 C 3.1101386 -8.9602414 2.2471761 -9.4792101 1.5976562 -9.3476562 z "
           xlink:href="#path88"
           id="path90"
           inkscape:href="#path88"
           d="m 1.5507812,-9.5742188 c -0.2199494,0.044549 -0.4189506,0.1753574 -0.58593745,0.3574219 -0.13816758,-0.018478 -0.30591228,-0.058082 -0.50585937,-0.076172 -0.15873023,-0.01436 -0.33431045,0.022182 -0.5,0.099609 -0.27562684,-0.3060134 -0.69557522,-0.4357984 -1.12890628,-0.3730469 -0.5015819,0.072635 -1.0314267,0.3682905 -1.4882812,0.859375 -1.2585665,0.9616557 -2.8229872,2.1043862 -3.9746094,2.2460938 a 0.23126493,0.23126493 0 0 0 -0.0625,0.4433594 c 1.6853136,0.7136215 3.1404533,0.916786 4.3476562,0.640625 1.0975193,-0.2510697 1.96219589,-0.9236412 2.58593755,-1.9003906 0.0247595,0.010013 0.0510128,0.029136 0.0683594,0.03125 0.0377152,0.0046 0.0557315,0.00296 0.0722656,0.00195 0.0330683,-0.00201 0.0607259,-0.00615 0.1171875,-0.00586 a 0.23126493,0.23126493 0 0 0 0.001953,0 c 0.0546358,-1.927e-4 0.0899393,0.0031 0.12695312,0.00586 0.0370139,0.00276 0.0912692,0.015024 0.17382812,-0.017578 0.0170488,-0.00673 0.0188551,-0.020264 0.0332031,-0.029297 0.65330165,0.9128373 1.55844455,1.5433782 2.63085935,1.7226562 1.1722304,0.1959645 2.5141801,-0.1325576 3.875,-1.1054687 L 7.0390625,-7.0253906 C 6.8856839,-6.8721562 6.7151087,-6.8159202 6.484375,-6.828125 6.2536413,-6.8403298 5.9696515,-6.9345465 5.6640625,-7.0976562 5.0528844,-7.4238757 4.3626136,-8.01814 3.7714844,-8.6484375 a 0.23126493,0.23126493 0 0 0 -0.00781,-0.00977 C 3.4990083,-8.9103303 3.14501,-9.1686848 2.7597656,-9.3535156 2.3745212,-9.5383465 1.9530525,-9.6556949 1.5507812,-9.5742188 Z"
           inkscape:label="scarf" />
        <path
           id="path88"
           style="fill:#ddf3fc;fill-opacity:1;fill-rule:evenodd;stroke:none;stroke-width:0.174806;stroke-linecap:square"
           d="m 3.6030795,-8.4901158 c -0.657836,-0.626676 -1.972884,-1.341006 -2.562695,-0.483324 -0.36080397,-0.02168 -0.86379297,-0.239394 -1.13739597,0.07155 -0.409395,-0.713312 -1.55478003,-0.57739 -2.42124503,0.377627 -1.25964,0.962476 -2.818245,2.137791 -4.086619,2.293865 3.311402,1.402165 5.62557403,0.753132 6.83395103,-1.443002 0.139235,0.253545 0.008,0.191675 0.269692,0.193011 0.259714,-9.16e-4 0.201618,0.06889 0.341689,-0.1814 1.25880097,2.01797 3.71649497,2.691215 6.36183497,0.799943 -0.800165,0.799413 -2.394157,-0.343366 -3.599212,-1.628268 z"
           sodipodi:nodetypes="cccccccccc"
           inkscape:label="scarf" />
        <path
           style="fill:#8fd8f6;fill-opacity:1;stroke:none;stroke-width:1px;stroke-linecap:butt;stroke-linejoin:miter;stroke-opacity:1"
           d="m 8.4902079,-13.532133 c 2.0916391,1.040631 5.3054481,1.433439 6.7743201,-1.425184 l -0.186525,-0.237215 c -1.434323,2.212933 -3.439273,2.381302 -6.5877951,1.662399 z"
           id="path91"
           sodipodi:nodetypes="cccc"
           transform="translate(-15.08099,7.3671532)" />
        <path
           style="fill:#35b9ef;fill-opacity:1;stroke:none;stroke-width:0.130297px;stroke-linecap:butt;stroke-linejoin:miter;stroke-opacity:1"
           d="m -0.13378148,-8.9257355 c 0.0860528,0.7413372 0.0732573,0.8827006 0.49251143,1.511035 -0.68445841,-0.7397114 -0.56205094,-0.5709902 -0.49251143,-1.511035 z"
           id="path92"
           sodipodi:nodetypes="ccc" />
        <path
           style="fill:#35b9ef;fill-opacity:1;stroke:none;stroke-width:0.119279px;stroke-linecap:butt;stroke-linejoin:miter;stroke-opacity:1"
           d="M 1.1189569,-8.8332119 C 1.0329039,-8.2119473 1.2857185,-8.1725178 0.86646436,-7.6459532 1.5509228,-8.2658553 1.1884964,-8.0454239 1.1189569,-8.8332119 Z"
           id="path93"
           sodipodi:nodetypes="ccc" />
        <path
           style="fill:#8fd8f6;fill-opacity:1;stroke:none;stroke-width:1px;stroke-linecap:butt;stroke-linejoin:miter;stroke-opacity:1"
           d="M 7.0684745,-6.6617219 C 5.2153758,-5.6652447 2.7790062,-4.8213761 0.88526233,-7.6013553 l 0.18652497,-0.237215 c 1.4524106,2.2288391 3.1795261,2.187147 5.9966872,1.1768484 z"
           id="path94"
           sodipodi:nodetypes="cccc" />
        <path
           style="fill:#6fcdf4;fill-opacity:1;stroke:none;stroke-width:1px;stroke-linecap:butt;stroke-linejoin:miter;stroke-opacity:1"
           d="m -3.2369131,-6.9746165 c 0.9436084,-0.8856964 1.8297936,-1.4929488 2.52247796,-1.836629 -1.64569186,0.1629117 -1.84023306,0.7389649 -2.52247796,1.836629 z"
           id="path84"
           sodipodi:nodetypes="ccc" />
        <path
           style="fill:#65caf3;fill-opacity:1;stroke:none;stroke-width:0.635673px;stroke-linecap:butt;stroke-linejoin:miter;stroke-opacity:1"
           d="m -3.0812193,-6.7684005 c 0.8046753,-0.4196856 1.5603823,-0.7074311 2.15107861,-0.8702833 -1.40338691,0.077195 -1.56928471,0.3501572 -2.15107861,0.8702833 z"
           id="path95"
           sodipodi:nodetypes="ccc" />
        <path
           style="fill:#7cd2f5;fill-opacity:1;stroke:none;stroke-width:1px;stroke-linecap:butt;stroke-linejoin:miter;stroke-opacity:1"
           d="m 4.6017701,-6.8397142 c -0.9436084,-0.8856964 -1.8297936,-1.4929488 -2.522478,-1.836629 1.6456919,0.1629117 1.8402331,0.7389649 2.522478,1.836629 z"
           id="path96"
           sodipodi:nodetypes="ccc" />
        <path
           style="fill:#7cd2f5;fill-opacity:1;stroke:none;stroke-width:0.635673px;stroke-linecap:butt;stroke-linejoin:miter;stroke-opacity:1"
           d="M 4.4460763,-6.6334982 C 3.641401,-7.0531838 2.885694,-7.3409293 2.2949976,-7.5037815 c 1.403387,0.077195 1.5692848,0.3501572 2.1510787,0.8702833 z"
           id="path97"
           sodipodi:nodetypes="ccc" />
      </g>
      <path
         style="fill:#0d76a2;fill-rule:evenodd;stroke-width:0.3;stroke-linecap:square"
         d="m -4.6085758,3.2352281 c 0,-2.79773115 2.2423234,-5.0657405 5.00836938,-5.0657405 2.76604612,0 5.00836952,2.26800935 5.00836952,5.0657405"
         id="path67"
         inkscape:label="bulb_upper" />
      <g
         id="g97"
         inkscape:label="flower">
        <ellipse
           style="fill:#1ca5cf;fill-opacity:1;fill-rule:evenodd;stroke:none;stroke-width:0.217748;stroke-linecap:square"
           id="path69"
           cx="-0.020829298"
           cy="-0.51033777"
           rx="4.8655515"
           ry="1.7937671"
           transform="matrix(0.97669886,-0.21461439,0.41263243,0.91089762,0,0)" />
        <ellipse
           style="fill:#83d5ee;fill-opacity:1;fill-rule:evenodd;stroke:none;stroke-width:0.160227;stroke-linecap:square"
           id="ellipse69"
           cx="-0.14799379"
           cy="-0.48545387"
           rx="3.6178875"
           ry="1.3061968"
           transform="matrix(0.97787363,-0.20919646,0.42185754,0.90666213,0,0)" />
        <path
           id="path70"
           style="fill:#126b86;fill-opacity:1;fill-rule:evenodd;stroke:none;stroke-width:0.3;stroke-linecap:square"
           d="m -0.23199853,-4.9597811 a 0.34389877,0.41376686 0 0 0 -0.34375003,0.4140625 0.34389877,0.41376686 0 0 0 0.34374999,0.4140625 0.34389877,0.41376686 0 0 0 0.23437505,-0.1113281 c 0.71914081,1.2231749 -0.20874148,2.0549979 -0.0058594,3.44531257 a 1.0082436,1.2523136 75.231718 0 0 -0.29492188,0.044922 1.0082436,1.2523136 75.231718 0 0 -0.34570314,0.14062493 C -1.9789701,-2.0308661 -1.0079529,-3.510813 -2.3980141,-3.9754061 a 0.37974548,0.34162235 0 0 0 0.050781,-0.1699218 0.37974548,0.34162235 0 0 0 -0.3789062,-0.3417969 0.37974548,0.34162235 0 0 0 -0.3808594,0.3417968 0.37974548,0.34162235 0 0 0 0.3808594,0.3417969 0.37974548,0.34162235 0 0 0 0.2851562,-0.1152344 c 1.1488128,0.6588518 0.3757249,2.5529909 1.46484372,3.55664069 A 1.0082436,1.2523136 75.231718 0 0 -1.1597329,-0.11212479 C -2.9878566,-0.9699736 -3.3058013,-2.8505915 -5.0132485,-2.6629061 a 0.32167244,0.31146431 0 0 0 0.00195,-0.013672 0.32167244,0.31146431 0 0 0 -0.3222656,-0.310547 0.32167244,0.31146431 0 0 0 -0.3203125,0.310547 0.32167244,0.31146431 0 0 0 0.3203125,0.3124999 0.32167244,0.31146431 0 0 0 0.3164062,-0.2558594 c 1.5585229,0.085749 2.17181,2.40531606 3.7402344,2.90039078 a 1.0082436,1.2523136 75.231718 0 0 0.025391,0.26171874 1.0082436,1.2523136 75.231718 0 0 0.26171876,0.41601552 A 1.2686751,3.6312151 79.760546 0 0 0.20159519,0.77459394 1.2686751,3.6312151 79.760546 0 0 1.0883139,0.54021896 1.0082436,1.2523136 75.231718 0 0 1.1703453,-0.09649981 1.0082436,1.2523136 75.231718 0 0 1.0219077,-0.39142166 C 2.1014206,-2.007375 3.2150114,-2.094231 3.2328452,-3.7351717 a 0.34212112,0.41137981 0 0 0 0.023438,0.00195 A 0.34212112,0.41137981 0 0 0 3.5980796,-4.145328 0.34212112,0.41137981 0 0 0 3.2562827,-4.5554842 0.34212112,0.41137981 0 0 0 2.9144859,-4.145328 0.34212112,0.41137981 0 0 0 3.1781577,-3.7449374 C 2.9321551,-2.402694 1.5683529,-2.0408683 0.82268897,-0.88360915 1.3345697,-2.5060885 2.0966079,-2.6660259 1.6742515,-4.0320467 a 0.34212112,0.41137981 0 0 0 0.2558594,-0.3964844 0.34212112,0.41137981 0 0 0 -0.3417969,-0.4121093 0.34212112,0.41137981 0 0 0 -0.34375,0.4121093 0.34212112,0.41137981 0 0 0 0.34375,0.4101563 0.34212112,0.41137981 0 0 0 0.013672,-0.00195 C 1.7294687,-2.8079603 0.74888078,-2.3172336 0.42620459,-1.1160311 0.4160868,-2.6851204 1.0255909,-3.0794376 0.02972018,-4.2761873 a 0.34389877,0.41376686 0 0 0 0.0820313,-0.2695313 0.34389877,0.41376686 0 0 0 -0.34375001,-0.4140625 z" />
      </g>
    </g>
    <g
       id="g104"
       inkscape:label="LOWER_DOLL">
      <path
         style="fill:url(#radialGradient61);fill-rule:evenodd;stroke-width:0.3;stroke-linecap:square"
         d="m -11.824219,3.1604843 c 1.77e-4,5.7668021 1.515596,11.9418527 5.5038763,14.4424807 l -3.6736593,2.597584 21.2323,0.22904 -3.1719481,-2.816423 C 12.042765,15.107996 13.167792,8.9167905 13.167969,3.1604843"
         id="path1"
         inkscape:label="lower" />
      <g
         id="g99"
         inkscape:label="floral_lower">
        <path
           style="fill:#35b9ef;fill-opacity:1;stroke:none;stroke-width:1px;stroke-linecap:butt;stroke-linejoin:miter;stroke-opacity:1"
           d="m -5.8955541,17.719542 c 4.8069943,1.680536 9.0022831,1.536969 13.30813,0.0175 -4.5108955,1.035604 -8.9484905,0.949653 -13.30813,-0.0175 z"
           id="path80"
           sodipodi:nodetypes="ccc" />
        <path
           style="fill:#1091c8;fill-opacity:1;stroke:none;stroke-width:1px;stroke-linecap:butt;stroke-linejoin:miter;stroke-opacity:1"
           d="m -10.981469,3.6418024 c 0,0 -0.275996,3.6473528 0.9824383,3.8842057 2.6409958,0.4970681 0.6320558,3.3550189 0.9018919,5.2919129 0.2346402,1.684258 4.1306026,3.252322 4.1306026,3.252322 0,0 -3.523819,-1.682013 -3.7834348,-3.242602 C -9.0279353,11.156756 -7.2423018,7.8837085 -9.6416676,7.3449982 -10.732292,7.1001292 -10.984165,3.6553739 -10.981469,3.6418024 Z"
           id="path81"
           sodipodi:nodetypes="csscssc" />
        <path
           id="ellipse82"
           style="fill:#0e7dad;fill-rule:evenodd;stroke-width:0.373929;stroke-linecap:square"
           transform="matrix(0.98622672,-0.16539907,0.15076734,0.98856927,0,0)"
           d="M 7.3698249,8.2572279 C 14.0953,10.89353 8.6616595,11.108353 5.1652651,11.452167 9.894484,14.794384 8.8625727,15.400975 0.90821981,12.504027 -7.9114764,15.22527 -7.2199698,13.659868 -4.0289968,10.997045 -11.711942,9.8042734 -10.258043,8.9846274 -5.5533853,8.2572279 -7.8402514,5.4472908 -11.521691,1.2935288 -2.9943756,4.8721965 -1.9100764,4.3313717 -0.55795526,4.0104284 0.90821981,4.0104284 c 1.54443719,0 2.96231949,0.3561207 4.07391739,0.9502374 8.2525428,-2.1765336 3.1592394,1.6306554 2.3876877,3.2965621 z"
           sodipodi:nodetypes="ccccccccc" />
        <ellipse
           style="fill:#1091c8;fill-opacity:1;fill-rule:evenodd;stroke:none;stroke-width:0.222542;stroke-linecap:square"
           id="path82"
           cx="0.83569741"
           cy="8.7408285"
           rx="4.0906634"
           ry="2.3760443"
           transform="matrix(0.98933122,-0.14568369,0.17113262,0.985248,0,0)" />
        <path
           style="fill:#1091c8;fill-opacity:1;stroke:none;stroke-width:0.794587px;stroke-linecap:butt;stroke-linejoin:miter;stroke-opacity:1"
           d="m 12.060009,3.2685457 c -0.08261,-0.098424 -0.52802,2.4670223 -0.19864,3.3433746 0.161721,0.4302788 2.14156,2.2513028 -0.806103,5.7140777 -1.095947,1.287467 -4.6081928,4.177847 -4.6081928,4.177847 0.00106,0.0016 3.3707589,-3.150185 4.4476448,-4.371799 1.945341,-2.2067861 1.578199,-5.075692 0.705476,-5.3057455 -0.706688,-0.1862861 0.461517,-3.5441833 0.459815,-3.5577548 z"
           id="path87"
           sodipodi:nodetypes="csscssc" />
      </g>
      <path
         style="fill:#0d76a2;fill-rule:evenodd;stroke-width:0.3;stroke-linecap:square"
         d="M 5.3960019,3.1593647 C 5.3623302,5.9046917 3.5291859,5.8073287 2.4923039,8.4984856 0.41203338,7.8956038 -4.6082118,5.9460848 -4.620737,3.1593647"
         id="path66"
         sodipodi:nodetypes="ccc"
         inkscape:label="bulb_lower" />
    </g>
  </g>
</svg>
