<?xml version="1.0" encoding="UTF-8" standalone="no"?>
<!-- Created with Inkscape (http://www.inkscape.org/) -->

<svg
   width="300"
   height="170"
   viewBox="0 0 350 200"
   version="1.1"
   id="svg_wf"
   xmlns:xlink="http://www.w3.org/1999/xlink"
   xmlns="http://www.w3.org/2000/svg"
   xmlns:svg="http://www.w3.org/2000/svg">
  <defs
     id="defs1">
    <linearGradient
       id="linearGradient69">
      <stop
         style="stop-color:#e6e6e6;stop-opacity:1;"
         offset="0"
         id="stop69" />
      <stop
         style="stop-color:#a1a1a1;stop-opacity:1;"
         offset="1"
         id="stop70" />
    </linearGradient>
    <linearGradient
       id="linearGradient52">
      <stop
         style="stop-color:#ffffff;stop-opacity:1;"
         offset="0"
         id="stop52" />
      <stop
         style="stop-color:#ffffff;stop-opacity:0;"
         offset="1"
         id="stop53" />
    </linearGradient>
    <linearGradient
       id="linearGradient47">
      <stop
         style="stop-color:#ffffff;stop-opacity:1;"
         offset="0"
         id="stop47" />
      <stop
         style="stop-color:#ffffff;stop-opacity:0;"
         offset="1"
         id="stop48" />
    </linearGradient>
    <linearGradient
       id="linearGradient40">
      <stop
         style="stop-color:#52dcff;stop-opacity:1;"
         offset="0"
         id="stop40" />
      <stop
         style="stop-color:#d4f8ff;stop-opacity:0.99190611;"
         offset="1"
         id="stop41" />
    </linearGradient>
    <linearGradient
       id="linearGradient6">
      <stop
         style="stop-color:#abe8c3;stop-opacity:1"
         offset="0"
         id="stop6" />
      <stop
         style="stop-color:#afe7c6;stop-opacity:0.99196476;"
         offset="1"
         id="stop7" />
    </linearGradient>
    <linearGradient
       id="linearGradient4">
      <stop
         style="stop-color:#6bd696;stop-opacity:1"
         offset="0"
         id="stop4" />
      <stop
         style="stop-color:#afe9c6;stop-opacity:1"
         offset="1"
         id="stop5" />
    </linearGradient>
    <linearGradient
       xlink:href="#linearGradient4"
       id="linearGradient5"
       x1="190.39627"
       y1="152.06535"
       x2="190.23914"
       y2="105.37868"
       gradientUnits="userSpaceOnUse" />
    <linearGradient
       xlink:href="#linearGradient6"
       id="linearGradient7"
       x1="178.30087"
       y1="157.02617"
       x2="178.44019"
       y2="76.997749"
       gradientUnits="userSpaceOnUse" />
    <linearGradient
       xlink:href="#linearGradient40"
       id="linearGradient41"
       x1="228.75598"
       y1="1.7641252"
       x2="229.07062"
       y2="86.203232"
       gradientUnits="userSpaceOnUse" />
    <linearGradient
       xlink:href="#linearGradient47"
       id="linearGradient48"
       x1="273.08237"
       y1="10.042588"
       x2="280.26736"
       y2="55.044674"
       gradientUnits="userSpaceOnUse" />
    <linearGradient
       xlink:href="#linearGradient52"
       id="linearGradient53"
       x1="73.037132"
       y1="15.795692"
       x2="66.038544"
       y2="62.930225"
       gradientUnits="userSpaceOnUse" />
    <linearGradient
       xlink:href="#linearGradient52"
       id="linearGradient54"
       gradientUnits="userSpaceOnUse"
       x1="73.037132"
       y1="15.795692"
       x2="68.182648"
       y2="46.698967"
       gradientTransform="matrix(1,0,0,0.40504442,209.45786,57.18021)" />
    <filter
       style="color-interpolation-filters:sRGB"
       id="filter54"
       x="-0.022888465"
       y="-0.12902896"
       width="1.0457769"
       height="1.2580579">
      <feGaussianBlur
         stdDeviation="1.2353216"
         id="feGaussianBlur54" />
    </filter>
    <linearGradient
       xlink:href="#linearGradient52"
       id="linearGradient55"
       gradientUnits="userSpaceOnUse"
       gradientTransform="matrix(1,0,0,0.40504442,28.185139,55.840981)"
       x1="73.037132"
       y1="15.795692"
       x2="68.182648"
       y2="46.698967" />
    <filter
       style="color-interpolation-filters:sRGB"
       id="filter54-3"
       x="-0.022888465"
       y="-0.12902896"
       width="1.0457769"
       height="1.2580579">
      <feGaussianBlur
         stdDeviation="1.2353216"
         id="feGaussianBlur54-5" />
    </filter>
    <filter
       style="color-interpolation-filters:sRGB"
       id="filter55"
       x="-0.0084272809"
       y="-0.02083141"
       width="1.0168546"
       height="1.0416628">
      <feGaussianBlur
         stdDeviation="0.31886229"
         id="feGaussianBlur55" />
    </filter>
    <radialGradient
       xlink:href="#linearGradient69"
       id="radialGradient70"
       cx="76.379349"
       cy="119.78224"
       fx="76.379349"
       fy="119.78224"
       r="31.028629"
       gradientTransform="matrix(0.01033881,-1.3607431,1.1106985,0.00844698,-57.452289,223.76109)"
       gradientUnits="userSpaceOnUse" />
    <radialGradient
       xlink:href="#linearGradient69"
       id="radialGradient79"
       gradientUnits="userSpaceOnUse"
       gradientTransform="matrix(0.01033881,-1.3607431,1.1106985,0.00844698,-57.452289,223.76109)"
       cx="76.379349"
       cy="119.78224"
       fx="76.379349"
       fy="119.78224"
       r="31.028629" />
    <radialGradient
       xlink:href="#linearGradient69"
       id="radialGradient82"
       gradientUnits="userSpaceOnUse"
       gradientTransform="matrix(0.01033881,-1.3607431,1.1106985,0.00844698,-57.452289,223.76109)"
       cx="76.379349"
       cy="119.78224"
       fx="76.379349"
       fy="119.78224"
       r="31.028629" />
    <radialGradient
       xlink:href="#linearGradient69"
       id="radialGradient85"
       gradientUnits="userSpaceOnUse"
       gradientTransform="matrix(0.01033881,-1.3607431,1.1106985,0.00844698,-57.452289,223.76109)"
       cx="76.379349"
       cy="119.78224"
       fx="76.379349"
       fy="119.78224"
       r="31.028629" />
  </defs>
  <g
     id="layer1">
    <rect
       style="fill:url(#linearGradient41);fill-opacity:1;stroke-width:0.5;stroke-linecap:square"
       id="rect1"
       width="360.12918"
       height="203.48491"
       x="-4.6820755"
       y="-1.5056285" />
    <path
       id="path54"
       style="display:inline;fill:url(#linearGradient55);fill-opacity:1;stroke:none;stroke-width:0.318215;stroke-linecap:square;filter:url(#filter54-3)"
       d="m 87.255449,53.836328 a 28.43182,6.0177388 0 0 0 -24.88476,3.12169 18.292856,4.8670623 0 0 0 -3.66407,-0.09968 18.292856,4.8670623 0 0 0 -18.29297,4.866862 18.292856,4.8670623 0 0 0 16.95118,4.843129 34.893867,5.8623168 0 0 0 -0.50391,0.938247 34.893867,5.8623168 0 0 0 34.89453,5.86286 34.893867,5.8623168 0 0 0 15.904301,-0.657406 19.414528,3.9876384 0 0 0 -0.0371,0.113919 19.414528,3.9876384 0 0 0 19.41406,3.987947 19.414528,3.9876384 0 0 0 15.98633,-1.740425 15.831038,2.7872069 0 0 0 11.08984,0.800595 15.831038,2.7872069 0 0 0 15.83204,-2.787054 15.831038,2.7872069 0 0 0 -14.72461,-2.779933 19.414528,3.9876384 0 0 0 2.42773,-1.921588 19.414528,3.9876384 0 0 0 -19.41601,-3.987156 19.414528,3.9876384 0 0 0 -13.60352,1.145516 34.893867,5.8623168 0 0 0 -12.48633,-2.793383 28.43182,6.0177388 0 0 0 3.54492,-2.896225 28.43182,6.0177388 0 0 0 -28.431641,-6.017916 z"
       transform="matrix(-0.99697969,-0.07766267,-0.07766267,0.99697969,164.77615,11.893473)" />
    <path
       id="rect2"
       style="fill:url(#linearGradient7);fill-opacity:1;stroke-width:0.5;stroke-linecap:square"
       d="M -2.9200857,81.22155 C 116.20655,76.662177 235.77197,78.181844 355.4471,81.22155 V 201.97928 H -2.9200857 Z" />
  </g>
  <g
     id="layer2">
    <path
       id="rect3"
       style="fill:url(#linearGradient5);stroke-width:0.5;stroke-linecap:square"
       d="m -4.7139397,108.94357 c 118.2266697,-7.16109 238.5473997,-6.11443 360.1610697,0 v 93.03572 H -4.7139397 Z" />
    <path
       id="rect4"
       style="fill:#6bd696;stroke-width:0.5;stroke-linecap:square"
       d="m -3.9005027,141.03526 c 205.0077827,48.15054 300.7081127,-79.546179 359.3476527,0 v 60.94402 H -3.9005027 Z" />
  </g>
  <g
     id="layer3">
    <path
       style="fill:#52cf84;fill-opacity:1;stroke:none;stroke-width:1px;stroke-linecap:butt;stroke-linejoin:miter;stroke-opacity:1"
       d="m -5.019942,203.71965 364.068512,2.39314 -2.59635,-28.98375 c -99.40272,-0.0614 -238.81704,0.95532 -234.21257,-18.12337 0.92932,-3.85064 14.9686,-3.86046 28.40488,-9.99796 l 37.76469,-8.9195 -98.109536,0.46388 c -44.017067,15.82335 -60.961298,0.76567 -89.1824179,1.24489 z"
       id="path7" />
    <path
       style="fill:#4cce80;fill-opacity:1;stroke:none;stroke-width:1px;stroke-linecap:butt;stroke-linejoin:miter;stroke-opacity:1"
       d="M -2.5927237,127.79766 C 51.47531,117.89894 133.82165,122.25105 215.9642,122.84018 c -31.06915,-5.21997 -62.10316,-19.05129 -71.50657,-20.51042 -47.44584,4.25158 -98.176918,3.69915 -146.7486332,-0.0615 z"
       id="path8" />
    <path
       style="fill:#99e399;fill-opacity:1;stroke:none;stroke-width:1px;stroke-linecap:butt;stroke-linejoin:miter;stroke-opacity:1"
       d="m 141.72268,94.82117 103.00545,13.41035 c 23.10212,-6.78527 78.47523,-4.34657 115.93325,-1.18491 l -1.20714,-16.648655 c -31.21277,-5.790352 -76.36663,-6.105758 -106.74106,-3.246189 -5.67239,8.901735 -94.24253,0.451659 -110.9905,7.669404 z"
       id="path9" />
    <path
       style="fill:#afe9af;stroke:none;stroke-width:1px;stroke-linecap:butt;stroke-linejoin:miter;stroke-opacity:1"
       d="M -5.1438933,94.111981 113.48466,94.313594 77.065459,85.653716 -2.2271454,87.153392 Z"
       id="path10" />
    <path
       style="fill:#afe9af;stroke:none;stroke-width:1px;stroke-linecap:butt;stroke-linejoin:miter;stroke-opacity:1"
       d="M 95.927401,85.896055 214.55595,86.097668 178.13675,77.43779 98.844149,78.937466 Z"
       id="path11" />
    <path
       style="fill:#c8c4b7;stroke:none;stroke-width:1px;stroke-linecap:butt;stroke-linejoin:miter;stroke-opacity:1"
       d="m 91.705151,88.858432 c 74.383609,9.386181 97.217569,34.562638 160.082299,34.455848 l 7.72393,-1.9289 C 194.47404,120.85205 154.60828,92.936035 91.705151,88.858432 Z"
       id="path12" />
    <path
       style="fill:#c8c4b7;stroke:none;stroke-width:1px;stroke-linecap:butt;stroke-linejoin:miter;stroke-opacity:1"
       d="M 0.14963079,95.095774 C 79.403344,103.05184 78.525066,96.835834 138.55502,97.561485 l -7.26264,-0.980606 C 66.255042,96.047549 63.05276,99.173377 0.14963079,95.095774 Z"
       id="path13" />
  </g>
  <g
     id="layer4"
     style="display:inline">
    <path
       style="fill:#82b65f;fill-opacity:1;stroke:none;stroke-width:1.75296px;stroke-linecap:butt;stroke-linejoin:miter;stroke-opacity:1"
       d="m 141.99156,132.20071 19.8689,0.10182 c 0,0 -6.30449,-8.71551 -10.51189,-8.61844 -4.07416,0.094 -9.35701,8.51655 -9.35701,8.51655 z"
       id="path38" />
    <path
       style="fill:#82b65f;fill-opacity:1;stroke:none;stroke-width:0.942817px;stroke-linecap:butt;stroke-linejoin:miter;stroke-opacity:1"
       d="m 165.87715,128.45001 10.33796,0.0568 c 0,0 -3.28029,-4.84554 -5.46942,-4.79155 -2.11983,0.0522 -4.86854,4.73489 -4.86854,4.73489 z"
       id="path40" />
    <path
       id="path14"
       style="fill:#299329;stroke-width:0.5;stroke-linecap:square"
       d="m 252.88356,145.86559 c 0,1.35373 -3.05963,2.16708 -2.94901,4.76482 l -0.60326,0.0632 c -0.71347,-2.78166 -3.13291,-3.17996 -3.13291,-4.82807 0,-1.64812 1.49653,-2.98418 3.34259,-2.98418 1.84606,0 3.34259,1.33606 3.34259,2.98418 z" />
    <path
       id="path15"
       style="fill:#299329;stroke-width:0.392858;stroke-linecap:square"
       d="m 264.03007,137.89912 c 0,1.13831 -2.24632,1.82223 -2.1651,4.00659 l -0.4429,0.0531 c -0.52382,-2.33901 -2.30012,-2.67393 -2.30012,-4.05977 0,-1.38586 1.09872,-2.50931 2.45406,-2.50931 1.35534,0 2.45406,1.12345 2.45406,2.50931 z" />
    <path
       id="path16"
       style="fill:#299329;stroke-width:0.30897;stroke-linecap:square"
       d="m 250.71422,133.53099 c 0,0.9601 -1.64731,1.53695 -1.58775,3.37934 l -0.32479,0.0448 c -0.38414,-1.97283 -1.68676,-2.25532 -1.68676,-3.4242 0,-1.1689 0.80573,-2.11647 1.79965,-2.11647 0.99392,0 1.79965,0.94757 1.79965,2.11647 z" />
    <path
       id="path17"
       style="fill:#299329;stroke-width:0.30897;stroke-linecap:square"
       d="m 256.84068,131.84385 c 0,0.9601 -1.64731,1.53695 -1.58775,3.37934 l -0.32479,0.0448 c -0.38414,-1.97283 -1.68676,-2.25532 -1.68676,-3.4242 0,-1.1689 0.80573,-2.11647 1.79965,-2.11647 0.99392,0 1.79965,0.94757 1.79965,2.11647 z" />
    <path
       id="path18"
       style="fill:#299329;stroke-width:0.30897;stroke-linecap:square"
       d="m 273.36342,146.35046 c 0,0.9601 -1.64731,1.53695 -1.58775,3.37934 l -0.32479,0.0448 c -0.38414,-1.97283 -1.68676,-2.25532 -1.68676,-3.4242 0,-1.1689 0.80573,-2.11647 1.79965,-2.11647 0.99392,0 1.79965,0.94757 1.79965,2.11647 z" />
    <path
       id="path19"
       style="fill:#299329;stroke-width:0.30897;stroke-linecap:square"
       d="m 283.70948,138.34256 c 0,0.9601 -1.64731,1.53695 -1.58775,3.37934 l -0.32479,0.0448 c -0.38414,-1.97283 -1.68676,-2.25532 -1.68676,-3.4242 0,-1.1689 0.80573,-2.11647 1.79965,-2.11647 0.99392,0 1.79965,0.94757 1.79965,2.11647 z" />
    <path
       id="path20"
       style="fill:#299329;stroke-width:0.30897;stroke-linecap:square"
       d="m 288.90484,143.11446 c 0,0.9601 -1.64731,1.53695 -1.58775,3.37934 l -0.32479,0.0448 c -0.38414,-1.97283 -1.68676,-2.25532 -1.68676,-3.4242 0,-1.1689 0.80573,-2.11647 1.79965,-2.11647 0.99392,0 1.79965,0.94757 1.79965,2.11647 z" />
    <path
       id="path21"
       style="fill:#56c056;fill-opacity:1;stroke-width:0.343607;stroke-linecap:square"
       d="m 223.09807,103.70451 c 0,0.85868 -2.278,1.3746 -2.19564,3.02237 l -0.44915,0.0401 c -0.5312,-1.76443 -2.33255,-2.01708 -2.33255,-3.06249 0,-1.04542 1.11422,-1.89289 2.48867,-1.89289 1.37445,0 2.48867,0.84747 2.48867,1.89289 z" />
    <path
       id="path22"
       style="fill:#56c056;fill-opacity:1;stroke-width:0.269978;stroke-linecap:square"
       d="m 230.30114,105.50912 c 0,0.72204 -1.67246,1.15586 -1.61199,2.54142 l -0.32975,0.0337 c -0.39,-1.48366 -1.71252,-1.6961 -1.71252,-2.57515 0,-0.87906 0.81804,-1.59168 1.82713,-1.59168 1.0091,0 1.82713,0.71262 1.82713,1.59168 z" />
    <path
       id="path23"
       style="fill:#56c056;fill-opacity:1;stroke-width:0.212329;stroke-linecap:square"
       d="m 232.76363,101.89119 c 0,0.609 -1.22648,0.9749 -1.18213,2.14354 l -0.24182,0.0284 c -0.286,-1.25138 -1.25585,-1.43057 -1.25585,-2.172 0,-0.74144 0.5999,-1.34249 1.3399,-1.34249 0.74001,0 1.3399,0.60105 1.3399,1.34249 z" />
    <path
       id="path24"
       style="fill:#56c056;fill-opacity:1;stroke-width:0.212329;stroke-linecap:square"
       d="m 237.32498,100.82102 c 0,0.609 -1.22647,0.9749 -1.18213,2.14355 l -0.24182,0.0284 c -0.286,-1.25138 -1.25584,-1.43056 -1.25584,-2.172 0,-0.74144 0.59989,-1.34249 1.33989,-1.34249 0.74001,0 1.3399,0.60105 1.3399,1.34249 z" />
    <path
       id="path25"
       style="fill:#56c056;fill-opacity:1;stroke-width:0.212329;stroke-linecap:square"
       d="m 247.91718,105.64032 c 0,0.609 -1.22648,0.9749 -1.18213,2.14354 l -0.24182,0.0284 c -0.28601,-1.25138 -1.25585,-1.43057 -1.25585,-2.172 0,-0.74144 0.59989,-1.34249 1.3399,-1.34249 0.74001,0 1.3399,0.60105 1.3399,1.34249 z" />
    <path
       id="path26"
       style="fill:#56c056;fill-opacity:1;stroke-width:0.212329;stroke-linecap:square"
       d="m 257.32969,104.94321 c 0,0.609 -1.22647,0.9749 -1.18213,2.14354 l -0.24182,0.0284 c -0.286,-1.25138 -1.25585,-1.43057 -1.25585,-2.172 0,-0.74144 0.5999,-1.34249 1.3399,-1.34249 0.74001,0 1.3399,0.60105 1.3399,1.34249 z" />
    <path
       id="path27"
       style="fill:#56c056;fill-opacity:1;stroke-width:0.212329;stroke-linecap:square"
       d="m 263.67107,104.94894 c 0,0.609 -1.22648,0.9749 -1.18213,2.14354 l -0.24182,0.0284 c -0.286,-1.25138 -1.25585,-1.43057 -1.25585,-2.172 0,-0.74144 0.59989,-1.3425 1.3399,-1.3425 0.74001,0 1.3399,0.60106 1.3399,1.3425 z" />
    <path
       id="path28"
       style="fill:#56c056;fill-opacity:1;stroke-width:0.212329;stroke-linecap:square"
       d="m 260.75472,106.96471 c 0,0.609 -1.22648,0.9749 -1.18213,2.14354 l -0.24182,0.0284 c -0.28601,-1.25138 -1.25585,-1.43057 -1.25585,-2.172 0,-0.74144 0.59989,-1.34249 1.3399,-1.34249 0.74001,0 1.3399,0.60105 1.3399,1.34249 z" />
    <path
       id="path29"
       style="fill:#56c056;fill-opacity:1;stroke-width:0.212329;stroke-linecap:square"
       d="m 270.16723,106.2676 c 0,0.609 -1.22647,0.9749 -1.18213,2.14354 l -0.24182,0.0284 c -0.286,-1.25138 -1.25585,-1.43057 -1.25585,-2.172 0,-0.74144 0.5999,-1.34249 1.3399,-1.34249 0.74001,0 1.3399,0.60105 1.3399,1.34249 z" />
    <path
       id="path30"
       style="fill:#56c056;fill-opacity:1;stroke-width:0.212329;stroke-linecap:square"
       d="m 276.50861,106.27333 c 0,0.609 -1.22648,0.9749 -1.18213,2.14354 l -0.24182,0.0284 c -0.286,-1.25138 -1.25585,-1.43057 -1.25585,-2.172 0,-0.74144 0.59989,-1.3425 1.3399,-1.3425 0.74001,0 1.3399,0.60106 1.3399,1.3425 z" />
    <path
       style="fill:#7edc7e;fill-opacity:1;stroke:none;stroke-width:1px;stroke-linecap:butt;stroke-linejoin:miter;stroke-opacity:1"
       d="m 262.69963,86.906113 17.31873,0.03805 c 0,0 -5.49531,-3.253924 -9.16269,-3.217675 -3.55124,0.0351 -8.15604,3.179625 -8.15604,3.179625 z"
       id="path31" />
    <path
       style="fill:#7edc7e;fill-opacity:1;stroke:none;stroke-width:1px;stroke-linecap:butt;stroke-linejoin:miter;stroke-opacity:1"
       d="m 272.33299,88.596381 17.31873,0.03805 c 0,0 -5.49531,-3.253924 -9.16269,-3.217675 -3.55124,0.0351 -8.15604,3.179625 -8.15604,3.179625 z"
       id="path32" />
    <path
       style="fill:#7edc7e;fill-opacity:1;stroke:none;stroke-width:0.702462px;stroke-linecap:butt;stroke-linejoin:miter;stroke-opacity:1"
       d="m 282.38877,85.948497 11.3992,0.02853 c 0,0 -3.61702,-2.439467 -6.03089,-2.412291 -2.33743,0.02631 -5.36831,2.383765 -5.36831,2.383765 z"
       id="path33" />
    <path
       style="fill:#7edc7e;fill-opacity:1;stroke:none;stroke-width:0.702462px;stroke-linecap:butt;stroke-linejoin:miter;stroke-opacity:1"
       d="m 291.85652,85.430842 11.3992,0.02853 c 0,0 -3.61702,-2.439467 -6.03089,-2.412291 -2.33743,0.02631 -5.36831,2.383765 -5.36831,2.383765 z"
       id="path34" />
    <path
       style="fill:#7edc7e;fill-opacity:1;stroke:none;stroke-width:0.377814px;stroke-linecap:butt;stroke-linejoin:miter;stroke-opacity:1"
       d="m 300.34354,85.080355 5.9311,0.01586 c 0,0 -1.88197,-1.356265 -3.13792,-1.341156 -1.21619,0.01463 -2.79318,1.325297 -2.79318,1.325297 z"
       id="path35" />
    <path
       style="fill:#82b65f;fill-opacity:1;stroke:none;stroke-width:2.76285px;stroke-linecap:butt;stroke-linejoin:miter;stroke-opacity:1"
       d="m 98.890974,135.04876 38.968946,0.12892 c 0,0 -12.36502,-11.03877 -20.61701,-10.91582 -7.99066,0.11907 -18.351936,10.78673 -18.351936,10.78673 z"
       id="path36" />
    <path
       style="fill:#70a64c;fill-opacity:1;stroke:none;stroke-width:3.2902px;stroke-linecap:butt;stroke-linejoin:miter;stroke-opacity:1"
       d="m 119.69556,140.11368 52.47625,0.13612 c 0,0 -16.65095,-11.62539 -27.76322,-11.49588 -10.76036,0.1254 -24.71303,11.35994 -24.71303,11.35994 z"
       id="path37" />
    <path
       style="fill:#70a64c;fill-opacity:1;stroke:none;stroke-width:1.75296px;stroke-linecap:butt;stroke-linejoin:miter;stroke-opacity:1"
       d="m 156.24954,133.42504 19.8689,0.10182 c 0,0 -6.3045,-8.71555 -10.51189,-8.61844 -4.07416,0.094 -9.35701,8.51651 -9.35701,8.51651 z"
       id="path39" />
  </g>
  <g
     id="layer5">
    <path
       id="path41"
       style="fill:url(#linearGradient48);fill-opacity:1;stroke:none;stroke-width:0.5;stroke-linecap:square;filter:url(#filter55)"
       d="m 295.4587,-7.5799669 a 16.135242,13.668079 0 0 0 -13.73633,6.529297 13.314605,11.368427 0 0 0 -2.27148,-0.171875 13.314605,11.368427 0 0 0 -13.18164,9.808594 15.270573,7.5208826 0 0 0 -13.49414,7.4628899 15.270573,7.5208826 0 0 0 15.27148,7.521485 15.270573,7.5208826 0 0 0 2.0957,-0.07422 15.270573,7.5208826 0 0 0 12.84571,3.480469 15.270573,7.5208826 0 0 0 11.69531,-2.707031 15.270573,7.5208826 0 0 0 14.27539,4.886718 15.270573,7.5208826 0 0 0 15.08203,-6.392578 11.683421,5.2563167 0 0 0 7.85938,1.38086 11.683421,5.2563167 0 0 0 11.68359,-5.25586 11.683421,5.2563167 0 0 0 -7.35352,-4.880859 15.270573,7.5208826 0 0 0 -9.05664,-6.7031249 12.929193,7.8350296 0 0 0 -11.25195,-3.980469 12.929193,7.8350296 0 0 0 -4.55273,0.513672 16.135242,13.668079 0 0 0 -15.91016,-11.417969 z" />
    <path
       id="path48"
       style="fill:url(#linearGradient53);fill-opacity:1;stroke:none;stroke-width:0.5;stroke-linecap:square"
       d="M 59.070312,-4.9492188 A 28.43182,14.856985 0 0 0 34.185547,2.7578125 18.292856,12.01612 0 0 0 30.521484,2.5117188 18.292856,12.01612 0 0 0 12.228516,14.527344 a 18.292856,12.01612 0 0 0 16.951172,11.957031 34.893867,14.473269 0 0 0 -0.503907,2.316406 34.893867,14.473269 0 0 0 34.894531,14.47461 34.893867,14.473269 0 0 0 15.904297,-1.623047 19.414528,9.8449411 0 0 0 -0.03711,0.28125 19.414528,9.8449411 0 0 0 19.414062,9.845703 19.414528,9.8449411 0 0 0 15.986329,-4.296875 15.831038,6.8812375 0 0 0 11.08984,1.976562 15.831038,6.8812375 0 0 0 15.83204,-6.880859 15.831038,6.8812375 0 0 0 -14.72461,-6.863281 19.414528,9.8449411 0 0 0 2.42773,-4.744141 19.414528,9.8449411 0 0 0 -19.41601,-9.84375 A 19.414528,9.8449411 0 0 0 96.443359,23.955078 34.893867,14.473269 0 0 0 83.957031,17.058594 28.43182,14.856985 0 0 0 87.501953,9.9082031 28.43182,14.856985 0 0 0 59.070312,-4.9492188 Z" />
    <path
       id="path53"
       style="mix-blend-mode:normal;fill:url(#linearGradient54);fill-opacity:1;stroke:none;stroke-width:0.318215;stroke-linecap:square;filter:url(#filter54)"
       d="m 268.52817,55.175557 a 28.43182,6.0177388 0 0 0 -24.88476,3.12169 18.292856,4.8670623 0 0 0 -3.66407,-0.09968 18.292856,4.8670623 0 0 0 -18.29297,4.866862 18.292856,4.8670623 0 0 0 16.95118,4.843129 34.893867,5.8623168 0 0 0 -0.50391,0.938247 34.893867,5.8623168 0 0 0 34.89453,5.86286 34.893867,5.8623168 0 0 0 15.9043,-0.657406 19.414528,3.9876384 0 0 0 -0.0371,0.113919 19.414528,3.9876384 0 0 0 19.41406,3.987947 19.414528,3.9876384 0 0 0 15.98633,-1.740425 15.831038,2.7872069 0 0 0 11.08984,0.800595 15.831038,2.7872069 0 0 0 15.83204,-2.787054 15.831038,2.7872069 0 0 0 -14.72461,-2.779933 19.414528,3.9876384 0 0 0 2.42773,-1.921588 19.414528,3.9876384 0 0 0 -19.41601,-3.987156 19.414528,3.9876384 0 0 0 -13.60352,1.145516 34.893867,5.8623168 0 0 0 -12.48633,-2.793383 28.43182,6.0177388 0 0 0 3.54492,-2.896225 28.43182,6.0177388 0 0 0 -28.43164,-6.017916 z" />
  </g>

  <g id="turbines">

    <g id="turbine_1">
      <path
         style="fill:#e6e6e6;stroke:none;stroke-width:1px;stroke-linecap:butt;stroke-linejoin:miter;stroke-opacity:1"
         d="m 75.093266,120.05955 c -21.201395,5.94153 1.030229,33.88581 -1.445262,58.70913 l 4.961323,1.27648 4.71777,-1.42365 c -3.222678,-19.28932 -24.85112,-52.56709 -8.510404,-56.44961 0.199344,-0.13794 1.573895,-0.71509 1.537422,-1.18195 -0.03587,-0.45911 -1.483049,-0.80813 -1.260849,-0.9304 z"
         id="path55" />
      <path
         style="fill:#b3b3b3;stroke:none;stroke-width:1px;stroke-linecap:butt;stroke-linejoin:miter;stroke-opacity:1"
         d="m 73.167796,178.92848 5.093884,1.00085 c -1.220732,-13.64231 -6.383793,-27.49032 -10.755361,-41.13264 -0.795656,-4.51335 -2.353092,-9.0267 -0.07151,-13.54005 -1.777552,2.04045 -2.598736,5.19465 -1.662555,10.3954 3.11556,14.37835 7.694557,29.58341 7.395545,43.27644 z"
         id="path70" />

      <g id="blades_1"
         transform-origin="76 121"
      >

        <animateTransform id="a_1"
            attributeName="transform" 
            type="rotate"
            from="0" to="360" 
            dur="2s" 
            repeatCount="indefinite"
        />

        <path
           style="fill:url(#radialGradient70);fill-opacity:1;stroke:none;stroke-width:1px;stroke-linecap:butt;stroke-linejoin:miter;stroke-opacity:1"
           d="m 44.37888,144.61763 29.661369,-23.75557 1.788148,-1.85442 -2.102389,-18.25805 3.084448,-24.986191 0.472288,45.367441 11.629463,6.71422 17.523933,16.84724 -31.182978,-22.10425 -10.270176,10.36653 z"
           id="path56" />
      </g>

    </g>
    
    <path
       style="fill:#32b667;fill-opacity:1;stroke:none;stroke-width:1px;stroke-linecap:butt;stroke-linejoin:miter;stroke-opacity:1"
       d="m 63.680626,179.17714 c 4.634056,-1.07015 10.054731,0.23543 15.087665,1.84539 2.476094,-1.3539 4.672748,-3.19966 9.624776,-3.08855 -3.438931,-0.66906 -6.791028,0.22962 -10.116633,1.6066 -5.197539,-1.14402 -10.193059,-1.66615 -14.595808,-0.36344 z"
       id="path71" />

    <g
       id="house">
      <path
         style="fill:#666666;stroke:none;stroke-width:1px;stroke-linecap:butt;stroke-linejoin:miter;stroke-opacity:1"
         d="m 57.894279,159.03693 -15.732598,9.72478 -7.335343,0.39827 9.48277,-7.52428 z"
         id="path73" />
      <path
         style="fill:#c1ffff;fill-opacity:1;stroke:none;stroke-width:1px;stroke-linecap:butt;stroke-linejoin:miter;stroke-opacity:1"
         d="m 41.671917,177.73289 17.173402,2.75492 6.58301,-3.07471 c -1.490636,-6.25935 -0.661286,-4.74963 0.879113,-8.60074 l -6.876427,-9.40453 -11.854361,2.42324 -9.312622,6.52693 c 2.100331,3.65662 3.135781,2.557 3.407885,9.37489 z"
         id="path63" />
      <path
         style="fill:#666666;stroke:none;stroke-width:1px;stroke-linecap:butt;stroke-linejoin:miter;stroke-opacity:1"
         d="m 45.943317,161.59861 10.6289,11.93098 11.640773,-4.26885 -8.738804,-10.24918 z"
         id="path72" />
    </g>

    <g id="turbine_middle"
       transform="matrix(0.23012152,0,0,0.22458898,28.950821,53.147552)"
       >
      <path
         style="fill:#e6e6e6;stroke:none;stroke-width:1px;stroke-linecap:butt;stroke-linejoin:miter;stroke-opacity:1"
         d="m 75.093266,120.05955 c -21.201395,5.94153 1.030229,33.88581 -1.445262,58.70913 l 4.961323,1.27648 4.71777,-1.42365 c -3.222678,-19.28932 -24.85112,-52.56709 -8.510404,-56.44961 0.199344,-0.13794 1.573895,-0.71509 1.537422,-1.18195 -0.03587,-0.45911 -1.483049,-0.80813 -1.260849,-0.9304 z"
         id="path76" />
      <path
         style="fill:#b3b3b3;stroke:none;stroke-width:1px;stroke-linecap:butt;stroke-linejoin:miter;stroke-opacity:1"
         d="m 73.167796,178.92848 5.093884,1.00085 c -1.220732,-13.64231 -6.383793,-27.49032 -10.755361,-41.13264 -0.795656,-4.51335 -2.353092,-9.0267 -0.07151,-13.54005 -1.777552,2.04045 -2.598736,5.19465 -1.662555,10.3954 3.11556,14.37835 7.694557,29.58341 7.395545,43.27644 z"
         id="path77" />


      <g id="blades_middle"
         transform-origin="76 122"
      >
        <animateTransform id="a_2"
            attributeName="transform" 
            type="rotate"
            from="0" to="360" 
            dur="2s" 
            repeatCount="indefinite"
        />

        <path
           style="fill:url(#radialGradient79);fill-opacity:1;stroke:none;stroke-width:1px;stroke-linecap:butt;stroke-linejoin:miter;stroke-opacity:1"
           d="m 44.37888,144.61763 29.661369,-23.75557 1.788148,-1.85442 -2.102389,-18.25805 3.084448,-24.986191 0.472288,45.367441 11.629463,6.71422 17.523933,16.84724 -31.182978,-22.10425 -10.270176,10.36653 z"
           id="path78" />
      </g>

    </g>
    
    <g id="turbine_right"
       transform="matrix(0.18623623,0,0,0.18175877,45.636946,57.065877)">
      <path
         style="fill:#e6e6e6;stroke:none;stroke-width:1px;stroke-linecap:butt;stroke-linejoin:miter;stroke-opacity:1"
         d="m 75.093266,120.05955 c -21.201395,5.94153 1.030229,33.88581 -1.445262,58.70913 l 4.961323,1.27648 4.71777,-1.42365 c -3.222678,-19.28932 -24.85112,-52.56709 -8.510404,-56.44961 0.199344,-0.13794 1.573895,-0.71509 1.537422,-1.18195 -0.03587,-0.45911 -1.483049,-0.80813 -1.260849,-0.9304 z"
         id="path79" />
      <path
         style="fill:#b3b3b3;stroke:none;stroke-width:1px;stroke-linecap:butt;stroke-linejoin:miter;stroke-opacity:1"
         d="m 73.167796,178.92848 5.093884,1.00085 c -1.220732,-13.64231 -6.383793,-27.49032 -10.755361,-41.13264 -0.795656,-4.51335 -2.353092,-9.0267 -0.07151,-13.54005 -1.777552,2.04045 -2.598736,5.19465 -1.662555,10.3954 3.11556,14.37835 7.694557,29.58341 7.395545,43.27644 z"
         id="path80" />


      <g id="blades_right"
         transform-origin="76 122"
      >

        <animateTransform id="a_3"
            attributeName="transform" 
            type="rotate"
            from="0" to="360" 
            dur="2s" 
            repeatCount="indefinite"
        />

        <path
           style="fill:url(#radialGradient82);fill-opacity:1;stroke:none;stroke-width:1px;stroke-linecap:butt;stroke-linejoin:miter;stroke-opacity:1"
           d="m 44.37888,144.61763 29.661369,-23.75557 1.788148,-1.85442 -2.102389,-18.25805 3.084448,-24.986191 0.472288,45.367441 11.629463,6.71422 17.523933,16.84724 -31.182978,-22.10425 -10.270176,10.36653 z"
           id="path81" />
      </g>

    </g>


    <g id="turbine_left"
       transform="matrix(0.18623623,0,0,0.18175877,19.116183,57.082874)">
      <path
         style="fill:#e6e6e6;stroke:none;stroke-width:1px;stroke-linecap:butt;stroke-linejoin:miter;stroke-opacity:1"
         d="m 75.093266,120.05955 c -21.201395,5.94153 1.030229,33.88581 -1.445262,58.70913 l 4.961323,1.27648 4.71777,-1.42365 c -3.222678,-19.28932 -24.85112,-52.56709 -8.510404,-56.44961 0.199344,-0.13794 1.573895,-0.71509 1.537422,-1.18195 -0.03587,-0.45911 -1.483049,-0.80813 -1.260849,-0.9304 z"
         id="path82" />
      <path
         style="fill:#b3b3b3;stroke:none;stroke-width:1px;stroke-linecap:butt;stroke-linejoin:miter;stroke-opacity:1"
         d="m 73.167796,178.92848 5.093884,1.00085 c -1.220732,-13.64231 -6.383793,-27.49032 -10.755361,-41.13264 -0.795656,-4.51335 -2.353092,-9.0267 -0.07151,-13.54005 -1.777552,2.04045 -2.598736,5.19465 -1.662555,10.3954 3.11556,14.37835 7.694557,29.58341 7.395545,43.27644 z"
         id="path83" />


      <g id="blades_left"
         transform-origin="76 122"
      >
        <animateTransform id="a_4"
            attributeName="transform" 
            type="rotate"
            from="0" to="360" 
            dur="2s" 
            repeatCount="indefinite"
        />

        <path
           style="fill:url(#radialGradient85);fill-opacity:1;stroke:none;stroke-width:1px;stroke-linecap:butt;stroke-linejoin:miter;stroke-opacity:1"
           d="m 44.37888,144.61763 29.661369,-23.75557 1.788148,-1.85442 -2.102389,-18.25805 3.084448,-24.986191 0.472288,45.367441 11.629463,6.71422 17.523933,16.84724 -31.182978,-22.10425 -10.270176,10.36653 z"
           id="path84" />
      </g>
    </g>


  </g>







  <g
     id="layer7">
    <path
       style="fill:#1d8948;fill-opacity:1;stroke:none;stroke-width:1px;stroke-linecap:butt;stroke-linejoin:miter;stroke-opacity:1"
       d="m 134.012,208.25361 223.28437,-0.17097 1.71516,-39.3991 C 286.70904,167.14209 234.69539,203.47893 134.012,208.25361 Z"
       id="path64" />
    <path
       style="fill:#1d8948;fill-opacity:1;stroke:none;stroke-width:1px;stroke-linecap:butt;stroke-linejoin:miter;stroke-opacity:1"
       d="m 245.24893,189.57378 c -2.18548,0.22595 -6.9139,-1.72371 -11.06052,-3.17561 3.57497,0.31113 8.93941,1.81664 10.20747,0.58804 -0.74536,-0.82609 -1.39322,-2.12817 -2.07261,-3.27633 1.57554,1.22743 3.03904,3.82157 4.75361,3.3531 5.06744,0.30318 4.50011,-1.2519 5.95119,-2.14133 -1.41543,3.29773 2.80644,2.24572 7.21635,1.04861 -1.07461,-2.08099 0.005,-2.50909 -0.0104,-3.28098 0.47435,0.2262 2.17754,1.26091 3.71393,0.68282 2.07987,-0.78258 3.96974,-3.19503 3.17453,-2.15932 -2.62116,3.4139 4.45065,2.32441 7.92388,1.96191 l -28.77071,7.9665 -6.7966,-0.83557 z"
       id="path65" />
    <path
       style="fill:#1d8948;fill-opacity:1;stroke:none;stroke-width:1px;stroke-linecap:butt;stroke-linejoin:miter;stroke-opacity:1"
       d="m 197.44362,201.55195 c -2.18548,0.22595 -6.9139,-1.72371 -11.06052,-3.17561 3.57497,0.31113 8.93941,1.81664 10.20747,0.58804 -0.74536,-0.82609 -1.39322,-2.12817 -2.07261,-3.27633 1.57554,1.22743 3.03904,3.82157 4.75361,3.3531 5.06744,0.30318 4.50011,-1.2519 5.95119,-2.14133 -1.41543,3.29773 2.80644,2.24572 7.21635,1.04861 -1.07461,-2.08099 0.005,-2.50909 -0.0104,-3.28098 0.47435,0.2262 2.17754,1.26091 3.71393,0.68282 2.07987,-0.78258 3.96974,-3.19503 3.17453,-2.15932 -2.62116,3.4139 4.45065,2.32441 7.92388,1.96191 l -28.77071,7.9665 -6.7966,-0.83557 z"
       id="path66" />
    <path
       style="fill:#1d8948;fill-opacity:1;stroke:none;stroke-width:1px;stroke-linecap:butt;stroke-linejoin:miter;stroke-opacity:1"
       d="m 309.22983,172.64353 c -2.18548,0.22595 3.49013,-0.16155 -0.65649,-1.61345 3.57497,0.31113 3.86703,1.49244 5.13509,0.26384 -0.74536,-0.82609 0.65135,-4.14925 -0.028,-5.29741 1.57554,1.22743 3.03904,3.82157 4.75361,3.3531 5.06744,0.30318 4.50011,-1.2519 5.95119,-2.14133 -1.41543,3.29773 2.80644,2.24572 7.21635,1.04861 -1.07461,-2.08099 5.32435,1.38329 5.30895,0.6114 0.47435,0.2262 -3.14181,-2.63147 -1.60542,-3.20956 3.24281,4.25009 14.76634,2.22374 13.24991,0.13833 -2.62116,3.4139 -2.17401,4.78767 1.29922,4.42517 l -32.22143,3.20559 -12.44733,2.16004 z"
       id="path67" />
    <path
       style="fill:#1d8948;fill-opacity:1;stroke:none;stroke-width:1px;stroke-linecap:butt;stroke-linejoin:miter;stroke-opacity:1"
       d="m 276.11193,180.1237 c -2.18548,0.22595 3.49013,-0.16155 -0.65649,-1.61345 3.57497,0.31113 3.86703,1.49244 5.13509,0.26384 -0.74536,-0.82609 0.65135,-4.14925 -0.028,-5.29741 1.57554,1.22743 3.03904,3.82157 4.75361,3.3531 5.06744,0.30318 4.50011,-1.2519 5.95119,-2.14133 -1.41543,3.29773 2.80644,2.24572 7.21635,1.04861 -1.07461,-2.08099 5.32435,1.38329 5.30895,0.6114 0.47435,0.2262 -3.14181,-2.63147 -1.60542,-3.20956 3.24281,4.25009 14.76634,2.22374 13.24991,0.13833 -2.62116,3.4139 -2.17401,4.78767 1.29922,4.42517 l -32.22143,3.20559 -12.44733,2.16004 z"
       id="path68" />
    <path
       style="fill:#1d8948;fill-opacity:1;stroke:none;stroke-width:1px;stroke-linecap:butt;stroke-linejoin:miter;stroke-opacity:1"
       d="m 224.74457,192.80602 c -2.18548,0.22595 3.49013,-0.16155 -0.65649,-1.61345 3.57497,0.31113 3.86703,1.49244 5.13509,0.26384 -0.74536,-0.82609 0.65135,-4.14925 -0.028,-5.29741 1.57554,1.22743 3.03904,3.82157 4.75361,3.3531 5.06744,0.30318 4.50011,-1.2519 5.95119,-2.14133 -1.41543,3.29773 2.80644,2.24572 7.21635,1.04861 -1.07461,-2.08099 5.32435,1.38329 5.30895,0.6114 0.47435,0.2262 -3.14181,-2.63147 -1.60542,-3.20956 3.24281,4.25009 14.76634,2.22374 13.24991,0.13833 -2.62116,3.4139 -2.17401,4.78767 1.29922,4.42517 l -32.22143,3.20559 -12.44733,2.16004 z"
       id="path69" />
  </g>



   <script type="text/javascript">
<![CDATA[
/**
 * Get and log to console mouse coordinates on click.
 */
(function() {
   let svg = document.documentElement;
   
   //let textElem = document.getElementById("mouse-coords");

   function getSVGCoords(evt) {
         let pt = svg.createSVGPoint();
         pt.x = evt.clientX;
         pt.y = evt.clientY;
         let transformed = pt.matrixTransform(svg.getScreenCTM().inverse());
         let textContent = `x: ${transformed.x.toFixed(2)}, y: ${transformed.y.toFixed(2)}`;
         console.log( textContent );
   }

   svg.addEventListener("click", getSVGCoords);

})();
]]>
   </script>

</svg>
