<?xml version="1.0" encoding="UTF-8" standalone="no"?>
<!-- Created with Inkscape (http://www.inkscape.org/) -->

<svg
   width="300"
   height="100"
   viewBox="0 0 79.375 26.458334"
   version="1.1"
   id="svg1"
   inkscape:version="1.3.2 (091e20e, 2023-11-25)"
   sodipodi:docname="travelling_wave_v3.svg"
   xmlns:inkscape="http://www.inkscape.org/namespaces/inkscape"
   xmlns:sodipodi="http://sodipodi.sourceforge.net/DTD/sodipodi-0.dtd"
   xmlns="http://www.w3.org/2000/svg"
   xmlns:svg="http://www.w3.org/2000/svg">
  <sodipodi:namedview
     id="namedview1"
     pagecolor="#ffffff"
     bordercolor="#666666"
     borderopacity="1.0"
     inkscape:showpageshadow="2"
     inkscape:pageopacity="0.0"
     inkscape:pagecheckerboard="0"
     inkscape:deskcolor="#d1d1d1"
     inkscape:document-units="px"
     inkscape:zoom="2.3589082"
     inkscape:cx="134.3842"
     inkscape:cy="47.055667"
     inkscape:window-width="1866"
     inkscape:window-height="752"
     inkscape:window-x="101"
     inkscape:window-y="53"
     inkscape:window-maximized="0"
     inkscape:current-layer="layer3"
     showgrid="false">
    <inkscape:grid
       id="grid2"
       units="px"
       originx="0"
       originy="0"
       spacingx="0.26458333"
       spacingy="0.26458334"
       empcolor="#3f3fff"
       empopacity="0.25098039"
       color="#3f3fff"
       opacity="0.1254902"
       empspacing="5"
       dotted="false"
       gridanglex="30"
       gridanglez="30"
       visible="false" />
  </sodipodi:namedview>
  <defs
     id="defs1" />
  <g
     inkscape:label="BAKDROP"
     inkscape:groupmode="layer"
     id="layer1"
     sodipodi:insensitive="true">
    <rect
       style="fill:#e6e6e6;fill-rule:evenodd;stroke:none;stroke-width:0.262452;stroke-linecap:square"
       id="rect1"
       width="79.112549"
       height="26.195881"
       x="0.13122582"
       y="0.13122582" />
  </g>
  <g
     inkscape:groupmode="layer"
     id="layer2"
     inkscape:label="BASE_WAVE"
     sodipodi:insensitive="true"
     style="display:none">
    <rect
       style="display:none;fill:#e6e6e6;fill-rule:evenodd;stroke:#ff0000;stroke-width:0.262452;stroke-linecap:square"
       id="rect2"
       width="79.112549"
       height="26.195881"
       x="0.13122582"
       y="0.13122582"
       inkscape:label="rectangle"
       sodipodi:insensitive="true" />
    <path
       style="display:none;fill:#e6e6e6;fill-rule:evenodd;stroke:#ff0000;stroke-width:0.262452;stroke-linecap:square"
       d="M 0.131226,13.2292 C 0.397598,12.9521 0.66397,12.2663 0.930342,11.9898 1.19671,11.7132 1.46309,11.07 1.72946,10.7952 1.99583,10.5203 2.2622,9.96061 2.52858,9.68853 2.79495,9.41644 3.06132,8.97807 3.32769,8.70986 3.59406,8.44165 3.86044,8.15779 4.12681,7.89453 4.39318,7.63127 4.65955,7.52926 4.92593,7.27201 5.1923,7.01477 5.45867,7.115 5.72504,6.8648 5.99141,6.61461 6.25779,6.92975 6.52416,6.68761 6.79053,6.44548 7.0569,6.97996 7.32328,6.74686 7.58965,6.51375 7.85602,7.26352 8.12239,7.04038 8.38876,6.81725 8.65514,7.76986 8.92151,7.55759 9.18788,7.34533 9.45425,8.48033 9.72063,8.27978 9.987,8.07924 10.2534,9.36887 10.5197,9.18086 c 0.2664,-0.18801 0.5328,1.22214 0.7992,1.04744 0.2663,-0.1748 0.5327,1.3165 0.7991,1.1558 0.2663,-0.1607 0.5327,1.3686 0.7991,1.2225 0.2664,-0.146 0.5327,1.3759 0.7991,1.2451 0.2664,-0.1309 0.5328,1.3376 0.7991,1.2225 0.2664,-0.1151 0.5328,1.2548 0.7991,1.1559 0.2664,-0.0989 0.5328,1.1296 0.7992,1.0474 0.2663,-0.0823 0.5327,0.9664 0.7991,0.901 0.2663,-0.0653 0.5327,0.7704 0.7991,0.7222 0.2664,-0.0481 0.5327,0.548 0.7991,0.5172 0.2664,-0.0307 0.5328,0.3068 0.7991,0.2936 0.2664,-0.0132 0.5328,0.0548 0.7991,0.0592 0.2664,0.0044 0.5328,-0.1991 0.7992,-0.1772 0.2663,0.022 0.5327,-0.4466 0.7991,-0.4072 0.2663,0.0395 0.5327,-0.6793 0.7991,-0.6225 0.2664,0.0568 0.5327,-0.8892 0.7991,-0.8153 0.2664,0.0738 0.5328,-1.0693 0.7991,-0.9787 0.2664,0.0906 0.5328,-1.2137 0.7991,-1.1066 0.2664,0.107 0.5328,-1.3177 0.7992,-1.1946 0.2663,0.123 0.5327,-1.378 0.7991,-1.2394 0.2663,0.1385 0.5327,-1.3929 0.7991,-1.2394 0.2664,0.1535 0.5327,-1.3625 0.7991,-1.1946 0.2664,0.1678 0.5328,-1.28813 0.7991,-1.10667 0.2664,0.18145 0.5328,-1.17304 0.7991,-0.97867 0.2664,0.19437 0.5328,-1.02184 0.7992,-0.81533 0.2663,0.20651 0.5327,-0.84033 0.7991,-0.62252 0.2663,0.21781 0.5327,-0.63544 0.7991,-0.40721 0.2664,0.22824 0.5327,-0.41493 0.7991,-0.17719 0.2664,0.23775 0.5328,-0.18705 0.7991,0.05925 0.2664,0.24629 0.5328,0.03968 0.7991,0.29352 0.2664,0.25385 0.5328,0.25683 0.7992,0.51721 0.2663,0.26038 0.5327,0.45633 0.7991,0.72219 0.2663,0.26587 0.5327,0.6308 0.7991,0.90108 0.2664,0.27029 0.5327,0.77378 0.7991,1.04744 0.2664,0.2736 0.5328,0.88 0.7991,1.1558 0.2664,0.2758 0.5328,0.9456 0.7991,1.2225 0.2664,0.277 0.5328,0.9681 0.7992,1.2451 0.2663,0.2769 0.5327,0.9467 0.7991,1.2225 0.2663,0.2759 0.5327,0.8823 0.7991,1.1559 0.2664,0.2736 0.5327,0.7771 0.7991,1.0474 0.2664,0.2703 0.5328,0.6352 0.7991,0.901 0.2664,0.2659 0.5328,0.4619 0.7991,0.7222 0.2664,0.2604 0.5328,0.2634 0.7992,0.5172 0.2663,0.2539 0.5327,0.0473 0.7991,0.2936 0.2663,0.2463 0.5327,-0.1785 0.7991,0.0592 0.2664,0.2378 0.5327,-0.4054 0.7991,-0.1772 0.2664,0.2283 0.5328,-0.625 0.7991,-0.4072 0.2664,0.2178 0.5328,-0.829 0.7991,-0.6225 0.2664,0.2065 0.5328,-1.0097 0.7992,-0.8153 0.2663,0.1943 0.5327,-1.1602 0.7991,-0.9787 0.2663,0.1815 0.5327,-1.2744 0.7991,-1.1066 0.2664,0.1678 0.5327,-1.3481 0.7991,-1.1946 0.2664,0.1535 0.5328,-1.378 0.7991,-1.2394 0.2664,0.1385 0.5328,-1.3625 0.7991,-1.2394 0.2664,0.123 0.5328,-1.3017 0.7992,-1.1946 0.2663,0.107 0.5327,-1.1973 0.7991,-1.10667 0.2663,0.09062 0.5327,-1.05251 0.7991,-0.97867 0.2664,0.07384 0.5327,-0.87208 0.7991,-0.81533 0.2664,0.05675 0.5328,-0.66195 0.7991,-0.62252 0.2664,0.03944 0.5328,-0.42917 0.7991,-0.40721 0.2664,0.02196 0.5328,-0.18158 0.7992,-0.17719 0.2663,0.0044 0.5327,0.07243 0.7991,0.05925 0.2663,-0.01319 0.5327,0.32424 0.7991,0.29352 0.2664,-0.03071 0.5327,0.56533 0.7991,0.51721 0.2664,-0.04812 0.5328,0.78752 0.7991,0.72219 0.2664,-0.06532 0.5328,0.98336 0.7991,0.90108 0.2664,-0.08227 0.5328,1.14624 0.7992,1.04744 0.2663,-0.0989 0.5327,1.2709 0.7991,1.1558 0.2663,-0.1151 0.5327,1.3534 0.7991,1.2225 0.2664,-0.1308 0.5327,1.3912 0.7991,1.2451 0.2664,-0.1461 0.5328,1.3833 0.7991,1.2225 0.2664,-0.1607 0.5328,1.3306 0.7991,1.1559 0.2664,-0.1747 0.5328,1.2354 0.7992,1.0474 0.2663,-0.188 0.5327,1.1016 0.7991,0.901 0.2663,-0.2005 0.5327,0.9345 0.7991,0.7222 0.2664,-0.2122 0.5327,0.7404 0.7991,0.5172 0.2664,-0.2231 0.5328,0.5267 0.7991,0.2936 0.2664,-0.2331 0.5328,0.3014 0.7991,0.0592 0.2664,-0.2421 0.5328,0.073 0.7992,-0.1772 0.2663,-0.2502 0.5327,-0.1499 0.7991,-0.4072 0.2663,-0.2572 0.5327,-0.3592 0.7991,-0.6225 0.2664,-0.2633 0.5327,-0.5471 0.7991,-0.8153 0.2664,-0.2682 0.5328,-0.7066 0.7991,-0.9787 0.2664,-0.2721 0.5328,-0.8318 0.7991,-1.1066 0.2664,-0.2749 0.5328,-0.9181 0.7992,-1.1946 0.2663,-0.2766 0.5327,-0.9623 0.7991,-1.2394"
       title="0.5*sin(3*x)"
       id="path2"
       inkscape:label="sine3"
       sodipodi:insensitive="true" />
    <rect
       style="fill:#e6e6e6;fill-rule:evenodd;stroke:#ff0000;stroke-width:0.370577;stroke-linecap:square"
       id="rect3"
       width="158.37943"
       height="26.087755"
       x="-79.189713"
       y="0.18528831"
       inkscape:label="rectangle_input"
       sodipodi:insensitive="true" />
    <path
       style="fill:#e6e6e6;fill-rule:evenodd;stroke:#ff0000;stroke-width:0.370577;stroke-linecap:square"
       d="m -79.1897,13.2292 c 0.5333,-0.276 1.0665,-2.1486 1.5998,-2.424 0.5332,-0.2754 1.0665,-1.80296 1.5998,-2.07669 0.5332,-0.27373 1.0665,-1.16095 1.5998,-1.43191 0.5332,-0.27096 1.0665,-0.31488 1.5998,-0.58199 0.5332,-0.2671 1.0665,0.61349 1.5997,0.35132 0.5333,-0.26217 1.0666,1.49047 1.5998,1.23428 0.5333,-0.25618 1.0666,2.18959 1.5998,1.94039 0.5333,-0.24912 1.0666,2.6098 1.5998,2.3686 0.5333,-0.2411 1.0666,2.6896 1.5998,2.4574 0.5333,-0.2321 1.0665,2.4164 1.5998,2.1942 0.5333,-0.2223 1.0665,1.8279 1.5998,1.6165 0.5333,-0.2114 1.0665,1.0071 1.5998,0.8074 0.5333,-0.1997 1.0665,0.0698 1.5998,-0.1174 0.5332,-0.1873 1.0665,-0.8515 1.5998,-1.0255 0.5332,-0.174 1.0665,-1.6265 1.5998,-1.7866 0.5332,-0.1601 1.0665,-2.1463 1.5998,-2.2917 0.5332,-0.1455 1.0665,-2.3383 1.5998,-2.4686 0.5332,-0.1303 1.0665,-2.17713 1.5997,-2.29176 0.5333,-0.11463 1.0666,-1.68811 1.5998,-1.78659 0.5333,-0.09848 1.0666,-0.94354 1.5998,-1.02548 0.5333,-0.08193 1.0666,-0.0524 1.5998,-0.11746 0.5333,-0.06506 1.0666,0.85531 1.5998,0.80739 0.5333,-0.04792 1.0665,1.64716 1.5998,1.61657 0.5333,-0.03059 1.0665,2.20733 1.5998,2.19413 0.5333,-0.0131 1.0665,2.453 1.5998,2.4574 0.5333,0.0044 1.0665,2.3467 1.5998,2.3686 0.5332,0.0219 1.0665,1.9011 1.5998,1.9404 0.5332,0.0393 1.0665,1.1778 1.5998,1.2343 0.5332,0.0565 1.0665,0.2778 1.5998,0.3513 0.5332,0.0736 1.0665,-0.6722 1.5998,-0.582 0.5332,0.0903 1.0665,-1.5385 1.5997,-1.4319 0.5333,0.1066 1.0666,-2.1992 1.5998,-2.0767 0.5333,0.1226 1.0666,-2.5619 1.5998,-2.4239 0.5333,0.1379 1.0666,-2.5768 1.5998,-2.424 0.5333,0.1529 1.0666,-2.24381 1.5998,-2.07669 0.5333,0.16712 1.0665,-1.61262 1.5998,-1.43191 0.5333,0.18071 1.0665,-0.77556 1.5998,-0.58199 0.5333,0.19358 1.0665,0.14566 1.5998,0.35132 0.5333,0.20565 1.0665,1.01737 1.5998,1.23428 0.5332,0.21691 1.0665,1.71309 1.5998,1.94039 0.5332,0.2273 1.0665,2.1319 1.5998,2.3686 0.5332,0.2368 1.0665,2.2121 1.5998,2.4574 0.5332,0.2453 1.0665,1.9414 1.5998,2.1942 0.53322,0.2528 1.06648,1.3572 1.59974,1.6165 0.53327,0.2593 1.06653,0.5426 1.5998,0.8074 0.53326,0.2648 1.06653,-0.3866 1.59979,-0.1174 0.53326,0.2691 1.06653,-1.298 1.59979,-1.0255 0.53327,0.2725 1.06653,-2.0613 1.59979,-1.7866 0.53327,0.2747 1.06653,-2.5676 1.599796,-2.2917 0.533264,0.2758 1.066528,-2.7444 1.599792,-2.4686 C 1.33316,12.2707 1.86643,9.42844 2.39969,9.70314 2.93295,9.97784 3.46622,7.64407 3.99948,7.91655 4.53275,8.18903 5.06601,6.6219 5.59927,6.89107 6.13254,7.16024 6.6658,6.50884 7.19907,6.77361 7.73233,7.03838 8.2656,7.32169 8.79886,7.581 c 0.53326,0.25931 1.06653,1.36377 1.59984,1.61657 0.5332,0.2528 1.0665,1.94883 1.5997,2.19413 0.5333,0.2453 1.0666,2.2207 1.5998,2.4574 0.5333,0.2368 1.0666,2.1413 1.5998,2.3686 0.5333,0.2273 1.0666,1.7235 1.5998,1.9404 0.5333,0.2169 1.0665,1.0286 1.5998,1.2343 0.5333,0.2057 1.0665,0.1577 1.5998,0.3513 0.5333,0.1936 1.0665,-0.7627 1.5998,-0.582 0.5333,0.1807 1.0665,-1.599 1.5998,-1.4319 0.5333,0.1671 1.0665,-2.2295 1.5998,-2.0767 0.5332,0.1529 1.0665,-2.5619 1.5998,-2.4239 0.5332,0.1379 1.0665,-2.5465 1.5998,-2.424 0.5332,0.1225 1.0665,-2.1833 1.5998,-2.07669 0.5332,0.10661 1.0665,-1.52216 1.5998,-1.43191 0.5332,0.09026 1.0665,-0.65552 1.5997,-0.58199 0.5333,0.07354 1.0666,0.2948 1.5998,0.35132 0.5333,0.05651 1.0666,1.19501 1.5998,1.23428 0.5333,0.03928 1.0666,1.91859 1.5998,1.94039 0.5333,0.0219 1.0665,2.3642 1.5998,2.3686 0.5333,0.0044 1.0665,2.4705 1.5998,2.4574 0.5333,-0.0131 1.0665,2.2247 1.5998,2.1942 0.5333,-0.0306 1.0665,1.6644 1.5998,1.6165 0.5333,-0.0479 1.0665,0.8725 1.5998,0.8074 0.5332,-0.065 1.0665,-0.0355 1.5998,-0.1174 0.5332,-0.082 1.0665,-0.927 1.5998,-1.0255 0.5332,-0.0985 1.0665,-1.672 1.5998,-1.7866 0.5332,-0.1146 1.0665,-2.1614 1.5997,-2.2917 0.5333,-0.1304 1.0666,-2.3231 1.5998,-2.4686 0.5333,-0.1455 1.0666,-2.13169 1.5998,-2.29176 0.5333,-0.16007 1.0666,-1.61259 1.5998,-1.78659 0.5333,-0.174 1.0666,-0.83825 1.5998,-1.02548 0.5333,-0.18723 1.0665,0.08226 1.5998,-0.11746 0.5333,-0.19971 1.0665,1.01878 1.5998,0.80739 0.5333,-0.21139 1.0665,1.83878 1.5998,1.61657 0.5333,-0.22221 1.0665,2.42633 1.5998,2.19413 0.5333,-0.2321 1.0665,2.6986 1.5998,2.4574 0.5332,-0.2411 1.0665,2.6178 1.5998,2.3686 0.5332,-0.2492 1.0665,2.1966 1.5998,1.9404 0.5332,-0.2562 1.0665,1.4965 1.5998,1.2343 0.5332,-0.2622 1.0665,0.6184 1.5997,0.3513 0.5333,-0.2671 1.0666,-0.311 1.5998,-0.582 0.5333,-0.2709 1.0666,-1.1582 1.5998,-1.4319 0.5333,-0.2737 1.0666,-1.8013 1.5998,-2.0767 0.5333,-0.2754 1.0666,-2.148 1.5998,-2.4239"
       title="0.5*sin(6*x)"
       id="path4"
       inkscape:label="sine_twice_3"
       sodipodi:insensitive="true" />
  </g>
  <g
     inkscape:groupmode="layer"
     id="layer5"
     inkscape:label="sin_data_frames"
     style="display:inline"
     sodipodi:insensitive="true">
    <path
       style="display:none;fill:none;fill-rule:evenodd;stroke:#ff0000;stroke-width:0.370577;stroke-linecap:square"
       d="m -79.12528,13.364077 c 0.5333,-0.276 1.0665,-2.1486 1.5998,-2.424 0.5332,-0.2754 1.0665,-1.8029597 1.5998,-2.0766897 0.5332,-0.27373 1.0665,-1.16095 1.5998,-1.43191 0.5332,-0.27096 1.0665,-0.31488 1.5998,-0.58199 0.5332,-0.2671 1.0665,0.61349 1.5997,0.35132 0.5333,-0.26217 1.0666,1.49047 1.5998,1.23428 0.5333,-0.25618 1.0666,2.1895897 1.5998,1.9403897 0.5333,-0.24912 1.0666,2.6098 1.5998,2.3686 0.5333,-0.2411 1.0666,2.6896 1.5998,2.4574 0.5333,-0.2321 1.0665,2.4164 1.5998,2.1942 0.5333,-0.2223 1.0665,1.8279 1.5998,1.6165 0.5333,-0.2114 1.0665,1.0071 1.5998,0.8074 0.5333,-0.1997 1.0665,0.0698 1.5998,-0.1174 0.5332,-0.1873 1.0665,-0.8515 1.5998,-1.0255 0.5332,-0.174 1.0665,-1.6265 1.5998,-1.7866 0.5332,-0.1601 1.0665,-2.1463 1.5998,-2.2917 0.5332,-0.1455 1.0665,-2.3383 1.5998,-2.4686 0.5332,-0.1303 1.0665,-2.1771297 1.5997,-2.2917597 0.5333,-0.11463 1.0666,-1.68811 1.5998,-1.78659 0.5333,-0.09848 1.0666,-0.94354 1.5998,-1.02548 0.5333,-0.08193 1.0666,-0.0524 1.5998,-0.11746 0.5333,-0.06506 1.0666,0.85531 1.5998,0.80739 0.5333,-0.04792 1.0665,1.64716 1.5998,1.61657 0.5333,-0.03059 1.0665,2.2073297 1.5998,2.1941297 0.5333,-0.0131 1.0665,2.453 1.5998,2.4574 0.5333,0.0044 1.0665,2.3467 1.5998,2.3686 0.5332,0.0219 1.0665,1.9011 1.5998,1.9404 0.5332,0.0393 1.0665,1.1778 1.5998,1.2343 0.5332,0.0565 1.0665,0.2778 1.5998,0.3513 0.5332,0.0736 1.0665,-0.6722 1.5998,-0.582 0.5332,0.0903 1.0665,-1.5385 1.5997,-1.4319 0.5333,0.1066 1.0666,-2.1992 1.5998,-2.0767 0.5333,0.1226 1.0666,-2.5619 1.5998,-2.4239 0.5333,0.1379 1.0666,-2.5768 1.5998,-2.424 0.5333,0.1529 1.0666,-2.2438097 1.5998,-2.0766897 0.5333,0.16712 1.0665,-1.61262 1.5998,-1.43191 0.5333,0.18071 1.0665,-0.77556 1.5998,-0.58199 0.5333,0.19358 1.0665,0.14566 1.5998,0.35132 0.5333,0.20565 1.0665,1.01737 1.5998,1.23428 0.5332,0.21691 1.0665,1.7130897 1.5998,1.9403897 0.5332,0.2273 1.0665,2.1319 1.5998,2.3686 0.5332,0.2368 1.0665,2.2121 1.5998,2.4574 0.5332,0.2453 1.0665,1.9414 1.5998,2.1942 0.5332195,0.2528 1.0664795,1.3572 1.5997395,1.6165 0.53327,0.2593 1.06653,0.5426 1.5998,0.8074 0.53326,0.2648 1.06653,-0.3866 1.59979,-0.1174 0.53326,0.2691 1.06653,-1.298 1.59979,-1.0255 0.53327,0.2725 1.06653,-2.0613 1.59979,-1.7866 0.53327,0.2747 1.06653,-2.5676 1.59979603,-2.2917 0.533264,0.2758 1.066528,-2.7444 1.599792,-2.4686 0.53326197,0.2758 1.06653197,-2.5664597 1.59979197,-2.2917597 0.53326,0.2746997 1.06653,-2.05907 1.59979,-1.78659 0.53327,0.27248 1.06653,-1.29465 1.59979,-1.02548 0.53327,0.26917 1.06653,-0.38223 1.5998,-0.11746 0.53326,0.26477 1.06653,0.54808 1.59979,0.80739 0.53326,0.25931 1.06653,1.36377 1.5998405,1.61657 0.5332,0.2528 1.0665,1.9488297 1.5997,2.1941297 0.5333,0.2453 1.0666,2.2207 1.5998,2.4574 0.5333,0.2368 1.0666,2.1413 1.5998,2.3686 0.5333,0.2273 1.0666,1.7235 1.5998,1.9404 0.5333,0.2169 1.0665,1.0286 1.5998,1.2343 0.5333,0.2057 1.0665,0.1577 1.5998,0.3513 0.5333,0.1936 1.0665,-0.7627 1.5998,-0.582 0.5333,0.1807 1.0665,-1.599 1.5998,-1.4319 0.5333,0.1671 1.0665,-2.2295 1.5998,-2.0767 0.5332,0.1529 1.0665,-2.5619 1.5998,-2.4239 0.5332,0.1379 1.0665,-2.5465 1.5998,-2.424 0.5332,0.1225 1.0665,-2.1832997 1.5998,-2.0766897 0.5332,0.10661 1.0665,-1.52216 1.5998,-1.43191 0.5332,0.09026 1.0665,-0.65552 1.5997,-0.58199 0.5333,0.07354 1.0666,0.2948 1.5998,0.35132 0.5333,0.05651 1.0666,1.19501 1.5998,1.23428 0.5333,0.03928 1.0666,1.9185897 1.5998,1.9403897 0.5333,0.0219 1.0665,2.3642 1.5998,2.3686 0.5333,0.0044 1.0665,2.4705 1.5998,2.4574 0.5333,-0.0131 1.0665,2.2247 1.5998,2.1942 0.5333,-0.0306 1.0665,1.6644 1.5998,1.6165 0.5333,-0.0479 1.0665,0.8725 1.5998,0.8074 0.5332,-0.065 1.0665,-0.0355 1.5998,-0.1174 0.5332,-0.082 1.0665,-0.927 1.5998,-1.0255 0.5332,-0.0985 1.0665,-1.672 1.5998,-1.7866 0.5332,-0.1146 1.0665,-2.1614 1.5997,-2.2917 0.5333,-0.1304 1.0666,-2.3231 1.5998,-2.4686 0.5333,-0.1455 1.0666,-2.1316897 1.5998,-2.2917597 0.5333,-0.16007 1.0666,-1.61259 1.5998,-1.78659 0.5333,-0.174 1.0666,-0.83825 1.5998,-1.02548 0.5333,-0.18723 1.0665,0.08226 1.5998,-0.11746 0.5333,-0.19971 1.0665,1.01878 1.5998,0.80739 0.5333,-0.21139 1.0665,1.83878 1.5998,1.61657 0.5333,-0.22221 1.0665,2.4263297 1.5998,2.1941297 0.5333,-0.2321 1.0665,2.6986 1.5998,2.4574 0.5332,-0.2411 1.0665,2.6178 1.5998,2.3686 0.5332,-0.2492 1.0665,2.1966 1.5998,1.9404 0.5332,-0.2562 1.0665,1.4965 1.5998,1.2343 0.5332,-0.2622 1.0665,0.6184 1.5997,0.3513 0.5333,-0.2671 1.0666,-0.311 1.5998,-0.582 0.5333,-0.2709 1.0666,-1.1582 1.5998,-1.4319 0.5333,-0.2737 1.0666,-1.8013 1.5998,-2.0767 0.5333,-0.2754 1.0666,-2.148 1.5998,-2.4239"
       title="0.5*sin(6*x)"
       id="path4-2"
       inkscape:label="sine_twice_3_1" />
    <path
       style="display:none;fill:none;fill-rule:evenodd;stroke:#ff0000;stroke-width:0.370577;stroke-linecap:square"
       d="m -75.817989,13.364077 c 0.5333,-0.276 1.0665,-2.1486 1.5998,-2.424 0.5332,-0.2754 1.0665,-1.8029597 1.5998,-2.0766897 0.5332,-0.27373 1.0665,-1.16095 1.5998,-1.43191 0.5332,-0.27096 1.0665,-0.31488 1.5998,-0.58199 0.5332,-0.2671 1.0665,0.61349 1.5997,0.35132 0.5333,-0.26217 1.0666,1.49047 1.5998,1.23428 0.5333,-0.25618 1.0666,2.1895897 1.5998,1.9403897 0.5333,-0.24912 1.0666,2.6098 1.5998,2.3686 0.5333,-0.2411 1.0666,2.6896 1.5998,2.4574 0.5333,-0.2321 1.0665,2.4164 1.5998,2.1942 0.5333,-0.2223 1.0665,1.8279 1.5998,1.6165 0.5333,-0.2114 1.0665,1.0071 1.5998,0.8074 0.5333,-0.1997 1.0665,0.0698 1.5998,-0.1174 0.5332,-0.1873 1.0665,-0.8515 1.5998,-1.0255 0.5332,-0.174 1.0665,-1.6265 1.5998,-1.7866 0.5332,-0.1601 1.0665,-2.1463 1.5998,-2.2917 0.5332,-0.1455 1.0665,-2.3383 1.5998,-2.4686 0.5332,-0.1303 1.0665,-2.1771297 1.5997,-2.2917597 0.5333,-0.11463 1.0666,-1.68811 1.5998,-1.78659 0.5333,-0.09848 1.0666,-0.94354 1.5998,-1.02548 0.5333,-0.08193 1.0666,-0.0524 1.5998,-0.11746 0.5333,-0.06506 1.0666,0.85531 1.5998,0.80739 0.5333,-0.04792 1.0665,1.64716 1.5998,1.61657 0.5333,-0.03059 1.0665,2.2073297 1.5998,2.1941297 0.5333,-0.0131 1.0665,2.453 1.5998,2.4574 0.5333,0.0044 1.0665,2.3467 1.5998,2.3686 0.5332,0.0219 1.0665,1.9011 1.5998,1.9404 0.5332,0.0393 1.0665,1.1778 1.5998,1.2343 0.5332,0.0565 1.0665,0.2778 1.5998,0.3513 0.5332,0.0736 1.0665,-0.6722 1.5998,-0.582 0.5332,0.0903 1.0665,-1.5385 1.5997,-1.4319 0.5333,0.1066 1.0666,-2.1992 1.5998,-2.0767 0.5333,0.1226 1.0666,-2.5619 1.5998,-2.4239 0.5333,0.1379 1.0666,-2.5768 1.5998,-2.424 0.5333,0.1529 1.0666,-2.2438097 1.5998,-2.0766897 0.5333,0.16712 1.0665,-1.61262 1.5998,-1.43191 0.5333,0.18071 1.0665,-0.77556 1.5998,-0.58199 0.5333,0.19358 1.0665,0.14566 1.5998,0.35132 0.5333,0.20565 1.0665,1.01737 1.5998,1.23428 0.5332,0.21691 1.0665,1.7130897 1.5998,1.9403897 0.5332,0.2273 1.0665,2.1319 1.5998,2.3686 0.5332002,0.2368 1.0665002,2.2121 1.5998002,2.4574 0.5332,0.2453 1.0665,1.9414 1.5998,2.1942 0.5332195,0.2528 1.0664795,1.3572 1.5997395,1.6165 0.53327,0.2593 1.06653,0.5426 1.5998,0.8074 0.53326,0.2648 1.06653,-0.3866 1.59979,-0.1174 0.53326,0.2691 1.06653,-1.298 1.59979004,-1.0255 0.53327,0.2725 1.06653,-2.0613 1.59979,-1.7866 0.53326996,0.2747 1.06652996,-2.5676 1.59979606,-2.2917 0.533264,0.2758 1.066528,-2.7444 1.599792,-2.4686 0.5332619,0.2758 1.0665319,-2.5664597 1.5997919,-2.2917597 0.53326,0.2746997 1.06653,-2.05907 1.59979,-1.78659 0.53327,0.27248 1.06653,-1.29465 1.59979,-1.02548 0.53327,0.26917 1.0665303,-0.38223 1.5998003,-0.11746 0.53326,0.26477 1.06653,0.54808 1.59979,0.80739 0.53326,0.25931 1.06653,1.36377 1.59984,1.61657 0.5332,0.2528 1.0665,1.9488297 1.5997,2.1941297 0.5333,0.2453 1.0666,2.2207 1.5998,2.4574 0.5333,0.2368 1.0666,2.1413 1.5998,2.3686 0.5333,0.2273 1.0666,1.7235 1.5998,1.9404 0.5333,0.2169 1.0665,1.0286 1.5998,1.2343 0.5333,0.2057 1.0665,0.1577 1.5998,0.3513 0.5333,0.1936 1.0665,-0.7627 1.5998,-0.582 0.5333,0.1807 1.0665,-1.599 1.5998,-1.4319 0.5333,0.1671 1.0665,-2.2295 1.5998,-2.0767 0.5332,0.1529 1.0665,-2.5619 1.5998,-2.4239 0.5332,0.1379 1.0665,-2.5465 1.5998,-2.424 0.5332,0.1225 1.0665,-2.1832997 1.5998,-2.0766897 0.5332,0.10661 1.0665,-1.52216 1.5998,-1.43191 0.5332,0.09026 1.0665,-0.65552 1.5997,-0.58199 0.5333,0.07354 1.0666,0.2948 1.5998,0.35132 0.5333,0.05651 1.0666,1.19501 1.5998,1.23428 0.5333,0.03928 1.0666,1.9185897 1.5998,1.9403897 0.5333,0.0219 1.0665,2.3642 1.5998,2.3686 0.5333,0.0044 1.0665,2.4705 1.5998,2.4574 0.5333,-0.0131 1.0665,2.2247 1.5998,2.1942 0.5333,-0.0306 1.0665,1.6644 1.5998,1.6165 0.5333,-0.0479 1.0665,0.8725 1.5998,0.8074 0.5332,-0.065 1.0665,-0.0355 1.5998,-0.1174 0.5332,-0.082 1.0665,-0.927 1.5998,-1.0255 0.5332,-0.0985 1.0665,-1.672 1.5998,-1.7866 0.5332,-0.1146 1.0665,-2.1614 1.5997,-2.2917 0.5333,-0.1304 1.0666,-2.3231 1.5998,-2.4686 0.5333,-0.1455 1.0666,-2.1316897 1.5998,-2.2917597 0.5333,-0.16007 1.0666,-1.61259 1.5998,-1.78659 0.5333,-0.174 1.0666,-0.83825 1.5998,-1.02548 0.5333,-0.18723 1.0665,0.08226 1.5998,-0.11746 0.5333,-0.19971 1.0665,1.01878 1.5998,0.80739 0.5333,-0.21139 1.0665,1.83878 1.5998,1.61657 0.5333,-0.22221 1.0665,2.4263297 1.5998,2.1941297 0.5333,-0.2321 1.0665,2.6986 1.5998,2.4574 0.5332,-0.2411 1.0665,2.6178 1.5998,2.3686 0.5332,-0.2492 1.0665,2.1966 1.5998,1.9404 0.5332,-0.2562 1.0665,1.4965 1.5998,1.2343 0.5332,-0.2622 1.0665,0.6184 1.5997,0.3513 0.5333,-0.2671 1.0666,-0.311 1.5998,-0.582 0.5333,-0.2709 1.0666,-1.1582 1.5998,-1.4319 0.5333,-0.2737 1.0666,-1.8013 1.5998,-2.0767 0.5333,-0.2754 1.0666,-2.148 1.5998,-2.4239"
       title="0.5*sin(6*x)"
       id="path5"
       inkscape:label="sine_twice_3_2" />
    <path
       style="display:none;fill:none;fill-rule:evenodd;stroke:#ff0000;stroke-width:0.370577;stroke-linecap:square"
       d="m -72.510697,13.364077 c 0.5333,-0.276 1.0665,-2.1486 1.5998,-2.424 0.5332,-0.2754 1.0665,-1.8029597 1.5998,-2.0766897 0.5332,-0.27373 1.0665,-1.16095 1.5998,-1.43191 0.5332,-0.27096 1.0665,-0.31488 1.5998,-0.58199 0.5332,-0.2671 1.0665,0.61349 1.5997,0.35132 0.5333,-0.26217 1.0666,1.49047 1.5998,1.23428 0.5333,-0.25618 1.0666,2.1895897 1.5998,1.9403897 0.5333,-0.24912 1.0666,2.6098 1.5998,2.3686 0.5333,-0.2411 1.0666,2.6896 1.5998,2.4574 0.5333,-0.2321 1.0665,2.4164 1.5998,2.1942 0.5333,-0.2223 1.0665,1.8279 1.5998,1.6165 0.5333,-0.2114 1.0665,1.0071 1.5998,0.8074 0.5333,-0.1997 1.0665,0.0698 1.5998,-0.1174 0.5332,-0.1873 1.0665,-0.8515 1.5998,-1.0255 0.5332,-0.174 1.0665,-1.6265 1.5998,-1.7866 0.5332,-0.1601 1.0665,-2.1463 1.5998,-2.2917 0.5332,-0.1455 1.0665,-2.3383 1.5998,-2.4686 0.5332,-0.1303 1.0665,-2.1771297 1.5997,-2.2917597 0.5333,-0.11463 1.0666,-1.68811 1.5998,-1.78659 0.5333,-0.09848 1.0666,-0.94354 1.5998,-1.02548 0.5333,-0.08193 1.0666,-0.0524 1.5998,-0.11746 0.5333,-0.06506 1.0666,0.85531 1.5998,0.80739 0.5333,-0.04792 1.0665,1.64716 1.5998,1.61657 0.5333,-0.03059 1.0665,2.2073297 1.5998,2.1941297 0.5333,-0.0131 1.0665,2.453 1.5998,2.4574 0.5333,0.0044 1.0665,2.3467 1.5998,2.3686 0.5332,0.0219 1.0665,1.9011 1.5998,1.9404 0.5332,0.0393 1.0665,1.1778 1.5998,1.2343 0.5332,0.0565 1.0665,0.2778 1.5998,0.3513 0.5332,0.0736 1.0665,-0.6722 1.5998,-0.582 0.5332,0.0903 1.0665,-1.5385 1.5997,-1.4319 0.5333,0.1066 1.0666,-2.1992 1.5998,-2.0767 0.5333,0.1226 1.0666,-2.5619 1.5998,-2.4239 0.5333,0.1379 1.0666,-2.5768 1.5998,-2.424 0.5333,0.1529 1.0666,-2.2438097 1.5998,-2.0766897 0.5333,0.16712 1.0665,-1.61262 1.5998,-1.43191 0.5333,0.18071 1.0665,-0.77556 1.5998,-0.58199 0.5333,0.19358 1.0665,0.14566 1.5998,0.35132 0.5333,0.20565 1.0665,1.01737 1.5998,1.23428 0.5331999,0.21691 1.0664999,1.7130897 1.5997999,1.9403897 0.5332,0.2273 1.0665,2.1319 1.5998,2.3686 0.5332,0.2368 1.0665,2.2121 1.5998,2.4574 0.5332,0.2453 1.0665,1.9414 1.5998,2.1942 0.5332195,0.2528 1.0664795,1.3572 1.5997395,1.6165 0.53327,0.2593 1.06653,0.5426 1.59980005,0.8074 0.53326,0.2648 1.06653,-0.3866 1.59978995,-0.1174 0.53326,0.2691 1.06653,-1.298 1.59979,-1.0255 0.53327,0.2725 1.06653,-2.0613 1.59979,-1.7866 0.53327,0.2747 1.06653,-2.5676 1.5997961,-2.2917 0.533264,0.2758 1.066528,-2.7444 1.599792,-2.4686 0.5332619,0.2758 1.0665319,-2.5664597 1.5997919,-2.2917597 0.53326,0.2746997 1.0665296,-2.05907 1.5997896,-1.78659 0.53327,0.27248 1.06653,-1.29465 1.59979,-1.02548 0.53327,0.26917 1.06653,-0.38223 1.5998,-0.11746 0.53326,0.26477 1.06653,0.54808 1.59979,0.80739 0.53326,0.25931 1.06653,1.36377 1.599841,1.61657 0.5332,0.2528 1.0665,1.9488297 1.5997,2.1941297 0.5333,0.2453 1.0666,2.2207 1.5998,2.4574 0.5333,0.2368 1.0666,2.1413 1.5998,2.3686 0.5333,0.2273 1.0666,1.7235 1.5998,1.9404 0.5333,0.2169 1.0665,1.0286 1.5998,1.2343 0.5333,0.2057 1.0665,0.1577 1.5998,0.3513 0.5333,0.1936 1.0665,-0.7627 1.5998,-0.582 0.5333,0.1807 1.0665,-1.599 1.5998,-1.4319 0.5333,0.1671 1.0665,-2.2295 1.5998,-2.0767 0.5332,0.1529 1.0665,-2.5619 1.5998,-2.4239 0.5332,0.1379 1.0665,-2.5465 1.5998,-2.424 0.5332,0.1225 1.0665,-2.1832997 1.5998,-2.0766897 0.5332,0.10661 1.0665,-1.52216 1.5998,-1.43191 0.5332,0.09026 1.0665,-0.65552 1.5997,-0.58199 0.5333,0.07354 1.0666,0.2948 1.5998,0.35132 0.5333,0.05651 1.0666,1.19501 1.5998,1.23428 0.5333,0.03928 1.0666,1.9185897 1.5998,1.9403897 0.5333,0.0219 1.0665,2.3642 1.5998,2.3686 0.5333,0.0044 1.0665,2.4705 1.5998,2.4574 0.5333,-0.0131 1.0665,2.2247 1.5998,2.1942 0.5333,-0.0306 1.0665,1.6644 1.5998,1.6165 0.5333,-0.0479 1.0665,0.8725 1.5998,0.8074 0.5332,-0.065 1.0665,-0.0355 1.5998,-0.1174 0.5332,-0.082 1.0665,-0.927 1.5998,-1.0255 0.5332,-0.0985 1.0665,-1.672 1.5998,-1.7866 0.5332,-0.1146 1.0665,-2.1614 1.5997,-2.2917 0.5333,-0.1304 1.0666,-2.3231 1.5998,-2.4686 0.5333,-0.1455 1.0666,-2.1316897 1.5998,-2.2917597 0.5333,-0.16007 1.0666,-1.61259 1.5998,-1.78659 0.5333,-0.174 1.0666,-0.83825 1.5998,-1.02548 0.5333,-0.18723 1.0665,0.08226 1.5998,-0.11746 0.5333,-0.19971 1.0665,1.01878 1.5998,0.80739 0.5333,-0.21139 1.0665,1.83878 1.5998,1.61657 0.5333,-0.22221 1.0665,2.4263297 1.5998,2.1941297 0.5333,-0.2321 1.0665,2.6986 1.5998,2.4574 0.5332,-0.2411 1.0665,2.6178 1.5998,2.3686 0.5332,-0.2492 1.0665,2.1966 1.5998,1.9404 0.5332,-0.2562 1.0665,1.4965 1.5998,1.2343 0.5332,-0.2622 1.0665,0.6184 1.5997,0.3513 0.5333,-0.2671 1.0666,-0.311 1.5998,-0.582 0.5333,-0.2709 1.0666,-1.1582 1.5998,-1.4319 0.5333,-0.2737 1.0666,-1.8013 1.5998,-2.0767 0.5333,-0.2754 1.0666,-2.148 1.5998,-2.4239"
       title="0.5*sin(6*x)"
       id="path6"
       inkscape:label="sine_twice_3_3" />
    <path
       style="display:none;fill:none;fill-rule:evenodd;stroke:#ff0000;stroke-width:0.370577;stroke-linecap:square"
       d="m -69.203405,13.364077 c 0.5333,-0.276 1.0665,-2.1486 1.5998,-2.424 0.5332,-0.2754 1.0665,-1.8029597 1.5998,-2.0766897 0.5332,-0.27373 1.0665,-1.16095 1.5998,-1.43191 0.5332,-0.27096 1.0665,-0.31488 1.5998,-0.58199 0.5332,-0.2671 1.0665,0.61349 1.5997,0.35132 0.5333,-0.26217 1.0666,1.49047 1.5998,1.23428 0.5333,-0.25618 1.0666,2.1895897 1.5998,1.9403897 0.5333,-0.24912 1.0666,2.6098 1.5998,2.3686 0.5333,-0.2411 1.0666,2.6896 1.5998,2.4574 0.5333,-0.2321 1.0665,2.4164 1.5998,2.1942 0.5333,-0.2223 1.0665,1.8279 1.5998,1.6165 0.5333,-0.2114 1.0665,1.0071 1.5998,0.8074 0.5333,-0.1997 1.0665,0.0698 1.5998,-0.1174 0.5332,-0.1873 1.0665,-0.8515 1.5998,-1.0255 0.5332,-0.174 1.0665,-1.6265 1.5998,-1.7866 0.5332,-0.1601 1.0665,-2.1463 1.5998,-2.2917 0.5332,-0.1455 1.0665,-2.3383 1.5998,-2.4686 0.5332,-0.1303 1.0665,-2.1771297 1.5997,-2.2917597 0.5333,-0.11463 1.0666,-1.68811 1.5998,-1.78659 0.5333,-0.09848 1.0666,-0.94354 1.5998,-1.02548 0.5333,-0.08193 1.0666,-0.0524 1.5998,-0.11746 0.5333,-0.06506 1.0666,0.85531 1.5998,0.80739 0.5333,-0.04792 1.0665,1.64716 1.5998,1.61657 0.5333,-0.03059 1.0665,2.2073297 1.5998,2.1941297 0.5333,-0.0131 1.0665,2.453 1.5998,2.4574 0.5333,0.0044 1.0665,2.3467 1.5998,2.3686 0.5332,0.0219 1.0665,1.9011 1.5998,1.9404 0.5332,0.0393 1.0665,1.1778 1.5998,1.2343 0.5332,0.0565 1.0665,0.2778 1.5998,0.3513 0.5332,0.0736 1.0665,-0.6722 1.5998,-0.582 0.5332,0.0903 1.0665,-1.5385 1.5997,-1.4319 0.5333,0.1066 1.0666,-2.1992 1.5998,-2.0767 0.5333,0.1226 1.0666,-2.5619 1.5998,-2.4239 0.5333,0.1379 1.0666,-2.5768 1.5998,-2.424 0.5333,0.1529 1.0666,-2.2438097 1.5998,-2.0766897 0.5333,0.16712 1.0665,-1.61262 1.5998,-1.43191 0.5333,0.18071 1.0665,-0.77556 1.5998,-0.58199 0.5332997,0.19358 1.0664997,0.14566 1.5997997,0.35132 0.5333,0.20565 1.0665,1.01737 1.5998,1.23428 0.5332,0.21691 1.0665,1.7130897 1.5998,1.9403897 0.5332,0.2273 1.0665,2.1319 1.5998,2.3686 0.5332,0.2368 1.0665,2.2121 1.5998,2.4574 0.5332,0.2453 1.06649996,1.9414 1.59979996,2.1942 0.5332195,0.2528 1.0664795,1.3572 1.59973954,1.6165 0.53327,0.2593 1.06653,0.5426 1.5998,0.8074 0.53326,0.2648 1.06653,-0.3866 1.59979,-0.1174 0.53326,0.2691 1.06653,-1.298 1.59979,-1.0255 0.53327,0.2725 1.06653,-2.0613 1.59979,-1.7866 0.53327,0.2747 1.06653,-2.5676 1.599796,-2.2917 0.533264,0.2758 1.0665278,-2.7444 1.5997918,-2.4686 0.533262,0.2758 1.066532,-2.5664597 1.599792,-2.2917597 0.53326,0.2746997 1.06653,-2.05907 1.59979,-1.78659 0.53327,0.27248 1.06653,-1.29465 1.59979,-1.02548 0.53327,0.26917 1.06653,-0.38223 1.5998,-0.11746 0.53326,0.26477 1.06653,0.54808 1.59979,0.80739 0.53326,0.25931 1.06653,1.36377 1.599841,1.61657 0.5332,0.2528 1.0665,1.9488297 1.5997,2.1941297 0.5333,0.2453 1.0666,2.2207 1.5998,2.4574 0.5333,0.2368 1.0666,2.1413 1.5998,2.3686 0.5333,0.2273 1.0666,1.7235 1.5998,1.9404 0.5333,0.2169 1.0665,1.0286 1.5998,1.2343 0.5333,0.2057 1.0665,0.1577 1.5998,0.3513 0.5333,0.1936 1.0665,-0.7627 1.5998,-0.582 0.5333,0.1807 1.0665,-1.599 1.5998,-1.4319 0.5333,0.1671 1.0665,-2.2295 1.5998,-2.0767 0.5332,0.1529 1.0665,-2.5619 1.5998,-2.4239 0.5332,0.1379 1.0665,-2.5465 1.5998,-2.424 0.5332,0.1225 1.0665,-2.1832997 1.5998,-2.0766897 0.5332,0.10661 1.0665,-1.52216 1.5998,-1.43191 0.5332,0.09026 1.0665,-0.65552 1.5997,-0.58199 0.5333,0.07354 1.0666,0.2948 1.5998,0.35132 0.5333,0.05651 1.0666,1.19501 1.5998,1.23428 0.5333,0.03928 1.0666,1.9185897 1.5998,1.9403897 0.5333,0.0219 1.0665,2.3642 1.5998,2.3686 0.5333,0.0044 1.0665,2.4705 1.5998,2.4574 0.5333,-0.0131 1.0665,2.2247 1.5998,2.1942 0.5333,-0.0306 1.0665,1.6644 1.5998,1.6165 0.5333,-0.0479 1.0665,0.8725 1.5998,0.8074 0.5332,-0.065 1.0665,-0.0355 1.5998,-0.1174 0.5332,-0.082 1.0665,-0.927 1.5998,-1.0255 0.5332,-0.0985 1.0665,-1.672 1.5998,-1.7866 0.5332,-0.1146 1.0665,-2.1614 1.5997,-2.2917 0.5333,-0.1304 1.0666,-2.3231 1.5998,-2.4686 0.5333,-0.1455 1.0666,-2.1316897 1.5998,-2.2917597 0.5333,-0.16007 1.0666,-1.61259 1.5998,-1.78659 0.5333,-0.174 1.0666,-0.83825 1.5998,-1.02548 0.5333,-0.18723 1.0665,0.08226 1.5998,-0.11746 0.5333,-0.19971 1.0665,1.01878 1.5998,0.80739 0.5333,-0.21139 1.0665,1.83878 1.5998,1.61657 0.5333,-0.22221 1.0665,2.4263297 1.5998,2.1941297 0.5333,-0.2321 1.0665,2.6986 1.5998,2.4574 0.5332,-0.2411 1.0665,2.6178 1.5998,2.3686 0.5332,-0.2492 1.0665,2.1966 1.5998,1.9404 0.5332,-0.2562 1.0665,1.4965 1.5998,1.2343 0.5332,-0.2622 1.0665,0.6184 1.5997,0.3513 0.5333,-0.2671 1.0666,-0.311 1.5998,-0.582 0.5333,-0.2709 1.0666,-1.1582 1.5998,-1.4319 0.5333,-0.2737 1.0666,-1.8013 1.5998,-2.0767 0.5333,-0.2754 1.0666,-2.148 1.5998,-2.4239"
       title="0.5*sin(6*x)"
       id="path7"
       inkscape:label="sine_twice_3_4" />
    <path
       style="display:none;fill:none;fill-rule:evenodd;stroke:#ff0000;stroke-width:0.370577;stroke-linecap:square"
       d="m -65.896114,13.364077 c 0.5333,-0.276 1.0665,-2.1486 1.5998,-2.424 0.5332,-0.2754 1.0665,-1.8029597 1.5998,-2.0766897 0.5332,-0.27373 1.0665,-1.16095 1.5998,-1.43191 0.5332,-0.27096 1.0665,-0.31488 1.5998,-0.58199 0.5332,-0.2671 1.0665,0.61349 1.5997,0.35132 0.5333,-0.26217 1.0666,1.49047 1.5998,1.23428 0.5333,-0.25618 1.0666,2.1895897 1.5998,1.9403897 0.5333,-0.24912 1.0666,2.6098 1.5998,2.3686 0.5333,-0.2411 1.0666,2.6896 1.5998,2.4574 0.5333,-0.2321 1.0665,2.4164 1.5998,2.1942 0.5333,-0.2223 1.0665,1.8279 1.5998,1.6165 0.5333,-0.2114 1.0665,1.0071 1.5998,0.8074 0.5333,-0.1997 1.0665,0.0698 1.5998,-0.1174 0.5332,-0.1873 1.0665,-0.8515 1.5998,-1.0255 0.5332,-0.174 1.0665,-1.6265 1.5998,-1.7866 0.5332,-0.1601 1.0665,-2.1463 1.5998,-2.2917 0.5332,-0.1455 1.0665,-2.3383 1.5998,-2.4686 0.5332,-0.1303 1.0665,-2.1771297 1.5997,-2.2917597 0.5333,-0.11463 1.0666,-1.68811 1.5998,-1.78659 0.5333,-0.09848 1.0666,-0.94354 1.5998,-1.02548 0.5333,-0.08193 1.0666,-0.0524 1.5998,-0.11746 0.5333,-0.06506 1.0666,0.85531 1.5998,0.80739 0.5333,-0.04792 1.0665,1.64716 1.5998,1.61657 0.5333,-0.03059 1.0665,2.2073297 1.5998,2.1941297 0.5333,-0.0131 1.0665,2.453 1.5998,2.4574 0.5333,0.0044 1.0665,2.3467 1.5998,2.3686 0.5332,0.0219 1.0665,1.9011 1.5998,1.9404 0.5332,0.0393 1.0665,1.1778 1.5998,1.2343 0.5332,0.0565 1.0665,0.2778 1.5998,0.3513 0.5332,0.0736 1.0665,-0.6722 1.5998,-0.582 0.5332,0.0903 1.0665,-1.5385 1.5997,-1.4319 0.5333,0.1066 1.0666,-2.1992 1.5998,-2.0767 0.5333,0.1226 1.0666,-2.5619 1.5998,-2.4239 0.5333,0.1379 1.0666,-2.5768 1.5998,-2.424 0.5333,0.1529 1.0666,-2.2438097 1.5998004,-2.0766897 0.5333,0.16712 1.0665,-1.61262 1.5998,-1.43191 0.5333,0.18071 1.0665,-0.77556 1.5998,-0.58199 0.5333,0.19358 1.0665,0.14566 1.5998,0.35132 0.5333,0.20565 1.0665,1.01737 1.5998,1.23428 0.5332,0.21691 1.0665,1.7130897 1.5998,1.9403897 0.5332,0.2273 1.06649997,2.1319 1.59979997,2.3686 0.5332,0.2368 1.0665,2.2121 1.59980003,2.4574 0.5332,0.2453 1.0665,1.9414 1.5998,2.1942 0.5332195,0.2528 1.0664795,1.3572 1.5997395,1.6165 0.53327,0.2593 1.06653,0.5426 1.5998,0.8074 0.53326,0.2648 1.06653,-0.3866 1.59979,-0.1174 0.53326,0.2691 1.06653,-1.298 1.59979,-1.0255 0.53327,0.2725 1.0665301,-2.0613 1.5997901,-1.7866 0.53327,0.2747 1.06653,-2.5676 1.599796,-2.2917 0.533264,0.2758 1.066528,-2.7444 1.599792,-2.4686 0.533262,0.2758 1.066532,-2.5664597 1.599792,-2.2917597 0.53326,0.2746997 1.06653,-2.05907 1.59979,-1.78659 0.53327,0.27248 1.06653,-1.29465 1.59979,-1.02548 0.53327,0.26917 1.06653,-0.38223 1.5998,-0.11746 0.53326,0.26477 1.06653,0.54808 1.59979,0.80739 0.53326,0.25931 1.06653,1.36377 1.59984,1.61657 0.5332,0.2528 1.0665,1.9488297 1.5997,2.1941297 0.5333,0.2453 1.0666,2.2207 1.5998,2.4574 0.5333,0.2368 1.0666,2.1413 1.5998,2.3686 0.5333,0.2273 1.0666,1.7235 1.5998,1.9404 0.5333,0.2169 1.0665,1.0286 1.5998,1.2343 0.5333,0.2057 1.0665,0.1577 1.5998,0.3513 0.5333,0.1936 1.0665,-0.7627 1.5998,-0.582 0.5333,0.1807 1.0665,-1.599 1.5998,-1.4319 0.5333,0.1671 1.0665,-2.2295 1.5998,-2.0767 0.5332,0.1529 1.0665,-2.5619 1.5998,-2.4239 0.5332,0.1379 1.0665,-2.5465 1.5998,-2.424 0.5332,0.1225 1.0665,-2.1832997 1.5998,-2.0766897 0.5332,0.10661 1.0665,-1.52216 1.5998,-1.43191 0.5332,0.09026 1.0665,-0.65552 1.5997,-0.58199 0.5333,0.07354 1.0666,0.2948 1.5998,0.35132 0.5333,0.05651 1.0666,1.19501 1.5998,1.23428 0.5333,0.03928 1.0666,1.9185897 1.5998,1.9403897 0.5333,0.0219 1.0665,2.3642 1.5998,2.3686 0.5333,0.0044 1.0665,2.4705 1.5998,2.4574 0.5333,-0.0131 1.0665,2.2247 1.5998,2.1942 0.5333,-0.0306 1.0665,1.6644 1.5998,1.6165 0.5333,-0.0479 1.0665,0.8725 1.5998,0.8074 0.5332,-0.065 1.0665,-0.0355 1.5998,-0.1174 0.5332,-0.082 1.0665,-0.927 1.5998,-1.0255 0.5332,-0.0985 1.0665,-1.672 1.5998,-1.7866 0.5332,-0.1146 1.0665,-2.1614 1.5997,-2.2917 0.5333,-0.1304 1.0666,-2.3231 1.5998,-2.4686 0.5333,-0.1455 1.0666,-2.1316897 1.5998,-2.2917597 0.5333,-0.16007 1.0666,-1.61259 1.5998,-1.78659 0.5333,-0.174 1.0666,-0.83825 1.5998,-1.02548 0.5333,-0.18723 1.0665,0.08226 1.5998,-0.11746 0.5333,-0.19971 1.0665,1.01878 1.5998,0.80739 0.5333,-0.21139 1.0665,1.83878 1.5998,1.61657 0.5333,-0.22221 1.0665,2.4263297 1.5998,2.1941297 0.5333,-0.2321 1.0665,2.6986 1.5998,2.4574 0.5332,-0.2411 1.0665,2.6178 1.5998,2.3686 0.5332,-0.2492 1.0665,2.1966 1.5998,1.9404 0.5332,-0.2562 1.0665,1.4965 1.5998,1.2343 0.5332,-0.2622 1.0665,0.6184 1.5997,0.3513 0.5333,-0.2671 1.0666,-0.311 1.5998,-0.582 0.5333,-0.2709 1.0666,-1.1582 1.5998,-1.4319 0.5333,-0.2737 1.0666,-1.8013 1.5998,-2.0767 0.5333,-0.2754 1.0666,-2.148 1.5998,-2.4239"
       title="0.5*sin(6*x)"
       id="path8"
       inkscape:label="sine_twice_3_5" />
    <path
       style="display:none;fill:none;fill-rule:evenodd;stroke:#ff0000;stroke-width:0.370577;stroke-linecap:square"
       d="m -62.588822,13.364077 c 0.5333,-0.276 1.0665,-2.1486 1.5998,-2.424 0.5332,-0.2754 1.0665,-1.8029597 1.5998,-2.0766897 0.5332,-0.27373 1.0665,-1.16095 1.5998,-1.43191 0.5332,-0.27096 1.0665,-0.31488 1.5998,-0.58199 0.5332,-0.2671 1.0665,0.61349 1.5997,0.35132 0.5333,-0.26217 1.0666,1.49047 1.5998,1.23428 0.5333,-0.25618 1.0666,2.1895897 1.5998,1.9403897 0.5333,-0.24912 1.0666,2.6098 1.5998,2.3686 0.5333,-0.2411 1.0666,2.6896 1.5998,2.4574 0.5333,-0.2321 1.0665,2.4164 1.5998,2.1942 0.5333,-0.2223 1.0665,1.8279 1.5998,1.6165 0.5333,-0.2114 1.0665,1.0071 1.5998,0.8074 0.5333,-0.1997 1.0665,0.0698 1.5998,-0.1174 0.5332,-0.1873 1.0665,-0.8515 1.5998,-1.0255 0.5332,-0.174 1.0665,-1.6265 1.5998,-1.7866 0.5332,-0.1601 1.0665,-2.1463 1.5998,-2.2917 0.5332,-0.1455 1.0665,-2.3383 1.5998,-2.4686 0.5332,-0.1303 1.0665,-2.1771297 1.5997,-2.2917597 0.5333,-0.11463 1.0666,-1.68811 1.5998,-1.78659 0.5333,-0.09848 1.0666,-0.94354 1.5998,-1.02548 0.5333,-0.08193 1.0666,-0.0524 1.5998,-0.11746 0.5333,-0.06506 1.0666,0.85531 1.5998,0.80739 0.5333,-0.04792 1.0665,1.64716 1.5998,1.61657 0.5333,-0.03059 1.0665,2.2073297 1.5998,2.1941297 0.5333,-0.0131 1.0665,2.453 1.5998,2.4574 0.5333,0.0044 1.0665,2.3467 1.5998,2.3686 0.5332,0.0219 1.0665,1.9011 1.5998,1.9404 0.5332,0.0393 1.0665,1.1778 1.5998,1.2343 0.5332,0.0565 1.0665,0.2778 1.5998,0.3513 0.5332,0.0736 1.0665,-0.6722 1.5998,-0.582 0.5332,0.0903 1.0665,-1.5385 1.5997,-1.4319 0.5333,0.1066 1.0666,-2.1992 1.5998,-2.0767 0.5333,0.1226 1.0666,-2.5619 1.5998001,-2.4239 0.5333,0.1379 1.0666,-2.5768 1.5998,-2.424 0.5333,0.1529 1.0666,-2.2438097 1.5998,-2.0766897 0.5333,0.16712 1.0665,-1.61262 1.5998,-1.43191 0.5333,0.18071 1.0665,-0.77556 1.5998,-0.58199 0.5333,0.19358 1.0665,0.14566 1.5998,0.35132 0.5333,0.20565 1.06649997,1.01737 1.59979997,1.23428 0.5332,0.21691 1.0665,1.7130897 1.59980003,1.9403897 0.5332,0.2273 1.0665,2.1319 1.5998,2.3686 0.5332,0.2368 1.0665,2.2121 1.5998,2.4574 0.5332,0.2453 1.0665,1.9414 1.5998,2.1942 0.5332195,0.2528 1.0664795,1.3572 1.5997395,1.6165 0.53327,0.2593 1.06653,0.5426 1.5998,0.8074 0.53326,0.2648 1.0665304,-0.3866 1.5997904,-0.1174 0.53326,0.2691 1.06653,-1.298 1.59979,-1.0255 0.53327,0.2725 1.06653,-2.0613 1.59979,-1.7866 0.53327,0.2747 1.06653,-2.5676 1.599796,-2.2917 0.533264,0.2758 1.066528,-2.7444 1.599792,-2.4686 0.533262,0.2758 1.066532,-2.5664597 1.599792,-2.2917597 0.53326,0.2746997 1.06653,-2.05907 1.59979,-1.78659 0.53327,0.27248 1.06653,-1.29465 1.59979,-1.02548 0.53327,0.26917 1.06653,-0.38223 1.5998,-0.11746 0.53326,0.26477 1.06653,0.54808 1.59979,0.80739 0.53326,0.25931 1.06653,1.36377 1.59984,1.61657 0.5332,0.2528 1.0665,1.9488297 1.5997,2.1941297 0.5333,0.2453 1.0666,2.2207 1.5998,2.4574 0.5333,0.2368 1.0666,2.1413 1.5998,2.3686 0.5333,0.2273 1.0666,1.7235 1.5998,1.9404 0.5333,0.2169 1.0665,1.0286 1.5998,1.2343 0.5333,0.2057 1.0665,0.1577 1.5998,0.3513 0.5333,0.1936 1.0665,-0.7627 1.5998,-0.582 0.5333,0.1807 1.0665,-1.599 1.5998,-1.4319 0.5333,0.1671 1.0665,-2.2295 1.5998,-2.0767 0.5332,0.1529 1.0665,-2.5619 1.5998,-2.4239 0.5332,0.1379 1.0665,-2.5465 1.5998,-2.424 0.5332,0.1225 1.0665,-2.1832997 1.5998,-2.0766897 0.5332,0.10661 1.0665,-1.52216 1.5998,-1.43191 0.5332,0.09026 1.0665,-0.65552 1.5997,-0.58199 0.5333,0.07354 1.0666,0.2948 1.5998,0.35132 0.5333,0.05651 1.0666,1.19501 1.5998,1.23428 0.5333,0.03928 1.0666,1.9185897 1.5998,1.9403897 0.5333,0.0219 1.0665,2.3642 1.5998,2.3686 0.5333,0.0044 1.0665,2.4705 1.5998,2.4574 0.5333,-0.0131 1.0665,2.2247 1.5998,2.1942 0.5333,-0.0306 1.0665,1.6644 1.5998,1.6165 0.5333,-0.0479 1.0665,0.8725 1.5998,0.8074 0.5332,-0.065 1.0665,-0.0355 1.5998,-0.1174 0.5332,-0.082 1.0665,-0.927 1.5998,-1.0255 0.5332,-0.0985 1.0665,-1.672 1.5998,-1.7866 0.5332,-0.1146 1.0665,-2.1614 1.5997,-2.2917 0.5333,-0.1304 1.0666,-2.3231 1.5998,-2.4686 0.5333,-0.1455 1.0666,-2.1316897 1.5998,-2.2917597 0.5333,-0.16007 1.0666,-1.61259 1.5998,-1.78659 0.5333,-0.174 1.0666,-0.83825 1.5998,-1.02548 0.5333,-0.18723 1.0665,0.08226 1.5998,-0.11746 0.5333,-0.19971 1.0665,1.01878 1.5998,0.80739 0.5333,-0.21139 1.0665,1.83878 1.5998,1.61657 0.5333,-0.22221 1.0665,2.4263297 1.5998,2.1941297 0.5333,-0.2321 1.0665,2.6986 1.5998,2.4574 0.5332,-0.2411 1.0665,2.6178 1.5998,2.3686 0.5332,-0.2492 1.0665,2.1966 1.5998,1.9404 0.5332,-0.2562 1.0665,1.4965 1.5998,1.2343 0.5332,-0.2622 1.0665,0.6184 1.5997,0.3513 0.5333,-0.2671 1.0666,-0.311 1.5998,-0.582 0.5333,-0.2709 1.0666,-1.1582 1.5998,-1.4319 0.5333,-0.2737 1.0666,-1.8013 1.5998,-2.0767 0.5333,-0.2754 1.0666,-2.148 1.5998,-2.4239"
       title="0.5*sin(6*x)"
       id="path9"
       inkscape:label="sine_twice_3_6" />
    <path
       style="display:none;fill:none;fill-rule:evenodd;stroke:#ff0000;stroke-width:0.370577;stroke-linecap:square"
       d="m -59.28153,13.364077 c 0.5333,-0.276 1.0665,-2.1486 1.5998,-2.424 0.5332,-0.2754 1.0665,-1.8029597 1.5998,-2.0766897 0.5332,-0.27373 1.0665,-1.16095 1.5998,-1.43191 0.5332,-0.27096 1.0665,-0.31488 1.5998,-0.58199 0.5332,-0.2671 1.0665,0.61349 1.5997,0.35132 0.5333,-0.26217 1.0666,1.49047 1.5998,1.23428 0.5333,-0.25618 1.0666,2.1895897 1.5998,1.9403897 0.5333,-0.24912 1.0666,2.6098 1.5998,2.3686 0.5333,-0.2411 1.0666,2.6896 1.5998,2.4574 0.5333,-0.2321 1.0665,2.4164 1.5998,2.1942 0.5333,-0.2223 1.0665,1.8279 1.5998,1.6165 0.5333,-0.2114 1.0665,1.0071 1.5998,0.8074 0.5333,-0.1997 1.0665,0.0698 1.5998,-0.1174 0.5332,-0.1873 1.0665,-0.8515 1.5998,-1.0255 0.5332,-0.174 1.0665,-1.6265 1.5998,-1.7866 0.5332,-0.1601 1.0665,-2.1463 1.5998,-2.2917 0.5332,-0.1455 1.0665,-2.3383 1.5998,-2.4686 0.5332,-0.1303 1.0665,-2.1771297 1.5997,-2.2917597 0.5333,-0.11463 1.0666,-1.68811 1.5998,-1.78659 0.5333,-0.09848 1.0666,-0.94354 1.5998,-1.02548 0.5333,-0.08193 1.0666,-0.0524 1.5998,-0.11746 0.5333,-0.06506 1.0666,0.85531 1.5998,0.80739 0.5333,-0.04792 1.0665,1.64716 1.5998,1.61657 0.5333,-0.03059 1.0665,2.2073297 1.5998,2.1941297 0.5333,-0.0131 1.0665,2.453 1.5998,2.4574 0.5333,0.0044 1.0665,2.3467 1.5998,2.3686 0.5332,0.0219 1.0665,1.9011 1.5998,1.9404 0.5332,0.0393 1.0665,1.1778 1.5998,1.2343 0.5332,0.0565 1.0665,0.2778 1.5998,0.3513 0.5332,0.0736 1.0665,-0.6722 1.5998,-0.582 0.5332,0.0903 1.0665,-1.5385 1.5996998,-1.4319 0.5333,0.1066 1.0666,-2.1992 1.5998,-2.0767 0.5333,0.1226 1.0666,-2.5619 1.5998,-2.4239 0.5333,0.1379 1.0666,-2.5768 1.5998,-2.424 0.5333,0.1529 1.0666,-2.2438097 1.5998,-2.0766897 0.5333,0.16712 1.0665,-1.61262 1.5998,-1.43191 0.5333,0.18071 1.06649998,-0.77556 1.59979998,-0.58199 0.5333,0.19358 1.0665,0.14566 1.59980002,0.35132 0.5333,0.20565 1.0665,1.01737 1.5998,1.23428 0.5332,0.21691 1.0665,1.7130897 1.5998,1.9403897 0.5332,0.2273 1.0665,2.1319 1.5998,2.3686 0.5332,0.2368 1.0665,2.2121 1.5998,2.4574 0.5332,0.2453 1.0665,1.9414 1.5998,2.1942 0.5332192,0.2528 1.0664792,1.3572 1.5997392,1.6165 0.53327,0.2593 1.06653,0.5426 1.5998,0.8074 0.53326,0.2648 1.06653,-0.3866 1.59979,-0.1174 0.53326,0.2691 1.06653,-1.298 1.59979,-1.0255 0.53327,0.2725 1.06653,-2.0613 1.59979,-1.7866 0.53327,0.2747 1.06653,-2.5676 1.599796,-2.2917 0.533264,0.2758 1.066528,-2.7444 1.599792,-2.4686 0.533262,0.2758 1.066532,-2.5664597 1.599792,-2.2917597 0.53326,0.2746997 1.06653,-2.05907 1.59979,-1.78659 0.53327,0.27248 1.06653,-1.29465 1.59979,-1.02548 0.53327,0.26917 1.06653,-0.38223 1.5998,-0.11746 0.53326,0.26477 1.06653,0.54808 1.59979,0.80739 0.53326,0.25931 1.06653,1.36377 1.599841,1.61657 0.5332,0.2528 1.0665,1.9488297 1.5997,2.1941297 0.5333,0.2453 1.0666,2.2207 1.5998,2.4574 0.5333,0.2368 1.0666,2.1413 1.5998,2.3686 0.5333,0.2273 1.0666,1.7235 1.5998,1.9404 0.5333,0.2169 1.0665,1.0286 1.5998,1.2343 0.5333,0.2057 1.0665,0.1577 1.5998,0.3513 0.5333,0.1936 1.0665,-0.7627 1.5998,-0.582 0.5333,0.1807 1.0665,-1.599 1.5998,-1.4319 0.5333,0.1671 1.0665,-2.2295 1.5998,-2.0767 0.5332,0.1529 1.0665,-2.5619 1.5998,-2.4239 0.5332,0.1379 1.0665,-2.5465 1.5998,-2.424 0.5332,0.1225 1.0665,-2.1832997 1.5998,-2.0766897 0.5332,0.10661 1.0665,-1.52216 1.5998,-1.43191 0.5332,0.09026 1.0665,-0.65552 1.5997,-0.58199 0.5333,0.07354 1.0666,0.2948 1.5998,0.35132 0.5333,0.05651 1.0666,1.19501 1.5998,1.23428 0.5333,0.03928 1.0666,1.9185897 1.5998,1.9403897 0.5333,0.0219 1.0665,2.3642 1.5998,2.3686 0.5333,0.0044 1.0665,2.4705 1.5998,2.4574 0.5333,-0.0131 1.0665,2.2247 1.5998,2.1942 0.5333,-0.0306 1.0665,1.6644 1.5998,1.6165 0.5333,-0.0479 1.0665,0.8725 1.5998,0.8074 0.5332,-0.065 1.0665,-0.0355 1.5998,-0.1174 0.5332,-0.082 1.0665,-0.927 1.5998,-1.0255 0.5332,-0.0985 1.0665,-1.672 1.5998,-1.7866 0.5332,-0.1146 1.0665,-2.1614 1.5997,-2.2917 0.5333,-0.1304 1.0666,-2.3231 1.5998,-2.4686 0.5333,-0.1455 1.0666,-2.1316897 1.5998,-2.2917597 0.5333,-0.16007 1.0666,-1.61259 1.5998,-1.78659 0.5333,-0.174 1.0666,-0.83825 1.5998,-1.02548 0.5333,-0.18723 1.0665,0.08226 1.5998,-0.11746 0.5333,-0.19971 1.0665,1.01878 1.5998,0.80739 0.5333,-0.21139 1.0665,1.83878 1.5998,1.61657 0.5333,-0.22221 1.0665,2.4263297 1.5998,2.1941297 0.5333,-0.2321 1.0665,2.6986 1.5998,2.4574 0.5332,-0.2411 1.0665,2.6178 1.5998,2.3686 0.5332,-0.2492 1.0665,2.1966 1.5998,1.9404 0.5332,-0.2562 1.0665,1.4965 1.5998,1.2343 0.5332,-0.2622 1.0665,0.6184 1.5997,0.3513 0.5333,-0.2671 1.0666,-0.311 1.5998,-0.582 0.5333,-0.2709 1.0666,-1.1582 1.5998,-1.4319 0.5333,-0.2737 1.0666,-1.8013 1.5998,-2.0767 0.5333,-0.2754 1.0666,-2.148 1.5998,-2.4239"
       title="0.5*sin(6*x)"
       id="path10"
       inkscape:label="sine_twice_3_7" />
    <path
       style="display:none;fill:none;fill-rule:evenodd;stroke:#ff0000;stroke-width:0.370577;stroke-linecap:square"
       d="m -55.31278,13.364077 c 0.5333,-0.276 1.0665,-2.1486 1.5998,-2.424 0.5332,-0.2754 1.0665,-1.8029597 1.5998,-2.0766897 0.5332,-0.27373 1.0665,-1.16095 1.5998,-1.43191 0.5332,-0.27096 1.0665,-0.31488 1.5998,-0.58199 0.5332,-0.2671 1.0665,0.61349 1.5997,0.35132 0.5333,-0.26217 1.0666,1.49047 1.5998,1.23428 0.5333,-0.25618 1.0666,2.1895897 1.5998,1.9403897 0.5333,-0.24912 1.0666,2.6098 1.5998,2.3686 0.5333,-0.2411 1.0666,2.6896 1.5998,2.4574 0.5333,-0.2321 1.0665,2.4164 1.5998,2.1942 0.5333,-0.2223 1.0665,1.8279 1.5998,1.6165 0.5333,-0.2114 1.0665,1.0071 1.5998,0.8074 0.5333,-0.1997 1.0665,0.0698 1.5998,-0.1174 0.5332,-0.1873 1.0665,-0.8515 1.5998,-1.0255 0.5332,-0.174 1.0665,-1.6265 1.5998,-1.7866 0.5332,-0.1601 1.0665,-2.1463 1.5998,-2.2917 0.5332,-0.1455 1.0665,-2.3383 1.5998,-2.4686 0.5332,-0.1303 1.0665,-2.1771297 1.5997,-2.2917597 0.5333,-0.11463 1.0666,-1.68811 1.5998,-1.78659 0.5333,-0.09848 1.0666,-0.94354 1.5998,-1.02548 0.5333,-0.08193 1.0666,-0.0524 1.5998,-0.11746 0.5333,-0.06506 1.0666,0.85531 1.5998,0.80739 0.5333,-0.04792 1.0665,1.64716 1.5998,1.61657 0.5333,-0.03059 1.0665,2.2073297 1.5998,2.1941297 0.5333,-0.0131 1.0665,2.453 1.5998,2.4574 0.5333,0.0044 1.0665,2.3467 1.5998,2.3686 0.5332,0.0219 1.0665,1.9011 1.5998,1.9404 0.5332,0.0393 1.0665,1.1778 1.5998,1.2343 0.5331998,0.0565 1.0664998,0.2778 1.5997998,0.3513 0.5332,0.0736 1.0665,-0.6722 1.5998,-0.582 0.5332,0.0903 1.0665,-1.5385 1.5997,-1.4319 0.5333,0.1066 1.0666,-2.1992 1.5998,-2.0767 0.5333,0.1226 1.0666,-2.5619 1.5998,-2.4239 0.5333,0.1379 1.0666,-2.5768 1.59980003,-2.424 0.5333,0.1529 1.0666,-2.2438097 1.5998,-2.0766897 0.53329997,0.16712 1.06649997,-1.61262 1.59979997,-1.43191 0.5333,0.18071 1.0665,-0.77556 1.5998,-0.58199 0.5333,0.19358 1.0665,0.14566 1.5998,0.35132 0.5333,0.20565 1.0665,1.01737 1.5998,1.23428 0.5332,0.21691 1.0665,1.7130897 1.5998,1.9403897 0.5332,0.2273 1.0665,2.1319 1.5998002,2.3686 0.5332,0.2368 1.0665,2.2121 1.5998,2.4574 0.5332,0.2453 1.0665,1.9414 1.5998,2.1942 0.533219,0.2528 1.066479,1.3572 1.599739,1.6165 0.53327,0.2593 1.06653,0.5426 1.5998,0.8074 0.53326,0.2648 1.06653,-0.3866 1.59979,-0.1174 0.53326,0.2691 1.06653,-1.298 1.59979,-1.0255 0.53327,0.2725 1.06653,-2.0613 1.59979,-1.7866 0.53327,0.2747 1.06653,-2.5676 1.599796,-2.2917 0.533264,0.2758 1.066528,-2.7444 1.599792,-2.4686 0.533262,0.2758 1.066532,-2.5664597 1.599792,-2.2917597 0.53326,0.2746997 1.06653,-2.05907 1.59979,-1.78659 0.53327,0.27248 1.06653,-1.29465 1.59979,-1.02548 0.53327,0.26917 1.06653,-0.38223 1.5998,-0.11746 0.53326,0.26477 1.06653,0.54808 1.59979,0.80739 0.53326,0.25931 1.06653,1.36377 1.599841,1.61657 0.5332,0.2528 1.0665,1.9488297 1.5997,2.1941297 0.5333,0.2453 1.0666,2.2207 1.5998,2.4574 0.5333,0.2368 1.0666,2.1413 1.5998,2.3686 0.5333,0.2273 1.0666,1.7235 1.5998,1.9404 0.5333,0.2169 1.0665,1.0286 1.5998,1.2343 0.5333,0.2057 1.0665,0.1577 1.5998,0.3513 0.5333,0.1936 1.0665,-0.7627 1.5998,-0.582 0.5333,0.1807 1.0665,-1.599 1.5998,-1.4319 0.5333,0.1671 1.0665,-2.2295 1.5998,-2.0767 0.5332,0.1529 1.0665,-2.5619 1.5998,-2.4239 0.5332,0.1379 1.0665,-2.5465 1.5998,-2.424 0.5332,0.1225 1.0665,-2.1832997 1.5998,-2.0766897 0.5332,0.10661 1.0665,-1.52216 1.5998,-1.43191 0.5332,0.09026 1.0665,-0.65552 1.5997,-0.58199 0.5333,0.07354 1.0666,0.2948 1.5998,0.35132 0.5333,0.05651 1.0666,1.19501 1.5998,1.23428 0.5333,0.03928 1.0666,1.9185897 1.5998,1.9403897 0.5333,0.0219 1.0665,2.3642 1.5998,2.3686 0.5333,0.0044 1.0665,2.4705 1.5998,2.4574 0.5333,-0.0131 1.0665,2.2247 1.5998,2.1942 0.5333,-0.0306 1.0665,1.6644 1.5998,1.6165 0.5333,-0.0479 1.0665,0.8725 1.5998,0.8074 0.5332,-0.065 1.0665,-0.0355 1.5998,-0.1174 0.5332,-0.082 1.0665,-0.927 1.5998,-1.0255 0.5332,-0.0985 1.0665,-1.672 1.5998,-1.7866 0.5332,-0.1146 1.0665,-2.1614 1.5997,-2.2917 0.5333,-0.1304 1.0666,-2.3231 1.5998,-2.4686 0.5333,-0.1455 1.0666,-2.1316897 1.5998,-2.2917597 0.5333,-0.16007 1.0666,-1.61259 1.5998,-1.78659 0.5333,-0.174 1.0666,-0.83825 1.5998,-1.02548 0.5333,-0.18723 1.0665,0.08226 1.5998,-0.11746 0.5333,-0.19971 1.0665,1.01878 1.5998,0.80739 0.5333,-0.21139 1.0665,1.83878 1.5998,1.61657 0.5333,-0.22221 1.0665,2.4263297 1.5998,2.1941297 0.5333,-0.2321 1.0665,2.6986 1.5998,2.4574 0.5332,-0.2411 1.0665,2.6178 1.5998,2.3686 0.5332,-0.2492 1.0665,2.1966 1.5998,1.9404 0.5332,-0.2562 1.0665,1.4965 1.5998,1.2343 0.5332,-0.2622 1.0665,0.6184 1.5997,0.3513 0.5333,-0.2671 1.0666,-0.311 1.5998,-0.582 0.5333,-0.2709 1.0666,-1.1582 1.5998,-1.4319 0.5333,-0.2737 1.0666,-1.8013 1.5998,-2.0767 0.5333,-0.2754 1.0666,-2.148 1.5998,-2.4239"
       title="0.5*sin(6*x)"
       id="path11"
       inkscape:label="sine_twice_3_8" />
  </g>
  <g
     inkscape:groupmode="layer"
     id="layer3"
     inkscape:label="WAVE_DATA"
     style="display:none"
     sodipodi:insensitive="true">
    <path
       style="display:none;fill:none;stroke:#008080;stroke-width:0.264583px;stroke-linecap:butt;stroke-linejoin:miter;stroke-opacity:1"
       d="m 0,13.229168 c 4.6314586,-9.5602811 9.030734,-8.0515171 13.292769,0 3.276553,5.710672 6.596836,11.184331 12.990583,-10e-7 4.294477,-7.9944311 8.778649,-9.6132054 13.597008,0 4.341875,9.157935 8.659001,8.475498 12.956527,0 4.098616,-7.0888014 8.339345,-10.4139916 13.098866,-1e-6 4.499555,8.275415 8.943814,9.349849 13.308024,0"
       id="path3"
       sodipodi:nodetypes="ccccccc"
       inkscape:label="wave_1"
       sodipodi:insensitive="true" />
    <path
       style="display:none;fill:none;stroke:#008080;stroke-width:0.264583px;stroke-linecap:butt;stroke-linejoin:miter;stroke-opacity:1"
       d="M 0.00311946,18.001194 C 4.6957276,9.0817998 9.2843842,4.5407727 13.187058,8.8259456 16.545715,12.952463 21.574116,23.875769 26.607893,17.854651 30.999966,12.117273 35.349697,2.7423097 39.822875,8.8853192 45.24036,18.309886 49.101974,23.112228 52.754161,18.151412 56.898153,11.380145 62.429754,3.4316934 65.664196,8.2011512 70.275695,14.879699 75.045086,23.783176 79.1884,18.040323"
       id="path12"
       sodipodi:nodetypes="ccccccc"
       inkscape:label="wave_2" />
    <path
       style="display:none;fill:none;stroke:#008080;stroke-width:0.264583px;stroke-linecap:butt;stroke-linejoin:miter;stroke-opacity:1"
       d="M 0.16740658,19.813186 C 4.2725613,21.6464 8.6717954,4.7013149 13.746633,6.9182852 19.24421,9.3767321 21.474725,19.643831 26.549336,19.660535 31.583235,19.562562 34.441228,6.6340029 40.104687,6.9018061 44.781569,7.2694419 47.439186,19.842996 52.849812,19.851522 58.671946,19.95183 60.737945,7.0785248 66.466503,6.9821487 71.81695,6.9967657 74.147219,19.824894 79.321985,19.898983"
       id="path13"
       sodipodi:nodetypes="ccccccc"
       inkscape:label="wave_3" />
    <path
       style="display:none;fill:none;stroke:#008080;stroke-width:0.264583px;stroke-linecap:butt;stroke-linejoin:miter;stroke-opacity:1"
       d="M 0.08521282,17.883791 C 4.5309373,23.543463 10.007602,13.864557 12.872656,9.4830679 c 5.525126,-8.3605288 8.78242,4.5438151 13.786496,8.8073081 5.856613,5.633533 10.082411,-6.54812 13.666357,-10.3189026 4.501294,-4.9685399 9.025495,6.1241316 12.998362,10.3300886 5.755927,5.957519 9.248871,-6.179818 12.722108,-9.5042754 6.571631,-6.0477891 9.357163,6.2808624 13.434817,9.3736544"
       id="path14"
       sodipodi:nodetypes="ccccccc"
       inkscape:label="wave_4" />
    <path
       style="display:none;fill:none;stroke:#008080;stroke-width:0.264583px;stroke-linecap:butt;stroke-linejoin:miter;stroke-opacity:1"
       d="m 0,13.229168 c 5.146645,8.686954 8.4964353,8.850202 13.292769,0 2.650551,-4.5679713 7.101159,-11.7948483 12.990583,-10e-7 3.902491,6.611528 7.773893,10.566052 13.597008,0 2.654484,-4.7846004 6.261879,-11.3313853 12.956527,0 3.653127,4.757982 6.303274,11.960114 13.098866,-1e-6 3.959579,-7.244189 8.307164,-9.6494457 13.308024,0"
       id="path15"
       sodipodi:nodetypes="ccccccc"
       inkscape:label="wave_5" />
    <path
       style="display:none;fill:none;stroke:#008080;stroke-width:0.264583px;stroke-linecap:butt;stroke-linejoin:miter;stroke-opacity:1"
       d="M 0.02101182,8.7642708 C 3.4143326,12.190998 8.1343923,24.810549 13.404231,17.718052 17.64983,11.924934 21.694027,3.4924061 26.250163,8.4859405 29.776684,12.187988 34.579769,24.697196 39.81634,17.705317 43.657497,12.86106 48.203508,3.3183124 52.545491,8.6318081 c 3.906645,4.1224369 7.808821,15.6985269 13.406206,9.5954969 3.2734,-3.130961 7.855966,-16.0348043 13.442539,-9.2141"
       id="path16"
       sodipodi:nodetypes="ccccccc"
       inkscape:label="wave_6" />
    <path
       style="display:none;fill:none;stroke:#008080;stroke-width:0.264583px;stroke-linecap:butt;stroke-linejoin:miter;stroke-opacity:1"
       d="M 0.05120744,6.8737422 C 5.3544217,7.0700418 8.0623784,19.914889 13.336521,19.910964 18.553149,19.882769 21.20677,6.7682956 26.612374,6.8195079 32.290995,6.8568593 34.211534,19.827571 39.930862,19.77811 46.065546,19.551568 47.467615,6.7448898 52.971245,6.9825211 58.962967,7.1337502 60.410487,19.86648 66.021916,19.738868 71.251333,19.676572 73.409923,7.4429344 79.33096,6.9109598"
       id="path17"
       sodipodi:nodetypes="ccccccc"
       inkscape:label="wave_7" />
    <path
       style="display:none;fill:none;stroke:#008080;stroke-width:0.264583px;stroke-linecap:butt;stroke-linejoin:miter;stroke-opacity:1"
       d="M -0.04276643,9.7260585 C 3.3636054,4.9321961 6.8847484,5.8905092 13.673099,17.640527 c 3.291063,3.746271 4.763021,3.847488 12.443415,-7.88018 5.450519,-7.9642595 10.332845,3.276934 14.293511,8.253865 4.306399,5.865422 8.009474,-1.913007 12.482951,-8.4062363 5.216133,-7.1789946 10.125108,2.3768423 13.710651,8.1497323 5.369219,7.938079 11.156283,-6.169233 12.810134,-8.4186442"
       id="path18"
       sodipodi:nodetypes="ccccccc"
       inkscape:label="wave_8" />
  </g>
  <g
     inkscape:groupmode="layer"
     id="layer4"
     inkscape:label="WAVE_OBJECT"
     sodipodi:insensitive="true"
     style="display:inline">
    <path
       style="display:inline;fill:none;stroke:#008080;stroke-width:0.264583px;stroke-linecap:butt;stroke-linejoin:miter;stroke-opacity:1"
       d="m 0,13.229168 c 4.6314586,-9.5602811 9.030734,-8.0515171 13.292769,0 3.276553,5.710672 6.596836,11.184331 12.990583,-10e-7 4.294477,-7.9944311 8.778649,-9.6132054 13.597008,0 4.341875,9.157935 8.659001,8.475498 12.956527,0 4.098616,-7.0888014 8.339345,-10.4139916 13.098866,-1e-6 4.499555,8.275415 8.943814,9.349849 13.308024,0"
       id="path19"
       sodipodi:nodetypes="ccccccc"
       inkscape:label="wave_0" />
  </g>
  <g
     inkscape:groupmode="layer"
     id="layer6"
     inkscape:label="scratch"
     sodipodi:insensitive="true" />
</svg>
