<?xml version="1.0" encoding="UTF-8" standalone="no"?>
<!-- Created with Inkscape (http://www.inkscape.org/) -->

<svg
   width="320"
   height="80"
   viewBox="0 0 320 80"
   version="1.1"
   id="svg1"
   inkscape:version="1.3.2 (091e20e, 2023-11-25)"
   sodipodi:docname="interpolate_2svg.svg"
   xmlns:inkscape="http://www.inkscape.org/namespaces/inkscape"
   xmlns:sodipodi="http://sodipodi.sourceforge.net/DTD/sodipodi-0.dtd"
   xmlns:xlink="http://www.w3.org/1999/xlink"
   xmlns="http://www.w3.org/2000/svg"
   xmlns:svg="http://www.w3.org/2000/svg">
  <sodipodi:namedview
     id="namedview1"
     pagecolor="#ffffff"
     bordercolor="#666666"
     borderopacity="1.0"
     inkscape:showpageshadow="2"
     inkscape:pageopacity="0.0"
     inkscape:pagecheckerboard="0"
     inkscape:deskcolor="#d1d1d1"
     inkscape:document-units="px"
     inkscape:zoom="9.2319861"
     inkscape:cx="33.416428"
     inkscape:cy="64.179039"
     inkscape:window-width="1812"
     inkscape:window-height="959"
     inkscape:window-x="88"
     inkscape:window-y="55"
     inkscape:window-maximized="0"
     inkscape:current-layer="layer7" />
  <defs
     id="defs1">
    <linearGradient
       id="linearGradient34"
       inkscape:collect="always">
      <stop
         style="stop-color:#15ebcf;stop-opacity:1;"
         offset="0"
         id="stop34" />
      <stop
         style="stop-color:#0a241d;stop-opacity:1;"
         offset="1"
         id="stop35" />
    </linearGradient>
    <linearGradient
       id="linearGradient12"
       inkscape:collect="always">
      <stop
         style="stop-color:#cfe8e9;stop-opacity:1;"
         offset="0"
         id="stop12" />
      <stop
         style="stop-color:#a5e7e9;stop-opacity:1;"
         offset="0.70904267"
         id="stop14" />
      <stop
         style="stop-color:#60e6e9;stop-opacity:1;"
         offset="1"
         id="stop13" />
    </linearGradient>
    <linearGradient
       id="linearGradient2"
       inkscape:collect="always">
      <stop
         style="stop-color:#06523a;stop-opacity:1;"
         offset="0"
         id="stop2" />
      <stop
         style="stop-color:#28a480;stop-opacity:0.3074187;"
         offset="1"
         id="stop3" />
    </linearGradient>
    <linearGradient
       id="linearGradient284"
       inkscape:collect="always">
      <stop
         style="stop-color:#115f45;stop-opacity:1;"
         offset="0"
         id="stop284" />
      <stop
         style="stop-color:#0cd491;stop-opacity:1;"
         offset="1"
         id="stop285" />
    </linearGradient>
    <linearGradient
       inkscape:collect="always"
       xlink:href="#linearGradient284"
       id="linearGradient285"
       x1="203.14597"
       y1="27.225132"
       x2="211.38779"
       y2="78.896332"
       gradientUnits="userSpaceOnUse" />
    <linearGradient
       inkscape:collect="always"
       xlink:href="#linearGradient2"
       id="linearGradient3"
       x1="116.49638"
       y1="21.557253"
       x2="122.3702"
       y2="67.569199"
       gradientUnits="userSpaceOnUse" />
    <filter
       inkscape:collect="always"
       style="color-interpolation-filters:sRGB"
       id="filter3"
       x="-0.12334303"
       y="-1.0039777"
       width="1.2466861"
       height="3.0079554">
      <feGaussianBlur
         inkscape:collect="always"
         stdDeviation="10.159016"
         id="feGaussianBlur3" />
    </filter>
    <radialGradient
       inkscape:collect="always"
       xlink:href="#linearGradient12"
       id="radialGradient13"
       cx="-41.94355"
       cy="66.308037"
       fx="-41.94355"
       fy="66.308037"
       r="168.61449"
       gradientTransform="matrix(-0.00109099,0.36969838,-1.7503316,-0.00516483,167.62512,27.48764)"
       gradientUnits="userSpaceOnUse" />
    <filter
       inkscape:collect="always"
       style="color-interpolation-filters:sRGB"
       id="filter34"
       x="-0.12416281"
       y="-0.278412"
       width="1.2483256"
       height="1.556824">
      <feGaussianBlur
         inkscape:collect="always"
         stdDeviation="2.9110806"
         id="feGaussianBlur34" />
    </filter>
    <linearGradient
       inkscape:collect="always"
       xlink:href="#linearGradient34"
       id="linearGradient35"
       x1="17.021873"
       y1="44.417393"
       x2="17.532803"
       y2="79.432579"
       gradientUnits="userSpaceOnUse" />
  </defs>
  <rect
     style="fill:url(#radialGradient13);fill-rule:evenodd;stroke:none;stroke-width:0.333;stroke-linecap:square;stroke-opacity:0.0639648"
     id="rect3"
     width="337.22897"
     height="85.600494"
     x="-9.8951416"
     y="-3.8711765"
     inkscape:label="sky"
     sodipodi:insensitive="true" />
  <path
     id="rect5"
     style="fill:#0f855e;fill-opacity:1;fill-rule:evenodd;stroke-width:0.333;stroke-linecap:square;stroke-opacity:0.0639648"
     inkscape:label="sea"
     d="m -8.4683237,49.448151 c 54.0067047,25.212398 207.4829737,9.346665 335.8021537,0 V 81.729324 H -8.4683237 Z"
     sodipodi:nodetypes="ccccc"
     sodipodi:insensitive="true" />
  <g
     inkscape:groupmode="layer"
     id="layer7"
     inkscape:label="back_foam">
    <path
       id="path34"
       style="fill:url(#linearGradient35);fill-opacity:0.40306479;fill-rule:evenodd;stroke:none;stroke-width:0.336166;stroke-linecap:square;stroke-opacity:0.0639648;filter:url(#filter34)"
       d="m -5.199025,50.677787 c -3.5758991,0.0074 -2.1717709,0.698627 -2.3824486,2.897038 -0.5565292,2.253033 -3.4265514,4.117516 2.0824898,5.599804 1.7033221,1.977541 2.1966608,4.615568 4.64829776,5.01171 1.99616204,0.714728 3.57938164,0.09676 5.13961844,-0.268189 -0.8935002,2.377791 3.4665682,4.306777 9.7284746,2.798713 -0.660753,0.750746 -1.082562,1.450735 1.014138,0.820301 -2.869032,0.669895 -5.0400387,2.300667 -2.614122,2.928392 1.002793,0.385224 1.339489,-0.983655 2.852081,0.633931 -2.72223,1.051543 4.712671,4.253766 5.543397,2.657126 2.413567,0.398716 4.719567,-0.42243 5.823331,-2.704923 0.986773,1.413683 3.557292,0.426422 2.289273,0.326792 1.538714,0.09902 2.285655,0.524722 2.141509,-0.772555 2.004091,-0.114727 4.878022,-1.463222 3.743897,-2.402614 1.919076,-0.843201 0.760148,-1.042375 0.617125,-1.755942 1.013553,0.405359 1.849953,-1.052108 1.169995,-1.326081 0.734614,0.0894 0.128767,1.560024 1.166645,1.396619 -0.08182,3.105276 5.303637,0.402063 7.171682,-0.657385 0.901584,-0.377967 0.03865,-1.575516 1.076906,-2.51883 1.538193,-1.19995 2.095149,-3.418166 0.36616,-4.029951 -1.609376,-1.197446 -4.649847,-2.353008 -5.697388,-2.937269 -3.597486,-0.661554 -8.57976,0.441593 -9.401891,1.503232 -2.942878,-0.609791 -1.433932,-0.663977 -3.598665,-1.388398 1.382511,-0.05582 -4.186745,-0.987956 -3.76443,-0.469092 C 23.126472,54.325269 17.617609,52.446013 15.349394,51.875157 12.588452,51.382956 7.8495706,51.830706 4.684348,53.130314 1.7310361,51.775417 1.2097802,49.086391 -0.91715701,49.527657 -1.8001178,49.45412 -3.4643272,49.028951 -4.1352848,49.110729 c -1.4388358,6.09e-4 -2.343674,0.258176 -1.0637402,1.567058 z"
       sodipodi:nodetypes="ccccccccccccccccccccccccccccc"
       inkscape:label="shadow" />
    <path
       id="path7"
       style="fill:#abf5db;fill-opacity:1;fill-rule:evenodd;stroke:none;stroke-width:0.333;stroke-linecap:square;stroke-opacity:0.0639648"
       d="M 2.6568665,50.938481 C -0.87611551,51.490881 0.614998,51.9471 0.735665,54.1112 c -0.21297,2.2698 -2.770515,4.5155 2.895875,5.1131 1.97925,1.6581 2.86147,4.1412 5.34371,4.1516 2.07975,0.3888 3.552015,-0.451861 5.039415,-1.043661 -0.527338,2.442162 4.070337,3.648132 10.033435,1.230961 -0.540717,0.828797 -0.852877,1.571943 1.125,0.6409 -2.735277,1.087059 -4.636941,2.999541 -2.145476,3.238447 1.0487,0.2207 1.176676,-1.158147 2.913576,0.179953 -2.533096,1.434794 5.293942,3.406744 5.8761,1.7317 2.445,0.0187 4.6012,-1.1292 5.3506,-3.511 1.186725,1.220524 3.5795,-0.1288 2.3114,-0.0321 1.53554,-0.13856 2.337434,0.1604 2.0009,-1.0757 1.9635,-0.4168 4.6021,-2.1627 3.3407,-2.9008 1.7705,-1.1103 0.595323,-1.126768 0.347223,-1.796968 1.062346,0.238586 1.670932,-1.302355 0.957936,-1.464384 0.7394,-0.0253 0.360641,1.493252 1.361941,1.176552 0.383682,3.023917 5.301786,-0.418667 6.9895,-1.7309 0.8345,-0.504 -0.1975,-1.5338 0.6875,-2.6069 1.3407,-1.3982 1.5593,-3.6343 -0.241,-3.964 -1.7697,-0.9159 -4.9475,-1.573 -6.0702,-1.9799 -3.6544,-0.0931 -8.4134,1.7363 -9.0671,2.8912 -2.9997,-0.1427 -1.5165,-0.4253 -3.7643,-0.7978 1.358,-0.2649 -4.2856,-0.3198 -3.7906,0.119 -1.0349,-1.5232 -6.7605,-2.5058 -9.0876,-2.7136 -2.8023,-0.0564 -7.4188,1.1003 -10.3526,2.8432 -3.12148,-0.8637 -4.03892,-3.392 -6.07498,-2.6398 -0.88364,0.0633 -2.592,-0.0953 -3.24288,0.0863 -1.4219248,0.219952 -2.2776534,0.607686 -0.8168735,1.681881 z"
       transform="rotate(8.7693909)"
       sodipodi:nodetypes="ccccccccccccccccccccccccccccc"
       inkscape:label="foam" />
  </g>
  <g
     inkscape:label="Layer 0"
     inkscape:groupmode="layer"
     id="layer1"
     sodipodi:insensitive="true"
     style="display:none">
    <path
       style="fill:none;stroke:#ff0000;stroke-width:1px;stroke-linecap:butt;stroke-linejoin:miter;stroke-opacity:1"
       d="M 225.94898,76.709393 C 356.7823,83.235318 345.9722,32.89805 325.72158,6.3637849"
       id="path1"
       sodipodi:nodetypes="cc"
       inkscape:label="front_end" />
    <path
       style="fill:none;stroke:#ff0000;stroke-width:1px;stroke-linecap:butt;stroke-linejoin:miter;stroke-opacity:1"
       d="M -48.559026,59.653769 C 53.681638,52.851695 -17.473491,3.255526 -38.522758,37.806456"
       id="path2"
       sodipodi:nodetypes="cc"
       inkscape:label="back_end" />
  </g>
  <path
     style="display:inline;fill:url(#linearGradient285);fill-opacity:1;stroke:none;stroke-width:1px;stroke-linecap:butt;stroke-linejoin:miter;stroke-opacity:1"
     d="M 27.017379,43.526568 C 98.07924,41.275463 165.72297,29.86889 234.52722,19.908739 253.68509,17.135433 275.99515,17.893022 294.83039,13.424426 320.24189,7.3956338 342.96445,6.7462194 367.88668,3.6722962 402.12155,47.218969 369.32513,83.243487 292.284,81.292521 L -2.8943907,80.791029 -4.4278652,79.474293 C 36.262497,76.467959 75.252918,54.56272 27.017379,43.526568 Z"
     id="path283"
     sodipodi:nodetypes="cssccccc"
     inkscape:label="underwave"
     sodipodi:insensitive="true" />
  <g
     id="g117"
     inkscape:label="paths"
     transform="rotate(-3.4804601,300.01879,-678.91664)"
     style="display:inline;stroke:url(#linearGradient3)"
     sodipodi:insensitive="true">
    <path
       d="M -48.559,59.6538 C 53.6816,52.8517 -17.4735,3.25553 -38.5228,37.8065"
       style="fill:none;stroke:url(#linearGradient3);stroke-width:0.333;stroke-linecap:butt;stroke-linejoin:miter;stroke-dasharray:none;stroke-opacity:1"
       id="path66" />
    <path
       d="M -43.1765,59.9882 C 59.6248,53.4475 -10.3471,3.83675 -31.3807,37.1899"
       style="fill:none;stroke:url(#linearGradient3);stroke-width:0.333;stroke-linecap:butt;stroke-linejoin:miter;stroke-dasharray:none;stroke-opacity:1"
       id="path67" />
    <path
       d="M -37.794,60.3226 C 65.5679,54.0432 -3.22072,4.41798 -24.2387,36.5734"
       style="fill:none;stroke:url(#linearGradient3);stroke-width:0.333;stroke-linecap:butt;stroke-linejoin:miter;stroke-dasharray:none;stroke-opacity:1"
       id="path68" />
    <path
       d="M -32.4115,60.657 C 71.5111,54.639 3.90567,4.9992 -17.0966,35.9569"
       style="fill:none;stroke:url(#linearGradient3);stroke-width:0.333;stroke-linecap:butt;stroke-linejoin:miter;stroke-dasharray:none;stroke-opacity:1"
       id="path69" />
    <path
       d="M -27.029,60.9915 C 77.4542,55.2347 11.0321,5.58043 -9.95457,35.3404"
       style="fill:none;stroke:url(#linearGradient3);stroke-width:0.333;stroke-linecap:butt;stroke-linejoin:miter;stroke-dasharray:none;stroke-opacity:1"
       id="path70" />
    <path
       d="M -21.6465,61.3259 C 83.3974,55.8305 18.1584,6.16166 -2.81253,34.7238"
       style="fill:none;stroke:url(#linearGradient3);stroke-width:0.333;stroke-linecap:butt;stroke-linejoin:miter;stroke-dasharray:none;stroke-opacity:1"
       id="path71" />
    <path
       d="M -16.264,61.6603 C 89.3405,56.4262 25.2848,6.74288 4.32952,34.1073"
       style="fill:none;stroke:url(#linearGradient3);stroke-width:0.333;stroke-linecap:butt;stroke-linejoin:miter;stroke-dasharray:none;stroke-opacity:1"
       id="path72" />
    <path
       d="M -10.8815,61.9947 C 95.2837,57.022 32.4112,7.32411 11.4716,33.4908"
       style="fill:none;stroke:url(#linearGradient3);stroke-width:0.333;stroke-linecap:butt;stroke-linejoin:miter;stroke-dasharray:none;stroke-opacity:1"
       id="path73" />
    <path
       d="M -5.49895,62.3292 C 101.227,57.6178 39.5376,7.90533 18.6136,32.8743"
       style="fill:none;stroke:url(#linearGradient3);stroke-width:0.333;stroke-linecap:butt;stroke-linejoin:miter;stroke-dasharray:none;stroke-opacity:1"
       id="path74" />
    <path
       d="M -0.116437,62.6636 C 107.17,58.2135 46.664,8.48656 25.7557,32.2577"
       style="fill:none;stroke:url(#linearGradient3);stroke-width:0.333;stroke-linecap:butt;stroke-linejoin:miter;stroke-dasharray:none;stroke-opacity:1"
       id="path75" />
    <path
       d="M 5.26607,62.998 C 113.113,58.8093 53.7904,9.06779 32.8977,31.6412"
       style="fill:none;stroke:url(#linearGradient3);stroke-width:0.333;stroke-linecap:butt;stroke-linejoin:miter;stroke-dasharray:none;stroke-opacity:1"
       id="path76" />
    <path
       d="M 10.6486,63.3324 C 119.056,59.405 60.9168,9.64901 40.0397,31.0247"
       style="fill:none;stroke:url(#linearGradient3);stroke-width:0.333;stroke-linecap:butt;stroke-linejoin:miter;stroke-dasharray:none;stroke-opacity:1"
       id="path77" />
    <path
       d="M 16.0311,63.6669 C 124.999,60.0008 68.0431,10.2302 47.1818,30.4082"
       style="fill:none;stroke:url(#linearGradient3);stroke-width:0.333;stroke-linecap:butt;stroke-linejoin:miter;stroke-dasharray:none;stroke-opacity:1"
       id="path78" />
    <path
       d="M 21.4136,64.0013 C 130.943,60.5965 75.1695,10.8115 54.3238,29.7917"
       style="fill:none;stroke:url(#linearGradient3);stroke-width:0.333;stroke-linecap:butt;stroke-linejoin:miter;stroke-dasharray:none;stroke-opacity:1"
       id="path79" />
    <path
       d="M 26.7961,64.3357 C 136.886,61.1923 82.2959,11.3927 61.4659,29.1751"
       style="fill:none;stroke:url(#linearGradient3);stroke-width:0.333;stroke-linecap:butt;stroke-linejoin:miter;stroke-dasharray:none;stroke-opacity:1"
       id="path80" />
    <path
       d="M 32.1786,64.6701 C 142.829,61.7881 89.4223,11.9739 68.6079,28.5586"
       style="fill:none;stroke:url(#linearGradient3);stroke-width:0.333;stroke-linecap:butt;stroke-linejoin:miter;stroke-dasharray:none;stroke-opacity:1"
       id="path81" />
    <path
       d="M 37.5611,65.0046 C 148.772,62.3838 96.5487,12.5551 75.75,27.9421"
       style="fill:none;stroke:url(#linearGradient3);stroke-width:0.333;stroke-linecap:butt;stroke-linejoin:miter;stroke-dasharray:none;stroke-opacity:1"
       id="path82" />
    <path
       d="M 42.9436,65.339 C 154.715,62.9796 103.675,13.1364 82.892,27.3256"
       style="fill:none;stroke:url(#linearGradient3);stroke-width:0.333;stroke-linecap:butt;stroke-linejoin:miter;stroke-dasharray:none;stroke-opacity:1"
       id="path83" />
    <path
       d="M 48.3262,65.6734 C 160.658,63.5753 110.801,13.7176 90.0341,26.709"
       style="fill:none;stroke:url(#linearGradient3);stroke-width:0.333;stroke-linecap:butt;stroke-linejoin:miter;stroke-dasharray:none;stroke-opacity:1"
       id="path84" />
    <path
       d="M 53.7087,66.0078 C 166.601,64.1711 117.928,14.2988 97.1761,26.0925"
       style="fill:none;stroke:url(#linearGradient3);stroke-width:0.333;stroke-linecap:butt;stroke-linejoin:miter;stroke-dasharray:none;stroke-opacity:1"
       id="path85" />
    <path
       d="M 59.0912,66.3422 C 172.545,64.7668 125.054,14.88 104.318,25.476"
       style="fill:none;stroke:url(#linearGradient3);stroke-width:0.333;stroke-linecap:butt;stroke-linejoin:miter;stroke-dasharray:none;stroke-opacity:1"
       id="path86" />
    <path
       d="M 64.4737,66.6767 C 178.488,65.3626 132.181,15.4613 111.46,24.8595"
       style="fill:none;stroke:url(#linearGradient3);stroke-width:0.333;stroke-linecap:butt;stroke-linejoin:miter;stroke-dasharray:none;stroke-opacity:1"
       id="path87" />
    <path
       d="M 69.8562,67.0111 C 184.431,65.9584 139.307,16.0425 118.602,24.243"
       style="fill:none;stroke:url(#linearGradient3);stroke-width:0.333;stroke-linecap:butt;stroke-linejoin:miter;stroke-dasharray:none;stroke-opacity:1"
       id="path88" />
    <path
       d="M 75.2387,67.3455 C 190.374,66.5541 146.433,16.6237 125.744,23.6264"
       style="fill:none;stroke:url(#linearGradient3);stroke-width:0.333;stroke-linecap:butt;stroke-linejoin:miter;stroke-dasharray:none;stroke-opacity:1"
       id="path89" />
    <path
       d="m 80.6212,67.6799 c 115.6958,-0.53 72.9388,-50.475 52.2648,-44.67"
       style="fill:none;stroke:url(#linearGradient3);stroke-width:0.333;stroke-linecap:butt;stroke-linejoin:miter;stroke-dasharray:none;stroke-opacity:1"
       id="path90" />
    <path
       d="M 86.0037,68.0144 C 202.26,67.7456 160.686,17.7862 140.028,22.3934"
       style="fill:none;stroke:url(#linearGradient3);stroke-width:0.333;stroke-linecap:butt;stroke-linejoin:miter;stroke-dasharray:none;stroke-opacity:1"
       id="path91" />
    <path
       d="M 91.3862,68.3488 C 208.204,68.3414 167.813,18.3674 147.17,21.7769"
       style="fill:none;stroke:url(#linearGradient3);stroke-width:0.333;stroke-linecap:butt;stroke-linejoin:miter;stroke-dasharray:none;stroke-opacity:1"
       id="path92" />
    <path
       d="M 96.7687,68.6832 C 214.147,68.9371 174.939,18.9486 154.312,21.1603"
       style="fill:none;stroke:url(#linearGradient3);stroke-width:0.333;stroke-linecap:butt;stroke-linejoin:miter;stroke-dasharray:none;stroke-opacity:1"
       id="path93" />
    <path
       d="M 102.151,69.0176 C 220.09,69.5329 182.065,19.5299 161.455,20.5438"
       style="fill:none;stroke:url(#linearGradient3);stroke-width:0.333;stroke-linecap:butt;stroke-linejoin:miter;stroke-dasharray:none;stroke-opacity:1"
       id="path94" />
    <path
       d="m 107.534,69.3521 c 118.499,0.7766 81.658,-49.241 61.063,-49.4248"
       style="fill:none;stroke:url(#linearGradient3);stroke-width:0.333;stroke-linecap:butt;stroke-linejoin:miter;stroke-dasharray:none;stroke-opacity:1"
       id="path95" />
    <path
       d="m 112.916,69.6865 c 119.06,1.0379 83.402,-48.9942 62.823,-50.3757"
       style="fill:none;stroke:url(#linearGradient3);stroke-width:0.333;stroke-linecap:butt;stroke-linejoin:miter;stroke-dasharray:none;stroke-opacity:1"
       id="path96" />
    <path
       d="m 118.299,70.0209 c 119.62,1.2993 85.145,-48.7474 64.582,-51.3267"
       style="fill:none;stroke:url(#linearGradient3);stroke-width:0.333;stroke-linecap:butt;stroke-linejoin:miter;stroke-dasharray:none;stroke-opacity:1"
       id="path97" />
    <path
       d="m 123.681,70.3553 c 120.181,1.5606 86.89,-48.5005 66.342,-52.2776"
       style="fill:none;stroke:url(#linearGradient3);stroke-width:0.333;stroke-linecap:butt;stroke-linejoin:miter;stroke-dasharray:none;stroke-opacity:1"
       id="path98" />
    <path
       d="M 129.064,70.6898 C 249.806,72.5117 217.697,22.436 197.165,17.4612"
       style="fill:none;stroke:url(#linearGradient3);stroke-width:0.333;stroke-linecap:butt;stroke-linejoin:miter;stroke-dasharray:none;stroke-opacity:1"
       id="path99" />
    <path
       d="m 134.446,71.0242 c 121.303,2.0832 90.378,-48.007 69.861,-54.1795"
       style="fill:none;stroke:url(#linearGradient3);stroke-width:0.333;stroke-linecap:butt;stroke-linejoin:miter;stroke-dasharray:none;stroke-opacity:1"
       id="path100" />
    <path
       d="m 139.829,71.3586 c 121.863,2.3446 92.121,-47.7602 71.62,-55.1304"
       style="fill:none;stroke:url(#linearGradient3);stroke-width:0.333;stroke-linecap:butt;stroke-linejoin:miter;stroke-dasharray:none;stroke-opacity:1"
       id="path101" />
    <path
       d="m 145.211,71.693 c 122.424,2.606 93.865,-47.5133 73.38,-56.0814"
       style="fill:none;stroke:url(#linearGradient3);stroke-width:0.333;stroke-linecap:butt;stroke-linejoin:miter;stroke-dasharray:none;stroke-opacity:1"
       id="path102" />
    <path
       d="m 150.594,72.0275 c 122.984,2.8672 95.609,-47.2666 75.139,-57.0324"
       style="fill:none;stroke:url(#linearGradient3);stroke-width:0.333;stroke-linecap:butt;stroke-linejoin:miter;stroke-dasharray:none;stroke-opacity:1"
       id="path103" />
    <path
       d="m 155.976,72.3619 c 123.545,3.1286 97.353,-47.0198 76.899,-57.9833"
       style="fill:none;stroke:url(#linearGradient3);stroke-width:0.333;stroke-linecap:butt;stroke-linejoin:miter;stroke-dasharray:none;stroke-opacity:1"
       id="path104" />
    <path
       d="m 161.359,72.6963 c 124.105,3.3899 99.097,-46.773 78.658,-58.9342"
       style="fill:none;stroke:url(#linearGradient3);stroke-width:0.333;stroke-linecap:butt;stroke-linejoin:miter;stroke-dasharray:none;stroke-opacity:1"
       id="path105" />
    <path
       d="M 166.741,73.0307 C 291.408,76.682 267.582,26.5046 247.159,13.1455"
       style="fill:none;stroke:url(#linearGradient3);stroke-width:0.333;stroke-linecap:butt;stroke-linejoin:miter;stroke-dasharray:none;stroke-opacity:1"
       id="path106" />
    <path
       d="M 172.124,73.3652 C 297.351,77.2777 274.708,27.0858 254.301,12.529"
       style="fill:none;stroke:url(#linearGradient3);stroke-width:0.333;stroke-linecap:butt;stroke-linejoin:miter;stroke-dasharray:none;stroke-opacity:1"
       id="path107" />
    <path
       d="M 177.506,73.6996 C 303.294,77.8735 281.835,27.667 261.443,11.9125"
       style="fill:none;stroke:url(#linearGradient3);stroke-width:0.333;stroke-linecap:butt;stroke-linejoin:miter;stroke-dasharray:none;stroke-opacity:1"
       id="path108" />
    <path
       d="M 182.889,74.034 C 309.237,78.4693 288.961,28.2482 268.585,11.296"
       style="fill:none;stroke:url(#linearGradient3);stroke-width:0.333;stroke-linecap:butt;stroke-linejoin:miter;stroke-dasharray:none;stroke-opacity:1"
       id="path109" />
    <path
       d="M 188.271,74.3684 C 315.18,79.065 296.087,28.8295 275.727,10.6794"
       style="fill:none;stroke:url(#linearGradient3);stroke-width:0.333;stroke-linecap:butt;stroke-linejoin:miter;stroke-dasharray:none;stroke-opacity:1"
       id="path110" />
    <path
       d="m 193.654,74.7028 c 127.469,4.958 109.56,-45.2921 89.215,-64.6399"
       style="fill:none;stroke:url(#linearGradient3);stroke-width:0.333;stroke-linecap:butt;stroke-linejoin:miter;stroke-dasharray:none;stroke-opacity:1"
       id="path111" />
    <path
       d="M 199.036,75.0373 C 327.067,80.2565 310.34,29.9919 290.011,9.4464"
       style="fill:none;stroke:url(#linearGradient3);stroke-width:0.333;stroke-linecap:butt;stroke-linejoin:miter;stroke-dasharray:none;stroke-opacity:1"
       id="path112" />
    <path
       d="M 204.419,75.3717 C 333.01,80.8523 317.467,30.5731 297.153,8.82988"
       style="fill:none;stroke:url(#linearGradient3);stroke-width:0.333;stroke-linecap:butt;stroke-linejoin:miter;stroke-dasharray:none;stroke-opacity:1"
       id="path113" />
    <path
       d="M 209.801,75.7061 C 338.953,81.448 324.593,31.1544 304.295,8.21335"
       style="fill:none;stroke:url(#linearGradient3);stroke-width:0.333;stroke-linecap:butt;stroke-linejoin:miter;stroke-dasharray:none;stroke-opacity:1"
       id="path114" />
    <path
       d="M 215.184,76.0405 C 344.896,82.0438 331.719,31.7356 311.437,7.59683"
       style="fill:none;stroke:url(#linearGradient3);stroke-width:0.333;stroke-linecap:butt;stroke-linejoin:miter;stroke-dasharray:none;stroke-opacity:1"
       id="path115" />
    <path
       d="M 220.566,76.375 C 350.839,82.6396 338.846,32.3168 318.58,6.98031"
       style="fill:none;stroke:url(#linearGradient3);stroke-width:0.333;stroke-linecap:butt;stroke-linejoin:miter;stroke-dasharray:none;stroke-opacity:1"
       id="path116" />
    <path
       d="M 225.949,76.7094 C 356.782,83.2353 345.972,32.898 325.722,6.36378"
       style="fill:none;stroke:url(#linearGradient3);stroke-width:0.333;stroke-linecap:butt;stroke-linejoin:miter;stroke-dasharray:none;stroke-opacity:1"
       id="path117" />
  </g>
  <path
     style="display:inline;opacity:1;fill:#0f9467;fill-opacity:1;stroke:none;stroke-width:1px;stroke-linecap:butt;stroke-linejoin:miter;stroke-opacity:1"
     d="M 25.584881,43.194804 C 14.112804,43.984182 8.9971968,50.08513 5.564924,56.60907 L 183.08373,27.837918 C 131.3378,32.366723 38.647199,42.296004 25.584881,43.194804 Z"
     id="path282"
     sodipodi:nodetypes="sccs"
     inkscape:label="top"
     sodipodi:insensitive="true" />
  <path
     style="display:inline;opacity:1;fill:#e0f5ee;fill-opacity:1;stroke:none;stroke-width:1px;stroke-linecap:butt;stroke-linejoin:miter;stroke-opacity:1"
     d="M 19.155639,48.481329 C 7.6835618,49.270707 2.5679546,55.371655 -0.86431816,61.895595 6.0218805,58.891527 8.5983837,59.908811 12.669646,59.531343 c 2.60261,1.181148 5.596349,1.963125 13.609416,-2.377433 8.687523,-5.498922 11.955695,-4.644732 14.090076,-2.461399 2.652499,1.326002 -3.354398,9.556147 16.579421,-2.896263 5.912829,-4.140163 9.023575,-1.806905 13.373406,-2.336204 5.341339,2.469865 9.506615,-1.490293 14.214614,-2.483155 3.410497,-2.276012 6.006533,-2.19742 8.375774,-1.463166 1.229241,2.961548 3.618354,1.639475 6.395941,-1.117309 1.125276,-1.891433 3.123626,-1.862851 5.517736,-0.963895 -1.04658,6.022695 0.90867,5.584178 5.71869,-0.999 3.69575,-2.026555 5.02678,-1.523431 6.45875,-1.12828 3.91214,0.386305 7.53886,1.281127 13.73352,-2.399112 2.38185,-1.390658 4.40116,-1.571568 6.22094,-1.086739 8.0834,-0.252478 10.03819,-3.717624 17.79126,-5.185391 -15.09862,1.321432 -26.99554,2.484837 -43.83872,5.965166 -11.697245,2.417018 -23.251118,4.2383 -33.585568,3.640996 -15.01484,-0.867819 -28.312176,5.138248 -39.011282,4.318908 -9.254291,-0.708695 -16.019254,1.706291 -19.157981,1.922262 z"
     id="path285"
     sodipodi:nodetypes="scccccccccccccccssss"
     inkscape:label="foam" />
  <path
     id="path3"
     style="fill:#c4f5e4;fill-opacity:0.402246;fill-rule:evenodd;stroke:none;stroke-width:0.363314;stroke-linecap:square;stroke-opacity:0.0639648;filter:url(#filter3)"
     d="m 356.0556,70.88581 c 2.98088,7.153525 -34.70557,24.850378 -100.09432,17.6501 -54.34641,-5.984353 -97.26533,-4.085921 -97.4142,-8.715697 -0.14887,-4.629777 43.94423,-10.382986 98.4847,-12.850153 54.54048,-2.467167 97.29304,-0.237787 99.02382,3.91575 z"
     sodipodi:nodetypes="sssss"
     inkscape:label="diffuse_light"
     sodipodi:insensitive="true" />
  <path
     id="path21"
     style="fill:#e0f5ee;fill-opacity:0.44258943;fill-rule:evenodd;stroke:none;stroke-width:0.333;stroke-linecap:square;stroke-opacity:0.0639648"
     d="m 286.79883,48.976562 c -3.57229,-0.91528 -0.96225,3.17376 0,0 z m -1.67383,1.269532 c -1.89406,-0.710544 0.0196,1.899521 0,0 z m 0.41406,0.01367 c -5.39572,10.786997 7.2101,3.051933 0,0 z m 1.00196,-0.623047 c 0.76346,0.412315 -0.28967,-0.689935 0,0 z m -3.98633,3.480469 c -10.40465,1.865251 -7.17952,9.930769 0,0 z m -7.60157,5.490234 c -7.46935,0.693779 -6.69918,6.963666 0,0 z m -1.55468,0.904297 0.77725,-0.446903 z m 9.82617,-7.714844 c 2.11234,0.784757 -0.61714,-2.506749 0,0 z m 1.25977,-0.662109 0.59658,-0.352869 z m -44.64844,4.707031 c -8.67144,4.331056 -16.16098,5.778965 -2.49504,3.20528 16.5087,3.165129 0.63899,14.775121 -8.76178,10.958979 -20.74122,-1.281899 25.60207,-7.131511 1.46865,-5.056442 -10.02499,5.773077 -34.95367,-5.025158 -35.15989,-1.266151 21.57164,11.813705 -19.08394,4.116266 -18.00582,10.633201 17.02406,-2.770992 33.4049,-1.525502 48.54094,-2.288231 16.05934,2.203938 32.70385,5.305046 48.40065,-0.925776 9.03097,-2.022834 22.07153,-13.584685 6.59173,-4.487173 -5.76019,7.140804 -28.05335,4.016125 -11.79906,-2.368318 -11.03665,2.017241 -19.22811,-4.250337 -28.78038,-8.405369 z m 9.90039,9.689453 c 15.63752,4.360775 -18.16081,9.25688 -0.10646,0.289754 z m -21.08008,3.892578 -1.01745,0.598518 z m -10.5332,2.78711 -0.39529,0.22708 z" />
  <path
     id="path28"
     style="fill:#e0f5ee;fill-opacity:0.442589;fill-rule:evenodd;stroke:none;stroke-width:0.31424;stroke-linecap:square;stroke-opacity:0.0639648"
     d="m 156.19441,65.62724 c -5.862,-0.416685 -11.91183,0.426635 -17.25695,1.890508 -5.58635,0.431026 -2.33347,4.946927 -0.005,4.226377 -2.66012,-2.638947 1.60689,-4.830536 5.9851,-4.066498 3.85357,-0.0011 9.0681,0.37782 11.27652,-2.050387 z m 4.87012,5.628295 c -2.25863,0.454179 -9.8791,1.354648 -6.7902,3.384741 4.87143,1.26458 10.85202,1.117205 15.56674,-0.364935 3.44523,-1.431721 -4.26412,1.186467 -5.27489,-0.919883 -1.08973,-0.745632 -2.16909,-1.507786 -3.50165,-2.099923 z m -8.30757,4.141115 c 1.15253,-0.03524 1.36771,-0.04182 0,0 z m 1.44921,-0.06034 c 0.48893,-0.05263 1.11832,-0.120357 0,0 z m 0.74707,-0.08046 0.19386,-0.0158 z m 0.19386,-0.0158 c -3.62209,-1.115171 -0.0328,1.605526 0,0 z m -1.70218,0.974211 c -1.80924,0.721264 -2.03105,0.809687 0,0 z m -1.95751,0.735687 c -0.77223,-0.954422 -0.97095,0.734664 0,0 z m -5.6361,-5.513344 c -2.14652,3.023188 -7.5005,4.338894 -11.68493,6.034826 3.98613,-0.383191 8.98643,-0.156046 11.81586,-2.232959 1.54918,-1.069955 1.85873,-2.838601 -0.13093,-3.801867 z m -37.29662,0.07471 c -2.01154,2.946948 4.62489,3.433163 7.91537,3.07283 3.01676,-0.360544 7.70064,-0.352345 9.27808,-1.999648 -4.07492,-0.9282 -8.60741,0.01 -12.85168,-0.476301 -1.4754,-0.107793 -2.94073,-0.292108 -4.34177,-0.596881 z m -8.938803,0.38796 c -2.765473,-0.0665 -9.970083,0.05425 -7.525132,2.700667 2.162297,1.416702 7.765142,4.031164 10.254725,2.012801 0.10299,-2.936891 -7.686656,-0.03231 -8.843442,-2.589746 1.292347,-1.226767 4.01335,-1.600922 6.113849,-2.123722 z m 57.944993,0.609229 c -0.97964,0.351459 -1.13969,0.408875 0,0 z m -80.981141,3.388182 c -2.71993,0.105956 -9.657235,0.642884 -8.388534,2.489813 3.181584,-0.06135 5.906571,-1.413325 8.388534,-2.489813 z m -6.04037,2.278907 c 1.284127,2.220956 6.64081,1.258209 9.705237,1.398479 7.163384,-0.134156 14.598707,-1.086192 21.599024,0.225555 2.00991,0.251659 5.62311,-0.237096 6.83017,-1.227282 -4.10512,-0.888566 -8.65942,-0.574606 -12.965948,-0.758484 -8.403976,0.0108 -16.841695,-0.645839 -25.168483,0.361732 z m -9.76152,1.252966 c 0.769734,-0.988962 -1.956332,1.085924 0,0 z" />
</svg>
