<?xml version="1.0" encoding="UTF-8" standalone="no"?>
<!-- Created with Inkscape (http://www.inkscape.org/) -->

<svg
   width="320"
   height="80"
   viewBox="0 0 320 80"
   version="1.1"
   id="svg1"
   xmlns="http://www.w3.org/2000/svg"
   xmlns:svg="http://www.w3.org/2000/svg">
  <defs
     id="defs1" />
  <g
     id="layer1"
     style="display:none">
    <path
       style="fill:none;stroke:#ff0000;stroke-width:1px;stroke-linecap:butt;stroke-linejoin:miter;stroke-opacity:1"
       d="M 225.94898,76.709393 C 356.7823,83.235318 345.9722,32.89805 325.72158,6.3637849"
       id="path1" />
    <path
       style="fill:none;stroke:#ff0000;stroke-width:1px;stroke-linecap:butt;stroke-linejoin:miter;stroke-opacity:1"
       d="M -48.559026,59.653769 C 53.681638,52.851695 -17.473491,3.255526 -38.522758,37.806456"
       id="path2" />
  </g>
  <g
     id="g117"
     style="display:inline"
     transform="rotate(-3.4804601,300.01879,-678.91664)">
    <path
       d="M -48.559,59.6538 C 53.6816,52.8517 -17.4735,3.25553 -38.5228,37.8065"
       style="fill:none;stroke:#000000;stroke-width:1px;stroke-linecap:butt;stroke-linejoin:miter;stroke-opacity:1"
       id="path66" />
    <path
       d="M -43.1765,59.9882 C 59.6248,53.4475 -10.3471,3.83675 -31.3807,37.1899"
       style="fill:none;stroke:#000000;stroke-width:1px;stroke-linecap:butt;stroke-linejoin:miter;stroke-opacity:1"
       id="path67" />
    <path
       d="M -37.794,60.3226 C 65.5679,54.0432 -3.22072,4.41798 -24.2387,36.5734"
       style="fill:none;stroke:#000000;stroke-width:1px;stroke-linecap:butt;stroke-linejoin:miter;stroke-opacity:1"
       id="path68" />
    <path
       d="M -32.4115,60.657 C 71.5111,54.639 3.90567,4.9992 -17.0966,35.9569"
       style="fill:none;stroke:#000000;stroke-width:1px;stroke-linecap:butt;stroke-linejoin:miter;stroke-opacity:1"
       id="path69" />
    <path
       d="M -27.029,60.9915 C 77.4542,55.2347 11.0321,5.58043 -9.95457,35.3404"
       style="fill:none;stroke:#000000;stroke-width:1px;stroke-linecap:butt;stroke-linejoin:miter;stroke-opacity:1"
       id="path70" />
    <path
       d="M -21.6465,61.3259 C 83.3974,55.8305 18.1584,6.16166 -2.81253,34.7238"
       style="fill:none;stroke:#000000;stroke-width:1px;stroke-linecap:butt;stroke-linejoin:miter;stroke-opacity:1"
       id="path71" />
    <path
       d="M -16.264,61.6603 C 89.3405,56.4262 25.2848,6.74288 4.32952,34.1073"
       style="fill:none;stroke:#000000;stroke-width:1px;stroke-linecap:butt;stroke-linejoin:miter;stroke-opacity:1"
       id="path72" />
    <path
       d="M -10.8815,61.9947 C 95.2837,57.022 32.4112,7.32411 11.4716,33.4908"
       style="fill:none;stroke:#000000;stroke-width:1px;stroke-linecap:butt;stroke-linejoin:miter;stroke-opacity:1"
       id="path73" />
    <path
       d="M -5.49895,62.3292 C 101.227,57.6178 39.5376,7.90533 18.6136,32.8743"
       style="fill:none;stroke:#000000;stroke-width:1px;stroke-linecap:butt;stroke-linejoin:miter;stroke-opacity:1"
       id="path74" />
    <path
       d="M -0.116437,62.6636 C 107.17,58.2135 46.664,8.48656 25.7557,32.2577"
       style="fill:none;stroke:#000000;stroke-width:1px;stroke-linecap:butt;stroke-linejoin:miter;stroke-opacity:1"
       id="path75" />
    <path
       d="M 5.26607,62.998 C 113.113,58.8093 53.7904,9.06779 32.8977,31.6412"
       style="fill:none;stroke:#000000;stroke-width:1px;stroke-linecap:butt;stroke-linejoin:miter;stroke-opacity:1"
       id="path76" />
    <path
       d="M 10.6486,63.3324 C 119.056,59.405 60.9168,9.64901 40.0397,31.0247"
       style="fill:none;stroke:#000000;stroke-width:1px;stroke-linecap:butt;stroke-linejoin:miter;stroke-opacity:1"
       id="path77" />
    <path
       d="M 16.0311,63.6669 C 124.999,60.0008 68.0431,10.2302 47.1818,30.4082"
       style="fill:none;stroke:#000000;stroke-width:1px;stroke-linecap:butt;stroke-linejoin:miter;stroke-opacity:1"
       id="path78" />
    <path
       d="M 21.4136,64.0013 C 130.943,60.5965 75.1695,10.8115 54.3238,29.7917"
       style="fill:none;stroke:#000000;stroke-width:1px;stroke-linecap:butt;stroke-linejoin:miter;stroke-opacity:1"
       id="path79" />
    <path
       d="M 26.7961,64.3357 C 136.886,61.1923 82.2959,11.3927 61.4659,29.1751"
       style="fill:none;stroke:#000000;stroke-width:1px;stroke-linecap:butt;stroke-linejoin:miter;stroke-opacity:1"
       id="path80" />
    <path
       d="M 32.1786,64.6701 C 142.829,61.7881 89.4223,11.9739 68.6079,28.5586"
       style="fill:none;stroke:#000000;stroke-width:1px;stroke-linecap:butt;stroke-linejoin:miter;stroke-opacity:1"
       id="path81" />
    <path
       d="M 37.5611,65.0046 C 148.772,62.3838 96.5487,12.5551 75.75,27.9421"
       style="fill:none;stroke:#000000;stroke-width:1px;stroke-linecap:butt;stroke-linejoin:miter;stroke-opacity:1"
       id="path82" />
    <path
       d="M 42.9436,65.339 C 154.715,62.9796 103.675,13.1364 82.892,27.3256"
       style="fill:none;stroke:#000000;stroke-width:1px;stroke-linecap:butt;stroke-linejoin:miter;stroke-opacity:1"
       id="path83" />
    <path
       d="M 48.3262,65.6734 C 160.658,63.5753 110.801,13.7176 90.0341,26.709"
       style="fill:none;stroke:#000000;stroke-width:1px;stroke-linecap:butt;stroke-linejoin:miter;stroke-opacity:1"
       id="path84" />
    <path
       d="M 53.7087,66.0078 C 166.601,64.1711 117.928,14.2988 97.1761,26.0925"
       style="fill:none;stroke:#000000;stroke-width:1px;stroke-linecap:butt;stroke-linejoin:miter;stroke-opacity:1"
       id="path85" />
    <path
       d="M 59.0912,66.3422 C 172.545,64.7668 125.054,14.88 104.318,25.476"
       style="fill:none;stroke:#000000;stroke-width:1px;stroke-linecap:butt;stroke-linejoin:miter;stroke-opacity:1"
       id="path86" />
    <path
       d="M 64.4737,66.6767 C 178.488,65.3626 132.181,15.4613 111.46,24.8595"
       style="fill:none;stroke:#000000;stroke-width:1px;stroke-linecap:butt;stroke-linejoin:miter;stroke-opacity:1"
       id="path87" />
    <path
       d="M 69.8562,67.0111 C 184.431,65.9584 139.307,16.0425 118.602,24.243"
       style="fill:none;stroke:#000000;stroke-width:1px;stroke-linecap:butt;stroke-linejoin:miter;stroke-opacity:1"
       id="path88" />
    <path
       d="M 75.2387,67.3455 C 190.374,66.5541 146.433,16.6237 125.744,23.6264"
       style="fill:none;stroke:#000000;stroke-width:1px;stroke-linecap:butt;stroke-linejoin:miter;stroke-opacity:1"
       id="path89" />
    <path
       d="m 80.6212,67.6799 c 115.6958,-0.53 72.9388,-50.475 52.2648,-44.67"
       style="fill:none;stroke:#000000;stroke-width:1px;stroke-linecap:butt;stroke-linejoin:miter;stroke-opacity:1"
       id="path90" />
    <path
       d="M 86.0037,68.0144 C 202.26,67.7456 160.686,17.7862 140.028,22.3934"
       style="fill:none;stroke:#000000;stroke-width:1px;stroke-linecap:butt;stroke-linejoin:miter;stroke-opacity:1"
       id="path91" />
    <path
       d="M 91.3862,68.3488 C 208.204,68.3414 167.813,18.3674 147.17,21.7769"
       style="fill:none;stroke:#000000;stroke-width:1px;stroke-linecap:butt;stroke-linejoin:miter;stroke-opacity:1"
       id="path92" />
    <path
       d="M 96.7687,68.6832 C 214.147,68.9371 174.939,18.9486 154.312,21.1603"
       style="fill:none;stroke:#000000;stroke-width:1px;stroke-linecap:butt;stroke-linejoin:miter;stroke-opacity:1"
       id="path93" />
    <path
       d="M 102.151,69.0176 C 220.09,69.5329 182.065,19.5299 161.455,20.5438"
       style="fill:none;stroke:#000000;stroke-width:1px;stroke-linecap:butt;stroke-linejoin:miter;stroke-opacity:1"
       id="path94" />
    <path
       d="m 107.534,69.3521 c 118.499,0.7766 81.658,-49.241 61.063,-49.4248"
       style="fill:none;stroke:#000000;stroke-width:1px;stroke-linecap:butt;stroke-linejoin:miter;stroke-opacity:1"
       id="path95" />
    <path
       d="m 112.916,69.6865 c 119.06,1.0379 83.402,-48.9942 62.823,-50.3757"
       style="fill:none;stroke:#000000;stroke-width:1px;stroke-linecap:butt;stroke-linejoin:miter;stroke-opacity:1"
       id="path96" />
    <path
       d="m 118.299,70.0209 c 119.62,1.2993 85.145,-48.7474 64.582,-51.3267"
       style="fill:none;stroke:#000000;stroke-width:1px;stroke-linecap:butt;stroke-linejoin:miter;stroke-opacity:1"
       id="path97" />
    <path
       d="m 123.681,70.3553 c 120.181,1.5606 86.89,-48.5005 66.342,-52.2776"
       style="fill:none;stroke:#000000;stroke-width:1px;stroke-linecap:butt;stroke-linejoin:miter;stroke-opacity:1"
       id="path98" />
    <path
       d="M 129.064,70.6898 C 249.806,72.5117 217.697,22.436 197.165,17.4612"
       style="fill:none;stroke:#000000;stroke-width:1px;stroke-linecap:butt;stroke-linejoin:miter;stroke-opacity:1"
       id="path99" />
    <path
       d="m 134.446,71.0242 c 121.303,2.0832 90.378,-48.007 69.861,-54.1795"
       style="fill:none;stroke:#000000;stroke-width:1px;stroke-linecap:butt;stroke-linejoin:miter;stroke-opacity:1"
       id="path100" />
    <path
       d="m 139.829,71.3586 c 121.863,2.3446 92.121,-47.7602 71.62,-55.1304"
       style="fill:none;stroke:#000000;stroke-width:1px;stroke-linecap:butt;stroke-linejoin:miter;stroke-opacity:1"
       id="path101" />
    <path
       d="m 145.211,71.693 c 122.424,2.606 93.865,-47.5133 73.38,-56.0814"
       style="fill:none;stroke:#000000;stroke-width:1px;stroke-linecap:butt;stroke-linejoin:miter;stroke-opacity:1"
       id="path102" />
    <path
       d="m 150.594,72.0275 c 122.984,2.8672 95.609,-47.2666 75.139,-57.0324"
       style="fill:none;stroke:#000000;stroke-width:1px;stroke-linecap:butt;stroke-linejoin:miter;stroke-opacity:1"
       id="path103" />
    <path
       d="m 155.976,72.3619 c 123.545,3.1286 97.353,-47.0198 76.899,-57.9833"
       style="fill:none;stroke:#000000;stroke-width:1px;stroke-linecap:butt;stroke-linejoin:miter;stroke-opacity:1"
       id="path104" />
    <path
       d="m 161.359,72.6963 c 124.105,3.3899 99.097,-46.773 78.658,-58.9342"
       style="fill:none;stroke:#000000;stroke-width:1px;stroke-linecap:butt;stroke-linejoin:miter;stroke-opacity:1"
       id="path105" />
    <path
       d="M 166.741,73.0307 C 291.408,76.682 267.582,26.5046 247.159,13.1455"
       style="fill:none;stroke:#000000;stroke-width:1px;stroke-linecap:butt;stroke-linejoin:miter;stroke-opacity:1"
       id="path106" />
    <path
       d="M 172.124,73.3652 C 297.351,77.2777 274.708,27.0858 254.301,12.529"
       style="fill:none;stroke:#000000;stroke-width:1px;stroke-linecap:butt;stroke-linejoin:miter;stroke-opacity:1"
       id="path107" />
    <path
       d="M 177.506,73.6996 C 303.294,77.8735 281.835,27.667 261.443,11.9125"
       style="fill:none;stroke:#000000;stroke-width:1px;stroke-linecap:butt;stroke-linejoin:miter;stroke-opacity:1"
       id="path108" />
    <path
       d="M 182.889,74.034 C 309.237,78.4693 288.961,28.2482 268.585,11.296"
       style="fill:none;stroke:#000000;stroke-width:1px;stroke-linecap:butt;stroke-linejoin:miter;stroke-opacity:1"
       id="path109" />
    <path
       d="M 188.271,74.3684 C 315.18,79.065 296.087,28.8295 275.727,10.6794"
       style="fill:none;stroke:#000000;stroke-width:1px;stroke-linecap:butt;stroke-linejoin:miter;stroke-opacity:1"
       id="path110" />
    <path
       d="m 193.654,74.7028 c 127.469,4.958 109.56,-45.2921 89.215,-64.6399"
       style="fill:none;stroke:#000000;stroke-width:1px;stroke-linecap:butt;stroke-linejoin:miter;stroke-opacity:1"
       id="path111" />
    <path
       d="M 199.036,75.0373 C 327.067,80.2565 310.34,29.9919 290.011,9.4464"
       style="fill:none;stroke:#000000;stroke-width:1px;stroke-linecap:butt;stroke-linejoin:miter;stroke-opacity:1"
       id="path112" />
    <path
       d="M 204.419,75.3717 C 333.01,80.8523 317.467,30.5731 297.153,8.82988"
       style="fill:none;stroke:#000000;stroke-width:1px;stroke-linecap:butt;stroke-linejoin:miter;stroke-opacity:1"
       id="path113" />
    <path
       d="M 209.801,75.7061 C 338.953,81.448 324.593,31.1544 304.295,8.21335"
       style="fill:none;stroke:#000000;stroke-width:1px;stroke-linecap:butt;stroke-linejoin:miter;stroke-opacity:1"
       id="path114" />
    <path
       d="M 215.184,76.0405 C 344.896,82.0438 331.719,31.7356 311.437,7.59683"
       style="fill:none;stroke:#000000;stroke-width:1px;stroke-linecap:butt;stroke-linejoin:miter;stroke-opacity:1"
       id="path115" />
    <path
       d="M 220.566,76.375 C 350.839,82.6396 338.846,32.3168 318.58,6.98031"
       style="fill:none;stroke:#000000;stroke-width:1px;stroke-linecap:butt;stroke-linejoin:miter;stroke-opacity:1"
       id="path116" />
    <path
       d="M 225.949,76.7094 C 356.782,83.2353 345.972,32.898 325.722,6.36378"
       style="fill:none;stroke:#000000;stroke-width:1px;stroke-linecap:butt;stroke-linejoin:miter;stroke-opacity:1"
       id="path117" />
  </g>
</svg>
