<?xml version="1.0" encoding="UTF-8" standalone="no"?>
<!-- Created with Inkscape (http://www.inkscape.org/) -->

<svg
   width="50"
   height="50"
   viewBox="0 0 50 50"
   version="1.1"
   id="svg1"
   inkscape:version="1.3.2 (091e20e, 2023-11-25)"
   sodipodi:docname="mermaid_symbol.svg"
   xmlns:inkscape="http://www.inkscape.org/namespaces/inkscape"
   xmlns:sodipodi="http://sodipodi.sourceforge.net/DTD/sodipodi-0.dtd"
   xmlns="http://www.w3.org/2000/svg"
   xmlns:svg="http://www.w3.org/2000/svg">
  <sodipodi:namedview
     id="namedview1"
     pagecolor="#ffffff"
     bordercolor="#666666"
     borderopacity="1.0"
     inkscape:showpageshadow="2"
     inkscape:pageopacity="0.0"
     inkscape:pagecheckerboard="0"
     inkscape:deskcolor="#d1d1d1"
     inkscape:document-units="px"
     inkscape:zoom="37.222101"
     inkscape:cx="-11.928397"
     inkscape:cy="-3.7074748"
     inkscape:window-width="1528"
     inkscape:window-height="892"
     inkscape:window-x="198"
     inkscape:window-y="39"
     inkscape:window-maximized="0"
     inkscape:current-layer="layer7" />
  <defs
     id="defs1" />
  <g
     inkscape:label="Layer 1"
     inkscape:groupmode="layer"
     id="layer1"
     sodipodi:insensitive="true">
    <rect
       style="fill:#ececec;fill-rule:evenodd;stroke:none;stroke-width:0.33;stroke-linecap:square"
       id="rect1"
       width="50"
       height="50"
       x="-25"
       y="-25" />
  </g>
  <g
     inkscape:groupmode="layer"
     id="layer5"
     inkscape:label="design"
     style="display:none"
     sodipodi:insensitive="true">
    <path
       style="color:#000000;display:inline;fill:#000000;-inkscape-stroke:none"
       d="m -5.1015625,-1.8763315 c -2.483149,1.69612683 -7.2552845,0.6531338 -10.2882505,1.144471 l -2.644647,-0.048901 -0.234375,0.97070313 c 2.91903,-0.18360828 2.703977,1.08325337 4.262976,1.79833957 L -5.1113281,-0.03320312 4.0449219,2.2460938 14.724259,0.27311934 22.769531,1.6699219 24.067338,0.31830112 C 20.864114,0.18026657 17.55361,0.42913457 14.694685,-1.1374805 11.491338,1.0559136 7.4941659,-0.7009782 4.0800781,1.2246094 1.0195312,0.19096245 -3.4286366,-2.4552172 -5.1015625,-1.8763315 Z"
       id="path1"
       sodipodi:nodetypes="ccccccccccccc"
       inkscape:label="mermaid"
       sodipodi:insensitive="true" />
    <path
       id="path9"
       style="fill:#008080;fill-rule:evenodd;stroke-width:0.33;stroke-linecap:square"
       d="m -17.466233,-0.70293631 c -0.411698,0.8582029 -0.493223,0.96828933 -0.963553,1.50405161 -0.26911,0.2600163 -0.839116,0.5326397 -1.086399,0.416588 -0.05715,-0.035351 -0.07765,-0.1318284 -0.151559,-0.1828144 -0.07649,-0.0527666 -0.134597,-0.0644533 -0.223476,-0.11899312 -0.116347,-0.071395 -0.130445,-0.18053648 -0.27825,-0.22600353 -0.03373,-0.0124605 -0.05098,0.044116 -0.125031,0.0200412 -0.129035,-0.15890716 -0.125958,-0.3374109 -0.194465,-0.43126959 -0.06675,-0.0914537 -0.254433,-0.35670517 -0.327879,-0.54177153 -0.183472,-0.46230104 -0.167221,-1.03095543 -0.08332,-1.25866403 0.283847,-0.7699622 1.109388,-1.2976214 1.949958,-1.2976214 1.060698,0.1571286 1.412229,1.0195577 1.483974,2.11645679 z"
       sodipodi:nodetypes="cccssccssscc"
       inkscape:label="head" />
    <path
       style="fill:#ffccaa;stroke:none;stroke-width:1px;stroke-linecap:butt;stroke-linejoin:miter;stroke-opacity:1"
       d="m -20.957271,-0.6819024 c 0.486524,-0.9289288 1.596256,-0.9399202 2.024597,0.0501491 0.144425,-0.24929171 0.156137,-0.4984269 0.129997,-0.6173142 0.37931,-0.9958389 0.36438,0.23483 0.515163,0.59588629 0.14624,0.0213529 0.313709,-0.14577727 0.779656,-0.0724183 0.26167,0.0411975 1.868856,-0.15873002 2.74617,-0.67782239 1.310008,-0.7751102 3.61478,-1.2344009 4.337834,-1.0706841 -0.635336,-0.3600871 -2.942899,-0.4868019 -4.309668,0.00965 -1.131905,0.4111446 -2.497282,0.067641 -2.907749,-0.20009 -0.424345,-0.2767835 -1.049995,-0.2277501 -1.474883,-0.2117583 -1.664088,0.062633 -2.120693,1.4862054 -1.841117,2.19439888 z"
       id="path10"
       sodipodi:nodetypes="ccccsscsssc"
       inkscape:label="hair_rest" />
    <path
       id="rect12"
       style="fill:#000000;fill-opacity:1;fill-rule:evenodd;stroke:none;stroke-width:0.33;stroke-linecap:square"
       d="m -15.165267,-0.76687452 c -0.380258,-0.11397638 -0.672663,0.0949376 -0.686511,0.39765914 -0.01156,0.25268757 0.205843,0.60116283 0.399397,0.59452674 0.54328,-0.0186262 0.922723,0.50148229 1.964401,0.64926413 0.761113,0.10797921 2.499794,0.32530021 3.045033,0.84489901 1.3187334,0.7714668 2.6751618,1.275029 3.9524672,2.3409367 L -5.9091363,3.6330007 -9.9654075,0.82494343 Z"
       sodipodi:nodetypes="csssccccc"
       inkscape:label="arm" />
    <path
       id="rect13"
       style="fill:#008080;fill-rule:evenodd;stroke-width:0.509599;stroke-linecap:square"
       d="m -6.5649433,4.0306396 0.203884,-0.3019104 0.4184329,-0.1545891 0.6920432,0.6035316 0.4847255,0.7985947 -0.062454,0.517937 -0.091954,0.107522 -1.0043326,-0.9189106 c 0.041192,0.2282961 0.2519808,0.4465238 0.1118296,0.6855864 L -6.1556244,4.8559595 -6.413816,4.542765 Z"
       sodipodi:nodetypes="cccccccccccc"
       inkscape:label="hand" />
  </g>
  <g
     inkscape:groupmode="layer"
     id="data paths"
     inkscape:label="data_paths_fins"
     style="display:none"
     sodipodi:insensitive="true">
    <path
       style="color:#000000;display:inline;fill:#000000;-inkscape-stroke:none"
       d="m -5.1015625,-1.8763315 c -2.483149,1.69612683 -7.2552845,0.6531338 -10.2882505,1.144471 l -2.644647,-0.048901 -0.234375,0.97070313 c 2.91903,-0.18360828 2.703977,1.08325337 4.262976,1.79833957 l 8.8945309,-2.02148432 9.15625,2.27929692 10.6793371,-1.97297446 c 3.125978,0.44660303 5.363515,1.27855536 8.045272,1.39680256 L 24.067338,0.31830112 C 20.864114,0.18026657 17.55361,0.42913457 14.694685,-1.1374805 11.491338,1.0559136 7.4941659,-0.7009782 4.0800781,1.2246094 1.0195312,0.19096245 -3.4286366,-2.4552172 -5.1015625,-1.8763315 Z"
       id="path2"
       sodipodi:nodetypes="ccccccccccccc"
       inkscape:label="rest"
       sodipodi:insensitive="true" />
    <path
       style="color:#000000;display:inline;fill:#000000;-inkscape-stroke:none"
       d="m -5.1015625,-1.8763315 c -2.483149,1.69612683 -7.2552845,0.6531338 -10.2882505,1.144471 l -2.644647,-0.048901 -0.234375,0.97070313 c 2.91903,-0.18360828 2.703977,1.08325337 4.262976,1.79833957 l 8.8945309,-2.02148432 9.15625,3.70211172 10.6958531,-0.6693544 c 2.888618,0.5005945 5.545247,0.7545341 8.433866,-0.07766 L 23.664066,1.7647091 C 20.616011,1.9698158 17.947284,3.9896155 14.711201,1.5889544 11.507854,3.7823485 7.4941659,0.72183663 4.0800781,2.6474242 1.0195312,1.6137773 -3.4286366,-2.4552172 -5.1015625,-1.8763315 Z"
       id="path3"
       sodipodi:nodetypes="ccccccccccccc"
       inkscape:label="down"
       sodipodi:insensitive="true" />
    <path
       style="color:#000000;display:inline;fill:#000000;-inkscape-stroke:none"
       d="m -5.1015625,-1.8763315 c -2.483149,1.69612683 -7.2552845,0.6531338 -10.2882505,1.144471 l -2.644647,-0.048901 -0.234375,0.97070313 c 2.91903,-0.18360828 2.703977,1.08325337 4.262976,1.79833957 l 8.8945309,-2.02148432 9.15625,2.27929692 10.6793371,-1.97297446 c 3.125978,0.44660303 5.363515,1.27855536 8.045272,1.39680256 L 24.067338,0.31830112 C 20.864114,0.18026657 17.55361,0.42913457 14.694685,-1.1374805 11.491338,1.0559136 7.4941659,-0.7009782 4.0800781,1.2246094 1.0195312,0.19096245 -3.4286366,-2.4552172 -5.1015625,-1.8763315 Z"
       id="path6"
       sodipodi:nodetypes="ccccccccccccc"
       inkscape:label="rest"
       sodipodi:insensitive="true" />
    <path
       style="color:#000000;display:inline;fill:#000000;-inkscape-stroke:none"
       d="m -5.1015625,-1.8763315 c -2.483149,1.69612683 -7.2552845,0.6531338 -10.2882505,1.144471 l -2.644647,-0.048901 -0.234375,0.97070313 c 2.91903,-0.18360828 2.703977,1.08325337 4.262976,1.79833957 l 8.8945309,-2.02148432 9.738505,0.15294524 10.1017621,-1.53964802 c 3.070213,-0.2908427 6.203098,0.54868883 8.542092,1.35937909 l 0.966278,-1.04691339 c -6.953955,-1.048655 -7.728273,-1.831476 -9.537944,-1.7230656 -3.203347,2.19339414 -6.6229441,0.00318 -10.0370319,1.92876352 C 1.6214408,-1.4768464 -3.3826171,-1.3815815 -5.1015625,-1.8763315 Z"
       id="path4"
       sodipodi:nodetypes="ccccccccccccc"
       inkscape:label="up"
       sodipodi:insensitive="true" />
    <path
       style="color:#000000;display:inline;fill:#000000;-inkscape-stroke:none"
       d="m -5.1015625,-1.8763315 c -2.483149,1.69612683 -7.2552845,0.6531338 -10.2882505,1.144471 l -2.644647,-0.048901 -0.234375,0.97070313 c 2.91903,-0.18360828 2.703977,1.08325337 4.262976,1.79833957 l 8.8945309,-2.02148432 9.15625,2.27929692 10.6793371,-1.97297446 c 3.125978,0.44660303 5.363515,1.27855536 8.045272,1.39680256 L 24.067338,0.31830112 C 20.864114,0.18026657 17.55361,0.42913457 14.694685,-1.1374805 11.491338,1.0559136 7.4941659,-0.7009782 4.0800781,1.2246094 1.0195312,0.19096245 -3.4286366,-2.4552172 -5.1015625,-1.8763315 Z"
       id="path7"
       sodipodi:nodetypes="ccccccccccccc"
       inkscape:label="rest"
       sodipodi:insensitive="true" />
  </g>
  <g
     inkscape:groupmode="layer"
     id="layer7"
     inkscape:label="data_paths_hair"
     style="display:none"
     sodipodi:insensitive="true">
    <path
       style="display:none;fill:#ffccaa;stroke:none;stroke-width:1px;stroke-linecap:butt;stroke-linejoin:miter;stroke-opacity:1"
       d="m -20.957271,-0.6819024 c 0.486524,-0.9289288 1.596256,-0.9399202 2.024597,0.0501491 0.144425,-0.24929171 0.156137,-0.4984269 0.129997,-0.6173142 0.37931,-0.9958389 0.36438,0.23483 0.515163,0.59588629 0.14624,0.0213529 0.313709,-0.14577727 0.779656,-0.0724183 0.26167,0.0411975 1.868856,-0.15873002 2.74617,-0.67782239 1.310008,-0.7751102 3.61478,-1.2344009 4.337834,-1.0706841 -0.635336,-0.3600871 -2.942899,-0.4868019 -4.309668,0.00965 -1.131905,0.4111446 -2.497282,0.067641 -2.907749,-0.20009 -0.424345,-0.2767835 -1.049995,-0.2277501 -1.474883,-0.2117583 -1.664088,0.062633 -2.120693,1.4862054 -1.841117,2.19439888 z"
       id="path19"
       sodipodi:nodetypes="ccccsscsssc"
       inkscape:label="hair_rest"
       sodipodi:insensitive="true" />
    <path
       style="display:none;fill:#ffccaa;stroke:none;stroke-width:1px;stroke-linecap:butt;stroke-linejoin:miter;stroke-opacity:1"
       d="m -20.957271,-0.6819024 c 0.486524,-0.9289288 1.596256,-0.9399202 2.024597,0.0501491 0.144425,-0.24929171 0.156137,-0.4984269 0.129997,-0.6173142 0.37931,-0.9958389 0.36438,0.23483 0.515163,0.59588629 0.14624,0.0213529 0.313709,-0.14577727 0.779656,-0.0724183 0.26167,0.0411975 1.854187,-0.12687245 2.867883,-0.23437831 1.354801,-0.14368118 2.84489,-0.70871488 3.26357,-2.48984518 -0.841766,0.7927891 -1.868635,1.3760328 -3.235404,1.4288111 -1.203366,0.046468 -2.618995,-0.3758031 -3.029462,-0.6435341 -0.424345,-0.2767835 -1.049995,-0.2277501 -1.474883,-0.2117583 -1.664088,0.062633 -2.120693,1.4862054 -1.841117,2.19439888 z"
       id="path15"
       sodipodi:nodetypes="ccccsscssscc"
       inkscape:label="hair_down"
       sodipodi:insensitive="true" />
    <path
       style="display:none;fill:#ffccaa;stroke:none;stroke-width:1px;stroke-linecap:butt;stroke-linejoin:miter;stroke-opacity:1"
       d="m -20.957271,-0.6819024 c 0.486524,-0.9289288 1.596256,-0.9399202 2.024597,0.0501491 0.144425,-0.24929171 0.156137,-0.4984269 0.129997,-0.6173142 0.37931,-0.9958389 0.36438,0.23483 0.515163,0.59588629 0.14624,0.0213529 0.313709,-0.14577727 0.779656,-0.0724183 0.26167,0.0411975 1.563821,-1.42054239 2.583129,-1.43271679 1.514927,-0.018094 3.309041,0.538449 4.032095,0.7021658 -0.635336,-0.3600871 -2.425217,-1.6466045 -4.003929,-1.7631999 -1.200992,-0.088699 -2.334241,0.8225354 -2.744708,0.5548044 -0.424345,-0.2767835 -1.049995,-0.2277501 -1.474883,-0.2117583 -1.664088,0.062633 -2.120693,1.4862054 -1.841117,2.19439888 z"
       id="path20"
       sodipodi:nodetypes="ccccsscssscc"
       inkscape:label="hair_rise"
       sodipodi:insensitive="true" />
    <path
       style="display:none;fill:#ffccaa;stroke:none;stroke-width:1px;stroke-linecap:butt;stroke-linejoin:miter;stroke-opacity:1"
       d="m -20.957271,-0.6819024 c 0.486524,-0.9289288 1.596256,-0.9399202 2.024597,0.0501491 0.144425,-0.24929171 0.156137,-0.4984269 0.129997,-0.6173142 0.37931,-0.9958389 0.36438,0.23483 0.515163,0.59588629 0.14624,0.0213529 0.313709,-0.14577727 0.779656,-0.0724183 0.26167,0.0411975 1.868856,-0.15873002 2.74617,-0.67782239 1.310008,-0.7751102 1.85313,-1.2200383 2.421186,-2.7431038 -0.832994,1.1465213 -1.026251,1.1856178 -2.39302,1.6820697 -1.131905,0.4111446 -2.497282,0.067641 -2.907749,-0.20009 -0.424345,-0.2767835 -1.049995,-0.2277501 -1.474883,-0.2117583 -1.664088,0.062633 -2.120693,1.4862054 -1.841117,2.19439888 z"
       id="path21"
       sodipodi:nodetypes="ccccsscssscc"
       inkscape:label="hair_up"
       sodipodi:insensitive="true" />
    <path
       style="display:none;fill:#ffccaa;stroke:none;stroke-width:1px;stroke-linecap:butt;stroke-linejoin:miter;stroke-opacity:1"
       d="m -20.957271,-0.6819024 c 0.486524,-0.9289288 1.596256,-0.9399202 2.024597,0.0501491 0.144425,-0.24929171 0.156137,-0.4984269 0.129997,-0.6173142 0.37931,-0.9958389 0.36438,0.23483 0.515163,0.59588629 0.14624,0.0213529 0.313709,-0.14577727 0.779656,-0.0724183 0.26167,0.0411975 1.868856,-0.15873002 2.74617,-0.67782239 1.310008,-0.7751102 3.61478,-1.2344009 4.337834,-1.0706841 -0.635336,-0.3600871 -2.942899,-0.4868019 -4.309668,0.00965 -1.131905,0.4111446 -2.497282,0.067641 -2.907749,-0.20009 -0.424345,-0.2767835 -1.049995,-0.2277501 -1.474883,-0.2117583 -1.664088,0.062633 -2.120693,1.4862054 -1.841117,2.19439888 z"
       id="path22"
       sodipodi:nodetypes="ccccsscsssc"
       inkscape:label="hair_rest"
       sodipodi:insensitive="true" />
  </g>
  <g
     inkscape:groupmode="layer"
     id="g5"
     inkscape:label="display"
     sodipodi:insensitive="true"
     style="display:inline">
    <path
       style="color:#000000;display:inline;fill:#000000;-inkscape-stroke:none"
       d="m -5.1015625,-1.8763315 c -2.483149,1.69612683 -7.2552845,0.6531338 -10.2882505,1.144471 l -2.644647,-0.048901 -0.234375,0.97070313 c 2.91903,-0.18360828 2.703977,1.08325337 4.262976,1.79833957 l 8.8945309,-2.02148432 9.15625,2.27929692 10.6793371,-1.97297446 c 3.125978,0.44660303 5.363515,1.27855536 8.045272,1.39680256 L 24.067338,0.31830112 C 20.864114,0.18026657 17.55361,0.42913457 14.694685,-1.1374805 11.491338,1.0559136 7.4941659,-0.7009782 4.0800781,1.2246094 1.0195312,0.19096245 -3.4286366,-2.4552172 -5.1015625,-1.8763315 Z"
       id="path8"
       sodipodi:nodetypes="ccccccccccccc"
       inkscape:label="rest"
       sodipodi:insensitive="true" />
    <path
       id="path11"
       style="display:inline;fill:#008080;fill-rule:evenodd;stroke-width:0.33;stroke-linecap:square"
       d="m -17.466233,-0.70293631 c -0.411698,0.8582029 -0.493223,0.96828933 -0.963553,1.50405161 -0.26911,0.2600163 -0.839116,0.5326397 -1.086399,0.416588 -0.05715,-0.035351 -0.07765,-0.1318284 -0.151559,-0.1828144 -0.07649,-0.0527666 -0.134597,-0.0644533 -0.223476,-0.11899312 -0.116347,-0.071395 -0.130445,-0.18053648 -0.27825,-0.22600353 -0.03373,-0.0124605 -0.05098,0.044116 -0.125031,0.0200412 -0.129035,-0.15890716 -0.125958,-0.3374109 -0.194465,-0.43126959 -0.06675,-0.0914537 -0.254433,-0.35670517 -0.327879,-0.54177153 -0.183472,-0.46230104 -0.167221,-1.03095543 -0.08332,-1.25866403 0.283847,-0.7699622 1.109388,-1.2976214 1.949958,-1.2976214 1.060698,0.1571286 1.412229,1.0195577 1.483974,2.11645679 z"
       sodipodi:nodetypes="cccssccssscc"
       inkscape:label="head" />
    <path
       style="display:inline;fill:#ffccaa;stroke:none;stroke-width:1px;stroke-linecap:butt;stroke-linejoin:miter;stroke-opacity:1"
       d="m -20.957271,-0.6819024 c 0.486524,-0.9289288 1.596256,-0.9399202 2.024597,0.0501491 0.144425,-0.24929171 0.156137,-0.4984269 0.129997,-0.6173142 0.37931,-0.9958389 0.36438,0.23483 0.515163,0.59588629 0.14624,0.0213529 0.313709,-0.14577727 0.779656,-0.0724183 0.26167,0.0411975 1.868856,-0.15873002 2.74617,-0.67782239 1.310008,-0.7751102 3.61478,-1.2344009 4.337834,-1.0706841 -0.635336,-0.3600871 -2.942899,-0.4868019 -4.309668,0.00965 -1.131905,0.4111446 -2.497282,0.067641 -2.907749,-0.20009 -0.424345,-0.2767835 -1.049995,-0.2277501 -1.474883,-0.2117583 -1.664088,0.062633 -2.120693,1.4862054 -1.841117,2.19439888 z"
       id="path12"
       sodipodi:nodetypes="ccccsscsssc"
       inkscape:label="hair_rest" />
    <g
       id="g14"
       inkscape:label="arm">
      <path
         id="path13"
         style="display:inline;fill:#000000;fill-opacity:1;fill-rule:evenodd;stroke:none;stroke-width:0.33;stroke-linecap:square"
         d="m -15.165267,-0.76687452 c -0.380258,-0.11397638 -0.672663,0.0949376 -0.686511,0.39765914 -0.01156,0.25268757 0.205843,0.60116283 0.399397,0.59452674 0.54328,-0.0186262 0.922723,0.50148229 1.964401,0.64926413 0.761113,0.10797921 2.499794,0.32530021 3.045033,0.84489901 1.3187334,0.7714668 2.6751618,1.275029 3.9524672,2.3409367 L -5.9091363,3.6330007 -9.9654075,0.82494343 Z"
         sodipodi:nodetypes="csssccccc"
         inkscape:label="arm" />
      <path
         id="path14"
         style="display:inline;fill:#008080;fill-rule:evenodd;stroke-width:0.509599;stroke-linecap:square"
         d="m -6.5649433,4.0306396 0.203884,-0.3019104 0.4184329,-0.1545891 0.6920432,0.6035316 0.4847255,0.7985947 -0.062454,0.517937 -0.091954,0.107522 -1.0043326,-0.9189106 c 0.041192,0.2282961 0.2519808,0.4465238 0.1118296,0.6855864 L -6.1556244,4.8559595 -6.413816,4.542765 Z"
         sodipodi:nodetypes="cccccccccccc"
         inkscape:label="hand" />
    </g>
  </g>
</svg>
