<?xml version="1.0" encoding="UTF-8" standalone="no"?>
<!-- Created with Inkscape (http://www.inkscape.org/) -->

<svg
   width="100"
   height="100"
   viewBox="0 0 100 100"
   version="1.1"
   id="svg1"
   inkscape:version="1.3.2 (091e20e, 2023-11-25)"
   sodipodi:docname="oyester.svg"
   inkscape:export-filename="oyester.png"
   inkscape:export-xdpi="192"
   inkscape:export-ydpi="192"
   xmlns:inkscape="http://www.inkscape.org/namespaces/inkscape"
   xmlns:sodipodi="http://sodipodi.sourceforge.net/DTD/sodipodi-0.dtd"
   xmlns="http://www.w3.org/2000/svg"
   xmlns:svg="http://www.w3.org/2000/svg">
  <sodipodi:namedview
     id="namedview1"
     pagecolor="#ffffff"
     bordercolor="#666666"
     borderopacity="1.0"
     inkscape:showpageshadow="2"
     inkscape:pageopacity="0.0"
     inkscape:pagecheckerboard="0"
     inkscape:deskcolor="#d1d1d1"
     inkscape:document-units="px"
     inkscape:zoom="8"
     inkscape:cx="57.1875"
     inkscape:cy="48.875"
     inkscape:window-width="1714"
     inkscape:window-height="982"
     inkscape:window-x="120"
     inkscape:window-y="32"
     inkscape:window-maximized="0"
     inkscape:current-layer="g104" />
  <defs
     id="defs1">
    <filter
       style="color-interpolation-filters:sRGB;"
       inkscape:label="Noise Fill"
       id="filter30"
       x="0"
       y="0"
       width="1"
       height="1">
      <feTurbulence
         type="fractalNoise"
         baseFrequency="20 20"
         numOctaves="5"
         seed="60"
         result="turbulence"
         id="feTurbulence29" />
      <feComposite
         in="SourceGraphic"
         in2="turbulence"
         operator="in"
         result="composite1"
         id="feComposite29" />
      <feColorMatrix
         values="1 0 0 0 0 0 1 0 0 0 0 0 1 0 0 0 0 0 5 -1 "
         result="color"
         id="feColorMatrix29" />
      <feFlood
         flood-opacity="0.054902"
         flood-color="rgb(0,0,0)"
         result="flood"
         id="feFlood29" />
      <feMerge
         result="merge"
         id="feMerge30">
        <feMergeNode
           in="flood"
           id="feMergeNode29" />
        <feMergeNode
           in="color"
           id="feMergeNode30" />
      </feMerge>
      <feComposite
         in2="SourceGraphic"
         operator="in"
         result="composite2"
         id="feComposite30" />
    </filter>
    <filter
       style="color-interpolation-filters:sRGB;"
       inkscape:label="Noise Fill"
       id="filter37"
       x="0"
       y="0"
       width="1"
       height="1">
      <feTurbulence
         type="fractalNoise"
         baseFrequency="20 20"
         numOctaves="5"
         seed="60"
         result="turbulence"
         id="feTurbulence36" />
      <feComposite
         in="SourceGraphic"
         in2="turbulence"
         operator="in"
         result="composite1"
         id="feComposite36" />
      <feColorMatrix
         values="1 0 0 0 0 0 1 0 0 0 0 0 1 0 0 0 0 0 5 -1 "
         result="color"
         id="feColorMatrix36" />
      <feFlood
         flood-opacity="0.0156863"
         flood-color="rgb(0,0,0)"
         result="flood"
         id="feFlood36" />
      <feMerge
         result="merge"
         id="feMerge37">
        <feMergeNode
           in="flood"
           id="feMergeNode36" />
        <feMergeNode
           in="color"
           id="feMergeNode37" />
      </feMerge>
      <feComposite
         in2="SourceGraphic"
         operator="in"
         result="composite2"
         id="feComposite37" />
    </filter>
    <filter
       style="color-interpolation-filters:sRGB;"
       inkscape:label="Noise Fill"
       id="filter102"
       x="0"
       y="0"
       width="1"
       height="1">
      <feTurbulence
         type="fractalNoise"
         baseFrequency="5 5"
         numOctaves="3"
         seed="5"
         result="turbulence"
         id="feTurbulence101" />
      <feComposite
         in="SourceGraphic"
         in2="turbulence"
         operator="in"
         result="composite1"
         id="feComposite101" />
      <feColorMatrix
         values="1 0 0 0 0 0 1 0 0 0 0 0 1 0 0 0 0 0 4 -0.5 "
         result="color"
         id="feColorMatrix101" />
      <feFlood
         flood-opacity="0.0156863"
         flood-color="rgb(0,0,0)"
         result="flood"
         id="feFlood101" />
      <feMerge
         result="merge"
         id="feMerge102">
        <feMergeNode
           in="flood"
           id="feMergeNode101" />
        <feMergeNode
           in="color"
           id="feMergeNode102" />
      </feMerge>
      <feComposite
         in2="SourceGraphic"
         operator="in"
         result="composite2"
         id="feComposite102" />
    </filter>
  </defs>
  <g
     inkscape:groupmode="layer"
     id="layer8"
     inkscape:label="Layer 2">
    <rect
       style="fill:#333333;fill-opacity:1;fill-rule:evenodd;stroke:none;stroke-width:0.2;stroke-linecap:round;stroke-dasharray:none"
       id="rect14"
       width="100.06405"
       height="100.12959"
       x="-0.57465273"
       y="-0.39483726" />
    <rect
       style="fill:#f4e3d7;fill-opacity:1;fill-rule:evenodd;stroke:none;stroke-width:0.2;stroke-linecap:round;stroke-dasharray:none;filter:url(#filter102)"
       id="rect39"
       width="101.64967"
       height="101.67896"
       x="-1.0874214"
       y="-0.3897934" />
    <g
       id="g104"
       style="display:inline">
      <path
         id="rect103"
         style="fill:#2ca089;fill-opacity:0.133702;fill-rule:evenodd;stroke-width:0.2;stroke-linecap:round"
         d="M 24.278073,-0.5474165 35.363319,-1.0301262 C -19.899714,44.173861 13.818508,73.662415 -2.5546306,84.603851 L -2.6174965,20.242855 C -0.90136982,10.45849 9.4186801,8.5783842 24.278073,-0.5474165 Z"
         sodipodi:nodetypes="ccccc" />
      <path
         id="path103"
         style="fill:#2ca089;fill-opacity:0.133702;fill-rule:evenodd;stroke-width:0.2;stroke-linecap:round"
         d="M 77.778906,0.08060473 67.541255,-0.42931921 C 68.113015,30.913486 104.23634,41.450418 102.17086,83.168678 l 0.0777,-59.042163 C 96.688366,13.304415 77.001531,13.733038 77.778906,0.08060473 Z"
         sodipodi:nodetypes="ccccc" />
      <path
         id="path104"
         style="fill:#2ca089;fill-opacity:0.133702;fill-rule:evenodd;stroke-width:0.2;stroke-linecap:round"
         d="M 54.757407,-0.73733502 45.385921,-1.5101679 C -2.5101036,42.97001 26.774132,69.644513 -9.0313356,103.0207 L 92.066721,101.08861 C 92.37299,67.161571 49.486743,40.201452 54.757407,-0.73733502 Z"
         sodipodi:nodetypes="ccccc" />
    </g>
  </g>
  <g
     inkscape:label="Layer 1"
     inkscape:groupmode="layer"
     id="layer1"
     sodipodi:insensitive="true">
    <path
       id="path1"
       style="fill:#999999;fill-rule:evenodd;stroke:#666666;stroke-width:0.475092;stroke-linecap:square"
       transform="matrix(0.71817291,0.69586469,-0.68989702,0.72390752,0,0)"
       d="m 93.975008,10.060413 c -2.97498,5.855005 1.187313,4.915108 -0.748887,10.113808 -1.7486,4.695 0.210112,11.551184 -6.5652,12.6734 -7.382019,1.222707 -11.843618,2.530951 -14.238621,4.789379 -2.183238,2.058739 -5.1097,2.8647 -7.6774,0.9941 -1.8531,-1.35 -5.207854,-4.775721 -6.728954,-6.914121 -1.6111,-2.2649 -1.581206,-5.90772 -2.710406,-8.87702 C 54.26454,20.102759 54.1153,18.1384 53.5758,14.9539 53.0792,12.0226 52.7479,6.28285 52.7479,3.09067 c 0,-18.89437 9.6396,-33.15487 21.1136,-33.15487 4.8938,0 8.75313,4.348714 13.5848,7.6653 2.187469,1.501537 2.623762,4.766571 4.170334,7.374969 1.341241,2.262093 3.98338,3.748737 3.582966,6.635011 -0.594051,4.2820488 3.423665,9.30117899 1.2277,13.62302 z"
       sodipodi:nodetypes="sssssssssssssss" />
    <path
       id="path6"
       style="fill:#666666;fill-opacity:0.286173;fill-rule:evenodd;stroke:none;stroke-width:0.396262;stroke-linecap:square"
       d="m 59.38785,70.181298 c -5.489343,1.697165 -2.256055,3.431661 -6.67986,5.322741 -3.995182,1.707855 -6.949099,6.659514 -11.962168,3.605101 -5.461974,-3.327926 -9.11219,-5.016733 -12.025881,-5.041549 -2.656064,-0.02262 -5.018346,-1.159895 -5.510343,-3.618341 -0.355075,-1.77425 -0.395872,-5.542532 -0.05557,-7.582672 0.360421,-2.160836 2.613292,-4.208629 3.713268,-6.506115 1.013951,-2.117935 2.123237,-3.312256 3.7316,-5.410487 1.480485,-1.931399 4.788637,-5.364075 6.746092,-7.172811 11.586084,-10.705831 26.483967,-13.535687 33.808229,-7.286198 3.123888,2.665483 2.92079,7.231572 3.971277,11.742442 0.475592,2.042231 -1.248035,4.129881 -1.860281,6.450203 -0.530961,2.012262 0.243996,4.293698 -1.781474,5.711013 -3.00497,2.102713 -3.518065,7.134937 -7.569993,8.387691 z"
       sodipodi:nodetypes="sssssssssssssss" />
    <path
       id="path3"
       style="fill:#e3dedb;fill-opacity:1;fill-rule:evenodd;stroke:#666666;stroke-width:0.31003;stroke-linecap:square"
       d="m 59.175595,39.506443 c -5.530249,0.01 -16.95744,5.704357 -18.686187,10.53957 -6.630041,0.515483 -8.836861,3.772909 -8.853562,9.897223 7.08e-4,6.520062 -6.015837,11.530639 1.067746,11.531277 1.886281,-0.0028 3.748673,-0.388517 5.454493,-1.129601 2.092222,1.270831 6.007816,5.691844 8.514532,5.694637 3.924264,1.32e-4 4.763592,-3.933568 7.816447,-8.082714 2.458293,-3.341076 7.567577,-6.637188 7.567893,-9.545792 -9.65e-4,-2.133018 4.393704,-6.172788 3.204059,-8.003288 0.254183,-0.918734 0.387225,-1.862302 0.396252,-2.810322 4.64e-4,-6.521444 0.603412,-8.091229 -6.481673,-8.09099 z"
       sodipodi:nodetypes="ccccccscccc" />
    <path
       id="path2"
       style="fill:#b3b3b3;fill-rule:evenodd;stroke:#666666;stroke-width:0.396309;stroke-linecap:square"
       transform="matrix(-0.22081237,0.97531631,-0.99397838,-0.10957637,0,0)"
       d="m 43.998195,-49.409208 c -0.641031,3.201317 1.78523,5.17475 1.43433,8.10825 -0.4578,3.8272 -1.405072,5.334482 -2.365172,8.499082 -1.2298,4.0533 -4.117063,11.475887 -5.969863,13.975187 -2.1793,2.9396 -7.13379,2.321789 -9.83519,2.321789 -1.9084,0 -2.222,1.0618 -3.8968,-0.4679 -5.4912,-5.0153 -10.18,-18.9099 -10.18,-33.4476 0,-18.9716 6.45998,-32.23293 14.62568,-32.23293 2.1248,0 4.040957,0.112632 5.866957,1.987632 1.9916,2.0449 6.056758,4.13249 7.470658,7.89139 0.8434,2.2423 3.1401,5.6076 3.7121,8.3067 0.9686,4.5708 1.387061,3.823062 0.295202,9.275817 z"
       sodipodi:nodetypes="sssssssssssss" />
    <path
       id="ellipse2"
       style="fill:#b3b3b3;fill-rule:evenodd;stroke:#666666;stroke-width:0.373612;stroke-linecap:square"
       transform="matrix(-0.19791681,0.98021882,-0.99244657,-0.12267763,0,0)"
       d="m 38.716413,-42.605463 c -0.79357,5.711418 1.03104,6.10725 -0.26996,10.68375 -0.8036,2.827 -1.766925,7.015049 -2.948025,9.162849 -2.5849,4.7008 -6.675527,0.411453 -9.995028,5.235464 -1.605508,2.333179 -6.3506,-3.3599 -8.5415,-6.0614 -1.6419,-2.0246 -1.5927,-2.465 -2.7441,-5.6148 -0.9595,-2.6251 -3.7268,-6.9545 -4.24297,-10.1472 -0.498,-3.0802 1.11577,-6.4768 1.11577,-9.9074 0,-3.6034 -1.4825953,-5.333112 -0.935465,-8.545212 0.53975,-3.1686 0.9868,-6.018621 1.938365,-7.035388 2.871658,-3.068426 4.837337,-10.375926 7.022637,-12.420126 1.8361,-1.7175 2.901863,-2.862274 5.044463,-2.862274 1.8874,0 4.0981,3.4899 5.7562,4.8405 1.9453,1.5846 1.4738,0.9188 2.9142,3.9675 1.2395,2.6236 4.6442,7.153 5.3691,10.5673 0.8054,3.7943 2.430286,4.361344 1.816052,8.782061 z"
       sodipodi:nodetypes="sssssssssssssssss" />
    <path
       id="ellipse3"
       style="fill:#b3b3b3;fill-rule:evenodd;stroke:#666666;stroke-width:0.337914;stroke-linecap:square"
       transform="matrix(-0.19343174,0.98111374,-0.99208215,-0.1255906,0,0)"
       d="m 34.0164,-49.5576 c -2.207641,5.152303 -1.045539,10.783051 -0.0496,15.5409 0.388684,1.856843 -3.191187,8.409508 -6.71605,7.702435 -2.119959,-0.425255 -4.128488,2.035465 -6.50735,2.035465 -3.9084,0 -3.979637,-3.306014 -6.438037,-8.731914 -1.1702,-2.5827 -2.739363,-2.721386 -3.356463,-6.075386 -0.5516,-2.9983 1.365798,-8.175378 1.365798,-11.566578 0,-2.6384 -1.034376,-7.431104 -0.693526,-9.845804 0.38964,-2.7604 -0.112629,-4.159228 1.15753,-6.286491 5.201628,-8.711692 4.885561,-10.080066 7.565898,-9.103227 2.42809,0.884908 3.700393,0.375879 5.778693,3.055579 1.0839,1.3977 2.056007,3.077921 2.901207,5.029721 0.8856,2.045 3.8156,4.5808 4.373,7.0995 0.7612,3.4394 2.762902,6.14202 1.139352,9.931144 z"
       sodipodi:nodetypes="sssssssssssssss" />
    <ellipse
       style="fill:#f2f2f2;fill-opacity:1;fill-rule:evenodd;stroke:#b3b3b3;stroke-width:0.33;stroke-linecap:square"
       id="path5"
       cx="38.746132"
       cy="66.231743"
       rx="7.3159871"
       ry="6.7063127" />
    <path
       id="ellipse5"
       style="fill:#1a1a1a;fill-opacity:0.141229;fill-rule:evenodd;stroke:none;stroke-width:0.33;stroke-linecap:square"
       d="m 34.121094,61.050781 a 7.3159871,6.7063127 0 0 0 -2.691406,5.181641 7.3159871,6.7063127 0 0 0 7.316406,6.705078 7.3159871,6.7063127 0 0 0 5.800781,-2.646484 7.3159871,6.7063127 0 0 1 -4.623047,1.521484 7.3159871,6.7063127 0 0 1 -7.316406,-6.705078 7.3159871,6.7063127 0 0 1 1.513672,-4.056641 z" />
    <ellipse
       style="fill:#f9f9f9;fill-opacity:1;fill-rule:evenodd;stroke:#b3b3b3;stroke-width:0.0707431;stroke-linecap:square"
       id="ellipse6"
       cx="-13.019507"
       cy="75.032608"
       rx="0.98356408"
       ry="2.2924187"
       transform="matrix(0.72904225,-0.6844687,0.67475033,0.73804606,0,0)" />
    <path
       style="fill:none;stroke:#666666;stroke-width:0.2;stroke-linecap:butt;stroke-linejoin:miter;stroke-dasharray:none;stroke-opacity:1"
       d="m 40.540199,50.09313 c 6.473812,-0.235794 9.124499,3.37032 9.933728,5.345059"
       id="path7"
       sodipodi:nodetypes="cc" />
    <path
       style="fill:none;stroke:#999999;stroke-width:0.2;stroke-linecap:round;stroke-linejoin:miter;stroke-dasharray:none;stroke-opacity:1"
       d="m 41.43966,58.387986 c 10.661631,-3.768788 16.56689,-4.60133 16.554095,-4.446179"
       id="path8"
       sodipodi:nodetypes="cc" />
    <path
       id="path9"
       style="fill:#008080;fill-rule:evenodd;stroke-width:0.2;stroke-linecap:round"
       d="m 47.166011,59.020974 c 0.150159,0.795105 -0.258959,1.123302 -0.826261,1.627624 -0.115001,0.102237 -0.293459,0.259165 -0.370557,0.165968 -0.0472,-0.05706 -0.101468,-0.09282 -0.162449,-0.09939 -0.0408,-0.0044 -0.07206,0.01402 -0.108275,-0.0135 -0.01697,-0.01288 -0.0015,-0.05321 -0.0236,-0.07537 -0.03916,-0.03933 -0.110183,-0.07668 -0.158729,-0.062 -0.0095,-0.09341 -0.02842,-0.13486 -0.06722,-0.209655 -0.089,-0.171531 -0.211713,-0.362233 -0.251927,-0.57517 -0.150158,-0.795106 0.0241,-1.370316 0.730572,-1.624459 0.501564,-0.180431 1.088246,0.07086 1.238405,0.865966 z"
       sodipodi:nodetypes="sssscsccssss" />
    <path
       style="fill:#008080;stroke:none;stroke-width:1px;stroke-linecap:butt;stroke-linejoin:miter;stroke-opacity:1"
       d="m 46.512982,61.549761 c 0.08854,0.0316 0.173972,0.151203 0.611727,0.135783 0.26496,0.627343 0.311443,0.909766 0.778746,1.197421 0.750328,0.461875 1.407187,1.361941 1.423223,1.309682 l 0.52232,-0.447296 c -0.366919,-0.564994 -1.114399,-1.239429 -1.512551,-2.008996 -0.441545,-0.853441 -0.669206,-1.657264 -0.949632,-1.45535 -0.195627,-0.09352 -0.27236,-0.283803 -0.283236,-0.630858 l -0.363938,0.51765 c 0.41463,0.288477 0.211658,0.425839 -0.01316,0.828511 -0.156328,0.217798 -0.140993,0.390738 -0.213503,0.553453 z"
       id="path11"
       sodipodi:nodetypes="ccsccsccccc" />
    <path
       style="fill:#006161;fill-opacity:1;stroke:none;stroke-width:1px;stroke-linecap:butt;stroke-linejoin:miter;stroke-opacity:1"
       d="m 49.221452,64.062328 c 0.334719,0.826992 1.565486,3.259119 2.96794,4.170728 1.246001,0.809914 2.986798,0.832355 4.343469,1.005268 1.789225,0.228042 4.258776,-1.005965 4.258776,-1.005965 1.994515,-0.399937 2.147231,-1.965706 2.401494,-3.213525 0,0 -0.771267,0.452761 -1.125297,0.331192 -0.165983,-0.057 -0.335935,-0.529927 -0.335935,-0.529927 0,0 -0.400968,0.3975 -0.587083,0.371181 -0.204362,-0.0289 -0.384259,-0.539449 -0.384259,-0.539449 0,0 -0.348995,0.409283 -0.536108,0.383212 -0.206983,-0.02884 -0.44766,-0.553632 -0.44766,-0.553632 0,0 -0.248878,0.475038 -0.425525,0.474551 -0.278985,-7.71e-4 -0.662938,-0.663107 -0.662938,-0.663107 -0.09639,1.147445 3.066007,3.458097 1.626481,3.687948 0,0 -2.515264,0.884418 -3.747446,0.59836 -1.238143,-0.287441 -2.468056,-0.313838 -3.502914,-1.506713 -1.096628,-1.264076 -1.585998,-3.226251 -3.284243,-3.414483 z"
       id="path10"
       sodipodi:nodetypes="cssscscscscscssscc" />
    <path
       style="fill:#008c8c;fill-opacity:1;stroke:none;stroke-width:1px;stroke-linecap:butt;stroke-linejoin:miter;stroke-opacity:1"
       d="m 47.179935,60.625041 -0.975718,2.279318 c -0.610755,0.0072 -1.214961,0.460121 -1.822441,0.690182 l -0.497046,-0.377597 -0.279001,-0.122438 -0.363113,0.02239 0.327043,0.06998 0.300577,0.180028 -0.345605,-0.146581 -0.301595,0.0027 0.09461,0.110156 0.230708,0.03862 0.196493,0.166887 0.535986,0.271659 0.213478,-0.04314 1.955603,-0.617577 1.208374,-1.949987 c -0.0074,-0.566911 -0.185758,-0.711808 -0.478357,-0.574563 z"
       id="path12"
       sodipodi:nodetypes="ccccccccccccccccccc" />
    <path
       id="path13"
       style="fill:#1a1a1a;fill-rule:evenodd;stroke-width:0.2;stroke-linecap:round"
       d="m 45.80262,59.812145 c -0.03282,0.105118 -0.02109,0.159509 -0.07812,0.311774 -0.04529,0.120832 -0.153651,0.114204 -0.21862,0.101257 -0.04621,-0.06515 -0.07903,-0.213309 -9.12e-4,-0.282025 0.09123,-0.08025 0.201737,-0.119693 0.297652,-0.131004 z"
       sodipodi:nodetypes="cscscc" />
    <path
       style="fill:#e9c6af;stroke:none;stroke-width:1px;stroke-linecap:butt;stroke-linejoin:miter;stroke-opacity:1"
       d="m 45.141233,59.209694 c -0.159627,-0.328985 -0.101841,-0.881016 0.09294,-1.245701 0.940706,-1.76126 2.33494,-1.604827 2.811561,-2.970864 -0.204951,1.509091 -1.884589,1.513124 -1.540622,2.609068 0.7166,-0.206609 1.689075,0.121729 2.02538,-1.546459 0.139068,0.4867 -0.151479,1.594671 -1.052927,1.815295 1.027826,0.08523 1.008154,-0.214995 1.551874,-0.721583 -0.162014,0.38345 -0.200147,0.83577 -0.711214,1.025168 0.257446,0.41395 0.772784,0.07569 1.120277,-0.128486 -0.441031,0.556831 -0.8913,0.879622 -1.354636,0.871397 0.488327,0.281812 0.972388,0.573845 1.837548,-0.0471 -0.512647,0.3929 -0.948087,0.97136 -1.706235,0.774226 0.459291,0.105543 0.727829,0.522571 1.558736,0.02129 0.02502,0.02484 -0.537083,0.612986 -1.298923,0.326746 -0.433784,-0.162982 -1.379784,-0.169648 -1.379784,-0.169648 0.05101,-0.05555 -0.311742,-0.457502 -0.61862,-0.30891 0.1329,-0.257404 0.116464,-0.596779 -0.109697,-0.682606 -0.05103,0.296362 -0.122361,0.33616 -0.193002,0.384714 -0.325155,-0.04744 -0.535514,-0.367433 -1.032657,-0.0066 z"
       id="path14"
       sodipodi:nodetypes="cscccccccccccscccccc" />
  </g>
  <g
     inkscape:groupmode="layer"
     id="layer9"
     inkscape:label="Layer 3"
     sodipodi:insensitive="true">
    <rect
       style="fill:#2ca089;fill-opacity:0.133702;fill-rule:evenodd;stroke:none;stroke-width:0.2;stroke-linecap:round;stroke-dasharray:none"
       id="rect102"
       width="104.62332"
       height="102.77132"
       x="-2.8581686"
       y="-1.5502541" />
  </g>
</svg>
