<?xml version="1.0" encoding="UTF-8" standalone="no"?>
<!-- Created with Inkscape (http://www.inkscape.org/) -->

<svg
   width="100"
   height="100"
   viewBox="0 0 100 100"
   version="1.1"
   id="svg1"
   inkscape:version="1.3.2 (091e20e, 2023-11-25)"
   sodipodi:docname="travelling_v10.DATA.svg"
   xmlns:inkscape="http://www.inkscape.org/namespaces/inkscape"
   xmlns:sodipodi="http://sodipodi.sourceforge.net/DTD/sodipodi-0.dtd"
   xmlns="http://www.w3.org/2000/svg"
   xmlns:svg="http://www.w3.org/2000/svg">
  <sodipodi:namedview
     id="namedview1"
     pagecolor="#ffffff"
     bordercolor="#666666"
     borderopacity="1.0"
     inkscape:showpageshadow="2"
     inkscape:pageopacity="0.0"
     inkscape:pagecheckerboard="0"
     inkscape:deskcolor="#d1d1d1"
     inkscape:document-units="px"
     inkscape:zoom="5.8972706"
     inkscape:cx="48.157872"
     inkscape:cy="48.666581"
     inkscape:window-width="1690"
     inkscape:window-height="908"
     inkscape:window-x="99"
     inkscape:window-y="114"
     inkscape:window-maximized="0"
     inkscape:current-layer="display" />
  <defs
     id="defs1" />
  <g
     inkscape:label="BACK"
     inkscape:groupmode="layer"
     id="layer1"
     sodipodi:insensitive="true"
     style="display:inline">
    <rect
       style="display:inline;fill:#ececec;fill-rule:evenodd;stroke:none;stroke-width:0.33;stroke-linecap:square"
       id="rect1"
       width="100"
       height="100"
       x="0"
       y="0" />
  </g>
  <g
     inkscape:groupmode="layer"
     id="layer2"
     inkscape:label="waves"
     style="display:none"
     sodipodi:insensitive="true">
    <rect
       style="display:none;fill:none;fill-rule:evenodd;stroke:#ff00ff;stroke-width:0.531265;stroke-linecap:square"
       id="rect2"
       width="199.46873"
       height="49.468735"
       x="-99.734367"
       y="25.265635"
       sodipodi:insensitive="true" />
    <path
       style="display:none;fill:none;fill-rule:evenodd;stroke:#ff00ff;stroke-width:0.531265;stroke-linecap:square"
       d="m -99.7344,50 c 0.3342,-0.2603 0.6683,-1.3007 1.0024,-1.5609 0.3341,-0.2602 0.6682,-1.2948 1.0023,-1.5546 0.3342,-0.2598 0.6683,-1.2831 1.0024,-1.5423 0.3341,-0.2591 0.6682,-1.2654 1.0024,-1.5236 0.3341,-0.2583 0.6682,-1.242 1.0023,-1.4991 0.3341,-0.257 0.6682,-1.2127 1.0024,-1.4684 0.3341,-0.2556 0.6682,-1.1779 1.0023,-1.4319 0.3341,-0.254 0.6683,-1.1377 1.0024,-1.3898 0.3341,-0.252 0.6682,-1.0921 1.0023,-1.342 0.3342,-0.2499 0.6683,-1.0416 1.0024,-1.289 0.3341,-0.2475 0.6682,-0.986 1.0023,-1.2308 0.3342,-0.2447 0.6683,-0.9258 1.0024,-1.1676 0.3341,-0.2419 0.6682,-0.8612 1.0024,-1.0999 0.3341,-0.2387 0.6682,-0.7925 1.0023,-1.0278 0.3341,-0.2353 0.6682,-0.7198 1.0024,-0.9515 0.3341,-0.2316 0.6682,-0.6436 1.0023,-0.8714 0.3341,-0.2278 0.6683,-0.5642 1.0024,-0.7879 0.3341,-0.2237 0.6682,-0.4819 1.0023,-0.7013 0.3341,-0.2194 0.6683,-0.397 1.0024,-0.6118 0.3341,-0.2149 0.6682,-0.3099 1.0023,-0.52 0.3342,-0.2101 0.6683,-0.2208 1.0024,-0.4259 0.3341,-0.2052 0.6682,-0.1304 1.0024,-0.3304 0.3341,-0.2 0.6682,-0.0387 1.0023,-0.2333 0.3341,-0.1946 0.6682,0.0537 1.0024,-0.1354 0.3341,-0.1891 0.6682,0.1464 1.0023,-0.037 0.3341,-0.1833 0.6683,0.239 1.0024,0.0616 0.3341,-0.1774 0.6682,0.3313 1.0023,0.16 0.3341,-0.1713 0.6683,0.4227 1.0024,0.2577 0.3341,-0.1651 0.6682,0.5129 1.0023,0.3543 0.3342,-0.1586 0.6683,0.6017 1.0024,0.4497 0.3341,-0.152 0.6682,0.6884 1.0024,0.5431 0.3341,-0.1453 0.6682,0.7728 1.0023,0.6344 0.3341,-0.1384 0.6682,0.8546 1.0024,0.7232 0.3341,-0.1313 0.6682,0.9333 1.0023,0.8092 0.3341,-0.1242 0.6683,1.0087 1.0024,0.8918 0.3341,-0.1169 0.6682,1.0804 1.0023,0.9709 0.3341,-0.1095 0.6683,1.1481 1.0024,1.0462 0.3341,-0.102 0.6682,1.2116 1.0023,1.1172 0.3342,-0.0944 0.6683,1.2706 1.0024,1.1839 0.3341,-0.0867 0.6682,1.3247 1.0024,1.2458 0.3341,-0.0789 0.6682,1.3737 1.0023,1.3027 0.3341,-0.071 0.6682,1.4176 1.0024,1.3545 0.3341,-0.0631 0.6682,1.4559 1.0023,1.4008 0.3341,-0.055 0.6683,1.4886 1.0024,1.4416 0.3341,-0.047 0.6682,1.5155 1.0023,1.4767 0.3341,-0.0389 0.6683,1.5365 1.0024,1.5057 0.3341,-0.0307 0.6682,1.5515 1.0023,1.5289 0.3342,-0.0226 0.6683,1.5603 1.0024,1.5459 0.3341,-0.0144 0.6682,1.563 1.0023,1.5568 0.3342,-0.0062 0.6683,1.5594 1.0024,1.5615 0.3341,0.002 0.6682,1.5496 1.0024,1.5599 0.3341,0.0102 0.6682,1.5336 1.0023,1.5521 0.3341,0.0185 0.6683,1.5115 1.0024,1.5382 0.3341,0.0266 0.6682,1.4832 1.0023,1.518 0.3341,0.0349 0.6683,1.449 1.0024,1.492 0.3341,0.0429 0.6682,1.4088 1.0023,1.4598 0.3342,0.051 0.6683,1.3629 1.0024,1.4219 0.3341,0.0591 0.6682,1.3113 1.0023,1.3784 0.3342,0.067 0.6683,1.2543 1.0024,1.3293 0.3341,0.0749 0.6682,1.1921 1.0024,1.2749 0.3341,0.0827 0.6682,1.1249 1.0023,1.2154 0.3341,0.0905 0.6683,1.0529 1.0024,1.1511 0.3341,0.0982 0.6682,0.9765 1.0023,1.0823 0.3341,0.1057 0.6683,0.8958 1.0024,1.009 0.3341,0.1133 0.6682,0.8113 1.0023,0.9319 0.3342,0.1205 0.6683,0.7231 1.0024,0.8508 0.3341,0.1278 0.6682,0.6317 1.0023,0.7666 0.3342,0.1349 0.6683,0.5373 1.0024,0.6792 0.3341,0.1418 0.6682,0.4404 1.0024,0.589 0.3341,0.1487 0.6682,0.3413 1.0023,0.4967 0.3341,0.1553 0.6682,0.2403 1.0024,0.4022 0.3341,0.1618 0.6682,0.1379 1.0023,0.3061 0.3341,0.1682 0.6683,0.0346 1.0024,0.209 0.3341,0.1744 0.6682,-0.0696 1.0023,0.1108 0.3342,0.1804 0.6683,-0.1739 1.0024,0.0123 0.3341,0.1863 0.6682,-0.2781 1.0023,-0.0862 0.3342,0.1919 0.6683,-0.3818 1.0024,-0.1845 0.3341,0.1974 0.6682,-0.4846 1.0024,-0.2819 0.3341,0.2026 0.6682,-0.586 1.0023,-0.3784 0.3341,0.2077 0.6682,-0.6857 1.0024,-0.4732 0.3341,0.2126 0.6682,-0.7833 1.0023,-0.5661 0.3341,0.2171 0.6683,-0.8785 1.0024,-0.6569 0.3341,0.2216 0.6682,-0.9708 1.0023,-0.745 0.3342,0.2258 0.6683,-1.0599 1.0024,-0.8301 0.3341,0.2298 0.6682,-1.1454 1.0023,-0.9119 0.3342,0.2335 0.6683,-1.2271 1.0024,-0.9901 0.3341,0.237 0.6682,-1.3047 1.0024,-1.0644 0.3341,0.2403 0.6682,-1.3777 1.0023,-1.1343 0.3341,0.2433 0.6682,-1.446 1.0024,-1.1998 0.3341,0.2461 0.6682,-1.5092 1.00232,-1.2605 0.33412,0.2487 0.66824,-1.5672 1.00236,-1.3162 0.33412,0.251 0.66823,-1.6196 1.00235,-1.3666 0.33412,0.2531 0.66824,-1.6664 1.00236,-1.4115 0.33412,0.2548 0.66823,-1.7073 1.00235,-1.4509 0.33412,0.2564 0.66824,-1.7422 1.00236,-1.4845 0.33412,0.2577 0.66824,-1.7708 1.00235,-1.5121 0.33412,0.2587 0.66824,-1.7932 1.00236,-1.5337 0.33412,0.2595 0.66824,-1.8093 1.00235,-1.5492 0.33412,0.26 0.668242,-1.8189 1.00236,-1.5586 0.334119,0.2603 0.668237,-1.8219 1.002356,-1.5616 0.334118,0.2603 0.668234,-1.8186 1.002354,-1.5586 0.33412,0.2601 0.66824,-1.8087 1.00236,-1.5492 0.33412,0.2595 0.66823,-1.7924 1.00235,-1.5337 0.33412,0.2587 0.66824,-1.7698 1.00236,-1.5121 0.33412,0.2577 0.66823,-1.7409 1.00235,-1.4845 0.33412,0.2564 0.66824,-1.7057 1.00236,-1.4509 0.33412,0.2549 0.66824,-1.6646 1.00235,-1.4115 0.33412,0.253 0.66824,-1.6176 1.00236,-1.3666 0.33412,0.251 0.66824,-1.5649 1.00235,-1.3162 0.33412,0.2487 0.66823,-1.5066 1.00233,-1.2605 0.3341,0.2462 0.6683,-1.4431 1.0024,-1.1998 0.3341,0.2434 0.6682,-1.3746 1.0023,-1.1343 0.3342,0.2403 0.6683,-1.3014 1.0024,-1.0644 0.3341,0.2371 0.6682,-1.2236 1.0024,-0.9901 0.3341,0.2335 0.6682,-1.1417 1.0023,-0.9119 0.3341,0.2298 0.6682,-1.0559 1.0024,-0.8301 0.3341,0.2258 0.6682,-0.9666 1.0023,-0.745 0.3341,0.2216 0.6683,-0.874 1.0024,-0.6569 0.3341,0.2172 0.6682,-0.7787 1.0023,-0.5661 0.3341,0.2125 0.6683,-0.6809 1.0024,-0.4732 0.3341,0.2076 0.6682,-0.581 1.0023,-0.3784 0.3342,0.2027 0.6683,-0.4793 1.0024,-0.2819 0.3341,0.1973 0.6682,-0.3764 1.0024,-0.1845 0.3341,0.1919 0.6682,-0.2725 1.0023,-0.0862 0.3341,0.1862 0.6682,-0.1681 1.0024,0.0123 0.3341,0.1804 0.6682,-0.0635 1.0023,0.1108 0.3341,0.1744 0.6683,0.0408 1.0024,0.209 0.3341,0.1682 0.6682,0.1443 1.0023,0.3061 0.3341,0.1619 0.6683,0.2469 1.0024,0.4022 0.3341,0.1554 0.6682,0.348 1.0023,0.4967 0.3342,0.1486 0.6683,0.4472 1.0024,0.589 0.3341,0.1419 0.6682,0.5443 1.0023,0.6792 0.3342,0.1349 0.6683,0.6388 1.0024,0.7666 0.3341,0.1277 0.6682,0.7303 1.0024,0.8508 0.3341,0.1206 0.6682,0.8187 1.0023,0.9319 0.3341,0.1132 0.6683,0.9033 1.0024,1.009 0.3341,0.1058 0.6682,0.9841 1.0023,1.0823 0.3341,0.0982 0.6683,1.0606 1.0024,1.1511 0.3341,0.0905 0.6682,1.1327 1.0023,1.2155 0.3342,0.0827 0.6683,1.1999 1.0024,1.2749 0.3341,0.0749 0.6682,1.2622 1.0023,1.3292 0.3342,0.0671 0.6683,1.3193 1.0024,1.3784 0.3341,0.059 0.6682,1.3709 1.0024,1.4219 0.3341,0.051 0.6682,1.4169 1.0023,1.4598 0.3341,0.043 0.6683,1.4571 1.0024,1.492 0.3341,0.0348 0.6682,1.4914 1.0023,1.518 0.3341,0.0267 0.6683,1.5197 1.0024,1.5382 0.3341,0.0185 0.6682,1.5419 1.0023,1.5521 0.3342,0.0103 0.6683,1.5579 1.0024,1.5599 0.3341,0.0021 0.6682,1.5677 1.0023,1.5615 0.3342,-0.0062 0.6683,1.5712 1.0024,1.5568 0.3341,-0.0144 0.6682,1.5685 1.0024,1.5459 0.3341,-0.0226 0.6682,1.5596 1.0023,1.5289 0.3341,-0.0308 0.6683,1.5446 1.0024,1.5058 0.3341,-0.0389 0.6682,1.5236 1.0023,1.4766 0.3341,-0.047 0.6683,1.4966 1.0024,1.4416 0.3341,-0.0551 0.6682,1.4639 1.0023,1.4008 0.3342,-0.0631 0.6683,1.4255 1.0024,1.3545 0.3341,-0.071 0.6682,1.3816 1.0023,1.3027 0.3342,-0.0789 0.6683,1.3325 1.0024,1.2458 0.3341,-0.0867 0.6682,1.2783 1.0024,1.1839 0.3341,-0.0944 0.6682,1.2192 1.0023,1.1173 0.3341,-0.102 0.6682,1.1556 1.0024,1.0461 0.3341,-0.1095 0.6682,1.0878 1.0023,0.9709 0.3341,-0.1169 0.6683,1.016 1.0024,0.8918 0.3341,-0.1241 0.6682,0.9405 1.0023,0.8092 0.3342,-0.1314 0.6683,0.8616 1.0024,0.7232 0.3341,-0.1384 0.6682,0.7797 1.0023,0.6344 0.3342,-0.1453 0.6683,0.6951 1.0024,0.5431 0.3341,-0.152 0.6682,0.6083 1.0024,0.4497 0.3341,-0.1586 0.6682,0.5194 1.0023,0.3543 0.3341,-0.165 0.6682,0.429 1.0024,0.2577 0.3341,-0.1713 0.6682,0.3374 1.0023,0.16 0.3341,-0.1774 0.6683,0.2449 1.0024,0.0616 0.3341,-0.1833 0.6682,0.1521 1.0023,-0.037 0.3342,-0.1891 0.6683,0.0592 1.0024,-0.1354 0.3341,-0.1946 0.6682,-0.0333 1.0023,-0.2333 0.3342,-0.2 0.6683,-0.1252 1.0024,-0.3303 0.3341,-0.2052 0.6682,-0.2159 1.0024,-0.426 0.3341,-0.2101 0.6682,-0.3051 1.0023,-0.52 0.3341,-0.2148 0.6682,-0.3924 1.0024,-0.6118 0.3341,-0.2194 0.6682,-0.4775 1.0023,-0.7013 0.3341,-0.2237 0.6683,-0.5601 1.0024,-0.7879 0.3341,-0.2278 0.6682,-0.6398 1.0023,-0.8714 0.3342,-0.2317 0.6683,-0.7162 1.0024,-0.9515 0.3341,-0.2353 0.6682,-0.7891 1.0023,-1.0278 0.3342,-0.2387 0.6683,-0.858 1.0024,-1.0999 0.3341,-0.2418 0.6682,-0.9228 1.0024,-1.1676 0.3341,-0.2448 0.6682,-0.9833 1.0023,-1.2308 0.3341,-0.2474 0.6682,-1.0391 1.0024,-1.289 0.3341,-0.2498 0.6682,-1.09 1.0023,-1.342 0.3341,-0.2521 0.6683,-1.1358 1.0024,-1.3898 0.3341,-0.254 0.6682,-1.1763 1.0023,-1.4319 0.3341,-0.2557 0.6683,-1.2113 1.0024,-1.4684 0.3341,-0.2571 0.6682,-1.2408 1.0023,-1.4991 0.3342,-0.2582 0.6683,-1.2645 1.0024,-1.5236 0.3341,-0.2592 0.6682,-1.2825 1.0024,-1.5423 0.3341,-0.2598 0.6682,-1.2944 1.0023,-1.5546 0.3341,-0.2602 0.6682,-1.3006 1.0024,-1.5609"
       title="sin( 2*x )"
       id="path36"
       inkscape:label="path_init"
       sodipodi:insensitive="true" />
    <path
       style="display:none;fill:none;fill-rule:evenodd;stroke:#ff00ff;stroke-width:0.531265;stroke-linecap:square"
       d="m -74.627208,50 c 0.3342,-0.2603 0.6683,-1.3007 1.0024,-1.5609 0.3341,-0.2602 0.6682,-1.2948 1.0023,-1.5546 0.3342,-0.2598 0.6683,-1.2831 1.0024,-1.5423 0.3341,-0.2591 0.6682,-1.2654 1.0024,-1.5236 0.3341,-0.2583 0.6682,-1.242 1.0023,-1.4991 0.3341,-0.257 0.6682,-1.2127 1.0024,-1.4684 0.3341,-0.2556 0.6682,-1.1779 1.0023,-1.4319 0.3341,-0.254 0.6683,-1.1377 1.0024,-1.3898 0.3341,-0.252 0.6682,-1.0921 1.0023,-1.342 0.3342,-0.2499 0.6683,-1.0416 1.0024,-1.289 0.3341,-0.2475 0.6682,-0.986 1.0023,-1.2308 0.3342,-0.2447 0.6683,-0.9258 1.0024,-1.1676 0.3341,-0.2419 0.6682,-0.8612 1.0024,-1.0999 0.3341,-0.2387 0.6682,-0.7925 1.0023,-1.0278 0.3341,-0.2353 0.6682,-0.7198 1.0024,-0.9515 0.3341,-0.2316 0.6682,-0.6436 1.0023,-0.8714 0.3341,-0.2278 0.6683,-0.5642 1.0024,-0.7879 0.3341,-0.2237 0.6682,-0.4819 1.0023,-0.7013 0.3341,-0.2194 0.6683,-0.397 1.0024,-0.6118 0.3341,-0.2149 0.6682,-0.3099 1.0023,-0.52 0.3342,-0.2101 0.6683,-0.2208 1.0024,-0.4259 0.3341,-0.2052 0.6682,-0.1304 1.0024,-0.3304 0.3341,-0.2 0.6682,-0.0387 1.0023,-0.2333 0.3341,-0.1946 0.6682,0.0537 1.0024,-0.1354 0.3341,-0.1891 0.6682,0.1464 1.0023,-0.037 0.3341,-0.1833 0.6683,0.239 1.0024,0.0616 0.3341,-0.1774 0.6682,0.3313 1.0023,0.16 0.3341,-0.1713 0.6683,0.4227 1.0024,0.2577 0.3341,-0.1651 0.6682,0.5129 1.0023,0.3543 0.3342,-0.1586 0.6683,0.6017 1.0024,0.4497 0.3341,-0.152 0.6682,0.6884 1.0024,0.5431 0.3341,-0.1453 0.6682,0.7728 1.0023,0.6344 0.3341,-0.1384 0.6682,0.8546 1.0024,0.7232 0.3341,-0.1313 0.6682,0.9333 1.0023,0.8092 0.3341,-0.1242 0.6683,1.0087 1.0024,0.8918 0.3341,-0.1169 0.6682,1.0804 1.0023,0.9709 0.3341,-0.1095 0.6683,1.1481 1.0024,1.0462 0.3341,-0.102 0.6682,1.2116 1.0023,1.1172 0.3342,-0.0944 0.6683,1.2706 1.0024,1.1839 0.3341,-0.0867 0.6682,1.3247 1.0024,1.2458 0.3341,-0.0789 0.6682,1.3737 1.0023,1.3027 0.3341,-0.071 0.6682,1.4176 1.0024,1.3545 0.3341,-0.0631 0.6682,1.4559 1.0023,1.4008 0.3341,-0.055 0.6683,1.4886 1.0024,1.4416 0.3341,-0.047 0.6682,1.5155 1.0023,1.4767 0.3341,-0.0389 0.6683,1.5365 1.0024,1.5057 0.3341,-0.0307 0.6682,1.5515 1.0023,1.5289 0.3342,-0.0226 0.6683,1.5603 1.0024,1.5459 0.3341,-0.0144 0.6682,1.563 1.0023,1.5568 0.3342,-0.0062 0.6683,1.5594 1.0024,1.5615 0.3341,0.002 0.6682,1.5496 1.0024,1.5599 0.3341,0.0102 0.6682,1.5336 1.0023,1.5521 0.3341,0.0185 0.6683,1.5115 1.0024,1.5382 0.3341,0.0266 0.6682,1.4832 1.0023,1.518 0.3341,0.0349 0.6683,1.449 1.0024,1.492 0.3341,0.0429 0.6682,1.4088 1.0023,1.4598 0.3342,0.051 0.6683,1.3629 1.0024,1.4219 0.3341,0.0591 0.6682,1.3113 1.0023,1.3784 0.3342,0.067 0.6683,1.2543 1.0024,1.3293 0.3341,0.0749 0.6682,1.1921 1.0024,1.2749 0.3341,0.0827 0.6682,1.1249 1.0023,1.2154 0.3341,0.0905 0.6683,1.0529 1.0024,1.1511 0.3341,0.0982 0.6682,0.9765 1.0023,1.0823 0.3341,0.1057 0.6683,0.8958 1.0024,1.009 0.3341,0.1133 0.6681999,0.8113 1.0022999,0.9319 0.3342,0.1205 0.6683,0.7231 1.0024,0.8508 0.3341,0.1278 0.6682,0.6317 1.0023,0.7666 0.3342,0.1349 0.6683,0.5373 1.0024,0.6792 0.3341,0.1418 0.6682,0.4404 1.0024,0.589 0.3341,0.1487 0.6682,0.3413 1.0023,0.4967 0.3341,0.1553 0.6682,0.2403 1.0024,0.4022 0.3341,0.1618 0.6682,0.1379 1.0023,0.3061 0.3341,0.1682 0.6683,0.0346 1.0024,0.209 0.3341,0.1744 0.66820005,-0.0696 1.00230005,0.1108 0.3342,0.1804 0.6683,-0.1739 1.0024,0.0123 0.3341,0.1863 0.66819995,-0.2781 1.00229995,-0.0862 0.3342,0.1919 0.6683,-0.3818 1.0024,-0.1845 0.3341,0.1974 0.6682,-0.4846 1.0024,-0.2819 0.3341,0.2026 0.6682,-0.586 1.0023,-0.3784 0.3341,0.2077 0.6682,-0.6857 1.0024,-0.4732 0.3341,0.2126 0.6682,-0.7833 1.0023,-0.5661 0.3341,0.2171 0.6683,-0.8785 1.0024,-0.6569 0.3341,0.2216 0.6682,-0.9708 1.0023,-0.745 0.3342,0.2258 0.6683,-1.0599 1.0024,-0.8301 0.3341,0.2298 0.6682001,-1.1454 1.0023001,-0.9119 0.3342,0.2335 0.6683,-1.2271 1.0024,-0.9901 0.3341,0.237 0.6682,-1.3047 1.0024,-1.0644 0.3341,0.2403 0.6682,-1.3777 1.0023,-1.1343 0.3341,0.2433 0.6682,-1.446 1.0024,-1.1998 0.3341,0.2461 0.6682,-1.5092 1.00232,-1.2605 0.33412,0.2487 0.66824,-1.5672 1.00236,-1.3162 0.33412,0.251 0.66823,-1.6196 1.00235,-1.3666 0.33412,0.2531 0.66824,-1.6664 1.00236,-1.4115 0.33412,0.2548 0.66823,-1.7073 1.00235,-1.4509 0.33412,0.2564 0.66824,-1.7422 1.00236,-1.4845 0.33412,0.2577 0.66824,-1.7708 1.00235,-1.5121 0.33412,0.2587 0.66824,-1.7932 1.00236,-1.5337 0.33412,0.2595 0.66824,-1.8093 1.00235,-1.5492 0.33412,0.26 0.668242,-1.8189 1.00236,-1.5586 0.334119,0.2603 0.668237,-1.8219 1.002356,-1.5616 0.334118,0.2603 0.668234,-1.8186 1.002354,-1.5586 0.33412,0.2601 0.66824,-1.8087 1.00236,-1.5492 0.33412,0.2595 0.66823,-1.7924 1.00235,-1.5337 0.33412,0.2587 0.66824,-1.7698 1.00236,-1.5121 0.33412,0.2577 0.66823,-1.7409 1.00235,-1.4845 0.33412,0.2564 0.66824,-1.7057 1.00236,-1.4509 0.33412,0.2549 0.66824,-1.6646 1.00235,-1.4115 0.33412,0.253 0.66824,-1.6176 1.00236,-1.3666 0.33412,0.251 0.66824,-1.5649 1.00235,-1.3162 0.33412,0.2487 0.66823,-1.5066 1.00233,-1.2605 0.3341,0.2462 0.6683,-1.4431 1.0024,-1.1998 0.3341,0.2434 0.6682,-1.3746 1.0023,-1.1343 0.3342,0.2403 0.6683,-1.3014 1.0024,-1.0644 0.3341,0.2371 0.6682,-1.2236 1.0024,-0.9901 0.3341,0.2335 0.6682,-1.1417 1.0023,-0.9119 0.3341,0.2298 0.6682,-1.0559 1.0024,-0.8301 0.3341,0.2258 0.6682,-0.9666 1.0023,-0.745 0.3341,0.2216 0.6683,-0.874 1.0024,-0.6569 0.3341,0.2172 0.6682,-0.7787 1.0023,-0.5661 0.3341,0.2125 0.6683,-0.6809 1.0024,-0.4732 0.3341,0.2076 0.6682,-0.581 1.0023,-0.3784 0.3342,0.2027 0.6683,-0.4793 1.0024,-0.2819 0.3341,0.1973 0.6682,-0.3764 1.0024,-0.1845 0.3341,0.1919 0.6682,-0.2725 1.0023,-0.0862 0.3341,0.1862 0.668198,-0.1681 1.002398,0.0123 0.3341,0.1804 0.6682,-0.0635 1.0023,0.1108 0.3341,0.1744 0.6683,0.0408 1.0024,0.209 0.3341,0.1682 0.6682,0.1443 1.0023,0.3061 0.3341,0.1619 0.6683,0.2469 1.0024,0.4022 0.3341,0.1554 0.6682,0.348 1.0023,0.4967 0.3342,0.1486 0.6683,0.4472 1.0024,0.589 0.3341,0.1419 0.6682,0.5443 1.0023,0.6792 0.3342,0.1349 0.6683,0.6388 1.0024,0.7666 0.3341,0.1277 0.6682,0.7303 1.0024,0.8508 0.3341,0.1206 0.6682,0.8187 1.0023,0.9319 0.3341,0.1132 0.6683,0.9033 1.0024,1.009 0.3341,0.1058 0.6682,0.9841 1.0023,1.0823 0.3341,0.0982 0.6683,1.0606 1.0024,1.1511 0.3341,0.0905 0.6682,1.1327 1.0023,1.2155 0.3342,0.0827 0.6683,1.1999 1.0024,1.2749 0.3341,0.0749 0.6682,1.2622 1.0023,1.3292 0.3342,0.0671 0.6683,1.3193 1.0024,1.3784 0.3341,0.059 0.6682,1.3709 1.0024,1.4219 0.3341,0.051 0.6682,1.4169 1.0023,1.4598 0.3341,0.043 0.6683,1.4571 1.0024,1.492 0.3341,0.0348 0.6682,1.4914 1.0023,1.518 0.3341,0.0267 0.6683,1.5197 1.0024,1.5382 0.3341,0.0185 0.6682,1.5419 1.0023,1.5521 0.3342,0.0103 0.6683,1.5579 1.0024,1.5599 0.3341,0.0021 0.6682,1.5677 1.0023,1.5615 0.3342,-0.0062 0.6683,1.5712 1.0024,1.5568 0.3341,-0.0144 0.6682,1.5685 1.0024,1.5459 0.3341,-0.0226 0.6682,1.5596 1.0023,1.5289 0.3341,-0.0308 0.6683,1.5446 1.0024,1.5058 0.3341,-0.0389 0.6682,1.5236 1.0023,1.4766 0.3341,-0.047 0.6683,1.4966 1.0024,1.4416 0.3341,-0.0551 0.6682,1.4639 1.0023,1.4008 0.3342,-0.0631 0.6683,1.4255 1.0024,1.3545 0.3341,-0.071 0.6682,1.3816 1.0023,1.3027 0.3342,-0.0789 0.6683,1.3325 1.0024,1.2458 0.3341,-0.0867 0.6682,1.2783 1.0024,1.1839 0.3341,-0.0944 0.6682,1.2192 1.0023,1.1173 0.3341,-0.102 0.6682,1.1556 1.0024,1.0461 0.3341,-0.1095 0.6682,1.0878 1.0023,0.9709 0.3341,-0.1169 0.6683,1.016 1.0024,0.8918 0.3341,-0.1241 0.6682,0.9405 1.0023,0.8092 0.3342,-0.1314 0.6683,0.8616 1.0024,0.7232 0.3341,-0.1384 0.6682,0.7797 1.0023,0.6344 0.3342,-0.1453 0.6683,0.6951 1.0024,0.5431 0.3341,-0.152 0.6682,0.6083 1.0024,0.4497 0.3341,-0.1586 0.6682,0.5194 1.0023,0.3543 0.3341,-0.165 0.6682,0.429 1.0024,0.2577 0.3341,-0.1713 0.6682,0.3374 1.0023,0.16 0.3341,-0.1774 0.6683,0.2449 1.0024,0.0616 0.3341,-0.1833 0.6682,0.1521 1.0023,-0.037 0.3342,-0.1891 0.6683,0.0592 1.0024,-0.1354 0.3341,-0.1946 0.6682,-0.0333 1.0023,-0.2333 0.3342,-0.2 0.6683,-0.1252 1.0024,-0.3303 0.3341,-0.2052 0.6682,-0.2159 1.0024,-0.426 0.3341,-0.2101 0.6682,-0.3051 1.0023,-0.52 0.3341,-0.2148 0.6682,-0.3924 1.0024,-0.6118 0.3341,-0.2194 0.6682,-0.4775 1.0023,-0.7013 0.3341,-0.2237 0.6683,-0.5601 1.0024,-0.7879 0.3341,-0.2278 0.6682,-0.6398 1.0023,-0.8714 0.3342,-0.2317 0.6683,-0.7162 1.0024,-0.9515 0.3341,-0.2353 0.6682,-0.7891 1.0023,-1.0278 0.3342,-0.2387 0.6683,-0.858 1.0024,-1.0999 0.3341,-0.2418 0.6682,-0.9228 1.0024,-1.1676 0.3341,-0.2448 0.6682,-0.9833 1.0023,-1.2308 0.3341,-0.2474 0.6682,-1.0391 1.0024,-1.289 0.3341,-0.2498 0.6682,-1.09 1.0023,-1.342 0.3341,-0.2521 0.6683,-1.1358 1.0024,-1.3898 0.3341,-0.254 0.6682,-1.1763 1.0023,-1.4319 0.3341,-0.2557 0.6683,-1.2113 1.0024,-1.4684 0.3341,-0.2571 0.6682,-1.2408 1.0023,-1.4991 0.3342,-0.2582 0.6683,-1.2645 1.0024,-1.5236 0.3341,-0.2592 0.6682,-1.2825 1.0024,-1.5423 0.3341,-0.2598 0.6682,-1.2944 1.0023,-1.5546 0.3341,-0.2602 0.6682,-1.3006 1.0024,-1.5609"
       title="sin( 2*x )"
       id="path38"
       inkscape:label="path_tween"
       sodipodi:insensitive="true" />
    <path
       style="display:none;fill:none;fill-rule:evenodd;stroke:#ff00ff;stroke-width:0.531265;stroke-linecap:square"
       d="m -49.627208,50 c 0.3342,-0.2603 0.6683,-1.3007 1.0024,-1.5609 0.3341,-0.2602 0.6682,-1.2948 1.0023,-1.5546 0.3342,-0.2598 0.6683,-1.2831 1.0024,-1.5423 0.3341,-0.2591 0.6682,-1.2654 1.0024,-1.5236 0.3341,-0.2583 0.6682,-1.242 1.0023,-1.4991 0.3341,-0.257 0.6682,-1.2127 1.0024,-1.4684 0.3341,-0.2556 0.6682,-1.1779 1.0023,-1.4319 0.3341,-0.254 0.6683,-1.1377 1.0024,-1.3898 0.3341,-0.252 0.6682,-1.0921 1.0023,-1.342 0.3342,-0.2499 0.6683,-1.0416 1.0024,-1.289 0.3341,-0.2475 0.6682,-0.986 1.0023,-1.2308 0.3342,-0.2447 0.6683,-0.9258 1.0024,-1.1676 0.3341,-0.2419 0.6682,-0.8612 1.0024,-1.0999 0.3341,-0.2387 0.6682,-0.7925 1.0023,-1.0278 0.3341,-0.2353 0.6682,-0.7198 1.0024,-0.9515 0.3341,-0.2316 0.6682,-0.6436 1.0023,-0.8714 0.3341,-0.2278 0.6683,-0.5642 1.0024,-0.7879 0.3341,-0.2237 0.6682,-0.4819 1.0023,-0.7013 0.3341,-0.2194 0.6683,-0.397 1.0024,-0.6118 0.3341,-0.2149 0.6682,-0.3099 1.0023,-0.52 0.3342,-0.2101 0.6683,-0.2208 1.0024,-0.4259 0.3341,-0.2052 0.6682,-0.1304 1.0024,-0.3304 0.3341,-0.2 0.6682,-0.0387 1.0023,-0.2333 0.3341,-0.1946 0.6682,0.0537 1.0024,-0.1354 0.3341,-0.1891 0.6682,0.1464 1.0023,-0.037 0.3341,-0.1833 0.6683,0.239 1.0024,0.0616 0.3341,-0.1774 0.6682,0.3313 1.0023,0.16 0.3341,-0.1713 0.6683,0.4227 1.0024,0.2577 0.3341,-0.1651 0.6682,0.5129 1.0023,0.3543 0.3342,-0.1586 0.6683,0.6017 1.0024,0.4497 0.3341,-0.152 0.6682,0.6884 1.0024,0.5431 0.3341,-0.1453 0.6682,0.7728 1.0023,0.6344 0.3341,-0.1384 0.6682,0.8546 1.0024,0.7232 0.3341,-0.1313 0.6682,0.9333 1.0023,0.8092 0.3341,-0.1242 0.6683,1.0087 1.0024,0.8918 0.3341,-0.1169 0.6682,1.0804 1.0023,0.9709 0.3341,-0.1095 0.6683,1.1481 1.0024,1.0462 0.3341,-0.102 0.6682,1.2116 1.0023,1.1172 0.3342,-0.0944 0.6683,1.2706 1.0024,1.1839 0.3341,-0.0867 0.6681999,1.3247 1.0023999,1.2458 0.3341,-0.0789 0.6682,1.3737 1.0023,1.3027 0.3341,-0.071 0.6682,1.4176 1.0024,1.3545 0.3341,-0.0631 0.6682,1.4559 1.0023,1.4008 0.3341,-0.055 0.6683,1.4886 1.0024,1.4416 0.3341,-0.047 0.6682,1.5155 1.0023,1.4767 0.3341,-0.0389 0.6683,1.5365 1.0024,1.5057 0.3341,-0.0307 0.6682,1.5515 1.0023,1.5289 0.3342,-0.0226 0.6683,1.5603 1.0024,1.5459 0.3341,-0.0144 0.66820005,1.563 1.00230005,1.5568 0.3342,-0.0062 0.6683,1.5594 1.0024,1.5615 0.3341,0.002 0.66819995,1.5496 1.00239995,1.5599 0.3341,0.0102 0.6682,1.5336 1.0023,1.5521 0.3341,0.0185 0.6683,1.5115 1.0024,1.5382 0.3341,0.0266 0.6682,1.4832 1.0023,1.518 0.3341,0.0349 0.6683,1.449 1.0024,1.492 0.3341,0.0429 0.6682,1.4088 1.0023,1.4598 0.3342,0.051 0.6683,1.3629 1.0024,1.4219 0.3341,0.0591 0.6682,1.3113 1.0023,1.3784 0.3342,0.067 0.6683,1.2543 1.0024,1.3293 0.3341,0.0749 0.6682001,1.1921 1.0024001,1.2749 0.3341,0.0827 0.6682,1.1249 1.0023,1.2154 0.3341,0.0905 0.6683,1.0529 1.0024,1.1511 0.3341,0.0982 0.6682,0.9765 1.0023,1.0823 0.3341,0.1057 0.6683,0.8958 1.0024,1.009 0.3341,0.1133 0.6682,0.8113 1.0023,0.9319 0.3342,0.1205 0.6683,0.7231 1.0024,0.8508 0.3341,0.1278 0.6682,0.6317 1.0023,0.7666 0.3342,0.1349 0.6683,0.5373 1.0024,0.6792 0.3341,0.1418 0.6682,0.4404 1.0024,0.589 0.3341,0.1487 0.6682,0.3413 1.0023,0.4967 0.3341,0.1553 0.6682,0.2403 1.0024,0.4022 0.3341,0.1618 0.6682,0.1379 1.0023,0.3061 0.3341,0.1682 0.6683,0.0346 1.0024,0.209 0.3341,0.1744 0.6682,-0.0696 1.0023,0.1108 0.3342,0.1804 0.6683,-0.1739 1.0024,0.0123 0.3341,0.1863 0.6682,-0.2781 1.0023,-0.0862 0.3342,0.1919 0.6683,-0.3818 1.0024,-0.1845 0.3341,0.1974 0.6682,-0.4846 1.0024,-0.2819 0.3341,0.2026 0.6682,-0.586 1.0023,-0.3784 0.3341,0.2077 0.6682,-0.6857 1.0024,-0.4732 0.3341,0.2126 0.6682,-0.7833 1.0023,-0.5661 0.3341,0.2171 0.6683,-0.8785 1.0024,-0.6569 0.3341,0.2216 0.6682,-0.9708 1.0023,-0.745 0.3342,0.2258 0.6683,-1.0599 1.0024,-0.8301 0.3341,0.2298 0.6682,-1.1454 1.0023,-0.9119 0.3342,0.2335 0.6683,-1.2271 1.0024,-0.9901 0.3341,0.237 0.6682,-1.3047 1.0024,-1.0644 0.3341,0.2403 0.6682,-1.3777 1.0023,-1.1343 0.3341,0.2433 0.6682,-1.446 1.0024,-1.1998 0.3341,0.2461 0.6682,-1.5092 1.00232,-1.2605 0.33412,0.2487 0.66824,-1.5672 1.00236,-1.3162 0.33412,0.251 0.66823,-1.6196 1.00235,-1.3666 0.33412,0.2531 0.66824,-1.6664 1.00236,-1.4115 0.33412,0.2548 0.66823,-1.7073 1.00235,-1.4509 0.33412,0.2564 0.66824,-1.7422 1.00236,-1.4845 0.33412,0.2577 0.66824,-1.7708 1.00235,-1.5121 0.33412,0.2587 0.66824,-1.7932 1.00236,-1.5337 0.33412,0.2595 0.66824,-1.8093 1.00235,-1.5492 0.33412,0.26 0.668242,-1.8189 1.00236,-1.5586 0.334119,0.2603 0.668237,-1.8219 1.002356,-1.5616 0.334118,0.2603 0.668234,-1.8186 1.002354,-1.5586 0.33412,0.2601 0.66824,-1.8087 1.00236,-1.5492 0.33412,0.2595 0.66823,-1.7924 1.00235,-1.5337 0.33412,0.2587 0.66824,-1.7698 1.00236,-1.5121 0.33412,0.2577 0.66823,-1.7409 1.00235,-1.4845 0.33412,0.2564 0.66824,-1.7057 1.00236,-1.4509 0.33412,0.2549 0.66824,-1.6646 1.00235,-1.4115 0.33412,0.253 0.66824,-1.6176 1.00236,-1.3666 0.33412,0.251 0.66824,-1.5649 1.00235,-1.3162 0.33412,0.2487 0.66823,-1.5066 1.00233,-1.2605 0.3341,0.2462 0.6683,-1.4431 1.0024,-1.1998 0.3341,0.2434 0.6682,-1.3746 1.0023,-1.1343 0.3342,0.2403 0.6683,-1.3014 1.0024,-1.0644 0.3341,0.2371 0.6682,-1.2236 1.0024,-0.9901 0.3341,0.2335 0.6682,-1.1417 1.0023,-0.9119 0.3341,0.2298 0.6682,-1.0559 1.0024,-0.8301 0.3341,0.2258 0.6682,-0.9666 1.0023,-0.745 0.3341,0.2216 0.6683,-0.874 1.0024,-0.6569 0.3341,0.2172 0.6682,-0.7787 1.0023,-0.5661 0.3341,0.2125 0.6683,-0.6809 1.0024,-0.4732 0.3341,0.2076 0.6682,-0.581 1.0023,-0.3784 0.3342,0.2027 0.6683,-0.4793 1.0024,-0.2819 0.3341,0.1973 0.6682,-0.3764 1.0024,-0.1845 0.3341,0.1919 0.6682,-0.2725 1.0023,-0.0862 0.3341,0.1862 0.6682,-0.1681 1.0024,0.0123 0.3341,0.1804 0.6682,-0.0635 1.0023,0.1108 0.3341,0.1744 0.6683,0.0408 1.0024,0.209 0.3341,0.1682 0.6682,0.1443 1.0023,0.3061 0.3341,0.1619 0.6683,0.2469 1.0024,0.4022 0.3341,0.1554 0.6682,0.348 1.0023,0.4967 0.3342,0.1486 0.6683,0.4472 1.0024,0.589 0.3341,0.1419 0.6682,0.5443 1.0023,0.6792 0.3342,0.1349 0.6683,0.6388 1.0024,0.7666 0.3341,0.1277 0.6682,0.7303 1.0024,0.8508 0.3341,0.1206 0.6682,0.8187 1.0023,0.9319 0.3341,0.1132 0.6683,0.9033 1.0024,1.009 0.3341,0.1058 0.6682,0.9841 1.0023,1.0823 0.3341,0.0982 0.6683,1.0606 1.0024,1.1511 0.3341,0.0905 0.6682,1.1327 1.0023,1.2155 0.3342,0.0827 0.6683,1.1999 1.0024,1.2749 0.3341,0.0749 0.6682,1.2622 1.0023,1.3292 0.3342,0.0671 0.6683,1.3193 1.0024,1.3784 0.3341,0.059 0.6682,1.3709 1.0024,1.4219 0.3341,0.051 0.6682,1.4169 1.0023,1.4598 0.3341,0.043 0.6683,1.4571 1.0024,1.492 0.3341,0.0348 0.6682,1.4914 1.0023,1.518 0.3341,0.0267 0.6683,1.5197 1.0024,1.5382 0.3341,0.0185 0.6682,1.5419 1.0023,1.5521 0.3342,0.0103 0.6683,1.5579 1.0024,1.5599 0.334098,0.0021 0.668198,1.5677 1.002298,1.5615 0.3342,-0.0062 0.6683,1.5712 1.0024,1.5568 0.3341,-0.0144 0.6682,1.5685 1.0024,1.5459 0.3341,-0.0226 0.6682,1.5596 1.0023,1.5289 0.3341,-0.0308 0.6683,1.5446 1.0024,1.5058 0.3341,-0.0389 0.6682,1.5236 1.0023,1.4766 0.3341,-0.047 0.6683,1.4966 1.0024,1.4416 0.3341,-0.0551 0.6682,1.4639 1.0023,1.4008 0.3342,-0.0631 0.6683,1.4255 1.0024,1.3545 0.3341,-0.071 0.6682,1.3816 1.0023,1.3027 0.3342,-0.0789 0.6683,1.3325 1.0024,1.2458 0.3341,-0.0867 0.6682,1.2783 1.0024,1.1839 0.3341,-0.0944 0.6682,1.2192 1.0023,1.1173 0.3341,-0.102 0.6682,1.1556 1.0024,1.0461 0.3341,-0.1095 0.6682,1.0878 1.0023,0.9709 0.3341,-0.1169 0.6683,1.016 1.0024,0.8918 0.3341,-0.1241 0.6682,0.9405 1.0023,0.8092 0.3342,-0.1314 0.6683,0.8616 1.0024,0.7232 0.3341,-0.1384 0.6682,0.7797 1.0023,0.6344 0.3342,-0.1453 0.6683,0.6951 1.0024,0.5431 0.3341,-0.152 0.6682,0.6083 1.0024,0.4497 0.3341,-0.1586 0.6682,0.5194 1.0023,0.3543 0.3341,-0.165 0.6682,0.429 1.0024,0.2577 0.3341,-0.1713 0.6682,0.3374 1.0023,0.16 0.3341,-0.1774 0.6683,0.2449 1.0024,0.0616 0.3341,-0.1833 0.6682,0.1521 1.0023,-0.037 0.3342,-0.1891 0.6683,0.0592 1.0024,-0.1354 0.3341,-0.1946 0.6682,-0.0333 1.0023,-0.2333 0.3342,-0.2 0.6683,-0.1252 1.0024,-0.3303 0.3341,-0.2052 0.6682,-0.2159 1.0024,-0.426 0.3341,-0.2101 0.6682,-0.3051 1.0023,-0.52 0.3341,-0.2148 0.6682,-0.3924 1.0024,-0.6118 0.3341,-0.2194 0.6682,-0.4775 1.0023,-0.7013 0.3341,-0.2237 0.6683,-0.5601 1.0024,-0.7879 0.3341,-0.2278 0.6682,-0.6398 1.0023,-0.8714 0.3342,-0.2317 0.6683,-0.7162 1.0024,-0.9515 0.3341,-0.2353 0.6682,-0.7891 1.0023,-1.0278 0.3342,-0.2387 0.6683,-0.858 1.0024,-1.0999 0.3341,-0.2418 0.6682,-0.9228 1.0024,-1.1676 0.3341,-0.2448 0.6682,-0.9833 1.0023,-1.2308 0.3341,-0.2474 0.6682,-1.0391 1.0024,-1.289 0.3341,-0.2498 0.6682,-1.09 1.0023,-1.342 0.3341,-0.2521 0.6683,-1.1358 1.0024,-1.3898 0.3341,-0.254 0.6682,-1.1763 1.0023,-1.4319 0.3341,-0.2557 0.6683,-1.2113 1.0024,-1.4684 0.3341,-0.2571 0.6682,-1.2408 1.0023,-1.4991 0.3342,-0.2582 0.6683,-1.2645 1.0024,-1.5236 0.3341,-0.2592 0.6682,-1.2825 1.0024,-1.5423 0.3341,-0.2598 0.6682,-1.2944 1.0023,-1.5546 0.3341,-0.2602 0.6682,-1.3006 1.0024,-1.5609"
       title="sin( 2*x )"
       id="path37"
       inkscape:label="path_mid"
       sodipodi:insensitive="true" />
    <path
       style="display:none;fill:none;fill-rule:evenodd;stroke:#ff00ff;stroke-width:0.531265;stroke-linecap:square"
       d="m -24.627208,50 c 0.3342,-0.2603 0.6683,-1.3007 1.0024,-1.5609 0.3341,-0.2602 0.6682,-1.2948 1.0023,-1.5546 0.3342,-0.2598 0.6683,-1.2831 1.0024,-1.5423 0.3341,-0.2591 0.6682,-1.2654 1.0024,-1.5236 0.3341,-0.2583 0.6682,-1.242 1.0023,-1.4991 0.3341,-0.257 0.6682,-1.2127 1.0024,-1.4684 0.3341,-0.2556 0.6682,-1.1779 1.0023,-1.4319 0.3341,-0.254 0.6683,-1.1377 1.0024,-1.3898 0.3341,-0.252 0.6682,-1.0921 1.0023,-1.342 0.3342,-0.2499 0.6683,-1.0416 1.0024,-1.289 0.3341,-0.2475 0.6682,-0.986 1.0023,-1.2308 0.3342,-0.2447 0.6683,-0.9258 1.0024,-1.1676 0.3341,-0.2419 0.6682,-0.8612 1.0024,-1.0999 0.3341,-0.2387 0.6682,-0.7925 1.0023,-1.0278 0.3341,-0.2353 0.6681999,-0.7198 1.0023999,-0.9515 0.3341,-0.2316 0.6682,-0.6436 1.0023,-0.8714 0.3341,-0.2278 0.6683,-0.5642 1.0024,-0.7879 0.3341,-0.2237 0.6682,-0.4819 1.0023,-0.7013 0.3341,-0.2194 0.6683,-0.397 1.0024,-0.6118 0.3341,-0.2149 0.6682,-0.3099 1.0023,-0.52 0.3342,-0.2101 0.6683,-0.2208 1.0024,-0.4259 0.3341,-0.2052 0.6682,-0.1304 1.0024,-0.3304 0.3341,-0.2 0.6682,-0.0387 1.0023,-0.2333 0.3341,-0.1946 0.66820005,0.0537 1.00240005,-0.1354 0.3341,-0.1891 0.6682,0.1464 1.0023,-0.037 0.3341,-0.1833 0.66829995,0.239 1.00239995,0.0616 0.3341,-0.1774 0.6682,0.3313 1.0023,0.16 0.3341,-0.1713 0.6683,0.4227 1.0024,0.2577 0.3341,-0.1651 0.6682,0.5129 1.0023,0.3543 0.3342,-0.1586 0.6683,0.6017 1.0024,0.4497 0.3341,-0.152 0.6682,0.6884 1.0024,0.5431 0.3341,-0.1453 0.6682,0.7728 1.0023,0.6344 0.3341,-0.1384 0.6682,0.8546 1.0024,0.7232 0.3341,-0.1313 0.6682,0.9333 1.0023,0.8092 0.3341,-0.1242 0.6683001,1.0087 1.0024001,0.8918 0.3341,-0.1169 0.6682,1.0804 1.0023,0.9709 0.3341,-0.1095 0.6683,1.1481 1.0024,1.0462 0.3341,-0.102 0.6682,1.2116 1.0023,1.1172 0.3342,-0.0944 0.6683,1.2706 1.0024,1.1839 0.3341,-0.0867 0.6682,1.3247 1.0024,1.2458 0.3341,-0.0789 0.6682,1.3737 1.0023,1.3027 0.3341,-0.071 0.6682,1.4176 1.0024,1.3545 0.3341,-0.0631 0.6682,1.4559 1.0023,1.4008 0.3341,-0.055 0.6683,1.4886 1.0024,1.4416 0.3341,-0.047 0.6682,1.5155 1.0023,1.4767 0.3341,-0.0389 0.6683,1.5365 1.0024,1.5057 0.3341,-0.0307 0.6682,1.5515 1.0023,1.5289 0.3342,-0.0226 0.6683,1.5603 1.0024,1.5459 0.3341,-0.0144 0.6682,1.563 1.0023,1.5568 0.3342,-0.0062 0.6683,1.5594 1.0024,1.5615 0.3341,0.002 0.6682,1.5496 1.0024,1.5599 0.3341,0.0102 0.6682,1.5336 1.0023,1.5521 0.3341,0.0185 0.6683,1.5115 1.0024,1.5382 0.3341,0.0266 0.6682,1.4832 1.0023,1.518 0.3341,0.0349 0.6683,1.449 1.0024,1.492 0.3341,0.0429 0.6682,1.4088 1.0023,1.4598 0.3342,0.051 0.6683,1.3629 1.0024,1.4219 0.3341,0.0591 0.6682,1.3113 1.0023,1.3784 0.3342,0.067 0.6683,1.2543 1.0024,1.3293 0.3341,0.0749 0.6682,1.1921 1.0024,1.2749 0.3341,0.0827 0.6682,1.1249 1.0023,1.2154 0.3341,0.0905 0.6683,1.0529 1.0024,1.1511 0.3341,0.0982 0.6682,0.9765 1.0023,1.0823 0.3341,0.1057 0.6683,0.8958 1.0024,1.009 0.3341,0.1133 0.6682,0.8113 1.0023,0.9319 0.3342,0.1205 0.6683,0.7231 1.0024,0.8508 0.3341,0.1278 0.6682,0.6317 1.0023,0.7666 0.3342,0.1349 0.6683,0.5373 1.0024,0.6792 0.3341,0.1418 0.6682,0.4404 1.0024,0.589 0.3341,0.1487 0.6682,0.3413 1.0023,0.4967 0.3341,0.1553 0.6682,0.2403 1.0024,0.4022 0.3341,0.1618 0.6682,0.1379 1.0023,0.3061 0.3341,0.1682 0.6683,0.0346 1.0024,0.209 0.3341,0.1744 0.6682,-0.0696 1.0023,0.1108 0.3342,0.1804 0.6683,-0.1739 1.0024,0.0123 0.3341,0.1863 0.6682,-0.2781 1.0023,-0.0862 0.3342,0.1919 0.6683,-0.3818 1.0024,-0.1845 0.3341,0.1974 0.6682,-0.4846 1.0024,-0.2819 0.3341,0.2026 0.6682,-0.586 1.0023,-0.3784 0.3341,0.2077 0.6682,-0.6857 1.0024,-0.4732 0.3341,0.2126 0.6682,-0.7833 1.0023,-0.5661 0.3341,0.2171 0.6683,-0.8785 1.0024,-0.6569 0.3341,0.2216 0.6682,-0.9708 1.0023,-0.745 0.3342,0.2258 0.6683,-1.0599 1.0024,-0.8301 0.3341,0.2298 0.6682,-1.1454 1.0023,-0.9119 0.3342,0.2335 0.6683,-1.2271 1.0024,-0.9901 0.3341,0.237 0.6682,-1.3047 1.0024,-1.0644 0.3341,0.2403 0.6682,-1.3777 1.0023,-1.1343 0.3341,0.2433 0.6682,-1.446 1.0024,-1.1998 0.3341,0.2461 0.6682,-1.5092 1.00232,-1.2605 0.33412,0.2487 0.66824,-1.5672 1.00236,-1.3162 0.33412,0.251 0.66823,-1.6196 1.00235,-1.3666 0.33412,0.2531 0.66824,-1.6664 1.00236,-1.4115 0.33412,0.2548 0.66823,-1.7073 1.00235,-1.4509 0.33412,0.2564 0.66824,-1.7422 1.00236,-1.4845 0.33412,0.2577 0.66824,-1.7708 1.00235,-1.5121 0.33412,0.2587 0.66824,-1.7932 1.00236,-1.5337 0.33412,0.2595 0.66824,-1.8093 1.00235,-1.5492 0.33412,0.26 0.668242,-1.8189 1.00236,-1.5586 0.334119,0.2603 0.668237,-1.8219 1.002356,-1.5616 0.334118,0.2603 0.668234,-1.8186 1.002354,-1.5586 0.33412,0.2601 0.66824,-1.8087 1.00236,-1.5492 0.33412,0.2595 0.66823,-1.7924 1.00235,-1.5337 0.33412,0.2587 0.66824,-1.7698 1.00236,-1.5121 0.33412,0.2577 0.66823,-1.7409 1.00235,-1.4845 0.33412,0.2564 0.66824,-1.7057 1.00236,-1.4509 0.33412,0.2549 0.66824,-1.6646 1.00235,-1.4115 0.33412,0.253 0.66824,-1.6176 1.00236,-1.3666 0.33412,0.251 0.66824,-1.5649 1.00235,-1.3162 0.33412,0.2487 0.66823,-1.5066 1.00233,-1.2605 0.3341,0.2462 0.6683,-1.4431 1.0024,-1.1998 0.3341,0.2434 0.6682,-1.3746 1.0023,-1.1343 0.3342,0.2403 0.6683,-1.3014 1.0024,-1.0644 0.3341,0.2371 0.6682,-1.2236 1.0024,-0.9901 0.3341,0.2335 0.6682,-1.1417 1.0023,-0.9119 0.3341,0.2298 0.6682,-1.0559 1.0024,-0.8301 0.3341,0.2258 0.6682,-0.9666 1.0023,-0.745 0.3341,0.2216 0.6683,-0.874 1.0024,-0.6569 0.3341,0.2172 0.6682,-0.7787 1.0023,-0.5661 0.3341,0.2125 0.6683,-0.6809 1.0024,-0.4732 0.3341,0.2076 0.6682,-0.581 1.0023,-0.3784 0.3342,0.2027 0.6683,-0.4793 1.0024,-0.2819 0.3341,0.1973 0.6682,-0.3764 1.0024,-0.1845 0.3341,0.1919 0.6682,-0.2725 1.0023,-0.0862 0.3341,0.1862 0.668198,-0.1681 1.002398,0.0123 0.3341,0.1804 0.6682,-0.0635 1.0023,0.1108 0.3341,0.1744 0.6683,0.0408 1.0024,0.209 0.3341,0.1682 0.6682,0.1443 1.0023,0.3061 0.3341,0.1619 0.6683,0.2469 1.0024,0.4022 0.3341,0.1554 0.6682,0.348 1.0023,0.4967 0.3342,0.1486 0.6683,0.4472 1.0024,0.589 0.3341,0.1419 0.6682,0.5443 1.0023,0.6792 0.3342,0.1349 0.6683,0.6388 1.0024,0.7666 0.3341,0.1277 0.6682,0.7303 1.0024,0.8508 0.3341,0.1206 0.6682,0.8187 1.0023,0.9319 0.3341,0.1132 0.6683,0.9033 1.0024,1.009 0.3341,0.1058 0.6682,0.9841 1.0023,1.0823 0.3341,0.0982 0.6683,1.0606 1.0024,1.1511 0.3341,0.0905 0.6682,1.1327 1.0023,1.2155 0.3342,0.0827 0.6683,1.1999 1.0024,1.2749 0.3341,0.0749 0.6682,1.2622 1.0023,1.3292 0.3342,0.0671 0.6683,1.3193 1.0024,1.3784 0.3341,0.059 0.6682,1.3709 1.0024,1.4219 0.3341,0.051 0.6682,1.4169 1.0023,1.4598 0.3341,0.043 0.6683,1.4571 1.0024,1.492 0.3341,0.0348 0.6682,1.4914 1.0023,1.518 0.3341,0.0267 0.6683,1.5197 1.0024,1.5382 0.3341,0.0185 0.6682,1.5419 1.0023,1.5521 0.3342,0.0103 0.6683,1.5579 1.0024,1.5599 0.3341,0.0021 0.6682,1.5677 1.0023,1.5615 0.3342,-0.0062 0.6683,1.5712 1.0024,1.5568 0.3341,-0.0144 0.6682,1.5685 1.0024,1.5459 0.3341,-0.0226 0.6682,1.5596 1.0023,1.5289 0.3341,-0.0308 0.6683,1.5446 1.0024,1.5058 0.3341,-0.0389 0.6682,1.5236 1.0023,1.4766 0.3341,-0.047 0.6683,1.4966 1.0024,1.4416 0.3341,-0.0551 0.6682,1.4639 1.0023,1.4008 0.3342,-0.0631 0.6683,1.4255 1.0024,1.3545 0.3341,-0.071 0.6682,1.3816 1.0023,1.3027 0.3342,-0.0789 0.6683,1.3325 1.0024,1.2458 0.3341,-0.0867 0.6682,1.2783 1.0024,1.1839 0.3341,-0.0944 0.6682,1.2192 1.0023,1.1173 0.3341,-0.102 0.6682,1.1556 1.0024,1.0461 0.3341,-0.1095 0.6682,1.0878 1.0023,0.9709 0.3341,-0.1169 0.6683,1.016 1.0024,0.8918 0.3341,-0.1241 0.6682,0.9405 1.0023,0.8092 0.3342,-0.1314 0.6683,0.8616 1.0024,0.7232 0.3341,-0.1384 0.6682,0.7797 1.0023,0.6344 0.3342,-0.1453 0.6683,0.6951 1.0024,0.5431 0.3341,-0.152 0.6682,0.6083 1.0024,0.4497 0.3341,-0.1586 0.6682,0.5194 1.0023,0.3543 0.3341,-0.165 0.6682,0.429 1.0024,0.2577 0.3341,-0.1713 0.6682,0.3374 1.0023,0.16 0.3341,-0.1774 0.6683,0.2449 1.0024,0.0616 0.3341,-0.1833 0.6682,0.1521 1.0023,-0.037 0.3342,-0.1891 0.6683,0.0592 1.0024,-0.1354 0.3341,-0.1946 0.6682,-0.0333 1.0023,-0.2333 0.3342,-0.2 0.6683,-0.1252 1.0024,-0.3303 0.3341,-0.2052 0.6682,-0.2159 1.0024,-0.426 0.3341,-0.2101 0.6682,-0.3051 1.0023,-0.52 0.3341,-0.2148 0.6682,-0.3924 1.0024,-0.6118 0.3341,-0.2194 0.6682,-0.4775 1.0023,-0.7013 0.3341,-0.2237 0.6683,-0.5601 1.0024,-0.7879 0.3341,-0.2278 0.6682,-0.6398 1.0023,-0.8714 0.3342,-0.2317 0.6683,-0.7162 1.0024,-0.9515 0.3341,-0.2353 0.6682,-0.7891 1.0023,-1.0278 0.3342,-0.2387 0.6683,-0.858 1.0024,-1.0999 0.3341,-0.2418 0.6682,-0.9228 1.0024,-1.1676 0.3341,-0.2448 0.6682,-0.9833 1.0023,-1.2308 0.3341,-0.2474 0.6682,-1.0391 1.0024,-1.289 0.3341,-0.2498 0.6682,-1.09 1.0023,-1.342 0.3341,-0.2521 0.6683,-1.1358 1.0024,-1.3898 0.3341,-0.254 0.6682,-1.1763 1.0023,-1.4319 0.3341,-0.2557 0.6683,-1.2113 1.0024,-1.4684 0.3341,-0.2571 0.6682,-1.2408 1.0023,-1.4991 0.3342,-0.2582 0.6683,-1.2645 1.0024,-1.5236 0.3341,-0.2592 0.6682,-1.2825 1.0024,-1.5423 0.3341,-0.2598 0.6682,-1.2944 1.0023,-1.5546 0.3341,-0.2602 0.6682,-1.3006 1.0024,-1.5609"
       title="sin( 2*x )"
       id="path39"
       inkscape:label="path_tween'"
       sodipodi:insensitive="true" />
  </g>
  <g
     inkscape:groupmode="layer"
     id="data paths"
     inkscape:label="data paths"
     style="display:none"
     sodipodi:insensitive="true">
    <path
       style="display:none;fill:none;stroke:#ff0000;stroke-width:1px;stroke-linecap:butt;stroke-linejoin:miter;stroke-opacity:1"
       d="M 0,50 H 25 50 74.999616 100"
       id="path40"
       sodipodi:nodetypes="ccccc"
       inkscape:label="path_0"
       sodipodi:insensitive="true" />
    <path
       style="display:inline;fill:none;stroke:#ff0000;stroke-width:1px;stroke-linecap:butt;stroke-linejoin:miter;stroke-opacity:1"
       d="M 0,50 C 3.2378998,45.2655 13.283708,25.07956 25,25 36.784841,24.919974 43.690094,40.046409 50,50 56.4656,60.199193 63.215317,74.899339 75,75 86.785113,75.100665 97.146911,54.779718 100,50"
       id="path41"
       sodipodi:nodetypes="csssc"
       inkscape:label="path_1"
       sodipodi:insensitive="true" />
    <path
       style="display:inline;fill:none;stroke:#ff0000;stroke-width:1px;stroke-linecap:butt;stroke-linejoin:miter;stroke-opacity:1"
       d="M 0,75 C 9.1382669,75.383987 17.654931,60.500091 25,50 32.798008,38.852413 39.437764,25.147685 50,25 59.99384,24.860262 67.765928,40.319029 74.999616,50 83.468512,61.334071 91.611229,75.747119 100,75"
       id="path42"
       sodipodi:nodetypes="csssc"
       inkscape:label="path_2"
       sodipodi:insensitive="true" />
    <path
       style="display:inline;fill:none;stroke:#ff0000;stroke-width:1px;stroke-linecap:butt;stroke-linejoin:miter;stroke-opacity:1"
       d="M 0,50 C 7.6013157,61.286613 15.363696,75.034914 25,75 35.319729,74.96261 41.567388,61.351974 50,50 57.02754,40.539533 64.549267,25.058201 74.999616,25 85.669432,24.940576 91.93443,40.301276 100,50"
       id="path43"
       sodipodi:nodetypes="csssc"
       inkscape:label="path_3"
       sodipodi:insensitive="true" />
    <path
       style="display:inline;fill:none;stroke:#ff0000;stroke-width:1px;stroke-linecap:butt;stroke-linejoin:miter;stroke-opacity:1"
       d="M 0,25 C 8.9122162,24.760118 17.117238,38.977649 25,50 33.088601,61.310172 40.752854,74.911213 50,75 59.242226,75.08874 66.010185,64.770672 74.999616,50 82.349292,37.923634 91.280579,25.097452 100,25"
       id="path44"
       sodipodi:nodetypes="csssc"
       inkscape:label="path_4"
       sodipodi:insensitive="true" />
    <path
       style="display:inline;fill:none;stroke:#ff0000;stroke-width:1px;stroke-linecap:butt;stroke-linejoin:miter;stroke-opacity:1"
       d="M 0,50 C 3.2378998,45.2655 13.283708,25.07956 25,25 36.784841,24.919974 43.690094,40.046409 50,50 56.4656,60.199193 63.215317,74.899339 75,75 86.785113,75.100665 97.146911,54.779718 100,50"
       id="path45"
       sodipodi:nodetypes="csssc"
       inkscape:label="path_1"
       sodipodi:insensitive="true" />
  </g>
  <g
     inkscape:groupmode="layer"
     id="display"
     inkscape:label="display"
     style="display:inline">
    <path
       style="display:inline;fill:none;stroke:#00ff00;stroke-width:1px;stroke-linecap:butt;stroke-linejoin:miter;stroke-opacity:1"
       d="M 0,50 C 3.2378998,45.2655 13.283708,25.07956 25,25 36.784841,24.919974 43.690094,40.046409 50,50 56.4656,60.199193 63.215317,74.899339 75,75 86.785113,75.100665 97.146911,54.779718 100,50"
       id="path46"
       sodipodi:nodetypes="csssc"
       inkscape:label="path_display" />
  </g>
</svg>
