<?xml version="1.0" encoding="UTF-8" standalone="no"?>
<!-- Created with Inkscape (http://www.inkscape.org/) -->

<svg
   width="100"
   height="100"
   viewBox="0 0 100 100"
   version="1.1"
   id="svg1"
   inkscape:version="1.3.2 (091e20e, 2023-11-25)"
   sodipodi:docname="travelling_v9.DATA.svg"
   xmlns:inkscape="http://www.inkscape.org/namespaces/inkscape"
   xmlns:sodipodi="http://sodipodi.sourceforge.net/DTD/sodipodi-0.dtd"
   xmlns="http://www.w3.org/2000/svg"
   xmlns:svg="http://www.w3.org/2000/svg">
  <sodipodi:namedview
     id="namedview1"
     pagecolor="#ffffff"
     bordercolor="#666666"
     borderopacity="1.0"
     inkscape:showpageshadow="2"
     inkscape:pageopacity="0.0"
     inkscape:pagecheckerboard="0"
     inkscape:deskcolor="#d1d1d1"
     inkscape:document-units="px"
     inkscape:zoom="5.8972706"
     inkscape:cx="49.853571"
     inkscape:cy="53.584111"
     inkscape:window-width="1462"
     inkscape:window-height="844"
     inkscape:window-x="194"
     inkscape:window-y="81"
     inkscape:window-maximized="0"
     inkscape:current-layer="data paths" />
  <defs
     id="defs1" />
  <g
     inkscape:label="BACK"
     inkscape:groupmode="layer"
     id="layer1"
     sodipodi:insensitive="true"
     style="display:inline">
    <rect
       style="display:inline;fill:#ececec;fill-rule:evenodd;stroke:none;stroke-width:0.33;stroke-linecap:square"
       id="rect1"
       width="100"
       height="100"
       x="0"
       y="0" />
  </g>
  <g
     inkscape:groupmode="layer"
     id="layer2"
     inkscape:label="waves"
     style="display:none"
     sodipodi:insensitive="true">
    <rect
       style="display:none;fill:none;fill-rule:evenodd;stroke:#ff00ff;stroke-width:0.531265;stroke-linecap:square"
       id="rect2"
       width="199.46873"
       height="49.468735"
       x="-99.734367"
       y="25.265635" />
    <path
       style="display:none;fill:none;fill-rule:evenodd;stroke:#ff00ff;stroke-width:0.531265;stroke-linecap:square"
       d="m -99.7344,50 c 0.3342,-0.2603 0.6683,-1.3007 1.0024,-1.5609 0.3341,-0.2602 0.6682,-1.2948 1.0023,-1.5546 0.3342,-0.2598 0.6683,-1.2831 1.0024,-1.5423 0.3341,-0.2591 0.6682,-1.2654 1.0024,-1.5236 0.3341,-0.2583 0.6682,-1.242 1.0023,-1.4991 0.3341,-0.257 0.6682,-1.2127 1.0024,-1.4684 0.3341,-0.2556 0.6682,-1.1779 1.0023,-1.4319 0.3341,-0.254 0.6683,-1.1377 1.0024,-1.3898 0.3341,-0.252 0.6682,-1.0921 1.0023,-1.342 0.3342,-0.2499 0.6683,-1.0416 1.0024,-1.289 0.3341,-0.2475 0.6682,-0.986 1.0023,-1.2308 0.3342,-0.2447 0.6683,-0.9258 1.0024,-1.1676 0.3341,-0.2419 0.6682,-0.8612 1.0024,-1.0999 0.3341,-0.2387 0.6682,-0.7925 1.0023,-1.0278 0.3341,-0.2353 0.6682,-0.7198 1.0024,-0.9515 0.3341,-0.2316 0.6682,-0.6436 1.0023,-0.8714 0.3341,-0.2278 0.6683,-0.5642 1.0024,-0.7879 0.3341,-0.2237 0.6682,-0.4819 1.0023,-0.7013 0.3341,-0.2194 0.6683,-0.397 1.0024,-0.6118 0.3341,-0.2149 0.6682,-0.3099 1.0023,-0.52 0.3342,-0.2101 0.6683,-0.2208 1.0024,-0.4259 0.3341,-0.2052 0.6682,-0.1304 1.0024,-0.3304 0.3341,-0.2 0.6682,-0.0387 1.0023,-0.2333 0.3341,-0.1946 0.6682,0.0537 1.0024,-0.1354 0.3341,-0.1891 0.6682,0.1464 1.0023,-0.037 0.3341,-0.1833 0.6683,0.239 1.0024,0.0616 0.3341,-0.1774 0.6682,0.3313 1.0023,0.16 0.3341,-0.1713 0.6683,0.4227 1.0024,0.2577 0.3341,-0.1651 0.6682,0.5129 1.0023,0.3543 0.3342,-0.1586 0.6683,0.6017 1.0024,0.4497 0.3341,-0.152 0.6682,0.6884 1.0024,0.5431 0.3341,-0.1453 0.6682,0.7728 1.0023,0.6344 0.3341,-0.1384 0.6682,0.8546 1.0024,0.7232 0.3341,-0.1313 0.6682,0.9333 1.0023,0.8092 0.3341,-0.1242 0.6683,1.0087 1.0024,0.8918 0.3341,-0.1169 0.6682,1.0804 1.0023,0.9709 0.3341,-0.1095 0.6683,1.1481 1.0024,1.0462 0.3341,-0.102 0.6682,1.2116 1.0023,1.1172 0.3342,-0.0944 0.6683,1.2706 1.0024,1.1839 0.3341,-0.0867 0.6682,1.3247 1.0024,1.2458 0.3341,-0.0789 0.6682,1.3737 1.0023,1.3027 0.3341,-0.071 0.6682,1.4176 1.0024,1.3545 0.3341,-0.0631 0.6682,1.4559 1.0023,1.4008 0.3341,-0.055 0.6683,1.4886 1.0024,1.4416 0.3341,-0.047 0.6682,1.5155 1.0023,1.4767 0.3341,-0.0389 0.6683,1.5365 1.0024,1.5057 0.3341,-0.0307 0.6682,1.5515 1.0023,1.5289 0.3342,-0.0226 0.6683,1.5603 1.0024,1.5459 0.3341,-0.0144 0.6682,1.563 1.0023,1.5568 0.3342,-0.0062 0.6683,1.5594 1.0024,1.5615 0.3341,0.002 0.6682,1.5496 1.0024,1.5599 0.3341,0.0102 0.6682,1.5336 1.0023,1.5521 0.3341,0.0185 0.6683,1.5115 1.0024,1.5382 0.3341,0.0266 0.6682,1.4832 1.0023,1.518 0.3341,0.0349 0.6683,1.449 1.0024,1.492 0.3341,0.0429 0.6682,1.4088 1.0023,1.4598 0.3342,0.051 0.6683,1.3629 1.0024,1.4219 0.3341,0.0591 0.6682,1.3113 1.0023,1.3784 0.3342,0.067 0.6683,1.2543 1.0024,1.3293 0.3341,0.0749 0.6682,1.1921 1.0024,1.2749 0.3341,0.0827 0.6682,1.1249 1.0023,1.2154 0.3341,0.0905 0.6683,1.0529 1.0024,1.1511 0.3341,0.0982 0.6682,0.9765 1.0023,1.0823 0.3341,0.1057 0.6683,0.8958 1.0024,1.009 0.3341,0.1133 0.6682,0.8113 1.0023,0.9319 0.3342,0.1205 0.6683,0.7231 1.0024,0.8508 0.3341,0.1278 0.6682,0.6317 1.0023,0.7666 0.3342,0.1349 0.6683,0.5373 1.0024,0.6792 0.3341,0.1418 0.6682,0.4404 1.0024,0.589 0.3341,0.1487 0.6682,0.3413 1.0023,0.4967 0.3341,0.1553 0.6682,0.2403 1.0024,0.4022 0.3341,0.1618 0.6682,0.1379 1.0023,0.3061 0.3341,0.1682 0.6683,0.0346 1.0024,0.209 0.3341,0.1744 0.6682,-0.0696 1.0023,0.1108 0.3342,0.1804 0.6683,-0.1739 1.0024,0.0123 0.3341,0.1863 0.6682,-0.2781 1.0023,-0.0862 0.3342,0.1919 0.6683,-0.3818 1.0024,-0.1845 0.3341,0.1974 0.6682,-0.4846 1.0024,-0.2819 0.3341,0.2026 0.6682,-0.586 1.0023,-0.3784 0.3341,0.2077 0.6682,-0.6857 1.0024,-0.4732 0.3341,0.2126 0.6682,-0.7833 1.0023,-0.5661 0.3341,0.2171 0.6683,-0.8785 1.0024,-0.6569 0.3341,0.2216 0.6682,-0.9708 1.0023,-0.745 0.3342,0.2258 0.6683,-1.0599 1.0024,-0.8301 0.3341,0.2298 0.6682,-1.1454 1.0023,-0.9119 0.3342,0.2335 0.6683,-1.2271 1.0024,-0.9901 0.3341,0.237 0.6682,-1.3047 1.0024,-1.0644 0.3341,0.2403 0.6682,-1.3777 1.0023,-1.1343 0.3341,0.2433 0.6682,-1.446 1.0024,-1.1998 0.3341,0.2461 0.6682,-1.5092 1.00232,-1.2605 0.33412,0.2487 0.66824,-1.5672 1.00236,-1.3162 0.33412,0.251 0.66823,-1.6196 1.00235,-1.3666 0.33412,0.2531 0.66824,-1.6664 1.00236,-1.4115 0.33412,0.2548 0.66823,-1.7073 1.00235,-1.4509 0.33412,0.2564 0.66824,-1.7422 1.00236,-1.4845 0.33412,0.2577 0.66824,-1.7708 1.00235,-1.5121 0.33412,0.2587 0.66824,-1.7932 1.00236,-1.5337 0.33412,0.2595 0.66824,-1.8093 1.00235,-1.5492 0.33412,0.26 0.668242,-1.8189 1.00236,-1.5586 0.334119,0.2603 0.668237,-1.8219 1.002356,-1.5616 0.334118,0.2603 0.668234,-1.8186 1.002354,-1.5586 0.33412,0.2601 0.66824,-1.8087 1.00236,-1.5492 0.33412,0.2595 0.66823,-1.7924 1.00235,-1.5337 0.33412,0.2587 0.66824,-1.7698 1.00236,-1.5121 0.33412,0.2577 0.66823,-1.7409 1.00235,-1.4845 0.33412,0.2564 0.66824,-1.7057 1.00236,-1.4509 0.33412,0.2549 0.66824,-1.6646 1.00235,-1.4115 0.33412,0.253 0.66824,-1.6176 1.00236,-1.3666 0.33412,0.251 0.66824,-1.5649 1.00235,-1.3162 0.33412,0.2487 0.66823,-1.5066 1.00233,-1.2605 0.3341,0.2462 0.6683,-1.4431 1.0024,-1.1998 0.3341,0.2434 0.6682,-1.3746 1.0023,-1.1343 0.3342,0.2403 0.6683,-1.3014 1.0024,-1.0644 0.3341,0.2371 0.6682,-1.2236 1.0024,-0.9901 0.3341,0.2335 0.6682,-1.1417 1.0023,-0.9119 0.3341,0.2298 0.6682,-1.0559 1.0024,-0.8301 0.3341,0.2258 0.6682,-0.9666 1.0023,-0.745 0.3341,0.2216 0.6683,-0.874 1.0024,-0.6569 0.3341,0.2172 0.6682,-0.7787 1.0023,-0.5661 0.3341,0.2125 0.6683,-0.6809 1.0024,-0.4732 0.3341,0.2076 0.6682,-0.581 1.0023,-0.3784 0.3342,0.2027 0.6683,-0.4793 1.0024,-0.2819 0.3341,0.1973 0.6682,-0.3764 1.0024,-0.1845 0.3341,0.1919 0.6682,-0.2725 1.0023,-0.0862 0.3341,0.1862 0.6682,-0.1681 1.0024,0.0123 0.3341,0.1804 0.6682,-0.0635 1.0023,0.1108 0.3341,0.1744 0.6683,0.0408 1.0024,0.209 0.3341,0.1682 0.6682,0.1443 1.0023,0.3061 0.3341,0.1619 0.6683,0.2469 1.0024,0.4022 0.3341,0.1554 0.6682,0.348 1.0023,0.4967 0.3342,0.1486 0.6683,0.4472 1.0024,0.589 0.3341,0.1419 0.6682,0.5443 1.0023,0.6792 0.3342,0.1349 0.6683,0.6388 1.0024,0.7666 0.3341,0.1277 0.6682,0.7303 1.0024,0.8508 0.3341,0.1206 0.6682,0.8187 1.0023,0.9319 0.3341,0.1132 0.6683,0.9033 1.0024,1.009 0.3341,0.1058 0.6682,0.9841 1.0023,1.0823 0.3341,0.0982 0.6683,1.0606 1.0024,1.1511 0.3341,0.0905 0.6682,1.1327 1.0023,1.2155 0.3342,0.0827 0.6683,1.1999 1.0024,1.2749 0.3341,0.0749 0.6682,1.2622 1.0023,1.3292 0.3342,0.0671 0.6683,1.3193 1.0024,1.3784 0.3341,0.059 0.6682,1.3709 1.0024,1.4219 0.3341,0.051 0.6682,1.4169 1.0023,1.4598 0.3341,0.043 0.6683,1.4571 1.0024,1.492 0.3341,0.0348 0.6682,1.4914 1.0023,1.518 0.3341,0.0267 0.6683,1.5197 1.0024,1.5382 0.3341,0.0185 0.6682,1.5419 1.0023,1.5521 0.3342,0.0103 0.6683,1.5579 1.0024,1.5599 0.3341,0.0021 0.6682,1.5677 1.0023,1.5615 0.3342,-0.0062 0.6683,1.5712 1.0024,1.5568 0.3341,-0.0144 0.6682,1.5685 1.0024,1.5459 0.3341,-0.0226 0.6682,1.5596 1.0023,1.5289 0.3341,-0.0308 0.6683,1.5446 1.0024,1.5058 0.3341,-0.0389 0.6682,1.5236 1.0023,1.4766 0.3341,-0.047 0.6683,1.4966 1.0024,1.4416 0.3341,-0.0551 0.6682,1.4639 1.0023,1.4008 0.3342,-0.0631 0.6683,1.4255 1.0024,1.3545 0.3341,-0.071 0.6682,1.3816 1.0023,1.3027 0.3342,-0.0789 0.6683,1.3325 1.0024,1.2458 0.3341,-0.0867 0.6682,1.2783 1.0024,1.1839 0.3341,-0.0944 0.6682,1.2192 1.0023,1.1173 0.3341,-0.102 0.6682,1.1556 1.0024,1.0461 0.3341,-0.1095 0.6682,1.0878 1.0023,0.9709 0.3341,-0.1169 0.6683,1.016 1.0024,0.8918 0.3341,-0.1241 0.6682,0.9405 1.0023,0.8092 0.3342,-0.1314 0.6683,0.8616 1.0024,0.7232 0.3341,-0.1384 0.6682,0.7797 1.0023,0.6344 0.3342,-0.1453 0.6683,0.6951 1.0024,0.5431 0.3341,-0.152 0.6682,0.6083 1.0024,0.4497 0.3341,-0.1586 0.6682,0.5194 1.0023,0.3543 0.3341,-0.165 0.6682,0.429 1.0024,0.2577 0.3341,-0.1713 0.6682,0.3374 1.0023,0.16 0.3341,-0.1774 0.6683,0.2449 1.0024,0.0616 0.3341,-0.1833 0.6682,0.1521 1.0023,-0.037 0.3342,-0.1891 0.6683,0.0592 1.0024,-0.1354 0.3341,-0.1946 0.6682,-0.0333 1.0023,-0.2333 0.3342,-0.2 0.6683,-0.1252 1.0024,-0.3303 0.3341,-0.2052 0.6682,-0.2159 1.0024,-0.426 0.3341,-0.2101 0.6682,-0.3051 1.0023,-0.52 0.3341,-0.2148 0.6682,-0.3924 1.0024,-0.6118 0.3341,-0.2194 0.6682,-0.4775 1.0023,-0.7013 0.3341,-0.2237 0.6683,-0.5601 1.0024,-0.7879 0.3341,-0.2278 0.6682,-0.6398 1.0023,-0.8714 0.3342,-0.2317 0.6683,-0.7162 1.0024,-0.9515 0.3341,-0.2353 0.6682,-0.7891 1.0023,-1.0278 0.3342,-0.2387 0.6683,-0.858 1.0024,-1.0999 0.3341,-0.2418 0.6682,-0.9228 1.0024,-1.1676 0.3341,-0.2448 0.6682,-0.9833 1.0023,-1.2308 0.3341,-0.2474 0.6682,-1.0391 1.0024,-1.289 0.3341,-0.2498 0.6682,-1.09 1.0023,-1.342 0.3341,-0.2521 0.6683,-1.1358 1.0024,-1.3898 0.3341,-0.254 0.6682,-1.1763 1.0023,-1.4319 0.3341,-0.2557 0.6683,-1.2113 1.0024,-1.4684 0.3341,-0.2571 0.6682,-1.2408 1.0023,-1.4991 0.3342,-0.2582 0.6683,-1.2645 1.0024,-1.5236 0.3341,-0.2592 0.6682,-1.2825 1.0024,-1.5423 0.3341,-0.2598 0.6682,-1.2944 1.0023,-1.5546 0.3341,-0.2602 0.6682,-1.3006 1.0024,-1.5609"
       title="sin( 2*x )"
       id="path1"
       inkscape:label="path_init" />
    <path
       style="display:none;fill:none;fill-rule:evenodd;stroke:#ff00ff;stroke-width:0.531265;stroke-linecap:square"
       d="m -99.7344,49.9977 c 0.3342,-0.2603 0.6683,1.8211 1.0024,1.5609 0.3341,-0.2602 0.6682,1.8145 1.0023,1.5547 0.3342,-0.2598 0.6683,1.8014 1.0024,1.5422 0.3341,-0.2591 0.6682,1.782 1.0024,1.5237 0.3341,-0.2582 0.6682,1.7562 1.0023,1.4991 0.3341,-0.2571 0.6682,1.7241 1.0024,1.4685 0.3341,-0.2557 0.6682,1.6859 1.0023,1.432 0.3341,-0.254 0.6683,1.6418 1.0024,1.3898 0.3341,-0.2521 0.6682,1.592 1.0023,1.3421 0.3342,-0.2499 0.6683,1.5365 1.0024,1.2891 0.3341,-0.2475 0.6682,1.4756 1.0023,1.2308 0.3342,-0.2448 0.6683,1.4096 1.0024,1.1678 0.3341,-0.2419 0.6682,1.3387 1.0024,1.1 0.3341,-0.2387 0.6682,1.2631 1.0023,1.0278 0.3341,-0.2353 0.6682,1.1833 1.0024,0.9516 0.3341,-0.2316 0.6682,1.0994 1.0023,0.8716 0.3341,-0.2278 0.6683,1.0118 1.0024,0.788 0.3341,-0.2237 0.6682,0.9209 1.0023,0.7015 0.3341,-0.2194 0.6683,0.8268 1.0024,0.6119 0.3341,-0.2149 0.6682,0.7302 1.0023,0.5201 0.3342,-0.2101 0.6683,0.6313 1.0024,0.4261 0.3341,-0.2052 0.6682,0.5305 1.0024,0.3305 0.3341,-0.2001 0.6682,0.4281 1.0023,0.2334 0.3341,-0.1946 0.6682,0.3247 1.0024,0.1356 0.3341,-0.1891 0.6682,0.2205 1.0023,0.0371 0.3341,-0.1833 0.6683,0.116 1.0024,-0.0615 0.3341,-0.1774 0.6682,0.0115 1.0023,-0.1598 0.3341,-0.1713 0.6683,-0.0925 1.0024,-0.2575 0.3341,-0.1651 0.6682,-0.1956 1.0023,-0.3542 0.3342,-0.1586 0.6683,-0.2975 1.0024,-0.4495 0.3341,-0.1521 0.6682,-0.3978 1.0024,-0.543 0.3341,-0.1453 0.6682,-0.4959 1.0023,-0.6343 0.3341,-0.1384 0.6682,-0.5918 1.0024,-0.7231 0.3341,-0.1314 0.6682,-0.6848 1.0023,-0.809 0.3341,-0.1242 0.6683,-0.7748 1.0024,-0.8917 0.3341,-0.1169 0.6682,-0.8613 1.0023,-0.9708 0.3341,-0.1095 0.6683,-0.9441 1.0024,-1.0461 0.3341,-0.1019 0.6682,-1.0227 1.0023,-1.1171 0.3342,-0.0944 0.6683,-1.0971 1.0024,-1.1838 0.3341,-0.0867 0.6682,-1.1668 1.0024,-1.2457 0.3341,-0.0789 0.6682,-1.2317 1.0023,-1.3027 0.3341,-0.071 0.6682,-1.2913 1.0024,-1.3544 0.3341,-0.063 0.6682,-1.3457 1.0023,-1.4007 0.3341,-0.0551 0.6683,-1.3946 1.0024,-1.4416 0.3341,-0.047 0.6682,-1.4377 1.0023,-1.4766 0.3341,-0.0389 0.6683,-1.4749 1.0024,-1.5057 0.3341,-0.0307 0.6682,-1.5063 1.0023,-1.5288 0.3342,-0.0226 0.6683,-1.5316 1.0024,-1.5459 0.3341,-0.0144 0.6682,-1.5506 1.0023,-1.5568 0.3342,-0.0062 0.6683,-1.5635 1.0024,-1.5615 0.3341,0.0021 0.6682,-1.5702 1.0024,-1.5599 0.3341,0.0103 0.6682,-1.5706 1.0023,-1.5521 0.3341,0.0185 0.6683,-1.5649 1.0024,-1.5382 0.3341,0.0266 0.6682,-1.553 1.0023,-1.5181 0.3341,0.0348 0.6683,-1.535 1.0024,-1.492 0.3341,0.043 0.6682,-1.5109 1.0023,-1.4599 0.3342,0.051 0.6683,-1.481 1.0024,-1.422 0.3341,0.0591 0.6682,-1.4454 1.0023,-1.3784 0.3342,0.0671 0.6683,-1.4043 1.0024,-1.3293 0.3341,0.0749 0.6682,-1.3578 1.0024,-1.275 0.3341,0.0828 0.6682,-1.3061 1.0023,-1.2156 0.3341,0.0906 0.6683,-1.2494 1.0024,-1.1512 0.3341,0.0982 0.6682,-1.1881 1.0023,-1.0824 0.3341,0.1058 0.6683,-1.1223 1.0024,-1.0091 0.3341,0.1132 0.6682,-1.0525 1.0023,-0.932 0.3342,0.1206 0.6683,-0.9787 1.0024,-0.851 0.3341,0.1278 0.6682,-0.9015 1.0023,-0.7666 0.3342,0.1348 0.6683,-0.8212 1.0024,-0.6793 0.3341,0.1418 0.6682,-0.7379 1.0024,-0.5892 0.3341,0.1486 0.6682,-0.6521 1.0023,-0.4968 0.3341,0.1553 0.6682,-0.5642 1.0024,-0.4023 0.3341,0.1618 0.6682,-0.4746 1.0023,-0.3063 0.3341,0.1682 0.6683,-0.3835 1.0024,-0.2091 0.3341,0.1744 0.6682,-0.2914 1.0023,-0.111 0.3342,0.1804 0.6683,-0.1987 1.0024,-0.0125 0.3341,0.1863 0.6682,-0.1058 1.0023,0.0861 0.3342,0.1919 0.6683,-0.013 1.0024,0.1843 0.3341,0.1974 0.6682,0.0793 1.0024,0.2819 0.3341,0.2026 0.6682,0.1705 1.0023,0.3782 0.3341,0.2076 0.6682,0.2605 1.0024,0.473 0.3341,0.2125 0.6682,0.3489 1.0023,0.566 0.3341,0.2172 0.6683,0.4352 1.0024,0.6568 0.3341,0.2216 0.6682,0.519 1.0023,0.7448 0.3342,0.2258 0.6683,0.6003 1.0024,0.83 0.3341,0.2298 0.6682,0.6783 1.0023,0.9118 0.3342,0.2335 0.6683,0.753 1.0024,0.99 0.3341,0.237 0.6682,0.824 1.0024,1.0643 0.3341,0.2403 0.6682,0.8909 1.0023,1.1342 0.3341,0.2433 0.6682,0.9536 1.0024,1.1997 0.3341,0.2462 0.6682,1.0117 1.00232,1.2604 0.33412,0.2487 0.66824,1.0651 1.00236,1.3161 0.33412,0.251 0.66823,1.1135 1.00235,1.3665 0.33412,0.2531 0.66824,1.1567 1.00236,1.4115 0.33412,0.2549 0.66823,1.1945 1.00235,1.4509 0.33412,0.2564 0.66824,1.2267 1.00236,1.4844 0.33412,0.2577 0.66824,1.2533 1.00235,1.5121 0.33412,0.2587 0.66824,1.2741 1.00236,1.5336 0.33412,0.2596 0.66824,1.2892 1.00235,1.5492 0.33412,0.2601 0.668242,1.2983 1.00236,1.5586 0.334119,0.2603 0.668237,1.3014 1.002356,1.5616 0.334118,0.2603 0.668234,1.2986 1.002354,1.5586 0.33412,0.26 0.66824,1.2897 1.00236,1.5492 0.33412,0.2595 0.66823,1.275 1.00235,1.5338 0.33412,0.2587 0.66824,1.2544 1.00236,1.5121 0.33412,0.2577 0.66823,1.2281 1.00235,1.4845 0.33412,0.2564 0.66824,1.1961 1.00236,1.451 0.33412,0.2548 0.66824,1.1585 1.00235,1.4116 0.33412,0.253 0.66824,1.1156 1.00236,1.3666 0.33412,0.251 0.66824,1.0676 1.00235,1.3163 0.33412,0.2487 0.66823,1.0144 1.00233,1.2606 0.3341,0.2461 0.6683,0.9565 1.0024,1.1999 0.3341,0.2433 0.6682,0.8941 1.0023,1.1344 0.3342,0.2403 0.6683,0.8274 1.0024,1.0645 0.3341,0.237 0.6682,0.7567 1.0024,0.9902 0.3341,0.2335 0.6682,0.6823 1.0023,0.912 0.3341,0.2298 0.6682,0.6045 1.0024,0.8303 0.3341,0.2257 0.6682,0.5235 1.0023,0.7451 0.3341,0.2215 0.6683,0.4398 1.0024,0.657 0.3341,0.2171 0.6682,0.3538 1.0023,0.5663 0.3341,0.2125 0.6683,0.2656 1.0024,0.4733 0.3341,0.2077 0.6682,0.1759 1.0023,0.3785 0.3342,0.2026 0.6683,0.0847 1.0024,0.2821 0.3341,0.1973 0.6682,-0.0073 1.0024,0.1846 0.3341,0.1919 0.6682,-0.0999 1.0023,0.0864 0.3341,0.1862 0.6682,-0.1926 1.0024,-0.0122 0.3341,0.1804 0.6682,-0.2851 1.0023,-0.1107 0.3341,0.1744 0.6683,-0.377 1.0024,-0.2088 0.3341,0.1682 0.6682,-0.4679 1.0023,-0.306 0.3341,0.1618 0.6683,-0.5574 1.0024,-0.4021 0.3341,0.1553 0.6682,-0.6451 1.0023,-0.4965 0.3342,0.1487 0.6683,-0.7307 1.0024,-0.5889 0.3341,0.1418 0.6682,-0.8139 1.0023,-0.679 0.3342,0.1348 0.6683,-0.8942 1.0024,-0.7665 0.3341,0.1278 0.6682,-0.9713 1.0024,-0.8507 0.3341,0.1205 0.6682,-1.0449 1.0023,-0.9317 0.3341,0.1132 0.6683,-1.1147 1.0024,-1.009 0.3341,0.1058 0.6682,-1.1803 1.0023,-1.0821 0.3341,0.0982 0.6683,-1.2416 1.0024,-1.1511 0.3341,0.0906 0.6682,-1.2981 1.0023,-1.2153 0.3342,0.0828 0.6683,-1.3498 1.0024,-1.2748 0.3341,0.0749 0.6682,-1.3963 1.0023,-1.3292 0.3342,0.067 0.6683,-1.4374 1.0024,-1.3783 0.3341,0.0591 0.6682,-1.4729 1.0024,-1.4219 0.3341,0.0511 0.6682,-1.5027 1.0023,-1.4598 0.3341,0.043 0.6683,-1.5267 1.0024,-1.4918 0.3341,0.0348 0.6682,-1.5448 1.0023,-1.5181 0.3341,0.0267 0.6683,-1.5566 1.0024,-1.5381 0.3341,0.0184 0.6682,-1.5624 1.0023,-1.5521 0.3342,0.0102 0.6683,-1.562 1.0024,-1.5599 0.3341,0.002 0.6682,-1.5553 1.0023,-1.5615 0.3342,-0.0062 0.6683,-1.5424 1.0024,-1.5568 0.3341,-0.0144 0.6682,-1.5234 1.0024,-1.546 0.3341,-0.0225 0.6682,-1.4981 1.0023,-1.5289 0.3341,-0.0307 0.6683,-1.4669 1.0024,-1.5058 0.3341,-0.0389 0.6682,-1.4296 1.0023,-1.4766 0.3341,-0.047 0.6683,-1.3866 1.0024,-1.4417 0.3341,-0.055 0.6682,-1.3378 1.0023,-1.4009 0.3342,-0.063 0.6683,-1.2835 1.0024,-1.3545 0.3341,-0.071 0.6682,-1.224 1.0023,-1.3028 0.3342,-0.0789 0.6683,-1.1593 1.0024,-1.2459 0.3341,-0.0867 0.6682,-1.0896 1.0024,-1.184 0.3341,-0.0944 0.6682,-1.0154 1.0023,-1.1174 0.3341,-0.1019 0.6682,-0.9367 1.0024,-1.0462 0.3341,-0.1095 0.6682,-0.8542 1.0023,-0.9711 0.3341,-0.1169 0.6683,-0.7677 1.0024,-0.8919 0.3341,-0.1242 0.6682,-0.6779 1.0023,-0.8092 0.3342,-0.1314 0.6683,-0.585 1.0024,-0.7234 0.3341,-0.1384 0.6682,-0.4893 1.0023,-0.6345 0.3342,-0.1453 0.6683,-0.3913 1.0024,-0.5433 0.3341,-0.152 0.6682,-0.2912 1.0024,-0.4498 0.3341,-0.1586 0.6682,-0.1894 1.0023,-0.3545 0.3341,-0.165 0.6682,-0.0865 1.0024,-0.2578 0.3341,-0.1713 0.6682,0.0173 1.0023,-0.1601 0.3341,-0.1774 0.6683,0.1216 1.0024,-0.0618 0.3341,-0.1833 0.6682,0.2259 1.0023,0.0369 0.3342,-0.1891 0.6683,0.3299 1.0024,0.1352 0.3341,-0.1946 0.6682,0.4332 1.0023,0.2332 0.3342,-0.2 0.6683,0.5354 1.0024,0.3302 0.3341,-0.2052 0.6682,0.6359 1.0024,0.4258 0.3341,-0.2101 0.6682,0.7347 1.0023,0.5198 0.3341,-0.2148 0.6682,0.8311 1.0024,0.6117 0.3341,-0.2194 0.6682,0.9249 1.0023,0.7012 0.3341,-0.2237 0.6683,1.0156 1.0024,0.7878 0.3341,-0.2278 0.6682,1.103 1.0023,0.8713 0.3342,-0.2317 0.6683,1.1867 1.0024,0.9514 0.3341,-0.2353 0.6682,1.2663 1.0023,1.0276 0.3342,-0.2387 0.6683,1.3417 1.0024,1.0998 0.3341,-0.2419 0.6682,1.4123 1.0024,1.1676 0.3341,-0.2448 0.6682,1.4781 1.0023,1.2306 0.3341,-0.2474 0.6682,1.5388 1.0024,1.2889 0.3341,-0.2498 0.6682,1.5941 1.0023,1.342 0.3341,-0.252 0.6683,1.6437 1.0024,1.3897 0.3341,-0.254 0.6682,1.6876 1.0023,1.4319 0.3341,-0.2557 0.6683,1.7254 1.0024,1.4684 0.3341,-0.2571 0.6682,1.7572 1.0023,1.4989 0.3342,-0.2582 0.6683,1.7828 1.0024,1.5237 0.3341,-0.2592 0.6682,1.802 1.0024,1.5422 0.3341,-0.2598 0.6682,1.8148 1.0023,1.5546 0.3341,-0.2602 0.6682,1.8212 1.0024,1.5609"
       title="sin( 2*x + ( 3.1415  ) )"
       id="path10"
       inkscape:label="path_mid" />
    <path
       style="display:inline;fill:none;fill-rule:evenodd;stroke:#ff00ff;stroke-width:0.531265;stroke-linecap:square"
       d="m 0.37279195,50 c 0.3342,-0.2603 0.66829995,-1.3007 1.00239995,-1.5609 0.3341,-0.2602 0.6682,-1.2948 1.0023,-1.5546 0.3341999,-0.2598 0.6682999,-1.2831 1.0023999,-1.5423 0.3341,-0.2591 0.6682,-1.2654 1.0024,-1.5236 0.3341,-0.2583 0.6682,-1.242 1.0023001,-1.4991 0.3341,-0.257 0.6682,-1.2127 1.0024,-1.4684 0.3341,-0.2556 0.6682,-1.1779 1.0022999,-1.4319 0.3341,-0.254 0.6683,-1.1377 1.0024,-1.3898 0.3341,-0.252 0.6681999,-1.0921 1.0022999,-1.342 0.3342,-0.2499 0.6683003,-1.0416 1.0024003,-1.289 0.3341,-0.2475 0.6682,-0.986 1.0023,-1.2308 0.3342,-0.2447 0.6683,-0.9258 1.0024,-1.1676 0.3341,-0.2419 0.6682,-0.8612 1.0024,-1.0999 0.3341,-0.2387 0.6682,-0.7925 1.0023,-1.0278 0.3341,-0.2353 0.6682,-0.7198 1.0024,-0.9515 0.3341,-0.2316 0.6682,-0.6436 1.0023,-0.8714 0.3341,-0.2278 0.6683,-0.5642 1.0024,-0.7879 0.3341,-0.2237 0.6682,-0.4819 1.0023,-0.7013 0.3341,-0.2194 0.6683,-0.397 1.0024,-0.6118 0.3341,-0.2149 0.6682,-0.3099 1.0023,-0.52 0.3342,-0.2101 0.6683,-0.2208 1.0024,-0.4259 0.3341,-0.2052 0.6682,-0.1304 1.0024,-0.3304 0.3341,-0.2 0.6682,-0.0387 1.0023,-0.2333 0.3341,-0.1946 0.6682,0.0537 1.0024,-0.1354 0.3341,-0.1891 0.6682,0.1464 1.0023,-0.037 0.3341,-0.1833 0.6683,0.239 1.0024,0.0616 0.3341,-0.1774 0.6682,0.3313 1.0023,0.16 0.3341,-0.1713 0.6683,0.4227 1.0024,0.2577 0.3341,-0.1651 0.6682,0.5129 1.0023,0.3543 0.3342,-0.1586 0.6683,0.6017 1.0024,0.4497 0.3341,-0.152 0.6682,0.6884 1.0024,0.5431 0.3341,-0.1453 0.6682,0.7728 1.0023,0.6344 0.3341,-0.1384 0.6682,0.8546 1.0024,0.7232 0.3341,-0.1313 0.6682,0.9333 1.0023,0.8092 0.3341,-0.1242 0.6683,1.0087 1.0024,0.8918 0.3341,-0.1169 0.6682,1.0804 1.0023,0.9709 0.3341,-0.1095 0.6683,1.1481 1.0024,1.0462 0.3341,-0.102 0.6682,1.2116 1.0023,1.1172 0.3342,-0.0944 0.6683,1.2706 1.0024,1.1839 0.3341,-0.0867 0.6682,1.3247 1.0024,1.2458 0.3341,-0.0789 0.6682,1.3737 1.0023,1.3027 0.3341,-0.071 0.6682,1.4176 1.0024,1.3545 0.3341,-0.0631 0.6682,1.4559 1.0023,1.4008 0.3341,-0.055 0.6683,1.4886 1.0024,1.4416 0.3341,-0.047 0.6682,1.5155 1.0023,1.4767 0.3341,-0.0389 0.6683,1.5365 1.0024,1.5057 0.3341,-0.0307 0.6682,1.5515 1.0023,1.5289 0.3342,-0.0226 0.6683,1.5603 1.0024,1.5459 0.3341,-0.0144 0.6682,1.563 1.0023,1.5568 0.3342,-0.0062 0.6683,1.5594 1.0024,1.5615 0.3341,0.002 0.6682,1.5496 1.0024,1.5599 0.3341,0.0102 0.6682,1.5336 1.0023,1.5521 0.3341,0.0185 0.6683,1.5115 1.0024,1.5382 0.3341,0.0266 0.6682,1.4832 1.0023,1.518 0.3341,0.0349 0.6683,1.449 1.0024,1.492 0.3341,0.0429 0.6682,1.4088 1.0023,1.4598 0.3342,0.051 0.6683,1.3629 1.0024,1.4219 0.3341,0.0591 0.6682,1.3113 1.0023,1.3784 0.3342,0.067 0.6683,1.2543 1.0024,1.3293 0.3341,0.0749 0.6682,1.1921 1.0024,1.2749 0.3341,0.0827 0.6682,1.1249 1.0023,1.2154 0.3341,0.0905 0.6683,1.0529 1.0024,1.1511 0.3341,0.0982 0.6682,0.9765 1.0023,1.0823 0.3341,0.1057 0.6683,0.8958 1.0024,1.009 0.3341,0.1133 0.6682,0.8113 1.0023,0.9319 0.3342,0.1205 0.6683,0.7231 1.0024,0.8508 0.3341,0.1278 0.6682,0.6317 1.0023,0.7666 0.3342,0.1349 0.6683,0.5373 1.0024,0.6792 0.3341,0.1418 0.6682,0.4404 1.0024,0.589 0.3341,0.1487 0.6682,0.3413 1.0023,0.4967 0.3341,0.1553 0.6682,0.2403 1.0024,0.4022 0.3341,0.1618 0.6682,0.1379 1.0023,0.3061 0.3341,0.1682 0.6683,0.0346 1.0024,0.209 0.3341,0.1744 0.6682,-0.0696 1.0023,0.1108 0.3342,0.1804 0.6683,-0.1739 1.0024,0.0123 0.3341,0.1863 0.6682,-0.2781 1.0023,-0.0862 0.3342,0.1919 0.6683,-0.3818 1.0024,-0.1845 0.3341,0.1974 0.6682,-0.4846 1.0024,-0.2819 0.3341,0.2026 0.6682,-0.586 1.0023,-0.3784 0.3341,0.2077 0.6682,-0.6857 1.0024,-0.4732 0.3341,0.2126 0.6682,-0.7833 1.0023,-0.5661 0.3341,0.2171 0.6683,-0.8785 1.0024,-0.6569 0.3341,0.2216 0.6682,-0.9708 1.0023,-0.745 0.3342,0.2258 0.6683,-1.0599 1.0024,-0.8301 0.3341,0.2298 0.6682,-1.1454 1.0023,-0.9119 0.3342,0.2335 0.6683,-1.2271 1.0024,-0.9901 0.3341,0.237 0.6682,-1.3047 1.0024,-1.0644 0.3341,0.2403 0.6682,-1.3777 1.0023,-1.1343 0.3341,0.2433 0.6682,-1.446 1.0024,-1.1998 0.3341,0.2461 0.6682,-1.5092 1.00232,-1.2605 0.33412,0.2487 0.66824,-1.5672 1.00236,-1.3162 0.33412,0.251 0.66823,-1.6196 1.00235,-1.3666 0.33412,0.2531 0.66824,-1.6664 1.00236,-1.4115 0.33412,0.2548 0.66823,-1.7073 1.00235,-1.4509 0.33412,0.2564 0.66824,-1.7422 1.00236,-1.4845 0.33412,0.2577 0.66824,-1.7708 1.00235,-1.5121 0.33412,0.2587 0.66824,-1.7932 1.00236,-1.5337 0.33412,0.2595 0.66824,-1.8093 1.00235,-1.5492 0.33412,0.26 0.668242,-1.8189 1.00236,-1.5586 0.334119,0.2603 0.668238,-1.8219 1.002358,-1.5616 0.33412,0.2603 0.66823,-1.8186 1.00235,-1.5586 0.33412,0.2601 0.66824,-1.8087 1.00236,-1.5492 0.33412,0.2595 0.66823,-1.7924 1.00235,-1.5337 0.33412,0.2587 0.66824,-1.7698 1.00236,-1.5121 0.33412,0.2577 0.66823,-1.7409 1.00235,-1.4845 0.33412,0.2564 0.66824,-1.7057 1.00236,-1.4509 0.33412,0.2549 0.66824,-1.6646 1.00235,-1.4115 0.33412,0.253 0.66824,-1.6176 1.00236,-1.3666 0.33412,0.251 0.66824,-1.5649 1.00235,-1.3162 0.33412,0.2487 0.66823,-1.5066 1.00233,-1.2605 0.3341,0.2462 0.6683,-1.4431 1.0024,-1.1998 0.3341,0.2434 0.6682,-1.3746 1.0023,-1.1343 0.3342,0.2403 0.6683,-1.3014 1.0024,-1.0644 0.3341,0.2371 0.6682,-1.2236 1.0024,-0.9901 0.3341,0.2335 0.6682,-1.1417 1.0023,-0.9119 0.3341,0.2298 0.6682,-1.0559 1.0024,-0.8301 0.3341,0.2258 0.6682,-0.9666 1.0023,-0.745 0.3341,0.2216 0.6683,-0.874 1.0024,-0.6569 0.3341,0.2172 0.6682,-0.7787 1.0023,-0.5661 0.3341,0.2125 0.6683,-0.6809 1.0024,-0.4732 0.3341,0.2076 0.6682,-0.581 1.0023,-0.3784 0.3342,0.2027 0.6683,-0.4793 1.0024,-0.2819 0.3341,0.1973 0.6682,-0.3764 1.0024,-0.1845 0.3341,0.1919 0.6682,-0.2725 1.0023,-0.0862 0.3341,0.1862 0.6682,-0.1681 1.0024,0.0123 0.3341,0.1804 0.6682,-0.0635 1.0023,0.1108 0.3341,0.1744 0.6683,0.0408 1.0024,0.209 0.3341,0.1682 0.6682,0.1443 1.0023,0.3061 0.3341,0.1619 0.6683,0.2469 1.0024,0.4022 0.3341,0.1554 0.6682,0.348 1.0023,0.4967 0.3342,0.1486 0.6683,0.4472 1.0024,0.589 0.3341,0.1419 0.6682,0.5443 1.0023,0.6792 0.3342,0.1349 0.6683,0.6388 1.0024,0.7666 0.3341,0.1277 0.6682,0.7303 1.0024,0.8508 0.3341,0.1206 0.6682,0.8187 1.0023,0.9319 0.3341,0.1132 0.6683,0.9033 1.0024,1.009 0.3341,0.1058 0.6682,0.9841 1.0023,1.0823 0.3341,0.0982 0.6683,1.0606 1.0024,1.1511 0.3341,0.0905 0.6682,1.1327 1.0023,1.2155 0.3342,0.0827 0.6683,1.1999 1.0024,1.2749 0.3341,0.0749 0.6682,1.2622 1.0023,1.3292 0.3342,0.0671 0.6683,1.3193 1.0024,1.3784 0.3341,0.059 0.6682,1.3709 1.0024,1.4219 0.3341,0.051 0.6682,1.4169 1.0023,1.4598 0.3341,0.043 0.6683,1.4571 1.0024,1.492 0.3341,0.0348 0.6682,1.4914 1.0023,1.518 0.3341,0.0267 0.6683,1.5197 1.0024,1.5382 0.3341,0.0185 0.6682,1.5419 1.0023,1.5521 0.3342,0.0103 0.6683,1.5579 1.0024,1.5599 0.3341,0.0021 0.6682,1.5677 1.0023,1.5615 0.3342,-0.0062 0.6683,1.5712 1.0024,1.5568 0.3341,-0.0144 0.6682,1.5685 1.0024,1.5459 0.3341,-0.0226 0.6682,1.5596 1.0023,1.5289 0.3341,-0.0308 0.6683,1.5446 1.0024,1.5058 0.3341,-0.0389 0.6682,1.5236 1.0023,1.4766 0.3341,-0.047 0.6683,1.4966 1.0024,1.4416 0.3341,-0.0551 0.6682,1.4639 1.0023,1.4008 0.3342,-0.0631 0.6683,1.4255 1.0024,1.3545 0.3341,-0.071 0.6682,1.3816 1.0023,1.3027 0.3342,-0.0789 0.6683,1.3325 1.0024,1.2458 0.3341,-0.0867 0.6682,1.2783 1.0024,1.1839 0.3341,-0.0944 0.6682,1.2192 1.0023,1.1173 0.3341,-0.102 0.6682,1.1556 1.0024,1.0461 0.3341,-0.1095 0.6682,1.0878 1.0023,0.9709 0.3341,-0.1169 0.6683,1.016 1.0024,0.8918 0.3341,-0.1241 0.6682,0.9405 1.0023,0.8092 0.3342,-0.1314 0.6683,0.8616 1.0024,0.7232 0.3341,-0.1384 0.6682,0.7797 1.0023,0.6344 0.3342,-0.1453 0.6683,0.6951 1.0024,0.5431 0.3341,-0.152 0.6682,0.6083 1.0024,0.4497 0.3341,-0.1586 0.6682,0.5194 1.0023,0.3543 0.3341,-0.165 0.6682,0.429 1.0024,0.2577 0.3341,-0.1713 0.6682,0.3374 1.0023,0.16 0.3341,-0.1774 0.6683,0.2449 1.0024,0.0616 0.3341,-0.1833 0.6682,0.1521 1.0023,-0.037 0.3342,-0.1891 0.6683,0.0592 1.0024,-0.1354 0.3341,-0.1946 0.6682,-0.0333 1.0023,-0.2333 0.3342,-0.2 0.6683,-0.1252 1.0024,-0.3303 0.3341,-0.2052 0.6682,-0.2159 1.0024,-0.426 0.3341,-0.2101 0.6682,-0.3051 1.0023,-0.52 0.3341,-0.2148 0.6682,-0.3924 1.0024,-0.6118 0.3341,-0.2194 0.6682,-0.4775 1.0023,-0.7013 0.3341,-0.2237 0.6683,-0.5601 1.0024,-0.7879 0.3341,-0.2278 0.6682,-0.6398 1.0023,-0.8714 0.3342,-0.2317 0.6683,-0.7162 1.0024,-0.9515 0.3341,-0.2353 0.6682,-0.7891 1.0023,-1.0278 0.3342,-0.2387 0.6683,-0.858 1.0024,-1.0999 0.3341,-0.2418 0.6682,-0.9228 1.0024,-1.1676 0.3341,-0.2448 0.6682,-0.9833 1.0023,-1.2308 0.3341,-0.2474 0.6682,-1.0391 1.0024,-1.289 0.3341,-0.2498 0.6682,-1.09 1.0023,-1.342 0.3341,-0.2521 0.6683,-1.1358 1.0024,-1.3898 0.3341,-0.254 0.6682,-1.1763 1.0023,-1.4319 0.3341,-0.2557 0.6683,-1.2113 1.0024,-1.4684 0.3341,-0.2571 0.6682,-1.2408 1.0023,-1.4991 0.3342,-0.2582 0.6683,-1.2645 1.0024,-1.5236 0.3341,-0.2592 0.6682,-1.2825 1.0024,-1.5423 0.3341,-0.2598 0.6682,-1.2944 1.0023,-1.5546 0.3341,-0.2602 0.6682,-1.3006 1.0024,-1.5609"
       title="sin( 2*x )"
       id="path35"
       inkscape:label="path_template" />
  </g>
  <g
     inkscape:groupmode="layer"
     id="layer3"
     inkscape:label="data_paths_3"
     style="display:none"
     sodipodi:insensitive="true">
    <path
       style="display:none;fill:none;fill-rule:evenodd;stroke:#ff0000;stroke-width:0.376042;stroke-linecap:square"
       d="M 0.188021,50 C 0.354895,49.7389 0.52177,49.4777 0.688644,49.2167 0.855518,48.9557 1.02239,48.6948 1.18927,48.4342 1.35614,48.1736 1.52302,47.9133 1.68989,47.6533 1.85676,47.3933 2.02364,47.1337 2.19051,46.8747 2.35739,46.6156 2.52426,46.3571 2.69114,46.0992 2.85801,45.8413 3.02488,45.5841 3.19176,45.3276 3.35863,45.0712 3.52551,44.8155 3.69238,44.5607 3.85926,44.3059 4.02613,44.052 4.193,43.7992 4.35988,43.5463 4.52675,43.2945 4.69363,43.0438 4.8605,42.7932 5.02738,42.5437 5.19425,42.2954 5.36112,42.0472 5.528,41.8003 5.69487,41.5547 5.86175,41.3092 6.02862,41.065 6.1955,40.8224 6.36237,40.5798 6.52924,40.3387 6.69612,40.0993 6.86299,39.8598 7.02987,39.622 7.19674,39.386 7.36362,39.1499 7.53049,38.9157 7.69736,38.6833 7.86424,38.4509 8.03111,38.2204 8.19799,37.9919 8.36486,37.7633 8.53174,37.5368 8.69861,37.3124 8.86548,37.088 9.03236,36.8657 9.19923,36.6456 c 0.16688,-0.2201 0.33375,-0.438 0.50063,-0.6535 0.16687,-0.2155 0.33374,-0.4287 0.50064,-0.6395 0.1669,-0.2108 0.3337,-0.4191 0.5006,-0.6249 0.1669,-0.2059 0.3338,-0.4091 0.5006,-0.6098 0.1669,-0.2006 0.3338,-0.3986 0.5006,-0.5938 0.1669,-0.1953 0.3338,-0.3878 0.5007,-0.5775 0.1668,-0.1897 0.3337,-0.3765 0.5006,-0.5604 0.1669,-0.1839 0.3337,-0.3649 0.5006,-0.5429 0.1669,-0.178 0.3338,-0.353 0.5006,-0.5248 0.1669,-0.1719 0.3338,-0.3406 0.5007,-0.5062 0.1668,-0.1655 0.3337,-0.3279 0.5006,-0.487 0.1669,-0.1591 0.3337,-0.315 0.5006,-0.4675 0.1669,-0.1524 0.3338,-0.3016 0.5006,-0.4473 0.1669,-0.1457 0.3338,-0.288 0.5007,-0.4268 0.1668,-0.1388 0.3337,-0.2742 0.5006,-0.4059 0.1669,-0.1318 0.3337,-0.26 0.5006,-0.3845 0.1669,-0.1246 0.3337,-0.2456 0.5006,-0.3628 0.1669,-0.1173 0.3338,-0.2309 0.5006,-0.3407 0.1669,-0.1099 0.3338,-0.216 0.5007,-0.3183 0.1668,-0.1023 0.3337,-0.2008 0.5006,-0.2955 0.1669,-0.0946 0.3337,-0.1855 0.5006,-0.2724 0.1669,-0.087 0.3338,-0.17 0.5006,-0.2491 0.1669,-0.0792 0.3338,-0.1544 0.5007,-0.2256 0.1668,-0.0712 0.3337,-0.1385 0.5006,-0.2017 0.1669,-0.0633 0.3337,-0.1226 0.5006,-0.1778 0.1669,-0.0552 0.3338,-0.1064 0.5006,-0.1536 0.1669,-0.0471 0.3338,-0.0902 0.5007,-0.1293 0.1668,-0.039 0.3337,-0.0739 0.5006,-0.1048 0.1668,-0.0308 0.3337,-0.0576 0.5006,-0.0802 0.1669,-0.0227 0.3337,-0.0412 0.5006,-0.0556 0.1669,-0.0144 0.3338,-0.0247 0.5006,-0.0309 0.1669,-0.0062 0.3338,-0.0083 0.5007,-0.0062 0.1668,0.0021 0.3337,0.0082 0.5006,0.0185 0.1669,0.0103 0.3337,0.0248 0.5006,0.0433 0.1669,0.0185 0.3338,0.0412 0.5006,0.0679 0.1669,0.0268 0.3338,0.0576 0.5007,0.0926 0.1668,0.0349 0.3337,0.0739 0.5006,0.117 0.1669,0.0431 0.3337,0.0903 0.5006,0.1415 0.1669,0.0512 0.3338,0.1064 0.5006,0.1657 0.1669,0.0592 0.3338,0.1225 0.5006,0.1897 0.1669,0.0673 0.3338,0.1385 0.5007,0.2137 0.1668,0.0752 0.3337,0.1543 0.5006,0.2374 0.1669,0.083 0.3337,0.17 0.5006,0.2608 0.1669,0.0908 0.3338,0.1855 0.5006,0.284 0.1669,0.0985 0.3338,0.2008 0.5007,0.3069 0.1668,0.1061 0.3337,0.216 0.5006,0.3295 0.1669,0.1136 0.3337,0.2309 0.5006,0.3518 0.1669,0.121 0.3338,0.2455 0.5006,0.3737 0.1669,0.1282 0.3338,0.26 0.5007,0.3953 0.1668,0.1353 0.3337,0.2741 0.5006,0.4164 0.1669,0.1423 0.3337,0.288 0.5006,0.4371 0.1669,0.1492 0.3337,0.3017 0.5006,0.4575 0.1669,0.1558 0.3338,0.3149 0.5006,0.4773 0.1669,0.1623 0.3338,0.3279 0.5007,0.4966 0.1668,0.1688 0.3337,0.3407 0.5006,0.5156 0.1669,0.1749 0.3337,0.3529 0.5006,0.5339 0.1669,0.181 0.3338,0.3649 0.5006,0.5517 0.1669,0.1869 0.3338,0.3766 0.5007,0.5691 0.1668,0.1925 0.3337,0.3877 0.5006,0.5857 0.1669,0.198 0.3337,0.3986 0.5006,0.6019 0.1669,0.2032 0.3338,0.409 0.5006,0.6174 0.1669,0.2083 0.3338,0.4191 0.5007,0.6323 0.1668,0.2131 0.3337,0.4287 0.5006,0.6466 0.1668,0.2178 0.3337,0.4379 0.5006,0.6602 0.1669,0.2223 0.3337,0.4467 0.5006,0.6732 0.1669,0.2265 0.3338,0.455 0.5006,0.6855 0.1669,0.2305 0.3338,0.4629 0.5007,0.6972 0.1668,0.2342 0.3337,0.4703 0.5006,0.708 0.1669,0.2378 0.3337,0.4773 0.5006,0.7184 0.1669,0.241 0.3338,0.4837 0.5006,0.7278 0.1669,0.2441 0.3338,0.4897 0.5007,0.7366 0.1668,0.2469 0.3337,0.4951 0.5006,0.7446 0.1669,0.2495 0.3337,0.5002 0.5006,0.752 0.1669,0.2518 0.3338,0.5047 0.5006,0.7585 0.1669,0.2538 0.3338,0.5087 0.5006,0.7643 0.1669,0.2557 0.3338,0.5122 0.5007,0.7694 0.1668,0.2572 0.3337,0.5151 0.5006,0.7736 0.1669,0.2585 0.3337,0.5176 0.5006,0.7772 0.1669,0.2595 0.3338,0.5195 0.5006,0.7798 0.1669,0.2603 0.3338,0.521 0.5007,0.7818 0.1668,0.2609 0.3337,0.5219 0.5006,0.783 0.1669,0.2611 0.3337,0.5223 0.5006,0.7834 0.1669,0.2611 0.3338,0.5221 0.5006,0.783 0.1669,0.2608 0.3338,0.5215 0.5007,0.7818 0.1668,0.2603 0.3337,0.5203 0.5006,0.7799 0.1669,0.2595 0.3337,0.5186 0.5006,0.7771 0.1669,0.2585 0.3338,0.5164 0.5006,0.7736 0.1669,0.2572 0.3338,0.5137 0.5006,0.7694 0.1669,0.2556 0.3338,0.5105 0.5007,0.7643 0.1668,0.2539 0.3337,0.5067 0.5006,0.7585 0.1669,0.2518 0.3337,0.5025 0.5006,0.752 0.1669,0.2495 0.3338,0.4977 0.5006,0.7446 0.1669,0.247 0.3338,0.4925 0.5007,0.7366 0.1668,0.2441 0.3337,0.4868 0.5006,0.7279 0.1669,0.241 0.3337,0.4805 0.5006,0.7183 0.1669,0.2377 0.3338,0.4738 0.5006,0.708 0.1669,0.2343 0.3338,0.4667 0.5007,0.6972 0.1668,0.2305 0.3337,0.459 0.5006,0.6855 0.1669,0.2265 0.3337,0.4509 0.5006,0.6732 0.1669,0.2223 0.3337,0.4424 0.5006,0.6603 0.1669,0.2178 0.3338,0.4334 0.5006,0.6465 0.1669,0.2132 0.3338,0.424 0.5007,0.6324 0.1668,0.2083 0.3337,0.4141 0.5006,0.6173 0.1669,0.2033 0.3337,0.4039 0.5006,0.6019 0.1669,0.198 0.3338,0.3933 0.5006,0.5857 0.1669,0.1925 0.3338,0.3822 0.5007,0.5691 0.1668,0.1868 0.3337,0.3707 0.5006,0.5517 0.1669,0.181 0.3337,0.359 0.5006,0.5339 0.1669,0.175 0.3338,0.3468 0.5006,0.5156 0.1669,0.1687 0.3338,0.3343 0.5007,0.4966 0.1668,0.1624 0.3337,0.3215 0.5006,0.4773 0.1668,0.1558 0.3337,0.3084 0.5006,0.4575 0.1669,0.1491 0.3337,0.2948 0.5006,0.4371 0.1669,0.1423 0.3338,0.2811 0.5006,0.4164 0.1669,0.1353 0.3338,0.2671 0.5007,0.3953 0.1668,0.1282 0.3337,0.2528 0.5006,0.3737 0.1669,0.1209 0.3337,0.2382 0.5006,0.3518 0.1669,0.1135 0.3338,0.2234 0.5006,0.3295 0.1669,0.1061 0.3338,0.2084 0.5007,0.3069 0.1668,0.0985 0.3337,0.1932 0.5006,0.284 0.1669,0.0908 0.3337,0.1778 0.5006,0.2608 0.1669,0.0831 0.3338,0.1622 0.5006,0.2374 0.1669,0.0752 0.3338,0.1464 0.5006,0.2137 0.1669,0.0672 0.3338,0.1305 0.5007,0.1897 0.1668,0.0593 0.3337,0.1145 0.5006,0.1657 0.1669,0.0512 0.3337,0.0984 0.5006,0.1415 0.1669,0.0431 0.3338,0.0821 0.5006,0.117 0.1669,0.035 0.3338,0.0658 0.5007,0.0926 0.1668,0.0267 0.3337,0.0494 0.5006,0.0679 0.1669,0.0185 0.3337,0.033 0.5006,0.0433 0.1669,0.0103 0.3338,0.0164 0.5006,0.0185 0.1669,0.0021 0.3338,0 0.5007,-0.0062 0.1668,-0.0062 0.3337,-0.0165 0.5006,-0.0309 0.1669,-0.0144 0.3337,-0.0329 0.5006,-0.0556 0.1669,-0.0226 0.3337,-0.0494 0.5006,-0.0802 0.1669,-0.0309 0.3338,-0.0658 0.5006,-0.1048 0.1669,-0.0391 0.3338,-0.0822 0.5007,-0.1293 0.1668,-0.0471 0.3337,-0.0984 0.5006,-0.1536 0.1669,-0.0552 0.3337,-0.1145 0.5006,-0.1777 0.1669,-0.0633 0.3338,-0.1306 0.5006,-0.2018 0.1669,-0.0712 0.3338,-0.1464 0.5007,-0.2256 0.1668,-0.0791 0.3337,-0.1621 0.5006,-0.2491 0.1669,-0.0869 0.3337,-0.1778 0.5006,-0.2724 0.1669,-0.0947 0.3338,-0.1932 0.5006,-0.2955 0.1669,-0.1023 0.3338,-0.2084 0.5007,-0.3183 0.1668,-0.1098 0.3337,-0.2234 0.5006,-0.3407 0.1668,-0.1172 0.3337,-0.2382 0.5006,-0.3627 0.1669,-0.1246 0.3337,-0.2528 0.5006,-0.3846 0.1669,-0.1317 0.3338,-0.267 0.5006,-0.4059 0.1669,-0.1388 0.3338,-0.2811 0.5007,-0.4268 0.1668,-0.1457 0.3337,-0.2948 0.5006,-0.4473 0.1669,-0.1525 0.3337,-0.3084 0.5006,-0.4675 0.1669,-0.1591 0.3338,-0.3215 0.5006,-0.487 0.1669,-0.1656 0.3338,-0.3343 0.5007,-0.5062 0.1668,-0.1718 0.3337,-0.3468 0.5006,-0.5248 0.1669,-0.178 0.3337,-0.359 0.5006,-0.5429 0.1669,-0.1839 0.3338,-0.3707 0.5006,-0.5604 0.1669,-0.1897 0.3338,-0.3822 0.5006,-0.5775 0.1669,-0.1952 0.3338,-0.3932 0.5007,-0.5938 0.1668,-0.2007 0.3337,-0.4039 0.5006,-0.6097 0.1669,-0.2059 0.3337,-0.4142 0.5006,-0.625 0.1669,-0.2108 0.3338,-0.424 0.5006,-0.6395 0.1669,-0.2155 0.3338,-0.4334 0.5007,-0.6535 0.1668,-0.2201 0.3337,-0.4424 0.5006,-0.6668 0.1669,-0.2244 0.3337,-0.4509 0.5006,-0.6795 0.1669,-0.2285 0.3338,-0.459 0.5006,-0.6914 0.1669,-0.2324 0.3338,-0.4666 0.5007,-0.7027 0.1668,-0.236 0.3337,-0.4738 0.5006,-0.7133 0.1669,-0.2394 0.3337,-0.4805 0.5006,-0.7231 0.1669,-0.2426 0.3338,-0.4868 0.5006,-0.7323 0.1669,-0.2456 0.3338,-0.4925 0.5006,-0.7407 0.1669,-0.2483 0.3338,-0.4978 0.5007,-0.7484 0.1668,-0.2507 0.3337,-0.5025 0.5006,-0.7554 0.1669,-0.2528 0.3337,-0.5067 0.5006,-0.7615 0.1669,-0.2548 0.3338,-0.5104 0.5006,-0.7669 0.1669,-0.2565 0.3338,-0.5137 0.5007,-0.7716 0.1668,-0.2579 0.3337,-0.5164 0.5006,-0.7755 0.1669,-0.259 0.3337,-0.5186 0.5006,-0.7786 0.1669,-0.26 0.3338,-0.5203 0.5006,-0.7809 0.1669,-0.2606 0.3338,-0.5215 0.5007,-0.7825 0.1668,-0.261 0.3337,-0.5222 0.5006,-0.7833"
       title="sin(x)"
       id="path2"
       inkscape:label="sin" />
    <path
       style="display:none;fill:none;fill-rule:evenodd;stroke:#00ff00;stroke-width:0.376042;stroke-linecap:square"
       d="m 0.188021,74.810441 c 0.166874,0.2611 0.333749,-0.2734 0.500623,-0.0124 0.166874,0.261 0.333746,-0.2977 0.500626,-0.0371 0.16687,0.2606 0.33375,-0.3217 0.50062,-0.0617 0.16687,0.2599 0.33375,-0.3455 0.50062,-0.0864 0.16688,0.259 0.33375,-0.3689 0.50063,-0.111 0.16687,0.2579 0.33374,-0.3918 0.50062,-0.1353 0.16687,0.2564 0.33375,-0.4145 0.50062,-0.1597 0.16688,0.2548 0.33375,-0.4366 0.50062,-0.1837 0.16688,0.2528 0.33375,-0.4584 0.50063,-0.2078 0.16687,0.2507 0.33375,-0.4797 0.50062,-0.2314 0.16687,0.2482 0.33375,-0.5006 0.50062,-0.255 0.16688,0.2455 0.33375,-0.5209 0.50063,-0.2783 0.16687,0.2427 0.33374,-0.5406 0.50062,-0.3012 0.16687,0.2395 0.33375,-0.5599 0.50062,-0.3239 0.16688,0.2361 0.33375,-0.5786 0.50062,-0.3462 0.16688,0.2324 0.33375,-0.5968 0.50063,-0.3683 0.16687,0.2286 0.33375,-0.6143 0.50062,-0.3899 0.16687,0.2245 0.33375,-0.6312 0.50062,-0.4111 0.16688,0.2201 0.33375,-0.6476 0.50063,-0.432 0.16687,0.2155 0.33374,-0.6632 0.50064,-0.4524 0.1669,0.2107 0.3337,-0.6782 0.5006,-0.4724 0.1669,0.2058 0.3338,-0.6925 0.5006,-0.4919 0.1669,0.2006 0.3338,-0.7061 0.5006,-0.5109 0.1669,0.1953 0.3338,-0.719 0.5007,-0.5293 0.1668,0.1897 0.3337,-0.7313 0.5006,-0.5474 0.1669,0.184 0.3337,-0.7427 0.5006,-0.5647 0.1669,0.178 0.3338,-0.7535 0.5006,-0.5816 0.1669,0.1718 0.3338,-0.7635 0.5007,-0.5979 0.1668,0.1655 0.3337,-0.7727 0.5006,-0.6136 0.1669,0.1591 0.3337,-0.7811 0.5006,-0.6286 0.1669,0.1525 0.3338,-0.7888 0.5006,-0.6431 0.1669,0.1457 0.3338,-0.7957 0.5007,-0.6569 0.1668,0.1388 0.3337,-0.8018 0.5006,-0.67 0.1669,0.1317 0.3337,-0.8071 0.5006,-0.6825 0.1669,0.1246 0.3337,-0.8116 0.5006,-0.6943 0.1669,0.1172 0.3338,-0.8153 0.5006,-0.7054 0.1669,0.1098 0.3338,-0.8182 0.5007,-0.7159 0.1668,0.1024 0.3337,-0.8201 0.5006,-0.7255 0.1669,0.0947 0.3337,-0.8214 0.5006,-0.7344 0.1669,0.0869 0.3338,-0.8219 0.5006,-0.7427 0.1669,0.0791 0.3338,-0.8215 0.5007,-0.7502 0.1668,0.0712 0.3337,-0.8203 0.5006,-0.757 0.1669,0.0633 0.3337,-0.8182 0.5006,-0.7629 0.1669,0.0552 0.3338,-0.8154 0.5006,-0.7682 0.1669,0.0471 0.3338,-0.8117 0.5007,-0.7726 0.1668,0.039 0.3337,-0.8072 0.5006,-0.7764 0.1668,0.0309 0.3337,-0.8019 0.5006,-0.7792 0.1669,0.0226 0.3337,-0.7959 0.5006,-0.7814 0.1669,0.0144 0.3338,-0.789 0.5006,-0.7828 0.1669,0.0062 0.3338,-0.7813 0.5007,-0.7834 0.1668,-0.002 0.3337,-0.7728 0.5006,-0.7831 0.1669,-0.0103 0.3337,-0.7637 0.5006,-0.7822 0.1669,-0.0185 0.3338,-0.7537 0.5006,-0.7804 0.1669,-0.0268 0.3338,-0.743 0.5007,-0.7779 0.1668,-0.0349 0.3337,-0.7315 0.5006,-0.7746 0.1669,-0.0431 0.3337,-0.7193 0.5006,-0.7705 0.1669,-0.0512 0.3338,-0.7064 0.5006,-0.7656 0.1669,-0.0593 0.3338,-0.6928 0.5006,-0.7601 0.1669,-0.0672 0.3338,-0.6785 0.5007,-0.7536 0.1668,-0.0752 0.3337,-0.6636 0.5006,-0.7466 0.1669,-0.083 0.3337,-0.6479 0.5006,-0.7387 0.1669,-0.0908 0.3338,-0.6316 0.5006,-0.7301 0.1669,-0.0985 0.3338,-0.6146 0.5007,-0.7207 0.1668,-0.1061 0.3337,-0.5972 0.5006,-0.7107 0.1669,-0.1136 0.3337,-0.579 0.5006,-0.7 0.1669,-0.1209 0.3338,-0.5603 0.5006,-0.6885 0.1669,-0.1281 0.3338,-0.541 0.5007,-0.6763 0.1668,-0.1353 0.3337,-0.5213 0.5006,-0.6635 0.1669,-0.1423 0.3337,-0.501 0.5006,-0.6501 0.1669,-0.1491 0.3337,-0.4801 0.5006,-0.6359 0.1669,-0.1559 0.3338,-0.4589 0.5006,-0.6212 0.1669,-0.1624 0.3338,-0.4371 0.5007,-0.6058 0.1668,-0.1688 0.3337,-0.4149 0.5006,-0.5899 0.1669,-0.1749 0.3337,-0.3922 0.5006,-0.5732 0.1669,-0.181 0.3338,-0.3693 0.5006,-0.5561 0.1669,-0.1868 0.3338,-0.3459 0.5007,-0.5384 0.1668,-0.1925 0.3337,-0.3223 0.5006,-0.5202 0.1669,-0.198 0.3337,-0.2982 0.5006,-0.5015 0.1669,-0.2032 0.3338,-0.2738 0.5006,-0.4821 0.1669,-0.2084 0.3338,-0.2493 0.5007,-0.4625 0.1668,-0.2132 0.3337,-0.2244 0.5006,-0.4423 0.1668,-0.2178 0.3337,-0.1993 0.5006,-0.4216 0.1669,-0.2223 0.3337,-0.1741 0.5006,-0.4006 0.1669,-0.2265 0.3338,-0.1486 0.5006,-0.3791 0.1669,-0.2305 0.3338,-0.1231 0.5007,-0.3573 0.1668,-0.2342 0.3337,-0.0973 0.5006,-0.3351 0.1669,-0.2378 0.3337,-0.0715 0.5006,-0.3126 0.1669,-0.2411 0.3338,-0.0456 0.5006,-0.2898 0.1669,-0.2441 0.3338,-0.0197 0.5007,-0.2666 0.1668,-0.2469 0.3337,0.0062 0.5006,-0.2433 0.1669,-0.2494 0.3337,0.0322 0.5006,-0.2196 0.1669,-0.2518 0.3338,0.0581 0.5006,-0.1958 0.1669,-0.2538 0.3338,0.084 0.5006,-0.1717 0.1669,-0.2556 0.3338,0.1097 0.5007,-0.1475 0.1668,-0.2572 0.3337,0.1353 0.5006,-0.1232 0.1669,-0.2585 0.3337,0.1609 0.5006,-0.0986 0.1669,-0.2596 0.3338,0.1862 0.5006,-0.0741 0.1669,-0.2603 0.3338,0.2114 0.5007,-0.0495 0.1668,-0.2608 0.3337,0.2364 0.5006,-0.0247 0.1669,-0.2611 0.3337,0.2611 0.5006,0 0.1669,-0.2611 0.3338,0.2856 0.5006,0.0247 0.1669,-0.2608 0.3338,0.3098 0.5007,0.0495 0.1668,-0.2603 0.3337,0.3336 0.5006,0.0741 0.1669,-0.2596 0.3337,0.3571 0.5006,0.0986 0.1669,-0.2585 0.3338,0.3804 0.5006,0.1232 0.1669,-0.2572 0.3338,0.4032 0.5006,0.1475 0.1669,-0.2556 0.3338,0.4256 0.5007,0.1717 0.1668,-0.2538 0.3337,0.4476 0.5006,0.1958 0.1669,-0.2518 0.3337,0.4691 0.5006,0.2196 0.1669,-0.2494 0.3338,0.4902 0.5006,0.2433 0.1669,-0.2469 0.3338,0.5108 0.5007,0.2666 0.1668,-0.2441 0.3337,0.5309 0.5006,0.2898 0.1669,-0.2411 0.3337,0.5504 0.5006,0.3126 0.1669,-0.2378 0.3338,0.5693 0.5006,0.3351 0.1669,-0.2342 0.3338,0.5878 0.5007,0.3573 0.1668,-0.2305 0.3337,0.6056 0.5006,0.3791 0.1669,-0.2265 0.3337,0.6229 0.5006,0.4006 0.1669,-0.2223 0.3337,0.6395 0.5006,0.4216 0.1669,-0.2178 0.3338,0.6555 0.5006,0.4423 0.1669,-0.2132 0.3338,0.6708 0.5007,0.4625 0.1668,-0.2084 0.3337,0.6854 0.5006,0.4821 0.1669,-0.2032 0.3337,0.6994 0.5006,0.5015 0.1669,-0.198 0.3338,0.7127 0.5006,0.5202 0.1669,-0.1925 0.3338,0.7252 0.5007,0.5384 0.1668,-0.1868 0.3337,0.7371 0.5006,0.5561 0.1669,-0.181 0.3337,0.7482 0.5006,0.5732 0.1669,-0.1749 0.3338,0.7586 0.5006,0.5899 0.1669,-0.1688 0.3338,0.7681 0.5007,0.6058 0.1668,-0.1624 0.3337,0.777 0.5006,0.6212 0.1668,-0.1559 0.3337,0.785 0.5006,0.6359 0.1669,-0.1491 0.3337,0.7923 0.5006,0.6501 0.1669,-0.1423 0.3338,0.7988 0.5006,0.6635 0.1669,-0.1353 0.3338,0.8045 0.5007,0.6763 0.1668,-0.1281 0.3337,0.8095 0.5006,0.6885 0.1669,-0.1209 0.3337,0.8135 0.5006,0.7 0.1669,-0.1136 0.3338,0.8168 0.5006,0.7107 0.1669,-0.1061 0.3338,0.8192 0.5007,0.7207 0.1668,-0.0985 0.3337,0.8209 0.5006,0.7301 0.1669,-0.0908 0.3337,0.8217 0.5006,0.7387 0.1669,-0.083 0.3338,0.8217 0.5006,0.7466 0.1669,-0.0752 0.3338,0.8209 0.5006,0.7536 0.1669,-0.0672 0.3338,0.8193 0.5007,0.7601 0.1668,-0.0593 0.3337,0.8168 0.5006,0.7656 0.1669,-0.0512 0.3337,0.8136 0.5006,0.7705 0.1669,-0.0431 0.3338,0.8095 0.5006,0.7746 0.1669,-0.0349 0.3338,0.8046 0.5007,0.7779 0.1668,-0.0268 0.3337,0.7989 0.5006,0.7804 0.1669,-0.0185 0.3337,0.7925 0.5006,0.7822 0.1669,-0.0103 0.3338,0.7852 0.5006,0.7831 0.1669,-0.002 0.3338,0.7772 0.5007,0.7834 0.1668,0.0062 0.3337,0.7683 0.5006,0.7828 0.1669,0.0144 0.3337,0.7587 0.5006,0.7814 0.1669,0.0226 0.3337,0.7484 0.5006,0.7792 0.1669,0.0309 0.3338,0.7373 0.5006,0.7764 0.1669,0.039 0.3338,0.7254 0.5007,0.7726 0.1668,0.0471 0.3337,0.7129 0.5006,0.7682 0.1669,0.0552 0.3337,0.6996 0.5006,0.7629 0.1669,0.0633 0.3338,0.6857 0.5006,0.757 0.1669,0.0712 0.3338,0.671 0.5007,0.7502 0.1668,0.0791 0.3337,0.6557 0.5006,0.7427 0.1669,0.0869 0.3337,0.6398 0.5006,0.7344 0.1669,0.0947 0.3338,0.6232 0.5006,0.7255 0.1669,0.1024 0.3338,0.606 0.5007,0.7159 0.1668,0.1098 0.3337,0.5881 0.5006,0.7054 0.1668,0.1172 0.3337,0.5697 0.5006,0.6943 0.1669,0.1246 0.3337,0.5507 0.5006,0.6825 0.1669,0.1317 0.3338,0.5312 0.5006,0.67 0.1669,0.1388 0.3338,0.5112 0.5007,0.6569 0.1668,0.1457 0.3337,0.4906 0.5006,0.6431 0.1669,0.1525 0.3337,0.4695 0.5006,0.6286 0.1669,0.1591 0.3338,0.448 0.5006,0.6136 0.1669,0.1655 0.3338,0.426 0.5007,0.5979 0.1668,0.1718 0.3337,0.4036 0.5006,0.5816 0.1669,0.178 0.3337,0.3808 0.5006,0.5647 0.1669,0.184 0.3338,0.3577 0.5006,0.5474 0.1669,0.1897 0.3338,0.3341 0.5006,0.5293 0.1669,0.1953 0.3338,0.3103 0.5007,0.5109 0.1668,0.2006 0.3337,0.2861 0.5006,0.4919 0.1669,0.2058 0.3337,0.2616 0.5006,0.4724 0.1669,0.2107 0.3338,0.2368 0.5006,0.4524 0.1669,0.2155 0.3338,0.2119 0.5007,0.432 0.1668,0.2201 0.3337,0.1867 0.5006,0.4111 0.1669,0.2245 0.3337,0.1614 0.5006,0.3899 0.1669,0.2286 0.3338,0.1359 0.5006,0.3683 0.1669,0.2324 0.3338,0.1102 0.5007,0.3462 0.1668,0.2361 0.3337,0.0845 0.5006,0.3239 0.1669,0.2395 0.3337,0.0586 0.5006,0.3012 0.1669,0.2427 0.3338,0.0327 0.5006,0.2783 0.1669,0.2455 0.3338,0.0067 0.5006,0.255 0.1669,0.2482 0.3338,-0.0192 0.5007,0.2314 0.1668,0.2507 0.3337,-0.0451 0.5006,0.2078 0.1669,0.2528 0.3337,-0.0711 0.5006,0.1837 0.1669,0.2548 0.3338,-0.0968 0.5006,0.1597 0.1669,0.2564 0.3338,-0.1226 0.5007,0.1353 0.1668,0.2579 0.3337,-0.1481 0.5006,0.111 0.1669,0.259 0.3337,-0.1736 0.5006,0.0864 0.1669,0.2599 0.3338,-0.1989 0.5006,0.0617 0.1669,0.2606 0.3338,-0.2239 0.5007,0.0371 0.1668,0.261 0.3337,-0.2488 0.5006,0.0124"
       title="cos(x)"
       id="path5"
       inkscape:label="cos_anti" />
    <path
       style="display:none;fill:none;fill-rule:evenodd;stroke:#00ff00;stroke-width:0.376042;stroke-linecap:square"
       d="m 0.188021,50 c 0.166874,0.2611 0.333749,0.5223 0.500623,0.7833 0.166874,0.261 0.333746,0.5219 0.500626,0.7825 0.16687,0.2606 0.33375,0.5209 0.50062,0.7809 0.16687,0.26 0.33375,0.5196 0.50062,0.7786 0.16688,0.2591 0.33375,0.5176 0.50063,0.7755 0.16687,0.2579 0.33374,0.5151 0.50062,0.7716 0.16687,0.2564 0.33375,0.5121 0.50062,0.7669 0.16688,0.2548 0.33375,0.5087 0.50062,0.7615 0.16688,0.2529 0.33375,0.5047 0.50063,0.7554 0.16687,0.2506 0.33375,0.5001 0.50062,0.7484 0.16687,0.2482 0.33375,0.4951 0.50062,0.7407 0.16688,0.2455 0.33375,0.4897 0.50063,0.7323 0.16687,0.2426 0.33374,0.4837 0.50062,0.7231 0.16687,0.2395 0.33375,0.4773 0.50062,0.7133 0.16688,0.2361 0.33375,0.4703 0.50062,0.7027 0.16688,0.2324 0.33375,0.4629 0.50063,0.6914 0.16687,0.2286 0.33375,0.4551 0.50062,0.6795 0.16687,0.2244 0.33375,0.4467 0.50062,0.6668 0.16688,0.2201 0.33375,0.438 0.50063,0.6535 0.16687,0.2155 0.33374,0.4287 0.50064,0.6395 0.1669,0.2108 0.3337,0.4191 0.5006,0.6249 0.1669,0.2059 0.3338,0.4091 0.5006,0.6098 0.1669,0.2006 0.3338,0.3986 0.5006,0.5938 0.1669,0.1953 0.3338,0.3878 0.5007,0.5775 0.1668,0.1897 0.3337,0.3765 0.5006,0.5604 0.1669,0.1839 0.3337,0.3649 0.5006,0.5429 0.1669,0.178 0.3338,0.353 0.5006,0.5248 0.1669,0.1719 0.3338,0.3406 0.5007,0.5062 0.1668,0.1655 0.3337,0.3279 0.5006,0.487 0.1669,0.1591 0.3337,0.315 0.5006,0.4675 0.1669,0.1524 0.3338,0.3016 0.5006,0.4473 0.1669,0.1457 0.3338,0.288 0.5007,0.4268 0.1668,0.1388 0.3337,0.2742 0.5006,0.4059 0.1669,0.1318 0.3337,0.26 0.5006,0.3845 0.1669,0.1246 0.3337,0.2456 0.5006,0.3628 0.1669,0.1173 0.3338,0.2309 0.5006,0.3407 0.1669,0.1099 0.3338,0.216 0.5007,0.3183 0.1668,0.1023 0.3337,0.2008 0.5006,0.2955 0.1669,0.0946 0.3337,0.1855 0.5006,0.2724 0.1669,0.087 0.3338,0.17 0.5006,0.2491 0.1669,0.0792 0.3338,0.1544 0.5007,0.2256 0.1668,0.0712 0.3337,0.1385 0.5006,0.2017 0.1669,0.0633 0.3337,0.1226 0.5006,0.1778 0.1669,0.0552 0.3338,0.1064 0.5006,0.1536 0.1669,0.0471 0.3338,0.0902 0.5007,0.1293 0.1668,0.039 0.3337,0.0739 0.5006,0.1048 0.1668,0.0308 0.3337,0.0576 0.5006,0.0802 0.1669,0.0227 0.3337,0.0412 0.5006,0.0556 0.1669,0.0144 0.3338,0.0247 0.5006,0.0309 0.1669,0.0062 0.3338,0.0083 0.5007,0.0062 0.1668,-0.0021 0.3337,-0.0082 0.5006,-0.0185 0.1669,-0.0103 0.3337,-0.0248 0.5006,-0.0433 0.1669,-0.0185 0.3338,-0.0412 0.5006,-0.0679 0.1669,-0.0268 0.3338,-0.0576 0.5007,-0.0926 0.1668,-0.0349 0.3337,-0.0739 0.5006,-0.117 0.1669,-0.0431 0.3337,-0.0903 0.5006,-0.1415 0.1669,-0.0512 0.3338,-0.1064 0.5006,-0.1657 0.1669,-0.0592 0.3338,-0.1225 0.5006,-0.1897 0.1669,-0.0673 0.3338,-0.1385 0.5007,-0.2137 0.1668,-0.0752 0.3337,-0.1543 0.5006,-0.2374 0.1669,-0.083 0.3337,-0.17 0.5006,-0.2608 0.1669,-0.0908 0.3338,-0.1855 0.5006,-0.284 0.1669,-0.0985 0.3338,-0.2008 0.5007,-0.3069 0.1668,-0.1061 0.3337,-0.216 0.5006,-0.3295 0.1669,-0.1136 0.3337,-0.2309 0.5006,-0.3518 0.1669,-0.121 0.3338,-0.2455 0.5006,-0.3737 0.1669,-0.1282 0.3338,-0.26 0.5007,-0.3953 0.1668,-0.1353 0.3337,-0.2741 0.5006,-0.4164 0.1669,-0.1423 0.3337,-0.288 0.5006,-0.4371 0.1669,-0.1492 0.3337,-0.3017 0.5006,-0.4575 0.1669,-0.1558 0.3338,-0.3149 0.5006,-0.4773 0.1669,-0.1623 0.3338,-0.3279 0.5007,-0.4966 0.1668,-0.1688 0.3337,-0.3407 0.5006,-0.5156 0.1669,-0.1749 0.3337,-0.3529 0.5006,-0.5339 0.1669,-0.181 0.3338,-0.3649 0.5006,-0.5517 0.1669,-0.1869 0.3338,-0.3766 0.5007,-0.5691 0.1668,-0.1925 0.3337,-0.3877 0.5006,-0.5857 0.1669,-0.198 0.3337,-0.3986 0.5006,-0.6019 0.1669,-0.2032 0.3338,-0.409 0.5006,-0.6174 0.1669,-0.2083 0.3338,-0.4191 0.5007,-0.6323 0.1668,-0.2131 0.3337,-0.4287 0.5006,-0.6466 0.1668,-0.2178 0.3337,-0.4379 0.5006,-0.6602 0.1669,-0.2223 0.3337,-0.4467 0.5006,-0.6732 0.1669,-0.2265 0.3338,-0.455 0.5006,-0.6855 0.1669,-0.2305 0.3338,-0.4629 0.5007,-0.6972 0.1668,-0.2342 0.3337,-0.4703 0.5006,-0.708 0.1669,-0.2378 0.3337,-0.4773 0.5006,-0.7184 0.1669,-0.241 0.3338,-0.4837 0.5006,-0.7278 0.1669,-0.2441 0.3338,-0.4897 0.5007,-0.7366 0.1668,-0.2469 0.3337,-0.4951 0.5006,-0.7446 0.1669,-0.2495 0.3337,-0.5002 0.5006,-0.752 0.1669,-0.2518 0.3338,-0.5047 0.5006,-0.7585 0.1669,-0.2538 0.3338,-0.5087 0.5006,-0.7643 0.1669,-0.2557 0.3338,-0.5122 0.5007,-0.7694 0.1668,-0.2572 0.3337,-0.5151 0.5006,-0.7736 0.1669,-0.2585 0.3337,-0.5176 0.5006,-0.7772 0.1669,-0.2595 0.3338,-0.5195 0.5006,-0.7798 0.1669,-0.2603 0.3338,-0.521 0.5007,-0.7818 0.1668,-0.2609 0.3337,-0.5219 0.5006,-0.783 0.1669,-0.2611 0.3337,-0.5223 0.5006,-0.7834 0.1669,-0.2611 0.3338,-0.5221 0.5006,-0.783 0.1669,-0.2608 0.3338,-0.5215 0.5007,-0.7818 0.1668,-0.2603 0.3337,-0.5203 0.5006,-0.7799 0.1669,-0.2595 0.3337,-0.5186 0.5006,-0.7771 0.1669,-0.2585 0.3338,-0.5164 0.5006,-0.7736 0.1669,-0.2572 0.3338,-0.5137 0.5006,-0.7694 0.1669,-0.2556 0.3338,-0.5105 0.5007,-0.7643 0.1668,-0.2539 0.3337,-0.5067 0.5006,-0.7585 0.1669,-0.2518 0.3337,-0.5025 0.5006,-0.752 0.1669,-0.2495 0.3338,-0.4977 0.5006,-0.7446 0.1669,-0.247 0.3338,-0.4925 0.5007,-0.7366 0.1668,-0.2441 0.3337,-0.4868 0.5006,-0.7279 0.1669,-0.241 0.3337,-0.4805 0.5006,-0.7183 0.1669,-0.2377 0.3338,-0.4738 0.5006,-0.708 0.1669,-0.2343 0.3338,-0.4667 0.5007,-0.6972 0.1668,-0.2305 0.3337,-0.459 0.5006,-0.6855 0.1669,-0.2265 0.3337,-0.4509 0.5006,-0.6732 0.1669,-0.2223 0.3337,-0.4424 0.5006,-0.6603 0.1669,-0.2178 0.3338,-0.4334 0.5006,-0.6465 0.1669,-0.2132 0.3338,-0.424 0.5007,-0.6324 0.1668,-0.2083 0.3337,-0.4141 0.5006,-0.6173 0.1669,-0.2033 0.3337,-0.4039 0.5006,-0.6019 0.1669,-0.198 0.3338,-0.3933 0.5006,-0.5857 0.1669,-0.1925 0.3338,-0.3822 0.5007,-0.5691 0.1668,-0.1868 0.3337,-0.3707 0.5006,-0.5517 0.1669,-0.181 0.3337,-0.359 0.5006,-0.5339 0.1669,-0.175 0.3338,-0.3468 0.5006,-0.5156 0.1669,-0.1687 0.3338,-0.3343 0.5007,-0.4966 0.1668,-0.1624 0.3337,-0.3215 0.5006,-0.4773 0.1668,-0.1558 0.3337,-0.3084 0.5006,-0.4575 0.1669,-0.1491 0.3337,-0.2948 0.5006,-0.4371 0.1669,-0.1423 0.3338,-0.2811 0.5006,-0.4164 0.1669,-0.1353 0.3338,-0.2671 0.5007,-0.3953 0.1668,-0.1282 0.3337,-0.2528 0.5006,-0.3737 0.1669,-0.1209 0.3337,-0.2382 0.5006,-0.3518 0.1669,-0.1135 0.3338,-0.2234 0.5006,-0.3295 0.1669,-0.1061 0.3338,-0.2084 0.5007,-0.3069 0.1668,-0.0985 0.3337,-0.1932 0.5006,-0.284 0.1669,-0.0908 0.3337,-0.1778 0.5006,-0.2608 0.1669,-0.0831 0.3338,-0.1622 0.5006,-0.2374 0.1669,-0.0752 0.3338,-0.1464 0.5006,-0.2137 0.1669,-0.0672 0.3338,-0.1305 0.5007,-0.1897 0.1668,-0.0593 0.3337,-0.1145 0.5006,-0.1657 0.1669,-0.0512 0.3337,-0.0984 0.5006,-0.1415 0.1669,-0.0431 0.3338,-0.0821 0.5006,-0.117 0.1669,-0.035 0.3338,-0.0658 0.5007,-0.0926 0.1668,-0.0267 0.3337,-0.0494 0.5006,-0.0679 0.1669,-0.0185 0.3337,-0.033 0.5006,-0.0433 0.1669,-0.0103 0.3338,-0.0164 0.5006,-0.0185 0.1669,-0.0021 0.3338,0 0.5007,0.0062 0.1668,0.0062 0.3337,0.0165 0.5006,0.0309 0.1669,0.0144 0.3337,0.0329 0.5006,0.0556 0.1669,0.0226 0.3337,0.0494 0.5006,0.0802 0.1669,0.0309 0.3338,0.0658 0.5006,0.1048 0.1669,0.0391 0.3338,0.0822 0.5007,0.1293 0.1668,0.0471 0.3337,0.0984 0.5006,0.1536 0.1669,0.0552 0.3337,0.1145 0.5006,0.1777 0.1669,0.0633 0.3338,0.1306 0.5006,0.2018 0.1669,0.0712 0.3338,0.1464 0.5007,0.2256 0.1668,0.0791 0.3337,0.1621 0.5006,0.2491 0.1669,0.0869 0.3337,0.1778 0.5006,0.2724 0.1669,0.0947 0.3338,0.1932 0.5006,0.2955 0.1669,0.1023 0.3338,0.2084 0.5007,0.3183 0.1668,0.1098 0.3337,0.2234 0.5006,0.3407 0.1668,0.1172 0.3337,0.2382 0.5006,0.3627 0.1669,0.1246 0.3337,0.2528 0.5006,0.3846 0.1669,0.1317 0.3338,0.267 0.5006,0.4059 0.1669,0.1388 0.3338,0.2811 0.5007,0.4268 0.1668,0.1457 0.3337,0.2948 0.5006,0.4473 0.1669,0.1525 0.3337,0.3084 0.5006,0.4675 0.1669,0.1591 0.3338,0.3215 0.5006,0.487 0.1669,0.1656 0.3338,0.3343 0.5007,0.5062 0.1668,0.1718 0.3337,0.3468 0.5006,0.5248 0.1669,0.178 0.3337,0.359 0.5006,0.5429 0.1669,0.1839 0.3338,0.3707 0.5006,0.5604 0.1669,0.1897 0.3338,0.3822 0.5006,0.5775 0.1669,0.1952 0.3338,0.3932 0.5007,0.5938 0.1668,0.2007 0.3337,0.4039 0.5006,0.6097 0.1669,0.2059 0.3337,0.4142 0.5006,0.625 0.1669,0.2108 0.3338,0.424 0.5006,0.6395 0.1669,0.2155 0.3338,0.4334 0.5007,0.6535 0.1668,0.2201 0.3337,0.4424 0.5006,0.6668 0.1669,0.2244 0.3337,0.4509 0.5006,0.6795 0.1669,0.2285 0.3338,0.459 0.5006,0.6914 0.1669,0.2324 0.3338,0.4666 0.5007,0.7027 0.1668,0.236 0.3337,0.4738 0.5006,0.7133 0.1669,0.2394 0.3337,0.4805 0.5006,0.7231 0.1669,0.2426 0.3338,0.4868 0.5006,0.7323 0.1669,0.2456 0.3338,0.4925 0.5006,0.7407 0.1669,0.2483 0.3338,0.4978 0.5007,0.7484 0.1668,0.2507 0.3337,0.5025 0.5006,0.7554 0.1669,0.2528 0.3337,0.5067 0.5006,0.7615 0.1669,0.2548 0.3338,0.5104 0.5006,0.7669 0.1669,0.2565 0.3338,0.5137 0.5007,0.7716 0.1668,0.2579 0.3337,0.5164 0.5006,0.7755 0.1669,0.259 0.3337,0.5186 0.5006,0.7786 0.1669,0.26 0.3338,0.5203 0.5006,0.7809 0.1669,0.2606 0.3338,0.5215 0.5007,0.7825 0.1668,0.261 0.3337,0.5222 0.5006,0.7833"
       title="sin(x)"
       id="path4"
       inkscape:label="sin_anti" />
    <path
       style="display:none;fill:none;fill-rule:evenodd;stroke:#ff0000;stroke-width:0.376042;stroke-linecap:square"
       d="m 0.188021,25.188 c 0.166874,-0.2611 0.333749,0.2734 0.500623,0.0124 0.166874,-0.261 0.333746,0.2977 0.500626,0.0371 0.16687,-0.2606 0.33375,0.3217 0.50062,0.0617 0.16687,-0.2599 0.33375,0.3455 0.50062,0.0864 0.16688,-0.259 0.33375,0.3689 0.50063,0.111 0.16687,-0.2579 0.33374,0.3918 0.50062,0.1353 0.16687,-0.2564 0.33375,0.4145 0.50062,0.1597 0.16688,-0.2548 0.33375,0.4366 0.50062,0.1837 0.16688,-0.2528 0.33375,0.4584 0.50063,0.2078 0.16687,-0.2507 0.33375,0.4797 0.50062,0.2314 0.16687,-0.2482 0.33375,0.5006 0.50062,0.255 0.16688,-0.2455 0.33375,0.5209 0.50063,0.2783 0.16687,-0.2427 0.33374,0.5406 0.50062,0.3012 0.16687,-0.2395 0.33375,0.5599 0.50062,0.3239 0.16688,-0.2361 0.33375,0.5786 0.50062,0.3462 0.16688,-0.2324 0.33375,0.5968 0.50063,0.3683 0.16687,-0.2286 0.33375,0.6143 0.50062,0.3899 0.16687,-0.2245 0.33375,0.6312 0.50062,0.4111 0.16688,-0.2201 0.33375,0.6476 0.50063,0.432 0.16687,-0.2155 0.33374,0.6632 0.50064,0.4524 0.1669,-0.2107 0.3337,0.6782 0.5006,0.4724 0.1669,-0.2058 0.3338,0.6925 0.5006,0.4919 0.1669,-0.2006 0.3338,0.7061 0.5006,0.5109 0.1669,-0.1953 0.3338,0.719 0.5007,0.5293 0.1668,-0.1897 0.3337,0.7313 0.5006,0.5474 0.1669,-0.184 0.3337,0.7427 0.5006,0.5647 0.1669,-0.178 0.3338,0.7535 0.5006,0.5816 0.1669,-0.1718 0.3338,0.7635 0.5007,0.5979 0.1668,-0.1655 0.3337,0.7727 0.5006,0.6136 0.1669,-0.1591 0.3337,0.7811 0.5006,0.6286 0.1669,-0.1525 0.3338,0.7888 0.5006,0.6431 0.1669,-0.1457 0.3338,0.7957 0.5007,0.6569 0.1668,-0.1388 0.3337,0.8018 0.5006,0.67 0.1669,-0.1317 0.3337,0.8071 0.5006,0.6825 0.1669,-0.1246 0.3337,0.8116 0.5006,0.6943 0.1669,-0.1172 0.3338,0.8153 0.5006,0.7054 0.1669,-0.1098 0.3338,0.8182 0.5007,0.7159 0.1668,-0.1024 0.3337,0.8201 0.5006,0.7255 0.1669,-0.0947 0.3337,0.8214 0.5006,0.7344 0.1669,-0.0869 0.3338,0.8219 0.5006,0.7427 0.1669,-0.0791 0.3338,0.8215 0.5007,0.7502 0.1668,-0.0712 0.3337,0.8203 0.5006,0.757 0.1669,-0.0633 0.3337,0.8182 0.5006,0.7629 0.1669,-0.0552 0.3338,0.8154 0.5006,0.7682 0.1669,-0.0471 0.3338,0.8117 0.5007,0.7726 0.1668,-0.039 0.3337,0.8072 0.5006,0.7764 0.1668,-0.0309 0.3337,0.8019 0.5006,0.7792 0.1669,-0.0226 0.3337,0.7959 0.5006,0.7814 0.1669,-0.0144 0.3338,0.789 0.5006,0.7828 0.1669,-0.0062 0.3338,0.7813 0.5007,0.7834 0.1668,0.002 0.3337,0.7728 0.5006,0.7831 0.1669,0.0103 0.3337,0.7637 0.5006,0.7822 0.1669,0.0185 0.3338,0.7537 0.5006,0.7804 0.1669,0.0268 0.3338,0.743 0.5007,0.7779 0.1668,0.0349 0.3337,0.7315 0.5006,0.7746 0.1669,0.0431 0.3337,0.7193 0.5006,0.7705 0.1669,0.0512 0.3338,0.7064 0.5006,0.7656 0.1669,0.0593 0.3338,0.6928 0.5006,0.7601 0.1669,0.0672 0.3338,0.6785 0.5007,0.7536 0.1668,0.0752 0.3337,0.6636 0.5006,0.7466 0.1669,0.083 0.3337,0.6479 0.5006,0.7387 0.1669,0.0908 0.3338,0.6316 0.5006,0.7301 0.1669,0.0985 0.3338,0.6146 0.5007,0.7207 0.1668,0.1061 0.3337,0.5972 0.5006,0.7107 0.1669,0.1136 0.3337,0.579 0.5006,0.7 0.1669,0.1209 0.3338,0.5603 0.5006,0.6885 0.1669,0.1281 0.3338,0.541 0.5007,0.6763 0.1668,0.1353 0.3337,0.5213 0.5006,0.6635 0.1669,0.1423 0.3337,0.501 0.5006,0.6501 0.1669,0.1491 0.3337,0.4801 0.5006,0.6359 0.1669,0.1559 0.3338,0.4589 0.5006,0.6212 0.1669,0.1624 0.3338,0.4371 0.5007,0.6058 0.1668,0.1688 0.3337,0.4149 0.5006,0.5899 0.1669,0.1749 0.3337,0.3922 0.5006,0.5732 0.1669,0.181 0.3338,0.3693 0.5006,0.5561 0.1669,0.1868 0.3338,0.3459 0.5007,0.5384 0.1668,0.1925 0.3337,0.3223 0.5006,0.5202 0.1669,0.198 0.3337,0.2982 0.5006,0.5015 0.1669,0.2032 0.3338,0.2738 0.5006,0.4821 0.1669,0.2084 0.3338,0.2493 0.5007,0.4625 0.1668,0.2132 0.3337,0.2244 0.5006,0.4423 0.1668,0.2178 0.3337,0.1993 0.5006,0.4216 0.1669,0.2223 0.3337,0.1741 0.5006,0.4006 0.1669,0.2265 0.3338,0.1486 0.5006,0.3791 0.1669,0.2305 0.3338,0.1231 0.5007,0.3573 0.1668,0.2342 0.3337,0.0973 0.5006,0.3351 0.1669,0.2378 0.3337,0.0715 0.5006,0.3126 0.1669,0.2411 0.3338,0.0456 0.5006,0.2898 0.1669,0.2441 0.3338,0.0197 0.5007,0.2666 0.1668,0.2469 0.3337,-0.0062 0.5006,0.2433 0.1669,0.2494 0.3337,-0.0322 0.5006,0.2196 0.1669,0.2518 0.3338,-0.0581 0.5006,0.1958 0.1669,0.2538 0.3338,-0.084 0.5006,0.1717 0.1669,0.2556 0.3338,-0.1097 0.5007,0.1475 0.1668,0.2572 0.3337,-0.1353 0.5006,0.1232 0.1669,0.2585 0.3337,-0.1609 0.5006,0.0986 0.1669,0.2596 0.3338,-0.1862 0.5006,0.0741 0.1669,0.2603 0.3338,-0.2114 0.5007,0.0495 0.1668,0.2608 0.3337,-0.2364 0.5006,0.0247 0.1669,0.2611 0.3337,-0.2611 0.5006,0 0.1669,0.2611 0.3338,-0.2856 0.5006,-0.0247 0.1669,0.2608 0.3338,-0.3098 0.5007,-0.0495 0.1668,0.2603 0.3337,-0.3336 0.5006,-0.0741 0.1669,0.2596 0.3337,-0.3571 0.5006,-0.0986 0.1669,0.2585 0.3338,-0.3804 0.5006,-0.1232 0.1669,0.2572 0.3338,-0.4032 0.5006,-0.1475 0.1669,0.2556 0.3338,-0.4256 0.5007,-0.1717 0.1668,0.2538 0.3337,-0.4476 0.5006,-0.1958 0.1669,0.2518 0.3337,-0.4691 0.5006,-0.2196 0.1669,0.2494 0.3338,-0.4902 0.5006,-0.2433 0.1669,0.2469 0.3338,-0.5108 0.5007,-0.2666 0.1668,0.2441 0.3337,-0.5309 0.5006,-0.2898 0.1669,0.2411 0.3337,-0.5504 0.5006,-0.3126 0.1669,0.2378 0.3338,-0.5693 0.5006,-0.3351 0.1669,0.2342 0.3338,-0.5878 0.5007,-0.3573 0.1668,0.2305 0.3337,-0.6056 0.5006,-0.3791 0.1669,0.2265 0.3337,-0.6229 0.5006,-0.4006 0.1669,0.2223 0.3337,-0.6395 0.5006,-0.4216 0.1669,0.2178 0.3338,-0.6555 0.5006,-0.4423 0.1669,0.2132 0.3338,-0.6708 0.5007,-0.4625 0.1668,0.2084 0.3337,-0.6854 0.5006,-0.4821 0.1669,0.2032 0.3337,-0.6994 0.5006,-0.5015 0.1669,0.198 0.3338,-0.7127 0.5006,-0.5202 0.1669,0.1925 0.3338,-0.7252 0.5007,-0.5384 0.1668,0.1868 0.3337,-0.7371 0.5006,-0.5561 0.1669,0.181 0.3337,-0.7482 0.5006,-0.5732 0.1669,0.1749 0.3338,-0.7586 0.5006,-0.5899 0.1669,0.1688 0.3338,-0.7681 0.5007,-0.6058 0.1668,0.1624 0.3337,-0.777 0.5006,-0.6212 0.1668,0.1559 0.3337,-0.785 0.5006,-0.6359 0.1669,0.1491 0.3337,-0.7923 0.5006,-0.6501 0.1669,0.1423 0.3338,-0.7988 0.5006,-0.6635 0.1669,0.1353 0.3338,-0.8045 0.5007,-0.6763 0.1668,0.1281 0.3337,-0.8095 0.5006,-0.6885 0.1669,0.1209 0.3337,-0.8135 0.5006,-0.7 0.1669,0.1136 0.3338,-0.8168 0.5006,-0.7107 0.1669,0.1061 0.3338,-0.8192 0.5007,-0.7207 0.1668,0.0985 0.3337,-0.8209 0.5006,-0.7301 0.1669,0.0908 0.3337,-0.8217 0.5006,-0.7387 0.1669,0.083 0.3338,-0.8217 0.5006,-0.7466 0.1669,0.0752 0.3338,-0.8209 0.5006,-0.7536 0.1669,0.0672 0.3338,-0.8193 0.5007,-0.7601 0.1668,0.0593 0.3337,-0.8168 0.5006,-0.7656 0.1669,0.0512 0.3337,-0.8136 0.5006,-0.7705 0.1669,0.0431 0.3338,-0.8095 0.5006,-0.7746 0.1669,0.0349 0.3338,-0.8046 0.5007,-0.7779 0.1668,0.0268 0.3337,-0.7989 0.5006,-0.7804 0.1669,0.0185 0.3337,-0.7925 0.5006,-0.7822 0.1669,0.0103 0.3338,-0.7852 0.5006,-0.7831 0.1669,0.002 0.3338,-0.7772 0.5007,-0.7834 0.1668,-0.0062 0.3337,-0.7683 0.5006,-0.7828 0.1669,-0.0144 0.3337,-0.7587 0.5006,-0.7814 0.1669,-0.0226 0.3337,-0.7484 0.5006,-0.7792 0.1669,-0.0309 0.3338,-0.7373 0.5006,-0.7764 0.1669,-0.039 0.3338,-0.7254 0.5007,-0.7726 0.1668,-0.0471 0.3337,-0.7129 0.5006,-0.7682 0.1669,-0.0552 0.3337,-0.6996 0.5006,-0.7629 0.1669,-0.0633 0.3338,-0.6857 0.5006,-0.757 0.1669,-0.0712 0.3338,-0.671 0.5007,-0.7502 0.1668,-0.0791 0.3337,-0.6557 0.5006,-0.7427 0.1669,-0.0869 0.3337,-0.6398 0.5006,-0.7344 0.1669,-0.0947 0.3338,-0.6232 0.5006,-0.7255 0.1669,-0.1024 0.3338,-0.606 0.5007,-0.7159 0.1668,-0.1098 0.3337,-0.5881 0.5006,-0.7054 0.1668,-0.1172 0.3337,-0.5697 0.5006,-0.6943 0.1669,-0.1246 0.3337,-0.5507 0.5006,-0.6825 0.1669,-0.1317 0.3338,-0.5312 0.5006,-0.67 0.1669,-0.1388 0.3338,-0.5112 0.5007,-0.6569 0.1668,-0.1457 0.3337,-0.4906 0.5006,-0.6431 0.1669,-0.1525 0.3337,-0.4695 0.5006,-0.6286 0.1669,-0.1591 0.3338,-0.448 0.5006,-0.6136 0.1669,-0.1655 0.3338,-0.426 0.5007,-0.5979 0.1668,-0.1718 0.3337,-0.4036 0.5006,-0.5816 0.1669,-0.178 0.3337,-0.3808 0.5006,-0.5647 0.1669,-0.184 0.3338,-0.3577 0.5006,-0.5474 0.1669,-0.1897 0.3338,-0.3341 0.5006,-0.5293 0.1669,-0.1953 0.3338,-0.3103 0.5007,-0.5109 0.1668,-0.2006 0.3337,-0.2861 0.5006,-0.4919 0.1669,-0.2058 0.3337,-0.2616 0.5006,-0.4724 0.1669,-0.2107 0.3338,-0.2368 0.5006,-0.4524 0.1669,-0.2155 0.3338,-0.2119 0.5007,-0.432 0.1668,-0.2201 0.3337,-0.1867 0.5006,-0.4111 0.1669,-0.2245 0.3337,-0.1614 0.5006,-0.3899 0.1669,-0.2286 0.3338,-0.1359 0.5006,-0.3683 0.1669,-0.2324 0.3338,-0.1102 0.5007,-0.3462 0.1668,-0.2361 0.3337,-0.0845 0.5006,-0.3239 0.1669,-0.2395 0.3337,-0.0586 0.5006,-0.3012 0.1669,-0.2427 0.3338,-0.0327 0.5006,-0.2783 0.1669,-0.2455 0.3338,-0.0067 0.5006,-0.255 0.1669,-0.2482 0.3338,0.0192 0.5007,-0.2314 0.1668,-0.2507 0.3337,0.0451 0.5006,-0.2078 0.1669,-0.2528 0.3337,0.0711 0.5006,-0.1837 0.1669,-0.2548 0.3338,0.0968 0.5006,-0.1597 0.1669,-0.2564 0.3338,0.1226 0.5007,-0.1353 0.1668,-0.2579 0.3337,0.1481 0.5006,-0.111 0.1669,-0.259 0.3337,0.1736 0.5006,-0.0864 0.1669,-0.2599 0.3338,0.1989 0.5006,-0.0617 0.1669,-0.2606 0.3338,0.2239 0.5007,-0.0371 0.1668,-0.261 0.3337,0.2488 0.5006,-0.0124"
       title="cos(x)"
       id="path3"
       inkscape:label="cos" />
    <path
       style="display:none;fill:none;fill-rule:evenodd;stroke:#ff0000;stroke-width:0.376042;stroke-linecap:square"
       d="M 0.188021,50 C 0.354895,49.7389 0.52177,49.4777 0.688644,49.2167 0.855518,48.9557 1.02239,48.6948 1.18927,48.4342 1.35614,48.1736 1.52302,47.9133 1.68989,47.6533 1.85676,47.3933 2.02364,47.1337 2.19051,46.8747 2.35739,46.6156 2.52426,46.3571 2.69114,46.0992 2.85801,45.8413 3.02488,45.5841 3.19176,45.3276 3.35863,45.0712 3.52551,44.8155 3.69238,44.5607 3.85926,44.3059 4.02613,44.052 4.193,43.7992 4.35988,43.5463 4.52675,43.2945 4.69363,43.0438 4.8605,42.7932 5.02738,42.5437 5.19425,42.2954 5.36112,42.0472 5.528,41.8003 5.69487,41.5547 5.86175,41.3092 6.02862,41.065 6.1955,40.8224 6.36237,40.5798 6.52924,40.3387 6.69612,40.0993 6.86299,39.8598 7.02987,39.622 7.19674,39.386 7.36362,39.1499 7.53049,38.9157 7.69736,38.6833 7.86424,38.4509 8.03111,38.2204 8.19799,37.9919 8.36486,37.7633 8.53174,37.5368 8.69861,37.3124 8.86548,37.088 9.03236,36.8657 9.19923,36.6456 c 0.16688,-0.2201 0.33375,-0.438 0.50063,-0.6535 0.16687,-0.2155 0.33374,-0.4287 0.50064,-0.6395 0.1669,-0.2108 0.3337,-0.4191 0.5006,-0.6249 0.1669,-0.2059 0.3338,-0.4091 0.5006,-0.6098 0.1669,-0.2006 0.3338,-0.3986 0.5006,-0.5938 0.1669,-0.1953 0.3338,-0.3878 0.5007,-0.5775 0.1668,-0.1897 0.3337,-0.3765 0.5006,-0.5604 0.1669,-0.1839 0.3337,-0.3649 0.5006,-0.5429 0.1669,-0.178 0.3338,-0.353 0.5006,-0.5248 0.1669,-0.1719 0.3338,-0.3406 0.5007,-0.5062 0.1668,-0.1655 0.3337,-0.3279 0.5006,-0.487 0.1669,-0.1591 0.3337,-0.315 0.5006,-0.4675 0.1669,-0.1524 0.3338,-0.3016 0.5006,-0.4473 0.1669,-0.1457 0.3338,-0.288 0.5007,-0.4268 0.1668,-0.1388 0.3337,-0.2742 0.5006,-0.4059 0.1669,-0.1318 0.3337,-0.26 0.5006,-0.3845 0.1669,-0.1246 0.3337,-0.2456 0.5006,-0.3628 0.1669,-0.1173 0.3338,-0.2309 0.5006,-0.3407 0.1669,-0.1099 0.3338,-0.216 0.5007,-0.3183 0.1668,-0.1023 0.3337,-0.2008 0.5006,-0.2955 0.1669,-0.0946 0.3337,-0.1855 0.5006,-0.2724 0.1669,-0.087 0.3338,-0.17 0.5006,-0.2491 0.1669,-0.0792 0.3338,-0.1544 0.5007,-0.2256 0.1668,-0.0712 0.3337,-0.1385 0.5006,-0.2017 0.1669,-0.0633 0.3337,-0.1226 0.5006,-0.1778 0.1669,-0.0552 0.3338,-0.1064 0.5006,-0.1536 0.1669,-0.0471 0.3338,-0.0902 0.5007,-0.1293 0.1668,-0.039 0.3337,-0.0739 0.5006,-0.1048 0.1668,-0.0308 0.3337,-0.0576 0.5006,-0.0802 0.1669,-0.0227 0.3337,-0.0412 0.5006,-0.0556 0.1669,-0.0144 0.3338,-0.0247 0.5006,-0.0309 0.1669,-0.0062 0.3338,-0.0083 0.5007,-0.0062 0.1668,0.0021 0.3337,0.0082 0.5006,0.0185 0.1669,0.0103 0.3337,0.0248 0.5006,0.0433 0.1669,0.0185 0.3338,0.0412 0.5006,0.0679 0.1669,0.0268 0.3338,0.0576 0.5007,0.0926 0.1668,0.0349 0.3337,0.0739 0.5006,0.117 0.1669,0.0431 0.3337,0.0903 0.5006,0.1415 0.1669,0.0512 0.3338,0.1064 0.5006,0.1657 0.1669,0.0592 0.3338,0.1225 0.5006,0.1897 0.1669,0.0673 0.3338,0.1385 0.5007,0.2137 0.1668,0.0752 0.3337,0.1543 0.5006,0.2374 0.1669,0.083 0.3337,0.17 0.5006,0.2608 0.1669,0.0908 0.3338,0.1855 0.5006,0.284 0.1669,0.0985 0.3338,0.2008 0.5007,0.3069 0.1668,0.1061 0.3337,0.216 0.5006,0.3295 0.1669,0.1136 0.3337,0.2309 0.5006,0.3518 0.1669,0.121 0.3338,0.2455 0.5006,0.3737 0.1669,0.1282 0.3338,0.26 0.5007,0.3953 0.1668,0.1353 0.3337,0.2741 0.5006,0.4164 0.1669,0.1423 0.3337,0.288 0.5006,0.4371 0.1669,0.1492 0.3337,0.3017 0.5006,0.4575 0.1669,0.1558 0.3338,0.3149 0.5006,0.4773 0.1669,0.1623 0.3338,0.3279 0.5007,0.4966 0.1668,0.1688 0.3337,0.3407 0.5006,0.5156 0.1669,0.1749 0.3337,0.3529 0.5006,0.5339 0.1669,0.181 0.3338,0.3649 0.5006,0.5517 0.1669,0.1869 0.3338,0.3766 0.5007,0.5691 0.1668,0.1925 0.3337,0.3877 0.5006,0.5857 0.1669,0.198 0.3337,0.3986 0.5006,0.6019 0.1669,0.2032 0.3338,0.409 0.5006,0.6174 0.1669,0.2083 0.3338,0.4191 0.5007,0.6323 0.1668,0.2131 0.3337,0.4287 0.5006,0.6466 0.1668,0.2178 0.3337,0.4379 0.5006,0.6602 0.1669,0.2223 0.3337,0.4467 0.5006,0.6732 0.1669,0.2265 0.3338,0.455 0.5006,0.6855 0.1669,0.2305 0.3338,0.4629 0.5007,0.6972 0.1668,0.2342 0.3337,0.4703 0.5006,0.708 0.1669,0.2378 0.3337,0.4773 0.5006,0.7184 0.1669,0.241 0.3338,0.4837 0.5006,0.7278 0.1669,0.2441 0.3338,0.4897 0.5007,0.7366 0.1668,0.2469 0.3337,0.4951 0.5006,0.7446 0.1669,0.2495 0.3337,0.5002 0.5006,0.752 0.1669,0.2518 0.3338,0.5047 0.5006,0.7585 0.1669,0.2538 0.3338,0.5087 0.5006,0.7643 0.1669,0.2557 0.3338,0.5122 0.5007,0.7694 0.1668,0.2572 0.3337,0.5151 0.5006,0.7736 0.1669,0.2585 0.3337,0.5176 0.5006,0.7772 0.1669,0.2595 0.3338,0.5195 0.5006,0.7798 0.1669,0.2603 0.3338,0.521 0.5007,0.7818 0.1668,0.2609 0.3337,0.5219 0.5006,0.783 0.1669,0.2611 0.3337,0.5223 0.5006,0.7834 0.1669,0.2611 0.3338,0.5221 0.5006,0.783 0.1669,0.2608 0.3338,0.5215 0.5007,0.7818 0.1668,0.2603 0.3337,0.5203 0.5006,0.7799 0.1669,0.2595 0.3337,0.5186 0.5006,0.7771 0.1669,0.2585 0.3338,0.5164 0.5006,0.7736 0.1669,0.2572 0.3338,0.5137 0.5006,0.7694 0.1669,0.2556 0.3338,0.5105 0.5007,0.7643 0.1668,0.2539 0.3337,0.5067 0.5006,0.7585 0.1669,0.2518 0.3337,0.5025 0.5006,0.752 0.1669,0.2495 0.3338,0.4977 0.5006,0.7446 0.1669,0.247 0.3338,0.4925 0.5007,0.7366 0.1668,0.2441 0.3337,0.4868 0.5006,0.7279 0.1669,0.241 0.3337,0.4805 0.5006,0.7183 0.1669,0.2377 0.3338,0.4738 0.5006,0.708 0.1669,0.2343 0.3338,0.4667 0.5007,0.6972 0.1668,0.2305 0.3337,0.459 0.5006,0.6855 0.1669,0.2265 0.3337,0.4509 0.5006,0.6732 0.1669,0.2223 0.3337,0.4424 0.5006,0.6603 0.1669,0.2178 0.3338,0.4334 0.5006,0.6465 0.1669,0.2132 0.3338,0.424 0.5007,0.6324 0.1668,0.2083 0.3337,0.4141 0.5006,0.6173 0.1669,0.2033 0.3337,0.4039 0.5006,0.6019 0.1669,0.198 0.3338,0.3933 0.5006,0.5857 0.1669,0.1925 0.3338,0.3822 0.5007,0.5691 0.1668,0.1868 0.3337,0.3707 0.5006,0.5517 0.1669,0.181 0.3337,0.359 0.5006,0.5339 0.1669,0.175 0.3338,0.3468 0.5006,0.5156 0.1669,0.1687 0.3338,0.3343 0.5007,0.4966 0.1668,0.1624 0.3337,0.3215 0.5006,0.4773 0.1668,0.1558 0.3337,0.3084 0.5006,0.4575 0.1669,0.1491 0.3337,0.2948 0.5006,0.4371 0.1669,0.1423 0.3338,0.2811 0.5006,0.4164 0.1669,0.1353 0.3338,0.2671 0.5007,0.3953 0.1668,0.1282 0.3337,0.2528 0.5006,0.3737 0.1669,0.1209 0.3337,0.2382 0.5006,0.3518 0.1669,0.1135 0.3338,0.2234 0.5006,0.3295 0.1669,0.1061 0.3338,0.2084 0.5007,0.3069 0.1668,0.0985 0.3337,0.1932 0.5006,0.284 0.1669,0.0908 0.3337,0.1778 0.5006,0.2608 0.1669,0.0831 0.3338,0.1622 0.5006,0.2374 0.1669,0.0752 0.3338,0.1464 0.5006,0.2137 0.1669,0.0672 0.3338,0.1305 0.5007,0.1897 0.1668,0.0593 0.3337,0.1145 0.5006,0.1657 0.1669,0.0512 0.3337,0.0984 0.5006,0.1415 0.1669,0.0431 0.3338,0.0821 0.5006,0.117 0.1669,0.035 0.3338,0.0658 0.5007,0.0926 0.1668,0.0267 0.3337,0.0494 0.5006,0.0679 0.1669,0.0185 0.3337,0.033 0.5006,0.0433 0.1669,0.0103 0.3338,0.0164 0.5006,0.0185 0.1669,0.0021 0.3338,0 0.5007,-0.0062 0.1668,-0.0062 0.3337,-0.0165 0.5006,-0.0309 0.1669,-0.0144 0.3337,-0.0329 0.5006,-0.0556 0.1669,-0.0226 0.3337,-0.0494 0.5006,-0.0802 0.1669,-0.0309 0.3338,-0.0658 0.5006,-0.1048 0.1669,-0.0391 0.3338,-0.0822 0.5007,-0.1293 0.1668,-0.0471 0.3337,-0.0984 0.5006,-0.1536 0.1669,-0.0552 0.3337,-0.1145 0.5006,-0.1777 0.1669,-0.0633 0.3338,-0.1306 0.5006,-0.2018 0.1669,-0.0712 0.3338,-0.1464 0.5007,-0.2256 0.1668,-0.0791 0.3337,-0.1621 0.5006,-0.2491 0.1669,-0.0869 0.3337,-0.1778 0.5006,-0.2724 0.1669,-0.0947 0.3338,-0.1932 0.5006,-0.2955 0.1669,-0.1023 0.3338,-0.2084 0.5007,-0.3183 0.1668,-0.1098 0.3337,-0.2234 0.5006,-0.3407 0.1668,-0.1172 0.3337,-0.2382 0.5006,-0.3627 0.1669,-0.1246 0.3337,-0.2528 0.5006,-0.3846 0.1669,-0.1317 0.3338,-0.267 0.5006,-0.4059 0.1669,-0.1388 0.3338,-0.2811 0.5007,-0.4268 0.1668,-0.1457 0.3337,-0.2948 0.5006,-0.4473 0.1669,-0.1525 0.3337,-0.3084 0.5006,-0.4675 0.1669,-0.1591 0.3338,-0.3215 0.5006,-0.487 0.1669,-0.1656 0.3338,-0.3343 0.5007,-0.5062 0.1668,-0.1718 0.3337,-0.3468 0.5006,-0.5248 0.1669,-0.178 0.3337,-0.359 0.5006,-0.5429 0.1669,-0.1839 0.3338,-0.3707 0.5006,-0.5604 0.1669,-0.1897 0.3338,-0.3822 0.5006,-0.5775 0.1669,-0.1952 0.3338,-0.3932 0.5007,-0.5938 0.1668,-0.2007 0.3337,-0.4039 0.5006,-0.6097 0.1669,-0.2059 0.3337,-0.4142 0.5006,-0.625 0.1669,-0.2108 0.3338,-0.424 0.5006,-0.6395 0.1669,-0.2155 0.3338,-0.4334 0.5007,-0.6535 0.1668,-0.2201 0.3337,-0.4424 0.5006,-0.6668 0.1669,-0.2244 0.3337,-0.4509 0.5006,-0.6795 0.1669,-0.2285 0.3338,-0.459 0.5006,-0.6914 0.1669,-0.2324 0.3338,-0.4666 0.5007,-0.7027 0.1668,-0.236 0.3337,-0.4738 0.5006,-0.7133 0.1669,-0.2394 0.3337,-0.4805 0.5006,-0.7231 0.1669,-0.2426 0.3338,-0.4868 0.5006,-0.7323 0.1669,-0.2456 0.3338,-0.4925 0.5006,-0.7407 0.1669,-0.2483 0.3338,-0.4978 0.5007,-0.7484 0.1668,-0.2507 0.3337,-0.5025 0.5006,-0.7554 0.1669,-0.2528 0.3337,-0.5067 0.5006,-0.7615 0.1669,-0.2548 0.3338,-0.5104 0.5006,-0.7669 0.1669,-0.2565 0.3338,-0.5137 0.5007,-0.7716 0.1668,-0.2579 0.3337,-0.5164 0.5006,-0.7755 0.1669,-0.259 0.3337,-0.5186 0.5006,-0.7786 0.1669,-0.26 0.3338,-0.5203 0.5006,-0.7809 0.1669,-0.2606 0.3338,-0.5215 0.5007,-0.7825 0.1668,-0.261 0.3337,-0.5222 0.5006,-0.7833"
       title="sin(x)"
       id="path16"
       inkscape:label="sin" />
  </g>
  <g
     inkscape:groupmode="layer"
     id="g14"
     inkscape:label="data_paths_1"
     sodipodi:insensitive="true"
     style="display:none">
    <path
       style="display:none;fill:none;stroke:#008080;stroke-width:1px;stroke-linecap:butt;stroke-linejoin:miter;stroke-opacity:1"
       d="m 0,50 c 9,-12 24,-49 50,0 27,50 42,9 50,0"
       id="path6"
       sodipodi:nodetypes="csc"
       inkscape:label="path_1"
       sodipodi:insensitive="true" />
    <path
       style="display:none;fill:none;stroke:#008080;stroke-width:1px;stroke-linecap:butt;stroke-linejoin:miter;stroke-opacity:1"
       d="m 0,75 c 15,0 36,-50 50,-50 16,0 31,50 50,50"
       id="path8"
       sodipodi:nodetypes="csc"
       inkscape:label="path_t1"
       sodipodi:insensitive="true" />
    <path
       style="display:none;fill:none;stroke:#008080;stroke-width:1px;stroke-linecap:butt;stroke-linejoin:miter;stroke-opacity:1"
       d="m 0,50 c 9,12 24,49 50,0 27,-50 42,-9 50,0"
       id="path7"
       sodipodi:nodetypes="csc"
       inkscape:label="path_mid"
       sodipodi:insensitive="true" />
    <path
       style="display:none;fill:none;stroke:#008080;stroke-width:1px;stroke-linecap:butt;stroke-linejoin:miter;stroke-opacity:1"
       d="m 0,25 c 15,0 36,50 50,50 16,0 31,-50 50,-50"
       id="path9"
       sodipodi:nodetypes="csc"
       inkscape:label="path_t2" />
  </g>
  <g
     inkscape:groupmode="layer"
     id="g1"
     inkscape:label="data paths_2"
     style="display:none"
     sodipodi:insensitive="true">
    <path
       style="display:none;fill:none;stroke:#008080;stroke-width:1px;stroke-linecap:butt;stroke-linejoin:miter;stroke-opacity:1"
       d="M 0,50 C 5.5824155,42.556779 13.473228,25.495237 24.865626,25.30415 31.840113,25.187166 40.126978,31.393151 50,50 59.695872,68.27299 67.898374,74.434654 74.795812,74.447141 86.845552,74.468955 94.912281,55.723684 100,50"
       id="path11"
       sodipodi:nodetypes="csssc"
       inkscape:label="path_1"
       sodipodi:insensitive="true" />
    <path
       style="display:none;fill:none;stroke:#008080;stroke-width:1px;stroke-linecap:butt;stroke-linejoin:miter;stroke-opacity:1"
       d="M 0,75 C 7,75 16,63 25,50 34,38 43,25 50,25 c 8,0 17,14 25,27 8,12 16,23 25,23"
       id="path12"
       sodipodi:nodetypes="csssc"
       inkscape:label="path_t1"
       sodipodi:insensitive="true" />
    <path
       style="display:none;fill:none;stroke:#008080;stroke-width:1px;stroke-linecap:butt;stroke-linejoin:miter;stroke-opacity:1"
       d="m 0,50 c 6,7 14,25 25,25 7,0 15,-6 25,-25 10,-18 18,-25 25,-24 12,0 20,18 25,24"
       id="path13"
       sodipodi:nodetypes="csssc"
       inkscape:label="path_mid"
       sodipodi:insensitive="true" />
    <path
       style="display:none;fill:none;stroke:#008080;stroke-width:1px;stroke-linecap:butt;stroke-linejoin:miter;stroke-opacity:1"
       d="m 0,25 c 7,0 16,12 25,25 9,12 18,25 25,25 8,0 16,-14 25,-27 8,-12 16,-23 25,-23"
       id="path14"
       sodipodi:nodetypes="csssc"
       inkscape:label="path_t2"
       sodipodi:insensitive="true" />
    <path
       style="display:none;fill:none;stroke:#008080;stroke-width:1px;stroke-linecap:butt;stroke-linejoin:miter;stroke-opacity:1"
       d="M 0,50 C 5.5824155,42.556779 13.473228,25.495237 24.865626,25.30415 31.840113,25.187166 40.126978,31.393151 50,50 59.695872,68.27299 67.898374,74.434654 74.795812,74.447141 86.845552,74.468955 94.912281,55.723684 100,50"
       id="path15"
       sodipodi:nodetypes="csssc"
       inkscape:label="path_1"
       sodipodi:insensitive="true" />
  </g>
  <g
     inkscape:groupmode="layer"
     id="data paths"
     inkscape:label="data paths"
     style="display:inline">
    <path
       style="display:none;fill:none;stroke:#ff0000;stroke-width:1px;stroke-linecap:butt;stroke-linejoin:miter;stroke-opacity:1"
       d="m 0,50 c 7.3255698,-9.941783 15.13501,-24.859776 25,-25 9.980395,-0.141864 18.135638,14.944762 25,25 8.152837,11.942656 16.310749,24.823319 25,25 9.288932,0.188875 16.802516,-13.561836 25,-25"
       id="path36"
       sodipodi:nodetypes="csssc"
       inkscape:label="path_1" />
    <path
       style="display:none;fill:none;stroke:#ff0000;stroke-width:1px;stroke-linecap:butt;stroke-linejoin:miter;stroke-opacity:1"
       d="M 0.14891191,60.119572 C 7.7103454,50.226997 15.677184,31.750312 25.853542,26.939532 c 10.844417,-5.126598 16.43149,2.614008 23.203248,11.909005 6.660341,9.142064 16.662397,28.877843 26.6466,34.138959 10.756613,5.668135 19.442427,-6.137519 23.037502,-11.829618"
       id="path19"
       sodipodi:nodetypes="csssc"
       inkscape:label="path_2" />
    <path
       style="display:none;fill:none;stroke:#ff0000;stroke-width:1px;stroke-linecap:butt;stroke-linejoin:miter;stroke-opacity:1"
       d="M -0.53352856,68.408256 C 6.5972553,61.956261 17.20775,45.035557 23.593865,34.5527 29.122201,25.477895 42.07859,21.038832 49.850366,31.911496 56.42785,41.113353 67.664803,57.25713 74.742542,66.047423 83.976991,77.516272 94.310864,75.853678 100.028,67.86059"
       id="path20"
       sodipodi:nodetypes="csssc"
       inkscape:label="path_3" />
    <path
       style="display:none;fill:none;stroke:#ff0000;stroke-width:1px;stroke-linecap:butt;stroke-linejoin:miter;stroke-opacity:1"
       d="M -0.57842569,73.223923 C 4.0116613,74.069487 15.701892,55.568724 23.60734,42.778748 30.838109,31.080314 37.327871,20.220756 50.121984,26.816779 62.579539,33.239289 69.305705,53.118852 75.389814,60.424674 84.9766,71.936525 92.741898,78.630651 99.498388,73.484"
       id="path21"
       sodipodi:nodetypes="csssc"
       inkscape:label="path_4" />
    <path
       style="display:none;fill:none;stroke:#ff0000;stroke-width:1px;stroke-linecap:butt;stroke-linejoin:miter;stroke-opacity:1"
       d="M 0.43326038,74.665579 C 4.3720726,78.78247 17.112443,62.344665 24.893915,51.470252 c 6.514711,-9.104146 12.205116,-26.22566 24.119717,-26.383378 12.214458,-0.161687 17.274132,13.84847 24.421966,25.870321 7.57983,12.748418 21.434934,27.912028 25.697176,24.089606"
       id="path22"
       sodipodi:nodetypes="csssc"
       inkscape:label="path_5" />
    <path
       style="display:none;fill:none;stroke:#ff0000;stroke-width:1px;stroke-linecap:butt;stroke-linejoin:miter;stroke-opacity:1"
       d="M 0.46418537,72.973056 C 10.154865,76.555281 18.406395,70.279427 25.249863,60.40857 33.224912,48.905549 39.39258,34.855626 49.952953,27.941785 c 11.506703,-7.533401 18.874407,3.02529 24.269867,11.693428 7.931514,12.742463 14.290806,26.667431 25.86316,33.457952"
       id="path23"
       sodipodi:nodetypes="csssc"
       inkscape:label="path_6" />
    <path
       style="display:none;fill:none;stroke:#ff0000;stroke-width:1px;stroke-linecap:butt;stroke-linejoin:miter;stroke-opacity:1"
       d="M 0.56791036,67.954659 C 9.9608983,78.884944 19.675145,74.528377 25.816935,66.766099 33.144479,57.505212 44.004346,39.584373 50.895337,31.669576 c 8.016587,-9.207624 15.941875,-9.666801 24.042338,0.628787 8.468077,10.762819 20.777513,32.210019 24.766031,35.243694"
       id="path24"
       sodipodi:nodetypes="csssc"
       inkscape:label="path_7" />
    <path
       style="display:none;fill:none;stroke:#ff0000;stroke-width:1px;stroke-linecap:butt;stroke-linejoin:miter;stroke-opacity:1"
       d="M 0.14860659,59.744974 C 7.4798526,70.754934 18.187559,78.443369 24.500915,73.70374 33.921911,66.631112 39.432647,56.16073 49.143893,42.247357 55.445253,33.219353 63.75239,20.647342 74.840067,27.03849 84.445143,32.575039 88.20929,42.629988 99.617762,58.917968"
       id="path25"
       sodipodi:nodetypes="csssc"
       inkscape:label="path_8" />
    <path
       style="display:none;fill:none;stroke:#ff0000;stroke-width:1px;stroke-linecap:butt;stroke-linejoin:miter;stroke-opacity:1"
       d="m -0.2450195,50.376233 c 0,0 14.6252235,24.864928 26.3621385,24.66748 11.498533,-0.193439 17.739561,-15.739193 24.511319,-25.03419 6.660341,-9.142064 13.767926,-24.545167 25.053476,-24.547477 11.11697,-0.0023 24.143381,24.192852 24.143381,24.192852"
       id="path26"
       sodipodi:nodetypes="csssc"
       inkscape:label="path_9" />
    <path
       style="display:none;fill:none;stroke:#ff0000;stroke-width:1px;stroke-linecap:butt;stroke-linejoin:miter;stroke-opacity:1"
       d="M 0.16081927,40.291855 C 8.156995,53.347587 15.554199,68.139986 24.927779,72.693756 34.262501,77.228649 41.035793,71.817357 50.212193,59.428208 58.638821,48.051333 66.321927,32.796447 75.265089,26.851072 c 10.28823,-6.83957 18.466234,6.532951 24.685231,13.734695"
       id="path27"
       sodipodi:nodetypes="csssc"
       inkscape:label="path_10" />
    <path
       style="display:none;fill:none;stroke:#ff0000;stroke-width:1px;stroke-linecap:butt;stroke-linejoin:miter;stroke-opacity:1"
       d="M 0.24944401,32.573725 C 8.2886482,41.701618 16.135392,56.253674 25.308794,67.742679 32.33371,76.540864 41.702067,77.111083 50.475769,67.574056 58.266415,59.105612 66.764617,43.146154 74.937551,32.830587 82.480813,23.309768 90.776157,22.984102 99.76626,32.672389"
       id="path28"
       sodipodi:nodetypes="csssc"
       inkscape:label="path_11" />
    <path
       style="display:none;fill:none;stroke:#ff0000;stroke-width:1px;stroke-linecap:butt;stroke-linejoin:miter;stroke-opacity:1"
       d="M 0.07352448,26.81068 C 7.4497857,31.24577 15.675005,45.637355 24.531902,58.1698 31.605851,68.179386 39.491032,79.677761 49.811441,72.790993 57.57631,67.609527 65.888098,54.876527 75.147133,40.656582 84.61719,26.112551 92.756804,23.455603 100.01602,27.200513"
       id="path29"
       sodipodi:nodetypes="csssc"
       inkscape:label="path_12" />
    <path
       style="display:none;fill:none;stroke:#ff0000;stroke-width:1px;stroke-linecap:butt;stroke-linejoin:miter;stroke-opacity:1"
       d="M 0.51309819,25.530258 C 4.822454,23.536851 17.738117,35.183418 25.38323,50.332457 c 5.074476,10.055238 15.169848,24.404962 24.829139,24.328421 10.364507,-0.08213 17.75947,-14.154801 23.283589,-23.549874 9.8798,-16.80294 21.718287,-27.442608 26.325094,-26.125173"
       id="path30"
       sodipodi:nodetypes="csssc"
       inkscape:label="path_13" />
    <path
       style="display:none;fill:none;stroke:#ff0000;stroke-width:1px;stroke-linecap:butt;stroke-linejoin:miter;stroke-opacity:1"
       d="M 0.04926471,27.282866 C 8.8327576,19.927912 19.310636,32.047337 24.882934,40.154921 33.713783,53.003632 40.570732,66.313615 49.38498,72.41212 59.339526,79.299587 67.647741,69.593644 75.002175,59.379734 83.318046,47.830571 90.628591,33.246622 100.02109,27.027383"
       id="path31"
       sodipodi:nodetypes="csssc"
       inkscape:label="path_14" />
    <path
       style="display:inline;fill:none;stroke:#ff0000;stroke-width:1px;stroke-linecap:butt;stroke-linejoin:miter;stroke-opacity:1"
       d="M 0.13341319,32.598456 C 10.053946,22.043246 18.898049,23.217201 25.897104,33.456498 33.864029,45.111745 41.840875,56.053976 49.795326,66.874073 58.495183,78.708115 68.730204,76.394369 75.286461,67.22279 83.55577,55.654814 92.428239,42.088364 99.579158,32.520848"
       id="path32"
       sodipodi:nodetypes="csssc"
       inkscape:label="path_15" />
    <path
       style="display:none;fill:none;stroke:#ff0000;stroke-width:1px;stroke-linecap:butt;stroke-linejoin:miter;stroke-opacity:1"
       d="M 0.16089172,40.539193 C 3.938556,36.331962 13.40625,19.880606 25.272901,27.113014 33.781457,32.298752 42.276039,48.155072 50.870849,60.270769 58.427634,70.923211 66.612971,77.9372 75.153405,73.183841 82.90103,68.871736 90.964083,54.014261 99.158524,41.531147"
       id="path33"
       sodipodi:nodetypes="csssc"
       inkscape:label="path_16" />
    <path
       style="display:none;fill:none;stroke:#ff0000;stroke-width:1px;stroke-linecap:butt;stroke-linejoin:miter;stroke-opacity:1"
       d="m 0,50 c 7.3255698,-9.941783 15.13501,-24.859776 25,-25 9.980395,-0.141864 18.135638,14.944762 25,25 8.152837,11.942656 16.310749,24.823319 25,25 9.288932,0.188875 16.802516,-13.561836 25,-25"
       id="path34"
       sodipodi:nodetypes="csssc"
       inkscape:label="path_1" />
  </g>
  <g
     inkscape:groupmode="layer"
     id="display"
     inkscape:label="display"
     style="display:none"
     sodipodi:insensitive="true">
    <path
       style="display:inline;fill:none;fill-rule:evenodd;stroke:#ff0000;stroke-width:0.376042;stroke-linecap:square"
       d="M 0.188021,50 C 0.354895,49.7389 0.52177,49.4777 0.688644,49.2167 0.855518,48.9557 1.02239,48.6948 1.18927,48.4342 1.35614,48.1736 1.52302,47.9133 1.68989,47.6533 1.85676,47.3933 2.02364,47.1337 2.19051,46.8747 2.35739,46.6156 2.52426,46.3571 2.69114,46.0992 2.85801,45.8413 3.02488,45.5841 3.19176,45.3276 3.35863,45.0712 3.52551,44.8155 3.69238,44.5607 3.85926,44.3059 4.02613,44.052 4.193,43.7992 4.35988,43.5463 4.52675,43.2945 4.69363,43.0438 4.8605,42.7932 5.02738,42.5437 5.19425,42.2954 5.36112,42.0472 5.528,41.8003 5.69487,41.5547 5.86175,41.3092 6.02862,41.065 6.1955,40.8224 6.36237,40.5798 6.52924,40.3387 6.69612,40.0993 6.86299,39.8598 7.02987,39.622 7.19674,39.386 7.36362,39.1499 7.53049,38.9157 7.69736,38.6833 7.86424,38.4509 8.03111,38.2204 8.19799,37.9919 8.36486,37.7633 8.53174,37.5368 8.69861,37.3124 8.86548,37.088 9.03236,36.8657 9.19923,36.6456 c 0.16688,-0.2201 0.33375,-0.438 0.50063,-0.6535 0.16687,-0.2155 0.33374,-0.4287 0.50064,-0.6395 0.1669,-0.2108 0.3337,-0.4191 0.5006,-0.6249 0.1669,-0.2059 0.3338,-0.4091 0.5006,-0.6098 0.1669,-0.2006 0.3338,-0.3986 0.5006,-0.5938 0.1669,-0.1953 0.3338,-0.3878 0.5007,-0.5775 0.1668,-0.1897 0.3337,-0.3765 0.5006,-0.5604 0.1669,-0.1839 0.3337,-0.3649 0.5006,-0.5429 0.1669,-0.178 0.3338,-0.353 0.5006,-0.5248 0.1669,-0.1719 0.3338,-0.3406 0.5007,-0.5062 0.1668,-0.1655 0.3337,-0.3279 0.5006,-0.487 0.1669,-0.1591 0.3337,-0.315 0.5006,-0.4675 0.1669,-0.1524 0.3338,-0.3016 0.5006,-0.4473 0.1669,-0.1457 0.3338,-0.288 0.5007,-0.4268 0.1668,-0.1388 0.3337,-0.2742 0.5006,-0.4059 0.1669,-0.1318 0.3337,-0.26 0.5006,-0.3845 0.1669,-0.1246 0.3337,-0.2456 0.5006,-0.3628 0.1669,-0.1173 0.3338,-0.2309 0.5006,-0.3407 0.1669,-0.1099 0.3338,-0.216 0.5007,-0.3183 0.1668,-0.1023 0.3337,-0.2008 0.5006,-0.2955 0.1669,-0.0946 0.3337,-0.1855 0.5006,-0.2724 0.1669,-0.087 0.3338,-0.17 0.5006,-0.2491 0.1669,-0.0792 0.3338,-0.1544 0.5007,-0.2256 0.1668,-0.0712 0.3337,-0.1385 0.5006,-0.2017 0.1669,-0.0633 0.3337,-0.1226 0.5006,-0.1778 0.1669,-0.0552 0.3338,-0.1064 0.5006,-0.1536 0.1669,-0.0471 0.3338,-0.0902 0.5007,-0.1293 0.1668,-0.039 0.3337,-0.0739 0.5006,-0.1048 0.1668,-0.0308 0.3337,-0.0576 0.5006,-0.0802 0.1669,-0.0227 0.3337,-0.0412 0.5006,-0.0556 0.1669,-0.0144 0.3338,-0.0247 0.5006,-0.0309 0.1669,-0.0062 0.3338,-0.0083 0.5007,-0.0062 0.1668,0.0021 0.3337,0.0082 0.5006,0.0185 0.1669,0.0103 0.3337,0.0248 0.5006,0.0433 0.1669,0.0185 0.3338,0.0412 0.5006,0.0679 0.1669,0.0268 0.3338,0.0576 0.5007,0.0926 0.1668,0.0349 0.3337,0.0739 0.5006,0.117 0.1669,0.0431 0.3337,0.0903 0.5006,0.1415 0.1669,0.0512 0.3338,0.1064 0.5006,0.1657 0.1669,0.0592 0.3338,0.1225 0.5006,0.1897 0.1669,0.0673 0.3338,0.1385 0.5007,0.2137 0.1668,0.0752 0.3337,0.1543 0.5006,0.2374 0.1669,0.083 0.3337,0.17 0.5006,0.2608 0.1669,0.0908 0.3338,0.1855 0.5006,0.284 0.1669,0.0985 0.3338,0.2008 0.5007,0.3069 0.1668,0.1061 0.3337,0.216 0.5006,0.3295 0.1669,0.1136 0.3337,0.2309 0.5006,0.3518 0.1669,0.121 0.3338,0.2455 0.5006,0.3737 0.1669,0.1282 0.3338,0.26 0.5007,0.3953 0.1668,0.1353 0.3337,0.2741 0.5006,0.4164 0.1669,0.1423 0.3337,0.288 0.5006,0.4371 0.1669,0.1492 0.3337,0.3017 0.5006,0.4575 0.1669,0.1558 0.3338,0.3149 0.5006,0.4773 0.1669,0.1623 0.3338,0.3279 0.5007,0.4966 0.1668,0.1688 0.3337,0.3407 0.5006,0.5156 0.1669,0.1749 0.3337,0.3529 0.5006,0.5339 0.1669,0.181 0.3338,0.3649 0.5006,0.5517 0.1669,0.1869 0.3338,0.3766 0.5007,0.5691 0.1668,0.1925 0.3337,0.3877 0.5006,0.5857 0.1669,0.198 0.3337,0.3986 0.5006,0.6019 0.1669,0.2032 0.3338,0.409 0.5006,0.6174 0.1669,0.2083 0.3338,0.4191 0.5007,0.6323 0.1668,0.2131 0.3337,0.4287 0.5006,0.6466 0.1668,0.2178 0.3337,0.4379 0.5006,0.6602 0.1669,0.2223 0.3337,0.4467 0.5006,0.6732 0.1669,0.2265 0.3338,0.455 0.5006,0.6855 0.1669,0.2305 0.3338,0.4629 0.5007,0.6972 0.1668,0.2342 0.3337,0.4703 0.5006,0.708 0.1669,0.2378 0.3337,0.4773 0.5006,0.7184 0.1669,0.241 0.3338,0.4837 0.5006,0.7278 0.1669,0.2441 0.3338,0.4897 0.5007,0.7366 0.1668,0.2469 0.3337,0.4951 0.5006,0.7446 0.1669,0.2495 0.3337,0.5002 0.5006,0.752 0.1669,0.2518 0.3338,0.5047 0.5006,0.7585 0.1669,0.2538 0.3338,0.5087 0.5006,0.7643 0.1669,0.2557 0.3338,0.5122 0.5007,0.7694 0.1668,0.2572 0.3337,0.5151 0.5006,0.7736 0.1669,0.2585 0.3337,0.5176 0.5006,0.7772 0.1669,0.2595 0.3338,0.5195 0.5006,0.7798 0.1669,0.2603 0.3338,0.521 0.5007,0.7818 0.1668,0.2609 0.3337,0.5219 0.5006,0.783 0.1669,0.2611 0.3337,0.5223 0.5006,0.7834 0.1669,0.2611 0.3338,0.5221 0.5006,0.783 0.1669,0.2608 0.3338,0.5215 0.5007,0.7818 0.1668,0.2603 0.3337,0.5203 0.5006,0.7799 0.1669,0.2595 0.3337,0.5186 0.5006,0.7771 0.1669,0.2585 0.3338,0.5164 0.5006,0.7736 0.1669,0.2572 0.3338,0.5137 0.5006,0.7694 0.1669,0.2556 0.3338,0.5105 0.5007,0.7643 0.1668,0.2539 0.3337,0.5067 0.5006,0.7585 0.1669,0.2518 0.3337,0.5025 0.5006,0.752 0.1669,0.2495 0.3338,0.4977 0.5006,0.7446 0.1669,0.247 0.3338,0.4925 0.5007,0.7366 0.1668,0.2441 0.3337,0.4868 0.5006,0.7279 0.1669,0.241 0.3337,0.4805 0.5006,0.7183 0.1669,0.2377 0.3338,0.4738 0.5006,0.708 0.1669,0.2343 0.3338,0.4667 0.5007,0.6972 0.1668,0.2305 0.3337,0.459 0.5006,0.6855 0.1669,0.2265 0.3337,0.4509 0.5006,0.6732 0.1669,0.2223 0.3337,0.4424 0.5006,0.6603 0.1669,0.2178 0.3338,0.4334 0.5006,0.6465 0.1669,0.2132 0.3338,0.424 0.5007,0.6324 0.1668,0.2083 0.3337,0.4141 0.5006,0.6173 0.1669,0.2033 0.3337,0.4039 0.5006,0.6019 0.1669,0.198 0.3338,0.3933 0.5006,0.5857 0.1669,0.1925 0.3338,0.3822 0.5007,0.5691 0.1668,0.1868 0.3337,0.3707 0.5006,0.5517 0.1669,0.181 0.3337,0.359 0.5006,0.5339 0.1669,0.175 0.3338,0.3468 0.5006,0.5156 0.1669,0.1687 0.3338,0.3343 0.5007,0.4966 0.1668,0.1624 0.3337,0.3215 0.5006,0.4773 0.1668,0.1558 0.3337,0.3084 0.5006,0.4575 0.1669,0.1491 0.3337,0.2948 0.5006,0.4371 0.1669,0.1423 0.3338,0.2811 0.5006,0.4164 0.1669,0.1353 0.3338,0.2671 0.5007,0.3953 0.1668,0.1282 0.3337,0.2528 0.5006,0.3737 0.1669,0.1209 0.3337,0.2382 0.5006,0.3518 0.1669,0.1135 0.3338,0.2234 0.5006,0.3295 0.1669,0.1061 0.3338,0.2084 0.5007,0.3069 0.1668,0.0985 0.3337,0.1932 0.5006,0.284 0.1669,0.0908 0.3337,0.1778 0.5006,0.2608 0.1669,0.0831 0.3338,0.1622 0.5006,0.2374 0.1669,0.0752 0.3338,0.1464 0.5006,0.2137 0.1669,0.0672 0.3338,0.1305 0.5007,0.1897 0.1668,0.0593 0.3337,0.1145 0.5006,0.1657 0.1669,0.0512 0.3337,0.0984 0.5006,0.1415 0.1669,0.0431 0.3338,0.0821 0.5006,0.117 0.1669,0.035 0.3338,0.0658 0.5007,0.0926 0.1668,0.0267 0.3337,0.0494 0.5006,0.0679 0.1669,0.0185 0.3337,0.033 0.5006,0.0433 0.1669,0.0103 0.3338,0.0164 0.5006,0.0185 0.1669,0.0021 0.3338,0 0.5007,-0.0062 0.1668,-0.0062 0.3337,-0.0165 0.5006,-0.0309 0.1669,-0.0144 0.3337,-0.0329 0.5006,-0.0556 0.1669,-0.0226 0.3337,-0.0494 0.5006,-0.0802 0.1669,-0.0309 0.3338,-0.0658 0.5006,-0.1048 0.1669,-0.0391 0.3338,-0.0822 0.5007,-0.1293 0.1668,-0.0471 0.3337,-0.0984 0.5006,-0.1536 0.1669,-0.0552 0.3337,-0.1145 0.5006,-0.1777 0.1669,-0.0633 0.3338,-0.1306 0.5006,-0.2018 0.1669,-0.0712 0.3338,-0.1464 0.5007,-0.2256 0.1668,-0.0791 0.3337,-0.1621 0.5006,-0.2491 0.1669,-0.0869 0.3337,-0.1778 0.5006,-0.2724 0.1669,-0.0947 0.3338,-0.1932 0.5006,-0.2955 0.1669,-0.1023 0.3338,-0.2084 0.5007,-0.3183 0.1668,-0.1098 0.3337,-0.2234 0.5006,-0.3407 0.1668,-0.1172 0.3337,-0.2382 0.5006,-0.3627 0.1669,-0.1246 0.3337,-0.2528 0.5006,-0.3846 0.1669,-0.1317 0.3338,-0.267 0.5006,-0.4059 0.1669,-0.1388 0.3338,-0.2811 0.5007,-0.4268 0.1668,-0.1457 0.3337,-0.2948 0.5006,-0.4473 0.1669,-0.1525 0.3337,-0.3084 0.5006,-0.4675 0.1669,-0.1591 0.3338,-0.3215 0.5006,-0.487 0.1669,-0.1656 0.3338,-0.3343 0.5007,-0.5062 0.1668,-0.1718 0.3337,-0.3468 0.5006,-0.5248 0.1669,-0.178 0.3337,-0.359 0.5006,-0.5429 0.1669,-0.1839 0.3338,-0.3707 0.5006,-0.5604 0.1669,-0.1897 0.3338,-0.3822 0.5006,-0.5775 0.1669,-0.1952 0.3338,-0.3932 0.5007,-0.5938 0.1668,-0.2007 0.3337,-0.4039 0.5006,-0.6097 0.1669,-0.2059 0.3337,-0.4142 0.5006,-0.625 0.1669,-0.2108 0.3338,-0.424 0.5006,-0.6395 0.1669,-0.2155 0.3338,-0.4334 0.5007,-0.6535 0.1668,-0.2201 0.3337,-0.4424 0.5006,-0.6668 0.1669,-0.2244 0.3337,-0.4509 0.5006,-0.6795 0.1669,-0.2285 0.3338,-0.459 0.5006,-0.6914 0.1669,-0.2324 0.3338,-0.4666 0.5007,-0.7027 0.1668,-0.236 0.3337,-0.4738 0.5006,-0.7133 0.1669,-0.2394 0.3337,-0.4805 0.5006,-0.7231 0.1669,-0.2426 0.3338,-0.4868 0.5006,-0.7323 0.1669,-0.2456 0.3338,-0.4925 0.5006,-0.7407 0.1669,-0.2483 0.3338,-0.4978 0.5007,-0.7484 0.1668,-0.2507 0.3337,-0.5025 0.5006,-0.7554 0.1669,-0.2528 0.3337,-0.5067 0.5006,-0.7615 0.1669,-0.2548 0.3338,-0.5104 0.5006,-0.7669 0.1669,-0.2565 0.3338,-0.5137 0.5007,-0.7716 0.1668,-0.2579 0.3337,-0.5164 0.5006,-0.7755 0.1669,-0.259 0.3337,-0.5186 0.5006,-0.7786 0.1669,-0.26 0.3338,-0.5203 0.5006,-0.7809 0.1669,-0.2606 0.3338,-0.5215 0.5007,-0.7825 0.1668,-0.261 0.3337,-0.5222 0.5006,-0.7833"
       title="sin(x)"
       id="path17"
       inkscape:label="sin" />
  </g>
</svg>
