<?xml version="1.0" encoding="UTF-8" standalone="no"?>
<!-- Created with Inkscape (http://www.inkscape.org/) -->

<svg
   width="100"
   height="100"
   viewBox="0 0 100 100"
   version="1.1"
   id="svg1"
   inkscape:version="1.3.2 (091e20e, 2023-11-25)"
   sodipodi:docname="travelling_v6.DATA.svg"
   xmlns:inkscape="http://www.inkscape.org/namespaces/inkscape"
   xmlns:sodipodi="http://sodipodi.sourceforge.net/DTD/sodipodi-0.dtd"
   xmlns="http://www.w3.org/2000/svg"
   xmlns:svg="http://www.w3.org/2000/svg">
  <sodipodi:namedview
     id="namedview1"
     pagecolor="#ffffff"
     bordercolor="#666666"
     borderopacity="1.0"
     inkscape:showpageshadow="2"
     inkscape:pageopacity="0.0"
     inkscape:pagecheckerboard="0"
     inkscape:deskcolor="#d1d1d1"
     inkscape:document-units="px"
     inkscape:zoom="5.8972706"
     inkscape:cx="50.023141"
     inkscape:cy="51.294916"
     inkscape:window-width="1648"
     inkscape:window-height="867"
     inkscape:window-x="102"
     inkscape:window-y="74"
     inkscape:window-maximized="0"
     inkscape:current-layer="display" />
  <defs
     id="defs1" />
  <g
     inkscape:label="BACK"
     inkscape:groupmode="layer"
     id="layer1"
     sodipodi:insensitive="true"
     style="display:inline">
    <rect
       style="display:inline;fill:#ececec;fill-rule:evenodd;stroke:none;stroke-width:0.33;stroke-linecap:square"
       id="rect1"
       width="100"
       height="100"
       x="0"
       y="0" />
  </g>
  <g
     inkscape:groupmode="layer"
     id="layer3"
     inkscape:label="scraps"
     style="display:none"
     sodipodi:insensitive="true">
    <rect
       style="display:none;fill:none;fill-rule:evenodd;stroke:#00ff00;stroke-width:0.376042;stroke-linecap:square"
       id="rect2"
       width="99.623955"
       height="49.623959"
       x="0.18802114"
       y="25.188023" />
    <path
       style="display:none;fill:none;fill-rule:evenodd;stroke:#ff0000;stroke-width:0.376042;stroke-linecap:square"
       d="M 0.188021,50 C 0.354895,49.7389 0.52177,49.4777 0.688644,49.2167 0.855518,48.9557 1.02239,48.6948 1.18927,48.4342 1.35614,48.1736 1.52302,47.9133 1.68989,47.6533 1.85676,47.3933 2.02364,47.1337 2.19051,46.8747 2.35739,46.6156 2.52426,46.3571 2.69114,46.0992 2.85801,45.8413 3.02488,45.5841 3.19176,45.3276 3.35863,45.0712 3.52551,44.8155 3.69238,44.5607 3.85926,44.3059 4.02613,44.052 4.193,43.7992 4.35988,43.5463 4.52675,43.2945 4.69363,43.0438 4.8605,42.7932 5.02738,42.5437 5.19425,42.2954 5.36112,42.0472 5.528,41.8003 5.69487,41.5547 5.86175,41.3092 6.02862,41.065 6.1955,40.8224 6.36237,40.5798 6.52924,40.3387 6.69612,40.0993 6.86299,39.8598 7.02987,39.622 7.19674,39.386 7.36362,39.1499 7.53049,38.9157 7.69736,38.6833 7.86424,38.4509 8.03111,38.2204 8.19799,37.9919 8.36486,37.7633 8.53174,37.5368 8.69861,37.3124 8.86548,37.088 9.03236,36.8657 9.19923,36.6456 c 0.16688,-0.2201 0.33375,-0.438 0.50063,-0.6535 0.16687,-0.2155 0.33374,-0.4287 0.50064,-0.6395 0.1669,-0.2108 0.3337,-0.4191 0.5006,-0.6249 0.1669,-0.2059 0.3338,-0.4091 0.5006,-0.6098 0.1669,-0.2006 0.3338,-0.3986 0.5006,-0.5938 0.1669,-0.1953 0.3338,-0.3878 0.5007,-0.5775 0.1668,-0.1897 0.3337,-0.3765 0.5006,-0.5604 0.1669,-0.1839 0.3337,-0.3649 0.5006,-0.5429 0.1669,-0.178 0.3338,-0.353 0.5006,-0.5248 0.1669,-0.1719 0.3338,-0.3406 0.5007,-0.5062 0.1668,-0.1655 0.3337,-0.3279 0.5006,-0.487 0.1669,-0.1591 0.3337,-0.315 0.5006,-0.4675 0.1669,-0.1524 0.3338,-0.3016 0.5006,-0.4473 0.1669,-0.1457 0.3338,-0.288 0.5007,-0.4268 0.1668,-0.1388 0.3337,-0.2742 0.5006,-0.4059 0.1669,-0.1318 0.3337,-0.26 0.5006,-0.3845 0.1669,-0.1246 0.3337,-0.2456 0.5006,-0.3628 0.1669,-0.1173 0.3338,-0.2309 0.5006,-0.3407 0.1669,-0.1099 0.3338,-0.216 0.5007,-0.3183 0.1668,-0.1023 0.3337,-0.2008 0.5006,-0.2955 0.1669,-0.0946 0.3337,-0.1855 0.5006,-0.2724 0.1669,-0.087 0.3338,-0.17 0.5006,-0.2491 0.1669,-0.0792 0.3338,-0.1544 0.5007,-0.2256 0.1668,-0.0712 0.3337,-0.1385 0.5006,-0.2017 0.1669,-0.0633 0.3337,-0.1226 0.5006,-0.1778 0.1669,-0.0552 0.3338,-0.1064 0.5006,-0.1536 0.1669,-0.0471 0.3338,-0.0902 0.5007,-0.1293 0.1668,-0.039 0.3337,-0.0739 0.5006,-0.1048 0.1668,-0.0308 0.3337,-0.0576 0.5006,-0.0802 0.1669,-0.0227 0.3337,-0.0412 0.5006,-0.0556 0.1669,-0.0144 0.3338,-0.0247 0.5006,-0.0309 0.1669,-0.0062 0.3338,-0.0083 0.5007,-0.0062 0.1668,0.0021 0.3337,0.0082 0.5006,0.0185 0.1669,0.0103 0.3337,0.0248 0.5006,0.0433 0.1669,0.0185 0.3338,0.0412 0.5006,0.0679 0.1669,0.0268 0.3338,0.0576 0.5007,0.0926 0.1668,0.0349 0.3337,0.0739 0.5006,0.117 0.1669,0.0431 0.3337,0.0903 0.5006,0.1415 0.1669,0.0512 0.3338,0.1064 0.5006,0.1657 0.1669,0.0592 0.3338,0.1225 0.5006,0.1897 0.1669,0.0673 0.3338,0.1385 0.5007,0.2137 0.1668,0.0752 0.3337,0.1543 0.5006,0.2374 0.1669,0.083 0.3337,0.17 0.5006,0.2608 0.1669,0.0908 0.3338,0.1855 0.5006,0.284 0.1669,0.0985 0.3338,0.2008 0.5007,0.3069 0.1668,0.1061 0.3337,0.216 0.5006,0.3295 0.1669,0.1136 0.3337,0.2309 0.5006,0.3518 0.1669,0.121 0.3338,0.2455 0.5006,0.3737 0.1669,0.1282 0.3338,0.26 0.5007,0.3953 0.1668,0.1353 0.3337,0.2741 0.5006,0.4164 0.1669,0.1423 0.3337,0.288 0.5006,0.4371 0.1669,0.1492 0.3337,0.3017 0.5006,0.4575 0.1669,0.1558 0.3338,0.3149 0.5006,0.4773 0.1669,0.1623 0.3338,0.3279 0.5007,0.4966 0.1668,0.1688 0.3337,0.3407 0.5006,0.5156 0.1669,0.1749 0.3337,0.3529 0.5006,0.5339 0.1669,0.181 0.3338,0.3649 0.5006,0.5517 0.1669,0.1869 0.3338,0.3766 0.5007,0.5691 0.1668,0.1925 0.3337,0.3877 0.5006,0.5857 0.1669,0.198 0.3337,0.3986 0.5006,0.6019 0.1669,0.2032 0.3338,0.409 0.5006,0.6174 0.1669,0.2083 0.3338,0.4191 0.5007,0.6323 0.1668,0.2131 0.3337,0.4287 0.5006,0.6466 0.1668,0.2178 0.3337,0.4379 0.5006,0.6602 0.1669,0.2223 0.3337,0.4467 0.5006,0.6732 0.1669,0.2265 0.3338,0.455 0.5006,0.6855 0.1669,0.2305 0.3338,0.4629 0.5007,0.6972 0.1668,0.2342 0.3337,0.4703 0.5006,0.708 0.1669,0.2378 0.3337,0.4773 0.5006,0.7184 0.1669,0.241 0.3338,0.4837 0.5006,0.7278 0.1669,0.2441 0.3338,0.4897 0.5007,0.7366 0.1668,0.2469 0.3337,0.4951 0.5006,0.7446 0.1669,0.2495 0.3337,0.5002 0.5006,0.752 0.1669,0.2518 0.3338,0.5047 0.5006,0.7585 0.1669,0.2538 0.3338,0.5087 0.5006,0.7643 0.1669,0.2557 0.3338,0.5122 0.5007,0.7694 0.1668,0.2572 0.3337,0.5151 0.5006,0.7736 0.1669,0.2585 0.3337,0.5176 0.5006,0.7772 0.1669,0.2595 0.3338,0.5195 0.5006,0.7798 0.1669,0.2603 0.3338,0.521 0.5007,0.7818 0.1668,0.2609 0.3337,0.5219 0.5006,0.783 0.1669,0.2611 0.3337,0.5223 0.5006,0.7834 0.1669,0.2611 0.3338,0.5221 0.5006,0.783 0.1669,0.2608 0.3338,0.5215 0.5007,0.7818 0.1668,0.2603 0.3337,0.5203 0.5006,0.7799 0.1669,0.2595 0.3337,0.5186 0.5006,0.7771 0.1669,0.2585 0.3338,0.5164 0.5006,0.7736 0.1669,0.2572 0.3338,0.5137 0.5006,0.7694 0.1669,0.2556 0.3338,0.5105 0.5007,0.7643 0.1668,0.2539 0.3337,0.5067 0.5006,0.7585 0.1669,0.2518 0.3337,0.5025 0.5006,0.752 0.1669,0.2495 0.3338,0.4977 0.5006,0.7446 0.1669,0.247 0.3338,0.4925 0.5007,0.7366 0.1668,0.2441 0.3337,0.4868 0.5006,0.7279 0.1669,0.241 0.3337,0.4805 0.5006,0.7183 0.1669,0.2377 0.3338,0.4738 0.5006,0.708 0.1669,0.2343 0.3338,0.4667 0.5007,0.6972 0.1668,0.2305 0.3337,0.459 0.5006,0.6855 0.1669,0.2265 0.3337,0.4509 0.5006,0.6732 0.1669,0.2223 0.3337,0.4424 0.5006,0.6603 0.1669,0.2178 0.3338,0.4334 0.5006,0.6465 0.1669,0.2132 0.3338,0.424 0.5007,0.6324 0.1668,0.2083 0.3337,0.4141 0.5006,0.6173 0.1669,0.2033 0.3337,0.4039 0.5006,0.6019 0.1669,0.198 0.3338,0.3933 0.5006,0.5857 0.1669,0.1925 0.3338,0.3822 0.5007,0.5691 0.1668,0.1868 0.3337,0.3707 0.5006,0.5517 0.1669,0.181 0.3337,0.359 0.5006,0.5339 0.1669,0.175 0.3338,0.3468 0.5006,0.5156 0.1669,0.1687 0.3338,0.3343 0.5007,0.4966 0.1668,0.1624 0.3337,0.3215 0.5006,0.4773 0.1668,0.1558 0.3337,0.3084 0.5006,0.4575 0.1669,0.1491 0.3337,0.2948 0.5006,0.4371 0.1669,0.1423 0.3338,0.2811 0.5006,0.4164 0.1669,0.1353 0.3338,0.2671 0.5007,0.3953 0.1668,0.1282 0.3337,0.2528 0.5006,0.3737 0.1669,0.1209 0.3337,0.2382 0.5006,0.3518 0.1669,0.1135 0.3338,0.2234 0.5006,0.3295 0.1669,0.1061 0.3338,0.2084 0.5007,0.3069 0.1668,0.0985 0.3337,0.1932 0.5006,0.284 0.1669,0.0908 0.3337,0.1778 0.5006,0.2608 0.1669,0.0831 0.3338,0.1622 0.5006,0.2374 0.1669,0.0752 0.3338,0.1464 0.5006,0.2137 0.1669,0.0672 0.3338,0.1305 0.5007,0.1897 0.1668,0.0593 0.3337,0.1145 0.5006,0.1657 0.1669,0.0512 0.3337,0.0984 0.5006,0.1415 0.1669,0.0431 0.3338,0.0821 0.5006,0.117 0.1669,0.035 0.3338,0.0658 0.5007,0.0926 0.1668,0.0267 0.3337,0.0494 0.5006,0.0679 0.1669,0.0185 0.3337,0.033 0.5006,0.0433 0.1669,0.0103 0.3338,0.0164 0.5006,0.0185 0.1669,0.0021 0.3338,0 0.5007,-0.0062 0.1668,-0.0062 0.3337,-0.0165 0.5006,-0.0309 0.1669,-0.0144 0.3337,-0.0329 0.5006,-0.0556 0.1669,-0.0226 0.3337,-0.0494 0.5006,-0.0802 0.1669,-0.0309 0.3338,-0.0658 0.5006,-0.1048 0.1669,-0.0391 0.3338,-0.0822 0.5007,-0.1293 0.1668,-0.0471 0.3337,-0.0984 0.5006,-0.1536 0.1669,-0.0552 0.3337,-0.1145 0.5006,-0.1777 0.1669,-0.0633 0.3338,-0.1306 0.5006,-0.2018 0.1669,-0.0712 0.3338,-0.1464 0.5007,-0.2256 0.1668,-0.0791 0.3337,-0.1621 0.5006,-0.2491 0.1669,-0.0869 0.3337,-0.1778 0.5006,-0.2724 0.1669,-0.0947 0.3338,-0.1932 0.5006,-0.2955 0.1669,-0.1023 0.3338,-0.2084 0.5007,-0.3183 0.1668,-0.1098 0.3337,-0.2234 0.5006,-0.3407 0.1668,-0.1172 0.3337,-0.2382 0.5006,-0.3627 0.1669,-0.1246 0.3337,-0.2528 0.5006,-0.3846 0.1669,-0.1317 0.3338,-0.267 0.5006,-0.4059 0.1669,-0.1388 0.3338,-0.2811 0.5007,-0.4268 0.1668,-0.1457 0.3337,-0.2948 0.5006,-0.4473 0.1669,-0.1525 0.3337,-0.3084 0.5006,-0.4675 0.1669,-0.1591 0.3338,-0.3215 0.5006,-0.487 0.1669,-0.1656 0.3338,-0.3343 0.5007,-0.5062 0.1668,-0.1718 0.3337,-0.3468 0.5006,-0.5248 0.1669,-0.178 0.3337,-0.359 0.5006,-0.5429 0.1669,-0.1839 0.3338,-0.3707 0.5006,-0.5604 0.1669,-0.1897 0.3338,-0.3822 0.5006,-0.5775 0.1669,-0.1952 0.3338,-0.3932 0.5007,-0.5938 0.1668,-0.2007 0.3337,-0.4039 0.5006,-0.6097 0.1669,-0.2059 0.3337,-0.4142 0.5006,-0.625 0.1669,-0.2108 0.3338,-0.424 0.5006,-0.6395 0.1669,-0.2155 0.3338,-0.4334 0.5007,-0.6535 0.1668,-0.2201 0.3337,-0.4424 0.5006,-0.6668 0.1669,-0.2244 0.3337,-0.4509 0.5006,-0.6795 0.1669,-0.2285 0.3338,-0.459 0.5006,-0.6914 0.1669,-0.2324 0.3338,-0.4666 0.5007,-0.7027 0.1668,-0.236 0.3337,-0.4738 0.5006,-0.7133 0.1669,-0.2394 0.3337,-0.4805 0.5006,-0.7231 0.1669,-0.2426 0.3338,-0.4868 0.5006,-0.7323 0.1669,-0.2456 0.3338,-0.4925 0.5006,-0.7407 0.1669,-0.2483 0.3338,-0.4978 0.5007,-0.7484 0.1668,-0.2507 0.3337,-0.5025 0.5006,-0.7554 0.1669,-0.2528 0.3337,-0.5067 0.5006,-0.7615 0.1669,-0.2548 0.3338,-0.5104 0.5006,-0.7669 0.1669,-0.2565 0.3338,-0.5137 0.5007,-0.7716 0.1668,-0.2579 0.3337,-0.5164 0.5006,-0.7755 0.1669,-0.259 0.3337,-0.5186 0.5006,-0.7786 0.1669,-0.26 0.3338,-0.5203 0.5006,-0.7809 0.1669,-0.2606 0.3338,-0.5215 0.5007,-0.7825 0.1668,-0.261 0.3337,-0.5222 0.5006,-0.7833"
       title="sin(x)"
       id="path2"
       inkscape:label="sin" />
    <path
       style="display:none;fill:none;fill-rule:evenodd;stroke:#00ff00;stroke-width:0.376042;stroke-linecap:square"
       d="m 0.188021,74.810441 c 0.166874,0.2611 0.333749,-0.2734 0.500623,-0.0124 0.166874,0.261 0.333746,-0.2977 0.500626,-0.0371 0.16687,0.2606 0.33375,-0.3217 0.50062,-0.0617 0.16687,0.2599 0.33375,-0.3455 0.50062,-0.0864 0.16688,0.259 0.33375,-0.3689 0.50063,-0.111 0.16687,0.2579 0.33374,-0.3918 0.50062,-0.1353 0.16687,0.2564 0.33375,-0.4145 0.50062,-0.1597 0.16688,0.2548 0.33375,-0.4366 0.50062,-0.1837 0.16688,0.2528 0.33375,-0.4584 0.50063,-0.2078 0.16687,0.2507 0.33375,-0.4797 0.50062,-0.2314 0.16687,0.2482 0.33375,-0.5006 0.50062,-0.255 0.16688,0.2455 0.33375,-0.5209 0.50063,-0.2783 0.16687,0.2427 0.33374,-0.5406 0.50062,-0.3012 0.16687,0.2395 0.33375,-0.5599 0.50062,-0.3239 0.16688,0.2361 0.33375,-0.5786 0.50062,-0.3462 0.16688,0.2324 0.33375,-0.5968 0.50063,-0.3683 0.16687,0.2286 0.33375,-0.6143 0.50062,-0.3899 0.16687,0.2245 0.33375,-0.6312 0.50062,-0.4111 0.16688,0.2201 0.33375,-0.6476 0.50063,-0.432 0.16687,0.2155 0.33374,-0.6632 0.50064,-0.4524 0.1669,0.2107 0.3337,-0.6782 0.5006,-0.4724 0.1669,0.2058 0.3338,-0.6925 0.5006,-0.4919 0.1669,0.2006 0.3338,-0.7061 0.5006,-0.5109 0.1669,0.1953 0.3338,-0.719 0.5007,-0.5293 0.1668,0.1897 0.3337,-0.7313 0.5006,-0.5474 0.1669,0.184 0.3337,-0.7427 0.5006,-0.5647 0.1669,0.178 0.3338,-0.7535 0.5006,-0.5816 0.1669,0.1718 0.3338,-0.7635 0.5007,-0.5979 0.1668,0.1655 0.3337,-0.7727 0.5006,-0.6136 0.1669,0.1591 0.3337,-0.7811 0.5006,-0.6286 0.1669,0.1525 0.3338,-0.7888 0.5006,-0.6431 0.1669,0.1457 0.3338,-0.7957 0.5007,-0.6569 0.1668,0.1388 0.3337,-0.8018 0.5006,-0.67 0.1669,0.1317 0.3337,-0.8071 0.5006,-0.6825 0.1669,0.1246 0.3337,-0.8116 0.5006,-0.6943 0.1669,0.1172 0.3338,-0.8153 0.5006,-0.7054 0.1669,0.1098 0.3338,-0.8182 0.5007,-0.7159 0.1668,0.1024 0.3337,-0.8201 0.5006,-0.7255 0.1669,0.0947 0.3337,-0.8214 0.5006,-0.7344 0.1669,0.0869 0.3338,-0.8219 0.5006,-0.7427 0.1669,0.0791 0.3338,-0.8215 0.5007,-0.7502 0.1668,0.0712 0.3337,-0.8203 0.5006,-0.757 0.1669,0.0633 0.3337,-0.8182 0.5006,-0.7629 0.1669,0.0552 0.3338,-0.8154 0.5006,-0.7682 0.1669,0.0471 0.3338,-0.8117 0.5007,-0.7726 0.1668,0.039 0.3337,-0.8072 0.5006,-0.7764 0.1668,0.0309 0.3337,-0.8019 0.5006,-0.7792 0.1669,0.0226 0.3337,-0.7959 0.5006,-0.7814 0.1669,0.0144 0.3338,-0.789 0.5006,-0.7828 0.1669,0.0062 0.3338,-0.7813 0.5007,-0.7834 0.1668,-0.002 0.3337,-0.7728 0.5006,-0.7831 0.1669,-0.0103 0.3337,-0.7637 0.5006,-0.7822 0.1669,-0.0185 0.3338,-0.7537 0.5006,-0.7804 0.1669,-0.0268 0.3338,-0.743 0.5007,-0.7779 0.1668,-0.0349 0.3337,-0.7315 0.5006,-0.7746 0.1669,-0.0431 0.3337,-0.7193 0.5006,-0.7705 0.1669,-0.0512 0.3338,-0.7064 0.5006,-0.7656 0.1669,-0.0593 0.3338,-0.6928 0.5006,-0.7601 0.1669,-0.0672 0.3338,-0.6785 0.5007,-0.7536 0.1668,-0.0752 0.3337,-0.6636 0.5006,-0.7466 0.1669,-0.083 0.3337,-0.6479 0.5006,-0.7387 0.1669,-0.0908 0.3338,-0.6316 0.5006,-0.7301 0.1669,-0.0985 0.3338,-0.6146 0.5007,-0.7207 0.1668,-0.1061 0.3337,-0.5972 0.5006,-0.7107 0.1669,-0.1136 0.3337,-0.579 0.5006,-0.7 0.1669,-0.1209 0.3338,-0.5603 0.5006,-0.6885 0.1669,-0.1281 0.3338,-0.541 0.5007,-0.6763 0.1668,-0.1353 0.3337,-0.5213 0.5006,-0.6635 0.1669,-0.1423 0.3337,-0.501 0.5006,-0.6501 0.1669,-0.1491 0.3337,-0.4801 0.5006,-0.6359 0.1669,-0.1559 0.3338,-0.4589 0.5006,-0.6212 0.1669,-0.1624 0.3338,-0.4371 0.5007,-0.6058 0.1668,-0.1688 0.3337,-0.4149 0.5006,-0.5899 0.1669,-0.1749 0.3337,-0.3922 0.5006,-0.5732 0.1669,-0.181 0.3338,-0.3693 0.5006,-0.5561 0.1669,-0.1868 0.3338,-0.3459 0.5007,-0.5384 0.1668,-0.1925 0.3337,-0.3223 0.5006,-0.5202 0.1669,-0.198 0.3337,-0.2982 0.5006,-0.5015 0.1669,-0.2032 0.3338,-0.2738 0.5006,-0.4821 0.1669,-0.2084 0.3338,-0.2493 0.5007,-0.4625 0.1668,-0.2132 0.3337,-0.2244 0.5006,-0.4423 0.1668,-0.2178 0.3337,-0.1993 0.5006,-0.4216 0.1669,-0.2223 0.3337,-0.1741 0.5006,-0.4006 0.1669,-0.2265 0.3338,-0.1486 0.5006,-0.3791 0.1669,-0.2305 0.3338,-0.1231 0.5007,-0.3573 0.1668,-0.2342 0.3337,-0.0973 0.5006,-0.3351 0.1669,-0.2378 0.3337,-0.0715 0.5006,-0.3126 0.1669,-0.2411 0.3338,-0.0456 0.5006,-0.2898 0.1669,-0.2441 0.3338,-0.0197 0.5007,-0.2666 0.1668,-0.2469 0.3337,0.0062 0.5006,-0.2433 0.1669,-0.2494 0.3337,0.0322 0.5006,-0.2196 0.1669,-0.2518 0.3338,0.0581 0.5006,-0.1958 0.1669,-0.2538 0.3338,0.084 0.5006,-0.1717 0.1669,-0.2556 0.3338,0.1097 0.5007,-0.1475 0.1668,-0.2572 0.3337,0.1353 0.5006,-0.1232 0.1669,-0.2585 0.3337,0.1609 0.5006,-0.0986 0.1669,-0.2596 0.3338,0.1862 0.5006,-0.0741 0.1669,-0.2603 0.3338,0.2114 0.5007,-0.0495 0.1668,-0.2608 0.3337,0.2364 0.5006,-0.0247 0.1669,-0.2611 0.3337,0.2611 0.5006,0 0.1669,-0.2611 0.3338,0.2856 0.5006,0.0247 0.1669,-0.2608 0.3338,0.3098 0.5007,0.0495 0.1668,-0.2603 0.3337,0.3336 0.5006,0.0741 0.1669,-0.2596 0.3337,0.3571 0.5006,0.0986 0.1669,-0.2585 0.3338,0.3804 0.5006,0.1232 0.1669,-0.2572 0.3338,0.4032 0.5006,0.1475 0.1669,-0.2556 0.3338,0.4256 0.5007,0.1717 0.1668,-0.2538 0.3337,0.4476 0.5006,0.1958 0.1669,-0.2518 0.3337,0.4691 0.5006,0.2196 0.1669,-0.2494 0.3338,0.4902 0.5006,0.2433 0.1669,-0.2469 0.3338,0.5108 0.5007,0.2666 0.1668,-0.2441 0.3337,0.5309 0.5006,0.2898 0.1669,-0.2411 0.3337,0.5504 0.5006,0.3126 0.1669,-0.2378 0.3338,0.5693 0.5006,0.3351 0.1669,-0.2342 0.3338,0.5878 0.5007,0.3573 0.1668,-0.2305 0.3337,0.6056 0.5006,0.3791 0.1669,-0.2265 0.3337,0.6229 0.5006,0.4006 0.1669,-0.2223 0.3337,0.6395 0.5006,0.4216 0.1669,-0.2178 0.3338,0.6555 0.5006,0.4423 0.1669,-0.2132 0.3338,0.6708 0.5007,0.4625 0.1668,-0.2084 0.3337,0.6854 0.5006,0.4821 0.1669,-0.2032 0.3337,0.6994 0.5006,0.5015 0.1669,-0.198 0.3338,0.7127 0.5006,0.5202 0.1669,-0.1925 0.3338,0.7252 0.5007,0.5384 0.1668,-0.1868 0.3337,0.7371 0.5006,0.5561 0.1669,-0.181 0.3337,0.7482 0.5006,0.5732 0.1669,-0.1749 0.3338,0.7586 0.5006,0.5899 0.1669,-0.1688 0.3338,0.7681 0.5007,0.6058 0.1668,-0.1624 0.3337,0.777 0.5006,0.6212 0.1668,-0.1559 0.3337,0.785 0.5006,0.6359 0.1669,-0.1491 0.3337,0.7923 0.5006,0.6501 0.1669,-0.1423 0.3338,0.7988 0.5006,0.6635 0.1669,-0.1353 0.3338,0.8045 0.5007,0.6763 0.1668,-0.1281 0.3337,0.8095 0.5006,0.6885 0.1669,-0.1209 0.3337,0.8135 0.5006,0.7 0.1669,-0.1136 0.3338,0.8168 0.5006,0.7107 0.1669,-0.1061 0.3338,0.8192 0.5007,0.7207 0.1668,-0.0985 0.3337,0.8209 0.5006,0.7301 0.1669,-0.0908 0.3337,0.8217 0.5006,0.7387 0.1669,-0.083 0.3338,0.8217 0.5006,0.7466 0.1669,-0.0752 0.3338,0.8209 0.5006,0.7536 0.1669,-0.0672 0.3338,0.8193 0.5007,0.7601 0.1668,-0.0593 0.3337,0.8168 0.5006,0.7656 0.1669,-0.0512 0.3337,0.8136 0.5006,0.7705 0.1669,-0.0431 0.3338,0.8095 0.5006,0.7746 0.1669,-0.0349 0.3338,0.8046 0.5007,0.7779 0.1668,-0.0268 0.3337,0.7989 0.5006,0.7804 0.1669,-0.0185 0.3337,0.7925 0.5006,0.7822 0.1669,-0.0103 0.3338,0.7852 0.5006,0.7831 0.1669,-0.002 0.3338,0.7772 0.5007,0.7834 0.1668,0.0062 0.3337,0.7683 0.5006,0.7828 0.1669,0.0144 0.3337,0.7587 0.5006,0.7814 0.1669,0.0226 0.3337,0.7484 0.5006,0.7792 0.1669,0.0309 0.3338,0.7373 0.5006,0.7764 0.1669,0.039 0.3338,0.7254 0.5007,0.7726 0.1668,0.0471 0.3337,0.7129 0.5006,0.7682 0.1669,0.0552 0.3337,0.6996 0.5006,0.7629 0.1669,0.0633 0.3338,0.6857 0.5006,0.757 0.1669,0.0712 0.3338,0.671 0.5007,0.7502 0.1668,0.0791 0.3337,0.6557 0.5006,0.7427 0.1669,0.0869 0.3337,0.6398 0.5006,0.7344 0.1669,0.0947 0.3338,0.6232 0.5006,0.7255 0.1669,0.1024 0.3338,0.606 0.5007,0.7159 0.1668,0.1098 0.3337,0.5881 0.5006,0.7054 0.1668,0.1172 0.3337,0.5697 0.5006,0.6943 0.1669,0.1246 0.3337,0.5507 0.5006,0.6825 0.1669,0.1317 0.3338,0.5312 0.5006,0.67 0.1669,0.1388 0.3338,0.5112 0.5007,0.6569 0.1668,0.1457 0.3337,0.4906 0.5006,0.6431 0.1669,0.1525 0.3337,0.4695 0.5006,0.6286 0.1669,0.1591 0.3338,0.448 0.5006,0.6136 0.1669,0.1655 0.3338,0.426 0.5007,0.5979 0.1668,0.1718 0.3337,0.4036 0.5006,0.5816 0.1669,0.178 0.3337,0.3808 0.5006,0.5647 0.1669,0.184 0.3338,0.3577 0.5006,0.5474 0.1669,0.1897 0.3338,0.3341 0.5006,0.5293 0.1669,0.1953 0.3338,0.3103 0.5007,0.5109 0.1668,0.2006 0.3337,0.2861 0.5006,0.4919 0.1669,0.2058 0.3337,0.2616 0.5006,0.4724 0.1669,0.2107 0.3338,0.2368 0.5006,0.4524 0.1669,0.2155 0.3338,0.2119 0.5007,0.432 0.1668,0.2201 0.3337,0.1867 0.5006,0.4111 0.1669,0.2245 0.3337,0.1614 0.5006,0.3899 0.1669,0.2286 0.3338,0.1359 0.5006,0.3683 0.1669,0.2324 0.3338,0.1102 0.5007,0.3462 0.1668,0.2361 0.3337,0.0845 0.5006,0.3239 0.1669,0.2395 0.3337,0.0586 0.5006,0.3012 0.1669,0.2427 0.3338,0.0327 0.5006,0.2783 0.1669,0.2455 0.3338,0.0067 0.5006,0.255 0.1669,0.2482 0.3338,-0.0192 0.5007,0.2314 0.1668,0.2507 0.3337,-0.0451 0.5006,0.2078 0.1669,0.2528 0.3337,-0.0711 0.5006,0.1837 0.1669,0.2548 0.3338,-0.0968 0.5006,0.1597 0.1669,0.2564 0.3338,-0.1226 0.5007,0.1353 0.1668,0.2579 0.3337,-0.1481 0.5006,0.111 0.1669,0.259 0.3337,-0.1736 0.5006,0.0864 0.1669,0.2599 0.3338,-0.1989 0.5006,0.0617 0.1669,0.2606 0.3338,-0.2239 0.5007,0.0371 0.1668,0.261 0.3337,-0.2488 0.5006,0.0124"
       title="cos(x)"
       id="path5"
       inkscape:label="cos_anti" />
    <path
       style="display:none;fill:none;fill-rule:evenodd;stroke:#00ff00;stroke-width:0.376042;stroke-linecap:square"
       d="m 0.188021,50 c 0.166874,0.2611 0.333749,0.5223 0.500623,0.7833 0.166874,0.261 0.333746,0.5219 0.500626,0.7825 0.16687,0.2606 0.33375,0.5209 0.50062,0.7809 0.16687,0.26 0.33375,0.5196 0.50062,0.7786 0.16688,0.2591 0.33375,0.5176 0.50063,0.7755 0.16687,0.2579 0.33374,0.5151 0.50062,0.7716 0.16687,0.2564 0.33375,0.5121 0.50062,0.7669 0.16688,0.2548 0.33375,0.5087 0.50062,0.7615 0.16688,0.2529 0.33375,0.5047 0.50063,0.7554 0.16687,0.2506 0.33375,0.5001 0.50062,0.7484 0.16687,0.2482 0.33375,0.4951 0.50062,0.7407 0.16688,0.2455 0.33375,0.4897 0.50063,0.7323 0.16687,0.2426 0.33374,0.4837 0.50062,0.7231 0.16687,0.2395 0.33375,0.4773 0.50062,0.7133 0.16688,0.2361 0.33375,0.4703 0.50062,0.7027 0.16688,0.2324 0.33375,0.4629 0.50063,0.6914 0.16687,0.2286 0.33375,0.4551 0.50062,0.6795 0.16687,0.2244 0.33375,0.4467 0.50062,0.6668 0.16688,0.2201 0.33375,0.438 0.50063,0.6535 0.16687,0.2155 0.33374,0.4287 0.50064,0.6395 0.1669,0.2108 0.3337,0.4191 0.5006,0.6249 0.1669,0.2059 0.3338,0.4091 0.5006,0.6098 0.1669,0.2006 0.3338,0.3986 0.5006,0.5938 0.1669,0.1953 0.3338,0.3878 0.5007,0.5775 0.1668,0.1897 0.3337,0.3765 0.5006,0.5604 0.1669,0.1839 0.3337,0.3649 0.5006,0.5429 0.1669,0.178 0.3338,0.353 0.5006,0.5248 0.1669,0.1719 0.3338,0.3406 0.5007,0.5062 0.1668,0.1655 0.3337,0.3279 0.5006,0.487 0.1669,0.1591 0.3337,0.315 0.5006,0.4675 0.1669,0.1524 0.3338,0.3016 0.5006,0.4473 0.1669,0.1457 0.3338,0.288 0.5007,0.4268 0.1668,0.1388 0.3337,0.2742 0.5006,0.4059 0.1669,0.1318 0.3337,0.26 0.5006,0.3845 0.1669,0.1246 0.3337,0.2456 0.5006,0.3628 0.1669,0.1173 0.3338,0.2309 0.5006,0.3407 0.1669,0.1099 0.3338,0.216 0.5007,0.3183 0.1668,0.1023 0.3337,0.2008 0.5006,0.2955 0.1669,0.0946 0.3337,0.1855 0.5006,0.2724 0.1669,0.087 0.3338,0.17 0.5006,0.2491 0.1669,0.0792 0.3338,0.1544 0.5007,0.2256 0.1668,0.0712 0.3337,0.1385 0.5006,0.2017 0.1669,0.0633 0.3337,0.1226 0.5006,0.1778 0.1669,0.0552 0.3338,0.1064 0.5006,0.1536 0.1669,0.0471 0.3338,0.0902 0.5007,0.1293 0.1668,0.039 0.3337,0.0739 0.5006,0.1048 0.1668,0.0308 0.3337,0.0576 0.5006,0.0802 0.1669,0.0227 0.3337,0.0412 0.5006,0.0556 0.1669,0.0144 0.3338,0.0247 0.5006,0.0309 0.1669,0.0062 0.3338,0.0083 0.5007,0.0062 0.1668,-0.0021 0.3337,-0.0082 0.5006,-0.0185 0.1669,-0.0103 0.3337,-0.0248 0.5006,-0.0433 0.1669,-0.0185 0.3338,-0.0412 0.5006,-0.0679 0.1669,-0.0268 0.3338,-0.0576 0.5007,-0.0926 0.1668,-0.0349 0.3337,-0.0739 0.5006,-0.117 0.1669,-0.0431 0.3337,-0.0903 0.5006,-0.1415 0.1669,-0.0512 0.3338,-0.1064 0.5006,-0.1657 0.1669,-0.0592 0.3338,-0.1225 0.5006,-0.1897 0.1669,-0.0673 0.3338,-0.1385 0.5007,-0.2137 0.1668,-0.0752 0.3337,-0.1543 0.5006,-0.2374 0.1669,-0.083 0.3337,-0.17 0.5006,-0.2608 0.1669,-0.0908 0.3338,-0.1855 0.5006,-0.284 0.1669,-0.0985 0.3338,-0.2008 0.5007,-0.3069 0.1668,-0.1061 0.3337,-0.216 0.5006,-0.3295 0.1669,-0.1136 0.3337,-0.2309 0.5006,-0.3518 0.1669,-0.121 0.3338,-0.2455 0.5006,-0.3737 0.1669,-0.1282 0.3338,-0.26 0.5007,-0.3953 0.1668,-0.1353 0.3337,-0.2741 0.5006,-0.4164 0.1669,-0.1423 0.3337,-0.288 0.5006,-0.4371 0.1669,-0.1492 0.3337,-0.3017 0.5006,-0.4575 0.1669,-0.1558 0.3338,-0.3149 0.5006,-0.4773 0.1669,-0.1623 0.3338,-0.3279 0.5007,-0.4966 0.1668,-0.1688 0.3337,-0.3407 0.5006,-0.5156 0.1669,-0.1749 0.3337,-0.3529 0.5006,-0.5339 0.1669,-0.181 0.3338,-0.3649 0.5006,-0.5517 0.1669,-0.1869 0.3338,-0.3766 0.5007,-0.5691 0.1668,-0.1925 0.3337,-0.3877 0.5006,-0.5857 0.1669,-0.198 0.3337,-0.3986 0.5006,-0.6019 0.1669,-0.2032 0.3338,-0.409 0.5006,-0.6174 0.1669,-0.2083 0.3338,-0.4191 0.5007,-0.6323 0.1668,-0.2131 0.3337,-0.4287 0.5006,-0.6466 0.1668,-0.2178 0.3337,-0.4379 0.5006,-0.6602 0.1669,-0.2223 0.3337,-0.4467 0.5006,-0.6732 0.1669,-0.2265 0.3338,-0.455 0.5006,-0.6855 0.1669,-0.2305 0.3338,-0.4629 0.5007,-0.6972 0.1668,-0.2342 0.3337,-0.4703 0.5006,-0.708 0.1669,-0.2378 0.3337,-0.4773 0.5006,-0.7184 0.1669,-0.241 0.3338,-0.4837 0.5006,-0.7278 0.1669,-0.2441 0.3338,-0.4897 0.5007,-0.7366 0.1668,-0.2469 0.3337,-0.4951 0.5006,-0.7446 0.1669,-0.2495 0.3337,-0.5002 0.5006,-0.752 0.1669,-0.2518 0.3338,-0.5047 0.5006,-0.7585 0.1669,-0.2538 0.3338,-0.5087 0.5006,-0.7643 0.1669,-0.2557 0.3338,-0.5122 0.5007,-0.7694 0.1668,-0.2572 0.3337,-0.5151 0.5006,-0.7736 0.1669,-0.2585 0.3337,-0.5176 0.5006,-0.7772 0.1669,-0.2595 0.3338,-0.5195 0.5006,-0.7798 0.1669,-0.2603 0.3338,-0.521 0.5007,-0.7818 0.1668,-0.2609 0.3337,-0.5219 0.5006,-0.783 0.1669,-0.2611 0.3337,-0.5223 0.5006,-0.7834 0.1669,-0.2611 0.3338,-0.5221 0.5006,-0.783 0.1669,-0.2608 0.3338,-0.5215 0.5007,-0.7818 0.1668,-0.2603 0.3337,-0.5203 0.5006,-0.7799 0.1669,-0.2595 0.3337,-0.5186 0.5006,-0.7771 0.1669,-0.2585 0.3338,-0.5164 0.5006,-0.7736 0.1669,-0.2572 0.3338,-0.5137 0.5006,-0.7694 0.1669,-0.2556 0.3338,-0.5105 0.5007,-0.7643 0.1668,-0.2539 0.3337,-0.5067 0.5006,-0.7585 0.1669,-0.2518 0.3337,-0.5025 0.5006,-0.752 0.1669,-0.2495 0.3338,-0.4977 0.5006,-0.7446 0.1669,-0.247 0.3338,-0.4925 0.5007,-0.7366 0.1668,-0.2441 0.3337,-0.4868 0.5006,-0.7279 0.1669,-0.241 0.3337,-0.4805 0.5006,-0.7183 0.1669,-0.2377 0.3338,-0.4738 0.5006,-0.708 0.1669,-0.2343 0.3338,-0.4667 0.5007,-0.6972 0.1668,-0.2305 0.3337,-0.459 0.5006,-0.6855 0.1669,-0.2265 0.3337,-0.4509 0.5006,-0.6732 0.1669,-0.2223 0.3337,-0.4424 0.5006,-0.6603 0.1669,-0.2178 0.3338,-0.4334 0.5006,-0.6465 0.1669,-0.2132 0.3338,-0.424 0.5007,-0.6324 0.1668,-0.2083 0.3337,-0.4141 0.5006,-0.6173 0.1669,-0.2033 0.3337,-0.4039 0.5006,-0.6019 0.1669,-0.198 0.3338,-0.3933 0.5006,-0.5857 0.1669,-0.1925 0.3338,-0.3822 0.5007,-0.5691 0.1668,-0.1868 0.3337,-0.3707 0.5006,-0.5517 0.1669,-0.181 0.3337,-0.359 0.5006,-0.5339 0.1669,-0.175 0.3338,-0.3468 0.5006,-0.5156 0.1669,-0.1687 0.3338,-0.3343 0.5007,-0.4966 0.1668,-0.1624 0.3337,-0.3215 0.5006,-0.4773 0.1668,-0.1558 0.3337,-0.3084 0.5006,-0.4575 0.1669,-0.1491 0.3337,-0.2948 0.5006,-0.4371 0.1669,-0.1423 0.3338,-0.2811 0.5006,-0.4164 0.1669,-0.1353 0.3338,-0.2671 0.5007,-0.3953 0.1668,-0.1282 0.3337,-0.2528 0.5006,-0.3737 0.1669,-0.1209 0.3337,-0.2382 0.5006,-0.3518 0.1669,-0.1135 0.3338,-0.2234 0.5006,-0.3295 0.1669,-0.1061 0.3338,-0.2084 0.5007,-0.3069 0.1668,-0.0985 0.3337,-0.1932 0.5006,-0.284 0.1669,-0.0908 0.3337,-0.1778 0.5006,-0.2608 0.1669,-0.0831 0.3338,-0.1622 0.5006,-0.2374 0.1669,-0.0752 0.3338,-0.1464 0.5006,-0.2137 0.1669,-0.0672 0.3338,-0.1305 0.5007,-0.1897 0.1668,-0.0593 0.3337,-0.1145 0.5006,-0.1657 0.1669,-0.0512 0.3337,-0.0984 0.5006,-0.1415 0.1669,-0.0431 0.3338,-0.0821 0.5006,-0.117 0.1669,-0.035 0.3338,-0.0658 0.5007,-0.0926 0.1668,-0.0267 0.3337,-0.0494 0.5006,-0.0679 0.1669,-0.0185 0.3337,-0.033 0.5006,-0.0433 0.1669,-0.0103 0.3338,-0.0164 0.5006,-0.0185 0.1669,-0.0021 0.3338,0 0.5007,0.0062 0.1668,0.0062 0.3337,0.0165 0.5006,0.0309 0.1669,0.0144 0.3337,0.0329 0.5006,0.0556 0.1669,0.0226 0.3337,0.0494 0.5006,0.0802 0.1669,0.0309 0.3338,0.0658 0.5006,0.1048 0.1669,0.0391 0.3338,0.0822 0.5007,0.1293 0.1668,0.0471 0.3337,0.0984 0.5006,0.1536 0.1669,0.0552 0.3337,0.1145 0.5006,0.1777 0.1669,0.0633 0.3338,0.1306 0.5006,0.2018 0.1669,0.0712 0.3338,0.1464 0.5007,0.2256 0.1668,0.0791 0.3337,0.1621 0.5006,0.2491 0.1669,0.0869 0.3337,0.1778 0.5006,0.2724 0.1669,0.0947 0.3338,0.1932 0.5006,0.2955 0.1669,0.1023 0.3338,0.2084 0.5007,0.3183 0.1668,0.1098 0.3337,0.2234 0.5006,0.3407 0.1668,0.1172 0.3337,0.2382 0.5006,0.3627 0.1669,0.1246 0.3337,0.2528 0.5006,0.3846 0.1669,0.1317 0.3338,0.267 0.5006,0.4059 0.1669,0.1388 0.3338,0.2811 0.5007,0.4268 0.1668,0.1457 0.3337,0.2948 0.5006,0.4473 0.1669,0.1525 0.3337,0.3084 0.5006,0.4675 0.1669,0.1591 0.3338,0.3215 0.5006,0.487 0.1669,0.1656 0.3338,0.3343 0.5007,0.5062 0.1668,0.1718 0.3337,0.3468 0.5006,0.5248 0.1669,0.178 0.3337,0.359 0.5006,0.5429 0.1669,0.1839 0.3338,0.3707 0.5006,0.5604 0.1669,0.1897 0.3338,0.3822 0.5006,0.5775 0.1669,0.1952 0.3338,0.3932 0.5007,0.5938 0.1668,0.2007 0.3337,0.4039 0.5006,0.6097 0.1669,0.2059 0.3337,0.4142 0.5006,0.625 0.1669,0.2108 0.3338,0.424 0.5006,0.6395 0.1669,0.2155 0.3338,0.4334 0.5007,0.6535 0.1668,0.2201 0.3337,0.4424 0.5006,0.6668 0.1669,0.2244 0.3337,0.4509 0.5006,0.6795 0.1669,0.2285 0.3338,0.459 0.5006,0.6914 0.1669,0.2324 0.3338,0.4666 0.5007,0.7027 0.1668,0.236 0.3337,0.4738 0.5006,0.7133 0.1669,0.2394 0.3337,0.4805 0.5006,0.7231 0.1669,0.2426 0.3338,0.4868 0.5006,0.7323 0.1669,0.2456 0.3338,0.4925 0.5006,0.7407 0.1669,0.2483 0.3338,0.4978 0.5007,0.7484 0.1668,0.2507 0.3337,0.5025 0.5006,0.7554 0.1669,0.2528 0.3337,0.5067 0.5006,0.7615 0.1669,0.2548 0.3338,0.5104 0.5006,0.7669 0.1669,0.2565 0.3338,0.5137 0.5007,0.7716 0.1668,0.2579 0.3337,0.5164 0.5006,0.7755 0.1669,0.259 0.3337,0.5186 0.5006,0.7786 0.1669,0.26 0.3338,0.5203 0.5006,0.7809 0.1669,0.2606 0.3338,0.5215 0.5007,0.7825 0.1668,0.261 0.3337,0.5222 0.5006,0.7833"
       title="sin(x)"
       id="path4"
       inkscape:label="sin_anti" />
    <path
       style="display:none;fill:none;fill-rule:evenodd;stroke:#ff0000;stroke-width:0.376042;stroke-linecap:square"
       d="m 0.188021,25.188 c 0.166874,-0.2611 0.333749,0.2734 0.500623,0.0124 0.166874,-0.261 0.333746,0.2977 0.500626,0.0371 0.16687,-0.2606 0.33375,0.3217 0.50062,0.0617 0.16687,-0.2599 0.33375,0.3455 0.50062,0.0864 0.16688,-0.259 0.33375,0.3689 0.50063,0.111 0.16687,-0.2579 0.33374,0.3918 0.50062,0.1353 0.16687,-0.2564 0.33375,0.4145 0.50062,0.1597 0.16688,-0.2548 0.33375,0.4366 0.50062,0.1837 0.16688,-0.2528 0.33375,0.4584 0.50063,0.2078 0.16687,-0.2507 0.33375,0.4797 0.50062,0.2314 0.16687,-0.2482 0.33375,0.5006 0.50062,0.255 0.16688,-0.2455 0.33375,0.5209 0.50063,0.2783 0.16687,-0.2427 0.33374,0.5406 0.50062,0.3012 0.16687,-0.2395 0.33375,0.5599 0.50062,0.3239 0.16688,-0.2361 0.33375,0.5786 0.50062,0.3462 0.16688,-0.2324 0.33375,0.5968 0.50063,0.3683 0.16687,-0.2286 0.33375,0.6143 0.50062,0.3899 0.16687,-0.2245 0.33375,0.6312 0.50062,0.4111 0.16688,-0.2201 0.33375,0.6476 0.50063,0.432 0.16687,-0.2155 0.33374,0.6632 0.50064,0.4524 0.1669,-0.2107 0.3337,0.6782 0.5006,0.4724 0.1669,-0.2058 0.3338,0.6925 0.5006,0.4919 0.1669,-0.2006 0.3338,0.7061 0.5006,0.5109 0.1669,-0.1953 0.3338,0.719 0.5007,0.5293 0.1668,-0.1897 0.3337,0.7313 0.5006,0.5474 0.1669,-0.184 0.3337,0.7427 0.5006,0.5647 0.1669,-0.178 0.3338,0.7535 0.5006,0.5816 0.1669,-0.1718 0.3338,0.7635 0.5007,0.5979 0.1668,-0.1655 0.3337,0.7727 0.5006,0.6136 0.1669,-0.1591 0.3337,0.7811 0.5006,0.6286 0.1669,-0.1525 0.3338,0.7888 0.5006,0.6431 0.1669,-0.1457 0.3338,0.7957 0.5007,0.6569 0.1668,-0.1388 0.3337,0.8018 0.5006,0.67 0.1669,-0.1317 0.3337,0.8071 0.5006,0.6825 0.1669,-0.1246 0.3337,0.8116 0.5006,0.6943 0.1669,-0.1172 0.3338,0.8153 0.5006,0.7054 0.1669,-0.1098 0.3338,0.8182 0.5007,0.7159 0.1668,-0.1024 0.3337,0.8201 0.5006,0.7255 0.1669,-0.0947 0.3337,0.8214 0.5006,0.7344 0.1669,-0.0869 0.3338,0.8219 0.5006,0.7427 0.1669,-0.0791 0.3338,0.8215 0.5007,0.7502 0.1668,-0.0712 0.3337,0.8203 0.5006,0.757 0.1669,-0.0633 0.3337,0.8182 0.5006,0.7629 0.1669,-0.0552 0.3338,0.8154 0.5006,0.7682 0.1669,-0.0471 0.3338,0.8117 0.5007,0.7726 0.1668,-0.039 0.3337,0.8072 0.5006,0.7764 0.1668,-0.0309 0.3337,0.8019 0.5006,0.7792 0.1669,-0.0226 0.3337,0.7959 0.5006,0.7814 0.1669,-0.0144 0.3338,0.789 0.5006,0.7828 0.1669,-0.0062 0.3338,0.7813 0.5007,0.7834 0.1668,0.002 0.3337,0.7728 0.5006,0.7831 0.1669,0.0103 0.3337,0.7637 0.5006,0.7822 0.1669,0.0185 0.3338,0.7537 0.5006,0.7804 0.1669,0.0268 0.3338,0.743 0.5007,0.7779 0.1668,0.0349 0.3337,0.7315 0.5006,0.7746 0.1669,0.0431 0.3337,0.7193 0.5006,0.7705 0.1669,0.0512 0.3338,0.7064 0.5006,0.7656 0.1669,0.0593 0.3338,0.6928 0.5006,0.7601 0.1669,0.0672 0.3338,0.6785 0.5007,0.7536 0.1668,0.0752 0.3337,0.6636 0.5006,0.7466 0.1669,0.083 0.3337,0.6479 0.5006,0.7387 0.1669,0.0908 0.3338,0.6316 0.5006,0.7301 0.1669,0.0985 0.3338,0.6146 0.5007,0.7207 0.1668,0.1061 0.3337,0.5972 0.5006,0.7107 0.1669,0.1136 0.3337,0.579 0.5006,0.7 0.1669,0.1209 0.3338,0.5603 0.5006,0.6885 0.1669,0.1281 0.3338,0.541 0.5007,0.6763 0.1668,0.1353 0.3337,0.5213 0.5006,0.6635 0.1669,0.1423 0.3337,0.501 0.5006,0.6501 0.1669,0.1491 0.3337,0.4801 0.5006,0.6359 0.1669,0.1559 0.3338,0.4589 0.5006,0.6212 0.1669,0.1624 0.3338,0.4371 0.5007,0.6058 0.1668,0.1688 0.3337,0.4149 0.5006,0.5899 0.1669,0.1749 0.3337,0.3922 0.5006,0.5732 0.1669,0.181 0.3338,0.3693 0.5006,0.5561 0.1669,0.1868 0.3338,0.3459 0.5007,0.5384 0.1668,0.1925 0.3337,0.3223 0.5006,0.5202 0.1669,0.198 0.3337,0.2982 0.5006,0.5015 0.1669,0.2032 0.3338,0.2738 0.5006,0.4821 0.1669,0.2084 0.3338,0.2493 0.5007,0.4625 0.1668,0.2132 0.3337,0.2244 0.5006,0.4423 0.1668,0.2178 0.3337,0.1993 0.5006,0.4216 0.1669,0.2223 0.3337,0.1741 0.5006,0.4006 0.1669,0.2265 0.3338,0.1486 0.5006,0.3791 0.1669,0.2305 0.3338,0.1231 0.5007,0.3573 0.1668,0.2342 0.3337,0.0973 0.5006,0.3351 0.1669,0.2378 0.3337,0.0715 0.5006,0.3126 0.1669,0.2411 0.3338,0.0456 0.5006,0.2898 0.1669,0.2441 0.3338,0.0197 0.5007,0.2666 0.1668,0.2469 0.3337,-0.0062 0.5006,0.2433 0.1669,0.2494 0.3337,-0.0322 0.5006,0.2196 0.1669,0.2518 0.3338,-0.0581 0.5006,0.1958 0.1669,0.2538 0.3338,-0.084 0.5006,0.1717 0.1669,0.2556 0.3338,-0.1097 0.5007,0.1475 0.1668,0.2572 0.3337,-0.1353 0.5006,0.1232 0.1669,0.2585 0.3337,-0.1609 0.5006,0.0986 0.1669,0.2596 0.3338,-0.1862 0.5006,0.0741 0.1669,0.2603 0.3338,-0.2114 0.5007,0.0495 0.1668,0.2608 0.3337,-0.2364 0.5006,0.0247 0.1669,0.2611 0.3337,-0.2611 0.5006,0 0.1669,0.2611 0.3338,-0.2856 0.5006,-0.0247 0.1669,0.2608 0.3338,-0.3098 0.5007,-0.0495 0.1668,0.2603 0.3337,-0.3336 0.5006,-0.0741 0.1669,0.2596 0.3337,-0.3571 0.5006,-0.0986 0.1669,0.2585 0.3338,-0.3804 0.5006,-0.1232 0.1669,0.2572 0.3338,-0.4032 0.5006,-0.1475 0.1669,0.2556 0.3338,-0.4256 0.5007,-0.1717 0.1668,0.2538 0.3337,-0.4476 0.5006,-0.1958 0.1669,0.2518 0.3337,-0.4691 0.5006,-0.2196 0.1669,0.2494 0.3338,-0.4902 0.5006,-0.2433 0.1669,0.2469 0.3338,-0.5108 0.5007,-0.2666 0.1668,0.2441 0.3337,-0.5309 0.5006,-0.2898 0.1669,0.2411 0.3337,-0.5504 0.5006,-0.3126 0.1669,0.2378 0.3338,-0.5693 0.5006,-0.3351 0.1669,0.2342 0.3338,-0.5878 0.5007,-0.3573 0.1668,0.2305 0.3337,-0.6056 0.5006,-0.3791 0.1669,0.2265 0.3337,-0.6229 0.5006,-0.4006 0.1669,0.2223 0.3337,-0.6395 0.5006,-0.4216 0.1669,0.2178 0.3338,-0.6555 0.5006,-0.4423 0.1669,0.2132 0.3338,-0.6708 0.5007,-0.4625 0.1668,0.2084 0.3337,-0.6854 0.5006,-0.4821 0.1669,0.2032 0.3337,-0.6994 0.5006,-0.5015 0.1669,0.198 0.3338,-0.7127 0.5006,-0.5202 0.1669,0.1925 0.3338,-0.7252 0.5007,-0.5384 0.1668,0.1868 0.3337,-0.7371 0.5006,-0.5561 0.1669,0.181 0.3337,-0.7482 0.5006,-0.5732 0.1669,0.1749 0.3338,-0.7586 0.5006,-0.5899 0.1669,0.1688 0.3338,-0.7681 0.5007,-0.6058 0.1668,0.1624 0.3337,-0.777 0.5006,-0.6212 0.1668,0.1559 0.3337,-0.785 0.5006,-0.6359 0.1669,0.1491 0.3337,-0.7923 0.5006,-0.6501 0.1669,0.1423 0.3338,-0.7988 0.5006,-0.6635 0.1669,0.1353 0.3338,-0.8045 0.5007,-0.6763 0.1668,0.1281 0.3337,-0.8095 0.5006,-0.6885 0.1669,0.1209 0.3337,-0.8135 0.5006,-0.7 0.1669,0.1136 0.3338,-0.8168 0.5006,-0.7107 0.1669,0.1061 0.3338,-0.8192 0.5007,-0.7207 0.1668,0.0985 0.3337,-0.8209 0.5006,-0.7301 0.1669,0.0908 0.3337,-0.8217 0.5006,-0.7387 0.1669,0.083 0.3338,-0.8217 0.5006,-0.7466 0.1669,0.0752 0.3338,-0.8209 0.5006,-0.7536 0.1669,0.0672 0.3338,-0.8193 0.5007,-0.7601 0.1668,0.0593 0.3337,-0.8168 0.5006,-0.7656 0.1669,0.0512 0.3337,-0.8136 0.5006,-0.7705 0.1669,0.0431 0.3338,-0.8095 0.5006,-0.7746 0.1669,0.0349 0.3338,-0.8046 0.5007,-0.7779 0.1668,0.0268 0.3337,-0.7989 0.5006,-0.7804 0.1669,0.0185 0.3337,-0.7925 0.5006,-0.7822 0.1669,0.0103 0.3338,-0.7852 0.5006,-0.7831 0.1669,0.002 0.3338,-0.7772 0.5007,-0.7834 0.1668,-0.0062 0.3337,-0.7683 0.5006,-0.7828 0.1669,-0.0144 0.3337,-0.7587 0.5006,-0.7814 0.1669,-0.0226 0.3337,-0.7484 0.5006,-0.7792 0.1669,-0.0309 0.3338,-0.7373 0.5006,-0.7764 0.1669,-0.039 0.3338,-0.7254 0.5007,-0.7726 0.1668,-0.0471 0.3337,-0.7129 0.5006,-0.7682 0.1669,-0.0552 0.3337,-0.6996 0.5006,-0.7629 0.1669,-0.0633 0.3338,-0.6857 0.5006,-0.757 0.1669,-0.0712 0.3338,-0.671 0.5007,-0.7502 0.1668,-0.0791 0.3337,-0.6557 0.5006,-0.7427 0.1669,-0.0869 0.3337,-0.6398 0.5006,-0.7344 0.1669,-0.0947 0.3338,-0.6232 0.5006,-0.7255 0.1669,-0.1024 0.3338,-0.606 0.5007,-0.7159 0.1668,-0.1098 0.3337,-0.5881 0.5006,-0.7054 0.1668,-0.1172 0.3337,-0.5697 0.5006,-0.6943 0.1669,-0.1246 0.3337,-0.5507 0.5006,-0.6825 0.1669,-0.1317 0.3338,-0.5312 0.5006,-0.67 0.1669,-0.1388 0.3338,-0.5112 0.5007,-0.6569 0.1668,-0.1457 0.3337,-0.4906 0.5006,-0.6431 0.1669,-0.1525 0.3337,-0.4695 0.5006,-0.6286 0.1669,-0.1591 0.3338,-0.448 0.5006,-0.6136 0.1669,-0.1655 0.3338,-0.426 0.5007,-0.5979 0.1668,-0.1718 0.3337,-0.4036 0.5006,-0.5816 0.1669,-0.178 0.3337,-0.3808 0.5006,-0.5647 0.1669,-0.184 0.3338,-0.3577 0.5006,-0.5474 0.1669,-0.1897 0.3338,-0.3341 0.5006,-0.5293 0.1669,-0.1953 0.3338,-0.3103 0.5007,-0.5109 0.1668,-0.2006 0.3337,-0.2861 0.5006,-0.4919 0.1669,-0.2058 0.3337,-0.2616 0.5006,-0.4724 0.1669,-0.2107 0.3338,-0.2368 0.5006,-0.4524 0.1669,-0.2155 0.3338,-0.2119 0.5007,-0.432 0.1668,-0.2201 0.3337,-0.1867 0.5006,-0.4111 0.1669,-0.2245 0.3337,-0.1614 0.5006,-0.3899 0.1669,-0.2286 0.3338,-0.1359 0.5006,-0.3683 0.1669,-0.2324 0.3338,-0.1102 0.5007,-0.3462 0.1668,-0.2361 0.3337,-0.0845 0.5006,-0.3239 0.1669,-0.2395 0.3337,-0.0586 0.5006,-0.3012 0.1669,-0.2427 0.3338,-0.0327 0.5006,-0.2783 0.1669,-0.2455 0.3338,-0.0067 0.5006,-0.255 0.1669,-0.2482 0.3338,0.0192 0.5007,-0.2314 0.1668,-0.2507 0.3337,0.0451 0.5006,-0.2078 0.1669,-0.2528 0.3337,0.0711 0.5006,-0.1837 0.1669,-0.2548 0.3338,0.0968 0.5006,-0.1597 0.1669,-0.2564 0.3338,0.1226 0.5007,-0.1353 0.1668,-0.2579 0.3337,0.1481 0.5006,-0.111 0.1669,-0.259 0.3337,0.1736 0.5006,-0.0864 0.1669,-0.2599 0.3338,0.1989 0.5006,-0.0617 0.1669,-0.2606 0.3338,0.2239 0.5007,-0.0371 0.1668,-0.261 0.3337,0.2488 0.5006,-0.0124"
       title="cos(x)"
       id="path3"
       inkscape:label="cos" />
  </g>
  <g
     inkscape:groupmode="layer"
     id="data paths"
     inkscape:label="data paths"
     sodipodi:insensitive="true"
     style="display:none">
    <path
       style="display:none;fill:none;stroke:#008080;stroke-width:1px;stroke-linecap:butt;stroke-linejoin:miter;stroke-opacity:1"
       d="m 0,50 c 9,-12 24,-49 50,0 27,50 42,9 50,0"
       id="path6"
       sodipodi:nodetypes="csc"
       inkscape:label="path_1"
       sodipodi:insensitive="true" />
    <path
       style="display:none;fill:none;stroke:#008080;stroke-width:1px;stroke-linecap:butt;stroke-linejoin:miter;stroke-opacity:1"
       d="m 0,75 c 15,0 36,-50 50,-50 16,0 31,50 50,50"
       id="path8"
       sodipodi:nodetypes="csc"
       inkscape:label="path_t1"
       sodipodi:insensitive="true" />
    <path
       style="display:none;fill:none;stroke:#008080;stroke-width:1px;stroke-linecap:butt;stroke-linejoin:miter;stroke-opacity:1"
       d="m 0,50 c 9,12 24,49 50,0 27,-50 42,-9 50,0"
       id="path7"
       sodipodi:nodetypes="csc"
       inkscape:label="path_mid"
       sodipodi:insensitive="true" />
    <path
       style="display:none;fill:none;stroke:#008080;stroke-width:1px;stroke-linecap:butt;stroke-linejoin:miter;stroke-opacity:1"
       d="m 0,25 c 15,0 36,50 50,50 16,0 31,-50 50,-50"
       id="path9"
       sodipodi:nodetypes="csc"
       inkscape:label="path_t2" />
  </g>
  <g
     inkscape:groupmode="layer"
     id="display"
     inkscape:label="display">
    <path
       style="display:inline;fill:none;stroke:#008080;stroke-width:1px;stroke-linecap:butt;stroke-linejoin:miter;stroke-opacity:1"
       d="m 0,50 c 9,-12 24,-49 50,0 27,50 42,9 50,0"
       id="path10"
       sodipodi:nodetypes="csc"
       inkscape:label="path_1" />
  </g>
</svg>
