<?xml version="1.0" encoding="UTF-8" standalone="no"?>
<!-- Created with Inkscape (http://www.inkscape.org/) -->

<svg
   width="300"
   height="600"
   viewBox="0 0 300 600"
   version="1.1"
   id="svg1"
   inkscape:version="1.3.2 (091e20e, 2023-11-25)"
   sodipodi:docname="transform_hell.v2.svg"
   xmlns:inkscape="http://www.inkscape.org/namespaces/inkscape"
   xmlns:sodipodi="http://sodipodi.sourceforge.net/DTD/sodipodi-0.dtd"
   xmlns:xlink="http://www.w3.org/1999/xlink"
   xmlns="http://www.w3.org/2000/svg"
   xmlns:svg="http://www.w3.org/2000/svg">
  <sodipodi:namedview
     id="namedview1"
     pagecolor="#ffffff"
     bordercolor="#666666"
     borderopacity="1.0"
     inkscape:showpageshadow="2"
     inkscape:pageopacity="0.0"
     inkscape:pagecheckerboard="0"
     inkscape:deskcolor="#d1d1d1"
     inkscape:document-units="px"
     inkscape:zoom="1.4142136"
     inkscape:cx="195.16147"
     inkscape:cy="267.28636"
     inkscape:window-width="1848"
     inkscape:window-height="1016"
     inkscape:window-x="72"
     inkscape:window-y="27"
     inkscape:window-maximized="1"
     inkscape:current-layer="svg1" />
  <defs
     id="defs1">
    <inkscape:path-effect
       effect="powermask"
       id="path-effect18"
       is_visible="true"
       lpeversion="1"
       uri="#mask-powermask-path-effect18"
       invert="false"
       hide_mask="false"
       background="true"
       background_color="#ffffffff" />
    <linearGradient
       id="linearGradient133"
       inkscape:collect="always">
      <stop
         style="stop-color:#241c1c;stop-opacity:1;"
         offset="0"
         id="stop133" />
      <stop
         style="stop-color:#241c1c;stop-opacity:0;"
         offset="1"
         id="stop134" />
    </linearGradient>
    <linearGradient
       id="linearGradient126"
       inkscape:collect="always">
      <stop
         style="stop-color:#ffeeaa;stop-opacity:1;"
         offset="0"
         id="stop126" />
      <stop
         style="stop-color:#ffeeaa;stop-opacity:0;"
         offset="1"
         id="stop127" />
    </linearGradient>
    <linearGradient
       id="linearGradient7"
       inkscape:collect="always">
      <stop
         style="stop-color:#e6e6e6;stop-opacity:1;"
         offset="0"
         id="stop7" />
      <stop
         style="stop-color:#f1e1a6;stop-opacity:1;"
         offset="1"
         id="stop8" />
    </linearGradient>
    <linearGradient
       id="linearGradient1"
       inkscape:collect="always">
      <stop
         style="stop-color:#2a1414;stop-opacity:1;"
         offset="0"
         id="stop1" />
      <stop
         style="stop-color:#1c0c0a;stop-opacity:1;"
         offset="0.58541232"
         id="stop5" />
      <stop
         style="stop-color:#752e23;stop-opacity:1;"
         offset="0.77334052"
         id="stop4" />
      <stop
         style="stop-color:#b4141f;stop-opacity:1;"
         offset="0.87862951"
         id="stop3" />
      <stop
         style="stop-color:#ff9b00;stop-opacity:1;"
         offset="1"
         id="stop2" />
    </linearGradient>
    <linearGradient
       inkscape:collect="always"
       xlink:href="#linearGradient1"
       id="linearGradient2"
       x1="150.4003"
       y1="-7.2007985"
       x2="153.79854"
       y2="606.58374"
       gradientUnits="userSpaceOnUse" />
    <radialGradient
       inkscape:collect="always"
       xlink:href="#linearGradient7"
       id="radialGradient8"
       cx="148.6628"
       cy="49.754993"
       fx="148.6628"
       fy="49.754993"
       r="130.56252"
       gradientTransform="matrix(0.00753476,1.4039009,-1.0477937,0.00562353,207.67563,-151.70511)"
       gradientUnits="userSpaceOnUse" />
    <filter
       inkscape:collect="always"
       style="color-interpolation-filters:sRGB"
       id="filter8"
       x="-0.34030069"
       y="-0.38894401"
       width="1.6806014"
       height="1.777888">
      <feGaussianBlur
         inkscape:collect="always"
         stdDeviation="37.025428"
         id="feGaussianBlur8" />
    </filter>
    <filter
       inkscape:collect="always"
       style="color-interpolation-filters:sRGB"
       id="filter79"
       x="-0.0026671083"
       y="-0.0034278425"
       width="1.0053342"
       height="1.0068557">
      <feGaussianBlur
         inkscape:collect="always"
         stdDeviation="0.28424194"
         id="feGaussianBlur79" />
    </filter>
    <filter
       inkscape:collect="always"
       style="color-interpolation-filters:sRGB"
       id="filter80"
       x="-0.0094707691"
       y="-0.080966276"
       width="1.0189415"
       height="1.1619326">
      <feGaussianBlur
         inkscape:collect="always"
         stdDeviation="0.077879434"
         id="feGaussianBlur80" />
    </filter>
    <filter
       inkscape:collect="always"
       style="color-interpolation-filters:sRGB"
       id="filter81"
       x="-0.010360257"
       y="-0.077920669"
       width="1.0207205"
       height="1.1558413">
      <feGaussianBlur
         inkscape:collect="always"
         stdDeviation="0.077879434"
         id="feGaussianBlur81" />
    </filter>
    <filter
       inkscape:collect="always"
       style="color-interpolation-filters:sRGB"
       id="filter82"
       x="-0.011227557"
       y="-0.084275223"
       width="1.0224551"
       height="1.1685504">
      <feGaussianBlur
         inkscape:collect="always"
         stdDeviation="0.077879434"
         id="feGaussianBlur82" />
    </filter>
    <filter
       inkscape:collect="always"
       style="color-interpolation-filters:sRGB"
       id="filter83"
       x="-0.011227557"
       y="-0.084275223"
       width="1.0224551"
       height="1.1685504">
      <feGaussianBlur
         inkscape:collect="always"
         stdDeviation="0.077879434"
         id="feGaussianBlur83" />
    </filter>
    <filter
       inkscape:collect="always"
       style="color-interpolation-filters:sRGB"
       id="filter84"
       x="-0.011227557"
       y="-0.084275223"
       width="1.0224551"
       height="1.1685504">
      <feGaussianBlur
         inkscape:collect="always"
         stdDeviation="0.077879434"
         id="feGaussianBlur84" />
    </filter>
    <filter
       inkscape:collect="always"
       style="color-interpolation-filters:sRGB"
       id="filter85"
       x="-0.011227557"
       y="-0.084275223"
       width="1.0224551"
       height="1.1685504">
      <feGaussianBlur
         inkscape:collect="always"
         stdDeviation="0.077879434"
         id="feGaussianBlur85" />
    </filter>
    <filter
       inkscape:collect="always"
       style="color-interpolation-filters:sRGB"
       id="filter86"
       x="-0.011653372"
       y="-0.070506512"
       width="1.0233067"
       height="1.141013">
      <feGaussianBlur
         inkscape:collect="always"
         stdDeviation="0.077879434"
         id="feGaussianBlur86" />
    </filter>
    <filter
       inkscape:collect="always"
       style="color-interpolation-filters:sRGB"
       id="filter87"
       x="-0.011653372"
       y="-0.070506512"
       width="1.0233067"
       height="1.141013">
      <feGaussianBlur
         inkscape:collect="always"
         stdDeviation="0.077879434"
         id="feGaussianBlur87" />
    </filter>
    <filter
       inkscape:collect="always"
       style="color-interpolation-filters:sRGB"
       id="filter88"
       x="-0.010927476"
       y="-0.070506512"
       width="1.021855"
       height="1.141013">
      <feGaussianBlur
         inkscape:collect="always"
         stdDeviation="0.077879434"
         id="feGaussianBlur88" />
    </filter>
    <filter
       inkscape:collect="always"
       style="color-interpolation-filters:sRGB"
       id="filter89"
       x="-0.011267062"
       y="-0.070506512"
       width="1.0225341"
       height="1.141013">
      <feGaussianBlur
         inkscape:collect="always"
         stdDeviation="0.077879434"
         id="feGaussianBlur89" />
    </filter>
    <filter
       inkscape:collect="always"
       style="color-interpolation-filters:sRGB"
       id="filter90"
       x="-0.01165337"
       y="-0.070506512"
       width="1.0233067"
       height="1.141013">
      <feGaussianBlur
         inkscape:collect="always"
         stdDeviation="0.077879434"
         id="feGaussianBlur90" />
    </filter>
    <filter
       inkscape:collect="always"
       style="color-interpolation-filters:sRGB"
       id="filter91"
       x="-0.011653369"
       y="-0.070506512"
       width="1.0233067"
       height="1.141013">
      <feGaussianBlur
         inkscape:collect="always"
         stdDeviation="0.077879434"
         id="feGaussianBlur91" />
    </filter>
    <filter
       inkscape:collect="always"
       style="color-interpolation-filters:sRGB"
       id="filter92"
       x="-0.00071177208"
       y="-0.0022375981"
       width="1.0014235"
       height="1.0044752">
      <feGaussianBlur
         inkscape:collect="always"
         stdDeviation="0.031916448"
         id="feGaussianBlur92" />
    </filter>
    <filter
       inkscape:collect="always"
       style="color-interpolation-filters:sRGB"
       id="filter123"
       x="-0.034159686"
       y="-0.010109946"
       width="1.0683194"
       height="1.0202199">
      <feGaussianBlur
         inkscape:collect="always"
         stdDeviation="0.30360956"
         id="feGaussianBlur123" />
    </filter>
    <filter
       inkscape:collect="always"
       style="color-interpolation-filters:sRGB"
       id="filter124"
       x="-0.051311647"
       y="-0.010109947"
       width="1.1026233"
       height="1.0202199">
      <feGaussianBlur
         inkscape:collect="always"
         stdDeviation="0.30360956"
         id="feGaussianBlur124" />
    </filter>
    <radialGradient
       inkscape:collect="always"
       xlink:href="#linearGradient126"
       id="radialGradient127"
       cx="154.43266"
       cy="120.25724"
       fx="154.43266"
       fy="120.25724"
       r="138.56435"
       gradientTransform="matrix(1.3103057,0.02815674,-0.00410056,0.19082402,-47.428211,97.090668)"
       gradientUnits="userSpaceOnUse" />
    <filter
       inkscape:collect="always"
       style="color-interpolation-filters:sRGB"
       id="filter127"
       x="-0.040703605"
       y="-0.47645859"
       width="1.0814072"
       height="1.9529172">
      <feGaussianBlur
         inkscape:collect="always"
         stdDeviation="4.700057"
         id="feGaussianBlur127" />
    </filter>
    <radialGradient
       inkscape:collect="always"
       xlink:href="#linearGradient126"
       id="radialGradient128"
       gradientUnits="userSpaceOnUse"
       gradientTransform="matrix(1.3103057,0.02815674,-0.00410056,0.19082402,-47.428211,97.090668)"
       cx="154.43266"
       cy="120.25724"
       fx="154.43266"
       fy="120.25724"
       r="138.56435" />
    <filter
       inkscape:collect="always"
       style="color-interpolation-filters:sRGB"
       id="filter128"
       x="-0.03683117"
       y="-0.43112956"
       width="1.0736623"
       height="1.8622591">
      <feGaussianBlur
         inkscape:collect="always"
         stdDeviation="4.252906"
         id="feGaussianBlur128" />
    </filter>
    <radialGradient
       inkscape:collect="always"
       xlink:href="#linearGradient133"
       id="radialGradient134"
       cx="153.28494"
       cy="210.67786"
       fx="153.28494"
       fy="210.67786"
       r="170.60156"
       gradientTransform="matrix(0.02251274,2.1258854,-1.0961414,0.01161904,380.7668,-130.23501)"
       gradientUnits="userSpaceOnUse" />
    <radialGradient
       inkscape:collect="always"
       xlink:href="#linearGradient133"
       id="radialGradient135"
       gradientUnits="userSpaceOnUse"
       gradientTransform="matrix(0.02251274,2.1258854,-1.0961414,0.01161904,388.36975,-222.08915)"
       cx="153.28494"
       cy="210.67786"
       fx="153.28494"
       fy="210.67786"
       r="170.60156" />
    <filter
       inkscape:collect="always"
       style="color-interpolation-filters:sRGB"
       id="filter135"
       x="-0.0031443046"
       y="-0.0028683597"
       width="1.0062886"
       height="1.0057367">
      <feGaussianBlur
         inkscape:collect="always"
         stdDeviation="0.44701939"
         id="feGaussianBlur135" />
    </filter>
    <filter
       inkscape:collect="always"
       style="color-interpolation-filters:sRGB"
       id="filter141"
       x="-0.28608383"
       y="-0.30734033"
       width="1.5721677"
       height="1.6146807">
      <feGaussianBlur
         inkscape:collect="always"
         stdDeviation="8.202 4.31"
         id="feGaussianBlur141" />
    </filter>
    <mask
       maskUnits="userSpaceOnUse"
       id="mask146">
      <path
         style="fill:#999999;fill-opacity:1;stroke:none;stroke-width:1px;stroke-linecap:butt;stroke-linejoin:miter;stroke-opacity:1"
         d="m 17.08955,86.031204 255.44349,1.674182 c -1.31181,23.193974 -1.03943,46.571364 -10.11477,68.866444 L 32.072368,153.5679 C 13.778494,135.45056 17.347898,110.10844 17.08955,86.031204 Z"
         id="path147"
         sodipodi:nodetypes="ccccc" />
    </mask>
    <filter
       inkscape:collect="always"
       style="color-interpolation-filters:sRGB"
       id="filter12"
       x="-0.12650609"
       y="-0.26499042"
       width="1.2530122"
       height="1.5299808">
      <feGaussianBlur
         inkscape:collect="always"
         stdDeviation="12.123398"
         id="feGaussianBlur12" />
    </filter>
    <mask
       maskUnits="userSpaceOnUse"
       id="mask-powermask-path-effect18">
      <path
         id="mask-powermask-path-effect18_box"
         style="fill:#ffffff;fill-opacity:1"
         d="M 10.204626,96.196815 H 300.39498 V 266.1899 H 10.204626 Z" />
      <path
         id="path18"
         style="display:inline;mix-blend-mode:normal;fill:#000000;fill-opacity:1;stroke:none;stroke-width:0.316239;stroke-linecap:square;filter:url(#filter135)"
         d="m 102.69174,126.29803 c 0.50416,30.81501 12.57776,58.65807 -1.55793,65.11717 C 84.709657,171.74022 88.715339,165.99009 86.929591,140.46303 l -10.545815,19.03355 -8.296973,-13.82126 c -1.10417,9.17185 -2.013242,18.44459 -16.408066,20.74379 l -6.032133,-37.2059 -16.541697,12.03588 -34.2505874,6.7013 -8.2075156,137.2434 30.432942,48.85992 c 9.219042,30.13149 18.889889,59.30102 21.85689,102.7441 l 14.772668,-81.89698 15.323917,54.54626 7.066703,-77.8197 c 0.142251,-24.06245 21.944614,-36.60968 33.855466,-35.19141 l 16.04579,40.20824 22.30931,48.03236 15.10127,-45.96618 c -3.94776,-22.07443 8.74173,-23.302 20.90692,-25.18653 30.64568,5.9652 53.19352,34.01069 71.31446,74.12696 l -0.81809,-58.8041 c -20.72352,-14.81885 -11.75007,-29.87008 -0.36355,-26.13145 34.7304,1.2956 48.96595,50.78412 73.39843,76.29492 L 323.28225,184.07341 320.39234,62.769912 c -12.4592,46.681788 -24.16092,36.47919 -47.20137,23.9299 0.77626,29.341128 -6.34493,72.634408 -27.37747,101.531798 l -20.44213,-30.8063 -19.49861,-3.70783 c -0.008,14.85343 -17.51983,42.05264 -27.29168,24.24069 -10.18591,-18.37533 1.57856,-32.83328 2.63581,-51.20334 -17.53687,-4.0771 -53.82888,-8.45515 -78.52515,-0.4568 z"
         sodipodi:nodetypes="ccccccccccccccccccccccccccccccccc"
         inkscape:label="JAGGED PEAKS CLIP" />
    </mask>
    <filter
       id="mask-powermask-path-effect18_inverse"
       inkscape:label="filtermask-powermask-path-effect18"
       style="color-interpolation-filters:sRGB"
       height="100"
       width="100"
       x="-50"
       y="-50">
      <feColorMatrix
         id="mask-powermask-path-effect18_primitive1"
         values="1"
         type="saturate"
         result="fbSourceGraphic" />
      <feColorMatrix
         id="mask-powermask-path-effect18_primitive2"
         values="-1 0 0 0 1 0 -1 0 0 1 0 0 -1 0 1 0 0 0 1 0 "
         in="fbSourceGraphic" />
    </filter>
  </defs>
  <defs
     id="defs_2 ">
    <!-- Original gradients/filters preserved -->
    <linearGradient
       id="fade-mask-gradient"
       x1="0"
       y1="0"
       x2="0"
       y2="1">
      <stop
         offset="0"
         stop-color="white"
         stop-opacity="1"
         id="stop6" />
      <stop
         offset="1"
         stop-color="white"
         stop-opacity="0"
         id="stop9" />
    </linearGradient>
    <filter
       id="soft-shadow"
       x="-0.054388829"
       y="-0.054733442"
       width="1.1087777"
       height="1.1094669">
      <feGaussianBlur
         stdDeviation="8"
         id="feGaussianBlur9" />
    </filter>
  </defs>
  <g
     inkscape:label="background"
     inkscape:groupmode="layer"
     id="layer1"
     style="display:inline">
    <rect
       style="fill:url(#linearGradient2);fill-opacity:1;stroke:#ea1f1f;stroke-width:0.3;stroke-linecap:square"
       id="rect1"
       width="303.07455"
       height="603.7522"
       x="-2.1796532"
       y="-0.77366817" />
    <ellipse
       style="display:inline;mix-blend-mode:normal;fill:url(#radialGradient8);fill-opacity:1;stroke:none;stroke-width:0.3;stroke-linecap:square;filter:url(#filter8)"
       id="path6"
       cx="155.6524"
       cy="95.952332"
       rx="130.56252"
       ry="114.2337" />
    <path
       id="path10"
       style="display:inline;mix-blend-mode:normal;fill:#decd87;fill-opacity:1;stroke-width:0.3;stroke-linecap:square;filter:url(#filter12)"
       d="m 40.34375,126.29297 a 114.99915,109.21732 0 0 0 -0.04297,0.58203 114.99915,109.21732 0 0 0 114.99805,109.21875 114.99915,109.21732 0 0 0 115,-109.21875 114.99915,109.21732 0 0 0 -0.0156,-0.58203 z"
       clip-path="none"
       mask="url(#mask-powermask-path-effect18)"
       inkscape:path-effect="#path-effect18"
       inkscape:original-d="m 40.34375,126.29297 a 114.99915,109.21732 0 0 0 -0.04297,0.58203 114.99915,109.21732 0 0 0 114.99805,109.21875 114.99915,109.21732 0 0 0 115,-109.21875 114.99915,109.21732 0 0 0 -0.0156,-0.58203 z"
       inkscape:label="inverse_mask" />
  </g>
  <g
     inkscape:groupmode="layer"
     id="layer7"
     inkscape:label="Layer 4"
     style="display:inline">
    <path
       id="path129"
       style="display:inline;fill:url(#radialGradient134);fill-opacity:1;stroke:none;stroke-width:0.316239;stroke-linecap:square"
       d="m 110.65001,218.32794 c 0.50416,30.81501 -2.98346,58.4823 -17.119155,64.9414 -16.42415,-19.67498 -12.675182,-29.33231 -14.46093,-54.85937 l -18.586074,9.11949 -16.408066,20.74379 -6.288847,-41.1131 -35.549043,5.40997 -23.194043,154.47781 30.4329419,48.85992 c 9.2190421,30.13149 18.8898891,59.30102 21.8568901,102.7441 l 14.772668,-81.89698 15.323917,54.54626 7.066703,-77.8197 c 0.142251,-24.06245 21.944614,-36.60968 33.855468,-35.19141 l 16.04579,40.20824 22.30931,48.03236 15.10127,-45.96618 c -3.94776,-22.07443 8.74173,-23.302 20.90692,-25.18653 30.64568,5.9652 53.19352,34.01069 71.31446,74.12696 l -0.81809,-58.8041 c -20.72352,-14.81885 -11.75007,-29.87008 -0.36355,-26.13145 34.7304,1.2956 48.96595,50.78412 73.39843,76.29492 l -4.56768,-194.93679 -2.88991,-121.3035 c -12.4592,46.68179 -24.16092,36.47919 -47.20137,23.9299 0.77626,29.34113 -6.34493,72.63441 -27.37747,101.5318 -12.84959,8.22852 -25.37264,15.60924 -21.85747,-18.65209 l -35.23823,-30.07057 c -0.008,14.85343 1.13647,30.40332 -10.13672,38.44922 L 143.6479,223.28684 Z"
       sodipodi:nodetypes="ccccccccccccccccccccccccccccccc" />
    <path
       id="path134"
       style="display:inline;mix-blend-mode:normal;fill:url(#radialGradient135);fill-opacity:1;stroke:none;stroke-width:0.316239;stroke-linecap:square;filter:url(#filter135)"
       d="m 102.69174,126.29803 c 0.50416,30.81501 12.57776,58.65807 -1.55793,65.11717 C 84.709657,171.74022 88.715339,165.99009 86.929591,140.46303 l -10.545815,19.03355 -8.296973,-13.82126 c -1.10417,9.17185 -2.013242,18.44459 -16.408066,20.74379 l -6.032133,-37.2059 -16.541697,12.03588 -34.2505874,6.7013 -8.2075156,137.2434 30.432942,48.85992 c 9.219042,30.13149 18.889889,59.30102 21.85689,102.7441 l 14.772668,-81.89698 15.323917,54.54626 7.066703,-77.8197 c 0.142251,-24.06245 21.944614,-36.60968 33.855466,-35.19141 l 16.04579,40.20824 22.30931,48.03236 15.10127,-45.96618 c -3.94776,-22.07443 8.74173,-23.302 20.90692,-25.18653 30.64568,5.9652 53.19352,34.01069 71.31446,74.12696 l -0.81809,-58.8041 c -20.72352,-14.81885 -11.75007,-29.87008 -0.36355,-26.13145 34.7304,1.2956 48.96595,50.78412 73.39843,76.29492 L 323.28225,184.07341 320.39234,62.769912 c -12.4592,46.681788 -24.16092,36.47919 -47.20137,23.9299 0.77626,29.341128 -6.34493,72.634408 -27.37747,101.531798 l -20.44213,-30.8063 -19.49861,-3.70783 c -0.008,14.85343 -17.51983,42.05264 -27.29168,24.24069 -10.18591,-18.37533 1.57856,-32.83328 2.63581,-51.20334 -17.53687,-4.0771 -53.82888,-8.45515 -78.52515,-0.4568 z"
       sodipodi:nodetypes="ccccccccccccccccccccccccccccccccc"
       inkscape:label="JAGGED PEAKS" />
  </g>
  <!-- ===== MASK: Soften stair base ===== -->
  <!-- DOESN'T HAVE MUCH EFFECT BUT KEEP FOR NOW... -->
  <mask
     id="stair-mask">
    <rect
       width="300"
       height="600"
       fill="white"
       id="rect9" />
    <rect
       width="300"
       height="100"
       fill="url(#fade-mask-gradient)"
       y="250"
       id="rect10" />
  </mask>
  <g
     inkscape:groupmode="layer"
     id="stairs"
     inkscape:label="stair"
     mask="url(#stair-mask)"
     style="display:inline">
    <path
       style="mix-blend-mode:normal;fill:#302726;fill-opacity:1;stroke:none;stroke-width:1px;stroke-linecap:butt;stroke-linejoin:miter;stroke-opacity:1;filter:url(#filter141)"
       d="m 139.48286,154.43877 17.10854,-8.41829 17.93301,-17.53095 -10.58321,-6.8761 -42.17291,-0.83116 -16.05168,5.87632 12.67695,3.22833 8.28715,7.05341 z"
       id="path141"
       inkscape:label="ground"
       sodipodi:nodetypes="ccccccccc" />
    <path
       id="path11"
       style="mix-blend-mode:normal;fill:#27201f;fill-opacity:1;stroke:none;stroke-width:1px;stroke-linecap:butt;stroke-linejoin:miter;stroke-opacity:1;filter:url(#filter79)"
       d="m 129.10742,131.80469 -2.63867,0.8164 -0.0918,0.0937 -0.008,2.15821 -2.55273,0.88281 -0.006,1.96484 -2.20899,0.76563 -0.006,1.78125 -2.77539,0.96094 -0.006,1.94726 -2.54101,0.87891 -0.006,1.74804 -2.42969,0.8418 -0.004,1.17188 -2.41406,0.83593 -0.008,2.42188 -2.83594,0.98242 -0.006,2.09766 -4.03906,1.39843 -0.01,2.91211 -2.94531,1.01954 -0.006,1.97851 -3.208982,1.11133 -0.0039,1.07617 -4.097656,1.41602 -1.111328,1.12109 c -34.810273,1.35193 -79.190232,12.42999 -102.6093755,20.54492 l -86.6269535,41.43555 -13.535155,79.34375 82.515624,23.30469 c -6.73734,-38.03076 6.213005,-126.16664 43.720703,-102.46289 18.143771,-30.03575 48.801255,-48.81421 80.232422,-18.28516 -0.184026,-13.78811 9.088691,-18.17507 16.199221,-17.40234 5.99686,-18.85032 19.52107,-39.34072 33.10742,-53.93164 l -0.14453,-5.94141 z"
       inkscape:label="stair" />
    <path
       id="path8"
       style="fill:#27201f;fill-opacity:1;stroke:none;stroke-width:1px;stroke-linecap:butt;stroke-linejoin:miter;stroke-opacity:1"
       d="m -10.859375,273.67773 -1.902344,81.95313 -0.27539,57.70703 C 51.393863,383.58467 171.29178,530.2821 201.60156,623.02344 l 138.375,1.44531 -3.34558,-94.11503 -41.07685,-14.75991 0.51698,-16.11881 -24.92853,-8.24062 0.0351,-11.88282 -22.19921,-8.86328 0.13281,-10.34766 -21.72852,-8.67578 -0.0356,-13.31371 c -48.092,-19.75063 -94.54441,-30.64555 -136.196903,-57.24992 -1.779976,-1.13691 -8.622521,-1.36874 -10.384719,-2.56495 -3.095636,-2.10136 -1.092126,-5.23092 -4.130802,-7.53157 l -15.976563,-3.42383 0.06641,-9.30274 c -0.238832,-0.20258 -0.472524,-0.41386 -0.710937,-0.61718 l -16.4375,-4.75 0.07422,-10.09766 c -0.09248,-0.0897 -0.18103,-0.18557 -0.273438,-0.27539 l -10.398437,-3.00586 0.05469,-7.53711 c -1.089405,-1.15649 -2.174266,-2.3205 -3.251953,-3.49804 l -7.505859,-2.16993 0.04492,-6.27929 c -0.162522,-0.1902 -0.326051,-0.37763 -0.488281,-0.56836 l -12.9042966,-3.72852 0.076172,-10.55469 -9.92968745,-2.86914 0.09375,-12.77539 C -4.2528496,284.27308 -7.618364,279.09087 -10.859375,273.67773 Z"
       sodipodi:nodetypes="ccccccccccccccsscccccccccccccccccc" />
    <path
       style="mix-blend-mode:normal;fill:#7b695e;fill-opacity:1;stroke:none;stroke-width:1px;stroke-linecap:butt;stroke-linejoin:miter;stroke-opacity:1;filter:url(#filter80)"
       d="m 145.99943,132.71512 -16.62104,-1.11036 -3.11449,1.06811 16.70366,1.24039 z"
       id="path24"
       sodipodi:nodetypes="ccccc" />
    <path
       style="fill:#605149;fill-opacity:1;stroke:none;stroke-width:1px;stroke-linecap:butt;stroke-linejoin:miter;stroke-opacity:1"
       d="m 271.20098,490.33083 -46.23746,23.86357 20.18403,13.70043 50.55396,-28.59188 z"
       id="path37"
       sodipodi:nodetypes="ccccc" />
    <path
       style="fill:#67594f;fill-opacity:1;stroke:none;stroke-width:1px;stroke-linecap:butt;stroke-linejoin:miter;stroke-opacity:1"
       d="m 248.20944,470.24307 -43.4853,14.64685 23.07385,11.76222 42.78517,-17.30678 z"
       id="path47"
       sodipodi:nodetypes="ccccc" />
    <path
       style="fill:#706056;fill-opacity:1;stroke:none;stroke-width:1px;stroke-linecap:butt;stroke-linejoin:miter;stroke-opacity:1"
       d="m 226.28609,450.14539 -46.50205,11.96604 19.4788,11.71456 49.39697,-14.57831 z"
       id="path48"
       sodipodi:nodetypes="ccccc" />
    <path
       style="fill:#7b695e;fill-opacity:1;stroke:none;stroke-width:1px;stroke-linecap:butt;stroke-linejoin:miter;stroke-opacity:1"
       d="m 81.071492,377.75015 -21.989538,9.51759 16.552048,9.61162 34.737708,11.87704 62.93376,41.47793 53.22273,-12.85951 c -27.56255,-9.58595 -55.89856,-19.12389 -78.18065,-29.03756 -13.95457,-7.18803 -26.84897,-14.65278 -44.6398,-20.83954 l -11.60467,-8.10169 z"
       id="path49"
       sodipodi:nodetypes="cccccccccc" />
    <path
       style="fill:#7b695e;fill-opacity:1;stroke:none;stroke-width:1px;stroke-linecap:butt;stroke-linejoin:miter;stroke-opacity:1"
       d="m 60.905088,366.92964 -26.605855,5.05481 16.557096,5.80956 26.038301,-6.94348 z"
       id="path50"
       sodipodi:nodetypes="ccccc" />
    <path
       style="fill:#7b695e;fill-opacity:1;stroke:none;stroke-width:1px;stroke-linecap:butt;stroke-linejoin:miter;stroke-opacity:1"
       d="m 43.594213,352.59777 -26.584928,3.27427 13.737303,6.13806 29.753808,-4.26015 z"
       id="path51"
       sodipodi:nodetypes="ccccc" />
    <path
       style="fill:#7b695e;fill-opacity:1;stroke:none;stroke-width:1px;stroke-linecap:butt;stroke-linejoin:miter;stroke-opacity:1"
       d="m 32.942556,339.15556 -30.1454903,1.31751 10.3517443,4.23849 30.894433,-2.4982 z"
       id="path52"
       sodipodi:nodetypes="ccccc" />
    <path
       style="fill:#7b695e;fill-opacity:1;stroke:none;stroke-width:1px;stroke-linecap:butt;stroke-linejoin:miter;stroke-opacity:1"
       d="m 21.934423,325.92406 -30.1454903,1.31751 10.3517443,4.23849 30.231797,-0.0443 -2.352455,-3.27436 z"
       id="path53"
       sodipodi:nodetypes="cccccc" />
    <path
       style="fill:#7b695e;fill-opacity:1;stroke:none;stroke-width:1px;stroke-linecap:butt;stroke-linejoin:miter;stroke-opacity:1"
       d="m 32.942556,339.15556 -30.1454903,1.31751 9.7770753,2.06167 33.231744,0.18415 z"
       id="path54"
       sodipodi:nodetypes="ccccc"
       transform="translate(-24.92374,-23.7519)" />
    <path
       style="fill:#7b695e;fill-opacity:1;stroke:none;stroke-width:1px;stroke-linecap:butt;stroke-linejoin:miter;stroke-opacity:1"
       d="m -1.4006291,301.84055 -30.1454899,1.31751 9.777075,2.06167 30.7147686,-0.45072 z"
       id="path55"
       sodipodi:nodetypes="ccccc" />
    <path
       style="fill:#534740;fill-opacity:1;stroke:none;stroke-width:1px;stroke-linecap:butt;stroke-linejoin:miter;stroke-opacity:1"
       d="m 295.53216,515.7314 -48.6459,31.4517 30.27647,17.14661 42.86996,-39.62619 z"
       id="path56"
       sodipodi:nodetypes="ccccc" />
    <path
       id="path67"
       style="fill:#ff0000;stroke-width:0.3;stroke-linecap:square"
       d="m -65.672378,122.26953 6.331079,2.6e-4 -0.0765,23.96755 -6.522099,2.25766 z"
       sodipodi:nodetypes="ccccc" />
    <path
       style="mix-blend-mode:normal;fill:#7b695e;fill-opacity:1;stroke:none;stroke-width:1px;stroke-linecap:butt;stroke-linejoin:miter;stroke-opacity:1;filter:url(#filter81)"
       d="m 141.25034,136.05876 -14.92663,-1.20059 -3.11449,1.06811 15.00925,1.33062 z"
       id="path68"
       sodipodi:nodetypes="ccccc" />
    <path
       style="mix-blend-mode:normal;fill:#7b695e;fill-opacity:1;stroke:none;stroke-width:1px;stroke-linecap:butt;stroke-linejoin:miter;stroke-opacity:1;filter:url(#filter82)"
       d="m 137.92189,138.51824 -13.93496,-1.01972 -2.71253,0.96341 13.61562,1.25445 z"
       id="path69"
       sodipodi:nodetypes="ccccc" />
    <path
       style="mix-blend-mode:normal;fill:#7b695e;fill-opacity:1;stroke:none;stroke-width:1px;stroke-linecap:butt;stroke-linejoin:miter;stroke-opacity:1;filter:url(#filter83)"
       d="m 135.15725,141.28691 -13.93496,-1.01972 -2.71253,0.96341 13.61562,1.25445 z"
       id="path70"
       sodipodi:nodetypes="ccccc" />
    <path
       style="mix-blend-mode:normal;fill:#7b695e;fill-opacity:1;stroke:none;stroke-width:1px;stroke-linecap:butt;stroke-linejoin:miter;stroke-opacity:1;filter:url(#filter84)"
       d="m 132.16293,144.27326 -13.93496,-1.01972 -2.71253,0.96341 13.61562,1.25445 z"
       id="path71"
       sodipodi:nodetypes="ccccc" />
    <path
       style="mix-blend-mode:normal;fill:#7b695e;fill-opacity:1;stroke:none;stroke-width:1px;stroke-linecap:butt;stroke-linejoin:miter;stroke-opacity:1;filter:url(#filter85)"
       d="m 130.03559,146.86803 -13.93496,-1.01972 -2.71253,0.96341 13.61562,1.25445 z"
       id="path72"
       sodipodi:nodetypes="ccccc" />
    <path
       style="mix-blend-mode:normal;fill:#7b695e;fill-opacity:1;stroke:none;stroke-width:1px;stroke-linecap:butt;stroke-linejoin:miter;stroke-opacity:1;filter:url(#filter86)"
       d="m 127.19433,149.22076 -13.32666,-1.45283 -2.71253,0.96341 13.00732,1.68756 z"
       id="path73"
       sodipodi:nodetypes="ccccc" />
    <path
       style="mix-blend-mode:normal;fill:#7b695e;fill-opacity:1;stroke:none;stroke-width:1px;stroke-linecap:butt;stroke-linejoin:miter;stroke-opacity:1;filter:url(#filter87)"
       d="m 124.33086,152.74491 -13.32666,-1.45283 -2.71253,0.96341 13.00732,1.68756 z"
       id="path74"
       sodipodi:nodetypes="ccccc" />
    <path
       style="mix-blend-mode:normal;fill:#7b695e;fill-opacity:1;stroke:none;stroke-width:1px;stroke-linecap:butt;stroke-linejoin:miter;stroke-opacity:1;filter:url(#filter88)"
       d="m 121.57114,155.79011 -13.32666,-1.45283 -3.77799,1.19638 14.07278,1.45459 z"
       id="path75"
       sodipodi:nodetypes="ccccc" />
    <path
       style="mix-blend-mode:normal;fill:#7b695e;fill-opacity:1;stroke:none;stroke-width:1px;stroke-linecap:butt;stroke-linejoin:miter;stroke-opacity:1;filter:url(#filter89)"
       d="m 117.84732,159.93919 -13.32666,-1.45283 -3.26246,1.15475 13.55725,1.49622 z"
       id="path76"
       sodipodi:nodetypes="ccccc" />
    <path
       style="mix-blend-mode:normal;fill:#7b695e;fill-opacity:1;stroke:none;stroke-width:1px;stroke-linecap:butt;stroke-linejoin:miter;stroke-opacity:1;filter:url(#filter90)"
       d="m 114.52039,163.2377 -13.32666,-1.45283 -2.712533,0.96341 13.007323,1.68756 z"
       id="path77"
       sodipodi:nodetypes="ccccc" />
    <path
       style="mix-blend-mode:normal;fill:#7b695e;fill-opacity:1;stroke:none;stroke-width:1px;stroke-linecap:butt;stroke-linejoin:miter;stroke-opacity:1;filter:url(#filter91)"
       d="m 110.56532,165.46602 -13.326661,-1.45283 -2.712533,0.96341 13.007324,1.68756 z"
       id="path78"
       sodipodi:nodetypes="ccccc" />
    <path
       style="mix-blend-mode:normal;fill:#7b695e;fill-opacity:1;stroke:none;stroke-width:1px;stroke-linecap:butt;stroke-linejoin:miter;stroke-opacity:1;filter:url(#filter92)"
       d="m 106.08271,168.27327 -14.062984,-1.53006 c -34.512911,0.0802 -65.359006,10.7661 -93.3588956,16.6337 l -0.196099,17.5992 C 31.681122,189.45994 42.9983,173.33014 106.08271,168.27327 Z"
       id="path79"
       sodipodi:nodetypes="ccccc" />
    <path
       id="F_EFFECT"
       
       d="m -10.859375,273.67773 -1.902344,81.95313 -0.27539,57.70703 C 51.393863,383.58467 171.29178,530.2821 201.60156,623.02344 l 138.375,1.44531 -3.34558,-94.11503 -41.07685,-14.75991 0.51698,-16.11881 -24.92853,-8.24062 0.0351,-11.88282 -22.19921,-8.86328 0.13581,-10.34766 -21.72829,-8.67578 -0.0356,-13.31371 c -48.092,20.75063 -94.54441,31.64555 -136.196913,58.24992 -1.779976,1.13691 -8.622521,1.36874 -10.384719,2.56395 l -3.095636,2.10136 2.00351,3.12956 -3.038676,2.30067 -15.976563,3.42383 0.06641,9.30274 0.267937,0.0897 -16.4375,4.75 0.07422,10.09766 -10.398438,2.86916 0.05469,7.53711 -7.505959,2.16993 0.04492,6.2793 0.160324,0.1902 -12.904297,3.72852 0.07617,10.55469 -9.9296875,2.86916 0.09375,12.77539 z"
       style="display:inline;fill:#000000;fill-opacity:0.15;filter:url(#soft-shadow)"
       transform="translate(0,5)"
       sodipodi:insensitive="true" />
    <path
       style="fill:#6e5e54;fill-opacity:1;stroke:none;stroke-width:1px;stroke-linecap:butt;stroke-linejoin:miter;stroke-opacity:1"
       d="m 110.37171,408.7564 62.93376,41.47793 53.22273,-12.85951 c -27.56255,-9.58595 -55.89856,-19.12389 -78.18065,-29.03756 -7.13185,4.2168 -19.97705,4.21887 -37.97584,0.41914 z"
       id="path12"
       sodipodi:nodetypes="ccccc" />
    <path
       style="fill:#6e5e54;fill-opacity:1;stroke:none;stroke-width:1px;stroke-linecap:butt;stroke-linejoin:miter;stroke-opacity:1"
       d="m -0.52806459,182.98987 0.58824842,17.51456 C 24.278261,190.6896 37.921582,182.15013 59.484245,175.73747 c -11.110287,1.11617 -13.769322,-0.49843 -9.486207,-4.3562 -16.134486,3.26652 -33.24608,7.36578 -50.52610259,11.6086 z"
       id="path13"
       sodipodi:nodetypes="ccccc" />
    <path
       style="fill:#6e5e54;fill-opacity:1;stroke:none;stroke-width:1px;stroke-linecap:butt;stroke-linejoin:miter;stroke-opacity:1"
       d="m 92.729605,379.89943 11.696115,8.11715 c -9.946698,2.1952 -20.509128,3.23557 -28.495274,9.10783 l -5.387309,-3.12269 c 4.945873,-6.34345 11.863901,-11.3644 22.186468,-14.10229 z"
       id="path14"
       sodipodi:nodetypes="ccccc" />
  </g>
  <g
     inkscape:groupmode="layer"
     id="layer5"
     inkscape:label="Layer 3"
     style="display:inline">
    <ellipse
       style="display:inline;mix-blend-mode:normal;fill:url(#radialGradient127);fill-opacity:1;stroke:none;stroke-width:0.401342;stroke-linecap:square;filter:url(#filter127)"
       id="path126"
       cx="151.65063"
       cy="124.77271"
       rx="138.56435"
       ry="11.837479"
       mask="url(#mask146)"
       inkscape:label="clipped"
       clip-path="none" />
    <ellipse
       style="display:inline;mix-blend-mode:normal;fill:url(#radialGradient128);fill-opacity:1;stroke:none;stroke-width:0.401342;stroke-linecap:square;filter:url(#filter128)"
       id="ellipse127"
       cx="151.65063"
       cy="124.77271"
       rx="138.56435"
       ry="11.837479"
       transform="matrix(0.64307484,0,0,0.62939965,51.488206,45.211073)" />
  </g>
  <g
     inkscape:groupmode="layer"
     id="layer6"
     inkscape:label="gate"
     style="display:inline">
    <path
       id="rect93"
       style="fill:#bc9600;fill-opacity:1;stroke:none;stroke-width:0.181257;stroke-linecap:square"
       d="m 113.54855,57.5954 -2.31214,7.923753 1.5736,4.785621 1.67946,0.524419 1.73178,-5.183126 z m 0.1419,13.351128 a 2.4461992,3.6719091 0 0 0 -2.4459,3.672129 2.4461992,3.6719091 0 0 0 2.4459,3.672129 2.4461992,3.6719091 0 0 0 2.44706,-3.672129 2.4461992,3.6719091 0 0 0 -2.44706,-3.672129 z m -1.77017,7.590903 c 1.35389,12.013821 0.92132,22.911129 0,33.502939 h -1.53523 c -0.48214,4.89098 -0.44666,9.78198 0,14.67295 h 6.60614 v -14.67295 h -1.43288 c -0.7564,-10.99894 -0.91305,-22.131667 0,-33.502939 z" />
    <path
       id="path122"
       style="mix-blend-mode:normal;fill:#aa8800;fill-opacity:1;stroke:none;stroke-width:0.332518;stroke-linecap:square;filter:url(#filter123)"
       d="m 146.86655,59.526479 1.24053,4.49578 -1.05097,0.76217 v 2.68555 c 0.555,0.6714 1.07494,1.41779 1.58127,2.17344 v -1.52539 l 0.01,-0.001 -0.84703,-1.03468 1.54048,-4.27384 1.24293,4.49739 -1.04858,0.75791 v 2.90625 c 0.49623,0.71689 0.9961,1.36653 1.51648,1.88587 v -1.79492 l -0.93819,-1.1505 1.54046,-4.27383 1.24054,4.49578 -0.9478,0.68681 v 2.76758 c 0.44598,0.26827 0.91364,0.41849 1.4181,0.39217 0.007,-4.1e-4 0.0144,-0.003 0.0216,-0.003 v -0.91602 l -0.67665,-0.75445 1.3845,-3.54832 0.9358,3.11374 0.17756,0.59171 -0.92621,0.62707 v 0.79882 c 0.44824,-0.0613 0.88947,-0.14326 1.33173,-0.23214 v -1.10352 l -0.58308,-0.68193 1.32692,-3.54006 0.8878,3.08352 1.18536,-3.16427 0.931,3.23161 1.10377,-2.94748 1.06777,3.71003 -0.9238,0.64821 v 0.57032 c 1.93878,0.85872 3.27189,3.74159 3.37607,11.65801 0.2222,14.389381 -2.29889,28.484521 -0.38151,43.416091 -5.55001,1.30086 -13.22708,2.18481 -20.93555,3.06339 V 65.235119 c 1.37002,-0.22363 2.49574,0.34939 3.49366,1.27982 v -1.69336 l -0.83503,-1.02273 z m -2.48348,7.82129 0.55189,63.303601 c 0.42118,-0.0474 0.81669,-0.0981 1.22614,-0.14668 V 68.381649 c -0.53426,-0.61405 -1.10937,-1.02594 -1.77803,-1.03387 z m 2.67304,2.27455 v 60.775391 c 0.53893,-0.0666 1.06145,-0.13465 1.58127,-0.20355 V 72.338699 c -0.5412,-0.90047 -1.05312,-1.86305 -1.58127,-2.71641 z m 10.30101,2.4649 -0.84702,0.59423 v 0.79492 c 0.42175,-0.0859 0.84258,-0.16503 1.24773,-0.22398 v -0.69532 z m 1.85481,0.0736 -0.55669,0.39045 v 0.61328 c 0.36714,-0.0174 0.7277,-0.0142 1.07018,0.0398 v -0.44336 z m -9.67715,1.51588 v 56.398431 c 0.51615,-0.0711 1.01761,-0.14406 1.51648,-0.21766 V 74.996149 c -0.56075,-0.25664 -1.0564,-0.73256 -1.51648,-1.31945 z m 2.41148,1.52889 v 54.519521 c 0.48945,-0.0753 0.96516,-0.15403 1.4397,-0.23204 V 75.073149 c -0.42441,0.0629 -0.84983,0.11798 -1.27173,0.13763 -0.0573,0.002 -0.11192,-0.004 -0.16797,-0.005 z m 3.66643,-0.49303 c -0.4358,0.0605 -0.88361,0.14262 -1.33172,0.22044 V 129.3451 c 0.45242,-0.0774 0.89105,-0.15789 1.33172,-0.23804 z m 0.89741,-0.0897 v 54.322261 c 0.42335,-0.0801 0.83342,-0.16472 1.24773,-0.24748 V 74.687879 c -0.4014,-0.0657 -0.81702,-0.0896 -1.24773,-0.0651 z m 2.14514,0.31517 V 128.5181 c 0.36491,-0.0756 0.71077,-0.15972 1.07018,-0.2376 V 75.692609 c -0.33129,-0.34267 -0.69,-0.58632 -1.07018,-0.7546 z m 1.95319,2.04778 v 51.097661 c 0.59794,-0.13412 1.21166,-0.2602 1.79961,-0.40087 -1.75168,-14.37963 -0.13054,-27.29739 -0.33352,-41.143531 -0.0607,-4.86065 -0.60421,-7.80481 -1.46609,-9.55326 z" />
    <path
       id="path123"
       style="mix-blend-mode:normal;fill:#aa8800;fill-opacity:1;stroke:none;stroke-width:0.271309;stroke-linecap:square;filter:url(#filter124)"
       d="m 128.19423,57.367115 -0.82585,4.49578 0.69966,0.76217 v 2.68555 c -0.36948,0.6714 -0.71562,1.41779 -1.0527,2.17344 v -1.52539 l -0.007,-10e-4 0.5639,-1.03468 -1.02555,-4.27384 -0.82745,4.49739 0.69807,0.75791 v 2.90625 c -0.33036,0.71689 -0.66313,1.36653 -1.00957,1.88587 v -1.79492 l 0.62458,-1.1505 -1.02553,-4.27383 -0.82586,4.49578 0.63098,0.68681 v 2.76758 c -0.2969,0.26827 -0.60824,0.41849 -0.94407,0.39217 -0.005,-4.1e-4 -0.01,-0.003 -0.0144,-0.003 v -0.91602 l 0.45046,-0.75445 -0.9217,-3.54832 -0.62299,3.11374 -0.11821,0.59171 0.61661,0.62707 v 0.79882 c -0.29841,-0.0613 -0.59215,-0.14326 -0.88657,-0.23214 v -1.10352 l 0.38817,-0.68193 -0.88337,-3.54006 -0.59103,3.08352 -0.78913,-3.16427 -0.6198,3.23161 -0.73481,-2.94748 -0.71085,3.71003 0.615,0.64821 v 0.57032 c -1.2907,0.85872 -2.17819,3.74159 -2.24755,11.65801 -0.14792,14.389381 1.53044,28.484515 0.25399,43.416085 3.6948,1.30086 8.80566,2.18481 13.93741,3.06339 V 63.075755 c -0.91206,-0.22363 -1.66148,0.34939 -2.32583,1.27982 v -1.69336 l 0.55591,-1.02273 z m 1.65333,7.82129 -0.36741,63.303595 c -0.28039,-0.0474 -0.54369,-0.0981 -0.81628,-0.14668 V 66.222285 c 0.35568,-0.61405 0.73854,-1.02594 1.18369,-1.03387 z m -1.77952,2.27455 v 60.775385 c -0.35878,-0.0666 -0.70664,-0.13465 -1.0527,-0.20355 V 70.179335 c 0.36029,-0.90047 0.70109,-1.86305 1.0527,-2.71641 z m -6.85769,2.4649 0.56389,0.59423 v 0.79492 c -0.28077,-0.0859 -0.56093,-0.16503 -0.83065,-0.22398 v -0.69532 z m -1.2348,0.0736 0.3706,0.39045 v 0.61328 c -0.24441,-0.0174 -0.48445,-0.0142 -0.71245,0.0398 v -0.44336 z m 6.44236,1.51588 v 56.398425 c -0.34361,-0.0711 -0.67745,-0.14406 -1.00956,-0.21766 V 72.836785 c 0.37331,-0.25664 0.70328,-0.73256 1.00956,-1.31945 z m -1.60539,1.52889 v 54.519515 c -0.32584,-0.0753 -0.64253,-0.15403 -0.95845,-0.23204 V 72.913785 c 0.28254,0.0629 0.56576,0.11798 0.84663,0.13763 0.0381,0.002 0.0745,-0.004 0.11182,-0.005 z m -2.44085,-0.49303 c 0.29012,0.0605 0.58825,0.14262 0.88657,0.22044 v 54.412095 c -0.30119,-0.0774 -0.5932,-0.15789 -0.88657,-0.23804 z m -0.59743,-0.0897 v 54.322255 c -0.28184,-0.0801 -0.55484,-0.16472 -0.83065,-0.24748 V 72.528515 c 0.26722,-0.0657 0.54391,-0.0896 0.83065,-0.0651 z m -1.42809,0.31517 v 53.580065 c -0.24293,-0.0756 -0.47318,-0.15972 -0.71245,-0.2376 V 73.533245 c 0.22055,-0.34267 0.45936,-0.58632 0.71245,-0.7546 z m -1.30029,2.04778 V 125.9241 c -0.39807,-0.13412 -0.80664,-0.2602 -1.19806,-0.40087 1.16615,-14.37963 0.0869,-27.297384 0.22204,-41.143525 0.0404,-4.86065 0.40224,-7.80481 0.97602,-9.55326 z" />
    <path
       id="path125"
       style="display:inline;fill:#bc9600;fill-opacity:1;stroke:none;stroke-width:0.181257;stroke-linecap:square"
       d="m 167.59859,59.88641 2.31214,7.923753 -1.5736,4.785621 -1.67946,0.524419 -1.73178,-5.183126 z m -0.1419,13.351128 a 2.4461992,3.6719091 0 0 1 2.4459,3.672129 2.4461992,3.6719091 0 0 1 -2.4459,3.672129 2.4461992,3.6719091 0 0 1 -2.44706,-3.672129 2.4461992,3.6719091 0 0 1 2.44706,-3.672129 z m 1.77017,7.590903 c -1.35389,12.013821 -0.92132,22.911129 0,33.502939 h 1.53523 c 0.48214,4.89098 0.44666,9.78198 0,14.67295 h -6.60614 v -14.67295 h 1.43288 c 0.7564,-10.99894 0.91305,-22.131667 0,-33.502939 z" />
  </g>
  <g
     id="g18"
     inkscape:label="GATE"
     style="display:inline"
     transform="translate(-48.42801,-76.251782)">
    <path
       id="path109"
       style="fill:#aa8800;fill-opacity:1;stroke:none;stroke-width:0.3;stroke-linecap:square"
       d="m 479.17071,88.644043 c -4.09786,-0.09934 -5.56485,9.926702 -8.70703,10.279297 -4.17601,0.468606 -8.47233,-3.44024 -8.64453,12.66602 -0.18086,14.42127 1.87124,28.15456 0.31054,43.36133 4.51757,0.50429 10.76651,0.28639 17.04102,0.0586 z m -1.39648,2.359375 -0.44836,63.381912 c -5.7323,0.21913 -10.09634,0.0252 -14.22352,-0.46003 1.42583,-14.63105 0.10647,-27.31552 0.2717,-41.19081 0.15732,-15.496477 4.29207,-12.30755 8.10721,-12.758416 2.87063,-0.339245 3.83668,-8.50376 6.29297,-8.972656 z"
       sodipodi:nodetypes="csccccccccsc" />
    <rect
       style="fill:#aa8800;fill-opacity:1;stroke:none;stroke-width:0.3;stroke-linecap:square"
       id="rect109"
       width="0.71845978"
       height="56.020237"
       x="464.56677"
       y="98.411041" />
    <rect
       style="fill:#aa8800;fill-opacity:1;stroke:none;stroke-width:0.3;stroke-linecap:square"
       id="rect110"
       width="0.72993469"
       height="56.913776"
       x="466.15778"
       y="97.770584" />
    <rect
       style="fill:#aa8800;fill-opacity:1;stroke:none;stroke-width:0.3;stroke-linecap:square"
       id="rect111"
       width="0.72993469"
       height="56.913776"
       x="467.90302"
       y="97.568413" />
    <rect
       style="fill:#aa8800;fill-opacity:1;stroke:none;stroke-width:0.3;stroke-linecap:square"
       id="rect112"
       width="0.72993469"
       height="56.913776"
       x="469.71704"
       y="97.682892" />
    <rect
       style="fill:#aa8800;fill-opacity:1;stroke:none;stroke-width:0.3;stroke-linecap:square"
       id="rect113"
       width="0.72994995"
       height="59.613785"
       x="471.61731"
       y="94.98288" />
    <rect
       style="fill:#aa8800;fill-opacity:1;stroke:none;stroke-width:0.3;stroke-linecap:square"
       id="rect114"
       width="0.72994995"
       height="62.212791"
       x="473.58063"
       y="92.383873" />
    <rect
       style="fill:#aa8800;fill-opacity:1;stroke:none;stroke-width:0.3;stroke-linecap:square"
       id="rect115"
       width="0.72994995"
       height="66.366592"
       x="475.59772"
       y="88.610031" />
    <path
       style="fill:#aa8800;fill-opacity:1;stroke:none;stroke-width:1px;stroke-linecap:butt;stroke-linejoin:miter;stroke-opacity:1"
       d="m 476.07202,89.161161 -1.32987,-0.948499 1.01009,-4.674761 1.25442,4.051976 z"
       id="path115"
       sodipodi:nodetypes="ccccc" />
    <path
       style="fill:#aa8800;fill-opacity:1;stroke:none;stroke-width:1px;stroke-linecap:butt;stroke-linejoin:miter;stroke-opacity:1"
       d="m 474.05808,92.799249 -1.32987,-0.948499 1.01009,-4.674761 1.25442,4.051976 z"
       id="path116"
       sodipodi:nodetypes="ccccc" />
    <path
       style="fill:#aa8800;fill-opacity:1;stroke:none;stroke-width:1px;stroke-linecap:butt;stroke-linejoin:miter;stroke-opacity:1"
       d="m 472.17566,95.958745 -1.32987,-0.948499 1.01009,-4.674761 1.25442,4.051976 z"
       id="path117"
       sodipodi:nodetypes="ccccc" />
    <path
       style="fill:#aa8800;fill-opacity:1;stroke:none;stroke-width:0.861667px;stroke-linecap:butt;stroke-linejoin:miter;stroke-opacity:1"
       d="m 470.15784,98.45441 -1.19466,-0.783932 0.9074,-3.863679 1.12688,3.348948 z"
       id="path118"
       sodipodi:nodetypes="ccccc" />
    <path
       style="fill:#aa8800;fill-opacity:1;stroke:none;stroke-width:0.84359px;stroke-linecap:butt;stroke-linejoin:miter;stroke-opacity:1"
       d="m 468.30379,98.352678 -1.14506,-0.783932 0.86973,-3.863679 1.08009,3.348948 z"
       id="path119"
       sodipodi:nodetypes="ccccc" />
    <path
       style="fill:#aa8800;fill-opacity:1;stroke:none;stroke-width:0.84359px;stroke-linecap:butt;stroke-linejoin:miter;stroke-opacity:1"
       d="m 466.61588,98.569015 -1.14506,-0.783932 0.86973,-3.863679 1.08009,3.348948 z"
       id="path120"
       sodipodi:nodetypes="ccccc" />
    <path
       style="fill:#aa8800;fill-opacity:1;stroke:none;stroke-width:0.84359px;stroke-linecap:butt;stroke-linejoin:miter;stroke-opacity:1"
       d="m 464.95968,99.145696 -1.14506,-0.783932 0.86973,-3.863679 1.08009,3.348948 z"
       id="path121"
       sodipodi:nodetypes="ccccc" />
  </g>
</svg>
