<?xml version="1.0" encoding="UTF-8" standalone="no"?>
<!-- Created with Inkscape (http://www.inkscape.org/) -->

<svg
   width="100"
   height="100"
   viewBox="0 0 100 100"
   version="1.1"
   id="svg1"
   inkscape:version="1.3.2 (091e20e, 2023-11-25)"
   sodipodi:docname="smiley.svg"
   xmlns:inkscape="http://www.inkscape.org/namespaces/inkscape"
   xmlns:sodipodi="http://sodipodi.sourceforge.net/DTD/sodipodi-0.dtd"
   xmlns:xlink="http://www.w3.org/1999/xlink"
   xmlns="http://www.w3.org/2000/svg"
   xmlns:svg="http://www.w3.org/2000/svg">
  <sodipodi:namedview
     id="namedview1"
     pagecolor="#ffffff"
     bordercolor="#666666"
     borderopacity="1.0"
     inkscape:showpageshadow="2"
     inkscape:pageopacity="0.0"
     inkscape:pagecheckerboard="0"
     inkscape:deskcolor="#d1d1d1"
     inkscape:document-units="px"
     inkscape:zoom="4.6159931"
     inkscape:cx="52.209784"
     inkscape:cy="51.234912"
     inkscape:window-width="1402"
     inkscape:window-height="951"
     inkscape:window-x="148"
     inkscape:window-y="75"
     inkscape:window-maximized="0"
     inkscape:current-layer="layer1" />
  <defs
     id="defs1" />
  <g
     inkscape:label="Layer 1"
     inkscape:groupmode="layer"
     id="layer1">
    <path
       style="fill:#000000;fill-rule:evenodd;stroke-width:0.333;stroke-linecap:square;stroke-opacity:0.0639648"
       sodipodi:type="inkscape:offset"
       inkscape:radius="1.3204436"
       inkscape:original="M 50.119141 16.898438 A 26.980059 33.700066 0 0 0 23.140625 50.599609 A 26.980059 33.700066 0 0 0 50.119141 84.298828 A 26.980059 33.700066 0 0 0 77.099609 50.599609 A 26.980059 33.700066 0 0 0 50.119141 16.898438 z "
       xlink:href="#path1"
       id="path7"
       inkscape:href="#path1"
       d="m 47.958984,15.625 c -7.495101,-1.42e-4 -14.903939,3.863527 -20.109375,10.365234 -5.205435,6.501708 -8.191223,15.554949 -8.191406,24.654297 -2.39e-4,9.099684 2.985934,18.15412 8.191406,24.65625 5.205473,6.502131 12.613997,10.365377 20.109375,10.365235 7.495379,1.42e-4 14.903903,-3.863104 20.109375,-10.365235 5.205473,-6.50213 8.191646,-15.556566 8.191407,-24.65625 C 76.259583,41.545183 73.273795,32.491942 68.068359,25.990234 62.862924,19.488527 55.454086,15.624858 47.958984,15.625 Z" />
    <ellipse
       style="fill:#ffcc00;fill-rule:evenodd;stroke-width:0.333;stroke-linecap:square;stroke-opacity:0.0639648"
       id="path1"
       cx="50.119823"
       cy="50.598656"
       rx="26.980059"
       ry="33.700066" />
    <path
       id="path2"
       style="fill-rule:evenodd;stroke-width:0.333;stroke-linecap:square;stroke-opacity:0.0639648"
       d="m 42.119536,49.01335 c -2.030427,-2.566601 -4.667543,-2.187521 -6.351806,-3.854538 -1.334778,-1.321111 -3.446095,1.413454 -4.163033,4.225823 2.069468,-0.827113 2.399275,-0.668917 3.68499,-0.706833 2.107047,-0.06214 4.590266,-1.034522 6.829849,0.335548 z"
       sodipodi:nodetypes="cscsc" />
    <path
       id="path3"
       style="fill-rule:evenodd;stroke-width:0.325032;stroke-linecap:square;stroke-opacity:0.0639648"
       d="m 68.90037,49.600309 c -4.378733,-0.259272 -10.714849,2.361812 -12.444141,0.859121 1.958472,-0.439193 0.768451,-1.587518 3.775629,-1.587518 3.007178,0 5.261492,0.02739 8.668512,0.728397 z"
       sodipodi:nodetypes="cccc" />
    <path
       id="path4"
       style="fill-rule:evenodd;stroke-width:0.452724;stroke-linecap:square;stroke-opacity:0.0639648"
       d="M 65.787886,71.524519 C 53.051925,67.254709 54.939523,68.627648 50.020621,71.288547 37.966439,77.809302 39.8167,69.124433 34.639409,69.924103 c 3.608141,-3.411562 12.188563,1.506785 16.297856,-0.94388 6.173117,-3.681469 15.013482,1.604889 14.850621,2.544296 z"
       sodipodi:nodetypes="cscsc" />
    <path
       style="fill:#000000;fill-opacity:1;stroke:none;stroke-width:1px;stroke-linecap:butt;stroke-linejoin:miter;stroke-opacity:1"
       d="m 27.029262,44.070899 c 4.694264,-0.133568 5.410245,-3.006363 7.432872,-3.82782 1.870293,-0.75959 4.217729,-0.0257 6.709894,1.340051 -2.016193,-1.483819 -4.363433,-3.251563 -6.623469,-2.565048 -1.768914,0.53733 -3.447785,4.378854 -7.519297,5.052817 z"
       id="path5"
       sodipodi:nodetypes="cscsc" />
    <path
       style="fill:#000000;stroke:none;stroke-width:1px;stroke-linecap:butt;stroke-linejoin:miter;stroke-opacity:1"
       d="m 61.078351,44.895162 c 1.781181,-1.929838 4.277102,-0.900206 6.547611,-0.803922 -2.130045,-1.28242 -4.370363,-2.203687 -7.367807,-0.645314 -1.266616,1.705728 -3.136988,1.475576 -4.81004,1.878109 1.718377,0.004 2.629555,0.756945 5.630236,-0.428873 z"
       id="path6"
       sodipodi:nodetypes="ccccc" />
    <path
       style="fill:#ffffff;stroke:none;stroke-width:1px;stroke-linecap:butt;stroke-linejoin:miter;stroke-opacity:1"
       d="m 37.589928,69.576645 c 3.682346,-0.771317 8.510049,1.798251 13.117456,0.77203 -2.706268,0.682094 -4.132729,2.125525 -8.951892,2.339094 -1.493328,-0.06237 -2.794787,-1.909068 -4.165564,-3.111124 z"
       id="path8"
       sodipodi:nodetypes="cccc" />
  </g>
</svg>
