<!--
https://chatgpt.com/c/67b607b4-28c4-8010-9d72-277cea9123b0
-->

<svg width="400" height="200" viewBox="0 0 400 200" xmlns="http://www.w3.org/2000/svg">
    <!-- Rectangle -->
    <rect x="100" y="50" width="100" height="100" stroke="black" fill="none" stroke-width="2"/>
    
    <!-- Left Curly Brace -->
    <path d="M 95,50
             Q 85,50 85,60
             Q 85,75 75,85
             Q 85,95 85,110
             Q 85,125 95,125"
          fill="none" stroke="black" stroke-width="2"/>
    
    <!-- Right Curly Brace -->
    <path d="M 205,50
             Q 215,50 215,60
             Q 215,75 225,85
             Q 215,95 215,110
             Q 215,125 205,125"
          fill="none" stroke="black" stroke-width="2"/>
    
    <!-- Top Curly Brace -->
    <path d="M 100,45
             Q 100,35 110,35
             Q 125,35 135,25
             Q 145,35 160,35
             Q 170,35 170,45"
          fill="none" stroke="black" stroke-width="2"/>

    <!-- Bottom Curly Brace -->
    <path d="M 100,155
             Q 100,165 110,165
             Q 125,165 135,175
             Q 145,165 160,165
             Q 170,165 170,155"
          fill="none" stroke="black" stroke-width="2"/>

    <!-- Right Curly Brace at 0,0 -->
    <path d="M 0,0
             Q 10,0 10,10
             Q 10,25 20,35
             Q 10,45 10,60
             Q 10,70 0,70"
          stroke="black" fill="none" stroke-width="2"/>



    <path
       style="fill:none;stroke:#f21010;stroke-width:0.725468px;stroke-linecap:butt;stroke-linejoin:miter;stroke-opacity:1"
       d="M 4.4636593e-4,300.36273 399.99955,300.63726"
       id="path6" />
    <path
       style="fill:none;stroke:#1d22df;stroke-width:2;stroke-linecap:butt;stroke-linejoin:miter;stroke-dasharray:none;stroke-opacity:1"
       d="M 0.49851479,399.99835 0,0 399.99482,0.49849065"
       id="path7" />
    <!-- ORIGIN -->   
    <circle cx="0" cy="0" r="5" fill="#1d22df" />
    <!-- ARROW HEADS -->
    <path d="M 400 -5 L 410 0 L 400 5 Z" fill="#1d22df"/>
    <path d="M -5 400 L 0 410 L 5 400 Z" fill="#1d22df"/>
    <rect x="-2" y="60" 
         width="20" 
         height="250" 
         fill="white" 
         stroke="none" />
   <text x="50" y="10" 
         text-anchor="middle" 
         dominant-baseline="hanging" 
         font-size="12">Origin at (0, 0)</text>
   <text x="350" y="10" 
         text-anchor="middle" 
         dominant-baseline="hanging" 
         font-size="12">X-Direction</text>
   <text x="-100" y="70" 
         text-anchor="middle" 
         dominant-baseline="central" 
         transform="rotate(-90 10 75)" 
         font-size="12">Y (Notice that positive is down...)</text>
  


    <!-- Coordinate Display -->
    <text id="mouse-coords" x="10" y="490" font-size="14" fill="black">x: 0, y: 0</text>

    <script type="text/javascript">
        <![CDATA[
        (function() {
            let svg = document.documentElement;
            let textElem = document.getElementById("mouse-coords");

            function getSVGCoords(evt) {
                let pt = svg.createSVGPoint();
                pt.x = evt.clientX;
                pt.y = evt.clientY;
                let transformed = pt.matrixTransform(svg.getScreenCTM().inverse());
                textElem.textContent = `x: ${transformed.x.toFixed(2)}, y: ${transformed.y.toFixed(2)}`;
            }

            svg.addEventListener("mousemove", getSVGCoords);
        })();
        ]]>
    </script>

</svg>
