<?xml version="1.0" encoding="UTF-8" standalone="no"?>
<!-- Created with Inkscape (http://www.inkscape.org/) -->

<svg
   width="320"
   height="80"
   viewBox="0 0 800 300"
   version="1.1"
   id="svg_club"
   xmlns="http://www.w3.org/2000/svg"
   xmlns:svg="http://www.w3.org/2000/svg">

  <g id="club_card"
     transform="translate( -60 110 ) scale( 0.6 1 ) skewX(20) skewY(-30)">

    <rect id="back"
       x="20"
       y="0"
       width="160"
       height="200"
       fill="rgb(200, 200, 200)"
       stroke="black"
        />

    <path id="club"
       style="display:inline;fill:#1a1a1a;fill-opacity:1;stroke:none;stroke-width:1px;stroke-linecap:butt;stroke-linejoin:miter;stroke-opacity:1"
       d="M 100,30 A 30,30 0 0 0 70,60 30,30 0 0 0 79.103516,81.421875 30,30 0 0 0 70,80 30,30 0 0 0 40,110 30,30 0 0 0 70,140 30,30 0 0 0 92.957031,129.26562 c 21.501699,17.33179 4.458343,27.13382 -22.373047,41.39258 l 47.578126,-0.52929 c 4.97163,-9.57796 -11.21606,-30.44679 -9.62695,-39.27539 A 30,30 0 0 0 130,140 30,30 0 0 0 160,110 30,30 0 0 0 130,80 30,30 0 0 0 120.83789,81.480469 30,30 0 0 0 130,60 30,30 0 0 0 100,30 Z" />
  
  </g>

  <g id="spade_card"
     transform="translate( 20 110 ) scale( 0.6 1 ) skewX(10) skewY(-20)"
     >

    <rect id="back_s"
       x="20"
       y="0"
       width="160"
       height="200"
       fill="rgb(200, 200, 200)"
       stroke="black"
    />

    <path id="spade"
       style="fill:#1a1a1a;stroke:none;stroke-width:0.462019;stroke-linecap:square"
       d="M 99.015625,20 C 70.724645,57.13782 50.082647,50.166438 40.847656,84.255859 31.917531,117.21992 57.673313,146.0278 94.775391,130.79688 c 18.655819,16.38996 1.840529,26.0274 -24.191407,39.86132 l 29.498046,-0.11132 c 18.91331,-11.80249 14.40187,-24.97045 6.31055,-38.67969 36.45187,12.30142 59.63787,-15.56352 50.79101,-47.611331 C 147.51594,49.234687 128.68105,57.987599 99.015625,20 Z" 
    />

  </g>
<!-- transform="translate( 400 0 )" -->
  <g id="diamond_card"
     transform="translate( 100 100 ) scale( 0.8 1 ) skewY(-10)"
     >

    <rect id="back_d"
       x="20"
       y="0"
       width="160"
       height="200"
       fill="rgb(200, 200, 200)"
       stroke="black"
    />

    <path id="diamond"
       style="fill:#d40000;stroke:none;stroke-width:1px;stroke-linecap:butt;stroke-linejoin:miter;stroke-opacity:1"
       d="m 100,30 c -11.561571,27.08106 -23.864601,51.716208 -50,70 23.622851,22.68823 37.882912,46.24474 50,70 11.56856,-22.86482 21.86191,-47.05185 50,-70 C 120.06986,81.48564 112.43246,55.986941 100,30 Z"
    />

  </g>

  <g id="heart_card"
     transform="translate( 200 100 )">

    <rect id="back_h"
       x="20"
       y="0"
       width="160"
       height="200"
       fill="rgb(200, 200, 200)"
       stroke="black"
        />

    <path id="heart"
       style="fill:#d40000;stroke:none;stroke-width:0.470167;stroke-linecap:square"
       d="M 159.76492,95 C 149.83192,130.29854 130.47964,121.47646 100,159.76492 70.932525,122.33297 49.723542,129.35941 40.235081,95 30.713825,60.521836 59.564513,30.534345 100,50 c 41.74835,-19.075432 69.45391,10.568595 59.76492,45 z" 
    />

  </g>
  
</svg>
