<?xml version="1.0" encoding="UTF-8" standalone="no"?>
<!-- Created with Inkscape (http://www.inkscape.org/) -->

<svg
   width="400"
   height="400"
   viewBox="0 0 400 400"
   version="1.1"
   id="svg1"
   xmlns="http://www.w3.org/2000/svg"
   xmlns:svg="http://www.w3.org/2000/svg">
  <defs
     id="defs1" />
  <g
     id="layer2"
     style="display:inline">
    <path
       style="fill:#1a1a1a;stroke:none;stroke-width:1px;stroke-linecap:butt;stroke-linejoin:miter;stroke-opacity:1"
       d="M 53.627785,71.104185 53.397503,331.23249 248.02777,323.68445 248.43063,139.38576 Z"
       id="path3" />
    <g
       id="g9"
       transform="matrix(0.68585357,0,0,1.0044499,70.870067,-3.4164197)">
      <ellipse
         style="fill:#ffcc00;fill-opacity:1;stroke:#e8871c;stroke-width:2;stroke-linecap:square;stroke-opacity:1"
         id="path7"
         cx="129.77693"
         cy="225.39883"
         rx="39.037926"
         ry="38.202057" />
      <ellipse
         style="fill:#d4aa00;fill-opacity:1;stroke:#e8871c;stroke-width:2;stroke-linecap:square;stroke-opacity:1"
         id="path8"
         cx="117.90241"
         cy="217.79272"
         rx="5.8012295"
         ry="8.5615606" />
      <ellipse
         style="fill:#d4aa00;fill-opacity:1;stroke:#e8871c;stroke-width:2;stroke-linecap:square;stroke-opacity:1"
         id="path9"
         cx="140.85002"
         cy="218.28329"
         rx="8.0057402"
         ry="12.171914" />
      <path
         id="ellipse9"
         style="fill:#d4aa00;stroke:#e8871c;stroke-width:2;stroke-linecap:square"
         d="m 139.64874,248.00275 c 0,3.34539 -4.84263,0.70369 -9.75149,0.70369 -4.90886,0 -10.46887,5.37017 -10.46887,2.02478 0,-3.34538 5.56001,-14.1395 10.46887,-14.1395 4.90886,0 9.75149,8.06564 9.75149,11.41103 z" />
    </g>
  </g>
  <g
     id="layer3"
     style="display:inline">
    <path
       style="fill:#c36f6f;fill-opacity:0.269824;stroke:#e42222;stroke-width:1px;stroke-linecap:butt;stroke-linejoin:miter;stroke-dasharray:2, 1;stroke-dashoffset:0;stroke-opacity:1"
       d="m 108.27008,155.18129 0.21667,117.78307 96.12015,-0.081 0.74337,-94.13081 z"
       id="path11" />
  </g>
  <g
     id="layer1">
    <path
       style="fill:none;stroke:#f41515;stroke-width:1px;stroke-linecap:butt;stroke-linejoin:miter;stroke-opacity:1"
       d="M 17.095727,58.539573 300.25636,158.17256"
       id="path1" />
    <path
       style="fill:none;stroke:#f41515;stroke-width:1px;stroke-linecap:butt;stroke-linejoin:miter;stroke-opacity:1"
       d="M 53.107784,38.501522 53.553001,356.0661"
       id="path2" />
    <path
       style="fill:#f41515;fill-opacity:1;stroke:none;stroke-width:1px;stroke-linecap:butt;stroke-linejoin:miter;stroke-opacity:1"
       d="m 299.47107,160.36354 0.16817,-4.823 7.42938,5.58962 z"
       id="path13" />
    <path
       style="fill:#f41515;fill-opacity:1;stroke:none;stroke-width:1px;stroke-linecap:butt;stroke-linejoin:miter;stroke-opacity:1"
       d="m 50.946025,39.261425 2.244481,-7.658884 2.447829,9.137811 z"
       id="path14" />
    <path
       style="fill:#f41515;fill-opacity:1;stroke:none;stroke-width:1px;stroke-linecap:butt;stroke-linejoin:miter;stroke-opacity:1"
       d="m 16.919386,61.77606 0.988635,-5.853845 -7.294793,-0.913513 z"
       id="path15" />
    <path
       style="fill:#f41515;fill-opacity:1;stroke:none;stroke-width:1px;stroke-linecap:butt;stroke-linejoin:miter;stroke-opacity:1"
       d="m 50.936277,355.4758 4.945155,-0.62689 -2.653392,7.21159 z"
       id="path16" />
    <g
       id="text18"
       style="font-size:12px;baseline-shift:baseline;fill:#ff0000;stroke-width:2"
       transform="translate(-366.2723,34.949553)"
       aria-label="The SVG canvas is theoretically&#10;infinite in all its directions...">
      <path
         d="m 469.533,-16.7189 6.958,3.7046 0.009,2.4705 -2.888,-1.5185 0.075,19.35825 -1.117,-0.52968 -0.076,-19.41647 -2.951,-1.5516 z m 12.948,18.54888 0.033,9.65232 -0.965,-0.4576 -0.033,-9.59205 c -0.006,-1.5182934 -0.119,-2.70997 -0.339,-3.57568 -0.221,-0.8668 -0.549,-1.41258 -0.987,-1.63693 -0.527,-0.27028 -0.942,-0.02743 -1.245,0.73001 -0.302,0.75864 -0.451,1.92797 -0.445,3.506925 l 0.033,9.137245 -0.991,-0.47017 -0.084,-22.53465 0.993,0.5309 0.032,8.81584 c 0.232,-0.85194 0.505,-1.43647 0.819,-1.75393 0.318,-0.3151 0.684,-0.36501 1.097,-0.15049 0.68,0.35283 1.194,1.19194 1.545,2.51635 0.35,1.31223 0.529,3.072326 0.537,5.28191 z m 6.807,4.38745 0.004,1.26135 -4.314,-2.13295 c 0.047,1.81668 0.248,3.28249 0.601,4.39628 0.356,1.10379 0.846,1.80459 1.47,2.10329 0.36,0.1726 0.707,0.2173 1.041,0.1343 0.337,-0.0812 0.67,-0.2854 0.998,-0.6124 l 0.008,2.4388 c -0.332,0.2341 -0.673,0.3709 -1.024,0.4103 -0.351,0.0394 -0.709,-0.0267 -1.072,-0.1987 -0.914,-0.4324 -1.645,-1.5132 -2.189,-3.2447 -0.543,-1.7353 -0.82,-3.86573 -0.828,-6.38776 -0.009,-2.60795 0.239,-4.545659 0.745,-5.81013 0.508,-1.26878 1.193,-1.67773 2.054,-1.23101 0.768,0.39883 1.375,1.3973 1.822,2.993591 0.449,1.584539 0.677,3.543549 0.684,5.879739 z m -0.932,-1.22172 c -0.011,-1.41818 -0.159,-2.62016 -0.442,-3.60698 -0.281,-0.986688 -0.652,-1.599079 -1.115,-1.836432 -0.525,-0.269499 -0.946,-0.075646 -1.263,0.582981 -0.313,0.661487 -0.491,1.727571 -0.534,3.197561 z m 10.016,-5.690081 0.008,2.692871 c -0.369,-0.69388 -0.718,-1.250449 -1.046,-1.669189 -0.328,-0.419529 -0.646,-0.710277 -0.952,-0.871861 -0.534,-0.281308 -0.947,-0.205185 -1.237,0.229532 -0.288,0.437122 -0.431,1.199197 -0.428,2.285628 0.003,0.91141 0.101,1.65114 0.295,2.21876 0.196,0.55945 0.564,1.11858 1.103,1.6766 l 0.591,0.64361 c 0.728,0.7616 1.264,1.72478 1.608,2.89014 0.348,1.15548 0.523,2.55978 0.528,4.21448 0.005,1.9727 -0.223,3.3562 -0.686,4.1523 -0.461,0.7996 -1.143,0.9868 -2.049,0.5581 -0.343,-0.1623 -0.71,-0.4457 -1.1,-0.8508 -0.388,-0.4044 -0.792,-0.9227 -1.212,-1.5551 l -0.009,-2.8771 c 0.404,0.8308 0.799,1.4993 1.184,2.0061 0.385,0.5057 0.761,0.8468 1.13,1.0237 0.559,0.2677 0.988,0.1632 1.288,-0.3124 0.299,-0.4748 0.447,-1.2862 0.444,-2.435 -0.003,-1.003 -0.114,-1.8411 -0.333,-2.5149 -0.217,-0.6731 -0.573,-1.27517 -1.071,-1.80684 l -0.597,-0.6285 c -0.735,-0.78111 -1.269,-1.69761 -1.602,-2.74856 -0.333,-1.05299 -0.502,-2.3695 -0.506,-3.94814 -0.006,-1.828189 0.217,-3.14898 0.669,-3.96066 0.454,-0.80793 1.078,-0.99873 1.872,-0.57533 0.339,0.18088 0.684,0.45179 1.035,0.81245 0.35,0.35993 0.708,0.81007 1.073,1.350109 z m 3.795,21.497271 -2.746,-21.60775 1.002,0.533392 2.269,18.145658 2.157,-15.78896 0.966,0.51451 -2.579,18.71025 z m 9.264,1.5984 -0.011,-5.2702 -1.471,-0.7327 -0.005,-2.192 2.356,1.1891 0.018,8.4025 c -0.342,0.5605 -0.722,0.9302 -1.138,1.1086 -0.418,0.17 -0.865,0.1426 -1.342,-0.0831 -1.048,-0.4958 -1.875,-1.7887 -2.478,-3.8821 -0.602,-2.1084 -0.908,-4.7884 -0.916,-8.0347 -0.008,-3.25619 0.286,-5.63636 0.88,-7.13606 0.595,-1.50196 1.419,-1.96988 2.468,-1.41013 0.436,0.23247 0.848,0.61071 1.238,1.13427 0.392,0.5239 0.752,1.17909 1.081,1.9653 l 0.006,2.82242 c -0.332,-1.00382 -0.685,-1.81447 -1.059,-2.43145 -0.376,-0.61837 -0.77,-1.03714 -1.185,-1.25568 -0.82,-0.43234 -1.438,-0.08184 -1.851,1.05506 -0.411,1.14111 -0.614,3.05687 -0.607,5.74477 0.006,2.6784 0.218,4.7971 0.635,6.3537 0.42,1.5541 1.04,2.5269 1.86,2.92 0.319,0.153 0.603,0.2102 0.852,0.172 0.249,-0.0469 0.472,-0.1935 0.669,-0.4396 z m 8.701,-6.8536 0.004,2.203 c -0.22,-0.479 -0.441,-0.8654 -0.664,-1.1589 -0.22,-0.3011 -0.444,-0.5097 -0.67,-0.6258 -0.507,-0.2602 -0.902,0.0271 -1.182,0.8638 -0.28,0.8294 -0.419,2.1274 -0.416,3.8929 0.004,1.7653 0.148,3.2073 0.432,4.3249 0.284,1.1069 0.68,1.7815 1.187,2.0245 0.226,0.1084 0.449,0.1255 0.669,0.0514 0.222,-0.0811 0.442,-0.2525 0.66,-0.5139 l 0.004,2.1753 c -0.215,0.2044 -0.44,0.3281 -0.673,0.3711 -0.231,0.0444 -0.478,0.0045 -0.741,-0.12 -0.718,-0.3395 -1.291,-1.294 -1.72,-2.8655 -0.429,-1.5758 -0.647,-3.5305 -0.651,-5.8613 -0.005,-2.3658 0.207,-4.1173 0.634,-5.2521 0.429,-1.1304 1.016,-1.501 1.759,-1.1151 0.241,0.1248 0.476,0.3236 0.704,0.5961 0.229,0.2637 0.45,0.6003 0.664,1.0096 z m 3.466,8.2959 c -0.614,-0.3046 -1.04,-0.3004 -1.278,0.014 -0.237,0.3148 -0.355,0.9943 -0.354,2.038 0.002,0.8315 0.092,1.5361 0.27,2.1134 0.181,0.5696 0.425,0.9276 0.731,1.0744 0.422,0.202 0.758,-0.0923 1.009,-0.8816 0.253,-0.7952 0.378,-1.9504 0.376,-3.4666 l -10e-4,-0.5181 z m 1.504,-0.2109 0.013,8.0538 -0.753,-0.3571 -0.003,-2.1471 c -0.171,0.7764 -0.385,1.31 -0.642,1.6006 -0.258,0.2826 -0.574,0.3354 -0.949,0.1579 -0.476,-0.2251 -0.857,-0.812 -1.141,-1.7616 -0.283,-0.9584 -0.426,-2.1271 -0.428,-3.5048 -0.003,-1.6076 0.17,-2.7327 0.52,-3.3743 0.351,-0.6389 0.874,-0.7835 1.567,-0.4359 l 1.062,0.5331 -10e-4,-0.2275 c -10e-4,-1.0702 -0.118,-1.9545 -0.349,-2.6536 -0.229,-0.7072 -0.551,-1.1677 -0.967,-1.381 -0.265,-0.136 -0.523,-0.1711 -0.775,-0.1052 -0.252,0.0661 -0.494,0.2349 -0.727,0.5066 l -0.004,-2.168 c 0.28,-0.1864 0.552,-0.2919 0.815,-0.3167 0.263,-0.0333 0.518,0.0147 0.767,0.1436 0.668,0.347 1.167,1.1364 1.497,2.3674 0.329,1.2284 0.495,2.9178 0.498,5.0698 z m 5.263,2.1685 0.012,8.3807 -0.729,-0.3456 -0.011,-8.3254 c -0.002,-1.3177 -0.086,-2.3457 -0.251,-3.0844 -0.165,-0.7396 -0.413,-1.1941 -0.743,-1.3634 -0.397,-0.2037 -0.711,0.0311 -0.94,0.7056 -0.229,0.6754 -0.343,1.6979 -0.341,3.0668 l 0.012,7.922 -0.747,-0.3541 -0.021,-14.0534 0.747,0.3869 0.003,2.1794 c 0.176,-0.7523 0.383,-1.2752 0.62,-1.5691 0.24,-0.292 0.516,-0.3568 0.828,-0.195 0.513,0.2661 0.9,0.9643 1.164,2.0936 0.262,1.119 0.395,2.6371 0.397,4.5554 z m 0.919,-5.028 0.765,0.396 1.377,12.2509 1.338,-10.8449 0.748,0.3874 -1.599,12.8962 -0.969,-0.4595 z m 7.127,10.4207 c -0.559,-0.2775 -0.947,-0.2642 -1.164,0.0408 -0.216,0.3054 -0.324,0.9561 -0.323,1.9516 10e-4,0.7931 0.082,1.4634 0.244,2.0104 0.165,0.5395 0.387,0.876 0.666,1.0097 0.384,0.184 0.69,-0.1038 0.919,-0.8621 0.231,-0.7641 0.346,-1.869 0.344,-3.3158 v -0.4943 z m 1.371,-0.2336 0.008,7.6857 -0.686,-0.3254 -0.002,-2.0488 c -0.157,0.7445 -0.352,1.2581 -0.587,1.5406 -0.234,0.2749 -0.522,0.3318 -0.864,0.1702 -0.433,-0.205 -0.78,-0.757 -1.038,-1.657 -0.257,-0.9083 -0.387,-2.02 -0.388,-3.334 -0.002,-1.5332 0.157,-2.6101 0.475,-3.2297 0.321,-0.617 0.797,-0.7663 1.428,-0.4497 l 0.967,0.4855 v -0.2171 c -10e-4,-1.0211 -0.106,-1.8623 -0.317,-2.5243 -0.208,-0.6697 -0.501,-1.1019 -0.88,-1.2962 -0.241,-0.1238 -0.476,-0.1516 -0.706,-0.0831 -0.229,0.0686 -0.45,0.235 -0.663,0.4994 l -0.002,-2.0679 c 0.255,-0.1841 0.503,-0.2908 0.743,-0.3204 0.239,-0.0376 0.472,0.0024 0.698,0.1198 0.609,0.316 1.063,1.0581 1.363,2.2254 0.299,1.1649 0.449,2.7734 0.451,4.827 z m 4.012,-3.3166 10e-4,2.0669 c -0.189,-0.4131 -0.385,-0.7512 -0.589,-1.0142 -0.204,-0.2632 -0.416,-0.4512 -0.635,-0.5636 -0.334,-0.1715 -0.586,-0.1333 -0.755,0.1149 -0.166,0.2497 -0.249,0.7097 -0.248,1.3797 0,0.5105 0.061,0.9435 0.181,1.2989 0.12,0.3471 0.361,0.7425 0.723,1.1858 l 0.23,0.2819 c 0.477,0.571 0.814,1.2103 1.013,1.9185 0.201,0.7005 0.302,1.5922 0.303,2.6756 10e-4,1.2335 -0.148,2.1382 -0.447,2.7151 -0.298,0.5791 -0.709,0.745 -1.235,0.4961 -0.22,-0.104 -0.45,-0.2844 -0.69,-0.5414 -0.238,-0.2482 -0.49,-0.5751 -0.756,-0.9809 l -0.002,-2.2766 c 0.252,0.5444 0.499,0.9824 0.742,1.3143 0.243,0.3235 0.482,0.5418 0.719,0.6553 0.317,0.1518 0.56,0.0937 0.73,-0.1736 0.169,-0.2751 0.254,-0.7334 0.253,-1.3754 0,-0.5944 -0.062,-1.0804 -0.186,-1.4582 -0.122,-0.3769 -0.391,-0.8146 -0.808,-1.314 l -0.234,-0.2947 c -0.419,-0.4936 -0.722,-1.0823 -0.91,-1.7658 -0.187,-0.6923 -0.282,-1.5583 -0.282,-2.5973 -0.002,-1.263 0.135,-2.1675 0.41,-2.7128 0.275,-0.5442 0.664,-0.6851 1.167,-0.424 0.249,0.129 0.482,0.3097 0.701,0.5422 0.218,0.2321 0.419,0.5146 0.604,0.8473 z m 3.597,1.4715 0.651,0.3368 0.007,13.1112 -0.65,-0.3082 z m -0.003,-5.1193 0.651,0.3479 10e-4,2.7301 -0.65,-0.3419 z m 4.48,7.8192 10e-4,2.0117 c -0.179,-0.3996 -0.365,-0.7261 -0.558,-0.9793 -0.194,-0.2536 -0.394,-0.4337 -0.602,-0.5402 -0.317,-0.1625 -0.555,-0.122 -0.715,0.1217 -0.158,0.2453 -0.236,0.694 -0.236,1.346 0,0.4967 0.057,0.9173 0.171,1.2616 0.114,0.3362 0.342,0.718 0.685,1.1447 l 0.218,0.2714 c 0.452,0.5496 0.771,1.1675 0.959,1.8543 0.191,0.6793 0.286,1.5459 0.287,2.6004 0,1.2007 -0.141,2.0831 -0.425,2.6483 -0.282,0.5673 -0.672,0.7337 -1.171,0.4979 -0.208,-0.0985 -0.426,-0.2712 -0.653,-0.5184 -0.225,-0.2387 -0.464,-0.5537 -0.716,-0.9453 l -0.001,-2.2153 c 0.238,0.5266 0.472,0.9497 0.702,1.2697 0.23,0.3118 0.457,0.5213 0.681,0.6288 0.301,0.1438 0.531,0.0844 0.692,-0.178 0.161,-0.2697 0.241,-0.7169 0.241,-1.3417 -10e-4,-0.5786 -0.059,-1.0508 -0.177,-1.4169 -0.115,-0.3653 -0.37,-0.788 -0.765,-1.2687 l -0.222,-0.2838 c -0.396,-0.475 -0.684,-1.0441 -0.861,-1.7067 -0.177,-0.6713 -0.266,-1.5128 -0.267,-2.5238 0,-1.229 0.13,-2.111 0.39,-2.6452 0.26,-0.5333 0.629,-0.6756 1.106,-0.4282 0.235,0.1222 0.457,0.295 0.664,0.5183 0.207,0.223 0.397,0.4953 0.572,0.8167 z m 4.02,-1.9265 10e-4,3.6274 1.262,0.6536 v 1.6238 l -1.262,-0.6466 0.002,6.9313 c 0,1.0408 0.041,1.7292 0.124,2.0651 0.084,0.3368 0.255,0.5665 0.51,0.6892 l 0.628,0.3015 v 1.7469 l -0.628,-0.2977 c -0.473,-0.2245 -0.801,-0.68 -0.982,-1.3667 -0.181,-0.6952 -0.272,-1.8424 -0.272,-3.4412 l -0.002,-6.946 -0.454,-0.2326 v -1.6369 l 0.454,0.2352 -10e-4,-3.6352 z m 5.101,11.2427 V 48.7 l -0.595,-0.2822 -10e-4,-7.5171 c 0,-1.1898 -0.067,-2.1143 -0.201,-2.774 -0.134,-0.6604 -0.336,-1.0597 -0.605,-1.1978 -0.324,-0.1662 -0.58,0.0597 -0.768,0.6785 -0.188,0.6196 -0.282,1.5473 -0.282,2.7824 l 10e-4,7.1479 -0.608,-0.2886 -0.003,-17.6158 0.609,0.3257 0.001,6.8947 c 0.144,-0.6867 0.314,-1.1678 0.508,-1.4436 0.196,-0.2744 0.421,-0.3453 0.676,-0.2134 0.418,0.2172 0.734,0.8302 0.948,1.8381 0.213,0.9989 0.32,2.3641 0.32,4.0965 z m 4.214,2.8822 v 0.993 l -2.676,-1.3231 c 0.025,1.4232 0.146,2.5585 0.363,3.4052 0.218,0.8389 0.521,1.3507 0.908,1.5359 0.223,0.1071 0.439,0.1146 0.647,0.0226 0.21,-0.0907 0.417,-0.2781 0.622,-0.5618 v 1.92 c -0.207,0.2104 -0.42,0.345 -0.638,0.4036 -0.219,0.0587 -0.441,0.0348 -0.666,-0.0719 -0.567,-0.2681 -1.018,-1.0598 -1.352,-2.3769 -0.332,-1.3192 -0.499,-2.9695 -0.499,-4.9488 0,-2.0466 0.158,-3.5889 0.474,-4.6249 0.318,-1.0401 0.743,-1.4206 1.277,-1.1438 0.476,0.2474 0.852,0.9808 1.126,2.1989 0.277,1.2094 0.414,2.7328 0.414,4.572 z m -0.578,-0.8848 c -0.004,-1.1153 -0.093,-2.0489 -0.267,-2.8015 -0.172,-0.7525 -0.402,-1.2026 -0.689,-1.3498 -0.326,-0.1671 -0.587,0.0212 -0.785,0.5657 -0.196,0.5462 -0.308,1.3987 -0.338,2.557 z m 2.867,-2.1905 c -0.304,-0.1562 -0.546,0.1442 -0.724,0.9022 -0.178,0.7515 -0.267,1.8636 -0.267,3.3354 -10e-4,1.4715 0.087,2.6746 0.262,3.6084 0.178,0.9263 0.42,1.4626 0.726,1.6095 0.302,0.1446 0.541,-0.1632 0.717,-0.9225 0.176,-0.7583 0.265,-1.8641 0.265,-3.318 0,-1.4469 -0.087,-2.6366 -0.262,-3.5698 -0.176,-0.9417 -0.415,-1.4903 -0.717,-1.6452 z m 0.001,-1.7081 c 0.492,0.2557 0.878,1.0235 1.157,2.302 0.279,1.2758 0.418,2.9141 0.417,4.9166 -10e-4,1.9949 -0.141,3.4942 -0.42,4.4996 -0.28,1.0001 -0.666,1.3847 -1.158,1.1517 -0.496,-0.2347 -0.886,-0.9899 -1.17,-2.2671 -0.282,-1.2862 -0.423,-2.939 -0.422,-4.9566 0,-2.0253 0.142,-3.5387 0.425,-4.5385 0.284,-0.9968 0.674,-1.3653 1.171,-1.1077 z m 4.455,4.4566 c -0.062,-0.1609 -0.13,-0.289 -0.204,-0.3842 -0.071,-0.1015 -0.151,-0.1748 -0.239,-0.2198 -0.312,-0.1599 -0.553,0.0844 -0.722,0.7339 -0.167,0.644 -0.251,1.652 -0.251,3.0232 l -0.003,6.3849 -0.559,-0.2652 0.005,-12.1481 0.559,0.2897 -10e-4,1.8844 c 0.117,-0.6765 0.269,-1.1431 0.456,-1.4 0.187,-0.2639 0.413,-0.3266 0.679,-0.1887 0.037,0.0196 0.079,0.0522 0.125,0.0975 0.046,0.0382 0.097,0.0897 0.153,0.1545 z m 3.262,5.3089 -0.001,0.9577 -2.489,-1.2308 c 0.023,1.3718 0.135,2.4643 0.336,3.277 0.203,0.8053 0.484,1.2938 0.844,1.4662 0.208,0.0996 0.409,0.1033 0.602,0.0112 0.196,-0.0909 0.389,-0.275 0.58,-0.552 l -10e-4,1.8517 c -0.193,0.2063 -0.391,0.3396 -0.594,0.3996 -0.204,0.0601 -0.41,0.0407 -0.62,-0.0586 -0.527,-0.2494 -0.946,-1.0055 -1.256,-2.2699 -0.309,-1.2664 -0.464,-2.8546 -0.463,-4.7628 10e-4,-1.973 0.149,-3.4626 0.443,-4.4668 0.296,-1.0084 0.692,-1.3828 1.189,-1.1253 0.443,0.2301 0.792,0.9307 1.047,2.1006 0.256,1.1616 0.384,2.6284 0.383,4.4022 z m -0.537,-0.8435 c -0.004,-1.0755 -0.086,-1.9743 -0.248,-2.697 -0.16,-0.7227 -0.374,-1.1527 -0.641,-1.2897 -0.302,-0.1553 -0.546,0.0308 -0.73,0.5591 -0.182,0.5301 -0.287,1.354 -0.316,2.4712 z m 1.947,-7.2689 -0.002,3.3687 1.09,0.5644 -10e-4,1.5084 -1.09,-0.5583 -0.005,6.4371 c 0,0.9667 0.035,1.6047 0.106,1.9141 0.073,0.3102 0.219,0.5182 0.44,0.6241 l 0.542,0.2604 -0.001,1.623 -0.542,-0.2571 c -0.409,-0.1939 -0.691,-0.6068 -0.847,-1.2389 -0.156,-0.6399 -0.234,-1.7024 -0.233,-3.187 l 0.005,-6.4499 -0.392,-0.2007 10e-4,-1.5197 0.392,0.2029 0.002,-3.3754 z m 1.779,4.2912 0.523,0.271 -0.009,11.7554 -0.523,-0.248 z m 0.004,-4.5885 0.523,0.2799 -0.002,2.4476 -0.523,-0.2752 z m 3.857,7.0345 -10e-4,1.7835 c -0.144,-0.3708 -0.289,-0.6663 -0.435,-0.8865 -0.144,-0.2264 -0.291,-0.3777 -0.439,-0.4539 -0.333,-0.1708 -0.593,0.0925 -0.778,0.7909 -0.186,0.6924 -0.28,1.7525 -0.281,3.1795 -10e-4,1.4268 0.091,2.5818 0.275,3.4643 0.184,0.8743 0.443,1.3909 0.776,1.5504 0.148,0.0711 0.295,0.0686 0.439,-0.0074 0.147,-0.082 0.292,-0.2369 0.436,-0.4646 l -0.002,1.7614 c -0.142,0.1811 -0.29,0.2976 -0.444,0.3493 -0.152,0.0526 -0.314,0.0381 -0.487,-0.0435 -0.47,-0.2228 -0.845,-0.9531 -1.123,-2.1924 -0.279,-1.2419 -0.417,-2.8053 -0.416,-4.6883 0.002,-1.9113 0.144,-3.343 0.426,-4.2935 0.284,-0.9477 0.67,-1.2939 1.158,-1.0408 0.158,0.082 0.312,0.2242 0.462,0.4267 0.149,0.1954 0.294,0.4504 0.434,0.7649 z m 2.27,6.4578 c -0.405,-0.201 -0.686,-0.1655 -0.844,0.1072 -0.157,0.2731 -0.236,0.8328 -0.237,1.6787 -10e-4,0.674 0.057,1.2386 0.174,1.6937 0.118,0.4486 0.278,0.7212 0.48,0.818 0.278,0.1333 0.501,-0.13 0.668,-0.7888 0.169,-0.6641 0.255,-1.6111 0.256,-2.8417 v -0.4205 z m 0.996,-0.2845 -0.007,6.54 -0.498,-0.236 0.002,-1.7428 c -0.115,0.6427 -0.257,1.0913 -0.428,1.3456 -0.171,0.2478 -0.38,0.3134 -0.627,0.1964 -0.314,-0.1484 -0.564,-0.5969 -0.75,-1.3461 -0.184,-0.7563 -0.276,-1.6929 -0.275,-2.8091 0.002,-1.3024 0.118,-2.2272 0.35,-2.7735 0.233,-0.5446 0.578,-0.7016 1.035,-0.4724 l 0.701,0.3519 v -0.1846 c 10e-4,-0.8686 -0.074,-1.5775 -0.226,-2.1271 -0.15,-0.5562 -0.362,-0.9048 -0.636,-1.0455 -0.175,-0.0896 -0.345,-0.098 -0.511,-0.025 -0.167,0.0731 -0.327,0.2288 -0.481,0.4671 l 0.001,-1.7567 c 0.186,-0.173 0.365,-0.2799 0.539,-0.3207 0.173,-0.0476 0.342,-0.0289 0.506,0.0561 0.441,0.229 0.769,0.8306 0.985,1.8041 0.215,0.9718 0.322,2.3309 0.32,4.0783 z m 1.03,-8.8465 0.492,0.2634 -0.018,15.8398 -0.492,-0.2333 z m 1.516,0.8111 0.487,0.2603 -0.019,15.7478 -0.487,-0.2306 z m 2.692,18.1064 c -0.137,1.2739 -0.269,2.0857 -0.398,2.4348 -0.129,0.3493 -0.301,0.4749 -0.517,0.3762 l -0.384,-0.1759 0.002,-1.5514 0.282,0.131 c 0.133,0.0613 0.235,-0.0118 0.309,-0.2191 0.073,-0.2073 0.154,-0.7389 0.244,-1.5947 l 0.087,-0.803 -1.17,-11.6842 0.511,0.2646 0.901,9.2657 0.917,-8.3242 0.502,0.2599 z"
         id="path21"
         style="fill:#ff0000" />
      <path
         d="m 470.82,27.0951 1.021,0.4272 0.065,16.416 -1.02,-0.3823 z m -0.026,-6.4144 1.022,0.4446 0.014,3.419 -1.022,-0.4353 z m 8.217,16.2167 0.036,9.7163 -0.982,-0.368 -0.036,-9.6557 c -0.006,-1.5284 -0.12,-2.7176 -0.345,-3.5682 -0.225,-0.8517 -0.559,-1.3698 -1.005,-1.5537 -0.536,-0.2217 -0.959,0.0627 -1.266,0.8545 -0.308,0.793 -0.46,1.9848 -0.454,3.5744 l 0.036,9.1984 -1.009,-0.3781 -0.064,-16.3247 1.01,0.4224 0.01,2.5308 c 0.236,-0.8801 0.514,-1.495 0.834,-1.8448 0.323,-0.3478 0.695,-0.4331 1.116,-0.2567 0.692,0.2902 1.216,1.0858 1.573,2.3859 0.356,1.2878 0.538,3.043 0.546,5.2672 z m 6.632,-3.6032 0.053,15.8107 -0.953,-0.3567 -0.047,-13.8272 -2.626,-1.0839 0.049,13.9277 -0.971,-0.3638 -0.05,-13.9649 -0.929,-0.3835 -0.007,-2.0506 0.929,0.3887 -0.004,-1.1159 c -0.006,-1.7455 0.14,-2.9685 0.439,-3.668 0.301,-0.7064 0.765,-0.9232 1.388,-0.6518 l 0.963,0.4188 0.007,2.1728 -0.915,-0.3929 c -0.345,-0.1478 -0.585,-0.0609 -0.719,0.2611 -0.132,0.3238 -0.196,0.9804 -0.192,1.9698 l 0.005,1.4125 z m -0.974,-6.5474 0.953,0.4148 0.011,3.2928 -0.953,-0.406 z m 7.629,15.4781 0.029,9.3647 -0.913,-0.3419 -0.028,-9.3055 c -0.005,-1.4729 -0.111,-2.6174 -0.319,-3.4339 -0.209,-0.8176 -0.52,-1.3121 -0.933,-1.483 -0.499,-0.2059 -0.891,0.0742 -1.178,0.8415 -0.286,0.7684 -0.427,1.9189 -0.422,3.4502 l 0.028,8.8621 -0.937,-0.3511 -0.051,-15.726 0.938,0.3923 0.008,2.4381 c 0.219,-0.8514 0.478,-1.4477 0.775,-1.7895 0.3,-0.3397 0.646,-0.4273 1.037,-0.2635 0.643,0.2696 1.129,1.0288 1.461,2.2765 0.33,1.2362 0.499,2.9253 0.505,5.069 z m 1.789,-5.3989 0.9,0.3762 0.045,15.4009 -0.899,-0.3367 z m -0.018,-6.0165 0.9,0.3916 0.009,3.2074 -0.899,-0.3834 z m 3.649,3.1975 0.012,4.3424 1.81,0.757 0.005,1.9421 -1.81,-0.7469 0.024,8.2964 c 0.003,1.2457 0.065,2.0685 0.184,2.4682 0.122,0.4007 0.367,0.6707 0.733,0.8102 l 0.9,0.3424 0.006,2.089 -0.9,-0.3371 c -0.679,-0.2543 -1.15,-0.7898 -1.412,-1.6064 -0.262,-0.8271 -0.396,-2.1981 -0.401,-4.1125 l -0.024,-8.3176 -0.652,-0.2692 -0.006,-1.9609 0.653,0.273 -0.013,-4.3536 z m 7.449,14.3115 0.003,1.2018 -3.934,-1.553 c 0.042,1.7254 0.224,3.0995 0.545,4.1215 0.324,1.0122 0.771,1.6257 1.339,1.8415 0.329,0.1247 0.645,0.1288 0.95,0.0129 0.308,-0.1146 0.612,-0.3461 0.911,-0.694 l 0.006,2.3237 c -0.303,0.2596 -0.614,0.4276 -0.934,0.5038 -0.321,0.0764 -0.647,0.0527 -0.978,-0.0711 -0.834,-0.3113 -1.499,-1.2604 -1.995,-2.8498 -0.494,-1.5929 -0.745,-3.5915 -0.751,-5.9928 -0.007,-2.4831 0.221,-4.3565 0.682,-5.6176 0.464,-1.2655 1.089,-1.732 1.874,-1.4029 0.7,0.2938 1.254,1.1772 1.66,2.6484 0.409,1.46 0.616,3.3017 0.622,5.5276 z m -0.85,-1.0607 c -0.01,-1.3503 -0.143,-2.4793 -0.402,-3.3881 -0.255,-0.9088 -0.594,-1.4508 -1.016,-1.6252 -0.479,-0.1979 -0.863,0.0339 -1.151,0.6967 -0.286,0.6652 -0.449,1.7007 -0.489,3.1058 z m 5.161,-3.9952 0.823,0.3443 0.033,14.7298 -0.822,-0.3082 z m -0.013,-5.7534 0.823,0.3583 0.007,3.0675 -0.823,-0.3508 z m 6.62,14.2531 0.017,8.7356 -0.794,-0.2977 -0.018,-8.6789 c -0.003,-1.3737 -0.094,-2.4384 -0.275,-3.1948 -0.181,-0.7571 -0.451,-1.2103 -0.811,-1.359 -0.434,-0.1791 -0.776,0.0921 -1.025,0.8148 -0.25,0.7237 -0.374,1.7997 -0.371,3.2272 l 0.018,8.2609 -0.815,-0.3053 -0.032,-14.6563 0.816,0.341 0.005,2.2727 c 0.191,-0.7993 0.416,-1.362 0.676,-1.6884 0.261,-0.3246 0.562,-0.4153 0.902,-0.2727 0.56,0.2345 0.983,0.93 1.27,2.0852 0.287,1.1446 0.433,2.7161 0.437,4.7157 z m 6.456,4.0199 c -0.617,-0.2448 -1.046,-0.1988 -1.284,0.1391 -0.239,0.3383 -0.358,1.0298 -0.356,2.0741 0.001,0.8319 0.092,1.5283 0.271,2.0886 0.182,0.5522 0.427,0.8866 0.735,1.0035 0.424,0.1608 0.762,-0.1666 1.014,-0.981 0.254,-0.8205 0.38,-1.9888 0.378,-3.5059 l -10e-4,-0.5184 z m 1.512,-0.3584 0.014,8.0582 -0.757,-0.2836 -0.004,-2.1483 c -0.172,0.7938 -0.387,1.3487 -0.645,1.6647 -0.259,0.308 -0.577,0.3919 -0.954,0.251 -0.479,-0.1786 -0.861,-0.7287 -1.148,-1.6511 -0.284,-0.9315 -0.427,-2.087 -0.43,-3.4655 -0.003,-1.6085 0.172,-2.7514 0.523,-3.4277 0.353,-0.6737 0.878,-0.8696 1.575,-0.5896 l 1.068,0.4295 -10e-4,-0.2276 c -0.002,-1.0708 -0.119,-1.9443 -0.351,-2.6214 -0.23,-0.6853 -0.554,-1.1146 -0.972,-1.2874 -0.266,-0.11 -0.526,-0.1199 -0.779,-0.0293 -0.253,0.0908 -0.497,0.2834 -0.731,0.5782 l -0.004,-2.1693 c 0.282,-0.2139 0.555,-0.3461 0.819,-0.3967 0.264,-0.0589 0.521,-0.036 0.771,0.0687 0.672,0.2818 1.173,1.023 1.505,2.2226 0.331,1.1971 0.498,2.8714 0.501,5.0246 z m 1.531,-10.8998 0.747,0.3251 0.03,19.4926 -0.746,-0.2796 z m 2.299,1.0004 0.736,0.3205 0.028,19.3533 -0.736,-0.2756 z m 4.827,7.4543 0.714,0.2987 0.017,13.717 -0.714,-0.2675 z m -0.007,-5.3566 0.714,0.3109 0.004,2.8564 -0.715,-0.3044 z m 2.897,2.6967 0.005,3.8706 1.44,0.6026 0.002,1.7321 -1.44,-0.5946 0.008,7.3955 c 10e-4,1.1105 0.049,1.8418 0.144,2.1938 0.096,0.3528 0.291,0.5846 0.582,0.6956 l 0.717,0.2728 0.002,1.8633 -0.716,-0.2684 c -0.541,-0.2025 -0.915,-0.663 -1.123,-1.3816 -0.207,-0.7277 -0.312,-1.9448 -0.314,-3.6509 l -0.009,-7.4123 -0.518,-0.2141 -0.002,-1.747 0.518,0.217 -0.004,-3.8794 z m 5.022,6.364 0.002,2.0831 c -0.193,-0.3983 -0.393,-0.7203 -0.601,-0.9659 -0.208,-0.2458 -0.424,-0.415 -0.647,-0.5073 -0.341,-0.1409 -0.598,-0.0784 -0.77,0.1879 -0.169,0.2676 -0.254,0.7392 -0.253,1.4145 0.001,0.5145 0.062,0.9451 0.185,1.2918 0.123,0.3384 0.369,0.7139 0.737,1.1261 l 0.235,0.2621 c 0.486,0.5299 0.83,1.1419 1.033,1.8367 0.205,0.6868 0.308,1.5758 0.309,2.6676 10e-4,1.2432 -0.15,2.1693 -0.455,2.7795 -0.304,0.6122 -0.723,0.8189 -1.259,0.6185 -0.224,-0.0837 -0.459,-0.2435 -0.704,-0.4795 -0.242,-0.2274 -0.499,-0.5327 -0.771,-0.9162 l -0.002,-2.2946 c 0.256,0.5246 0.509,0.9424 0.756,1.2537 0.248,0.3028 0.492,0.4998 0.734,0.5915 0.323,0.1226 0.571,0.0408 0.744,-0.245 0.173,-0.2934 0.259,-0.7635 0.258,-1.4105 0,-0.5991 -0.064,-1.083 -0.19,-1.4518 -0.124,-0.3683 -0.399,-0.7837 -0.824,-1.2471 L 538.9,63.0033 c -0.427,-0.4574 -0.737,-1.0218 -0.928,-1.6928 -0.191,-0.6799 -0.287,-1.5437 -0.288,-2.591 -0.002,-1.2729 0.138,-2.1978 0.418,-2.7736 0.28,-0.5748 0.677,-0.7541 1.19,-0.5389 0.253,0.1062 0.492,0.2661 0.715,0.4795 0.222,0.2131 0.427,0.4786 0.615,0.7963 z m 6.307,4.2356 -0.004,-7.1072 0.651,0.2836 0.011,18.2001 -0.651,-0.2439 -0.001,-1.9679 c -0.137,0.729 -0.31,1.2455 -0.521,1.5493 -0.209,0.2973 -0.461,0.3911 -0.756,0.2807 -0.485,-0.181 -0.881,-0.9661 -1.19,-2.357 -0.306,-1.393 -0.46,-3.1317 -0.462,-5.2143 -10e-4,-2.0829 0.15,-3.7012 0.455,-4.8529 0.307,-1.1486 0.703,-1.6201 1.188,-1.4167 0.295,0.1239 0.547,0.4216 0.757,0.8928 0.211,0.4638 0.385,1.1149 0.523,1.9534 z m -2.237,3.6952 c 10e-4,1.5978 0.101,2.8915 0.301,3.8804 0.202,0.9806 0.477,1.5365 0.825,1.6686 0.347,0.1319 0.62,-0.2143 0.818,-1.0375 0.199,-0.83 0.297,-2.0375 0.296,-3.6234 -10e-4,-1.5862 -0.101,-2.869 -0.301,-3.8494 -0.199,-0.9895 -0.473,-1.5565 -0.82,-1.7001 -0.348,-0.144 -0.623,0.1984 -0.823,1.0281 -0.199,0.8239 -0.297,2.0353 -0.296,3.6333 z m 4.22,-4.8586 0.643,0.2689 0.007,13.0109 -0.643,-0.2407 z m -0.002,-5.08 0.643,0.2798 10e-4,2.7092 -0.643,-0.274 z m 4.208,8.8137 c -0.071,-0.1668 -0.148,-0.2982 -0.232,-0.3941 -0.082,-0.1028 -0.173,-0.1748 -0.273,-0.2162 -0.356,-0.1468 -0.629,0.1319 -0.821,0.8371 -0.19,0.6993 -0.285,1.7804 -0.284,3.2423 l 0.003,6.8072 -0.638,-0.2389 -0.006,-12.9535 0.638,0.2668 10e-4,2.0091 c 0.133,-0.7301 0.305,-1.239 0.518,-1.5271 0.212,-0.2953 0.47,-0.3792 0.773,-0.2522 0.043,0.0181 0.091,0.0496 0.143,0.0945 0.052,0.0372 0.11,0.0883 0.174,0.1532 z m 3.717,5.4061 10e-4,1.02 -2.834,-1.1187 c 0.027,1.4599 0.156,2.6153 0.386,3.4656 0.231,0.8421 0.552,1.3405 0.962,1.4959 0.236,0.0898 0.465,0.078 0.685,-0.0352 0.222,-0.1122 0.441,-0.3233 0.658,-0.6332 l 10e-4,1.972 c -0.219,0.2349 -0.444,0.3924 -0.676,0.4723 -0.231,0.0801 -0.466,0.0756 -0.705,-0.0136 -0.6,-0.2242 -1.078,-0.9968 -1.432,-2.3197 -0.353,-1.3253 -0.53,-3.0059 -0.53,-5.0395 -10e-4,-2.1027 0.166,-3.7015 0.5,-4.794 0.336,-1.097 0.786,-1.5258 1.351,-1.2889 0.505,0.2116 0.903,0.9314 1.194,2.1581 0.293,1.2175 0.439,2.7699 0.439,4.6589 z m -0.612,-0.8569 c -0.004,-1.1452 -0.099,-2.0962 -0.284,-2.8536 -0.182,-0.7576 -0.426,-1.1994 -0.73,-1.325 -0.344,-0.1425 -0.621,0.0743 -0.83,0.6512 -0.207,0.5787 -0.326,1.4646 -0.358,2.6573 z m 4.242,-2.9697 10e-4,1.9256 c -0.169,-0.3901 -0.339,-0.6989 -0.509,-0.9263 -0.169,-0.2343 -0.341,-0.3874 -0.515,-0.4591 -0.389,-0.161 -0.692,0.1417 -0.908,0.9092 -0.217,0.7611 -0.325,1.9128 -0.325,3.4544 0,1.5413 0.109,2.7824 0.325,3.7221 0.217,0.9309 0.52,1.4698 0.909,1.6175 0.174,0.066 0.345,0.0525 0.514,-0.0402 0.171,-0.0993 0.34,-0.2772 0.509,-0.5336 v 1.9016 c -0.166,0.2061 -0.339,0.3428 -0.519,0.4099 -0.177,0.0681 -0.367,0.0645 -0.569,-0.0109 -0.551,-0.2058 -0.99,-0.9668 -1.316,-2.285 -0.327,-1.3213 -0.492,-3.0002 -0.492,-5.0347 0,-2.065 0.165,-3.6219 0.494,-4.6687 0.33,-1.0437 0.782,-1.4447 1.352,-1.2055 0.185,0.0775 0.365,0.2203 0.54,0.4284 0.176,0.2004 0.345,0.4656 0.509,0.7953 z m 1.616,-3.3469 v 3.5411 l 1.208,0.5051 v 1.5853 l -1.208,-0.4984 v 6.7664 c 0,1.0161 0.039,1.6838 0.118,2.0031 0.081,0.32 0.244,0.5264 0.488,0.6195 l 0.601,0.2287 v 1.7055 l -0.601,-0.225 c -0.453,-0.1698 -0.767,-0.5802 -0.94,-1.2317 -0.173,-0.6597 -0.259,-1.7701 -0.259,-3.3308 v -6.7805 l -0.435,-0.1792 v -1.5978 l 0.435,0.1817 v -3.5485 z m 1.974,4.3665 0.579,0.2424 -0.002,12.3513 -0.579,-0.2171 z m 0,-4.8217 0.58,0.2523 v 2.5717 l -0.58,-0.247 z m 3.13,7.5415 c -0.305,-0.1259 -0.546,0.1978 -0.724,0.9722 -0.179,0.768 -0.268,1.8873 -0.268,3.357 -10e-4,1.4694 0.087,2.6622 0.263,3.5773 0.177,0.9075 0.42,1.4191 0.727,1.5356 0.302,0.1146 0.541,-0.2162 0.717,-0.9918 0.176,-0.7746 0.264,-1.8874 0.265,-3.3393 0,-1.4449 -0.087,-2.6242 -0.263,-3.5387 -0.176,-0.9231 -0.415,-1.4474 -0.717,-1.5723 z m 0.001,-1.7056 c 0.493,0.2067 0.879,0.9354 1.158,2.1845 0.279,1.2466 0.418,2.8688 0.417,4.8685 0,1.992 -0.14,3.5029 -0.42,4.5345 -0.28,1.0262 -0.666,1.4482 -1.159,1.2641 -0.497,-0.1855 -0.887,-0.9012 -1.171,-2.1486 -0.282,-1.2565 -0.423,-2.893 -0.423,-4.9078 0.001,-2.0224 0.143,-3.5476 0.425,-4.5737 0.285,-1.0233 0.676,-1.4298 1.173,-1.2215 z m 5.298,7.2738 -0.004,7.2461 -0.548,-0.2052 0.004,-7.196 c 0,-1.1389 -0.061,-2.0166 -0.184,-2.6332 -0.123,-0.6173 -0.309,-0.9773 -0.556,-1.0796 -0.299,-0.1232 -0.534,0.1214 -0.708,0.7344 -0.173,0.6138 -0.26,1.512 -0.26,2.694 l -0.003,6.8407 -0.56,-0.2097 0.005,-12.131 0.56,0.2342 -10e-4,1.8817 c 0.133,-0.6731 0.289,-1.1524 0.468,-1.4379 0.181,-0.2843 0.388,-0.3772 0.622,-0.2791 0.385,0.1614 0.676,0.7131 0.872,1.6543 0.196,0.9326 0.293,2.2278 0.293,3.8863 z m 3.177,-3.0838 -10e-4,1.8447 c -0.151,-0.3448 -0.308,-0.6217 -0.471,-0.8304 -0.163,-0.2091 -0.332,-0.3499 -0.507,-0.4223 -0.268,-0.1105 -0.469,-0.0445 -0.604,0.1983 -0.134,0.2439 -0.201,0.6646 -0.201,1.2622 0,0.4552 0.047,0.8338 0.143,1.1356 0.096,0.2944 0.289,0.6168 0.578,0.9668 l 0.184,0.2226 c 0.381,0.4496 0.65,0.9778 0.809,1.585 0.16,0.6002 0.24,1.3835 0.239,2.3506 -0.001,1.1011 -0.121,1.9273 -0.362,2.4792 -0.238,0.5537 -0.568,0.7524 -0.989,0.5952 -0.176,-0.0657 -0.359,-0.1982 -0.551,-0.3979 -0.19,-0.192 -0.392,-0.4525 -0.604,-0.7815 l 0.001,-2.0299 c 0.201,0.4542 0.398,0.8141 0.592,1.0801 0.194,0.2584 0.385,0.4235 0.575,0.4954 0.253,0.0962 0.448,0.0143 0.584,-0.2454 0.136,-0.2665 0.205,-0.6861 0.205,-1.259 0,-0.5304 -0.049,-0.9564 -0.148,-1.2781 -0.097,-0.3212 -0.312,-0.6782 -0.645,-1.0716 l -0.187,-0.2335 c -0.335,-0.3879 -0.577,-0.8749 -0.726,-1.4609 -0.149,-0.5938 -0.223,-1.3542 -0.223,-2.2806 10e-4,-1.1261 0.112,-1.9501 0.332,-2.4713 0.22,-0.5204 0.532,-0.6957 0.934,-0.527 0.199,0.0834 0.386,0.2149 0.561,0.3944 0.174,0.1793 0.335,0.4058 0.482,0.6793 z m 1.09,9.2499 0.607,0.2331 -0.002,2.6737 -0.607,-0.2271 z m 1.862,0.7159 0.598,0.2299 -0.002,2.6554 -0.598,-0.224 z m 1.836,0.7061 0.59,0.2268 -0.002,2.6373 -0.59,-0.221 z"
         id="path22"
         style="fill:#ff0000" />
    </g>
    <text
       xml:space="preserve"
       style="font-style:normal;font-variant:normal;font-weight:normal;font-stretch:normal;font-size:12px;line-height:normal;font-family:sans-serif;font-variant-ligatures:normal;font-variant-position:normal;font-variant-caps:normal;font-variant-numeric:normal;font-variant-alternates:normal;font-variant-east-asian:normal;font-feature-settings:normal;font-variation-settings:normal;text-indent:0;text-align:start;text-decoration-line:none;text-decoration-style:solid;text-decoration-color:#000000;letter-spacing:normal;word-spacing:normal;text-transform:none;writing-mode:lr-tb;direction:ltr;text-orientation:mixed;dominant-baseline:auto;baseline-shift:baseline;text-anchor:start;white-space:normal;shape-padding:0;shape-margin:0;inline-size:0;opacity:1;vector-effect:none;fill:#ff0000;fill-opacity:1;stroke:none;stroke-width:2;stroke-linecap:butt;stroke-linejoin:miter;stroke-miterlimit:4;stroke-dasharray:none;stroke-dashoffset:0;stroke-opacity:1;-inkscape-stroke:none;stop-color:#000000;stop-opacity:1"
       x="327.16409"
       y="255.9398"
       id="text22"
       transform="translate(-48.715908,-32.161026)"><tspan
         id="tspan22"
         x="327.16409"
         y="255.9398">SVG Viewport</tspan></text>
    <text
       xml:space="preserve"
       style="font-style:normal;font-variant:normal;font-weight:normal;font-stretch:normal;font-size:12px;line-height:normal;font-family:sans-serif;font-variant-ligatures:normal;font-variant-position:normal;font-variant-caps:normal;font-variant-numeric:normal;font-variant-alternates:normal;font-variant-east-asian:normal;font-feature-settings:normal;font-variation-settings:normal;text-indent:0;text-align:start;text-decoration-line:none;text-decoration-style:solid;text-decoration-color:#000000;letter-spacing:normal;word-spacing:normal;text-transform:none;writing-mode:lr-tb;direction:ltr;text-orientation:mixed;dominant-baseline:auto;baseline-shift:baseline;text-anchor:start;white-space:normal;shape-padding:0;shape-margin:0;inline-size:0;opacity:1;vector-effect:none;fill:#ff0000;fill-opacity:1;stroke:none;stroke-width:2;stroke-linecap:butt;stroke-linejoin:miter;stroke-miterlimit:4;stroke-dasharray:none;stroke-dashoffset:0;stroke-opacity:1;-inkscape-stroke:none;stop-color:#000000;stop-opacity:1"
       x="327.16409"
       y="255.9398"
       id="text23"
       transform="translate(-46.693879,10.026318)"><tspan
         id="tspan23"
         x="327.16409"
         y="255.9398">viewBox</tspan></text>
    <path
       style="fill:none;stroke:#d92d2d;stroke-width:1px;stroke-linecap:butt;stroke-linejoin:miter;stroke-opacity:1"
       d="M 273.70082,218.54825 231.51613,218.2514"
       id="path24" />
    <path
       style="fill:none;stroke:#d92d2d;stroke-width:1px;stroke-linecap:butt;stroke-linejoin:miter;stroke-opacity:1"
       d="m 274.28629,260.10245 -79.52821,-0.27746"
       id="path25" />
  </g>
</svg>
