<svg width="500" height="500" viewBox="0 0 500 500" xmlns="http://www.w3.org/2000/svg">
    <g transform="translate(250, 450)">
        <path d="M0 0 L0 -100" stroke="brown" stroke-width="10" stroke-linecap="round"/>
        <g transform="translate(0,-100)">
            <g id="branch">
                <path d="M0 0 C10 -20, 30 -40, 0 -60" stroke="brown" stroke-width="8" stroke-linecap="round" fill="none"/>
                <g transform="translate(0,-60)">
                    <path d="M0 0 C8 -16, 24 -32, 0 -48" stroke="brown" stroke-width="6" stroke-linecap="round" fill="none"/>
                    <g transform="translate(0,-48)">
                        <path d="M0 0 C6 -12, 18 -24, 0 -36" stroke="brown" stroke-width="4" stroke-linecap="round" fill="none"/>
                        <g transform="translate(0,-36)">
                            <path d="M0 0 C4 -8, 12 -16, 0 -24" stroke="brown" stroke-width="2" stroke-linecap="round" fill="none"/>
                            <circle cx="0" cy="-24" r="6" fill="green"/>
                        </g>
                        <g transform="rotate(30)">
                            <path d="M0 0 C4 -8, 12 -16, 0 -24" stroke="brown" stroke-width="2" stroke-linecap="round" fill="none"/>
                            <circle cx="0" cy="-24" r="6" fill="green"/>
                        </g>
                        <g transform="rotate(-30)">
                            <path d="M0 0 C4 -8, 12 -16, 0 -24" stroke="brown" stroke-width="2" stroke-linecap="round" fill="none"/>
                            <circle cx="0" cy="-24" r="6" fill="green"/>
                        </g>
                    </g>
                </g>
            </g>
            <use href="#branch" transform="rotate(30)"/>
            <use href="#branch" transform="rotate(-30)"/>
        </g>
    </g>
</svg>
