<?xml version="1.0" encoding="UTF-8" standalone="no"?>
<!-- Created with Inkscape (http://www.inkscape.org/) -->

<svg
   width="300"
   height="100"
   viewBox="0 -60 600 260"
   version="1.1"
   id="svg_spade"
   xmlns="http://www.w3.org/2000/svg"
   xmlns:svg="http://www.w3.org/2000/svg">


  <g id="card_spade" >

    <rect style="fill:#e6e6e6;stroke:black;stroke-width:0.5"
       width="160"
       height="200"
       x="20"
       y="0" 
    />

    <path
       id="path2"
       style="fill:#1a1a1a;stroke:none;stroke-width:0.462019;stroke-linecap:square"
       d="M 99.015625,20 C 70.724645,57.13782 50.082647,50.166438 40.847656,84.255859 31.917531,117.21992 57.673313,146.0278 94.775391,130.79688 c 18.655819,16.38996 1.840529,26.0274 -24.191407,39.86132 l 29.498046,-0.11132 c 18.91331,-11.80249 14.40187,-24.97045 6.31055,-38.67969 36.45187,12.30142 59.63787,-15.56352 50.79101,-47.611331 C 147.51594,49.234687 128.68105,57.987599 99.015625,20 Z" />

  </g>

  <g id="card_spade_tx"
     transform="translate(200 0) skewX(30) skewY(-15)">

    <rect style="fill:#e6e6e6;stroke:black;stroke-width:0.5"
       width="160"
       height="200"
       x="20"
       y="0" 
    />

    <path
       id="path2"
       style="fill:#1a1a1a;stroke:none;stroke-width:0.462019;stroke-linecap:square"
       d="M 99.015625,20 C 70.724645,57.13782 50.082647,50.166438 40.847656,84.255859 31.917531,117.21992 57.673313,146.0278 94.775391,130.79688 c 18.655819,16.38996 1.840529,26.0274 -24.191407,39.86132 l 29.498046,-0.11132 c 18.91331,-11.80249 14.40187,-24.97045 6.31055,-38.67969 36.45187,12.30142 59.63787,-15.56352 50.79101,-47.611331 C 147.51594,49.234687 128.68105,57.987599 99.015625,20 Z" />

  </g>

</svg>
