<svg width="200" height="100" viewBox="0 0 200 100" fill="none" xmlns="http://www.w3.org/2000/svg">
  <path d="M10 10 C 20 0, 80 0, 90 10 L 190 10 C 200 20, 200 80, 190 90 L 90 90 C 80 100, 20 100, 10 90 Z" fill="#F5F5DC"/>  <path d="M15 15 C 25 5, 85 5, 95 15 L 185 15 C 195 25, 195 85, 185 85 L 95 85 C 85 95, 25 95, 15 85 Z" fill="#EEE8AA" opacity="0.5"/> <defs>
    <filter id="noise">
      <feTurbulence type="fractalNoise" baseFrequency="0.02" numOctaves="3" result="noise"/>
      <feDisplacementMap inSourceGraphic="SourceGraphic" in="noise" scale="20" xChannelSelector="R" yChannelSelector="G" result="displaced"/>
    </filter>
  </defs>
  <path d="M10 10 C 20 0, 80 0, 90 10 L 190 10 C 200 20, 200 80, 190 90 L 90 90 C 80 100, 20 100, 10 90 Z" fill="none" stroke="#D2B48C" stroke-width="2" filter="url(#noise)"/> </svg>