<?xml version="1.0" encoding="UTF-8" standalone="no"?>
<!-- Created with Inkscape (http://www.inkscape.org/) -->

<svg
   width="200"
   height="200"
   viewBox="0 0 52.916667 52.916668"
   version="1.1"
   id="svg1"
   inkscape:version="1.3.2 (091e20e, 2023-11-25)"
   sodipodi:docname="self_portrait_2024_02.svg"
   xml:space="preserve"
   xmlns:inkscape="http://www.inkscape.org/namespaces/inkscape"
   xmlns:sodipodi="http://sodipodi.sourceforge.net/DTD/sodipodi-0.dtd"
   xmlns:xlink="http://www.w3.org/1999/xlink"
   xmlns="http://www.w3.org/2000/svg"
   xmlns:svg="http://www.w3.org/2000/svg"><sodipodi:namedview
     id="namedview1"
     pagecolor="#ffffff"
     bordercolor="#666666"
     borderopacity="1.0"
     inkscape:showpageshadow="2"
     inkscape:pageopacity="0.0"
     inkscape:pagecheckerboard="0"
     inkscape:deskcolor="#d1d1d1"
     inkscape:document-units="px"
     inkscape:zoom="5.6568542"
     inkscape:cx="102.26532"
     inkscape:cy="102.35371"
     inkscape:window-width="1676"
     inkscape:window-height="926"
     inkscape:window-x="144"
     inkscape:window-y="64"
     inkscape:window-maximized="0"
     inkscape:current-layer="layer7"
     showgrid="false" /><defs
     id="defs1"><linearGradient
       id="linearGradient54"
       inkscape:collect="always"><stop
         style="stop-color:#9caecc;stop-opacity:1;"
         offset="0"
         id="stop54" /><stop
         style="stop-color:#6f7c91;stop-opacity:1;"
         offset="1"
         id="stop55" /></linearGradient><filter
       inkscape:collect="always"
       style="color-interpolation-filters:sRGB"
       id="filter29"
       x="-0.064287993"
       y="-0.02742583"
       width="1.128576"
       height="1.0548517"><feGaussianBlur
         inkscape:collect="always"
         stdDeviation="0.20740737"
         id="feGaussianBlur29" /></filter><filter
       inkscape:collect="always"
       style="color-interpolation-filters:sRGB"
       id="filter30"
       x="-0.084533162"
       y="-0.027958225"
       width="1.1690663"
       height="1.0559165"><feGaussianBlur
         inkscape:collect="always"
         stdDeviation="0.20154023"
         id="feGaussianBlur30" /></filter><filter
       inkscape:collect="always"
       style="color-interpolation-filters:sRGB"
       id="filter32"
       x="-0.29753428"
       y="-0.10814404"
       width="1.5950686"
       height="1.2162881"><feGaussianBlur
         inkscape:collect="always"
         stdDeviation="0.43281542"
         id="feGaussianBlur32" /></filter><filter
       inkscape:collect="always"
       style="color-interpolation-filters:sRGB"
       id="filter33"
       x="-0.18262912"
       y="-0.08618139"
       width="1.3652582"
       height="1.1723628"><feGaussianBlur
         inkscape:collect="always"
         stdDeviation="0.39794962"
         id="feGaussianBlur33" /></filter><filter
       inkscape:collect="always"
       style="color-interpolation-filters:sRGB"
       id="filter46"
       x="-0.049532953"
       y="-0.039755093"
       width="1.0990659"
       height="1.0795102"><feGaussianBlur
         inkscape:collect="always"
         stdDeviation="0.11887273"
         id="feGaussianBlur46" /></filter><radialGradient
       inkscape:collect="always"
       xlink:href="#linearGradient54"
       id="radialGradient55"
       cx="9.7460861"
       cy="4.669157"
       fx="9.7460861"
       fy="4.669157"
       r="27.422909"
       gradientTransform="matrix(0.63828646,1.2345823,-1.4309054,0.73979725,10.206413,-10.865584)"
       gradientUnits="userSpaceOnUse" /><filter
       inkscape:collect="always"
       style="color-interpolation-filters:sRGB"
       id="filter56"
       x="-0.03002506"
       y="-0.020469907"
       width="1.0600501"
       height="1.0409398"><feGaussianBlur
         inkscape:collect="always"
         stdDeviation="0.11462465"
         id="feGaussianBlur56" /></filter><filter
       inkscape:collect="always"
       style="color-interpolation-filters:sRGB"
       id="filter57"
       x="-0.090367027"
       y="-0.052606929"
       width="1.1807341"
       height="1.1052139"><feGaussianBlur
         inkscape:collect="always"
         stdDeviation="0.35141372"
         id="feGaussianBlur57" /></filter></defs><g
     inkscape:label="Layer 1"
     inkscape:groupmode="layer"
     id="layer1"
     sodipodi:insensitive="true"
     style="display:none"><image
       width="78.638397"
       height="111.252"
       preserveAspectRatio="none"
       xlink:href="father_and_son.jpg"
       id="image1"
       x="-21.292645"
       y="-6.5071073" /></g><g
     inkscape:groupmode="layer"
     id="layer9"
     inkscape:label="background"
     sodipodi:insensitive="true"><rect
       style="fill:url(#radialGradient55);fill-opacity:1;stroke:none;stroke-width:1.05833"
       id="rect54"
       width="54.845818"
       height="54.969212"
       x="-1.0970058"
       y="-1.407129" /></g><g
     inkscape:groupmode="layer"
     id="layer2"
     inkscape:label="head"
     style="display:inline;opacity:1"
     sodipodi:insensitive="true"><path
       style="fill:#a46168;fill-opacity:1;stroke:none;stroke-width:0.237961px;stroke-linecap:butt;stroke-linejoin:miter;stroke-opacity:1"
       d="m 20.713609,21.169542 c -0.341079,-2.951654 -1.544206,-2.01783 -1.798356,-1.541216 -1.001853,2.579388 0.01496,2.606618 0.167563,6.194385 0.14492,1.310346 1.044102,2.564686 2.284617,2.982337 L 21.014565,26.84146 Z"
       id="path49"
       sodipodi:nodetypes="cccccc"
       inkscape:label="ear" /><path
       style="fill:#dfa7a7;fill-opacity:1;stroke:none;stroke-width:0.264583px;stroke-linecap:butt;stroke-linejoin:miter;stroke-opacity:1"
       d="M 17.97467,39.447344 6.9395631,41.739223 21.241984,50.606779 40.010362,51.330115 46.213886,45.380803 34.40224,39.706405 C 33.139368,37.339556 34.135647,34.972708 34.059774,32.605859 L 22.463047,30.027125 c -0.461299,3.48108 3.419411,8.392982 -4.488377,9.420219 z"
       id="path2"
       sodipodi:nodetypes="ccccccccc"
       inkscape:label="body" /><path
       style="fill:#e9afaf;stroke:none;stroke-width:0.259017px;stroke-linecap:butt;stroke-linejoin:miter;stroke-opacity:1"
       d="M 20.235407,22.138769 C 20.198668,13.79383 21.31172,8.9885088 29.205573,8.9125508 37.833546,8.8295288 38.261143,15.772156 38.090769,22.346195 37.872132,30.782498 34.467103,38.041632 30.861349,38.04301 26.2073,38.04481 20.282088,32.740557 20.235407,22.138769 Z"
       id="path1"
       sodipodi:nodetypes="sssss"
       inkscape:label="head" /><path
       style="fill:#e9afaf;fill-opacity:1;stroke:none;stroke-width:0.237961px;stroke-linecap:butt;stroke-linejoin:miter;stroke-opacity:1"
       d="m 20.713609,21.169542 c -0.517809,-2.763452 -1.40637,-1.794252 -1.66052,-1.317638 -1.001853,2.579388 -0.05919,2.22967 0.09341,5.817437 0.14492,1.310346 0.980419,2.718056 2.220934,3.135707 L 21.014565,26.84146 Z"
       id="path12"
       sodipodi:nodetypes="cccccc"
       inkscape:label="ear" /></g><g
     inkscape:groupmode="layer"
     id="layer5"
     inkscape:label="clothes"
     style="display:inline"
     sodipodi:insensitive="true"><path
       style="fill:#e3dedb;stroke:none;stroke-width:0.264583px;stroke-linecap:butt;stroke-linejoin:miter;stroke-opacity:1"
       d="m 22.067414,37.129966 c 0.444525,2.877349 1.741664,5.916186 3.612705,7.852374 l 1.870574,0.289351 2.674789,3.689464 2.09818,-3.411263 1.253218,-1.154927 c 0.667566,-1.274997 1.284715,-3.471874 1.005692,-5.353651 l 12.192093,6.211922 0.471215,9.43781 L 4.3093713,54.185991 5.574595,41.30872 c 5.353037,-1.839518 13.791943,-1.756626 16.492819,-4.178754 z"
       id="path19"
       sodipodi:nodetypes="cccccccccccc" /><path
       style="display:inline;mix-blend-mode:normal;fill:#000000;fill-opacity:0.149926;stroke:none;stroke-width:0.264583px;stroke-linecap:butt;stroke-linejoin:miter;stroke-opacity:1;filter:url(#filter33)"
       d="m 19.417228,47.591996 4.164373,-2.880749 1.065237,-0.45696 C 23.735692,41.786333 22.244053,39.674415 22.468769,36.5098 l -1.054223,0.978659 -1.661412,0.896789 z"
       id="path31"
       sodipodi:nodetypes="ccccccc" /><path
       style="fill:#f2edea;fill-opacity:1;stroke:none;stroke-width:0.264583px;stroke-linecap:butt;stroke-linejoin:miter;stroke-opacity:1"
       d="m 19.681406,47.016633 4.164373,-2.880749 1.065237,-0.45696 C 23.99987,41.21097 22.508231,39.099052 22.732947,35.934437 l -1.054223,0.978659 -1.661412,0.896789 z"
       id="path20"
       sodipodi:nodetypes="ccccccc"
       inkscape:label="collar" /><path
       style="mix-blend-mode:normal;fill:#000000;fill-opacity:0.149926;stroke:none;stroke-width:0.264583px;stroke-linecap:butt;stroke-linejoin:miter;stroke-opacity:1;filter:url(#filter32)"
       d="m 37.071786,47.522551 -1.917219,-3.124961 -1.573999,0.42555 c 0.911146,-2.467954 0.431012,-3.741284 0.206296,-6.905899 l 1.054223,0.978659 1.926562,4.492254 z"
       id="path32"
       sodipodi:nodetypes="ccccccc"
       inkscape:label="shadow" /><path
       style="fill:#f2edea;fill-opacity:1;stroke:none;stroke-width:0.264583px;stroke-linecap:butt;stroke-linejoin:miter;stroke-opacity:1"
       d="m 37.26447,46.987412 -1.917219,-3.124961 -1.573999,0.42555 c 0.911146,-2.467954 0.431012,-3.741284 0.206296,-6.905899 l 1.054223,0.978659 1.926562,4.492254 z"
       id="path21"
       sodipodi:nodetypes="ccccccc"
       inkscape:label="collar" /><path
       style="fill:#6c5d53;stroke:none;stroke-width:0.264583px;stroke-linecap:butt;stroke-linejoin:miter;stroke-opacity:1"
       d="M 2.0529739,54.657047 C 1.9661586,48.447588 1.8303525,46.189183 4.7544148,41.065575 8.4751583,40.824018 17.574176,38.114967 21.949325,36.48538 l 1.983706,18.671893 z"
       id="path22"
       sodipodi:nodetypes="ccccc" /><path
       style="fill:#6c5d53;stroke:none;stroke-width:0.264583px;stroke-linecap:butt;stroke-linejoin:miter;stroke-opacity:1"
       d="m 48.962833,55.634598 c 0,0 -0.165975,-8.732494 -0.475975,-9.492147 -0.31,-0.759653 -2.02021,-2.485228 -2.02021,-2.485228 -4.049307,-1.440854 -7.266742,-2.870471 -10.735144,-5.113382 0.970441,6.840179 0.08357,11.945315 -0.390512,17.436073 z"
       id="path23"
       sodipodi:nodetypes="cscccc" /><path
       style="mix-blend-mode:normal;fill:#000000;fill-opacity:0.163786;stroke:none;stroke-width:0.264583px;stroke-linecap:butt;stroke-linejoin:miter;stroke-opacity:1;filter:url(#filter29)"
       d="m 17.921928,37.837189 3.244322,-1.120791 2.165685,18.149959 -2.30241,-0.192638 -2.970627,-4.924649 1.977918,-3.281874 -4.447815,-3.239904 z"
       id="path29"
       sodipodi:nodetypes="cccccccc"
       inkscape:label="lapel" /><path
       style="fill:#746459;fill-opacity:1;stroke:none;stroke-width:0.264583px;stroke-linecap:butt;stroke-linejoin:miter;stroke-opacity:1"
       d="m 18.454087,37.306246 3.244322,-1.120791 2.165685,18.149959 -2.30241,-0.192638 -2.970627,-4.924649 1.977918,-3.281874 -4.447815,-3.239904 z"
       id="path24"
       sodipodi:nodetypes="cccccccc"
       inkscape:label="lapel" /><path
       style="mix-blend-mode:normal;fill:#000000;fill-opacity:0.128846;stroke:none;stroke-width:0.264583px;stroke-linecap:butt;stroke-linejoin:miter;stroke-opacity:1;filter:url(#filter30)"
       d="M 38.136106,39.846217 36.107472,38.7871 c 0.80222,6.415339 -0.0032,11.804538 -0.641016,17.300689 l 2.30241,-0.192638 1.818925,-5.334225 -1.1032,-2.559458 2.703839,-1.793832 z"
       id="path30"
       sodipodi:nodetypes="cccccccc"
       inkscape:label="lapel" /><path
       style="fill:#746459;fill-opacity:1;stroke:none;stroke-width:0.264583px;stroke-linecap:butt;stroke-linejoin:miter;stroke-opacity:1"
       d="m 37.483631,39.378495 -2.028634,-1.059117 c 0.80222,6.415339 -0.0032,11.804538 -0.641016,17.300689 l 2.30241,-0.192638 1.818925,-5.334225 -1.1032,-2.559458 2.703839,-1.793832 z"
       id="path25"
       sodipodi:nodetypes="cccccccc"
       inkscape:label="lapel" /><path
       style="fill:#000000;fill-opacity:0.107302;stroke:none;stroke-width:0.264583px;stroke-linecap:butt;stroke-linejoin:miter;stroke-opacity:1"
       d="m 30.807718,42.869889 1.058655,-1.302409 0.338321,-1.369364 c -3.518768,-0.442144 -5.42145,-2.296634 -7.115807,-4.333185 l 6.678687,1.443598 2.167626,-1.112232 0.122613,4.391777 0.168728,1.608399 -1.216496,0.806953 -1.796903,2.147099 z"
       id="path33"
       sodipodi:nodetypes="ccccccccccc"
       inkscape:label="shading" /><path
       style="display:inline;fill:#000000;fill-opacity:0.043969;stroke:none;stroke-width:0.264583px;stroke-linecap:butt;stroke-linejoin:miter;stroke-opacity:1;filter:url(#filter56)"
       d="M 2.2461404,54.610663 11.232083,54.64681 9.0355679,44.804848 C 7.9137837,41.985609 6.2858907,41.957228 4.7887904,41.207611 1.6300835,45.905727 1.954591,50.256551 2.2461404,54.610663 Z"
       id="path56"
       sodipodi:nodetypes="ccccc"
       inkscape:label="shading_arm" /></g><g
     inkscape:groupmode="layer"
     id="layer3"
     inkscape:label="face"
     style="display:inline"
     sodipodi:insensitive="true"><path
       style="fill:#745757;fill-opacity:1;stroke:none;stroke-width:0.264583px;stroke-linecap:butt;stroke-linejoin:miter;stroke-opacity:1"
       d="m 35.194207,32.059151 c 0.847789,0.09133 4.442012,0.103212 5.137175,0.117852 -0.02105,0.572367 -5.110485,0.477418 -5.137175,-0.117852 z"
       id="path41"
       transform="translate(-7.5557278,-0.55873386)"
       sodipodi:nodetypes="ccc" /><path
       style="fill:#f9f9f9;stroke:none;stroke-width:0.264583px;stroke-linecap:butt;stroke-linejoin:miter;stroke-opacity:1"
       d="m 24.630194,23.036332 c 1.187612,0.181749 2.326551,0.20398 3.407453,0.036 l -0.73878,-0.931877 c -0.603245,0.0012 -0.939135,-0.132312 -1.972357,-0.04995 z"
       id="path3"
       sodipodi:nodetypes="ccccc" /><path
       style="fill:#483737;fill-opacity:1;stroke:none;stroke-width:0.264583px;stroke-linecap:butt;stroke-linejoin:miter;stroke-opacity:1"
       d="m 25.613133,22.083038 c 0.42913,-0.06273 0.872116,-0.03696 1.322721,0.03749 0.160183,0.409711 0.03464,0.994876 -0.37565,1.058824 l -0.554911,-0.0065 c -0.342101,-0.208742 -0.61108,-0.470939 -0.39216,-1.089814 z"
       id="path4"
       sodipodi:nodetypes="ccccc" /><path
       style="fill:#f9f9f9;fill-opacity:1;stroke:none;stroke-width:0.264583px;stroke-linecap:butt;stroke-linejoin:miter;stroke-opacity:1"
       d="m 32.184857,23.078315 c 1.187612,0.181749 2.326551,0.20398 3.407453,0.036 l -0.73878,-0.931877 c -0.603245,0.0012 -0.939135,-0.132312 -1.972357,-0.04995 z"
       id="path5"
       sodipodi:nodetypes="ccccc" /><path
       style="fill:#483737;fill-opacity:1;stroke:none;stroke-width:0.264583px;stroke-linecap:butt;stroke-linejoin:miter;stroke-opacity:1"
       d="m 33.244864,22.115769 1.225873,0.01216 c 0.256623,0.466992 0.08979,0.99793 -0.303852,1.09328 l -0.606749,0.01219 c -0.488233,-0.334721 -0.477165,-0.680753 -0.315272,-1.117626 z"
       id="path6"
       sodipodi:nodetypes="ccccc" /><path
       style="fill:#6c5353;stroke:none;stroke-width:0.264583px;stroke-linecap:butt;stroke-linejoin:miter;stroke-opacity:1"
       d="m 23.999379,19.98309 0.817057,0.265707 -0.09811,-0.319796 0.579326,0.241128 c 1.037628,0.179689 1.773999,0.268444 2.611803,0.387816 l 0.728967,0.681673 c -1.722195,0.02459 -3.495016,-0.202647 -5.139149,0.210253 l 0.789148,-1.056792 z"
       id="path7"
       sodipodi:nodetypes="ccccccccc" /><path
       style="display:inline;fill:#d35f5f;stroke:none;stroke-width:0.264583px;stroke-linecap:butt;stroke-linejoin:miter;stroke-opacity:1"
       d="m 27.662894,31.263606 c 0.704736,-0.03035 1.360522,-0.215884 2.022964,-0.380318 l 0.875658,0.626368 0.628697,-0.517383 c 0.482243,0.164865 0.821958,0.395926 1.681379,0.385612 l 0.10851,0.216635 c -1.766121,0.262602 -3.59567,0.08899 -5.424191,-0.05402 -0.02751,-0.215451 0.106983,-0.243202 0.106983,-0.276894 z"
       id="path10"
       sodipodi:nodetypes="cccccccc"
       inkscape:label="lip_upper" /><path
       style="display:inline;fill:#de8787;stroke:none;stroke-width:0.264583px;stroke-linecap:butt;stroke-linejoin:miter;stroke-opacity:1"
       d="m 31.765188,32.677171 c 0.678377,-0.393615 0.870504,-0.686329 1.043639,-1.022019 -1.563304,0.198154 -3.221116,0.106735 -5.137678,-0.09999 0.321114,0.625749 0.746213,0.864902 1.244069,1.083626 1.067566,0.186334 1.901975,0.135564 2.84997,0.03839 z"
       id="path11"
       sodipodi:nodetypes="ccccc"
       inkscape:label="lip" /><path
       style="display:inline;fill:#6c5353;fill-opacity:1;stroke:none;stroke-width:0.264583px;stroke-linecap:butt;stroke-linejoin:miter;stroke-opacity:1"
       d="m 28.753023,22.512871 0.481232,2.858246 -0.664784,1.285626 c -0.996783,0.671601 -0.492535,1.119322 0.252235,1.441214 0.532253,-0.772249 0.806333,-0.241591 1.12299,0.304464 l 0.887214,0.03307 c 0.281761,-0.403811 0.413483,-1.180674 0.907997,-0.565367 1.685267,-0.175073 0.707956,-1.228747 0.310637,-1.79964 -0.916303,-1.456212 -0.447118,-2.489548 -0.629433,-3.588176 l 0.803572,-1.478425 -1.802844,-1.637885 z"
       id="path28"
       sodipodi:nodetypes="cccccccccccc"
       inkscape:label="nose_shape" /><path
       style="display:inline;fill:#e9afaf;fill-opacity:1;stroke:none;stroke-width:0.264583px;stroke-linecap:butt;stroke-linejoin:miter;stroke-opacity:1"
       d="m 28.500307,22.479798 0.545412,2.913681 -0.476248,1.263264 c -0.509932,0.551076 -0.157482,1.018412 0.252235,1.441214 0.486196,-1.676084 1.009127,-0.305761 1.12299,0.304464 l 0.456528,0.28942 0.430686,-0.25635 c 0.156656,-0.491308 0.437052,-1.997617 0.907997,-0.565367 1.144833,-0.412811 0.440864,-1.05854 0.138868,-1.54667 -0.916303,-1.456212 -0.717942,-2.713284 -0.900257,-3.811912 l 0.924396,-1.472831 -1.448002,-2.138052 z"
       id="path9"
       sodipodi:nodetypes="ccccccccccccc"
       inkscape:label="nose_shape" /><path
       style="fill:#6c5353;stroke:none;stroke-width:0.264583px;stroke-linecap:butt;stroke-linejoin:miter;stroke-opacity:1"
       d="m 35.785582,19.635922 -1.04199,0.579123 -2.170453,0.285885 -0.796708,0.175206 0.379843,0.271393 -0.118788,0.325715 3.018268,-0.07456 1.203993,0.23895 0.465983,-0.280202 -0.830274,-0.856766 0.491716,-0.302577 -0.950634,0.146544 z"
       id="path8"
       sodipodi:nodetypes="ccccccccccccc" /></g><g
     inkscape:groupmode="layer"
     id="layer8"
     inkscape:label="face 1"
     sodipodi:insensitive="true"><path
       id="path46"
       style="fill:#000000;fill-opacity:0.106117;stroke:none;stroke-width:0.264583px;stroke-linecap:butt;stroke-linejoin:miter;stroke-opacity:1;filter:url(#filter46)"
       d="m 35.090365,21.187338 -3.024621,0.05994 -0.666626,1.173055 c 0.0067,0.140489 0.01076,0.284811 0.01343,0.430465 l -0.396875,-0.382406 c -0.383706,1.58036 -0.02387,2.73946 0.282154,4.152202 0.071,0.667074 -0.375988,1.338834 -0.444418,1.743046 0.31558,-0.414002 0.936292,-1.8469 0.959632,-2.279448 -0.107211,-0.416765 -0.165073,-0.700142 -0.182418,-0.914156 0.02494,0.0403 0.05289,0.0747 0.08423,0.101286 l 0.350366,-1.224215 c 0.06181,-0.105772 0.12865,-0.228526 0.199988,-0.374654 l -0.02739,-0.02636 0.846977,-1.133264 1.677934,0.01912 1.000972,0.748792 0.845427,-1.039213 -0.484725,-0.89607 z" /><path
       style="color:#000000;fill:#795b5b;fill-opacity:1;-inkscape-stroke:none"
       d="M 35.641621,23.247133 35.841,23.004739 34.967116,22.177655 c -0.815785,-0.278641 -1.604166,-0.148484 -2.443477,-0.07925 0.791681,0.03093 1.582042,0.08036 2.372318,0.13508 l 0.656753,0.879395"
       id="path45"
       sodipodi:nodetypes="cccccc"
       inkscape:label="eye" /><path
       style="color:#000000;fill:#c79696;fill-opacity:1;-inkscape-stroke:none"
       d="m 35.55271,23.112875 c -1.104067,0.07441 -2.286209,0.05344 -3.386913,-0.02054 1.118176,0.274569 2.336013,0.169402 3.475824,0.154798"
       id="path42"
       sodipodi:nodetypes="ccc"
       inkscape:label="eye" /><path
       style="color:#000000;fill:#795b5b;fill-opacity:1;-inkscape-stroke:none"
       d="M 24.568269,23.102414 24.36889,22.86002 25.242774,22.032936 c 0.821049,-0.306667 1.678852,-0.05225 2.492338,0.160115 -0.719826,-0.03334 -1.665359,-0.227245 -2.472987,-0.03692 l -0.604945,0.812022"
       id="path44"
       sodipodi:nodetypes="cccccc"
       inkscape:label="eye" /><path
       style="color:#000000;fill:#c79696;fill-opacity:1;-inkscape-stroke:none"
       d="m 24.65718,22.968156 c 1.104067,0.07441 2.317468,0.197248 3.418172,0.123268 -1.118176,0.274569 -2.367272,0.02559 -3.507083,0.01099"
       id="path43"
       sodipodi:nodetypes="ccc"
       inkscape:label="eye" /><path
       style="color:#000000;fill:#a46168;fill-opacity:1;-inkscape-stroke:none"
       d="m 20.851562,25.740234 c -0.250584,1.57409 0.20987,3.282646 0.726563,4.601563 0.516693,1.318916 1.211808,2.222075 1.211808,2.222075 l -0.134469,-0.364623 c 0,0 -0.434383,-0.739763 -0.94206,-2.035666 C 21.205726,28.86768 20.940488,27.71461 21.016202,26.10694 Z"
       id="path47"
       sodipodi:nodetypes="csccscc"
       inkscape:label="cheek" /><path
       style="color:#000000;fill:#a46168;fill-opacity:1;-inkscape-stroke:none"
       d="m 19.242875,22.893269 c 0.101482,1.065664 0.390185,2.100676 0.65278,3.135119 0.07908,-0.779585 -0.02947,-0.963365 -0.04152,-1.229793 -0.04508,-0.996822 -0.970681,-2.6499 0.117977,-3.223988 -0.664541,-0.638005 -0.779845,0.787223 -0.729237,1.318662 z"
       id="path48"
       sodipodi:nodetypes="scsss"
       inkscape:label="ear" /><path
       style="color:#000000;fill:#c09494;fill-opacity:1;-inkscape-stroke:none"
       d="m 27.808436,27.947181 -1.060994,1.015025 c -0.260344,0.346212 -0.496163,0.648667 -0.520812,1.168648 0.207593,-0.353517 0.380688,-0.739795 0.864118,-1.204904 z"
       id="path50"
       sodipodi:nodetypes="ccccc" /><path
       style="color:#000000;fill:#6c5353;fill-opacity:1;-inkscape-stroke:none"
       d="m 30.894192,24.03064 c -0.101184,1.149633 0.262842,1.871809 0.577761,2.963263 -0.05727,0.668246 -0.539032,0.748885 -0.581154,1.293289 0.07753,-0.610615 0.441427,-0.935633 0.394481,-1.267855 -0.445293,-1.290774 -0.491855,-2.420604 -0.391088,-2.988697 z"
       id="path51"
       sodipodi:nodetypes="ccccc" /><path
       style="color:#000000;fill:#c09494;fill-opacity:1;-inkscape-stroke:none"
       d="m 32.965286,28.108136 c 0.698533,0.768243 0.629895,1.06524 0.676794,2.090356 -0.228894,-0.885656 -0.321337,-1.249747 -0.676794,-2.090356 z"
       id="path52"
       sodipodi:nodetypes="ccc" /><path
       style="color:#000000;fill:#ca9c9c;fill-opacity:1;stroke-width:1.12228;-inkscape-stroke:none"
       d="m 35.324863,23.654831 c -1.144406,0.304083 -1.496459,0.207904 -2.767379,0.0018 1.150114,0.05429 1.622282,0.07818 2.767379,-0.0018 z"
       id="path53"
       sodipodi:nodetypes="ccc" /><path
       style="color:#000000;fill:#ca9c9c;fill-opacity:1;stroke-width:1.12228;-inkscape-stroke:none"
       d="m 35.324863,23.654831 c -1.144406,0.304083 -2.190784,0.14689 -3.461704,-0.05921 1.150114,0.05429 2.316607,0.139194 3.461704,0.05921 z"
       id="path54"
       sodipodi:nodetypes="ccc"
       transform="translate(-7.5106084,-0.0114001)" /></g><g
     inkscape:groupmode="layer"
     id="layer4"
     inkscape:label="hair"
     style="display:inline"
     sodipodi:insensitive="true"><path
       style="fill:#907b6e;fill-opacity:1;stroke:none;stroke-width:0.264583px;stroke-linecap:butt;stroke-linejoin:miter;stroke-opacity:1"
       d="m 24.640627,10.999279 c -0.916443,2.769172 -2.008448,5.538345 -1.880778,8.307517 l -0.65361,-1.401133 c -0.774815,2.316495 -0.705059,4.550306 -0.609077,6.78155 l -0.694245,-0.694245 -0.595502,-4.75556 0.180488,-2.980418 -0.50313,0.274346 2.077792,-4.926806 1.3706,-0.515791 z"
       id="path14"
       sodipodi:nodetypes="ccccccccccc" /><path
       style="fill:#8c786b;fill-opacity:1;stroke:none;stroke-width:0.2181px;stroke-linecap:butt;stroke-linejoin:miter;stroke-opacity:1"
       d="m 35.304282,11.890731 c 1.565658,2.755976 1.824769,5.487522 2.113778,8.556076 l 0.441648,-1.409 c 0.275858,2.369382 0.166035,4.738763 -0.09831,7.108145 l 0.655468,-2.613695 0.170647,-2.8576 -0.556313,-4.44302 0.715574,0.973759 -1.345225,-4.206472 -1.020015,-1.722689 z"
       id="path15"
       sodipodi:nodetypes="ccccccccccc" /><path
       style="fill:#a18a7b;fill-opacity:1;stroke:none;stroke-width:0.264583px;stroke-linecap:butt;stroke-linejoin:miter;stroke-opacity:1"
       d="m 21.714498,11.85573 c 0.838737,-0.923505 1.362063,-2.04846 2.962529,-2.4854541 2.816511,-0.7430406 5.6575,-1.2349496 8.648221,-0.1907064 1.134758,0.6835053 2.665125,0.9882215 3.106953,2.3351935 l -1.833363,1.421772 0.02633,-1.206709 -1.227043,0.42655 -6.912194,1.461717 1.337847,-1.458164 -4.840612,1.238016 1.372131,-1.466335 z"
       id="path13"
       sodipodi:nodetypes="cccccccccccc" /><path
       style="fill:#746458;fill-opacity:1;stroke:none;stroke-width:0.264583px;stroke-linecap:butt;stroke-linejoin:miter;stroke-opacity:1"
       d="m 23.294126,33.202971 c 0.05924,1.070822 0.809587,1.79309 1.166782,2.678987 l 0.02953,-0.579614 c 0.971152,1.145284 1.781193,1.613488 2.709718,2.394988 l -0.144303,-0.610294 c 0.558068,0.525993 1.225766,1.019089 2.130531,1.441051 l 0.108448,-0.07801 0.343086,0.175963 c 0.641457,0.328992 1.575281,0.507408 2.242425,-0.0235 l 0.268192,-0.213423 0.07539,0.121633 0.967931,-1.274797 0.07346,0.610867 c 0.347208,-0.716157 1.045484,-1.319956 1.489908,-2.254825 l 0.147252,0.531605 c 0.01115,-0.323646 0.295921,-1.110203 0.418084,-1.433848 l 0.396017,-1.175778 -0.933261,1.247932 c -0.769558,0.682617 -1.599317,1.129935 -2.542791,1.538527 -1.221684,0.307216 -2.468128,0.227448 -3.727343,-0.05195 C 27.647746,35.896252 26.684141,35.947151 26.06895,35.25366 25.387538,34.846566 25.278602,34.577294 25.1403,34.300952 l -0.238952,0.10889 -0.503355,-0.483827 0.04166,0.214378 c -0.389508,0.05958 -0.777403,-0.643561 -1.145525,-0.937429 z"
       id="path16"
       inkscape:label="beard"
       sodipodi:nodetypes="ccccccccccccccccccccccccccc" /><path
       style="fill:#62544b;fill-opacity:1;stroke:none;stroke-width:0.264583px;stroke-linecap:butt;stroke-linejoin:miter;stroke-opacity:1"
       d="m 28.209293,33.584581 2.34864,0.21876 1.504131,-0.167757 c -0.427605,0.400115 -0.890199,0.763203 -1.41074,1.064965 -0.901786,-0.298546 -1.687384,-0.694308 -2.442031,-1.115968 z"
       id="path17"
       sodipodi:nodetypes="ccccc"
       inkscape:label="goatee" /><path
       id="path18"
       style="fill:#695b51;fill-opacity:1;stroke:none;stroke-width:0.264583px;stroke-linecap:butt;stroke-linejoin:miter;stroke-opacity:1"
       inkscape:label="stash"
       d="m 29.030528,30.02693 c -0.460633,0.183738 -0.6731,0.326883 -1.588223,0.561723 l -0.3483,0.265617 0.06718,0.01757 -0.379305,0.382922 0.229443,-0.04754 -0.291972,0.419095 c 0.75722,-0.674926 1.352222,-0.79001 2.295674,-1.11156 l 1.441812,-0.03825 1.223182,0.190169 c 0.802073,0.204264 1.103115,0.469293 1.808158,1.19631 l -0.10542,-0.414445 0.193787,0.102319 -0.252181,-0.332279 -0.496094,-0.516248 c -0.459357,-0.252863 -0.79638,-0.447433 -1.072286,-0.612882 -0.409219,0.04854 -0.809931,0.115493 -1.262972,0.06925 -0.556013,-0.01996 -1.249625,-0.0888 -1.462483,-0.131771 z"
       sodipodi:nodetypes="cccccccccccccccccc" /><path
       style="fill:#e9ddaf;fill-opacity:0.371761;stroke:none;stroke-width:0.264583px;stroke-linecap:butt;stroke-linejoin:miter;stroke-opacity:1"
       d="m 24.332592,10.947277 c 1.656594,-0.854126 4.388026,-1.4399715 5.282638,-1.4341004 -1.395667,0.5160024 -3.241727,1.4067014 -4.218068,1.9206104 2.019196,-0.525518 5.734341,-0.968935 8.449707,-0.878818 L 30.556435,9.9688695 c 0.761596,-0.4255798 2.480517,0.074442 3.734638,0.1250675 -4.247514,-1.4453601 -5.723253,-1.8607623 -9.958481,0.85334 z"
       id="path55"
       sodipodi:nodetypes="ccccccc" /></g><g
     inkscape:groupmode="layer"
     id="layer7"
     inkscape:label="hair highlights"><path
       style="color:#000000;fill:#b3b3b3;-inkscape-stroke:none"
       d="m 21.623835,13.351188 -0.518366,2.5785 c -0.06801,-0.504139 -0.108687,-1.011089 -0.154297,-1.517577 -0.36688,0.973507 -0.217461,1.330635 -0.257952,2.194788 l 0.05504,0.900952 0.201525,2.57272 c 0.360404,-0.829072 0.821043,-4.60307 0.968183,-5.834476 0.05233,0.899915 0.154575,2.232279 0.267955,3.125835 0.106739,-1.233983 0.888598,-3.258068 0.480559,-4.220657 l -0.445386,-0.878598 z"
       id="path34"
       sodipodi:nodetypes="ccccccccccc"
       inkscape:label="shade_grey" /><path
       style="fill:#b3b3b3;fill-opacity:1;stroke:none;stroke-width:0.264583px;stroke-linecap:butt;stroke-linejoin:miter;stroke-opacity:1"
       d="m 37.577997,18.541722 c -0.296744,-2.184724 -0.579145,-4.381707 -1.165729,-6.318694 l 1.252772,2.291991 z"
       id="path35"
       sodipodi:nodetypes="cccc" /><path
       id="path36"
       style="fill:#b3b3b3;fill-opacity:1;stroke:none;stroke-width:0.0968792px;stroke-linecap:butt;stroke-linejoin:miter;stroke-opacity:1"
       d="m 33.325615,35.847425 c -0.07932,0.311483 -0.185593,0.627763 -0.306958,0.946195 l -0.22996,-0.487308 c -0.0251,0.307406 -0.117924,0.588119 -0.226343,0.871781 l -0.0832,-0.661458 c -0.05303,0.649595 -0.318145,1.105035 -0.751892,1.940967 L 32.40474,37.58272 c -0.07206,0.188379 -0.140742,0.383803 -0.192236,0.593762 L 32.82177,37.28403 c -0.105824,0.254322 -0.216726,0.509735 -0.327112,0.764811 l 0.789616,-1.245402 z" /><path
       id="path38"
       style="fill:#b3b3b3;fill-opacity:1;stroke:none;stroke-width:0.116325px;stroke-linecap:butt;stroke-linejoin:miter;stroke-opacity:1"
       d="m 27.165703,36.019312 c 0.12432,0.286512 0.290893,0.577437 0.481117,0.870341 l 0.360431,-0.448242 c 0.03934,0.282762 0.184831,0.540972 0.354763,0.801893 l 0.130405,-0.608431 c 0.08312,0.597519 0.498651,1.016448 1.178492,1.785366 l -1.061858,-0.804745 c 0.112945,0.173277 0.220596,0.353034 0.301306,0.546162 l -0.954944,-0.820907 c 0.165865,0.233933 0.33969,0.468871 0.512706,0.703498 l -1.23762,-1.145562 z" /><path
       id="path39"
       style="fill:#b3b3b3;fill-opacity:0.689707;stroke:none;stroke-width:0.112915px;stroke-linecap:butt;stroke-linejoin:miter;stroke-opacity:1"
       d="m 24.699354,34.409619 c 0.07453,0.265802 0.192988,0.542227 0.336154,0.824177 l 0.472205,-0.326016 c -0.01489,0.24883 0.08776,0.493791 0.215799,0.745032 l 0.222349,-0.371846 c -0.03149,0.525815 0.262707,0.908355 0.830026,1.677731 l -0.864808,-0.946752 c 0.08513,0.166864 0.158108,0.500951 0.205062,0.679619 l -0.843558,-1.02101 c 0.129132,0.22744 0.04198,0.216707 0.178562,0.445901 l -0.85917,-0.942303 z"
       sodipodi:nodetypes="cccccccccccc" /><path
       id="path40"
       style="fill:#b3b3b3;fill-opacity:0.689707;stroke:none;stroke-width:0.0944979px;stroke-linecap:butt;stroke-linejoin:miter;stroke-opacity:1"
       d="m 34.60922,35.085924 c -0.06147,0.22573 -0.159162,0.460482 -0.277235,0.699926 l -0.38944,-0.276867 c 0.01228,0.211317 -0.07238,0.419348 -0.177975,0.632712 l -0.183377,-0.315787 c 0.02597,0.446544 -0.216662,0.771413 -0.684545,1.424799 l 0.71323,-0.804021 c -0.07021,0.141708 -0.130396,0.425429 -0.16912,0.577161 l 0.695705,-0.867084 c -0.106499,0.193151 -0.03462,0.184036 -0.147265,0.378677 l 0.70858,-0.800243 z"
       sodipodi:nodetypes="cccccccccccc" /><path
       style="display:inline;fill:#000000;fill-opacity:0.143638;stroke:none;stroke-width:0.264583px;stroke-linecap:butt;stroke-linejoin:miter;stroke-opacity:1;filter:url(#filter57)"
       d="m 38.123654,22.694151 c 0.145499,6.872507 -4.209131,18.985982 -9.329428,15.373489 7.248225,-0.8927 8.769278,-12.256942 9.329428,-15.373489 z"
       id="path57"
       inkscape:label="final_shade"
       sodipodi:nodetypes="ccc" /></g><g
     inkscape:groupmode="layer"
     id="layer6"
     inkscape:label="lines"
     sodipodi:insensitive="true"><path
       style="display:inline;fill:none;stroke:#eb0000;stroke-width:0.264583px;stroke-linecap:butt;stroke-linejoin:miter;stroke-opacity:1"
       d="m 64.019988,18.507041 c -0.81779,0.463762 -1.197033,3.124296 -0.627226,4.577252 0.292648,0.746226 0.322577,1.238337 0.169138,1.635551 -0.153873,0.398339 -0.356924,1.014488 -0.93481,0.983947 -0.815144,0.03802 -0.401799,-1.659433 -1.850012,-0.561554 -0.808874,0.18932 -0.278758,-1.607414 0.29087,-1.515225"
       id="path26"
       sodipodi:nodetypes="cssccc" /><path
       style="display:inline;fill:none;stroke:#ad0000;stroke-width:0.264583px;stroke-linecap:butt;stroke-linejoin:miter;stroke-opacity:1"
       d="m 63.591508,24.80854 c 0,0 0.298697,-0.900221 0.812801,0.290711 0.635238,-0.418982 -0.14906,-1.207171 -0.512807,-1.901044"
       id="path27"
       sodipodi:nodetypes="ccc" /></g></svg>
