<?xml version="1.0" encoding="UTF-8" standalone="no"?>
<!-- Created with Inkscape (http://www.inkscape.org/) -->

<svg
   width="300"
   height="300"
   viewBox="0 0 299.99999 300"
   version="1.1"
   id="svg1"
   inkscape:version="1.3.2 (091e20e, 2023-11-25)"
   sodipodi:docname="go_ask_alice_exports.svg"
   inkscape:export-filename="go_ask_alice_exports.png"
   inkscape:export-xdpi="96"
   inkscape:export-ydpi="96"
   xmlns:inkscape="http://www.inkscape.org/namespaces/inkscape"
   xmlns:sodipodi="http://sodipodi.sourceforge.net/DTD/sodipodi-0.dtd"
   xmlns:xlink="http://www.w3.org/1999/xlink"
   xmlns="http://www.w3.org/2000/svg"
   xmlns:svg="http://www.w3.org/2000/svg">
  <sodipodi:namedview
     id="namedview1"
     pagecolor="#ffffff"
     bordercolor="#666666"
     borderopacity="1.0"
     inkscape:showpageshadow="2"
     inkscape:pageopacity="0.0"
     inkscape:pagecheckerboard="0"
     inkscape:deskcolor="#d1d1d1"
     inkscape:document-units="px"
     inkscape:zoom="0.80083333"
     inkscape:cx="355.25494"
     inkscape:cy="278.45994"
     inkscape:window-width="1452"
     inkscape:window-height="752"
     inkscape:window-x="299"
     inkscape:window-y="145"
     inkscape:window-maximized="0"
     inkscape:current-layer="g93" />
  <defs
     id="defs1">
    <linearGradient
       id="linearGradient143"
       inkscape:collect="always">
      <stop
         style="stop-color:#d18484;stop-opacity:1;"
         offset="0"
         id="stop143" />
      <stop
         style="stop-color:#e6adad;stop-opacity:1;"
         offset="1"
         id="stop144" />
    </linearGradient>
    <linearGradient
       id="linearGradient141"
       inkscape:collect="always">
      <stop
         style="stop-color:#deb3b3;stop-opacity:1;"
         offset="0"
         id="stop141" />
      <stop
         style="stop-color:#de8787;stop-opacity:1;"
         offset="1"
         id="stop142" />
    </linearGradient>
    <linearGradient
       id="linearGradient137"
       inkscape:collect="always">
      <stop
         style="stop-color:#dec6c6;stop-opacity:1;"
         offset="0"
         id="stop138" />
      <stop
         style="stop-color:#de8787;stop-opacity:1;"
         offset="1"
         id="stop137" />
    </linearGradient>
    <linearGradient
       id="linearGradient130"
       inkscape:collect="always">
      <stop
         style="stop-color:#de8787;stop-opacity:1;"
         offset="0"
         id="stop130" />
      <stop
         style="stop-color:#dea7a7;stop-opacity:1;"
         offset="0.27267921"
         id="stop133" />
      <stop
         style="stop-color:#dea8a8;stop-opacity:1;"
         offset="0.49415618"
         id="stop132" />
      <stop
         style="stop-color:#de8787;stop-opacity:1;"
         offset="1"
         id="stop131" />
    </linearGradient>
    <linearGradient
       inkscape:collect="always"
       xlink:href="#linearGradient130"
       id="linearGradient131"
       x1="-18.345673"
       y1="-32.505798"
       x2="21.518661"
       y2="-32.080856"
       gradientUnits="userSpaceOnUse" />
    <radialGradient
       inkscape:collect="always"
       xlink:href="#linearGradient137"
       id="radialGradient138"
       cx="-2.6023295"
       cy="-98.40258"
       fx="-2.6023295"
       fy="-98.40258"
       r="7.08565"
       gradientTransform="matrix(-0.08600992,2.6323775,-2.4601047,-0.08040493,-244.56451,-99.949256)"
       gradientUnits="userSpaceOnUse" />
    <linearGradient
       inkscape:collect="always"
       xlink:href="#linearGradient141"
       id="linearGradient142"
       x1="-1.5381317"
       y1="-70.42778"
       x2="11.237778"
       y2="-65.907532"
       gradientUnits="userSpaceOnUse" />
    <linearGradient
       inkscape:collect="always"
       xlink:href="#linearGradient143"
       id="linearGradient144"
       x1="-14.439939"
       y1="-65.602592"
       x2="-1.5771866"
       y2="-66.541077"
       gradientUnits="userSpaceOnUse" />
  </defs>
  <g
     inkscape:label="Layer 1"
     inkscape:groupmode="layer"
     id="layer1"
     transform="matrix(3.918722,0,0,3.918722,-6.2198069,-86.484416)">
    <g
       id="g93"
       display="inline"
       inkscape:label="wonderland"
       inkscape:groupmode="layer"
       transform="matrix(0.26458334,0,0,0.26458334,48.947917,77.258334)">
      <path
         id="rect108"
         style="fill:#f4d7d7;fill-rule:evenodd;stroke:#db8484;stroke-linecap:square;stroke-opacity:0.995862"
         d="m -8.9172038,-398.91729 219.9328638,93.79614 -3.467,520.0635 L -2.9209521,102.40594 Z"
         sodipodi:nodetypes="ccccc"
         inkscape:export-filename="../../../../../../nn/content/svg/isometric/go_ask_alice_2.svg"
         inkscape:export-xdpi="96"
         inkscape:export-ydpi="96" />
      <path
         id="path108"
         style="fill:#e9c0c0;fill-opacity:1;fill-rule:evenodd;stroke:none;stroke-linecap:square;stroke-opacity:0.995862"
         d="M -0.39422779,-396.04146 -196.8839,-339.27028 -195.65861,196.21239 -2.9209521,102.40594 Z"
         sodipodi:nodetypes="ccccc" />
      <g
         id="g94"
         inkscape:label="grid"
         transform="matrix(1.5639588,0,0,1.7483777,5.9021996,79.843663)">
        <path
           id="path33"
           style="fill:#ffaaaa;fill-rule:evenodd;stroke-width:0.0113777;stroke-linecap:square"
           d="M 0.80956,-14.55314 33.44715,-0.30274 1.89239,14.43669 -30.7452,0.18628 Z" />
        <path
           id="path55"
           style="fill:#ff8080;fill-rule:evenodd;stroke-width:0.0113777;stroke-linecap:square"
           d="M 32.90568,-28.46825 65.543273,-14.21784 33.98851,0.52158 1.35091,-13.72882 Z" />
        <path
           id="path58"
           style="fill:#ffaaaa;fill-rule:evenodd;stroke-width:0.0113777;stroke-linecap:square"
           d="M 63.932013,-43.54293 96.569605,-29.29253 65.014846,-14.5531 32.37725,-28.80351 Z" />
        <path
           id="path66"
           style="fill:#ff8080;fill-rule:evenodd;stroke-width:0.0113777;stroke-linecap:square"
           d="m 96.028142,-57.45807 32.637588,14.2504 -31.554755,14.73943 -32.637592,-14.25041 z" />
        <path
           id="path71"
           style="fill:#ffaaaa;fill-rule:evenodd;stroke-width:0.0113777;stroke-linecap:square"
           d="m 0.07912,-42.81389 32.63759,14.25041 -31.55476,14.73942 -32.63759,-14.2504 z" />
        <path
           id="path72"
           style="fill:#ff8080;fill-rule:evenodd;stroke-width:0.0113777;stroke-linecap:square"
           d="m -31.58718,-28.73468 32.6376,14.25041 -31.55477,14.73943 -32.6376,-14.25041 z" />
        <path
           id="path73"
           style="fill:#ffaaaa;fill-rule:evenodd;stroke-width:0.0113777;stroke-linecap:square"
           d="m 63.535709,-71.66726 32.637592,14.2504 -31.554759,14.73942 -32.637592,-14.2504 z" />
        <path
           id="path74"
           style="fill:#ff8080;fill-rule:evenodd;stroke-width:0.0113777;stroke-linecap:square"
           d="M 31.59219,-57.42497 64.229786,-43.17457 32.67502,-28.43514 0.03743,-42.68555 Z" />
        <path
           id="path75"
           style="fill:#ffaaaa;fill-rule:evenodd;stroke-width:0.0113777;stroke-linecap:square"
           d="m -63.14403,-42.84095 32.63759,14.25041 -31.55476,14.73942 -32.63759,-14.25041 z" />
        <path
           id="path81"
           style="fill:#ff8080;fill-rule:evenodd;stroke-width:0.0113777;stroke-linecap:square"
           d="m -31.04789,-56.75606 32.63759,14.25041 -31.55477,14.73942 -32.63759,-14.2504 z" />
        <path
           id="path88"
           style="fill:#ffaaaa;fill-rule:evenodd;stroke-width:0.0113777;stroke-linecap:square"
           d="m -0.02156,-71.83074 32.63759,14.2504 -31.55476,14.73942 -32.63759,-14.2504 z" />
        <path
           id="path89"
           style="fill:#ff8080;fill-rule:evenodd;stroke-width:0.0113777;stroke-linecap:square"
           d="M 32.07456,-85.74588 64.71215,-71.49547 33.15738,-56.75605 0.51979,-71.00645 Z" />
        <path
           id="path90"
           style="fill:#ffaaaa;fill-rule:evenodd;stroke-width:0.0113777;stroke-linecap:square"
           d="m -63.87445,-71.1017 32.6376,14.2504 -31.55477,14.73943 -32.63759,-14.25041 z" />
        <path
           id="path91"
           style="fill:#ff8080;fill-rule:evenodd;stroke-width:0.0113777;stroke-linecap:square"
           d="m -95.54072,-57.02251 32.6376,14.25041 -31.55476,14.73942 -32.6376,-14.25041 z" />
        <path
           id="path92"
           style="fill:#ffaaaa;fill-rule:evenodd;stroke-width:0.0113777;stroke-linecap:square"
           d="m -0.41787,-99.95507 32.6376,14.2504 -31.55476,14.73942 -32.6376,-14.2504 z" />
        <path
           id="path93"
           style="fill:#ff8080;fill-rule:evenodd;stroke-width:0.0113777;stroke-linecap:square"
           d="m -32.36135,-85.71277 32.63759,14.2504 -31.55477,14.73943 -32.63759,-14.25041 z" />
      </g>
      <g
         id="g121"
         inkscape:label="grid"
         transform="matrix(1.5639588,0,0,1.7483777,-192.37795,180.21171)">
        <path
           id="path105"
           style="fill:#ffaaaa;fill-rule:evenodd;stroke-width:0.0113777;stroke-linecap:square"
           d="M 0.80956,-14.55314 33.44715,-0.30274 1.89239,14.43669 -30.7452,0.18628 Z" />
        <path
           id="path106"
           style="fill:#ff8080;fill-rule:evenodd;stroke-width:0.0113777;stroke-linecap:square"
           d="M 32.90568,-28.46825 65.543273,-14.21784 33.98851,0.52158 1.35091,-13.72882 Z" />
        <path
           id="path107"
           style="fill:#ffaaaa;fill-rule:evenodd;stroke-width:0.0113777;stroke-linecap:square"
           d="M 63.932013,-43.54293 96.569605,-29.29253 65.014846,-14.5531 32.37725,-28.80351 Z" />
        <path
           id="path109"
           style="fill:#ff8080;fill-rule:evenodd;stroke-width:0.0113777;stroke-linecap:square"
           d="m 96.028142,-57.45807 32.637588,14.2504 -31.554755,14.73943 -32.637592,-14.25041 z" />
        <path
           id="path110"
           style="fill:#ffaaaa;fill-rule:evenodd;stroke-width:0.0113777;stroke-linecap:square"
           d="m 0.07912,-42.81389 32.63759,14.25041 -31.55476,14.73942 -32.63759,-14.2504 z" />
        <path
           id="path111"
           style="fill:#ff8080;fill-rule:evenodd;stroke-width:0.0113777;stroke-linecap:square"
           d="m -31.58718,-28.73468 32.6376,14.25041 -31.55477,14.73943 -32.6376,-14.25041 z" />
        <path
           id="path112"
           style="fill:#ffaaaa;fill-rule:evenodd;stroke-width:0.0113777;stroke-linecap:square"
           d="m 63.535709,-71.66726 32.637592,14.2504 -31.554759,14.73942 -32.637592,-14.2504 z" />
        <path
           id="path113"
           style="fill:#ff8080;fill-rule:evenodd;stroke-width:0.0113777;stroke-linecap:square"
           d="M 31.59219,-57.42497 64.229786,-43.17457 32.67502,-28.43514 0.03743,-42.68555 Z" />
        <path
           id="path114"
           style="fill:#ffaaaa;fill-rule:evenodd;stroke-width:0.0113777;stroke-linecap:square"
           d="m -63.14403,-42.84095 32.63759,14.25041 -31.55476,14.73942 -32.63759,-14.25041 z" />
        <path
           id="path115"
           style="fill:#ff8080;fill-rule:evenodd;stroke-width:0.0113777;stroke-linecap:square"
           d="m -31.04789,-56.75606 32.63759,14.25041 -31.55477,14.73942 -32.63759,-14.2504 z" />
        <path
           id="path116"
           style="fill:#ffaaaa;fill-rule:evenodd;stroke-width:0.0113777;stroke-linecap:square"
           d="m -0.02156,-71.83074 32.63759,14.2504 -31.55476,14.73942 -32.63759,-14.2504 z" />
        <path
           id="path117"
           style="fill:#ff8080;fill-rule:evenodd;stroke-width:0.0113777;stroke-linecap:square"
           d="M 32.07456,-85.74588 64.71215,-71.49547 33.15738,-56.75605 0.51979,-71.00645 Z" />
        <path
           id="path118"
           style="fill:#ffaaaa;fill-rule:evenodd;stroke-width:0.0113777;stroke-linecap:square"
           d="m -63.87445,-71.1017 32.6376,14.2504 -31.55477,14.73943 -32.63759,-14.25041 z" />
        <path
           id="path119"
           style="fill:#ff8080;fill-rule:evenodd;stroke-width:0.0113777;stroke-linecap:square"
           d="m -95.54072,-57.02251 32.6376,14.25041 -31.55476,14.73942 -32.6376,-14.25041 z" />
        <path
           id="path120"
           style="fill:#ffaaaa;fill-rule:evenodd;stroke-width:0.0113777;stroke-linecap:square"
           d="m -0.41787,-99.95507 32.6376,14.2504 -31.55476,14.73942 -32.6376,-14.2504 z" />
        <path
           id="path121"
           style="fill:#ff8080;fill-rule:evenodd;stroke-width:0.0113777;stroke-linecap:square"
           d="m -32.36135,-85.71277 32.63759,14.2504 -31.55477,14.73943 -32.63759,-14.25041 z" />
      </g>
      <g
         id="g142"
         inkscape:label="grid"
         transform="matrix(1.5639588,0,0,1.7483777,206.85155,179.18327)">
        <path
           id="path122"
           style="fill:#ffaaaa;fill-rule:evenodd;stroke-width:0.0113777;stroke-linecap:square"
           d="M 0.80956,-14.55314 33.44715,-0.30274 1.89239,14.43669 -30.7452,0.18628 Z" />
        <path
           id="path123"
           style="fill:#ff8080;fill-rule:evenodd;stroke-width:0.0113777;stroke-linecap:square"
           d="M 32.90568,-28.46825 65.543273,-14.21784 33.98851,0.52158 1.35091,-13.72882 Z" />
        <path
           id="path124"
           style="fill:#ffaaaa;fill-rule:evenodd;stroke-width:0.0113777;stroke-linecap:square"
           d="M 63.932013,-43.54293 96.569605,-29.29253 65.014846,-14.5531 32.37725,-28.80351 Z" />
        <path
           id="path125"
           style="fill:#ff8080;fill-rule:evenodd;stroke-width:0.0113777;stroke-linecap:square"
           d="m 96.028142,-57.45807 32.637588,14.2504 -31.554755,14.73943 -32.637592,-14.25041 z" />
        <path
           id="path127"
           style="fill:#ffaaaa;fill-rule:evenodd;stroke-width:0.0113777;stroke-linecap:square"
           d="m 0.07912,-42.81389 32.63759,14.25041 -31.55476,14.73942 -32.63759,-14.2504 z" />
        <path
           id="path128"
           style="fill:#ff8080;fill-rule:evenodd;stroke-width:0.0113777;stroke-linecap:square"
           d="m -31.58718,-28.73468 32.6376,14.25041 -31.55477,14.73943 -32.6376,-14.25041 z" />
        <path
           id="path129"
           style="fill:#ffaaaa;fill-rule:evenodd;stroke-width:0.0113777;stroke-linecap:square"
           d="m 63.535709,-71.66726 32.637592,14.2504 -31.554759,14.73942 -32.637592,-14.2504 z" />
        <path
           id="path131"
           style="fill:#ff8080;fill-rule:evenodd;stroke-width:0.0113777;stroke-linecap:square"
           d="M 31.59219,-57.42497 64.229786,-43.17457 32.67502,-28.43514 0.03743,-42.68555 Z" />
        <path
           id="path132"
           style="fill:#ffaaaa;fill-rule:evenodd;stroke-width:0.0113777;stroke-linecap:square"
           d="m -63.14403,-42.84095 32.63759,14.25041 -31.55476,14.73942 -32.63759,-14.25041 z" />
        <path
           id="path133"
           style="fill:#ff8080;fill-rule:evenodd;stroke-width:0.0113777;stroke-linecap:square"
           d="m -31.04789,-56.75606 32.63759,14.25041 -31.55477,14.73942 -32.63759,-14.2504 z" />
        <path
           id="path134"
           style="fill:#ffaaaa;fill-rule:evenodd;stroke-width:0.0113777;stroke-linecap:square"
           d="m -0.02156,-71.83074 32.63759,14.2504 -31.55476,14.73942 -32.63759,-14.2504 z" />
        <path
           id="path135"
           style="fill:#ff8080;fill-rule:evenodd;stroke-width:0.0113777;stroke-linecap:square"
           d="M 32.07456,-85.74588 64.71215,-71.49547 33.15738,-56.75605 0.51979,-71.00645 Z" />
        <path
           id="path136"
           style="fill:#ffaaaa;fill-rule:evenodd;stroke-width:0.0113777;stroke-linecap:square"
           d="m -63.87445,-71.1017 32.6376,14.2504 -31.55477,14.73943 -32.63759,-14.25041 z" />
        <path
           id="path137"
           style="fill:#ff8080;fill-rule:evenodd;stroke-width:0.0113777;stroke-linecap:square"
           d="m -95.54072,-57.02251 32.6376,14.25041 -31.55476,14.73942 -32.6376,-14.25041 z" />
        <path
           id="path141"
           style="fill:#ffaaaa;fill-rule:evenodd;stroke-width:0.0113777;stroke-linecap:square"
           d="m -0.41787,-99.95507 32.6376,14.2504 -31.55476,14.73942 -32.6376,-14.2504 z" />
        <path
           id="path142"
           style="fill:#ff8080;fill-rule:evenodd;stroke-width:0.0113777;stroke-linecap:square"
           d="m -32.36135,-85.71277 32.63759,14.2504 -31.55477,14.73943 -32.63759,-14.25041 z" />
      </g>
    </g>
    <g
       inkscape:groupmode="layer"
       id="layer4"
       inkscape:label="shadow"
       transform="matrix(0.26802443,0,0,0.30688698,46.522222,78.59072)"
       style="display:inline">
      <path
         id="path47"
         style="fill:#1a1a1a;fill-opacity:0.26393;fill-rule:evenodd;stroke-width:0.484028;stroke-linecap:square"
         inkscape:label="shadow"
         d="m 84.676614,-35.300089 c -4.001663,-2.031493 -9.031107,-1.99819 -13.087314,-0.19916 -1.37291,0.796709 -5.193972,3.838485 -7.948596,4.836657 -1.888838,1.20272 -1.391758,5.248052 -3.984847,2.296762 -2.901871,-2.59016 -10.138066,-2.475446 -12.463026,0.08261 -0.349708,1.689916 -3.453711,1.606424 -4.82601,2.148381 -2.422126,0.843432 -7.211625,2.262792 -9.788367,2.452715 -2.76511,0.363687 -5.34783,3.89819 -6.987421,0.311422 -1.593418,-0.279536 -6.522854,0.654317 -2.307891,0.687723 1.668441,0.03259 2.180545,2.595925 0.05897,1.205118 -2.858556,-0.172927 -1.270374,0.607626 0.345203,0.889866 3.145826,1.85965 6.885518,0.20778 10.263517,0.110647 3.423332,-0.482059 12.03481,-1.321568 15.423224,-2.000124 -2.835225,2.906477 -6.332251,5.434969 -10.628154,4.951863 -5.425036,0.382965 -11.2219,1.77729 -16.417665,-0.439369 -3.712692,0.668322 -5.697,3.733325 -7.880608,6.383113 -1.425946,1.209991 -4.8350822,2.1014539 -1.669879,3.7167284 1.138776,1.3810296 6.157568,1.845689 3.068399,3.4805091 C 12.525201,-1.9322222 9.3407746,0.96807351 5.4456773,2.4355785 3.9612897,2.496083 3.4285845,2.2021702 4.5804179,2.4975271 L 1.5842358,5.0684735 5.0297077,15.549953 C 6.6303227,13.499651 8.4280358,11.549435 9.9051462,9.4364185 L 11.917937,6.1885083 c 4.661895,-1.6752876 8.733878,-2.7376303 13.437996,-4.2974886 3.730658,2.7780011 8.757243,1.2486773 12.957712,2.6831604 3.626371,1.0726848 8.144877,1.0420535 11.301979,-0.7722278 -0.412278,-1.3763301 -1.786057,-5.7521403 0.510659,-2.82717297 -0.07787,2.38176697 2.430876,-1.16290768 2.137918,-2.56923703 1.759507,1.38315585 -0.383644,-1.6027798 -0.63811,-2.4636027 2.290759,-1.701119 5.369456,-2.528428 7.566412,-4.4220497 L 70.64437,-11.480027 c 3.571835,0.45767 2.529106,-4.186812 4.994189,-6.541374 4.069636,-0.836096 3.524959,-4.549438 6.207299,-6.578881 2.585356,-1.712352 6.117019,-3.940378 5.704067,-7.489859 -0.339911,-1.481561 -1.597471,-2.515986 -2.873311,-3.209948 z m -21.852747,19.984331 c -2.438538,2.079738 -7.921068,4.496686 -10.718926,6.0982277 -1.346799,0.7841595 -4.299997,5.0571343 -4.388912,4.3117791 1.058496,-2.4948634 3.450698,-4.6296422 4.289528,-6.9505218 2.808295,-1.294068 7.80645,-2.771668 10.81831,-3.459485 z"
         sodipodi:nodetypes="sscccccssssccccccccsccccccccccccsccsccccc" />
    </g>
    <g
       inkscape:groupmode="layer"
       id="layer2"
       inkscape:label="alice"
       style="display:inline"
       transform="matrix(0.26458334,0,0,0.26458334,48.947917,77.258334)">
      <rect
         style="display:none;fill:#ffaaaa;fill-rule:evenodd;stroke-width:1.01517;stroke-linecap:square"
         id="rect19"
         width="79.056938"
         height="79.056938"
         x="-39.528469"
         y="-39.528469"
         transform="matrix(0.89442719,0.4472136,-0.89442719,0.4472136,0,0)"
         inkscape:label="gird"
         sodipodi:insensitive="true" />
      <path
         id="rect21"
         style="display:none;fill:#ff8080;fill-opacity:0.502959;fill-rule:evenodd;stroke-width:0.898872;stroke-linecap:square"
         d="m 1.9883528,-150.61743 70.0000002,35 L 69.940206,1.0246436 -0.05979336,-33.975356 Z"
         sodipodi:nodetypes="ccccc"
         inkscape:label="back"
         sodipodi:insensitive="true" />
      <path
         style="fill:#666666;fill-opacity:1;fill-rule:evenodd;stroke-width:0.899794;stroke-linecap:square"
         sodipodi:type="inkscape:offset"
         inkscape:radius="0.33838034"
         inkscape:original="M -7.3964844 -49.044922 L -25.224609 -45.701172 L -15.832031 -12.849609 C -14.329786 -7.1860228 -11.49315 5.6438067 -13.009766 6.7578125 L -18.529297 10.722656 L -9.2207031 14.123047 L -4.6308594 14.191406 C -3.162053 5.274498 0.0252719 -3.6416859 2.4882812 -12.558594 L 6.1777344 -31.933594 L -7.3964844 -49.044922 z "
         xlink:href="#path35"
         id="path65"
         inkscape:href="#path35"
         d="m -7.4589844,-49.376953 -17.8281246,3.34375 a 0.33841417,0.33841417 0 0 0 -0.263672,0.425781 l 9.392578,32.851563 v -0.0078 c 0.74842,2.8216034 1.830375,7.4425641 2.535156,11.482422 0.352391,2.01992894 0.610721,3.8972256 0.685547,5.3203125 0.03741,0.7115434 0.02842,1.3097778 -0.03125,1.7421875 -0.05967,0.4324097 -0.197768,0.6704974 -0.242188,0.703125 l -5.515624,3.962891 a 0.33841417,0.33841417 0 0 0 0.08203,0.59375 l 9.3085935,3.40039 a 0.33841417,0.33841417 0 0 0 0.109375,0.01953 l 4.5898438,0.06836 A 0.33841417,0.33841417 0 0 0 -4.296875,14.246094 C -2.8349502,5.3709626 0.34691209,-3.5354355 2.8144531,-12.46875 a 0.33841417,0.33841417 0 0 0 0.00586,-0.02734 l 3.6894531,-19.375 a 0.33841417,0.33841417 0 0 0 -0.066406,-0.273437 L -7.1308594,-49.255859 a 0.33841417,0.33841417 0 0 0 -0.328125,-0.121094 z" />
      <path
         id="path35"
         style="fill:#ffffff;fill-opacity:1;fill-rule:evenodd;stroke-width:0.899794;stroke-linecap:square"
         d="m -25.224936,-45.700362 17.8283203,-3.344617 13.5735872,17.112027 -3.68779,19.373519 C 0.02617215,-3.6425251 -3.1623554,5.2743827 -4.6311618,14.191291 l -4.5889688,-0.06819 -9.3089364,-3.401166 5.518801,-3.9643912 c 1.516616,-1.1140058 -1.32045,-13.9436662 -2.822695,-19.6072528 z"
         sodipodi:nodetypes="cccccccccc"
         inkscape:label="legs" />
      <path
         id="path39"
         style="fill:#000000;fill-opacity:1;fill-rule:evenodd;stroke-width:0.395246;stroke-linecap:square"
         d="m -20.187447,9.796291 6.286916,-2.5423722 -2.837852,2.3990052 6.9442442,-0.3378267 0.1210962,4.7876127 -9.9112614,1.154434 -6.956596,-0.820608 0.08636,-2.098323 c 3.086043,-0.472356 4.267069,-1.661141 6.267092,-2.541922 z"
         sodipodi:nodetypes="ccccccccc"
         inkscape:label="shoe" />
      <path
         id="path38"
         style="fill:#000000;fill-opacity:1;fill-rule:evenodd;stroke-width:0.395246;stroke-linecap:square"
         d="m -11.889672,16.724853 c -0.216349,-2.826527 1.278313,-5.653054 2.0757761,-8.4795814 l 0.5355763,5.3037564 4.7379646,-0.03743 0.937531,-4.9040607 1.1060823,2.2849547 1.1136745,4.532811 c -0.4059786,2.807534 -1.6423999,5.23638 -2.8221593,7.774071 l -4.3227338,0.732795 c -1.0914245,-2.21795 -2.0652417,-3.691471 -3.3617117,-7.207314 z"
         sodipodi:nodetypes="cccccccccc"
         inkscape:label="shoe" />
      <path
         id="path37"
         style="fill:#e9c6af;fill-opacity:1;fill-rule:evenodd;stroke-width:0.811012;stroke-linecap:square"
         d="m -13.378626,-79.280964 -0.343507,-6.9362 -6.654182,-1.578696 -5.948888,21.611368 c -3.435726,3.881552 -3.66011,7.032326 -5.484965,10.547306 -1.081454,1.140926 -4.508665,-0.852427 -6.762998,-1.278641 -0.589884,0.35474 -2.084917,1.738225 -2.674593,2.443914 -0.330857,0.722501 -0.534529,0.885485 -1.174716,1.791251 0.05613,0.103306 1.201633,0.221771 1.544089,-0.07789 1.134942,-0.993122 1.599618,-1.442292 1.971691,-1.344902 0.691605,-0.23207 3.414493,0.701599 4.097626,1.413718 0.293294,0.49017 -1.392299,0.547992 -2.277474,0.78069 -1.075451,0.675363 -1.726216,1.350726 -1.504543,2.026089 l 3.684215,-0.853604 2.22998,-0.05132 c 1.515646,-0.170859 2.537692,-0.732621 3.369609,-1.444955 3.030739,-4.091838 7.199796,-8.412379 8.402478,-12.136939 z"
         sodipodi:nodetypes="ccccccccsccccccccc"
         inkscape:label="arm" />
      <path
         id="path41"
         style="fill:#f8df7c;fill-opacity:1;fill-rule:evenodd;stroke-linecap:square"
         d="m -15.799022,-118.47821 c 6.99417,-6.61203 27.222566,-5.52604 28.017771,19.375958 5.987964,4.948591 5.397009,15.03314 3.139163,20.552003 l -26.113924,-3.676375 z"
         sodipodi:nodetypes="ccccc"
         inkscape:label="hair" />
      <path
         id="path64"
         style="fill:#ffe6d5;fill-opacity:1;fill-rule:evenodd;stroke-width:0.811012;stroke-linecap:square"
         d="m -13.555289,-79.395342 -0.166844,-6.821822 -6.501746,-1.40909 -5.948888,21.611368 c -3.435726,3.881552 -3.66011,7.032326 -5.484965,10.547306 -1.081454,1.140926 -4.666178,-0.82231 -6.920511,-1.248524 -0.589884,0.35474 -2.084917,1.738225 -2.674593,2.443914 -0.330857,0.722501 -0.529452,0.685762 -1.169639,1.591528 0.05613,0.103306 1.202534,-0.01694 1.54499,-0.316606 1.134942,-0.993122 1.599618,-1.442292 1.971691,-1.344902 0.691605,-0.23207 3.413592,0.940315 4.096725,1.652434 0.293294,0.49017 -1.285046,0.685301 -2.170221,0.917999 -1.075451,0.675363 -1.575005,1.022563 -1.353332,1.697926 l 3.462039,-0.836203 2.228413,-0.06668 c 1.515646,-0.170859 2.326308,-0.658188 3.158225,-1.370522 3.030739,-4.091838 7.199796,-8.412379 8.402478,-12.136939 z"
         sodipodi:nodetypes="ccccccccsccccccccc"
         inkscape:label="arm" />
      <path
         style="fill:#2b7082;fill-opacity:1;fill-rule:evenodd;stroke-width:0.823841;stroke-linecap:square"
         sodipodi:type="inkscape:offset"
         inkscape:radius="0.14035206"
         inkscape:original="M -3.3574219 -90.5 L -12.996094 -90.017578 C -13.686103 -87.215842 -21.099938 -91.209991 -24.408203 -89.09375 C -26.537097 -87.731932 -28.569605 -82.034556 -24.175781 -76.666016 C -23.02141 -74.836745 -19.852633 -75.187383 -17.296875 -74.875 C -17.806284 -70.706051 -16.692674 -68.550745 -15.630859 -66.332031 C -14.354061 -63.372704 -14.401337 -60.547093 -14.822266 -57.662109 C -21.549192 -52.135512 -26.099301 -40.975037 -36.658203 -40.980469 C -39.480565 -29.043355 -31.297101 -31.152526 -31.167969 -17.876953 C -22.679719 -13.827494 -9.7797689 -19.158725 1.1445312 -14.251953 C 9.5132758 -10.493037 15.303175 -19.403588 21.792969 -20.195312 C 29.459322 -22.462474 28.501711 -27.218497 28.921875 -32.039062 C 25.066978 -34.853598 19.349201 -36.790592 16.537109 -40.869141 C 11.948346 -45.887706 10.814823 -49.265625 4.0371094 -55.474609 L 4.6914062 -60.066406 L 4.5761719 -60.052734 C 4.9398771 -61.382226 5.39133 -62.765856 5.9824219 -64.242188 L 8.953125 -70.962891 L 15.720703 -71.828125 C 17.418539 -76.889036 19.937074 -83.132688 8.4414062 -85.59375 C 1.2956853 -85.99551 -1.9999719 -87.875669 -3.3574219 -90.5 z "
         xlink:href="#path34"
         id="path59"
         inkscape:href="#path34"
         d="m -3.3652344,-90.640625 -9.6386716,0.482422 a 0.14036609,0.14036609 0 0 0 -0.128907,0.107422 c -0.07835,0.318124 -0.241356,0.523632 -0.488281,0.669922 -0.246924,0.146289 -0.583462,0.226469 -0.992187,0.251953 -0.81745,0.05097 -1.907982,-0.1168 -3.083985,-0.308594 -2.352005,-0.383588 -5.059122,-0.880754 -6.787109,0.224609 -1.122211,0.71786 -2.164071,2.515566 -2.392578,4.816407 -0.228507,2.300841 0.372756,5.109005 2.591797,7.820312 l -0.0098,-0.01563 c 0.610277,0.967074 1.742197,1.347026 3.013672,1.529297 1.228853,0.176161 2.601243,0.177275 3.833984,0.316406 -0.467023,4.099219 0.641922,6.285742 1.689453,8.47461 1.25339,2.908869 1.214798,5.68542 0.802735,8.539062 -3.367587,2.78278 -6.176354,6.9352 -9.449219,10.388672 -3.2872,3.468599 -7.02392,6.225347 -12.253906,6.222656 a 0.14036609,0.14036609 0 0 0 -0.136719,0.107422 c -1.417743,5.99631 -0.05456,8.530412 1.658203,11.160156 1.712763,2.629744 3.76384,5.369643 3.828125,11.978516 a 0.14036609,0.14036609 0 0 0 0.08008,0.125 c 4.290663,2.046931 9.659004,1.717111 15.308594,1.503906 5.64959,-0.213204 11.581834,-0.314092 17.0078126,2.123047 4.233215,1.901396 7.8363602,0.59264 11.1542974,-1.271484 3.317936,-1.864124 6.381312,-4.273305 9.568359,-4.66211 a 0.14036609,0.14036609 0 0 0 0.02148,-0.0039 c 3.860291,-1.141599 5.589446,-2.93777 6.375,-5.050781 0.785554,-2.113012 0.646535,-4.518902 0.855469,-6.916016 a 0.14036609,0.14036609 0 0 0 -0.05859,-0.125 c -3.883506,-2.835424 -9.578153,-4.774429 -12.351562,-8.796875 a 0.14036609,0.14036609 0 0 0 -0.01172,-0.01367 c -4.562228,-4.989545 -5.71617,-8.37764 -12.4550781,-14.564453 l 0.6445312,-4.519531 a 0.14036609,0.14036609 0 0 0 -0.068359,-0.138672 c 0.3540338,-1.272667 0.7859946,-2.591831 1.3496094,-4 l 0.00195,-0.0039 2.9355469,-6.644531 6.6894529,-0.855469 a 0.14036609,0.14036609 0 0 0 0.115235,-0.09375 c 0.847796,-2.527114 1.921743,-5.374922 1.3125,-7.935547 -0.304622,-1.280313 -1.037379,-2.482282 -2.414063,-3.509766 -1.376684,-1.027483 -3.394431,-1.883925 -6.2812499,-2.501953 a 0.14036609,0.14036609 0 0 0 -0.021484,-0.0039 c -3.5618128,-0.200259 -6.1554144,-0.769324 -8.0195313,-1.607422 -1.8641169,-0.838098 -2.998396,-1.939512 -3.6621094,-3.222656 a 0.14036609,0.14036609 0 0 0 -0.1328125,-0.07617 z" />
      <path
         id="path34"
         style="fill:#55ddff;fill-opacity:1;fill-rule:evenodd;stroke-width:0.823841;stroke-linecap:square"
         inkscape:label="dress"
         d="m -3.3574219,-90.5 -9.6386721,0.482422 c -0.690009,2.801736 -8.103844,-1.192413 -11.412109,0.923828 -2.128894,1.361818 -4.161402,7.059194 0.232422,12.427734 1.154371,1.829271 4.323148,1.478633 6.878906,1.791016 -0.509409,4.168949 0.604201,6.324255 1.666016,8.542969 1.276798,2.959327 1.229522,5.784938 0.808593,8.669922 -6.726926,5.526597 -11.277035,16.687072 -21.835937,16.68164 -2.822362,11.937114 5.361102,9.827943 5.490234,23.103516 8.48825,4.049459 21.3882,-1.281772 32.3125002,3.625 8.3687446,3.758916 14.1586438,-5.151634 20.6484378,-5.943359 7.666353,-2.267162 6.708742,-7.023184 7.128906,-11.84375 -3.854897,-2.814536 -9.572674,-4.75153 -12.384766,-8.830079 -4.588763,-5.018565 -5.722286,-8.396484 -12.4999996,-14.605468 l 0.6542968,-4.591797 -0.1152343,0.01367 c 0.3637052,-1.329492 0.8151581,-2.713123 1.40625,-4.189454 l 2.9707031,-6.720703 6.767578,-0.865234 C 17.418539,-76.889038 19.937074,-83.132688 8.4414062,-85.59375 1.2956852,-85.99551 -1.9999719,-87.875669 -3.3574219,-90.5 Z" />
      <path
         id="path36"
         style="fill:#e9c6af;fill-opacity:1;fill-rule:evenodd;stroke-width:0.750233;stroke-linecap:square"
         d="m 6.8784167,-70.817223 1.7044624,-5.961147 6.3802469,0.585754 2.433859,19.313867 c 1.347975,4.057363 1.210674,8.114726 1.53388,12.172089 0.696979,2.478914 4.351632,2.123749 6.527448,3.185623 l 1.393129,1.209719 -0.423086,0.219064 c -0.672114,-0.120745 -0.890803,-0.253295 -1.654452,-0.723945 l 1.498431,1.101774 0.609936,1.145662 0.360119,1.504836 c 0.247222,0.722636 0.439602,1.292753 -0.162432,1.474164 0,0 -1.514776,-0.375574 -2.467896,-1.148868 -0.892945,-0.631471 -2.763558,-1.440022 -4.477824,-1.497287 0.03415,0.956108 0.415466,1.823131 0.693961,2.716539 0.146739,0.627923 -0.219427,1.123678 -0.410822,1.575495 -0.875682,-1.40092 -1.087487,-2.849662 -2.087306,-4.274493 l -1.474835,-3.020243 c -1.69904,-4.798524 -4.881589,-8.780649 -4.893418,-14.507672 z"
         sodipodi:nodetypes="ccccccccccccccccccccc"
         inkscape:label="arm" />
      <path
         style="fill:#2b7082;fill-opacity:0.95636;fill-rule:evenodd;stroke-linecap:square"
         sodipodi:type="inkscape:offset"
         inkscape:radius="0.20149666"
         inkscape:original="M -8.3847656 -89.320312 C -9.9548571 -89.08559 -11.492524 -88.551783 -12.908203 -87.660156 C -18.400606 -73.638199 -14.07693 -73.773774 -11.837891 -56.523438 L -5.3613281 -55.570312 C -6.3794747 -65.808615 1.4057172 -74.786632 4.3378906 -84.919922 C 1.3417297 -88.033161 -3.6744912 -90.024481 -8.3847656 -89.320312 z "
         xlink:href="#path45"
         id="path61"
         inkscape:href="#path45"
         d="m -6.6113281,-89.664062 c -0.6025333,0.0073 -1.2044973,0.0551 -1.8027344,0.144531 -1.5952455,0.238482 -3.1608985,0.78209 -4.6015625,1.689453 a 0.20151681,0.20151681 0 0 0 -0.08008,0.0957 c -2.752667,7.027485 -3.054417,10.56195 -2.375,14.466797 0.679417,3.904847 2.316215,8.160856 3.433594,16.769531 a 0.20151681,0.20151681 0 0 0 0.169921,0.173828 l 6.476563,0.953125 a 0.20151681,0.20151681 0 0 0 0.2304688,-0.21875 c -0.5034944,-5.063051 1.1688743,-9.830932 3.3496093,-14.611328 2.18073507,-4.780395 4.8668931,-9.564993 6.3417969,-14.662109 a 0.20151681,0.20151681 0 0 0 -0.048828,-0.197266 c -2.6637694,-2.767859 -6.8760171,-4.654441 -11.09375,-4.603515 z" />
      <path
         id="path45"
         style="fill:#f9f9f9;fill-opacity:1;fill-rule:evenodd;stroke-linecap:square"
         d="m -12.907395,-87.659236 c 5.662718,-3.566509 13.25047003,-1.412286 17.2453512,2.7387 -2.9321734,10.13329 -10.7168835,19.11214 -9.6987369,29.350443 l -6.4768793,-0.954059 c -2.239039,-17.250336 -6.562138,-17.113127 -1.069735,-31.135084 z"
         sodipodi:nodetypes="ccccc"
         inkscape:label="lace" />
      <path
         id="path44"
         style="fill:#ffe6d5;fill-opacity:1;fill-rule:evenodd;stroke-linecap:square"
         d="m -81.993849,-149.20795 8.953333,-1.20206 c -1.057895,1.33871 -1.750879,2.86373 0.51794,5.77433 -3.997508,0.92778 -6.572415,2.04533 -10.119899,-0.99072 2.014815,-1.32677 0.77571,-2.53665 0.648626,-3.58155 z"
         transform="translate(72.439283,59.036925)"
         sodipodi:nodetypes="ccccc"
         inkscape:label="neck" />
      <path
         style="fill:#e9c6af;fill-opacity:1;fill-rule:evenodd;stroke-linecap:square"
         sodipodi:type="inkscape:offset"
         inkscape:radius="0.34373459"
         inkscape:original="M -5.8398438 -121.04102 C -8.8164636 -121.07578 -11.960934 -120.40455 -14.599609 -118.57031 C -20.009148 -114.31515 -20.836735 -111.29161 -19.470703 -102.74805 C -17.786234 -100.36294 -18.839219 -98.64004 -19.070312 -96.71875 C -18.702539 -93.609237 -15.482045 -91.426928 -12.890625 -88.373047 C -11.978229 -87.334933 -10.699392 -87.534887 -9.3613281 -87.935547 L -2.0097656 -90.027344 L 4.8730469 -94.730469 C 7.5973809 -97.935719 9.2804591 -100.34478 9.7832031 -105.42773 C 10.375623 -111.41734 6.5184594 -116.96852 1.9121094 -119.2793 C -0.055272125 -120.26623 -2.8632239 -121.00626 -5.8398438 -121.04102 z "
         xlink:href="#path40"
         id="path57"
         inkscape:href="#path40"
         d="m -5.8359375,-121.38477 c -3.0311075,-0.0354 -6.2474935,0.6464 -8.9589845,2.53125 a 0.34376897,0.34376897 0 0 0 -0.01758,0.0137 c -2.729167,2.14677 -4.353432,4.03085 -5.091797,6.47265 -0.738364,2.44181 -0.591972,5.38513 0.09375,9.67383 a 0.34376897,0.34376897 0 0 0 0.05859,0.14453 c 0.800265,1.13313 0.934183,2.04909 0.857422,2.960939 -0.07676,0.911855 -0.396095,1.818119 -0.517578,2.828125 a 0.34376897,0.34376897 0 0 0 0,0.08203 c 0.19653,1.66166 1.148438,3.044322 2.341797,4.380859 1.193358,1.336537 2.641575,2.642308 3.917968,4.146484 a 0.34376897,0.34376897 0 0 0 0.0039,0.0039 c 0.515993,0.58709 1.175367,0.841882 1.845704,0.875 0.669132,0.03306 1.3535628,-0.130045 2.0351559,-0.333985 l 7.3515625,-2.091797 a 0.34376897,0.34376897 0 0 0 0.099609,-0.04687 l 6.8828124,-4.703125 a 0.34376897,0.34376897 0 0 0 0.068359,-0.06055 c 2.7341304,-3.216776 4.4811418,-5.739578 4.9902344,-10.886718 0.608851,-6.15574 -3.3237776,-11.81618 -8.0585937,-14.19141 -2.0229912,-1.01482 -4.8712909,-1.76343 -7.9023438,-1.79883 z" />
      <path
         id="path40"
         style="fill:#ffe6d5;fill-opacity:1;fill-rule:evenodd;stroke-linecap:square"
         d="m -14.600489,-118.57113 c 5.27735,-3.66847 12.577773,-2.68213 16.512536,-0.70826 4.60635,2.31078 8.463292,7.86135 7.870872,13.85096 -0.502744,5.08295 -2.185819,7.49327 -4.910153,10.69852 l -6.883447,4.702421 -7.350322,2.092673 c -1.338064,0.40066 -2.616419,0.599498 -3.528815,-0.438616 -2.59142,-3.053881 -5.813273,-5.236045 -6.181047,-8.345558 0.231094,-1.92129 1.284561,-3.64345 -0.399908,-6.02856 -1.366032,-8.54356 -0.539255,-11.56842 4.870284,-15.82358 z"
         sodipodi:nodetypes="cssccccccc"
         inkscape:label="head" />
      <path
         style="fill:#aa8800;fill-opacity:1;fill-rule:evenodd;stroke-linecap:square"
         sodipodi:type="inkscape:offset"
         inkscape:radius="0.20303498"
         inkscape:original="M -8.5703125 -121.99414 C -11.500795 -121.70915 -14.088887 -120.75905 -15.804688 -119.42578 C -19.349301 -116.67142 -21.674533 -112.22899 -20.144531 -110.65625 C -17.386117 -115.5791 -2.473461 -111.81973 -1.0546875 -108.74805 C 1.6887287 -102.80847 -0.12882511 -101.35332 0.93554688 -97.722656 C 3.444193 -89.16547 9.0576991 -87.789253 17.193359 -79.740234 C 19.451205 -85.259097 18.726245 -94.07094 12.738281 -99.019531 C 12.093973 -117.72041 0.22113392 -122.8491 -8.5703125 -121.99414 z "
         xlink:href="#path42"
         id="path56"
         inkscape:href="#path42"
         d="m -6.890625,-122.28516 c -0.5762126,0.005 -1.1437924,0.0358 -1.6992188,0.0898 -2.9622862,0.28808 -5.5828352,1.24408 -7.3398442,2.60937 -1.79708,1.39643 -3.279299,3.21234 -4.128906,4.89649 -0.424803,0.84207 -0.692482,1.65098 -0.753906,2.36914 -0.06142,0.71815 0.08775,1.35883 0.521484,1.80468 a 0.20305529,0.20305529 0 0 0 0.324219,-0.041 c 0.646081,-1.15304 2.025363,-1.82282 3.800781,-2.10938 1.775419,-0.28656 3.9257,-0.18559 6.035157,0.16602 2.1094558,0.35161 4.1808576,0.95297 5.802734,1.65234 1.6218764,0.69937 2.7853154,1.52624 3.0898438,2.18555 1.36190281,2.94856 1.58413074,4.75271 1.6054687,6.29492 0.021338,1.54221 -0.16997564,2.848878 0.37304687,4.701174 1.26499653,4.315001 3.33190373,6.844893 6.08007813,9.277344 2.7481744,2.432451 6.1751275,4.780815 10.2304685,8.792969 a 0.20305529,0.20305529 0 0 0 0.330078,-0.06836 c 2.283192,-5.580816 1.561383,-14.419781 -4.445312,-19.449219 -0.340547,-9.341289 -3.4837735,-15.340629 -7.6660158,-18.882809 -3.6711754,-3.10934 -8.1266677,-4.32333 -12.1601562,-4.28907 z" />
      <path
         id="path42"
         style="fill:#ffe680;fill-opacity:1;fill-rule:evenodd;stroke-linecap:square"
         d="m -15.804001,-119.42539 c 6.863203,-5.33308 27.683695,-4.52907 28.542773,20.405441 5.987964,4.948591 6.712506,13.760768 4.45466,19.279631 -8.1356603,-8.049019 -13.7486299,-9.424767 -16.25727599,-17.981953 -1.06437199,-3.630659 0.75302219,-5.086239 -1.99039401,-11.025819 -1.4187735,-3.07168 -16.331871,-6.83034 -19.090285,-1.90749 -1.530002,-1.57274 0.795908,-6.01545 4.340522,-8.76981 z"
         sodipodi:nodetypes="sccsscs"
         inkscape:label="hairl" />
      <path
         id="path63"
         style="fill:#ffe6d5;fill-opacity:1;fill-rule:evenodd;stroke-width:0.750233;stroke-linecap:square"
         d="m 7.2079018,-70.790338 1.3749773,-5.988032 6.1761049,0.635425 2.433859,19.313867 c 1.347975,4.057363 1.210674,8.114726 1.53388,12.172089 0.696979,2.478914 4.51507,2.211229 6.690886,3.273103 l 1.433833,1.072568 -0.423086,0.219064 c -0.672114,-0.120745 -0.890803,-0.253295 -1.654452,-0.723945 l 1.344796,1.101774 0.609936,1.145662 0.360119,1.504836 c 0.247222,0.722636 0.560779,1.129254 -0.04125,1.310665 0,0 -1.326018,-0.271745 -2.279138,-1.045039 -0.892945,-0.631471 -3.09942,-1.586844 -4.813686,-1.644109 0.03415,0.956108 0.466572,2.111195 0.745067,3.004603 0.146739,0.627923 -0.09097,0.862303 -0.282366,1.31412 -0.875682,-1.40092 -0.913395,-2.685316 -1.913214,-4.110147 l -1.648927,-3.004786 c -1.69904,-4.798524 -4.556367,-8.780649 -4.568196,-14.507672 z"
         sodipodi:nodetypes="ccccccccccccccccccccc"
         inkscape:label="arm" />
      <path
         id="path60"
         style="fill:#2b7082;fill-rule:evenodd;stroke-linecap:square"
         d="m 10.0625,-85.902344 c -1.2412459,-0.01299 -2.1432728,0.12336 -3.4157629,0.429556 -0.050959,0.01257 -0.3132068,0.05004 -0.3304707,0.09961 -0.9579183,2.82526 -1.9652208,5.831394 -2.1367478,8.581088 -0.1715269,2.749695 0.3448007,5.245172 3.0548564,7.112404 0.020263,0.01447 0.043709,0.02384 0.068359,0.02734 2.911239,0.353679 5.858991,0.703056 8.962891,-0.492187 0.02068,-0.0083 0.03934,-0.02096 0.05469,-0.03711 1.281435,-1.327467 2.689826,-2.605482 3.263672,-4.5625 0.573846,-1.957017 0.298118,-4.562391 -1.710937,-8.519531 -0.0018,-0.0033 -0.0038,-0.0066 -0.0059,-0.0098 -0.417603,-0.693207 -1.439931,-1.318038 -2.820312,-1.800782 -1.380381,-0.482744 -3.122461,-0.808644 -4.984375,-0.828125 z"
         sodipodi:nodetypes="cccsccccsccscc" />
      <path
         id="path46"
         style="fill:#55ddff;fill-opacity:1;fill-rule:evenodd;stroke-linecap:square"
         d="m 6.0347109,-85.288246 c 5.0337261,-1.211252 10.6885291,0.415609 11.6997611,2.094216 3.99849,7.875633 1.047047,10.239497 -1.525169,12.904114 -3.063707,1.179767 -5.975737,0.837555 -8.8866284,0.483918 -5.33522,-3.675973 -3.2053038,-9.827294 -1.2879637,-15.482248 z"
         sodipodi:nodetypes="ccccc"
         inkscape:label="sleeve" />
      <path
         style="color:#000000;fill:#666666;fill-opacity:1;-inkscape-stroke:none"
         d="M -8.6367188,-16.324219 C -8.6281842,-8.1142003 -9.14606,-0.01310604 -9.84375,8.0507813 l 0.4283075,-2.8894493 1.3132276,-21.493724 z"
         id="path67"
         sodipodi:nodetypes="ccccc" />
      <path
         style="color:#000000;fill:#2d7587;fill-opacity:1;-inkscape-stroke:none"
         d="m -27.488281,-31.707031 c 0.08793,4.298997 1.077545,8.635416 -1.63086,12.818359 2.40976,-3.182603 2.209378,-7.830812 1.969473,-12.233059 -0.242746,-5.027031 0.77903,-10.99241 6.880137,-15.807956 -6.264136,4.062871 -6.808563,9.625168 -7.21875,15.222656 z"
         id="path68"
         sodipodi:nodetypes="ccscc" />
      <path
         style="color:#000000;fill:#2d7587;fill-opacity:1;-inkscape-stroke:none"
         d="m -0.53558084,-43.441274 c 4.55007614,4.423556 7.93555814,13.419961 6.60394024,27.35143 1.0248037,-4.552298 1.1701744,-20.443639 -6.60394024,-27.35143 z"
         id="path69"
         sodipodi:nodetypes="ccc" />
      <path
         style="color:#000000;fill:#2d7587;fill-opacity:1;-inkscape-stroke:none"
         d="m -16.929498,-77.38889 c 0,0 -0.40956,1.672217 -0.505504,2.524264 -0.147938,1.313792 0.04155,3.900519 0.04155,3.900519 l 0.120674,0.0043 c -0.166732,0 -0.163384,-2.56035 -0.02399,-3.878596 0.0881,-0.833143 0.367275,-2.550453 0.367275,-2.550453 z"
         id="path70"
         sodipodi:nodetypes="csccsc" />
    </g>
    <g
       inkscape:groupmode="layer"
       id="layer3"
       inkscape:label="face"
       style="display:inline"
       transform="matrix(0.26458334,0,0,0.26458334,48.947917,77.258334)">
      <path
         id="path48"
         style="fill:#ffffff;fill-rule:evenodd;stroke-linecap:square"
         d="m -11.310647,-102.79928 c 2.9229166,-2.64155 5.8452379,-1.9088 7.0772126,2.874486 l -1.1134766,1.444137 c -0.8778882,-0.748972 -4.2578403,-1.566373 -5.253143,-1.07912 -0.469086,-1.029463 -0.989176,-2.228883 -0.710593,-3.239503 z"
         sodipodi:nodetypes="ccccc"
         inkscape:label="eye" />
      <path
         id="path49"
         style="fill:#ffffff;fill-rule:evenodd;stroke-linecap:square"
         d="m -15.123143,-103.30751 c -1.39064,-1.84645 -3.620754,-1.88967 -4.32817,0.43922 0.194881,1.27242 0.475881,2.21346 0.977055,2.892384 0.535855,-0.126994 1.899169,-0.294054 2.951142,0.07308 0.251784,-1.212874 0.599128,-2.127114 0.399973,-3.404684 z"
         sodipodi:nodetypes="ccccc"
         inkscape:label="gird" />
      <path
         id="path50"
         style="fill:#cfbbad;fill-opacity:1;fill-rule:evenodd;stroke-linecap:square"
         d="m -11.526685,-95.586047 c -1.26415,0.279473 -2.07063,0.598666 -3.355955,-0.283607 l 1.458381,1.227115 c 0.203,0.06617 0.280433,0.204348 0.829442,0.07208 z"
         sodipodi:nodetypes="ccccc" />
      <path
         id="path62"
         style="fill:#aa8800;fill-opacity:1;fill-rule:evenodd;stroke-width:3.17198;stroke-linecap:square"
         d="M 10.592819,-98.261919 C 10.079497,-110.54265 5.7042044,-122.144 -11.554364,-120.49385 c 17.4682087,-1.78637 22.506815,11.47392 22.52853,22.251794 0.694065,5.192208 6.531529,3.887125 6.610657,12.745913 -0.07771,-8.913339 -6.41232,-8.220078 -6.992004,-12.765776 z"
         sodipodi:nodetypes="ccccc" />
      <path
         id="path51"
         style="display:inline;fill:#de8787;fill-rule:evenodd;stroke-width:1.05488;stroke-linecap:square"
         d="m -14.747267,-91.849014 c 0.855482,-0.216997 -0.129231,-0.811286 2.180925,-0.567594 2.212701,-0.158501 1.653971,0.586321 2.61013,1.036975 -1.339187,2.11654 -2.839083,1.801613 -4.791055,-0.469385 z"
         sodipodi:nodetypes="ccccc" />
      <path
         id="path52"
         style="fill:#2d7587;fill-opacity:1;fill-rule:evenodd;stroke-width:1.05488;stroke-linecap:square"
         d="m 0.43994271,-85.803183 c -2.97371801,1.065881 -8.30656031,1.996631 -10.83050971,-1.012663 1.8038247,2.523032 6.1477494,2.925529 10.83050971,1.012663 z"
         sodipodi:nodetypes="ccc" />
      <path
         id="path53"
         style="fill:#decd87;fill-rule:evenodd;stroke-linecap:square"
         d="m -10.948628,-105.54491 c 2.1944162,-0.63522 5.167822,0.0578 7.7123155,2.98512 -0.7376154,-3.1699 -6.1200687,-4.76817 -7.7123155,-2.98512 z"
         sodipodi:nodetypes="ccc" />
      <path
         id="path54"
         style="fill:#decd87;fill-rule:evenodd;stroke-linecap:square"
         d="m -16.10447,-105.81462 c -1.53707,-0.41809 -2.563371,-0.29195 -3.589792,1.57043 l -0.10665,-0.5236 c 0.540924,-2.28734 3.021071,-1.91358 3.696442,-1.04683 z"
         sodipodi:nodetypes="cccc" />
      <g
         id="g81"
         inkscape:label="eye"
         transform="translate(0.74352068,-0.2505555)">
        <ellipse
           style="fill:#2d7587;fill-opacity:1;fill-rule:evenodd;stroke-width:0.241283;stroke-linecap:square"
           id="ellipse62"
           cx="-8.85361"
           cy="-101.63449"
           rx="1.7429779"
           ry="2.036658" />
        <ellipse
           style="fill:#00ccff;fill-opacity:1;fill-rule:evenodd;stroke-width:0.222185;stroke-linecap:square"
           id="ellipse71"
           cx="-8.85361"
           cy="-101.63449"
           rx="1.6323797"
           ry="1.8440205" />
        <ellipse
           style="fill:#2d7587;fill-opacity:1;fill-rule:evenodd;stroke-width:0.147142;stroke-linecap:square"
           id="ellipse73"
           cx="-9.0324984"
           cy="-101.68624"
           rx="1.0188445"
           ry="1.295756" />
        <ellipse
           style="fill:#d7eef4;fill-opacity:1;fill-rule:evenodd;stroke-width:0.0436857;stroke-linecap:square"
           id="ellipse75"
           cx="-8.682416"
           cy="-102.13406"
           rx="0.34319329"
           ry="0.33907706" />
      </g>
      <g
         id="g82"
         inkscape:label="eye"
         style="display:inline"
         transform="translate(-0.1432306,0.31363041)">
        <ellipse
           style="fill:#347581;fill-opacity:1;fill-rule:evenodd;stroke-width:0.203918;stroke-linecap:square"
           id="ellipse63"
           cx="-17.164934"
           cy="-102.79263"
           rx="1.3979791"
           ry="1.8136829" />
        <ellipse
           style="fill:#00ccff;fill-opacity:1;fill-rule:evenodd;stroke-width:0.188607;stroke-linecap:square"
           id="ellipse72"
           cx="-17.164934"
           cy="-102.79263"
           rx="1.2481822"
           ry="1.737749" />
        <ellipse
           style="fill:#2d7587;fill-opacity:1;fill-rule:evenodd;stroke-width:0.133296;stroke-linecap:square"
           id="ellipse74"
           cx="-17.243423"
           cy="-102.81917"
           rx="0.9099012"
           ry="1.1906881" />
        <ellipse
           style="fill:#d7eef4;fill-opacity:1;fill-rule:evenodd;stroke-width:0.0436857;stroke-linecap:square"
           id="ellipse76"
           cx="-16.970377"
           cy="-103.11526"
           rx="0.34319329"
           ry="0.33907706" />
      </g>
      <path
         style="color:#000000;fill:#aa8800;fill-opacity:1;-inkscape-stroke:none"
         d="m -18.009766,-115.37305 c -1.158778,1.06205 -1.280396,1.83771 -1.050781,3.52539 l 0.288789,-0.16894 c -0.466109,-1.58117 0.01172,-2.79852 0.761992,-3.35645 z"
         id="path76"
         sodipodi:nodetypes="cccc" />
      <path
         style="color:#000000;fill:#666666;-inkscape-stroke:none"
         d="m -19.393238,-102.38774 c -0.131943,-2.5767 3.454314,-2.9832 4.248789,-0.67735 -0.456011,-2.97542 -5.063532,-1.57222 -4.248789,0.67735 z"
         id="path77"
         sodipodi:nodetypes="ccc" />
      <path
         style="color:#000000;fill:#666666;fill-opacity:1;-inkscape-stroke:none"
         d="m -11.403579,-102.76207 c 3.1480409,-2.77433 6.1004611,-1.17172 7.1831006,3.003646 -0.1436079,-3.127486 -3.743131,-6.866026 -7.1831006,-3.003646 z"
         id="path78"
         sodipodi:nodetypes="ccc" />
      <path
         style="color:#000000;fill:#666666;fill-opacity:1;-inkscape-stroke:none"
         d="m -10.609938,-99.499374 c 1.3405491,-0.412599 4.3293369,0.636707 5.2820853,1.037321 -0.8999704,-0.565186 -3.590095,-1.785287 -5.2820853,-1.037321 z"
         id="path79"
         sodipodi:nodetypes="ccc" />
      <path
         style="color:#000000;fill:#686868;fill-opacity:1;-inkscape-stroke:none"
         d="m -18.463843,-99.931289 c 0.944827,0.01525 1.749135,-0.06056 2.877935,0.04542 -1.392888,-0.460191 -2.302035,-0.309931 -2.877935,-0.04542 z"
         id="path80"
         sodipodi:nodetypes="ccc" />
      <path
         id="path82"
         style="fill:#000000;fill-opacity:0.137428;fill-rule:evenodd;stroke-width:1.05488;stroke-linecap:square"
         d="m -10.015603,-91.35966 c -1.682625,0.395505 -3.412399,0.308682 -4.705878,-0.40054 0.614411,-0.925795 1.523018,-0.69584 2.254569,-0.706258 1.220814,-0.0257 1.610841,0.124615 2.451309,1.106798 z"
         sodipodi:nodetypes="cccc" />
      <path
         id="path83"
         style="fill:#e9c6af;fill-opacity:1;fill-rule:evenodd;stroke-width:1.05488;stroke-linecap:square"
         d="m -0.07261255,-85.638865 c -1.15326175,-1.43133 -1.83082595,-3.101817 -1.20468685,-4.396303 -0.6795139,0.265704 -0.683106,2.888375 1.20468685,4.396303 z"
         sodipodi:nodetypes="ccc" />
      <path
         id="path84"
         style="fill:#e9c6af;fill-opacity:1;fill-rule:evenodd;stroke-width:0.735907;stroke-linecap:square"
         d="m -10.269012,-86.547169 c 0,0 0.8500767,-0.449751 1.156898,-1.242966 0.00215,0.542685 -0.3265689,1.219362 -1.156898,1.242966 z"
         sodipodi:nodetypes="ccc" />
      <path
         id="path85"
         style="fill:#aa8800;fill-opacity:1;fill-rule:evenodd;stroke-width:3.17198;stroke-linecap:square"
         d="M 9.2930285,-98.083912 C 8.7797073,-110.36465 1.4211566,-118.16054 -10.588529,-117.72196 c 14.6982387,-0.49163 18.7649149,9.27852 19.7123445,19.618788 0.694065,5.192208 5.7766135,8.132878 7.0923475,12.913556 -1.267955,-4.564534 -6.3434505,-8.348598 -6.9231345,-12.894296 z"
         sodipodi:nodetypes="ccccc" />
      <path
         style="color:#000000;fill:#aa8800;fill-opacity:1;-inkscape-stroke:none"
         d="m -17.465019,-112.35901 0.647724,-0.19804 c -0.77085,-0.88468 0.173276,-3.17877 1.067093,-4.36719 -0.965536,1.19453 -1.930872,2.75543 -1.714817,4.56523 z"
         id="path86"
         sodipodi:nodetypes="cccc" />
      <path
         style="color:#000000;fill:#aa8800;fill-opacity:1;-inkscape-stroke:none"
         d="m -11.924885,-117.94691 c -2.648782,0.33803 -4.937347,3.48346 -3.864968,5.21163 l -0.700436,-0.0793 c -0.167744,-2.14623 2.508941,-5.22037 4.565404,-5.13238 z"
         id="path87"
         sodipodi:nodetypes="cccc" />
      <rect
         style="display:none;fill:#ffaaaa;fill-opacity:0.257494;fill-rule:evenodd;stroke-width:1.00497;stroke-linecap:square"
         id="rect20"
         width="78.262383"
         height="78.262383"
         x="-167.70509"
         y="-167.70509"
         transform="matrix(0.89442719,0.44721359,-0.89442719,0.44721359,0,0)"
         inkscape:label="top"
         sodipodi:insensitive="true" />
    </g>
    <g
       inkscape:groupmode="layer"
       id="layer5"
       inkscape:label="grid_overlay"
       transform="matrix(0.26458334,0,0,0.26458334,48.947917,77.258334)">
      <path
         id="rect94"
         style="fill:#00ffff;fill-opacity:0.168679;fill-rule:evenodd;stroke:#238f8c;stroke-linecap:square;stroke-opacity:0.995862"
         d="M -172.16128,-142.82162 -49.91883,-90.368591 -50.165861,32.578713 -171.63736,-26.256933 Z"
         sodipodi:nodetypes="ccccc" />
      <path
         style="fill:none;stroke:#d40000;stroke-width:1px;stroke-linecap:butt;stroke-linejoin:miter;stroke-opacity:1"
         d="m -170.87107,-76.214763 121.01646,56.650576"
         id="path94"
         sodipodi:nodetypes="cc" />
      <path
         style="fill:none;stroke:#d40000;stroke-width:1px;stroke-linecap:butt;stroke-linejoin:miter;stroke-opacity:1"
         d="M -112.73781,1.3121333 -112.90303,-116.09717"
         id="path95"
         sodipodi:nodetypes="cc" />
      <path
         style="fill:none;stroke:#008080;stroke-width:1px;stroke-linecap:butt;stroke-linejoin:miter;stroke-opacity:1"
         d="m -111.6147,-34.994448 34.259014,2.189316"
         id="path96"
         sodipodi:nodetypes="cc" />
      <path
         style="fill:none;stroke:#008080;stroke-width:1px;stroke-linecap:butt;stroke-linejoin:miter;stroke-opacity:1"
         d="m -111.6147,-34.994448 -30.24194,-26.880675"
         id="path97"
         sodipodi:nodetypes="cc" />
      <path
         style="fill:none;stroke:#008080;stroke-width:1px;stroke-linecap:butt;stroke-linejoin:miter;stroke-opacity:1"
         d="m -112.90255,-64.889476 35.546864,32.084344"
         id="path98"
         sodipodi:nodetypes="cc" />
      <path
         style="fill:none;stroke:#008080;stroke-width:1px;stroke-linecap:butt;stroke-linejoin:miter;stroke-opacity:1"
         d="m -112.90255,-64.889476 -29.23473,2.496496"
         id="path99"
         sodipodi:nodetypes="cc" />
      <path
         style="fill:none;stroke:#ff00ff;stroke-width:1px;stroke-linecap:butt;stroke-linejoin:miter;stroke-opacity:1"
         d="m -104.52971,-45.510158 c -2.26868,-5.127331 -0.12203,-6.918143 5.058897,-6.416054"
         id="path100"
         sodipodi:nodetypes="cc" />
      <path
         style="fill:none;stroke:#ff00ff;stroke-width:1px;stroke-linecap:butt;stroke-linejoin:miter;stroke-opacity:1"
         d="m -151.07753,-67.388195 c 6.85808,-11.273469 16.15758,-13.172382 29.3776,3.27982"
         id="path101"
         sodipodi:nodetypes="cc" />
      <path
         id="path102"
         style="fill:#f9f9f9;fill-opacity:1;fill-rule:evenodd;stroke:#999999;stroke-width:0.849281;stroke-linecap:square;stroke-dasharray:none;stroke-opacity:0.995862"
         d="m 71.636736,-158.61757 a 25.855116,26.680522 46.894779 0 0 -12.980962,4.33349 19.467064,20.163515 56.243398 0 0 -9.78893,-1.8566 19.467064,20.163515 56.243398 0 0 -19.28113,20.9311 19.467064,20.163515 56.243398 0 0 20.60016,18.35272 19.467064,20.163515 56.243398 0 0 0.682614,-0.0892 25.855116,26.680522 46.894779 0 0 22.526892,10.70494 25.855116,26.680522 46.894779 0 0 16.807165,-7.40134 19.467064,20.163515 56.243398 0 0 11.097515,2.59073 19.467064,20.163515 56.243398 0 0 19.28113,-20.9311 19.467064,20.163515 56.243398 0 0 -20.600242,-18.35468 19.467064,20.163515 56.243398 0 0 -6.42343,1.52192 25.855116,26.680522 46.894779 0 0 -21.920781,-9.802 z" />
      <ellipse
         style="fill:#f9f9f9;fill-opacity:1;fill-rule:evenodd;stroke:#999999;stroke-width:0.773444;stroke-linecap:square;stroke-dasharray:none;stroke-opacity:0.995862"
         id="path103"
         cx="23.174347"
         cy="-103.555"
         rx="3.1016994"
         ry="2.223202" />
      <ellipse
         style="fill:#f9f9f9;fill-opacity:1;fill-rule:evenodd;stroke:#999999;stroke-width:0.773444;stroke-linecap:square;stroke-dasharray:none;stroke-opacity:0.995862"
         id="path104"
         cx="45.155491"
         cy="-106.12682"
         rx="5.4794774"
         ry="4.0283818" />
      <ellipse
         style="fill:#f9f9f9;fill-opacity:1;fill-rule:evenodd;stroke:#999999;stroke-width:0.773444;stroke-linecap:square;stroke-dasharray:none;stroke-opacity:0.995862"
         id="ellipse104"
         cx="33.479168"
         cy="-105.08813"
         rx="3.960489"
         ry="2.7379987" />
      <text
         xml:space="preserve"
         style="font-style:normal;font-variant:normal;font-weight:normal;font-stretch:normal;font-size:12px;line-height:normal;font-family:sans-serif;font-variant-ligatures:normal;font-variant-position:normal;font-variant-caps:normal;font-variant-numeric:normal;font-variant-alternates:normal;font-variant-east-asian:normal;font-feature-settings:normal;font-variation-settings:normal;text-indent:0;text-align:start;text-decoration-line:none;text-decoration-style:solid;text-decoration-color:#000000;letter-spacing:normal;word-spacing:normal;text-transform:none;writing-mode:lr-tb;direction:ltr;text-orientation:mixed;dominant-baseline:auto;baseline-shift:baseline;text-anchor:start;white-space:normal;shape-padding:0;shape-margin:0;inline-size:0;opacity:1;vector-effect:none;fill:#333333;fill-opacity:1;stroke:none;stroke-width:2;stroke-linecap:butt;stroke-linejoin:miter;stroke-miterlimit:4;stroke-dasharray:none;stroke-dashoffset:0;stroke-opacity:1;-inkscape-stroke:none;stop-color:#000000;stop-opacity:1"
         x="106.20399"
         y="-135.491"
         id="text104"
         transform="matrix(0.71859749,0.05393913,-0.0467331,1.0002235,-8.8685865,-9.4919913)"><tspan
           sodipodi:role="line"
           id="tspan104"
           x="106.20399"
           y="-135.491"
           style="text-align:center;text-anchor:middle">Curiouser</tspan><tspan
           sodipodi:role="line"
           x="106.20399"
           y="-120.491"
           id="tspan105"
           style="text-align:center;text-anchor:middle">and Curiouser...</tspan></text>
      <text
         xml:space="preserve"
         style="font-style:normal;font-variant:normal;font-weight:normal;font-stretch:normal;font-size:12px;line-height:normal;font-family:sans-serif;font-variant-ligatures:normal;font-variant-position:normal;font-variant-caps:normal;font-variant-numeric:normal;font-variant-alternates:normal;font-variant-east-asian:normal;font-feature-settings:normal;font-variation-settings:normal;text-indent:0;text-align:start;text-decoration-line:none;text-decoration-style:solid;text-decoration-color:#000000;letter-spacing:normal;word-spacing:normal;text-transform:none;writing-mode:lr-tb;direction:ltr;text-orientation:mixed;dominant-baseline:auto;baseline-shift:baseline;text-anchor:start;white-space:normal;shape-padding:0;shape-margin:0;inline-size:0;opacity:1;vector-effect:none;fill:#333333;fill-opacity:1;stroke:none;stroke-width:2;stroke-linecap:butt;stroke-linejoin:miter;stroke-miterlimit:4;stroke-dasharray:none;stroke-dashoffset:0;stroke-opacity:1;-inkscape-stroke:none;stop-color:#000000;stop-opacity:1"
         x="-309.108"
         y="-157.89114"
         id="text106"
         transform="matrix(0.54914843,0,0,0.6343798,10.39378,19.603387)"><tspan
           sodipodi:role="line"
           id="tspan106"
           x="-309.108"
           y="-157.89114">120 deg</tspan></text>
      <text
         xml:space="preserve"
         style="font-style:normal;font-variant:normal;font-weight:normal;font-stretch:normal;font-size:12px;line-height:normal;font-family:sans-serif;font-variant-ligatures:normal;font-variant-position:normal;font-variant-caps:normal;font-variant-numeric:normal;font-variant-alternates:normal;font-variant-east-asian:normal;font-feature-settings:normal;font-variation-settings:normal;text-indent:0;text-align:start;text-decoration-line:none;text-decoration-style:solid;text-decoration-color:#000000;letter-spacing:normal;word-spacing:normal;text-transform:none;writing-mode:lr-tb;direction:ltr;text-orientation:mixed;dominant-baseline:auto;baseline-shift:baseline;text-anchor:start;white-space:normal;shape-padding:0;shape-margin:0;inline-size:0;opacity:1;vector-effect:none;fill:#333333;fill-opacity:1;stroke:none;stroke-width:2;stroke-linecap:butt;stroke-linejoin:miter;stroke-miterlimit:4;stroke-dasharray:none;stroke-dashoffset:0;stroke-opacity:1;-inkscape-stroke:none;stop-color:#000000;stop-opacity:1"
         x="-309.108"
         y="-157.89114"
         id="text107"
         transform="matrix(0.32948683,0.10470321,-0.06539405,0.28870101,-28.572964,23.601452)"><tspan
           sodipodi:role="line"
           id="tspan107"
           x="-309.108"
           y="-157.89114">30 deg</tspan></text>
    </g>
    <g
       inkscape:groupmode="layer"
       id="layer6"
       inkscape:label="my_n"
       transform="matrix(0.26458334,0,0,0.26458334,48.947917,77.258334)">
      <g
         id="layer21"
         style="display:inline;fill:#a02c2c"
         transform="matrix(0.37603922,-0.35916775,0.6112115,0.34289337,55.570108,53.72669)">
        <path
           style="fill:#a02c2c;stroke:none;stroke-width:1px;stroke-linecap:butt;stroke-linejoin:miter;stroke-opacity:1"
           d="M -7.4578747,-9.4190221 -5.807887,-15.846128 C -0.70518593,-5.0685255 0.04217479,2.5427912 6.702759,10.403181 L 4.4884114,16.104186 C -1.665111,8.5563718 -4.0993577,1.1338758 -7.4578747,-9.4190221 Z"
           id="path271" />
        <path
           style="color:#000000;fill:#a02c2c;-inkscape-stroke:none"
           d="m -5.9594036,-15.777868 c -2.6658505,9.7745242 -3.9182644,18.697548 -8.0796594,28.97904 -1.140724,2.570841 -4.974126,2.909408 -6.652343,0.929687 -0.900016,-1.061709 -1.759127,-3.468307 -0.751953,-5.4140621 0.517437,-0.9996386 1.772469,-2.6626619 4.189453,-1.9609375 2.137629,0.620619 2.402426,2.6455272 0.40039,3.7070316 0.91007,-0.172268 2.217981,-0.5647038 2.138672,-1.9687504 -0.05441,-1.1447601 -0.828111,-2.2829986 -2.261718,-2.6992187 -2.198747,-0.6383633 -4.822309,-0.2214147 -5.974072,2.0036801 -1.42804,2.758827 0.09553,6.64834 0.672524,7.351963 1.65189,2.014408 7.457119,3.107285 9.64305,-1.617697 4.7194973,-10.2013927 5.3956529,-15.8209543 8.0395861,-25.515117 z"
           id="path272" />
        <path
           style="color:#000000;fill:#a02c2c;-inkscape-stroke:none"
           d="m 15.516382,-14.708552 c -1.985888,1.702361 -2.981883,4.877606 -4.204232,7.1412368 -2.6414219,7.51920617 -5.3762359,13.1319709 -8.9044925,21.0085712 0.374081,0.02422 2.3746468,3.234504 2.4023716,2.595666 2.0220585,-6.4100667 4.6909577,-12.6156888 6.7355269,-19.0180365 1.255621,-3.2607506 2.28629,-7.1052265 4.586579,-9.7635565 2.265702,-2.793475 7.767106,-0.487294 4.377577,5.7229867 -1.751578,3.4442289 -4.659419,1.2114278 -5.03437,-0.1651411 -0.50483,2.2652628 2.117097,3.5909262 4.052005,2.657547 2.694661,-1.2998756 3.835198,-7.4795766 2.690336,-9.3878106 -1.66595,-2.776774 -4.428919,-2.777211 -6.701301,-0.791463 z"
           id="path273" />
        <path
           style="fill:#a02c2c;fill-opacity:1;stroke:none;stroke-width:1px;stroke-linecap:butt;stroke-linejoin:miter;stroke-opacity:1"
           d="m -6.8014595,-11.842452 0.9928422,-3.956041 C -15.4979,-24.05338 -25.362592,-15.915315 -11.496837,-5.5050323 -25.609338,-18.466944 -10.235298,-20.713754 -6.8014595,-11.842452 Z"
           id="path274" />
      </g>
    </g>
    <g
       inkscape:groupmode="layer"
       id="white_queen"
       inkscape:label="white_queen"
       inkscape:export-filename="../../../../../../nn/content/svg/isometric/white_queen.svg"
       inkscape:export-xdpi="96"
       inkscape:export-ydpi="96"
       style="display:none"
       transform="matrix(0.26458334,0,0,0.26458334,48.947917,77.258334)"
       sodipodi:insensitive="true">
      <rect
         style="display:none;fill:#f4d7d7;fill-opacity:0.912254;fill-rule:evenodd;stroke-width:0.790569;stroke-linecap:square"
         id="rect125"
         width="79.056938"
         height="79.056938"
         x="-39.528469"
         y="-39.528469"
         transform="matrix(0.89442719,0.4472136,-0.89442719,0.4472136,0,0)"
         sodipodi:insensitive="true" />
      <path
         id="path140"
         style="fill:url(#linearGradient144);fill-opacity:1;fill-rule:evenodd;stroke-width:0.242395;stroke-linecap:square"
         d="m -12.183682,-63.597215 c 4.0688806,0.800971 3.0464172,7.596061 5.7218604,13.515154 2.6072034,-4.144839 6.45714341,-7.395947 6.11605218,-13.661091 -2.88187658,-2.658301 -5.37214358,-5.220225 -5.49822348,-7.200319 -0.2265814,-2.894592 0.6249459,-5.151895 2.0607827,-7.063801 l 1.3661412,-7.847772 c -2.2545274,0.08499 -4.9754168,-1.611566 -6.0269608,2.456129 -2.2081872,6.767198 -0.3970646,14.021577 -3.7396522,19.8017 z"
         sodipodi:nodetypes="cccccccc" />
      <path
         id="path126"
         style="fill:#c83737;fill-opacity:0.999908;fill-rule:evenodd;stroke-width:0.75;stroke-linecap:square"
         d="M 29.727023,-0.05682339 C 29.727023,8.2274478 16.568542,15 0,15 -16.568542,15 -30.112648,8.2835053 -30,0 l 0.05113,-3.7597256 c 23.7797922,-12.3791254 36.0706563,-11.6784894 59.735756,0.2066965 0.256539,0.7892433 -0.05986,2.67072162 -0.05986,3.49620571 z"
         sodipodi:nodetypes="cssccc" />
      <ellipse
         style="fill:#d35f5f;fill-opacity:1;fill-rule:evenodd;stroke-width:0.75;stroke-linecap:square"
         id="ellipse126"
         cx="0"
         cy="-3.3143256"
         rx="30"
         ry="15" />
      <path
         id="ellipse127"
         style="fill:url(#linearGradient131);fill-opacity:1;fill-rule:evenodd;stroke-width:0.353551;stroke-linecap:square"
         d="m 5.2651863,-91.746726 -4.93541087,2.123727 c -0.42211097,1.342611 -0.8201705,2.18965 -2.46243443,3.546843 l -5.1857004,1.033187 c -0.8847223,7.09055 -4.9549746,8.355345 0.6377987,13.288521 1.310267,3.717866 2.04832,7.46557 1.3106707,11.183436 0.089094,1.802035 -0.9891186,3.580748 -1.0753464,7.955129 L -19.898438,-5.8730469 c 1.232011,15.4318512 42.389043,11.4755461 41.355469,1.953125 L 9.125,-49.316406 C 12.015329,-53.646243 7.5549855,-60.763113 5.3500676,-65.382756 2.927199,-70.459039 4.5666062,-73.365421 8.679643,-76.84704 l 2.380904,-6.160772 -6.8803088,-2.366883 c -0.8589328,-1.7663 0.3319663,-4.133335 1.0849481,-6.372031 z"
         sodipodi:nodetypes="ccccccccccscccc" />
      <path
         id="ellipse130"
         style="display:inline;fill:url(#radialGradient138);fill-opacity:1;fill-rule:evenodd;stroke-width:0.180968;stroke-linecap:square"
         d="m 4.194439,-90.565829 c -1.9737597,1.423584 -4.23162654,2.190777 -6.4428899,3.06564 -0.6226488,-1.800775 -3.4295975,-2.060628 -3.8652158,-4.309798 1.2313351,-2.692705 -0.1122354,-2.388615 -1.3386509,-4.723154 -0.4615014,-1.635861 0.2583706,-2.572016 0.8722691,-3.536989 2.7797599,-4.36942 11.2486023,-4.28334 12.6868621,1.171783 1.3464099,5.106736 -0.5192834,7.021312 -1.9123746,8.332518 z"
         sodipodi:nodetypes="ccccssc"
         inkscape:label="head" />
      <path
         id="path130"
         style="fill:url(#linearGradient142);fill-opacity:1;fill-rule:evenodd;stroke-width:0.242395;stroke-linecap:square"
         d="m 13.071789,-59.383652 c -4.1288885,-0.386829 -8.3942508,5.437143 -12.6396685,10.353452 -1.32356399,-4.71438 -4.0924228,-8.924506 -1.9871392,-14.835188 3.5178595,-1.731023 6.6328596,-3.480783 7.3157594,-5.343661 1.0388275,-2.711243 0.8630036,-5.117402 0.028867,-7.358212 l 0.9174537,-7.912784 c 2.1376876,0.721396 5.2282106,-0.133131 5.0819866,4.065739 0.19666,7.115643 -0.281828,14.539519 1.282741,21.030654 z"
         sodipodi:nodetypes="cccccccc" />
      <path
         id="path139"
         style="fill:#de8d8d;fill-opacity:1;fill-rule:evenodd;stroke-width:0.208476;stroke-linecap:square"
         d="m -8.0755894,-61.919702 1.413388,-1.057166 1.061616,1.733691 0.366096,1.509057 1.227575,-0.347408 1.215732,-0.574935 -0.24626,1.502257 -2.143992,1.093535 -2.240228,-0.061 z"
         sodipodi:nodetypes="cccccccccc" />
      <path
         id="path138"
         style="fill:#de9393;fill-opacity:1;fill-rule:evenodd;stroke-width:0.242395;stroke-linecap:square"
         d="m -0.83563316,-62.188483 -1.57244034,-0.554435 -1.5661244,0.947226 -0.2421526,1.337515 -1.1458148,0.503315 -1.3525411,-0.69862 0.273972,1.825437 2.3852602,1.328788 2.4923257,-0.07412 z"
         sodipodi:nodetypes="cccccccccc" />
      <g
         id="g149"
         inkscape:label="crown"
         transform="matrix(1.173506,0,0,1.5316178,0.67673139,52.035072)">
        <ellipse
           style="fill:#de9999;fill-opacity:1;fill-rule:evenodd;stroke-linecap:square"
           id="path144"
           cx="3.8065574"
           cy="-100.80065"
           rx="5.6094208"
           ry="3.1647491"
           transform="rotate(-3.0076162)" />
        <path
           id="path145"
           style="fill:#dc9898;fill-opacity:1;fill-rule:evenodd;stroke-width:0.242395;stroke-linecap:square"
           d="m -5.9463662,-98.804999 0.4842691,-2.718571 -8.2803029,-8.55532 c 2.672595,3.77421 4.4665577,8.40318 7.7960338,11.273891 z"
           sodipodi:nodetypes="cccc" />
        <path
           id="path146"
           style="fill:#e29c9c;fill-opacity:1;fill-rule:evenodd;stroke-width:0.242395;stroke-linecap:square"
           d="m 2.7082332,-98.577359 0.9155663,-3.336581 5.6339863,-7.00737 c -2.6485977,4.2697 -2.9939979,6.99851 -6.5495526,10.343951 z"
           sodipodi:nodetypes="cccc" />
        <path
           id="path147"
           style="fill:#d79494;fill-opacity:1;fill-rule:evenodd;stroke-width:0.242395;stroke-linecap:square"
           d="m 3.8347994,-101.93816 c -1.1364339,-1.22031 -2.7842775,-1.80658 -5.8570814,-1.92278 2.33554526,-2.21733 4.2326155,-4.55165 6.1806597,-6.87237 -0.1297671,3.04119 -0.2317977,5.94378 -0.3235783,8.79515 z"
           sodipodi:nodetypes="cccc" />
        <path
           id="path149"
           style="fill:#dd9898;fill-opacity:1;fill-rule:evenodd;stroke-width:0.242395;stroke-linecap:square"
           d="m -5.6831648,-101.44598 3.6782671,-2.38425 -4.2982911,-7.2236 z"
           sodipodi:nodetypes="cccc" />
        <path
           id="path148"
           style="fill:#e79f9f;fill-opacity:1;fill-rule:evenodd;stroke-width:0.242395;stroke-linecap:square"
           d="m 0.36937156,-97.721841 c -2.34488626,0.162314 -4.53002746,0.113825 -6.06462046,-0.793145 l -1.2454815,-1.060389 0.7331381,-0.954005 c -0.8085591,-4.81248 -2.7045063,-9.38865 -4.2022787,-14.05135 3.8690295,5.63053 7.7878797,11.26302 10.77924256,16.858889 z"
           sodipodi:nodetypes="cccccc" />
        <path
           id="ellipse129"
           style="fill:#e79f9f;fill-opacity:1;fill-rule:evenodd;stroke-width:0.242395;stroke-linecap:square"
           d="m -3.218016,-99.290378 c -0.5466321,0.887419 -2.1046947,1.229605 -4.3654551,1.192988 l 8.45818424,-12.32946 z"
           sodipodi:nodetypes="cccc"
           transform="translate(6.0082605,0.43597509)" />
      </g>
      <path
         id="path150"
         style="fill:#e79f9f;fill-opacity:1;fill-rule:evenodd;stroke-linecap:square"
         d="m -5.8083185,-94.266838 c 0.663382,-0.447524 1.1202068,0.562414 1.8063368,1.43025 l -1.652423,-0.349362 z"
         sodipodi:nodetypes="cccc" />
      <path
         id="path151"
         style="fill:#e79f9f;fill-opacity:1;fill-rule:evenodd;stroke-linecap:square"
         d="m 1.1850991,-93.045224 c -0.6737886,-1.550294 -1.74518869,-0.735793 -2.9168612,0.468336 0.93099231,0.155672 2.34084448,-0.02729 2.9168612,-0.468336 z"
         sodipodi:nodetypes="ccc" />
      <path
         id="path152"
         style="fill:#d99595;fill-opacity:1;fill-rule:evenodd;stroke-linecap:square"
         d="m -0.81747235,-90.168526 c -1.06293035,0.352723 -1.63866695,-1.047739 -2.81033945,0.15639 0.9308394,0.245085 2.3028936,0.557313 2.81033945,-0.15639 z"
         sodipodi:nodetypes="ccc" />
      <path
         id="path153"
         style="fill:#e39b9b;fill-opacity:1;fill-rule:evenodd;stroke-linecap:square"
         d="m -0.85509385,-90.087612 c -1.71378765,1.213865 -1.43209055,0.75342 -2.69553705,0.112672 0.9308394,0.245085 2.2434921,0.277369 2.69553705,-0.112672 z"
         sodipodi:nodetypes="ccc" />
      <rect
         style="display:none;fill:#f4d7d7;fill-opacity:0.429397;fill-rule:evenodd;stroke-width:0.790569;stroke-linecap:square"
         id="rect126"
         width="79.056938"
         height="79.056938"
         x="-167.70509"
         y="-167.70509"
         transform="matrix(0.89442719,0.4472136,-0.89442719,0.4472136,0,0)"
         sodipodi:insensitive="true" />
    </g>
  </g>
</svg>
