<?xml version="1.0" encoding="UTF-8" standalone="no"?>
<!-- Created with Inkscape (http://www.inkscape.org/) -->

<svg
   width="200"
   height="80"
   viewBox="0 0 200 80"
   version="1.1"
   id="svg1"
   inkscape:version="1.3.2 (091e20e, 2023-11-25)"
   sodipodi:docname="mermaid_poses.svg"
   xmlns:inkscape="http://www.inkscape.org/namespaces/inkscape"
   xmlns:sodipodi="http://sodipodi.sourceforge.net/DTD/sodipodi-0.dtd"
   xmlns="http://www.w3.org/2000/svg"
   xmlns:svg="http://www.w3.org/2000/svg">
  <sodipodi:namedview
     id="namedview1"
     pagecolor="#ffffff"
     bordercolor="#666666"
     borderopacity="1.0"
     inkscape:showpageshadow="2"
     inkscape:pageopacity="0.0"
     inkscape:pagecheckerboard="0"
     inkscape:deskcolor="#d1d1d1"
     inkscape:document-units="px"
     inkscape:zoom="3.264"
     inkscape:cx="43.658088"
     inkscape:cy="-20.373774"
     inkscape:window-width="1646"
     inkscape:window-height="923"
     inkscape:window-x="175"
     inkscape:window-y="61"
     inkscape:window-maximized="0"
     inkscape:current-layer="layer3"
     showgrid="false" />
  <defs
     id="defs1" />
  <g
     inkscape:label="background"
     inkscape:groupmode="layer"
     id="layer1"
     sodipodi:insensitive="true">
    <rect
       style="fill:#f2f2f2;fill-rule:evenodd;stroke-width:0.5;stroke-linecap:square"
       id="rect1"
       width="200"
       height="80"
       x="-80"
       y="-40" />
  </g>
  <g
     inkscape:groupmode="layer"
     id="layer2"
     inkscape:label="torso_0"
     style="display:none">
    <path
       id="path3"
       style="fill:#cccccc;stroke:#000000;stroke-width:0.5;stroke-linecap:butt;stroke-linejoin:miter;stroke-dasharray:none;stroke-opacity:1"
       d="m -45.150537,-6.9890793 c -1.333537,0.3238608 -2.272629,0.2752122 -2.955221,0.1624356 -1.919693,-0.7070042 -2.814667,-1.559021 -2.904117,-2.5250311 l -5.158876,2.0532721 c 3.653412,1.7189761 5.984859,3.4059735 6.922368,6.66121204 l 0.848504,3.26686526 c 1.430733,4.0842416 1.433447,4.0053532 2.649997,5.5543321 2.328861,-0.1658236 3.415304,-0.8624653 4.394986,-1.5830814 3.703776,1.3545198 7.407552,2.8264214 11.111328,2.6347654 L -2.1306377,9.4916482 C -0.42367824,5.9146946 -1.2454033,1.8635137 -4.841177,-0.63556801 -19.735269,5.9560324 -20.007258,3.1242684 -35.515006,-2.2564966 c -2.484072,-0.5657496 -6.502819,-5.4933884 -9.635531,-4.7325827 z"
       sodipodi:nodetypes="scccccccccccs"
       inkscape:label="body" />
    <path
       id="path4"
       style="fill:#b3b3b3;fill-opacity:1;stroke:#000000;stroke-width:0.5;stroke-linecap:butt;stroke-linejoin:miter;stroke-dasharray:none;stroke-opacity:1"
       d="m -44.123558,-6.1345326 c -1.65395,-0.1099513 -2.363736,2.0611762 -1.751953,3.0097655 3.629459,6.2863335 9.300786,8.3033897 13.951171,12.455078 l 0.640626,1.8105471 c 0.809578,3.383552 1.944957,5.499316 2.917968,8.246094 l 1.222656,4.226562 c 0.222162,1.419817 0.294812,3.066518 0.635339,3.996736 l 0.500376,3.100786 3.264485,1.830845 c 0.0452,-0.346322 -0.768811,-1.082434 -1.044495,-1.428756 l 2.648202,0.86953 c -0.04185,-0.99875 -2.753558,-1.734312 -3.089844,-2.982422 -0.600877,-1.786041 -0.22362,-4.297034 -1.822266,-5.34375 -0.652595,-5.112416 -0.933012,-10.097545 -2.035156,-15.3632811 L -29.988793,7.0881239 -42.16848,-5.1345326 c -0.746963,-0.6733568 -1.403762,-0.9633496 -1.955078,-1 z"
       sodipodi:nodetypes="scccccccccccccccs"
       inkscape:label="arm" />
    <path
       id="path5"
       style="fill:#cccccc;fill-opacity:1;fill-rule:evenodd;stroke:#000000;stroke-width:0.5;stroke-linecap:square"
       d="m -50.3941,-11.323284 c -0.365526,1.8270152 -0.936008,3.3415405 -2.791182,5.4516937 -1.355473,1.3284896 -3.46777,3.3490678 -5.467082,3.3966132 -1.328622,-0.2851291 -2.513575,-1.6345635 -3.340411,-1.6775801 -0.346797,-0.6059036 -0.457753,-2.8361375 -2.649421,-3.7603053 -0.638689,-0.9541883 -1.991188,-2.3744075 -1.080421,-6.2585395 0.986014,-4.594546 5.043856,-6.698881 9.535437,-5.734964 4.491582,0.963916 6.528701,4.929279 5.79308,8.583082 z"
       sodipodi:nodetypes="cccccccc"
       inkscape:label="head" />
  </g>
  <g
     inkscape:groupmode="layer"
     id="g8"
     inkscape:label="torso_1_down">
    <path
       id="path6"
       style="fill:#cccccc;stroke:#000000;stroke-width:0.5;stroke-linecap:butt;stroke-linejoin:miter;stroke-dasharray:none;stroke-opacity:1"
       d="m -45.150537,-6.9890793 c -1.333537,0.3238608 -2.272629,0.2752122 -2.955221,0.1624356 -1.919693,-0.7070042 -2.814667,-1.559021 -2.904117,-2.5250311 l -5.158876,2.0532721 c 3.653412,1.7189761 5.984859,3.4059735 6.922368,6.66121204 l 0.848504,3.26686526 c 1.430733,4.0842416 1.433447,4.0053532 2.649997,5.5543321 2.328861,-0.1658236 3.415304,-0.8624653 4.394986,-1.5830814 3.703776,1.3545198 7.407552,2.8264214 11.111328,2.6347654 L -2.1306377,9.4916482 C -0.42367824,5.9146946 -1.2454033,1.8635137 -4.841177,-0.63556801 -19.735269,5.9560324 -20.007258,3.1242684 -35.515006,-2.2564966 c -2.484072,-0.5657496 -6.502819,-5.4933884 -9.635531,-4.7325827 z"
       sodipodi:nodetypes="scccccccccccs"
       inkscape:label="body" />
    <path
       id="path7"
       style="fill:#b3b3b3;fill-opacity:1;stroke:#000000;stroke-width:0.5;stroke-linecap:butt;stroke-linejoin:miter;stroke-dasharray:none;stroke-opacity:1"
       d="m -44.123558,-6.1345326 c -1.65395,-0.1099513 -2.363736,2.0611762 -1.751953,3.0097655 3.629459,6.2863335 9.300786,8.3033897 13.951171,12.455078 l 0.640626,1.8105471 c 0.809578,3.383552 1.944957,5.499316 2.917968,8.246094 l 1.222656,4.226562 c 0.222162,1.419817 0.294812,3.066518 0.635339,3.996736 l 0.500376,3.100786 3.264485,1.830845 c 0.0452,-0.346322 -0.768811,-1.082434 -1.044495,-1.428756 l 2.648202,0.86953 c -0.04185,-0.99875 -2.753558,-1.734312 -3.089844,-2.982422 -0.600877,-1.786041 -0.22362,-4.297034 -1.822266,-5.34375 -0.652595,-5.112416 -0.933012,-10.097545 -2.035156,-15.3632811 L -29.988793,7.0881239 -42.16848,-5.1345326 c -0.746963,-0.6733568 -1.403762,-0.9633496 -1.955078,-1 z"
       sodipodi:nodetypes="scccccccccccccccs"
       inkscape:label="arm" />
    <path
       id="path8"
       style="fill:#cccccc;fill-opacity:1;fill-rule:evenodd;stroke:#000000;stroke-width:0.5;stroke-linecap:square"
       d="m -50.3941,-11.323284 c -0.365526,1.8270152 -0.936008,3.3415405 -2.791182,5.4516937 -1.355473,1.3284896 -3.46777,3.3490678 -5.467082,3.3966132 -1.328622,-0.2851291 -2.513575,-1.6345635 -3.340411,-1.6775801 -0.346797,-0.6059036 -0.457753,-2.8361375 -2.649421,-3.7603053 -0.638689,-0.9541883 -1.991188,-2.3744075 -1.080421,-6.2585395 0.986014,-4.594546 5.043856,-6.698881 9.535437,-5.734964 4.491582,0.963916 6.528701,4.929279 5.79308,8.583082 z"
       sodipodi:nodetypes="cccccccc"
       inkscape:label="head" />
  </g>
  <g
     inkscape:groupmode="layer"
     id="layer3"
     inkscape:label="tail_0"
     style="display:inline">
    <path
       id="path1"
       style="fill:#666666;fill-rule:evenodd;stroke:#000000;stroke-width:0.5;stroke-linecap:square"
       d="m -5.8009634,-0.24300587 c 3.2555832,2.81406727 3.8687326,6.70713197 3.3431909,9.95317767 1.2678096,8.61e-5 6.597523,0.1367684 8.881046,0.1557066 L 87.044853,9.5106218 90.833167,7.2559681 86.846301,5.1408219 8.4116899,-1.8665615 C 3.2563975,-3.9502008 -2.8637984,-5.1521213 -5.8009634,-0.24300587 Z"
       sodipodi:nodetypes="cccccccc"
       inkscape:label="tail" />
    <g
       id="g13"
       inkscape:label="tail_fin"
       transform="rotate(12.440895,87.555497,7.8898279)">
      <path
         id="path2"
         style="fill:#666666;fill-opacity:1;fill-rule:evenodd;stroke:#000000;stroke-width:0.5;stroke-linecap:square;stroke-dasharray:none"
         d="M 96.342156,-0.4944735 C 92.407729,-0.34124405 87.00025,2.4765542 87.11494,5.4154883 l 0.02302,4.4505596 c 2.102378,7.3223871 11.310166,11.0625441 16.1786,9.7971811 1.49984,-0.365262 2.93492,-0.882248 3.4581,-0.997114 C 98.651733,17.223884 97.203451,6.0586075 108.65348,6.0070479 103.86337,4.059309 94.61454,2.0580108 98.770058,-0.43808517 c -0.50884,-0.064374 -1.909947,-0.0761266 -2.427902,-0.0563883 z"
         sodipodi:nodetypes="cccccccc"
         inkscape:label="fins" />
      <ellipse
         style="fill:#666666;fill-opacity:1;fill-rule:evenodd;stroke:none;stroke-width:0.5;stroke-linecap:square"
         id="path13"
         cx="87.100281"
         cy="7.3740425"
         rx="1.2023355"
         ry="2.1141553" />
    </g>
  </g>
  <g
     inkscape:groupmode="layer"
     id="g10"
     inkscape:label="tail_1_down"
     sodipodi:insensitive="true"
     style="display:none">
    <path
       id="path9"
       style="fill:#666666;fill-rule:evenodd;stroke:#000000;stroke-width:0.5;stroke-linecap:square"
       d="m -5.8009634,-0.24300587 c 3.2555832,2.81406727 3.8687326,6.70713197 3.3431909,9.95317767 1.2678096,8.61e-5 6.597523,0.1367684 8.881046,0.1557066 C 36.27339,25.250704 62.4312,21.402399 87.044853,9.5106218 L 90.833167,7.2559681 86.846301,5.1408219 C 43.838505,22.858755 33.052948,2.257359 8.4116899,-1.8665615 3.2563975,-3.9502008 -2.8637984,-5.1521213 -5.8009634,-0.24300587 Z"
       sodipodi:nodetypes="cccccccc"
       inkscape:label="tail" />
    <path
       id="path10"
       style="fill:#666666;fill-opacity:1;fill-rule:evenodd;stroke:#000000;stroke-width:0.5;stroke-linecap:square;stroke-dasharray:none"
       d="m 91.71427,-4.4377953 c -3.31448,2.125427 -6.515695,7.2730819 -4.927846,9.748808 -0.08973,5.2909023 16.083536,9.1685213 21.153506,4.096893 0.45478,-0.295188 2.08339,-2.247573 2.47626,-2.611665 -7.73396,2.871926 -14.639328,-6.02058807 -4.79368,-11.8660266 -5.11664,0.7475729 -14.104547,3.7079132 -11.786431,-0.5494526 -0.471315,0.2022948 -1.68525,0.9020121 -2.121809,1.1814432 z"
       sodipodi:nodetypes="ccccccc"
       inkscape:label="fins" />
  </g>
  <g
     inkscape:groupmode="layer"
     id="g12"
     inkscape:label="tail_2_up"
     style="display:none">
    <path
       id="path11"
       style="fill:#666666;fill-rule:evenodd;stroke:#000000;stroke-width:0.5;stroke-linecap:square"
       d="m -5.8009634,-0.24300587 c 3.2555832,2.81406727 3.8687326,6.70713197 3.3431909,9.95317767 1.2678096,8.61e-5 6.597523,0.1367684 8.881046,0.1557066 C 38.920962,2.8551828 64.418319,6.7467404 87.044853,9.5106218 L 90.833167,7.2559681 86.846301,5.1408219 C 39.638033,-10.007431 29.82972,-4.8413001 8.4116899,-1.8665615 3.2563975,-3.9502008 -2.8637984,-5.1521213 -5.8009634,-0.24300587 Z"
       sodipodi:nodetypes="cccccccc"
       inkscape:label="tail" />
    <path
       id="path12"
       style="fill:#666666;fill-opacity:1;fill-rule:evenodd;stroke:#000000;stroke-width:0.5;stroke-linecap:square;stroke-dasharray:none"
       d="m 98.239422,1.3905322 c -3.915344,-0.41628783 -9.633582,1.595647 -9.944309,4.5203577 -3.380915,4.0707637 6.807741,17.2161711 13.936037,16.4329611 0.53945,0.05434 3.03153,-0.449374 3.56581,-0.487518 C 97.967267,19.256708 98.145797,7.9993087 109.48336,9.6010344 105.02456,6.9822674 96.161461,3.6669138 100.63376,1.7967833 100.13954,1.6596356 98.754801,1.445764 98.239422,1.3905322 Z"
       sodipodi:nodetypes="ccccccc"
       inkscape:label="fins" />
  </g>
</svg>
