<?xml version="1.0" encoding="UTF-8" standalone="no"?>
<!-- Created with Inkscape (http://www.inkscape.org/) -->

<svg
   width="400"
   height="50"
   viewBox="0 0 400 50"
   version="1.1"
   id="svg1"
   xmlns="http://www.w3.org/2000/svg"
   xmlns:svg="http://www.w3.org/2000/svg">
  <defs
     id="defs1" />
  <g
     id="layer1"
     style="display:inline">
    <rect
       style="fill:#b3b3b3;stroke:#000000;stroke-width:0.980393;stroke-linecap:square;stroke-dasharray:none;stroke-opacity:1"
       id="rect1"
       width="49.019608"
       height="49.019608"
       x="0.4901965"
       y="0.4901965" />
    <rect
       style="fill:#b3b3b3;stroke:#000000;stroke-width:0.980393;stroke-linecap:square;stroke-dasharray:none;stroke-opacity:1"
       id="rect2"
       width="49.019608"
       height="49.019608"
       x="50.490196"
       y="0.4901965" />
    <rect
       style="fill:#b3b3b3;stroke:#000000;stroke-width:0.980393;stroke-linecap:square;stroke-dasharray:none;stroke-opacity:1"
       id="rect3"
       width="49.019608"
       height="49.019608"
       x="100.4902"
       y="0.4901965" />
    <rect
       style="fill:#b3b3b3;stroke:#000000;stroke-width:0.980393;stroke-linecap:square;stroke-dasharray:none;stroke-opacity:1"
       id="rect4"
       width="49.019608"
       height="49.019608"
       x="150.4902"
       y="0.4901965" />
    <rect
       style="fill:#b3b3b3;stroke:#000000;stroke-width:0.980393;stroke-linecap:square;stroke-dasharray:none;stroke-opacity:1"
       id="rect5"
       width="49.019608"
       height="49.019608"
       x="200.4902"
       y="0.4901965" />
    <rect
       style="fill:#b3b3b3;stroke:#000000;stroke-width:0.980393;stroke-linecap:square;stroke-dasharray:none;stroke-opacity:1"
       id="rect6"
       width="49.019608"
       height="49.019608"
       x="250.4902"
       y="0.4901965" />
    <rect
       style="fill:#b3b3b3;stroke:#000000;stroke-width:0.980393;stroke-linecap:square;stroke-dasharray:none;stroke-opacity:1"
       id="rect7"
       width="49.019608"
       height="49.019608"
       x="300.4902"
       y="0.4901965" />
    <rect
       style="fill:#b3b3b3;stroke:#000000;stroke-width:0.980393;stroke-linecap:square;stroke-dasharray:none;stroke-opacity:1"
       id="rect8"
       width="49.019608"
       height="49.019608"
       x="350.4902"
       y="0.4901965" />
    <rect
       style="fill:#ffffff;fill-opacity:0.381743;fill-rule:evenodd;stroke-width:0.3;stroke-linecap:square"
       id="rect9"
       width="3.7049561"
       height="7.0620117"
       x="220.7121"
       y="192.19287" />
  </g>
  <g
     id="g55"
     style="display:inline">
    <path
       style="display:inline;fill:#5d6c53;fill-opacity:1;stroke:none;stroke-width:0.801473px;stroke-linecap:butt;stroke-linejoin:miter;stroke-opacity:1"
       d="M 73.420744,12.388592 C 72.024313,11.668539 69.962,12.04554 68.686359,12.655157 c 1.459938,2.809061 4.634066,5.33493 5.760551,3.731481 -2.128382,-2.992657 1.052589,-1.664946 0.315231,-2.545021 -0.359728,-0.429353 -1.50531,-0.556114 -1.341397,-1.453025 z"
       id="path65" />
    <path
       style="fill:#5d6c53;fill-opacity:1;stroke:none;stroke-width:0.801473px;stroke-linecap:butt;stroke-linejoin:miter;stroke-opacity:1"
       d="m 123.43431,12.38859 c -1.39643,-0.72005 -3.45874,-0.34305 -4.73438,0.26657 1.45994,2.80906 4.63407,5.33493 5.76055,3.73148 -2.12838,-2.99266 1.05259,-1.66495 0.31523,-2.54502 -0.35973,-0.42936 -1.50531,-0.55612 -1.3414,-1.45303 z"
       id="path72" />
    <path
       style="fill:#5d6c53;fill-opacity:1;stroke:none;stroke-width:0.801473px;stroke-linecap:butt;stroke-linejoin:miter;stroke-opacity:1"
       d="m 173.65183,12.38859 c -1.39643,-0.72005 -3.45874,-0.34305 -4.73438,0.26657 1.45994,2.80906 4.63407,5.33493 5.76055,3.73148 -2.12838,-2.99266 1.05259,-1.66495 0.31523,-2.54502 -0.35973,-0.42936 -1.50531,-0.55612 -1.3414,-1.45303 z"
       id="path79" />
    <path
       style="fill:#5d6c53;fill-opacity:1;stroke:none;stroke-width:0.801473px;stroke-linecap:butt;stroke-linejoin:miter;stroke-opacity:1"
       d="m 223.80834,12.38859 c -1.39644,-0.72005 -3.45875,-0.34305 -4.73439,0.26657 1.45994,2.80906 4.63407,5.33493 5.76055,3.73148 -2.12838,-2.99266 1.05259,-1.66495 0.31523,-2.54502 -0.35973,-0.42936 -1.50531,-0.55612 -1.34139,-1.45303 z"
       id="path86" />
    <path
       style="fill:#333333;fill-opacity:1;stroke:none;stroke-width:1px;stroke-linecap:butt;stroke-linejoin:miter;stroke-opacity:1"
       d="m 275.4364,36.7932 -0.003,6.05131 c 0.43877,1.00982 0.74194,0.85105 1.5534,1.47571 l 0.0866,0.45349 c -0.79201,0.11423 -2.00604,0.75281 -1.88496,-0.19534 l -0.24109,0.79837 -0.62397,0.008 -1.42904,-9.34814 z"
       id="path92" />
    <path
       id="path94"
       style="fill:#917c6f;stroke-width:0.3;stroke-linecap:square;stroke-opacity:0.488239"
       d="m 279.422,13.40505 0.80104,0.29676 c -4.07657,10.37904 -7.80415,20.33668 -11.45451,30.20109 -0.42241,0.0904 -0.76779,0.087 -0.80103,-0.29677 z" />
    <path
       style="fill:#5d6c53;fill-opacity:1;stroke:none;stroke-width:0.801473px;stroke-linecap:butt;stroke-linejoin:miter;stroke-opacity:1"
       d="m 273.62602,12.38859 c -1.39643,-0.72005 -3.45874,-0.34305 -4.73438,0.26657 1.45994,2.80906 4.63406,5.33493 5.76055,3.73148 -2.12838,-2.99266 1.05259,-1.66495 0.31523,-2.54502 -0.35973,-0.42936 -1.50531,-0.55612 -1.3414,-1.45303 z"
       id="path93" />
    <path
       style="fill:#333333;fill-opacity:1;stroke:none;stroke-width:1px;stroke-linecap:butt;stroke-linejoin:miter;stroke-opacity:1"
       d="m 312.77831,37.24416 -2.36334,5.57071 c -0.79872,0.75784 -1.57164,0.82141 -2.56275,1.07901 l -0.27938,0.48861 c 0.83821,0.25497 2.93348,0.56557 3.19281,-0.35442 l -0.19081,0.78763 h 0.2525 l 4.58681,-7.27398 z"
       id="path98" />
    <path
       style="fill:#333333;fill-opacity:1;stroke:none;stroke-width:1px;stroke-linecap:butt;stroke-linejoin:miter;stroke-opacity:1"
       d="m 325.28991,36.7932 -0.003,6.05131 c 0.43877,1.00982 0.74195,0.85105 1.5534,1.47571 l 0.0866,0.45349 c -0.792,0.11423 -2.00603,0.75281 -1.88496,-0.19534 l -0.24108,0.79837 -0.62398,0.008 -1.42904,-9.34814 z"
       id="path99" />
    <path
       style="fill:#5d6c53;fill-opacity:1;stroke:none;stroke-width:0.801473px;stroke-linecap:butt;stroke-linejoin:miter;stroke-opacity:1"
       d="m 323.47954,12.38859 c -1.39643,-0.72005 -3.45875,-0.34305 -4.73439,0.26657 1.45994,2.80906 4.63407,5.33493 5.76055,3.73148 -2.12838,-2.99266 1.05259,-1.66495 0.31523,-2.54502 -0.35972,-0.42936 -1.50531,-0.55612 -1.34139,-1.45303 z"
       id="path100" />
    <path
       id="path101"
       style="fill:#917c6f;stroke-width:0.3;stroke-linecap:square;stroke-opacity:0.488239"
       d="m 329.27552,13.40505 0.80103,0.29676 c -4.07657,10.37904 -7.80414,20.33668 -11.4545,30.20109 -0.42241,0.0904 -0.7678,0.087 -0.80104,-0.29677 z" />
    <path
       style="fill:#333333;fill-opacity:1;stroke:none;stroke-width:1px;stroke-linecap:butt;stroke-linejoin:miter;stroke-opacity:1"
       d="m 213.1071,37.24416 -2.36334,5.57071 c -0.79872,0.75784 -1.57163,0.82141 -2.56274,1.07901 l -0.27938,0.48861 c 0.83821,0.25497 2.93348,0.56557 3.19281,-0.35442 l -0.19082,0.78763 h 0.2525 l 4.58682,-7.27398 z"
       id="path84" />
    <path
       style="fill:#333333;fill-opacity:1;stroke:none;stroke-width:1px;stroke-linecap:butt;stroke-linejoin:miter;stroke-opacity:1"
       d="m 225.61871,36.7932 -0.003,6.05131 c 0.43877,1.00982 0.74194,0.85105 1.5534,1.47571 l 0.0866,0.45349 c -0.792,0.11423 -2.00603,0.75281 -1.88496,-0.19534 l -0.24109,0.79837 -0.62397,0.008 -1.42904,-9.34814 z"
       id="path85" />
    <path
       id="path87"
       style="fill:#917c6f;stroke-width:0.3;stroke-linecap:square;stroke-opacity:0.488239"
       d="m 229.60432,13.40505 0.80103,0.29676 c -4.07657,10.37904 -7.80414,20.33668 -11.4545,30.20109 -0.42241,0.0904 -0.7678,0.087 -0.80104,-0.29677 z" />
    <path
       style="fill:#333333;fill-opacity:1;stroke:none;stroke-width:1px;stroke-linecap:butt;stroke-linejoin:miter;stroke-opacity:1"
       d="m 162.9506,37.24416 -2.36334,5.57071 c -0.79872,0.75784 -1.57163,0.82141 -2.56274,1.07901 l -0.27938,0.48861 c 0.83821,0.25497 2.93347,0.56557 3.19281,-0.35442 l -0.19082,0.78763 h 0.2525 l 4.58682,-7.27398 z"
       id="path77" />
    <path
       style="fill:#333333;fill-opacity:1;stroke:none;stroke-width:1px;stroke-linecap:butt;stroke-linejoin:miter;stroke-opacity:1"
       d="m 175.46221,36.7932 -0.003,6.05131 c 0.43877,1.00982 0.74194,0.85105 1.5534,1.47571 l 0.0866,0.45349 c -0.79201,0.11423 -2.00603,0.75281 -1.88496,-0.19534 l -0.24109,0.79837 -0.62397,0.008 -1.42904,-9.34814 z"
       id="path78" />
    <path
       id="path80"
       style="fill:#917c6f;stroke-width:0.3;stroke-linecap:square;stroke-opacity:0.488239"
       d="m 179.44781,13.40505 0.80104,0.29676 c -4.07657,10.37904 -7.80415,20.33668 -11.45451,30.20109 -0.42241,0.0904 -0.76779,0.087 -0.80103,-0.29677 z" />
    <path
       style="fill:#333333;fill-opacity:1;stroke:none;stroke-width:1px;stroke-linecap:butt;stroke-linejoin:miter;stroke-opacity:1"
       d="m 112.73308,37.24416 -2.36334,5.57071 c -0.79872,0.75784 -1.57163,0.82141 -2.56274,1.07901 l -0.27938,0.48861 c 0.83821,0.25497 2.93347,0.56557 3.19281,-0.35442 l -0.19082,0.78763 h 0.2525 l 4.58682,-7.27398 z"
       id="path70" />
    <path
       style="fill:#333333;fill-opacity:1;stroke:none;stroke-width:1px;stroke-linecap:butt;stroke-linejoin:miter;stroke-opacity:1"
       d="m 125.24469,36.7932 -0.003,6.05131 c 0.43877,1.00982 0.74194,0.85105 1.5534,1.47571 l 0.0866,0.45349 c -0.79201,0.11423 -2.00603,0.75281 -1.88496,-0.19534 l -0.24109,0.79837 -0.62397,0.008 -1.42904,-9.34814 z"
       id="path71" />
    <path
       id="path73"
       style="fill:#917c6f;stroke-width:0.3;stroke-linecap:square;stroke-opacity:0.488239"
       d="m 129.23029,13.40505 0.80104,0.29676 c -4.07657,10.37904 -7.80415,20.33668 -11.45451,30.20109 -0.42241,0.0904 -0.76779,0.087 -0.80103,-0.29677 z" />
    <path
       style="display:inline;fill:#333333;fill-opacity:1;stroke:none;stroke-width:1px;stroke-linecap:butt;stroke-linejoin:miter;stroke-opacity:1"
       d="m 63.122835,36.547732 -2.766663,6.267143 c -0.798719,0.75783 -1.571633,0.821409 -2.562745,1.079004 l -0.279376,0.488611 c 0.838208,0.25497 2.933473,0.565573 3.192807,-0.354417 l -0.190816,0.787631 h 0.252501 l 4.990135,-7.970411 z"
       id="path63" />
    <path
       style="display:inline;fill:#333333;fill-opacity:1;stroke:none;stroke-width:1px;stroke-linecap:butt;stroke-linejoin:miter;stroke-opacity:1"
       d="m 75.231118,36.793205 -0.0033,6.051302 c 0.438771,1.00982 0.741944,0.851058 1.553403,1.475712 l 0.0866,0.453493 c -0.792007,0.114232 -2.006036,0.752806 -1.884961,-0.195338 l -0.241087,0.798369 -0.623972,0.0077 -1.42904,-9.348147 z"
       id="path64" />
    <path
       id="path66"
       style="display:inline;fill:#917c6f;stroke-width:0.3;stroke-linecap:square;stroke-opacity:0.488239"
       d="m 79.216724,13.405045 0.801035,0.296765 c -4.076572,10.379039 -7.804145,20.336679 -11.454505,30.201088 -0.42241,0.0904 -0.767796,0.08697 -0.801035,-0.296765 z" />
    <path
       style="fill:#333333;fill-opacity:1;stroke:none;stroke-width:1px;stroke-linecap:butt;stroke-linejoin:miter;stroke-opacity:1"
       d="m 15.981373,37.244159 -2.363341,5.570716 c -0.798719,0.75783 -1.571633,0.821409 -2.562745,1.079004 l -0.279376,0.488611 c 0.838208,0.25497 2.933473,0.565573 3.192807,-0.354417 l -0.190816,0.787631 h 0.252501 l 4.586813,-7.273984 z"
       id="path60" />
    <path
       style="fill:#333333;fill-opacity:1;stroke:none;stroke-width:1px;stroke-linecap:butt;stroke-linejoin:miter;stroke-opacity:1"
       d="m 28.492978,36.793205 -0.0033,6.051302 c 0.438771,1.00982 0.741944,0.851058 1.553403,1.475712 l 0.0866,0.453493 c -0.792007,0.114232 -2.006036,0.752806 -1.884961,-0.195338 l -0.241087,0.798369 -0.623972,0.0077 -1.42904,-9.348147 z"
       id="path61" />
    <path
       style="fill:#5d6c53;fill-opacity:1;stroke:none;stroke-width:0.801473px;stroke-linecap:butt;stroke-linejoin:miter;stroke-opacity:1"
       d="m 26.682604,12.388592 c -1.396431,-0.720053 -3.458744,-0.343052 -4.734385,0.266565 1.459938,2.809061 4.634066,5.33493 5.760551,3.731481 -2.128382,-2.992657 1.052589,-1.664946 0.315231,-2.545021 -0.359728,-0.429353 -1.50531,-0.556114 -1.341397,-1.453025 z"
       id="path59" />
    <path
       id="rect62"
       style="fill:#917c6f;stroke-width:0.3;stroke-linecap:square;stroke-opacity:0.488239"
       d="m 32.478584,13.405045 0.801035,0.296765 c -4.076572,10.379039 -7.804145,20.336679 -11.454505,30.201088 -0.42241,0.0904 -0.767796,0.08697 -0.801035,-0.296765 z" />
    <path
       style="fill:#666666;stroke:none;stroke-width:1px;stroke-linecap:butt;stroke-linejoin:miter;stroke-opacity:1"
       d="m 17.25157,16.502269 c 3.476136,-1.708342 7.493923,-1.675367 12.054104,0.101308 C 33.076477,25.9241 40.898195,32.163572 46.714016,39.928692 30.440745,47.160539 13.364931,33.754656 3.1544197,37.870345 7.8663385,30.760553 14.5995,25.676882 17.25157,16.502269 Z"
       id="path48" />
    <path
       style="fill:#918a6f;fill-opacity:1;stroke:none;stroke-width:0.891942px;stroke-linecap:butt;stroke-linejoin:miter;stroke-opacity:1"
       d="m 36.531242,11.984528 c -0.564173,0.229031 -2.278158,0.49054 -2.342441,1.167085 -0.09134,0.961352 -2.851919,1.323526 -1.918869,-0.33257 0.422695,-0.750253 -1.119285,-0.220546 -1.728089,-1.065079 0.214635,-1.511466 0.263259,-3.56831 2.905217,-5.0893565 0.45199,-0.2602228 0.90857,-0.7588629 2.035939,-1.1119168 -0.07392,0.00349 -0.359868,0.5179487 0.147475,0.7377674 0.05851,-0.022565 0.150888,-0.6912791 1.093422,-0.9380937 0.0063,-0.00109 -0.223412,0.5471469 0.08139,0.5501005 0.315645,-0.094753 0.430816,-0.5041702 0.95459,-0.6853969 -0.163625,0.1269072 0.07145,0.7571993 0.05225,0.6669257 C 37.649095,5.8855237 38.499381,5.0670203 39.085193,5 c -0.661958,0.9363229 -0.245282,2.3822409 -0.63743,3.619138 -0.343166,1.082403 -0.908231,2.196722 -1.916521,3.36539 z"
       id="path62" />
    <path
       style="fill:#333333;fill-opacity:1;stroke:none;stroke-width:0.928645px;stroke-linecap:butt;stroke-linejoin:miter;stroke-opacity:1"
       d="m 20.800467,12.815437 c 1.759237,-0.774166 4.370644,-0.388339 5.989399,0.24993 -6.003939,4.20418 -4.528507,7.54967 -8.54335,7.321264 1.080983,-2.526376 -0.52274,-5.102239 2.553951,-7.571194 z"
       id="path58" />
    <path
       style="display:inline;fill:#666666;stroke:none;stroke-width:1px;stroke-linecap:butt;stroke-linejoin:miter;stroke-opacity:1"
       d="m 63.98971,16.502269 c 4.490682,-2.081795 8.418954,-1.64625 12.054104,0.101308 3.002183,9.251961 11.806605,16.755803 17.71526,25.132092 C 76.167169,44.236176 67.242238,31.800886 50,39.911203 54.700038,32.132311 61.571239,25.774377 63.98971,16.502269 Z"
       id="path49" />
    <path
       style="fill:#666666;stroke:none;stroke-width:1px;stroke-linecap:butt;stroke-linejoin:miter;stroke-opacity:1"
       d="m 114.00328,16.50227 c 4.064,-2.91613 8.07753,-2.59346 12.0541,0.10131 2.43799,10.47887 11.70103,16.89771 17.58285,25.32795 C 119.6606,40.71948 130.64327,32.67708 100,41.18797 c 4.68657,-8.21715 12.53489,-14.51465 14.00328,-24.6857 z"
       id="path50" />
    <path
       style="fill:#666666;stroke:none;stroke-width:1px;stroke-linecap:butt;stroke-linejoin:miter;stroke-opacity:1"
       d="m 164.2208,16.50227 c 4.26513,-2.20135 8.244,-1.81331 12.0541,0.10131 6.24417,8.06878 11.623,16.361 17.39975,24.55048 C 168.98083,32.70554 176.8181,40.4807 150,41.46924 154.82749,33.19588 161.52219,25.9707 164.2208,16.50227 Z"
       id="path51" />
    <path
       style="fill:#666666;stroke:none;stroke-width:1px;stroke-linecap:butt;stroke-linejoin:miter;stroke-opacity:1"
       d="m 214.3773,16.50227 c 4.14468,-2.92895 8.12342,-1.97601 12.05411,0.10131 4.51109,9.37034 11.59019,15.19733 17.48328,22.66079 C 226.2086,32.62465 219.64808,44.98471 200,40.6471 c 4.96103,-7.8882 11.42887,-14.34569 14.3773,-24.14483 z"
       id="path52" />
    <path
       style="fill:#333333;fill-opacity:1;stroke:none;stroke-width:1px;stroke-linecap:butt;stroke-linejoin:miter;stroke-opacity:1"
       d="m 262.92479,37.24416 -2.36334,5.57071 c -0.79872,0.75784 -1.57163,0.82141 -2.56274,1.07901 l -0.27938,0.48861 c 0.83821,0.25497 2.93347,0.56557 3.19281,-0.35442 l -0.19082,0.78763 h 0.2525 l 4.58682,-7.27398 z"
       id="path91" />
    <path
       style="fill:#666666;stroke:none;stroke-width:1px;stroke-linecap:butt;stroke-linejoin:miter;stroke-opacity:1"
       d="m 264.19499,16.50227 c 4.12801,-2.84567 8.12539,-2.271 12.0541,0.10131 3.20641,7.29055 11.55699,14.033 17.62616,21.01853 -13.7565,-3.06712 -24.20562,9.86998 -43.87525,1.40473 5.81986,-6.9673 11.50195,-14.00307 14.19499,-22.52457 z"
       id="path53" />
    <path
       style="fill:#666666;stroke:none;stroke-width:1px;stroke-linecap:butt;stroke-linejoin:miter;stroke-opacity:1"
       d="m 314.0485,16.50227 c 4.12843,-3.11946 8.13133,-2.65339 12.05411,0.10131 2.97361,9.44355 11.73433,13.66798 17.62604,20.47984 -25.33091,4.52979 -14.9344,10.08353 -43.72865,0.041 4.69973,-6.84986 11.08198,-11.29024 14.0485,-20.62215 z"
       id="path54" />
    <path
       style="fill:#333333;fill-opacity:1;stroke:none;stroke-width:1px;stroke-linecap:butt;stroke-linejoin:miter;stroke-opacity:1"
       d="m 362.49139,37.24416 -2.36334,5.57071 c -0.79872,0.75784 -1.57164,0.82141 -2.56275,1.07901 l -0.27937,0.48861 c 0.8382,0.25497 2.93347,0.56557 3.1928,-0.35442 l -0.19081,0.78763 h 0.2525 l 4.58681,-7.27398 z"
       id="path105" />
    <path
       style="fill:#333333;fill-opacity:1;stroke:none;stroke-width:1px;stroke-linecap:butt;stroke-linejoin:miter;stroke-opacity:1"
       d="m 375.00299,36.7932 -0.003,6.05131 c 0.43877,1.00982 0.74195,0.85105 1.55341,1.47571 l 0.0866,0.45349 c -0.79201,0.11423 -2.00604,0.75281 -1.88497,-0.19534 l -0.24108,0.79837 -0.62397,0.008 -1.42904,-9.34814 z"
       id="path106" />
    <path
       style="fill:#5d6c53;fill-opacity:1;stroke:none;stroke-width:0.801473px;stroke-linecap:butt;stroke-linejoin:miter;stroke-opacity:1"
       d="m 373.19262,12.38859 c -1.39643,-0.72005 -3.45875,-0.34305 -4.73439,0.26657 1.45994,2.80906 4.63407,5.33493 5.76056,3.73148 -2.12839,-2.99266 1.05258,-1.66495 0.31523,-2.54502 -0.35973,-0.42936 -1.50531,-0.55612 -1.3414,-1.45303 z"
       id="path107" />
    <path
       id="path108"
       style="fill:#917c6f;stroke-width:0.3;stroke-linecap:square;stroke-opacity:0.488239"
       d="m 378.9886,13.40505 0.80103,0.29676 c -4.07657,10.37904 -7.80414,20.33668 -11.4545,30.20109 -0.42241,0.0904 -0.7678,0.087 -0.80104,-0.29677 z" />
    <path
       style="fill:#666666;stroke:none;stroke-width:1px;stroke-linecap:butt;stroke-linejoin:miter;stroke-opacity:1"
       d="m 363.76159,16.50227 c 3.19428,-1.53893 6.17716,-3.48147 12.0541,0.10131 3.621,8.92521 12.20417,14.22467 18.33135,21.31867 -23.93801,9.18179 -26.10772,0.1017 -44.14704,-1.41758 4.62209,-6.64122 11.05423,-11.92133 13.76159,-20.0024 z"
       id="path55" />
    <ellipse
       style="fill:#666666;fill-opacity:1;stroke:none;stroke-width:0.267583;stroke-linecap:square;stroke-opacity:0.488239"
       id="path56"
       cx="23.828781"
       cy="11.952432"
       rx="4.8148074"
       ry="1.9964764" />
    <path
       style="fill:#5d5d5d;fill-opacity:1;stroke:none;stroke-width:0.891942px;stroke-linecap:butt;stroke-linejoin:miter;stroke-opacity:1"
       d="m 20.800467,11.988073 c 1.759237,0.714178 4.370644,0.358247 5.989399,-0.230564 -1.820276,-2.760457 -4.99542,-4.9677955 -8.54335,-6.7539641 1.202724,2.328176 1.999798,4.6563521 2.553951,6.9845281 z"
       id="path57" />
    <path
       style="display:inline;fill:#918a6f;fill-opacity:1;stroke:none;stroke-width:0.891942px;stroke-linecap:butt;stroke-linejoin:miter;stroke-opacity:1"
       d="m 83.269382,11.984528 c -0.564173,0.229031 -2.278158,0.49054 -2.342441,1.167085 -0.09134,0.961352 -2.851919,1.323526 -1.918869,-0.33257 0.422695,-0.750253 -1.119285,-0.220546 -1.728089,-1.065079 0.214635,-1.511466 0.263259,-3.56831 2.905217,-5.089356 0.45199,-0.260223 0.90857,-0.758863 2.035939,-1.111917 -0.07392,0.0035 -0.359868,0.517948 0.147475,0.737767 0.05851,-0.02257 0.150888,-0.691279 1.093422,-0.938094 0.0063,-0.0011 -0.223412,0.547147 0.08139,0.550101 0.315645,-0.09475 0.430816,-0.50417 0.95459,-0.685397 -0.163625,0.126907 0.07145,0.757199 0.05225,0.666926 C 84.387235,5.885494 85.237521,5.06702 85.823333,5 c -0.661958,0.936323 -0.245282,2.382241 -0.63743,3.619138 -0.343166,1.082403 -0.908231,2.196722 -1.916521,3.36539 z"
       id="path67" />
    <path
       style="display:inline;fill:#333333;fill-opacity:1;stroke:none;stroke-width:0.928645px;stroke-linecap:butt;stroke-linejoin:miter;stroke-opacity:1"
       d="m 67.538607,12.815437 c 1.759237,-0.774166 4.370644,-0.388339 5.989399,0.24993 -6.003939,4.20418 -4.528507,7.54967 -8.54335,7.321264 1.080983,-2.526376 -0.52274,-5.102239 2.553951,-7.571194 z"
       id="path68" />
    <ellipse
       style="display:inline;fill:#666666;fill-opacity:1;stroke:none;stroke-width:0.267583;stroke-linecap:square;stroke-opacity:0.488239"
       id="ellipse68"
       cx="70.566917"
       cy="11.952431"
       rx="4.8148074"
       ry="1.9964764" />
    <path
       style="display:inline;fill:#5d5d5d;fill-opacity:1;stroke:none;stroke-width:0.891942px;stroke-linecap:butt;stroke-linejoin:miter;stroke-opacity:1"
       d="m 67.538607,11.988073 c 1.759237,0.714178 4.370644,0.358247 5.989399,-0.230564 -1.820276,-2.760457 -4.99542,-4.967795 -8.54335,-6.753964 1.202724,2.328176 1.999798,4.656352 2.553951,6.984528 z"
       id="path69" />
    <path
       style="fill:#918a6f;fill-opacity:1;stroke:none;stroke-width:0.891942px;stroke-linecap:butt;stroke-linejoin:miter;stroke-opacity:1"
       d="m 133.28295,11.98453 c -0.56417,0.22903 -2.27816,0.49054 -2.34244,1.16708 -0.0913,0.96136 -2.85192,1.32353 -1.91887,-0.33257 0.4227,-0.75025 -1.11928,-0.22054 -1.72809,-1.06508 0.21464,-1.51146 0.26326,-3.56831 2.90522,-5.08935 0.45199,-0.26022 0.90857,-0.75886 2.03594,-1.11192 -0.0739,0.004 -0.35987,0.51795 0.14747,0.73777 0.0585,-0.0226 0.15089,-0.69128 1.09343,-0.9381 0.006,-0.001 -0.22342,0.54715 0.0814,0.55011 0.31564,-0.0947 0.43081,-0.50417 0.95459,-0.6854 -0.16363,0.12691 0.0714,0.7572 0.0522,0.66692 -0.16303,0.002 0.68725,-0.81697 1.27306,-0.88399 -0.66195,0.93632 -0.24528,2.38224 -0.63743,3.61914 -0.34316,1.0824 -0.90823,2.19672 -1.91652,3.36539 z"
       id="path74" />
    <path
       style="fill:#333333;fill-opacity:1;stroke:none;stroke-width:0.928645px;stroke-linecap:butt;stroke-linejoin:miter;stroke-opacity:1"
       d="m 117.55218,12.81544 c 1.75923,-0.77417 4.37064,-0.38834 5.9894,0.24993 -6.00394,4.20418 -4.52851,7.54967 -8.54335,7.32126 1.08098,-2.52637 -0.52274,-5.10224 2.55395,-7.57119 z"
       id="path75" />
    <ellipse
       style="fill:#666666;fill-opacity:1;stroke:none;stroke-width:0.267583;stroke-linecap:square;stroke-opacity:0.488239"
       id="ellipse75"
       cx="120.58049"
       cy="11.952431"
       rx="4.8148074"
       ry="1.9964764" />
    <path
       style="fill:#5d5d5d;fill-opacity:1;stroke:none;stroke-width:0.891942px;stroke-linecap:butt;stroke-linejoin:miter;stroke-opacity:1"
       d="m 117.55218,11.98807 c 1.75923,0.71418 4.37064,0.35825 5.9894,-0.23056 -1.82028,-2.76046 -4.99542,-4.9678 -8.54335,-6.75396 1.20272,2.32817 1.99979,4.65635 2.55395,6.98452 z"
       id="path76" />
    <path
       style="fill:#918a6f;fill-opacity:1;stroke:none;stroke-width:0.891942px;stroke-linecap:butt;stroke-linejoin:miter;stroke-opacity:1"
       d="m 183.50047,11.98453 c -0.56417,0.22903 -2.27816,0.49054 -2.34244,1.16708 -0.0913,0.96136 -2.85192,1.32353 -1.91887,-0.33257 0.4227,-0.75025 -1.11928,-0.22054 -1.72809,-1.06508 0.21464,-1.51146 0.26326,-3.56831 2.90522,-5.08935 0.45199,-0.26022 0.90857,-0.75886 2.03594,-1.11192 -0.0739,0.004 -0.35987,0.51795 0.14747,0.73777 0.0585,-0.0226 0.15089,-0.69128 1.09343,-0.9381 0.006,-0.001 -0.22342,0.54715 0.0814,0.55011 0.31564,-0.0947 0.43081,-0.50417 0.95459,-0.6854 -0.16363,0.12691 0.0714,0.7572 0.0523,0.66692 -0.16303,0.002 0.68725,-0.81697 1.27306,-0.88399 -0.66195,0.93632 -0.24528,2.38224 -0.63743,3.61914 -0.34316,1.0824 -0.90823,2.19672 -1.91652,3.36539 z"
       id="path81" />
    <path
       style="fill:#333333;fill-opacity:1;stroke:none;stroke-width:0.928645px;stroke-linecap:butt;stroke-linejoin:miter;stroke-opacity:1"
       d="m 167.7697,12.81544 c 1.75923,-0.77417 4.37064,-0.38834 5.9894,0.24993 -6.00394,4.20418 -4.52851,7.54967 -8.54335,7.32126 1.08098,-2.52637 -0.52274,-5.10224 2.55395,-7.57119 z"
       id="path82" />
    <ellipse
       style="fill:#666666;fill-opacity:1;stroke:none;stroke-width:0.267583;stroke-linecap:square;stroke-opacity:0.488239"
       id="ellipse82"
       cx="170.79802"
       cy="11.952423"
       rx="4.8148074"
       ry="1.9964764" />
    <path
       style="fill:#5d5d5d;fill-opacity:1;stroke:none;stroke-width:0.891942px;stroke-linecap:butt;stroke-linejoin:miter;stroke-opacity:1"
       d="m 167.7697,11.98807 c 1.75923,0.71418 4.37064,0.35825 5.9894,-0.23056 -1.82028,-2.76046 -4.99542,-4.9678 -8.54335,-6.75396 1.20272,2.32817 1.99979,4.65635 2.55395,6.98452 z"
       id="path83" />
    <path
       style="fill:#918a6f;fill-opacity:1;stroke:none;stroke-width:0.891942px;stroke-linecap:butt;stroke-linejoin:miter;stroke-opacity:1"
       d="m 233.65697,11.98453 c -0.56417,0.22903 -2.27815,0.49054 -2.34244,1.16708 -0.0913,0.96136 -2.85192,1.32353 -1.91887,-0.33257 0.4227,-0.75025 -1.11928,-0.22054 -1.72809,-1.06508 0.21464,-1.51146 0.26326,-3.56831 2.90522,-5.08935 0.45199,-0.26022 0.90857,-0.75886 2.03594,-1.11192 -0.0739,0.004 -0.35987,0.51795 0.14748,0.73777 0.0585,-0.0226 0.15088,-0.69128 1.09342,-0.9381 0.006,-0.001 -0.22341,0.54715 0.0814,0.55011 0.31564,-0.0947 0.43081,-0.50417 0.95459,-0.6854 -0.16363,0.12691 0.0714,0.7572 0.0522,0.66692 -0.16303,0.002 0.68725,-0.81697 1.27306,-0.88399 -0.66195,0.93632 -0.24528,2.38224 -0.63743,3.61914 -0.34316,1.0824 -0.90823,2.19672 -1.91652,3.36539 z"
       id="path88" />
    <path
       style="fill:#333333;fill-opacity:1;stroke:none;stroke-width:0.928645px;stroke-linecap:butt;stroke-linejoin:miter;stroke-opacity:1"
       d="m 217.9262,12.81544 c 1.75924,-0.77417 4.37064,-0.38834 5.9894,0.24993 -6.00394,4.20418 -4.52851,7.54967 -8.54335,7.32126 1.08098,-2.52637 -0.52274,-5.10224 2.55395,-7.57119 z"
       id="path89" />
    <ellipse
       style="fill:#666666;fill-opacity:1;stroke:none;stroke-width:0.267583;stroke-linecap:square;stroke-opacity:0.488239"
       id="ellipse89"
       cx="220.95451"
       cy="11.952423"
       rx="4.8148074"
       ry="1.9964764" />
    <path
       style="fill:#5d5d5d;fill-opacity:1;stroke:none;stroke-width:0.891942px;stroke-linecap:butt;stroke-linejoin:miter;stroke-opacity:1"
       d="m 217.9262,11.98807 c 1.75924,0.71418 4.37064,0.35825 5.9894,-0.23056 -1.82028,-2.76046 -4.99542,-4.9678 -8.54335,-6.75396 1.20272,2.32817 1.9998,4.65635 2.55395,6.98452 z"
       id="path90" />
    <path
       style="fill:#918a6f;fill-opacity:1;stroke:none;stroke-width:0.891942px;stroke-linecap:butt;stroke-linejoin:miter;stroke-opacity:1"
       d="m 283.47466,11.98453 c -0.56417,0.22903 -2.27816,0.49054 -2.34244,1.16708 -0.0913,0.96136 -2.85192,1.32353 -1.91887,-0.33257 0.4227,-0.75025 -1.11928,-0.22054 -1.72809,-1.06508 0.21464,-1.51146 0.26326,-3.56831 2.90522,-5.08935 0.45199,-0.26022 0.90857,-0.75886 2.03594,-1.11192 -0.0739,0.004 -0.35987,0.51795 0.14747,0.73777 0.0585,-0.0226 0.15089,-0.69128 1.09343,-0.9381 0.006,-0.001 -0.22342,0.54715 0.0814,0.55011 0.31564,-0.0947 0.43081,-0.50417 0.95459,-0.6854 -0.16363,0.12691 0.0714,0.7572 0.0523,0.66692 -0.16304,0.002 0.68725,-0.81697 1.27306,-0.88399 -0.66196,0.93632 -0.24528,2.38224 -0.63743,3.61914 -0.34316,1.0824 -0.90823,2.19672 -1.91652,3.36539 z"
       id="path95" />
    <path
       style="fill:#333333;fill-opacity:1;stroke:none;stroke-width:0.928645px;stroke-linecap:butt;stroke-linejoin:miter;stroke-opacity:1"
       d="m 267.74389,12.81544 c 1.75923,-0.77417 4.37064,-0.38834 5.9894,0.24993 -6.00394,4.20418 -4.52851,7.54967 -8.54335,7.32126 1.08098,-2.52637 -0.52274,-5.10224 2.55395,-7.57119 z"
       id="path96" />
    <ellipse
       style="fill:#666666;fill-opacity:1;stroke:none;stroke-width:0.267583;stroke-linecap:square;stroke-opacity:0.488239"
       id="ellipse96"
       cx="270.77219"
       cy="11.952423"
       rx="4.8148074"
       ry="1.9964764" />
    <path
       style="fill:#5d5d5d;fill-opacity:1;stroke:none;stroke-width:0.891942px;stroke-linecap:butt;stroke-linejoin:miter;stroke-opacity:1"
       d="m 267.74389,11.98807 c 1.75923,0.71418 4.37064,0.35825 5.9894,-0.23056 -1.82028,-2.76046 -4.99542,-4.9678 -8.54335,-6.75396 1.20272,2.32817 1.99979,4.65635 2.55395,6.98452 z"
       id="path97" />
    <path
       style="fill:#918a6f;fill-opacity:1;stroke:none;stroke-width:0.891942px;stroke-linecap:butt;stroke-linejoin:miter;stroke-opacity:1"
       d="m 333.32818,11.98453 c -0.56418,0.22903 -2.27816,0.49054 -2.34245,1.16708 -0.0913,0.96136 -2.85191,1.32353 -1.91886,-0.33257 0.42269,-0.75025 -1.11929,-0.22054 -1.72809,-1.06508 0.21463,-1.51146 0.26326,-3.56831 2.90521,-5.08935 0.45199,-0.26022 0.90857,-0.75886 2.03594,-1.11192 -0.0739,0.004 -0.35987,0.51795 0.14748,0.73777 0.0585,-0.0226 0.15089,-0.69128 1.09342,-0.9381 0.006,-0.001 -0.22341,0.54715 0.0814,0.55011 0.31564,-0.0947 0.43082,-0.50417 0.95459,-0.6854 -0.16363,0.12691 0.0715,0.7572 0.0523,0.66692 -0.16303,0.002 0.68725,-0.81697 1.27307,-0.88399 -0.66196,0.93632 -0.24529,2.38224 -0.63743,3.61914 -0.34317,1.0824 -0.90823,2.19672 -1.91652,3.36539 z"
       id="path102" />
    <path
       style="fill:#333333;fill-opacity:1;stroke:none;stroke-width:0.928645px;stroke-linecap:butt;stroke-linejoin:miter;stroke-opacity:1"
       d="m 317.5974,12.81544 c 1.75924,-0.77417 4.37064,-0.38834 5.9894,0.24993 -6.00394,4.20418 -4.52851,7.54967 -8.54335,7.32126 1.08098,-2.52637 -0.52274,-5.10224 2.55395,-7.57119 z"
       id="path103" />
    <ellipse
       style="fill:#666666;fill-opacity:1;stroke:none;stroke-width:0.267583;stroke-linecap:square;stroke-opacity:0.488239"
       id="ellipse103"
       cx="320.6257"
       cy="11.952423"
       rx="4.8148074"
       ry="1.9964764" />
    <path
       style="fill:#5d5d5d;fill-opacity:1;stroke:none;stroke-width:0.891942px;stroke-linecap:butt;stroke-linejoin:miter;stroke-opacity:1"
       d="m 317.5974,11.98807 c 1.75924,0.71418 4.37064,0.35825 5.9894,-0.23056 -1.82028,-2.76046 -4.99542,-4.9678 -8.54335,-6.75396 1.20272,2.32817 1.9998,4.65635 2.55395,6.98452 z"
       id="path104" />
    <path
       style="fill:#918a6f;fill-opacity:1;stroke:none;stroke-width:0.891942px;stroke-linecap:butt;stroke-linejoin:miter;stroke-opacity:1"
       d="m 383.04126,11.98453 c -0.56418,0.22903 -2.27816,0.49054 -2.34244,1.16708 -0.0913,0.96136 -2.85192,1.32353 -1.91887,-0.33257 0.42269,-0.75025 -1.11929,-0.22054 -1.72809,-1.06508 0.21463,-1.51146 0.26326,-3.56831 2.90522,-5.08935 0.45198,-0.26022 0.90856,-0.75886 2.03593,-1.11192 -0.0739,0.004 -0.35986,0.51795 0.14748,0.73777 0.0585,-0.0226 0.15089,-0.69128 1.09342,-0.9381 0.006,-0.001 -0.22341,0.54715 0.0814,0.55011 0.31565,-0.0947 0.43082,-0.50417 0.95459,-0.6854 -0.16362,0.12691 0.0715,0.7572 0.0523,0.66692 -0.16303,0.002 0.68726,-0.81697 1.27307,-0.88399 -0.66196,0.93632 -0.24528,2.38224 -0.63743,3.61914 -0.34317,1.0824 -0.90823,2.19672 -1.91652,3.36539 z"
       id="path109" />
    <path
       style="fill:#333333;fill-opacity:1;stroke:none;stroke-width:0.928645px;stroke-linecap:butt;stroke-linejoin:miter;stroke-opacity:1"
       d="m 367.31048,12.81544 c 1.75924,-0.77417 4.37065,-0.38834 5.9894,0.24993 -6.00394,4.20418 -4.52851,7.54967 -8.54335,7.32126 1.08098,-2.52637 -0.52274,-5.10224 2.55395,-7.57119 z"
       id="path110" />
    <ellipse
       style="fill:#666666;fill-opacity:1;stroke:none;stroke-width:0.267583;stroke-linecap:square;stroke-opacity:0.488239"
       id="ellipse110"
       cx="370.33881"
       cy="11.952423"
       rx="4.8148074"
       ry="1.9964764" />
    <path
       style="fill:#5d5d5d;fill-opacity:1;stroke:none;stroke-width:0.891942px;stroke-linecap:butt;stroke-linejoin:miter;stroke-opacity:1"
       d="m 367.31048,11.98807 c 1.75924,0.71418 4.37065,0.35825 5.9894,-0.23056 -1.82028,-2.76046 -4.99542,-4.9678 -8.54335,-6.75396 1.20272,2.32817 1.9998,4.65635 2.55395,6.98452 z"
       id="path111" />
  </g>
</svg>
