<?xml version="1.0" encoding="UTF-8" standalone="no"?>

<svg
   width="100"
   height="100"
   viewBox="-25 -25 50 50"
   version="1.1"
   id="rotating_gear"
   xmlns:xlink="http://www.w3.org/1999/xlink"
   xmlns="http://www.w3.org/2000/svg"
   xmlns:svg="http://www.w3.org/2000/svg">

  <defs
     id="defs1">

    <linearGradient
       id="gear_gradient"
       x1="-25"
       y1="0"
       x2="25"
       y2="0"
       gradientUnits="userSpaceOnUse"
       gradientTransform="rotate(0)"
       >

      <stop
         style="stop-color:#7c6a23;stop-opacity:1;"
         offset="0"
         id="stop2" />
      <stop
         style="stop-color:#e2d294;stop-opacity:1;"
         offset="0.70297951"
         id="stop4" />
      <stop
         style="stop-color:#bda032;stop-opacity:1;"
         offset="1"
         id="stop3" />

      <animateTransform
        attributeName="gradientTransform"
        type="rotate"
        from="0 0 0"
        to="-360 0 0"
        dur="10s"
        repeatCount="indefinite"
      />

    </linearGradient>

  </defs>

  <g id="gear_group">

      <animateTransform
        attributeName="transform"
        type="rotate"
        from="0 0 0"
        to="360 0 0"
        dur="10s"
        repeatCount="indefinite"
      />

    <path
       id="gear_shape"
       style="fill:url(#gear_gradient);fill-opacity:1;stroke:#9e7b1a;stroke-width:0.3;stroke-opacity:1"
       d="m -0.77450484,-24.499951 -0.97472406,2.285335 -0.2051021,1.365339 0.082041,0.880928 -2.5178743,0.400422 -0.193382,-0.863349 -0.6192136,-1.236423 -1.6330045,-1.87124 -1.470876,0.478554 -0.220729,2.472848 0.2265891,1.363387 0.3496505,0.812563 -2.2717522,1.158293 -0.451224,-0.761778 -0.968865,-0.984452 -2.131109,-1.275489 -1.254053,0.910227 0.554752,2.420109 0.638747,1.226658 0.584053,0.664115 -1.8049,1.802874 -0.66414,-0.584029 -1.224753,-0.636769 -2.422161,-0.55473 -0.910263,1.25205 1.27554,2.131025 0.986444,0.968825 0.759856,0.451207 -1.158339,2.2736142 -0.810643,-0.35159 -1.363442,-0.22658 -2.474901,0.2207203 -0.47857,1.4727706 1.871313,1.6329393 1.236474,0.6172355 0.863383,0.1933744 -0.398485,2.5197269 -0.880963,-0.082038 -1.367347,0.205094 -2.283473,0.974685 v 1.54699521 l 2.283473,0.97468509 1.367347,0.2050941 0.880963,-0.082037 0.398485,2.5197269 -0.863383,0.1933744 -1.236474,0.6172355 -1.871313,1.6329393 0.47857,1.4727708 2.474901,0.2207202 1.363442,-0.2265801 0.810643,-0.3515897 1.158339,2.2736141 -0.759856,0.449253 -0.986444,0.970778 -1.27554,2.131027 0.910263,1.252049 2.422161,-0.55473 1.224753,-0.636769 0.66414,-0.58403 1.8049,1.802875 -0.584053,0.664114 -0.638747,1.226659 -0.554752,2.420109 1.254053,0.910227 2.131109,-1.27549 0.968865,-0.984452 0.451224,-0.761778 2.2717525,1.158294 -0.3496505,0.812563 -0.2265891,1.363387 0.220729,2.472848 1.470876,0.478554 1.6330045,-1.87124 0.6192136,-1.236423 0.193382,-0.863349 2.5178743,0.400421 -0.082041,0.878974 0.2051021,1.367294 0.97472406,2.285335 H 0.7745057 l 0.974724,-2.285335 0.2051021,-1.367294 -0.082041,-0.878974 2.5178742,-0.400421 0.1933821,0.863349 0.6192135,1.236423 1.6330045,1.87124 1.470876,-0.478554 0.2207291,-2.472848 -0.2265891,-1.363387 -0.3496505,-0.812563 2.2717524,-1.158294 0.451224,0.761778 0.968865,0.984452 2.13111,1.27549 1.254053,-0.910227 -0.554753,-2.420109 -0.638746,-1.226659 -0.584054,-0.664114 1.804901,-1.802875 0.664139,0.58403 1.224754,0.636769 2.422161,0.55473 0.910263,-1.252049 -1.275541,-2.131027 -0.986445,-0.970778 -0.759856,-0.449253 1.15834,-2.2736144 0.810642,0.3515897 1.363443,0.2265801 2.4749,-0.22072 0.478571,-1.4727708 -1.873267,-1.6329393 -1.23452,-0.6172355 -0.863383,-0.1933744 0.398484,-2.5197269 0.880963,0.082037 1.367348,-0.2050941 2.283472,-0.97468509 V -0.7734984 l -2.283472,-0.9746852 -1.367348,-0.205094 -0.880963,0.082037 -0.398484,-2.5197269 0.863383,-0.1933744 1.23452,-0.6172355 1.873267,-1.6329393 -0.478571,-1.4727706 -2.4749,-0.2207203 -1.363443,0.22658 -0.810642,0.35159 -1.15834,-2.2736134 0.759856,-0.451208 0.986444,-0.968825 1.275541,-2.131025 -0.910263,-1.25205 -2.422161,0.55473 -1.224754,0.636768 -0.664139,0.58403 -1.804901,-1.802874 0.584054,-0.664115 0.638746,-1.226657 0.554753,-2.420109 -1.254053,-0.910227 -2.13111,1.275489 -0.968865,0.984451 -0.451224,0.761778 -2.2717516,-1.158292 0.3496505,-0.812563 0.2265891,-1.363388 -0.2207291,-2.472848 -1.470876,-0.478554 -1.6330045,1.871241 -0.6192135,1.236422 -0.1933821,0.863349 -2.5178742,-0.400422 0.082041,-0.880928 -0.2051021,-1.365339 -0.974724,-2.285335 z M -9.764048e-4,-2.5001948 A 2.500294,2.5001942 0 0 1 2.4993176,-6.1110714e-7 2.500294,2.5001942 0 0 1 -9.764048e-4,2.5001936 2.500294,2.5001942 0 0 1 -2.5012704,-6.1110714e-7 2.500294,2.5001942 0 0 1 -9.764048e-4,-2.5001948 Z"
    />

  </g>
</svg>
