<?xml version="1.0" encoding="UTF-8" standalone="no"?>
<!-- Created with Inkscape (http://www.inkscape.org/) -->

<svg
   width="100"
   height="100"
   viewBox="-60 -60 120 120"
   version="1.1"
   id="svg1"
   inkscape:version="1.3.2 (091e20e, 2023-11-25)"
   sodipodi:docname="glinda.svg"
   xmlns:inkscape="http://www.inkscape.org/namespaces/inkscape"
   xmlns:sodipodi="http://sodipodi.sourceforge.net/DTD/sodipodi-0.dtd"
   xmlns:xlink="http://www.w3.org/1999/xlink"
   xmlns="http://www.w3.org/2000/svg"
   xmlns:svg="http://www.w3.org/2000/svg">
  <sodipodi:namedview
     id="namedview1"
     pagecolor="#ffffff"
     bordercolor="#666666"
     borderopacity="1.0"
     inkscape:showpageshadow="2"
     inkscape:pageopacity="0.0"
     inkscape:pagecheckerboard="0"
     inkscape:deskcolor="#d1d1d1"
     inkscape:document-units="px"
     inkscape:zoom="3.336"
     inkscape:cx="-5.0959233"
     inkscape:cy="5.2458034"
     inkscape:window-width="1647"
     inkscape:window-height="931"
     inkscape:window-x="98"
     inkscape:window-y="112"
     inkscape:window-maximized="0"
     inkscape:current-layer="layer7" />
  <defs
     id="defs1">
    <linearGradient
       id="linearGradient58"
       inkscape:collect="always">
      <stop
         style="stop-color:#f8e5e5;stop-opacity:1;"
         offset="0"
         id="stop58" />
      <stop
         style="stop-color:#f8e5e5;stop-opacity:0;"
         offset="1"
         id="stop59" />
    </linearGradient>
    <radialGradient
       inkscape:collect="always"
       xlink:href="#linearGradient58"
       id="radialGradient59"
       cx="-45.062511"
       cy="22.373722"
       fx="-45.062511"
       fy="22.373722"
       r="56.975586"
       gradientTransform="matrix(0.91852661,-1.1871729,0.94680019,0.73252666,-1.4702119,-28.309314)"
       gradientUnits="userSpaceOnUse" />
    <filter
       inkscape:collect="always"
       style="color-interpolation-filters:sRGB"
       id="filter59"
       x="-0.020193059"
       y="-0.009350832"
       width="1.0403861"
       height="1.0187017">
      <feGaussianBlur
         inkscape:collect="always"
         stdDeviation="0.079744019"
         id="feGaussianBlur59" />
    </filter>
  </defs>



  <g
     inkscape:label="ground"
     inkscape:groupmode="layer"
     id="layer1"
     sodipodi:insensitive="true"
     style="display:none">
    <rect
       style="fill:#b3b3b3;fill-rule:evenodd;stroke-linecap:square"
       id="rect1"
       width="100"
       height="100"
       x="-50"
       y="-50" />
  </g>
  <g
     inkscape:groupmode="layer"
     id="layer5"
     inkscape:label="back"
     style="display:inline">
    <path
       id="rect16"
       style="fill:#e9ddaf;fill-rule:evenodd;stroke:#bca851;stroke-width:0.3;stroke-linecap:square;stroke-dasharray:none;stroke-opacity:1"
       d="m -1.1650556,-28.972463 10.2955809,1.697227 c 0.4228381,1.876186 2.6586957,4.369287 1.1972757,6.449874 -1.0392357,1.372633 -1.4952996,2.926473 -2.1560388,3.904447 -3.6701633,5.432282 -3.0095775,3.42594 -3.8214859,6.986059 -1.0766299,-2.611819 -4.76474755,-3.820839 -5.26045985,-6.763924 -0.56063815,-3.328555 0.72958685,-4.726379 -1.53531535,-5.505926 -2.053212,-0.897352 1.1898143,-5.153008 1.2804433,-6.767757 z"
       sodipodi:nodetypes="cccscscc" />
  </g>
  <g
     inkscape:groupmode="layer"
     id="layer2"
     inkscape:label="figure">
    <path
       style="fill:#ac9393;fill-opacity:1;fill-rule:evenodd;stroke:none;stroke-width:0.5;stroke-linecap:square;stroke-dasharray:none"
       sodipodi:type="inkscape:offset"
       inkscape:radius="0.13843745"
       inkscape:original="M 29.720703 -18.931641 L 27.146484 -18.443359 L 25.501953 -17.314453 C 24.903678 -16.58315 24.471165 -16.021526 23.3125 -14.722656 C 23.142889 -12.460554 20.444347 -12.596548 18.794922 -11.654297 C 17.638475 -10.993664 16.333633 -10.099884 15.095703 -10.148438 C 13.074096 -12.290719 10.70291 -14.081472 9.3808594 -16.931641 L 5.5566406 -18.265625 L 6.1660156 -13.630859 L 14.482422 -6.140625 C 15.332643 -5.7669943 16.020658 -5.9792139 16.640625 -6.4296875 L 16.621094 -6.4921875 L 20.332031 -8.9453125 C 22.673168 -10.760082 23.286062 -11.610047 24.761719 -12.941406 C 27.224985 -13.309943 27.818995 -12.833078 29.546875 -13.126953 C 28.901199 -14.366303 26.747774 -13.154703 25.796875 -14.986328 L 27.378906 -17.583984 C 28.426047 -17.722146 29.15509 -18.080561 29.720703 -18.931641 z "
       xlink:href="#path9"
       id="path54"
       inkscape:href="#path9"
       d="m 29.695312,-19.068359 -2.574218,0.488281 a 0.13845129,0.13845129 0 0 0 -0.05273,0.02344 l -1.644531,1.128907 a 0.13845129,0.13845129 0 0 0 -0.0293,0.02539 c -0.599564,0.732879 -1.028687,1.291044 -2.185547,2.587891 a 0.13845129,0.13845129 0 0 0 -0.03516,0.08203 c -0.04035,0.538128 -0.225335,0.918013 -0.507812,1.216797 -0.282477,0.298784 -0.668137,0.514056 -1.109375,0.693359 -0.882477,0.358606 -1.974641,0.558198 -2.830079,1.046875 -1.147542,0.655547 -2.419789,1.505911 -3.574218,1.486328 -2.02215,-2.132812 -4.351096,-3.908483 -5.6464846,-6.701171 a 0.13845129,0.13845129 0 0 0 -0.080078,-0.07227 l -3.8242188,-1.333984 a 0.13845129,0.13845129 0 0 0 -0.1816406,0.148437 l 0.609375,4.634766 a 0.13845129,0.13845129 0 0 0 0.044922,0.08594 l 8.3164063,7.4902346 a 0.13845129,0.13845129 0 0 0 0.03516,0.023437 c 0.89308,0.3924651 1.654233,0.1622621 2.296875,-0.3046875 a 0.13845129,0.13845129 0 0 0 0.05078,-0.1523437 l 0.01172,0.037109 3.623047,-2.3964844 a 0.13845129,0.13845129 0 0 0 0.0078,-0.00586 c 2.329227,-1.8055375 2.963768,-2.6664645 4.40625,-3.9726565 1.192518,-0.174759 1.938173,-0.151055 2.599609,-0.115234 0.670439,0.03631 1.269711,0.08305 2.148437,-0.06641 a 0.13845129,0.13845129 0 0 0 0.09961,-0.201172 c -0.180258,-0.345999 -0.479153,-0.529325 -0.808594,-0.625 -0.329441,-0.09568 -0.695873,-0.116235 -1.060547,-0.15625 -0.364673,-0.04001 -0.726787,-0.09783 -1.048828,-0.25 -0.303846,-0.143576 -0.57039,-0.380716 -0.789062,-0.769532 l 1.503906,-2.470703 c 1.031406,-0.149164 1.796873,-0.531484 2.36914,-1.392578 a 0.13845129,0.13845129 0 0 0 -0.140625,-0.21289 z" />
    <path
       id="path9"
       style="fill:#f4d7d7;fill-rule:evenodd;stroke:none;stroke-width:0.5;stroke-linecap:square;stroke-dasharray:none"
       inkscape:label="arm"
       d="m 29.720703,-18.931641 -2.574219,0.488282 -1.644531,1.128906 c -0.598275,0.731303 -1.030788,1.292927 -2.189453,2.591797 -0.169611,2.262102 -2.868153,2.126108 -4.517578,3.068359 -1.156447,0.660633 -2.461289,1.554412 -3.699219,1.505859 -2.021607,-2.142282 -4.392793,-3.933034 -5.7148436,-6.783203 l -3.8242188,-1.333984 0.609375,4.634766 8.3164064,7.490234 c 0.850221,0.3736307 1.538236,0.1614111 2.158203,-0.2890625 l -0.01953,-0.0625 3.710937,-2.453125 c 2.341137,-1.8147695 2.954031,-2.6647345 4.429688,-3.9960935 2.463266,-0.368537 3.057276,0.108328 4.785156,-0.185547 -0.645676,-1.23935 -2.799101,-0.02775 -3.75,-1.859375 l 1.582031,-2.597656 c 1.047141,-0.138162 1.776184,-0.496577 2.341797,-1.347657 z" />
    <path
       id="path5"
       style="fill:#f8e5e5;fill-opacity:1;fill-rule:evenodd;stroke:none;stroke-width:0.5;stroke-linecap:square;stroke-dasharray:none"
       d="m 0.31144793,20.210825 c -3.28588253,2.909983 -4.03496483,6.06611 -4.72591423,8.024422 -1.7636923,4.998715 -2.8094144,6.666743 -4.7422452,8.790137 -1.8146775,1.505445 -1.0411525,2.805803 0.1486432,3.58562 2.6295323,1.888319 5.1054785,5.743296 6.4681855,5.561416 0.3701988,-0.282745 -0.1096605,-0.822773 -1.0637884,-2.77934 -0.7961948,-1.632704 -1.0661633,-3.688621 -2.3885237,-5.517148 3.0520666,-4.871864 7.3959152,-9.009158 9.1088025,-14.642543 z"
       sodipodi:nodetypes="cscccsccc"
       inkscape:label="shin" />
    <path
       id="path4"
       style="fill:#e9afaf;fill-rule:evenodd;stroke:none;stroke-width:0.5;stroke-linecap:square;stroke-dasharray:none"
       d="M 4.4661354,0.95072478 -2.9683091,6.156159 c 0.6301876,6.318296 2.75167231,8.517372 3.20131738,13.901478 l 1.64230692,3.410205 c 1.102926,-0.05993 2.1323814,-0.352964 2.308454,-3.353677 C 5.6281875,14.587739 4.9491705,6.5469724 4.4661354,0.95072478 Z"
       sodipodi:nodetypes="cccccc"
       inkscape:label="thigh" />
    <path
       id="rect3"
       style="display:inline;fill:#f4d7d7;fill-rule:evenodd;stroke:none;stroke-width:0.5;stroke-linecap:square;stroke-dasharray:none"
       d="M -6.4436985,2.4214281 -0.87465358,5.6725485 1.8655022,23.745239 -0.30895878,25.979563 -3.1467715,23.680435 -9.5461863,5.1097865 Z"
       sodipodi:nodetypes="ccccccc"
       inkscape:label="thigh" />
    <path
       id="path3"
       style="display:inline;fill:#f8e5e5;fill-opacity:1;fill-rule:evenodd;stroke:none;stroke-width:0.5;stroke-linecap:square;stroke-dasharray:none"
       d="m 0.38655974,22.984744 -3.35482414,1.186913 c -3.516576,5.245921 -0.6599991,9.478108 -3.7200032,14.068667 -0.3010187,0.347257 -0.6503465,0.576236 -0.9351448,0.929997 -0.8705644,1.081368 -0.8707907,2.141754 0.073688,3.167407 0.8111949,1.335028 1.1970647,1.949749 1.6972484,3.043627 0.3940796,1.02214 2.0884812,0.67538 2.9362457,0.878603 0.4411837,-0.0282 0.726451,-0.134345 0.4011408,-0.545759 -1.3805421,-2.081701 -1.5629782,-4.032253 -2.1333867,-6.512657 L 1.3967118,27.447584 C 2.146117,26.00746 2.4179571,24.822652 2.0409104,23.984752 Z"
       sodipodi:nodetypes="cccscccccccc"
       inkscape:label="shin" />
    <path
       id="path2"
       style="fill:#f4d7d7;fill-rule:evenodd;stroke:none;stroke-width:0.5;stroke-linecap:square;stroke-dasharray:none;stroke-opacity:1"
       d="M -9.406011,5.5437453 -3.9495621,5.3181811 -0.13525533,9.2354343 0.74518046,8.6570408 1.874813,9.0124097 4.2744364,5.5993462 C 4.774501,3.6470264 5.8578188,1.52833 5.0278917,-0.0446014 L -6.5813618,-1.3549174 C -9.7668223,1.0533451 -10.313183,3.3963422 -9.406011,5.5437453 Z"
       sodipodi:nodetypes="ccccccccc"
       inkscape:label="pelvis" />
    <path
       style="fill:#ac9393;fill-opacity:1;fill-rule:evenodd;stroke:none;stroke-width:0.5;stroke-linecap:square;stroke-dasharray:none;stroke-opacity:1"
       sodipodi:type="inkscape:offset"
       inkscape:radius="0.15399924"
       inkscape:original="M 5.9902344 -23.048828 L 0.90625 -21.554688 C 0.18867482 -16.799761 -2.8916922 -17.210225 -5.1269531 -16.658203 C -7.0281479 -16.080676 -6.7627197 -13.083321 -6.1210938 -12.042969 L -4.6621094 -7.2929688 C -3.1215111 -4.2362149 -5.3888669 -3.1382403 -6.5195312 -1.4550781 L -3.5800781 1.3632812 L 1.0761719 6.3164062 L 5.0273438 0.65820312 C 4.6328656 -2.6720104 6.8745745 -3.4868117 7.0332031 -6.6835938 C 8.1240334 -6.7524942 9.2908055 -6.9285165 10.291016 -7.8183594 C 10.348798 -11.881906 8.0096371 -12.422545 9.1347656 -16.314453 C 9.3339659 -18.452696 8.1869181 -18.901619 6.6699219 -18.886719 C 3.7305889 -17.741664 3.4295644 -19.132822 5.9902344 -23.048828 z "
       xlink:href="#rect2"
       id="path50"
       inkscape:href="#rect2"
       d="m 5.9472656,-23.197266 -5.08398435,1.494141 a 0.15401464,0.15401464 0 0 0 -0.109375,0.125 c -0.35383779,2.344664 -1.2643581,3.369227 -2.36328125,3.910156 -1.0989232,0.540929 -2.4124471,0.577287 -3.5546875,0.859375 a 0.15401464,0.15401464 0 0 0 -0.00781,0.0039 c -0.5116988,0.155439 -0.8859993,0.47972 -1.1347656,0.884765 -0.2487663,0.405045 -0.3766364,0.887865 -0.4238281,1.380859 -0.093013,0.971671 0.1231162,1.973894 0.4648437,2.546875 l 1.4570313,4.7441411 a 0.15401464,0.15401464 0 0 0 0.00977,0.023437 c 0.7532974,1.4946432 0.5742254,2.4529102 0.078125,3.2871094 -0.4961005,0.8341992 -1.3425231,1.5282177 -1.9257813,2.3964844 a 0.15401464,0.15401464 0 0 0 0.019531,0.1972656 l 2.9375,2.8144531 4.65429685,4.9511719 A 0.15401464,0.15401464 0 0 0 1.203125,6.4042969 L 5.1542969,0.74609375 A 0.15401464,0.15401464 0 0 0 5.1796875,0.640625 c -0.1930579,-1.6298084 0.2511987,-2.6187065 0.7792969,-3.6328125 0.5122662,-0.983704 1.1016008,-1.9984147 1.2109375,-3.5488281 1.0667116,-0.075848 2.2246203,-0.2742011 3.2226561,-1.1621094 a 0.15401464,0.15401464 0 0 0 0.05274,-0.1132812 c 0.02931,-2.0614091 -0.5549243,-3.2487758 -0.9882817,-4.3691408 -0.4333575,-1.120365 -0.7279559,-2.169166 -0.1738282,-4.085937 a 0.15401464,0.15401464 0 0 0 0.00586,-0.0293 c 0.1022247,-1.097294 -0.1470109,-1.808456 -0.6445312,-2.22461 -0.4975204,-0.416154 -1.2024953,-0.523228 -1.9765626,-0.515625 a 0.15401464,0.15401464 0 0 0 -0.054687,0.01172 c -0.7241763,0.282112 -1.2805009,0.400328 -1.6386718,0.373047 -0.1790855,-0.01364 -0.3031358,-0.06131 -0.3886719,-0.130859 -0.085536,-0.06955 -0.1403522,-0.163276 -0.1660156,-0.308594 -0.051327,-0.290637 0.043816,-0.779327 0.3242187,-1.429688 0.2804029,-0.650361 0.7378752,-1.465104 1.375,-2.439453 a 0.15401464,0.15401464 0 0 0 -0.171875,-0.232422 z" />
    <path
       id="rect2"
       style="fill:#f4d7d7;fill-rule:evenodd;stroke:none;stroke-width:0.5;stroke-linecap:square;stroke-dasharray:none;stroke-opacity:1"
       d="m -6.1210567,-12.043918 c -0.6416259,-1.040352 -0.9080327,-4.037328 0.9931621,-4.614855 2.2352609,-0.552022 5.31624153,-0.140049 6.03381671,-4.894976 l 5.08366599,-1.495038 c -2.56067,3.916006 -2.2591386,5.307393 0.6801944,4.162338 1.5169962,-0.0149 2.6651562,0.432944 2.4659559,2.571187 -1.1251285,3.891908 1.2133986,4.434321 1.1556166,8.4978681 -1.0002101,0.8898429 -2.1682671,1.0653855 -3.2590974,1.134286 -0.1586286,3.196782 -2.3999182,4.0119621 -2.0054401,7.34217559 L 1.0767075,6.316983 -3.5809103,1.3631802 -6.5196065,-1.4548581 c 1.1306644,-1.6831622 3.397612,-2.7820356 1.8570137,-5.8387894 z"
       sodipodi:nodetypes="cccccccccccccc"
       inkscape:label="torso" />
    <path
       id="path51"
       style="fill:#ac9393;fill-rule:evenodd;stroke-width:0.5;stroke-linecap:square"
       d="m -5.0410156,-16.912109 c -0.8238564,-0.0031 -1.498592,0.229194 -2.1542969,0.648437 -0.6557049,0.419244 -1.2967121,1.022292 -2.0800781,1.773438 -1.5667324,1.50229 -3.7092244,3.605527 -7.6542964,6.0507809 a 0.14038244,0.14038244 0 0 0 -0.06445,0.097656 l -0.412109,2.6191407 a 0.14038244,0.14038244 0 0 0 0.126953,0.1621093 l 2.822266,0.2480469 a 0.14038244,0.14038244 0 0 0 0.08984,-0.023437 c 1.589819,-1.0540337 3.513149,-2.6698112 5.2207036,-3.9765625 0.8537774,-0.6533756 1.6520912,-1.2303473 2.3222657,-1.6171883 0.6701744,-0.38684 1.2160483,-0.564809 1.5019531,-0.496093 a 0.14038244,0.14038244 0 0 0 0.15625,-0.06836 l 2.2519531,-4.09375 a 0.14038244,0.14038244 0 0 0 -0.054687,-0.191406 l -2.0039062,-1.115234 a 0.14038244,0.14038244 0 0 0 -0.068359,-0.01758 z" />
    <path
       id="path6"
       style="fill:#f4d7d7;fill-rule:evenodd;stroke:none;stroke-width:0.5;stroke-linecap:square;stroke-dasharray:none"
       d="m -3.9101299,-16.747477 1.6283862,1.087769 -2.6313233,4.390629 -0.3762879,-0.292697 c -1.4642969,-0.351937 -6.0003391,4.0169998 -9.1566061,6.1095731 l -2.82157,-0.2498693 0.412522,-2.6174073 c 7.9127972,-4.9045495 8.6224209,-8.4637295 11.8134076,-8.4515735 z"
       sodipodi:nodetypes="ccccccccc"
       inkscape:label="upperarm" />
    <path
       id="path52"
       style="fill:#ac9393;fill-rule:evenodd;stroke-width:0.5;stroke-linecap:square"
       d="m -18.798828,-14.375 -1.228516,0.501953 a 0.14297714,0.14297714 0 0 0 -0.08594,0.162109 l 0.664062,3.128907 c 0.356892,2.8517621 0.798756,3.9502265 1.216797,5.3671873 a 0.14297714,0.14297714 0 0 0 0.0957,0.095703 c 0.904142,0.2754674 1.733274,0.2550783 2.363281,0.1679687 0.315004,-0.043555 0.579805,-0.1041066 0.779297,-0.1523437 0.09975,-0.024119 0.183481,-0.04446 0.246094,-0.058594 0.06261,-0.014134 0.111206,-0.019302 0.105469,-0.019531 a 0.14297714,0.14297714 0 0 0 0.148437,-0.1445313 l -0.03906,-2.8476562 a 0.14297714,0.14297714 0 0 0 -0.02539,-0.080078 l -2.164062,-3.1074218 -1.900391,-2.958985 a 0.14297714,0.14297714 0 0 0 -0.175781,-0.05469 z" />
    <path
       id="path7"
       style="fill:#f4d7d7;fill-rule:evenodd;stroke:none;stroke-width:0.5;stroke-linecap:square;stroke-dasharray:none"
       d="m -14.637115,-5.3235758 0.287029,-0.3581392 0.107976,-2.2867053 -0.547873,-0.4379097 -2.051306,-2.875681 -1.902637,-2.960968 -1.228424,0.503263 0.663375,3.128704 c 0.355962,2.8520545 0.792613,3.9287314 1.213379,5.354927 1.757928,0.5355927 3.227619,-0.076725 3.458481,-0.067491 z"
       sodipodi:nodetypes="cccccccccc"
       inkscape:label="arm" />
    <path
       id="path56"
       style="fill:#ac9393;fill-rule:evenodd;stroke-width:0.5;stroke-linecap:square"
       d="m 0.09765625,-10.003906 a 0.12368458,0.12368458 0 0 0 -0.15429687,0.046875 l -1.91796878,2.9902344 a 0.12368458,0.12368458 0 0 0 -0.019531,0.068359 c 0.01629,0.9078464 0.5408686,1.6409345 1.23828123,2.1269531 0.69741259,0.4860187 1.56997579,0.7358952 2.32617187,0.6914063 a 0.12368458,0.12368458 0 0 0 0.00586,0 C 2.4805838,-4.184012 3.3603233,-4.6545276 3.9316406,-5.3554687 4.5029579,-6.0564099 4.7611112,-6.9984898 4.4042969,-8.0039063 a 0.12368458,0.12368458 0 0 0 -0.066406,-0.072266 z" />
    <path
       id="path10"
       style="fill:#f4d7d7;fill-opacity:1;fill-rule:evenodd;stroke:none;stroke-width:0.5;stroke-linecap:square"
       d="m 4.2878996,-7.9628443 c 0.6851405,1.93056 -0.9835217,3.5599461 -2.7256483,3.7601491 -1.44576435,0.085058 -3.4029706,-0.975498 -3.4338867,-2.6985061 l 0.2932302,-1.3808387 1.63041672,-1.918232 3.10657058,1.0880103 z"
       sodipodi:nodetypes="ccccccc"
       inkscape:label="breast" />
    <path
       id="rect11"
       style="fill:#e6e6e6;fill-rule:evenodd;stroke:none;stroke-width:0.5;stroke-linecap:square"
       d="m -27.248246,-32.847278 c 0.113237,-1.171269 -0.201453,-1.421957 0.835372,-0.768448 l 14.745851,27.9196513 c 0.0048,0.6088039 0.164429,0.8650588 -0.702454,0.4495855 z"
       sodipodi:nodetypes="ccccc"
       inkscape:label="wand" />
    <path
       style="fill:#ac9393;fill-opacity:1;fill-rule:evenodd;stroke:none;stroke-width:0.378552;stroke-linecap:square;stroke-dasharray:none"
       sodipodi:type="inkscape:offset"
       inkscape:radius="0.1133132"
       inkscape:original="M -19.355469 -17.603516 L -20.378906 -16.556641 L -20.455078 -14.056641 L -19.134766 -13.023438 L -17.707031 -12.46875 L -15.720703 -12.425781 C -16.087673 -12.645406 -16.163996 -12.902646 -17.390625 -13.003906 L -18.5 -13.792969 L -18.566406 -14.257812 L -16.818359 -13.859375 C -16.155238 -13.481066 -15.490802 -13.09254 -14.875 -13.283203 L -16.667969 -14.708984 L -18.492188 -15.324219 L -17.53125 -15.757812 L -16.619141 -15.529297 L -15.597656 -14.238281 L -16.115234 -16.208984 L -16.996094 -16.490234 L -18.814453 -16.554688 L -19.355469 -17.603516 z "
       xlink:href="#path11"
       id="path53"
       inkscape:href="#path11"
       d="m -19.337891,-17.714844 a 0.11332453,0.11332453 0 0 0 -0.09766,0.03125 l -1.023437,1.046875 a 0.11332453,0.11332453 0 0 0 -0.0332,0.07617 l -0.07617,2.5 a 0.11332453,0.11332453 0 0 0 0.04297,0.09375 l 1.320313,1.033203 a 0.11332453,0.11332453 0 0 0 0.0293,0.01563 l 1.427734,0.554688 a 0.11332453,0.11332453 0 0 0 0.03906,0.0078 l 1.986328,0.04297 a 0.11332453,0.11332453 0 0 0 0.06055,-0.210938 c -0.335683,-0.2009 -0.481539,-0.484413 -1.685547,-0.589843 l -1.046875,-0.744141 -0.03711,-0.251953 1.576172,0.359375 c 0.324806,0.185399 0.653916,0.375078 0.986328,0.498047 0.339153,0.125462 0.687671,0.18134 1.027344,0.07617 a 0.11332453,0.11332453 0 0 0 0.03711,-0.195313 l -1.792968,-1.425781 a 0.11332453,0.11332453 0 0 0 -0.0332,-0.01953 l -1.550782,-0.523438 0.660157,-0.298828 0.83789,0.208984 0.998047,1.261719 a 0.11332453,0.11332453 0 0 0 0.197266,-0.09961 l -0.517578,-1.970703 a 0.11332453,0.11332453 0 0 0 -0.07422,-0.07813 l -0.880859,-0.28125 a 0.11332453,0.11332453 0 0 0 -0.03125,-0.0059 l -1.751954,-0.0625 -0.509765,-0.990234 a 0.11332453,0.11332453 0 0 0 -0.08398,-0.05859 z" />
    <path
       id="path11"
       style="fill:#f4d7d7;fill-rule:evenodd;stroke:none;stroke-width:0.378552;stroke-linecap:square;stroke-dasharray:none"
       d="m -14.875355,-13.282504 -1.792089,-1.425803 -1.824392,-0.616168 0.960034,-0.432458 0.913479,0.227832 1.020734,1.291228 -0.517002,-1.971155 -0.881593,-0.281376 -1.81857,-0.06519 -0.541343,-1.048495 -1.022602,1.047991 -0.07641,2.500353 1.320578,1.03152 1.426982,0.55636 1.986766,0.04192 c -0.36697,-0.219625 -0.443188,-0.477556 -1.669817,-0.578816 l -1.109507,-0.787766 -0.06716,-0.464594 1.748945,0.397484 c 0.663121,0.378309 1.327172,0.767793 1.942974,0.57713 z"
       sodipodi:nodetypes="cccccccccccccccccccc"
       inkscape:label="hand" />
    <path
       sodipodi:type="star"
       style="fill:#e6e6e6;fill-rule:evenodd;stroke:none;stroke-width:0.5;stroke-linecap:square;stroke-dasharray:none;stroke-opacity:1"
       id="path12"
       inkscape:flatsided="false"
       sodipodi:sides="8"
       sodipodi:cx="-39.173512"
       sodipodi:cy="-42.20578"
       sodipodi:r1="16.059195"
       sodipodi:r2="3.2118387"
       sodipodi:arg1="1.7753555"
       sodipodi:arg2="2.1680546"
       inkscape:rounded="0.06"
       inkscape:randomized="0"
       d="m -42.435705,-26.48141 c -0.772515,-0.160266 2.108307,-12.624867 1.455928,-13.068563 -0.65238,-0.443696 -11.186337,6.81586 -11.619262,6.156283 -0.432926,-0.659577 10.417927,-7.436331 10.270365,-8.211374 -0.147561,-0.775042 -12.729475,-3.090394 -12.569208,-3.862909 0.160267,-0.772516 12.624867,2.108307 13.068563,1.455927 0.443696,-0.65238 -6.815859,-11.186337 -6.156283,-11.619262 0.659577,-0.432925 7.436331,10.417928 8.211374,10.270366 0.775043,-0.147562 3.090394,-12.729475 3.86291,-12.569208 0.772515,0.160266 -2.108307,12.624867 -1.455928,13.068563 0.65238,0.443696 11.186337,-6.81586 11.619262,-6.156283 0.432926,0.659577 -10.417927,7.436331 -10.270365,8.211374 0.147561,0.775042 12.729475,3.090394 12.569208,3.862909 -0.160267,0.772516 -12.624867,-2.108307 -13.068563,-1.455927 -0.443696,0.65238 6.815859,11.186337 6.156283,11.619262 -0.659577,0.432925 -7.436332,-10.417928 -8.211374,-10.270366 -0.775043,0.147562 -3.090394,12.729475 -3.86291,12.569208 z"
       transform="matrix(0.40807213,-0.15592397,0.1543062,0.41235042,-4.8274594,-22.91129)"
       inkscape:label="star" />
  </g>
  <g
     inkscape:groupmode="layer"
     id="g13"
     inkscape:label="dress_front"
     style="display:inline">
    <path
       style="fill:#d35f5f;fill-rule:evenodd;stroke:none;stroke-width:0.5;stroke-linecap:square"
       sodipodi:type="inkscape:offset"
       inkscape:radius="0.38406321"
       inkscape:original="M -8.4550781 -0.2265625 L -20.308594 7.8984375 C -26.665285 13.229343 -29.194144 30.124655 -36.998047 27.111328 C -37.390602 34.194591 -32.774496 37.498987 -28.992188 37.210938 C -21.389886 35.842585 -13.782714 33.062938 -6.2167969 41.671875 C -0.60736071 47.794826 3.1087897 45.680588 6.7421875 43.210938 C 17.228434 43.285744 14.356991 39.83113 14.644531 37.210938 C 12.918213 30.838382 15.614962 23.977464 19.744141 22.953125 C 14.363576 18.583498 11.157456 13.633404 12.9375 7.3535156 C 13.045443 3.7216898 8.5474891 2.381947 5.4003906 0.37109375 L 5.2226562 2.6738281 L 1.0390625 5.1113281 L -3.8984375 3.7480469 L -8.4550781 -0.2265625 z "
       xlink:href="#path13"
       id="path44"
       inkscape:href="#path13"
       d="M -8.671875,-0.54296875 -20.525391,7.5820312 a 0.38410162,0.38410162 0 0 0 -0.0293,0.021484 c -3.312196,2.7777034 -5.507532,8.3648104 -7.894532,12.8496094 -1.193499,2.242399 -2.431554,4.204343 -3.794922,5.386719 -1.363367,1.182375 -2.783267,1.621441 -4.615234,0.914062 a 0.38410162,0.38410162 0 0 0 -0.521484,0.335938 c -0.402125,7.25594 4.390314,10.81064 8.417968,10.503906 a 0.38410162,0.38410162 0 0 0 0.03906,-0.0039 c 3.823789,-0.688251 7.598397,-1.711388 11.3125,-1.50586 3.714103,0.205529 7.378179,1.600672 11.1054686,5.841797 a 0.38410162,0.38410162 0 0 0 0.00586,0.0059 c 2.8481248,3.108855 5.3004419,4.19171 7.5175781,4.115234 2.1764414,-0.07507 4.0437298,-1.239187 5.8378906,-2.455078 2.5698568,0.01121 4.3649123,-0.18328 5.6132813,-0.548828 1.270022,-0.371889 2.016576,-0.941343 2.388672,-1.640625 0.372095,-0.699283 0.354054,-1.461045 0.287109,-2.173828 -0.06695,-0.712784 -0.182466,-1.399512 -0.11914,-1.976563 a 0.38410162,0.38410162 0 0 0 -0.0098,-0.140625 c -0.840865,-3.103983 -0.601861,-6.340878 0.34375,-8.902344 0.945611,-2.561465 2.5875,-4.414186 4.476562,-4.882812 a 0.38410162,0.38410162 0 0 0 0.150391,-0.671875 C 17.322162,20.490693 15.215907,18.196641 14,15.701172 12.784093,13.205703 12.440338,10.515247 13.306641,7.4589844 a 0.38410162,0.38410162 0 0 0 0.01563,-0.09375 C 13.380985,5.3895797 12.157638,4.011417 10.607422,2.9394531 9.0572059,1.8674893 7.1436239,1.0284384 5.6074219,0.046875 A 0.38410162,0.38410162 0 0 0 5.0175781,0.34179688 L 4.8554687,2.4433594 0.98632813,4.6972656 -3.7109375,3.4003906 -8.203125,-0.515625 a 0.38410162,0.38410162 0 0 0 -0.46875,-0.0273438 z" />
    <path
       id="path13"
       style="fill:#de8787;fill-rule:evenodd;stroke:none;stroke-width:0.5;stroke-linecap:square"
       d="M -20.308424,7.8993507 -8.4542291,-0.22604597 -3.8987046,3.7482209 1.0387131,5.1114821 5.2230313,2.6736699 5.4005129,0.37202904 C 8.5476114,2.3828823 13.044909,3.7213523 12.936966,7.3531781 c -1.780044,6.2798879 1.426912,11.2293769 6.807477,15.5990039 -4.129179,1.024339 -6.82677,7.88607 -5.100452,14.258626 -0.28754,2.620192 2.58389,6.075139 -7.902356,6.000332 -3.6333978,2.46965 -7.34854483,4.583821 -12.957981,-1.53913 -7.565917,-8.608937 -15.173363,-5.829554 -22.775664,-4.461202 -3.782309,0.288049 -8.399387,-3.015305 -8.006832,-10.098568 7.803903,3.013327 10.333727,-13.881984 16.690418,-19.2128893 z"
       sodipodi:nodetypes="cccccccccccccc"
       inkscape:label="skirt"
       sodipodi:insensitive="true" />
    <path
       style="fill:#de8787;fill-opacity:1;fill-rule:evenodd;stroke:none;stroke-width:0.5;stroke-linecap:square"
       sodipodi:type="inkscape:offset"
       inkscape:radius="0.41803408"
       inkscape:original="M -0.56835938 -10.271484 L -1.9980469 -9.2753906 C -2.5997886 -8.4532117 -2.5661231 -7.7241119 -2.3417969 -6.796875 C -2.6713739 -4.4070551 -2.7675571 -3.1854751 -5.6230469 -2.8847656 C -6.2885967 -1.904456 -7.3272002 -1.0842019 -8.3242188 -0.24609375 C -5.2163838 2.4994561 -3.0838831 4.5603007 1.2363281 4.9902344 C 4.0911117 5.0409846 4.3247671 3.4870126 5.3261719 2.4023438 L 5.3085938 0.26171875 C 5.3598033 -0.91479402 4.9000914 -2.017543 6.5078125 -3.4199219 L 7.1171875 -6.4707031 C 10.67503 -6.7802408 11.150138 -7.9367635 11.693359 -10.015625 C 10.141981 -7.1154023 8.3645469 -8.407459 6.5625 -7.5175781 C 6.4940345 -6.1069065 5.5416574 -3.8998109 4.3808594 -3.4414062 C 2.6122514 -3.8844592 3.5186273 -5.9645553 4.125 -7.8828125 C 2.7690625 -8.7944842 2.1737575 -10.128649 -0.56835938 -10.271484 z "
       xlink:href="#path15"
       id="path43"
       inkscape:href="#path15"
       d="m -0.546875,-10.689453 a 0.41807588,0.41807588 0 0 0 -0.25976563,0.07422 l -1.42968747,0.9960934 a 0.41807588,0.41807588 0 0 0 -0.099609,0.097656 c -0.6456589,0.8821844 -0.6289514,1.7743968 -0.4238281,2.6953125 -0.1631516,1.1822512 -0.2870605,2.0253954 -0.625,2.5390625 -0.3409596,0.5182577 -0.911654,0.842097 -2.28125,0.9863281 A 0.41807588,0.41807588 0 0 0 -5.96875,-3.1191406 c -0.6128961,0.9027543 -1.6213613,1.7090612 -2.625,2.55273435 a 0.41807588,0.41807588 0 0 0 -0.00781,0.6328125 C -5.5004091,2.8060534 -3.242396,4.9646233 1.1953125,5.40625 a 0.41807588,0.41807588 0 0 0 0.033203,0.00195 C 2.7319235,5.4349296 3.6545349,5.0092454 4.265625,4.4238281 4.8767151,3.8384109 5.1886132,3.1666801 5.6328125,2.6855469 A 0.41807588,0.41807588 0 0 0 5.7441406,2.3984375 L 5.7265625,0.27929688 v -0.0117188 -0.009766 c 0.024822,-0.63763362 -0.066501,-1.18144317 0.011719,-1.6875 0.079215,-0.5124994 0.2968402,-1.0232464 1.0449219,-1.6757813 a 0.41807588,0.41807588 0 0 0 0.1347656,-0.2324218 l 0.5546875,-2.7753906 c 1.6009641,-0.1769815 2.6690898,-0.5285855 3.3476568,-1.1601563 0.730414,-0.6798286 1.00299,-1.5867928 1.277343,-2.6367188 a 0.41807588,0.41807588 0 0 0 -0.773437,-0.3027347 c -0.732191,1.3687945 -1.389509,1.6521432 -2.1738284,1.7890629 -0.7843194,0.1369197 -1.7514706,0.026586 -2.7734375,0.53125 A 0.41807588,0.41807588 0 0 0 6.1445312,-7.5371094 C 6.1143365,-6.9149738 5.8747174,-6.0441869 5.5078125,-5.3085937 5.1768367,-4.6450336 4.736059,-4.1480251 4.3554687,-3.9316406 4.1357508,-4.0170908 3.9537002,-4.1070731 3.8769531,-4.25 3.77988,-4.4307804 3.7413648,-4.7076661 3.7773438,-5.0683594 c 0.071958,-0.7213866 0.4379543,-1.7127024 0.7460937,-2.6875 A 0.41807588,0.41807588 0 0 0 4.3574219,-8.2304688 C 3.7343039,-8.6494254 3.2504122,-9.2062926 2.5390625,-9.7070313 1.8277128,-10.20777 0.89013517,-10.6146 -0.546875,-10.689453 Z" />
    <path
       id="path15"
       style="fill:#e9afaf;fill-opacity:1;fill-rule:evenodd;stroke:none;stroke-width:0.5;stroke-linecap:square"
       d="m -5.6230846,-2.8843318 c 2.8554898,-0.3007095 2.952037,-1.5221289 3.281614,-3.9119488 -0.2243262,-0.9272369 -0.2580378,-1.6570058 0.3437039,-2.4791847 l 1.42884599,-0.9953217 c 2.74211691,0.142835 3.33769531,1.4762356 4.69363281,2.3879073 -0.6063727,1.9182572 -1.5131128,3.9975877 0.2554952,4.4406406 1.160798,-0.4584046 2.1133644,-2.6637842 2.1818299,-4.0744558 1.8020469,-0.8898809 3.5799408,0.4011156 5.1313188,-2.4991071 -0.543221,2.0788615 -1.018765,3.2355924 -4.5766077,3.5451301 L 6.5072912,-3.4200938 C 4.8995701,-2.0177149 5.3592828,-0.91534233 5.3080732,0.26117044 L 5.3259004,2.4014183 C 4.3244956,3.4860871 4.0910384,5.0412168 1.2362548,4.9904666 -3.0839564,4.5605329 -5.2166642,2.4997996 -8.3244992,-0.24575023 -7.3274807,-1.0838584 -6.2886344,-1.9040222 -5.6230846,-2.8843318 Z"
       sodipodi:nodetypes="ccccccccccccccc"
       inkscape:label="corsette" />
    <path
       style="color:#000000;fill:#d26161;fill-opacity:1;-inkscape-stroke:none"
       d="M -5.8496094,9.3867188 C -13.28622,12.160073 -18.41183,14.923281 -18.822266,18.794922 c -0.692436,6.53174 -0.519516,9.527576 1.317453,13.340769 -1.325834,-3.936948 -1.817503,-10.669624 -0.874503,-14.126644 0.762782,-2.796347 5.146367,-5.306526 12.5297066,-8.6223282 z"
       id="path45"
       sodipodi:nodetypes="cscsc" />
    <path
       style="color:#000000;fill:#d26161;fill-opacity:1;-inkscape-stroke:none"
       d="m -1.2382812,13.080078 c -0.136891,5.321714 0.26668041,7.087249 -0.044016,11.347589 -0.2067399,2.834861 -4.254722,7.919042 -6.8173119,12.140691 l 6.5035592,-9.512102 c 1.06607791,-2.904481 1.05276097,-5.57681 0.3577687,-13.976178 z"
       id="path46"
       sodipodi:nodetypes="csccc" />
    <path
       style="color:#000000;fill:#d26161;fill-opacity:1;-inkscape-stroke:none"
       d="M 6.2942955,9.1601771 C 5.8001623,9.2484911 7.3760147,22.955501 8.3995823,28.172981 9.3981379,33.262967 8.5857124,39.088797 7.0726938,42.597224 7.5812376,42.722886 10.005289,33.518967 8.9648438,28.226562 7.9682051,23.156985 5.8867517,12.063729 6.2942955,9.1601771 Z"
       id="path47"
       sodipodi:nodetypes="cscsc" />
    <path
       style="fill:#000000;fill-opacity:0.0510845;stroke:none;stroke-width:1px;stroke-linecap:butt;stroke-linejoin:miter;stroke-opacity:1"
       d="m -16.780062,35.386125 c 2.515251,0.892757 4.98814,1.787381 6.547358,2.722289 6.1628433,-8.217269 11.571813,-9.810089 8.7090069,-24.166308 -0.6391091,-1.842033 -1.126235,-4.1432821 0.453379,-5.3916046 -1.663128,0.2130222 -3.8314636,0.7094517 -5.1038563,0.7797036 -17.1747726,5.319786 -13.7891726,15.527763 -10.6058876,26.05592 z"
       id="path48"
       sodipodi:nodetypes="cccccc" />
    <path
       style="fill:#1a1a1a;fill-opacity:0.0763;stroke:none;stroke-width:1px;stroke-linecap:butt;stroke-linejoin:miter;stroke-opacity:1"
       d="m 6.9935874,43.143655 c 1.8969964,0.677797 4.1349266,0.704551 7.0992406,-0.655785 2.347133,-3.69965 -0.02202,-6.921851 0.264711,-9.461794 0.762738,-6.756643 2.847323,-9.424405 5.593374,-10.046048 C 15.640511,19.349932 13.518885,16.334088 12.92299,13.204844 12.3786,10.346071 14.00347,6.7406569 12.145326,4.4247545 12.328513,8.7547795 9.4684789,8.9125144 6.1615573,8.4575613 7.0799693,27.815171 12.040934,29.275769 6.9935874,43.143655 Z"
       id="path49"
       sodipodi:nodetypes="ccscsccc" />
  </g>
  <g
     inkscape:groupmode="layer"
     id="layer4"
     inkscape:label="head">
    <path
       style="fill:#ac9393;fill-rule:evenodd;stroke:none;stroke-width:0.460258;stroke-linecap:square;stroke-dasharray:none"
       sodipodi:type="inkscape:offset"
       inkscape:radius="0.1897274"
       inkscape:original="M 2.9804688 -33.851562 C 1.8901212 -33.597441 0.82723044 -33.07328 0.15820312 -32.314453 C -1.1888301 -30.786616 -1.4687528 -26.962044 -1.0742188 -25.226562 C -0.29510867 -21.799405 1.1699715 -20.829862 1.8496094 -20.830078 C 3.4591402 -20.830587 6.76758 -21.218757 8.7695312 -25.464844 C 10.281843 -28.672419 8.9269514 -32.538362 5.96875 -33.765625 C 5.1894373 -34.088938 4.0708163 -34.105684 2.9804688 -33.851562 z "
       xlink:href="#path1"
       id="path41"
       inkscape:href="#path1"
       d="m 4.5957031,-34.216797 c -0.5314361,-0.01312 -1.0981643,0.04916 -1.6582031,0.179688 -1.1199686,0.261024 -2.21558799,0.796568 -2.921875,1.597656 -0.72114028,0.817934 -1.1226464,2.180454 -1.3144531,3.564453 -0.1918067,1.383999 -0.1670329,2.784831 0.039063,3.691406 0.39439601,1.734873 0.96432003,2.860236 1.53710935,3.560547 0.57278932,0.700312 1.14218475,0.982559 1.57226565,0.982422 1.6399512,-5.19e-4 5.0573644,-0.429162 7.0917969,-4.744141 1.5560287,-3.300297 0.169128,-7.283195 -2.9003907,-8.55664 -0.418263,-0.173525 -0.9138763,-0.262274 -1.4453125,-0.275391 z" />
    <path
       id="path1"
       style="fill:#f4d7d7;fill-rule:evenodd;stroke:none;stroke-width:0.460258;stroke-linecap:square;stroke-dasharray:none"
       d="m 8.770332,-25.465085 c -2.0019512,4.246087 -5.3112011,4.634203 -6.9207319,4.634712 -0.6796379,2.16e-4 -2.14419122,-0.968895 -2.9233013,-4.396053 -0.3945341,-1.735481 -0.1152794,-5.559531 1.23175378,-7.087368 1.33805462,-1.517654 4.25110472,-2.098624 5.80973022,-1.451999 2.9582014,1.227263 4.3148612,5.093133 2.8025492,8.300708 z"
       sodipodi:nodetypes="ssssss"
       inkscape:label="head" />
    <g
       id="g40"
       inkscape:label="crown"
       style="display:inline">
      <path
         id="path31"
         style="fill:#e6e6e6;fill-opacity:1;fill-rule:evenodd;stroke:none;stroke-width:0.5;stroke-linecap:square"
         d="m 5.6786558,-44.224141 a 0.41504516,0.41504516 0 0 0 -0.1835937,0.07031 c -0.612712,0.42515 -1.682829,0.63563 -2.6035157,1.083984 -0.4603432,0.224178 -0.8979368,0.527718 -1.1777343,1 -0.172123,0.290534 -0.2441462,0.65145 -0.2636719,1.046875 -0.70597186,-0.41196 -1.39659785,-0.883433 -3.3066406,-1.021484 a 0.41504516,0.41504516 0 0 0 -0.4296875,0.30664 c -0.2643578,0.994545 -0.1555366,1.839942 0.1523437,2.544922 0.3078803,0.704982 0.7903693,1.271481 1.25390626,1.820313 0.92707389,1.097664 1.77428972,2.044222 1.47851563,3.839844 a 0.41504516,0.41504516 0 0 0 0.56835941,0.451171 c 1.2105689,-0.501914 2.5727037,-0.362142 4.0292968,0.150391 1.4565932,0.512534 2.9824406,1.397087 4.453125,2.308594 a 0.41504516,0.41504516 0 0 0 0.6328121,-0.353516 c -0.0011,-0.601325 0.215407,-0.936071 0.63086,-1.263672 0.415451,-0.327599 1.047992,-0.598468 1.755859,-0.888672 1.415733,-0.580405 3.173293,-1.279571 4.001953,-3.142578 a 0.41504516,0.41504516 0 0 0 -0.240234,-0.558593 c -0.713489,-0.253279 -1.522802,-0.492601 -2.638672,-0.462891 0.03422,-0.104267 0.109866,-0.177212 0.136719,-0.289063 0.186659,-0.777501 0.220311,-1.759196 0.263671,-2.613281 a 0.41504516,0.41504516 0 0 0 -0.433593,-0.435547 c -0.895933,0.04208 -1.954844,-0.04027 -2.945313,0.07813 -0.54621,0.06529 -1.0815289,0.215394 -1.5488277,0.486328 -0.00452,-0.225544 -0.00566,-0.453814 -0.060547,-0.65625 -0.1519269,-0.560323 -0.4765704,-1.01273 -0.8535156,-1.396484 -0.7538903,-0.767506 -1.7255017,-1.319087 -2.3105469,-1.970703 a 0.41504516,0.41504516 0 0 0 -0.3613281,-0.134766 z m 0.052734,0.410157 c 1.3059914,1.454597 3.911284,2.206884 2.9375,4.894531 0.9050982,-1.616018 3.2412552,-1.209144 5.1093752,-1.296875 -0.06663,1.312328 -0.123639,2.893464 -0.654297,3.382812 1.435777,-0.17993 2.319642,0.09339 3.167969,0.394532 -1.511484,3.398136 -6.4292825,2.583013 -6.4238285,5.460937 -2.954959,-1.831437 -6.1850422,-3.595135 -8.859375,-2.486328 0.6432278,-3.904978 -3.8691955,-4.506565 -2.8964843,-8.166016 2.34569921,0.169539 2.66390893,0.838747 3.7773437,1.3125 -0.508904,-2.700686 2.3825797,-2.483567 3.8417969,-3.496093 z m 7.3925782,6.980468 c -0.172461,0.02161 -0.357421,0.05436 -0.546875,0.08984 0.213287,-0.628318 0.172931,-1.430075 -0.171875,-2.429687 l -0.0332,-0.09375 -0.09766,-0.0078 c -0.824193,-0.05845 -1.489491,0.0178 -2.007813,0.228516 -0.5183205,0.210713 -0.8873491,0.56323 -1.0917968,1.033203 l -0.048828,0.111328 0.097656,0.07031 c 0.4186916,0.302052 0.6553231,0.566496 0.7656246,0.78711 0.1103022,0.220614 0.1076482,0.395279 0.03711,0.576172 -0.1410766,0.361784 -0.6140515,0.729921 -1.066407,1.109375 l 0.1933594,0.230468 c 0.4427865,-0.371427 0.9595626,-0.736085 1.1523446,-1.230468 0.09639,-0.247192 0.09627,-0.532031 -0.04687,-0.81836 -0.123889,-0.247786 -0.4003688,-0.505652 -0.7441415,-0.77539 0.1785778,-0.359398 0.43928,-0.643244 0.8652345,-0.816407 0.429962,-0.174792 1.032877,-0.23138 1.759766,-0.193359 0.393664,1.216331 0.317733,2.056465 -0.107422,2.626953 l -0.0059,0.0059 -0.0039,0.0098 c -0.695716,1.22537 -1.491686,1.769456 -2.3515635,2.042969 -0.7712922,0.245336 -1.6093326,0.248567 -2.4492187,0.302734 1.1294098,-1.595277 1.007533,-3.882585 -0.5527344,-5.167968 -0.7010633,-0.577552 -1.5978306,-0.844507 -2.4648438,-0.783204 -0.8670131,0.0613 -1.7044949,0.450445 -2.2871093,1.179688 -0.96642309,1.209649 -0.8746584,3.080068 0.3964843,4.052734 1.016758,0.778014 2.5771496,0.687268 3.3554688,-0.398437 0.5901234,-0.823184 0.4996102,-2.075992 -0.4042969,-2.65625 -0.3142057,-0.201703 -0.7029136,-0.280051 -1.0664062,-0.21875 -0.3634937,0.0613 -0.7063754,0.269671 -0.8925782,0.634765 -0.1102639,0.216197 -0.1386697,0.482919 -0.074219,0.726563 0.06445,0.243644 0.2430283,0.472855 0.53125,0.535156 0.1572388,0.03399 0.305766,-0.01589 0.4355469,-0.109375 0.06489,-0.04674 0.1281575,-0.112388 0.1484375,-0.210937 0.02028,-0.09855 -0.02281,-0.209214 -0.099609,-0.285157 l -0.2109375,0.214844 c 0.010607,0.01049 0.01154,0.01179 0.013672,0.01367 0.00412,-0.0058 0.00466,-0.0076 0.00391,-0.0039 -9.615e-4,0.0046 -2.348e-4,0.0071 -0.00391,0.0039 -0.00413,0.0058 -0.011841,0.01564 -0.025391,0.02539 -0.05426,0.03908 -0.1845906,0.06133 -0.1972656,0.05859 -0.1722318,-0.03723 -0.2629887,-0.153344 -0.3066406,-0.318359 -0.04365,-0.165014 -0.019496,-0.372045 0.052734,-0.513672 0.1402378,-0.274969 0.3889765,-0.426242 0.6757812,-0.474609 0.2868047,-0.04837 0.6060989,0.015 0.8535156,0.173828 0.7444973,0.477926 0.8199662,1.536207 0.3222657,2.230469 -0.6715784,0.936809 -2.0375963,1.01511 -2.9277344,0.333984 -1.1284929,-0.863512 -1.2120913,-2.542516 -0.3457031,-3.626953 1.0545509,-1.319956 3.0482981,-1.406256 4.3261718,-0.353516 1.5113325,1.24507 1.5991668,3.554608 0.359375,5.025391 l -0.2304687,0.275391 0.3574219,-0.0293 c 0.920014,-0.07215 1.878262,-0.05679 2.7988281,-0.34961 0.9157971,-0.2913 1.7860071,-0.902786 2.5097661,-2.167968 v -0.002 c 0.123827,-0.16645 0.220949,-0.350619 0.292968,-0.552734 0.227835,0.05901 0.412639,0.0135 0.558594,-0.121094 z" />
      <path
         sodipodi:type="star"
         style="fill:#f9f9f9;fill-opacity:1;fill-rule:evenodd;stroke:none;stroke-width:0.3;stroke-linecap:square;stroke-dasharray:none;stroke-opacity:1"
         id="path38"
         inkscape:flatsided="false"
         sodipodi:sides="8"
         sodipodi:cx="5.286118"
         sodipodi:cy="-45.408707"
         sodipodi:r1="1.3617117"
         sodipodi:r2="0.27234235"
         sodipodi:arg1="1.5798743"
         sodipodi:arg2="1.9725734"
         inkscape:rounded="0.06"
         inkscape:randomized="0"
         d="m 5.2737566,-44.047051 c -0.066896,-6.07e-4 -0.032568,-1.084839 -0.094139,-1.111001 -0.061572,-0.02616 -0.8182027,0.751173 -0.865076,0.70344 -0.046873,-0.04773 0.7440684,-0.790126 0.7190295,-0.852162 -0.025039,-0.06204 -1.1097157,-0.0474 -1.1091084,-0.114294 6.073e-4,-0.0669 1.0848395,-0.03257 1.1110006,-0.09414 0.026161,-0.06157 -0.7511722,-0.818203 -0.7034401,-0.865076 0.047732,-0.04687 0.7901262,0.744068 0.8521626,0.719029 0.062036,-0.02504 0.047398,-1.109716 0.1142939,-1.109108 0.066896,6.07e-4 0.032568,1.084839 0.094139,1.111 0.061572,0.02616 0.8182028,-0.751172 0.8650761,-0.70344 0.046873,0.04773 -0.7440685,0.790126 -0.7190295,0.852163 0.025039,0.06204 1.1097157,0.0474 1.1091084,0.114294 -6.073e-4,0.0669 -1.0848395,0.03257 -1.1110006,0.09414 -0.026161,0.06157 0.7511722,0.818203 0.70344,0.865076 -0.047732,0.04687 -0.7901262,-0.744068 -0.8521626,-0.719029 -0.062036,0.02504 -0.047398,1.109715 -0.1142939,1.109108 z"
         transform="matrix(0.73297296,0,0,0.79204693,9.4228224,-1.1580134)" />
      <path
         sodipodi:type="star"
         style="fill:#f9f9f9;fill-opacity:1;fill-rule:evenodd;stroke:none;stroke-width:0.3;stroke-linecap:square;stroke-dasharray:none;stroke-opacity:1"
         id="path39"
         inkscape:flatsided="false"
         sodipodi:sides="8"
         sodipodi:cx="5.286118"
         sodipodi:cy="-45.408707"
         sodipodi:r1="1.3617117"
         sodipodi:r2="0.27234235"
         sodipodi:arg1="1.5798743"
         sodipodi:arg2="1.9725734"
         inkscape:rounded="0.06"
         inkscape:randomized="0"
         d="m 5.2737566,-44.047051 c -0.066896,-6.07e-4 -0.032568,-1.084839 -0.094139,-1.111001 -0.061572,-0.02616 -0.8182027,0.751173 -0.865076,0.70344 -0.046873,-0.04773 0.7440684,-0.790126 0.7190295,-0.852162 -0.025039,-0.06204 -1.1097157,-0.0474 -1.1091084,-0.114294 6.073e-4,-0.0669 1.0848395,-0.03257 1.1110006,-0.09414 0.026161,-0.06157 -0.7511722,-0.818203 -0.7034401,-0.865076 0.047732,-0.04687 0.7901262,0.744068 0.8521626,0.719029 0.062036,-0.02504 0.047398,-1.109716 0.1142939,-1.109108 0.066896,6.07e-4 0.032568,1.084839 0.094139,1.111 0.061572,0.02616 0.8182028,-0.751172 0.8650761,-0.70344 0.046873,0.04773 -0.7440685,0.790126 -0.7190295,0.852163 0.025039,0.06204 1.1097157,0.0474 1.1091084,0.114294 -6.073e-4,0.0669 -1.0848395,0.03257 -1.1110006,0.09414 -0.026161,0.06157 0.7511722,0.818203 0.70344,0.865076 -0.047732,0.04687 -0.7901262,-0.744068 -0.8521626,-0.719029 -0.062036,0.02504 -0.047398,1.109715 -0.1142939,1.109108 z"
         transform="matrix(0.73052644,0,0,0.79344715,-5.8798656,-5.9578874)" />
      <path
         sodipodi:type="star"
         style="fill:#f9f9f9;fill-opacity:1;fill-rule:evenodd;stroke:none;stroke-width:0.3;stroke-linecap:square;stroke-dasharray:none;stroke-opacity:1"
         id="path40"
         inkscape:flatsided="false"
         sodipodi:sides="8"
         sodipodi:cx="5.286118"
         sodipodi:cy="-45.408707"
         sodipodi:r1="1.3617117"
         sodipodi:r2="0.27234235"
         sodipodi:arg1="1.5798743"
         sodipodi:arg2="1.9725734"
         inkscape:rounded="0.06"
         inkscape:randomized="0"
         d="m 5.2737566,-44.047051 c -0.066896,-6.07e-4 -0.032568,-1.084839 -0.094139,-1.111001 -0.061572,-0.02616 -0.8182027,0.751173 -0.865076,0.70344 -0.046873,-0.04773 0.7440684,-0.790126 0.7190295,-0.852162 -0.025039,-0.06204 -1.1097157,-0.0474 -1.1091084,-0.114294 6.073e-4,-0.0669 1.0848395,-0.03257 1.1110006,-0.09414 0.026161,-0.06157 -0.7511722,-0.818203 -0.7034401,-0.865076 0.047732,-0.04687 0.7901262,0.744068 0.8521626,0.719029 0.062036,-0.02504 0.047398,-1.109716 0.1142939,-1.109108 0.066896,6.07e-4 0.032568,1.084839 0.094139,1.111 0.061572,0.02616 0.8182028,-0.751172 0.8650761,-0.70344 0.046873,0.04773 -0.7440685,0.790126 -0.7190295,0.852163 0.025039,0.06204 1.1097157,0.0474 1.1091084,0.114294 -6.073e-4,0.0669 -1.0848395,0.03257 -1.1110006,0.09414 -0.026161,0.06157 0.7511722,0.818203 0.70344,0.865076 -0.047732,0.04687 -0.7901262,-0.744068 -0.8521626,-0.719029 -0.062036,0.02504 -0.047398,1.109715 -0.1142939,1.109108 z"
         transform="matrix(0.70092668,0,0,0.70235431,2.2033985,-12.221579)" />
      <path
         sodipodi:type="star"
         style="fill:#f9f9f9;fill-opacity:1;fill-rule:evenodd;stroke:none;stroke-width:0.3;stroke-linecap:square;stroke-dasharray:none;stroke-opacity:1"
         id="path37"
         inkscape:flatsided="false"
         sodipodi:sides="8"
         sodipodi:cx="5.286118"
         sodipodi:cy="-45.408707"
         sodipodi:r1="1.3617117"
         sodipodi:r2="0.27234235"
         sodipodi:arg1="1.5798743"
         sodipodi:arg2="1.9725734"
         inkscape:rounded="0.06"
         inkscape:randomized="0"
         d="m 5.2737566,-44.047051 c -0.066896,-6.07e-4 -0.032568,-1.084839 -0.094139,-1.111001 -0.061572,-0.02616 -0.8182027,0.751173 -0.865076,0.70344 -0.046873,-0.04773 0.7440684,-0.790126 0.7190295,-0.852162 -0.025039,-0.06204 -1.1097157,-0.0474 -1.1091084,-0.114294 6.073e-4,-0.0669 1.0848395,-0.03257 1.1110006,-0.09414 0.026161,-0.06157 -0.7511722,-0.818203 -0.7034401,-0.865076 0.047732,-0.04687 0.7901262,0.744068 0.8521626,0.719029 0.062036,-0.02504 0.047398,-1.109716 0.1142939,-1.109108 0.066896,6.07e-4 0.032568,1.084839 0.094139,1.111 0.061572,0.02616 0.8182028,-0.751172 0.8650761,-0.70344 0.046873,0.04773 -0.7440685,0.790126 -0.7190295,0.852163 0.025039,0.06204 1.1097157,0.0474 1.1091084,0.114294 -6.073e-4,0.0669 -1.0848395,0.03257 -1.1110006,0.09414 -0.026161,0.06157 0.7511722,0.818203 0.70344,0.865076 -0.047732,0.04687 -0.7901262,-0.744068 -0.8521626,-0.719029 -0.062036,0.02504 -0.047398,1.109715 -0.1142939,1.109108 z"
         transform="translate(-0.19620177,5.6800643)" />
    </g>
    <path
       id="path17"
       style="fill:#e9ddaf;fill-opacity:1;fill-rule:evenodd;stroke:#bca851;stroke-width:0.3;stroke-linecap:square;stroke-dasharray:none;stroke-opacity:1"
       d="m -21.408762,-47.291173 c -0.21995,-0.939438 -0.349066,-1.512816 0.0058,-2.501924 -0.338413,-0.508434 0.03156,-1.290214 0.756174,-1.69124 -0.06163,-0.971677 1.482347,-0.400281 2.365577,-1.17418 0.764178,-0.669583 1.59423,-0.70458 3.067865,-0.350215 2.005856,-0.116941 3.011264,0.857262 3.184971,1.655061 1.380285,0.549184 1.43184,0.876706 1.646993,1.720141 0.8208685,0.301124 1.2283023,1.300021 0.4173031,2.348863 0.5513467,1.391499 -0.7836171,2.224809 -1.4434841,3.257891 0.542742,-3.030832 1.16311,-6.084153 -5.149708,-7.128839 -4.553719,-0.562007 -3.910611,1.741409 -4.851484,3.864442 z"
       transform="translate(20.126925,18.927088)"
       sodipodi:nodetypes="ccccccccccc"
       inkscape:label="hair" />
    <path
       id="path42"
       style="fill:#ac9393;fill-rule:evenodd;stroke-width:0.5;stroke-linecap:square"
       d="m 10.041016,-27.685547 c -0.1919971,-0.0074 -0.3421173,0.03573 -0.462891,0.107422 -0.2415784,0.143408 -0.3546356,0.351552 -0.6503906,0.517578 a 0.13198187,0.13198187 0 0 0 -0.066406,0.0957 l -0.1640625,1.146485 -0.9433594,1.632812 a 0.13198187,0.13198187 0 0 0 0.1621094,0.189453 c 0.1476537,-0.05761 0.1881276,-0.03657 0.2382813,-0.0078 0.025077,0.01438 0.051533,0.03676 0.087891,0.0625 0.036358,0.02574 0.089758,0.05962 0.1621094,0.0625 0.072351,0.0029 0.14199,-0.02904 0.203125,-0.07813 0.061135,-0.04908 0.1220425,-0.118934 0.1972656,-0.21875 0.1502476,-0.199369 0.3555798,-0.525002 0.6660156,-1.060547 v -0.002 c 0.7625712,-1.28334 1.2183632,-1.619683 1.3945312,-2.107422 a 0.13198187,0.13198187 0 0 0 -0.08203,-0.169922 c -0.315615,-0.110381 -0.550191,-0.162563 -0.742187,-0.169922 z" />
    <path
       id="path18"
       style="fill:#f4d7d7;fill-opacity:1;fill-rule:evenodd;stroke:none;stroke-width:0.5;stroke-linecap:square"
       d="m 8.9919173,-26.945124 c 0.6446497,-0.361882 0.5136143,-0.876585 1.7476907,-0.444988 -0.156205,0.432469 -0.613039,0.79068 -1.3824712,2.085938 -1.2404438,2.140226 -0.7919364,0.911897 -1.489796,1.184184 l 0.1635923,-0.596626 0.7213941,-2.100292 z"
       sodipodi:nodetypes="ccccccc"
       inkscape:label="ear" />
  </g>
  <g
     inkscape:groupmode="layer"
     id="layer6"
     inkscape:label="face">
    <path
       id="rect18"
       style="fill:#333333;fill-rule:evenodd;stroke:none;stroke-width:0.461374;stroke-linecap:square"
       d="m 4.5606067,-26.757824 0.8271344,-0.249093 c 0.3738577,0.673449 1.2758575,0.6546 1.8985374,0.662479 l -0.5921697,0.168372 0.7555974,0.232815 -1.091369,-0.137345 c -0.6049885,-0.418055 -1.2761935,-0.701125 -1.7977305,-0.677228 z"
       sodipodi:nodetypes="ccccccc" />
    <path
       id="path22"
       style="fill:#333333;fill-rule:evenodd;stroke:none;stroke-width:0.46101;stroke-linecap:square"
       d="m 1.6268454,-27.05094 -0.73593292,-0.506274 c -0.51613244,0.526988 -1.37768852,0.217962 -1.97732588,0.02472 l 0.52920123,0.352878 -0.77975383,-0.01982 1.07982115,0.219909 c 0.67840668,-0.206871 1.38887225,-0.262591 1.88399025,-0.07141 z"
       sodipodi:nodetypes="ccccccc" />
    <path
       id="path23"
       style="fill:#d0c28e;fill-opacity:1;fill-rule:evenodd;stroke:none;stroke-width:0.5;stroke-linecap:square"
       d="m 4.7859178,-27.868098 c 1.5839526,-0.434458 2.2822896,0.44699 3.4935866,1.263451 -1.2097227,-0.77603 -2.3422106,-1.021021 -3.4935866,-1.263451 z"
       sodipodi:nodetypes="ccc" />
    <path
       id="path24"
       style="fill:#d0c28e;fill-opacity:1;fill-rule:evenodd;stroke:none;stroke-width:0.360365;stroke-linecap:square"
       d="m 1.2434325,-28.291621 c -0.61637387,-0.05715 -1.19301953,-0.2371 -1.92936588,0.07659 0.65389952,-0.397892 1.29473026,-0.746427 1.92936588,-0.07659 z"
       sodipodi:nodetypes="ccc" />
    <path
       id="path25"
       style="fill:#ac9393;fill-opacity:1;fill-rule:evenodd;stroke:none;stroke-width:0.5;stroke-linecap:square"
       d="m 1.6216759,-25.369846 c 0.7655493,-0.578145 0.7017755,-1.56139 0.9814782,-2.376857 -0.1951615,0.818183 -0.088687,1.864913 -0.7213308,2.351618 0.596387,-0.249433 1.0401759,0.210352 1.5549286,0.340324 l -1.1692998,0.241401 z"
       sodipodi:nodetypes="cccccc" />
    <path
       id="path29"
       style="fill:#ffffff;fill-rule:evenodd;stroke:none;stroke-width:0.358723;stroke-linecap:square"
       d="m 0.9685188,-23.488543 1.1393642,0.07976 1.7548729,0.441931 -0.031975,0.09286 -1.7868644,0.286844 -1.0320771,-0.770994 z"
       sodipodi:nodetypes="ccccccc" />
    <path
       id="path26"
       style="fill:#711b1b;fill-opacity:1;fill-rule:evenodd;stroke:none;stroke-width:0.358723;stroke-linecap:square"
       d="m 0.88243652,-23.487221 c 0.38049928,-0.06873 0.41468098,-0.271972 1.20974438,-0.06703 1.298511,0.112461 1.2876366,0.364963 1.9385382,0.606446 l -1.9251235,-0.25907 z"
       sodipodi:nodetypes="ccccc" />
    <path
       id="path27"
       style="fill:#ae9493;fill-opacity:1;fill-rule:evenodd;stroke:none;stroke-width:0.358723;stroke-linecap:square"
       d="m 4.3094446,-22.784483 -0.1208399,-0.371617 0.2638705,0.34772 -0.278406,0.441451 z"
       sodipodi:nodetypes="ccccc" />
    <path
       id="path28"
       style="fill:#a02c2c;fill-rule:evenodd;stroke:none;stroke-width:0.358723;stroke-linecap:square"
       d="m 0.88243652,-23.487221 c 0,0 0.70325448,0.496436 1.09835278,0.592453 0.6690021,0.162581 2.0499298,-0.05304 2.0499298,-0.05304 -1.6725496,0.535312 -2.1188736,0.85693 -3.14828258,-0.539418 z"
       sodipodi:nodetypes="cscc" />
  </g>
  <g
     inkscape:groupmode="layer"
     id="layer7"
     inkscape:label="bubble"
     style="display:inline">
    <path
       id="path58"
       style="fill:url(#radialGradient59);fill-opacity:1;fill-rule:evenodd;stroke-width:0.3;stroke-linecap:square"
       d="m -0.25390625,-53.103516 c -7.45547415,-2.12e-4 -14.90786175,1.422925 -21.79687475,4.160157 -6.889013,2.737232 -13.209794,6.787873 -18.484375,11.847656 -5.274581,5.059783 -9.499739,11.124686 -12.355469,17.738281 -2.85573,6.613595 -4.339798,13.7699267 -4.339844,20.9296876 4.6e-5,7.1597609 1.484114,14.3160924 4.339844,20.9296874 2.85573,6.613595 7.080888,12.678498 12.355469,17.738281 5.274581,5.059783 11.595362,9.110425 18.484375,11.847657 6.889013,2.737231 14.3414006,4.160368 21.79687475,4.160156 C 7.2014038,56.248012 14.654181,54.825234 21.542969,52.087891 28.431757,49.350548 34.751017,45.299994 40.025391,40.240234 45.299764,35.180475 49.525251,29.115426 52.380859,22.501953 55.236467,15.88848 56.720657,8.731869 56.720703,1.5722656 56.720657,-5.5873377 55.236467,-12.743949 52.380859,-19.357422 49.525251,-25.970895 45.299764,-32.035944 40.025391,-37.095703 34.751017,-42.155462 28.431757,-46.206016 21.542969,-48.943359 14.654181,-51.680702 7.2014038,-53.103481 -0.25390625,-53.103516 Z" />
    <path
       id="path57"
       style="fill:#da7575;fill-opacity:0.381743;fill-rule:evenodd;stroke:none;stroke-width:0.3;stroke-linecap:square;stroke-dasharray:none;stroke-opacity:1"
       d="M -30.926661,-43.67703 A 56.496368,54.197601 0 0 0 -57.141505,2.0534389 56.496368,54.197601 0 0 0 -0.6434582,56.250704 56.496368,54.197601 0 0 0 30.106542,47.498751 56.496368,54.197601 0 0 1 -0.1590832,55.955782 56.496368,54.197601 0 0 1 -56.655177,1.7565639 56.496368,54.197601 0 0 1 -30.926661,-43.67703 Z" />
    <ellipse
       style="fill:#ffffff;fill-opacity:0.381743;fill-rule:evenodd;stroke:none;stroke-width:0.3;stroke-linecap:square;stroke-dasharray:none;stroke-opacity:1;filter:url(#filter59)"
       id="path59"
       cx="42.440872"
       cy="-0.27964544"
       rx="4.7388968"
       ry="10.233616"
       transform="rotate(-45.339156)" />
  </g>



  
</svg>
