<?xml version="1.0" encoding="UTF-8" standalone="no"?>
<svg  id="svg_poppies"
   width="160"
   height="130"
   viewBox="0 0 160 130"
   version="1.1"   
   xmlns:dc="http://purl.org/dc/elements/1.1/"
   xmlns:cc="http://creativecommons.org/ns#"
   xmlns:rdf="http://www.w3.org/1999/02/22-rdf-syntax-ns#"
   xmlns:svg="http://www.w3.org/2000/svg"
   xmlns="http://www.w3.org/2000/svg"
>

  <title id="mainTitle">Animated Poppies</title>
  <desc id="mainDesc">Animated poppies swaying in the breeze for Wizard of Oz Image.</desc>

  <metadata
     id="metadata_1">
    <rdf:RDF>
      <cc:Work
         rdf:about="">
        <dc:format>image/svg+xml</dc:format>
        <dc:type
           rdf:resource="http://purl.org/dc/dcmitype/StillImage" />
        <dc:title>Animated Poppies</dc:title>
        <dc:description>Animated poppies swaying in the breeze for Wizard of Oz Image.</dc:description>
      </cc:Work>
    </rdf:RDF>
  </metadata>

  <defs
     id="defs6" />

<!-- ~~~~~~~~~~~~~~~~~~~~~  SWAYING POPPIES  ~~~~~~~~~~~~~~~~~~~~~~~~~~~~~~~~~~~~~~ -->

  <g id="poppies">
    <g id="flower_1">

      <path id="stem"
         style="color:#000000;fill:#006b00;fill-opacity:1;"
         d="m 133.8418,106.36719 c -0.0911,2.70356 -0.7437,5.65381 -2.11328,7.91211 l 0.61444,0.005 c 1.40309,-2.31355 1.80507,-5.18922 1.89734,-7.92871 0.10475,-3.10974 -1.04608,-8.6423 -1.17655,-8.622075 -0.13046,0.02022 0.88193,5.549215 0.77805,8.633305 z"
      />

      <g id='flower_1_anim'
        transform="translate( 0 0 )"
      >
         <!--"-2 0;0 -0.5;2 0;0 -0.5;-2 0"-->
         <animateTransform attributeName="transform" 
           type="translate"
           values="-2 0;0 -0.5;-2 0" 
           dur="4s" 
           repeatCount="indefinite" />

         <path id="petal"
            style="fill:#c83737;fill-rule:evenodd;stroke-width:0.302588;stroke-linecap:square"
            d="m 136.88869,95.960727 c 2.2979,0.23787 3.39943,3.540488 -3.91739,2.728922 -5.46384,0.959758 -6.70743,-2.79267 -3.45088,-2.84366 -0.33008,-1.679507 0.16094,-2.55472 3.45088,-0.901803 3.40541,-1.665326 4.24797,-0.590572 3.91739,1.016541 z"
         />

         <ellipse id="pod"
            style="fill:#501616;fill-opacity:1;fill-rule:evenodd;stroke:none;stroke-width:0.173933;stroke-linecap:square"
            cx="133.02188"
            cy="97.117241"
            rx="2.6898067"
            ry="1.0181639"
         />

      </g>

    </g>

    <g id="flower_2"
       transform="matrix(1.1664327,0.35720487,-0.35336567,1.1791056,34.224133,-53.503099)">
       <g id='p2_wrap'>

         <animateTransform id='p_2_anim' 
           attributeName="transform" 
           type="translate"
           values="-2;0;-2"
           dur="4s" 
           repeatCount="indefinite" />

          <path id="path571"
            style="fill:#c83737;fill-rule:evenodd;stroke-width:0.302588;stroke-linecap:square"
            d="m 136.88869,95.960727 c 2.2979,0.23787 3.39943,3.540488 -3.91739,2.728922 -5.46384,0.959758 -6.70743,-2.79267 -3.45088,-2.84366 -0.33008,-1.679507 0.16094,-2.55472 3.45088,-0.901803 3.40541,-1.665326 4.24797,-0.590572 3.91739,1.016541 z"
          />
          <ellipse
            style="fill:#501616;fill-opacity:1;fill-rule:evenodd;stroke:none;stroke-width:0.173933;stroke-linecap:square"
            id="ellipse571"
            cx="133.02188"
            cy="97.117241"
            rx="2.6898067"
            ry="1.0181639" />
       </g>
    </g>

    <g id="flower_3"
       transform="matrix(0.73284309,-0.27810816,0.26240133,0.77670966,-13.577151,65.802654)">
      <g id='p3_animation_group'>
        <animateTransform id='p_3_anim' 
           attributeName="transform" 
           type="translate"
           values="-2;2;-2"
           dur="4s" 
           repeatCount="indefinite" />

        <path
            id="path572"
            style="fill:#c83737;fill-rule:evenodd;stroke-width:0.302588;stroke-linecap:square"
            d="m 136.88869,95.960727 c 2.2979,0.23787 3.39943,3.540488 -3.91739,2.728922 -5.46384,0.959758 -6.70743,-2.79267 -3.45088,-2.84366 -0.33008,-1.679507 0.16094,-2.55472 3.45088,-0.901803 3.40541,-1.665326 4.24797,-0.590572 3.91739,1.016541 z"
        />
        <ellipse
            style="fill:#501616;fill-opacity:1;fill-rule:evenodd;stroke:none;stroke-width:0.173933;stroke-linecap:square"
            id="ellipse572"
            cx="133.02188"
            cy="97.117241"
            rx="2.6898067"
            ry="1.0181639" >
        </ellipse>
      </g> 
    </g>
  </g>

  <!-- ~~~~~~~~~~~~~~~~~~~~~ END SWAYING POPPIES  ~~~~~~~~~~~~~~~~~~~~~~~~~~~~~~~~~~~~~~ -->

</svg>



