<?xml version="1.0" encoding="UTF-8" standalone="no"?>
<!-- Created with Inkscape (http://www.inkscape.org/) -->

<svg
   width="303.68417"
   height="102.55215"
   viewBox="0 0 303.68417 102.55215"
   version="1.1"
   id="svg1"
   xmlns:xlink="http://www.w3.org/1999/xlink"
   xmlns="http://www.w3.org/2000/svg"
   xmlns:svg="http://www.w3.org/2000/svg">
  <defs
     id="defs1">
    <linearGradient
       id="linearGradient83">
      <stop
         style="stop-color:#5e697c;stop-opacity:1;"
         offset="0"
         id="stop83" />
      <stop
         style="stop-color:#8793a4;stop-opacity:1;"
         offset="1"
         id="stop84" />
    </linearGradient>
    <filter
       style="color-interpolation-filters:sRGB"
       id="filter78"
       x="-0.1226329"
       y="-0.30825695"
       width="1.2452658"
       height="1.6165139">
      <feGaussianBlur
         stdDeviation="3.4332349"
         id="feGaussianBlur78" />
    </filter>
    <filter
       style="color-interpolation-filters:sRGB"
       id="filter79"
       x="-0.047525494"
       y="-0.086748089"
       width="1.095051"
       height="1.1734962">
      <feGaussianBlur
         stdDeviation="1.43613"
         id="feGaussianBlur79" />
    </filter>
    <filter
       style="color-interpolation-filters:sRGB"
       id="filter80"
       x="-0.082275139"
       y="-0.21571408"
       width="1.1645503"
       height="1.4314282">
      <feGaussianBlur
         stdDeviation="1.7724305"
         id="feGaussianBlur80" />
    </filter>
    <filter
       style="color-interpolation-filters:sRGB"
       id="filter81"
       x="-0.10808545"
       y="-0.24471374"
       width="1.2161709"
       height="1.4894275">
      <feGaussianBlur
         stdDeviation="2.8033288"
         id="feGaussianBlur81" />
    </filter>
    <filter
       style="color-interpolation-filters:sRGB"
       id="filter82"
       x="-0.089726642"
       y="-0.18429651"
       width="1.1794533"
       height="1.368593">
      <feGaussianBlur
         stdDeviation="1.720012"
         id="feGaussianBlur82" />
    </filter>
    <filter
       style="color-interpolation-filters:sRGB"
       id="filter83"
       x="-0.10516554"
       y="-0.17924575"
       width="1.2103311"
       height="1.3584915">
      <feGaussianBlur
         stdDeviation="2.1936017"
         id="feGaussianBlur83" />
    </filter>
    <linearGradient
       xlink:href="#linearGradient83"
       id="linearGradient84"
       x1="176.04034"
       y1="-2.014575"
       x2="178.44991"
       y2="100.79418"
       gradientUnits="userSpaceOnUse" />
  </defs>
  <g
     id="layer1"
     transform="translate(1.2866142,0.86898255)">
    <rect
       style="fill:url(#linearGradient84);fill-opacity:1;stroke-width:0.3;stroke-linecap:square;stroke-opacity:0.488239"
       id="rect1"
       width="303.68417"
       height="102.55215"
       x="-1.2866142"
       y="-0.86898255" />
  </g>
  <g
     id="layer4"
     transform="translate(1.2866142,0.86898255)">
    <path
       id="path1"
       style="fill:#b7c4c8;stroke-width:0.3;stroke-linecap:square;stroke-opacity:0.488239;filter:url(#filter83)"
       d="m 46.306641,27.107422 a 4.0027108,3.9025588 0 0 0 -3.19336,1.564453 9.5827074,7.5959725 0 0 0 -2.732422,-0.316406 9.5827074,7.5959725 0 0 0 -9.572265,7.464843 15.737982,7.9011164 0 0 0 -2.56836,-0.107421 15.737982,7.9011164 0 0 0 -15.738281,7.902343 15.737982,7.9011164 0 0 0 11.728516,7.636719 12.502428,6.8523307 0 0 0 12.128906,5.226563 12.502428,6.8523307 0 0 0 12.171875,-5.341797 10.920508,8.7669706 0 0 0 10.396484,-8.736328 10.920508,8.7669706 0 0 0 -0.04102,-0.730469 8.299016,6.9430146 0 0 0 3.675781,-5.753906 8.299016,6.9430146 0 0 0 -8.298828,-6.94336 8.299016,6.9430146 0 0 0 -4.119141,0.933594 4.0027108,3.9025588 0 0 0 -3.83789,-2.798828 z" />
    <path
       id="path6"
       style="fill:#b7c4c8;stroke-width:0.3;stroke-linecap:square;stroke-opacity:0.488239;filter:url(#filter79)"
       d="m 127.87695,41.228516 a 14.146178,10.761307 0 0 0 -14.03711,9.482422 18.208548,12.887145 0 0 0 -0.83007,-0.01563 18.208548,12.887145 0 0 0 -11.81641,3.119141 12.253475,7.2513919 0 0 0 -2.41211,-0.144531 12.253475,7.2513919 0 0 0 -12.253906,7.251953 12.253475,7.2513919 0 0 0 9.394531,7.041016 18.208548,12.887145 0 0 0 12.886715,8.140625 12.253475,7.2513919 0 0 0 11.43164,4.669922 12.253475,7.2513919 0 0 0 7.35938,-1.458985 21.033884,12.512042 0 0 0 10.41797,1.646485 21.033884,12.512042 0 0 0 21.0332,-12.511719 21.033884,12.512042 0 0 0 -10.9707,-10.984375 6.7358131,6.6398234 0 0 0 0.54101,-2.583985 6.7358131,6.6398234 0 0 0 -6.73437,-6.640625 6.7358131,6.6398234 0 0 0 -0.72852,0.05273 14.146178,10.761307 0 0 0 -13.28125,-7.064453 z" />
    <path
       id="path10"
       style="fill:#b7c4c8;stroke-width:0.3;stroke-linecap:square;stroke-opacity:0.488239;filter:url(#filter81)"
       d="m 249.25195,9.5996094 c -4.17085,-0.035451 -9.18646,1.9832646 -10.2883,6.3992966 0.0774,1.707236 -0.0915,2.573759 -1.97312,2.702578 -1.90483,1.081284 -3.70579,1.780155 -5.8978,2.046731 -3.18929,1.025638 -6.33362,2.983516 -7.89156,6.044754 -4.27573,0.789343 -8.74288,1.079758 -12.76827,2.830479 -2.10676,1.87365 1.26749,4.401856 3.11422,4.989846 3.27571,1.238064 6.85612,1.023544 10.2738,1.567736 2.55019,0.633099 5.16531,-0.331043 7.48113,-0.269889 2.62843,0.468011 5.43238,2.018768 8.02014,0.590569 1.77999,-0.993843 2.30114,-3.027618 4.67588,-2.479012 2.62044,0.104426 4.56384,-3.283271 6.71459,-0.848164 2.58132,1.082192 6.43813,2.216632 8.30177,-0.656424 1.33331,-1.338564 2.01188,-4.243229 4.33184,-3.590483 3.06178,0.08679 6.16125,-3.127922 4.74748,-6.181534 2.50472,-0.83836 4.83284,-3.679165 3.55501,-6.362719 -1.85181,-3.527791 -6.52863,-4.390802 -10.12922,-3.570882 -1.66553,0.349313 -3.03891,1.894065 -3.98536,-0.234742 -2.20493,-2.069388 -5.30731,-2.9689783 -8.28223,-2.9781406 z" />
    <path
       id="path78"
       style="mix-blend-mode:normal;fill:#a0b1b6;fill-opacity:1;stroke-width:0.246552;stroke-linecap:square;stroke-opacity:0.488239;filter:url(#filter78)"
       d="m 130.32016,54.22009 c -5.01597,0.199043 -11.89787,1.034041 -14.03711,6.40464 -6.52883,-0.585282 -12.35302,2.879054 -18.845407,2.238262 -2.693358,0.356966 -6.841693,-2.358949 -4.942692,1.858741 2.607391,3.945692 5.411788,5.650159 7.908469,9.466613 3.19646,2.186251 7.06223,3.119001 10.84838,3.587103 7.51349,6.076626 17.23512,0.825502 25.59355,3.154216 8.23888,0.219833 16.02884,-1.247425 21.88648,-7.891128 2.24832,-5.915325 -4.0412,-6.883481 -8.20854,-7.852064 2.22194,-4.096051 -3.57922,-6.795885 -6.92188,-6.194888 -3.1381,-3.836568 -8.62993,-4.648847 -13.28125,-4.771495 z"
       transform="matrix(0.94938171,0,0,0.95973505,6.2170888,2.0554639)" />
    <path
       id="path79"
       style="mix-blend-mode:normal;fill:#a6b6bb;fill-opacity:1;stroke-width:0.212772;stroke-linecap:square;stroke-opacity:0.488239;filter:url(#filter80)"
       d="m 248.27722,16.16627 c -2.91108,0.06135 -6.34012,0.643828 -8.12981,3.190902 -0.30382,1.283107 -0.57309,2.591871 -2.25346,2.493879 -2.36438,1.119451 -5.15467,2.487298 -7.49594,3.667912 -1.39102,0.620029 -2.7425,1.472855 -3.62406,2.743695 -3.5137,0.485871 -7.10649,0.64191 -10.50736,1.730155 -1.67285,1.75654 -0.99098,4.107662 0.41364,4.349401 3.05288,0.6008 6.18953,0.53557 9.26945,0.899973 2.50441,-0.15973 4.76562,-0.289 7.2131,0.525143 2.13162,0.619438 7.12784,-1.323026 8.77653,-2.638792 2.14259,-0.0077 4.13018,-0.98946 6.23331,-1.189773 1.86477,0.925546 6.41702,3.080136 8.51453,2.654267 2.00684,-0.32713 1.10324,-5.211169 3.0934,-5.475156 1.90015,0.27024 6.22532,-0.159901 6.6133,-2.268917 -0.8754,-1.868212 0.59676,-3.123482 0.59069,-5.308398 0.0741,-1.89934 -2.06992,-2.826492 -3.62114,-3.24818 -2.25673,-0.559948 -4.65938,-0.417022 -6.85258,0.334087 -1.65393,-0.260481 -2.93669,-1.949214 -4.80862,-2.075954 -1.12142,-0.261836 -2.27417,-0.380741 -3.42498,-0.384244 z" />
    <path
       id="path81"
       style="fill:#a6b6bc;fill-opacity:1;stroke-width:0.247994;stroke-linecap:square;stroke-opacity:0.488239;filter:url(#filter82)"
       d="m 44.890616,34.552725 -1.603208,0.316217 -1.263795,0.874544 c -4.482095,-1.026181 -10.746628,1.024528 -11.047165,5.440932 -5.583914,-0.216667 -12.749206,0.195229 -16.081879,4.594625 -1.660526,4.766501 5.989164,6.724623 10.17603,7.150952 4.08105,4.95522 13.15304,4.812533 18.997478,2.359244 l 1.766656,-1.134716 1.05314,-1.312236 c 4.540855,0.01365 11.784052,-4.257498 11.301194,-8.487981 4.716494,-1.72435 2.029948,-6.263405 -2.429152,-7.673802 -2.304332,-0.94214 -5.113025,-0.944619 -7.42364,0.0025 -0.425409,-1.257093 -1.915121,-2.151236 -3.445659,-2.130288 z"
       transform="matrix(1,0,0,0.89235596,-2.4343341,5.30837)" />
  </g>
</svg>
