<?xml version="1.0" encoding="UTF-8" standalone="no"?>

<svg
   width="600"
   height="500"
   viewBox="0 0 600 500"
   version="1.1"
   id="svg1"
   xmlns:xlink="http://www.w3.org/1999/xlink"
   xmlns="http://www.w3.org/2000/svg"
   xmlns:svg="http://www.w3.org/2000/svg">
  <defs
     id="defs1">
    <linearGradient
       id="linearGradient8">
      <stop
         style="stop-color:#9955ff;stop-opacity:1;"
         offset="0"
         id="stop8" />
      <stop
         style="stop-color:#9955ff;stop-opacity:0.18909752;"
         offset="0.32135227"
         id="stop10" />
      <stop
         style="stop-color:#9955ff;stop-opacity:0.25327921;"
         offset="0.64036411"
         id="stop11" />
      <stop
         style="stop-color:#9955ff;stop-opacity:0.98725694;"
         offset="1"
         id="stop9" />
    </linearGradient>
    <linearGradient
       id="linearGradient2">
      <stop
         style="stop-color:#00222b;stop-opacity:1"
         offset="0"
         id="stop2" />
      <stop
         style="stop-color:#004455;stop-opacity:1"
         offset="1"
         id="stop3" />
    </linearGradient>
    <linearGradient
       xlink:href="#linearGradient2"
       id="linearGradient3"
       x1="315.01251"
       y1="504.47433"
       x2="318.32233"
       y2="-0.4620378"
       gradientUnits="userSpaceOnUse" />
    <linearGradient
       xlink:href="#linearGradient8"
       id="linearGradient9"
       x1="49.069618"
       y1="371.98212"
       x2="106.32764"
       y2="370.29459"
       gradientUnits="userSpaceOnUse" />
  </defs>
  <g
     id="layer1">
    <rect
       style="fill:url(#linearGradient3);fill-opacity:1;fill-rule:evenodd;stroke-width:3;stroke-linecap:square"
       id="rect1"
       width="608.22729"
       height="504.7435"
       x="-3.3084722"
       y="-1.2959672" />
  </g>

  <g
     id="squid"
     style="display:inline">

  <animateTransform
    attributeName="transform"
    type="translate"
    values="0,-5; 0,5; 0,-5"
    dur="5s"
    repeatCount="indefinite"
    additive="replace" />

  <animateTransform
    attributeName="transform"
    type="rotate"
    values="0; -5; 0; 5; 0"
    dur="10s"
    repeatCount="indefinite"
    additive="sum" />

<g id="flap2_anim_group">

    <path id="flap_2_path"
       style="display:inline;fill:#661c1c;fill-rule:evenodd;stroke-width:3;stroke-linecap:square"
       d="m 371.84999,255.58676 c -8.4052,15.30421 -15.92022,14.79036 -31.56971,15.03002 l 56.78802,67.80006 c -8.58728,-25.94923 -21.43738,-55.91155 -25.21831,-82.83008 z"
    >

    <animate id="flap_2_animation"
      attributeName="d"
      dur="4s"
      repeatCount="indefinite"
      values="
          m 371.84999,255.58676 c -8.4052,15.30421 -15.92022,14.79036 -31.56971,15.03002 l 56.78802,67.80006 c -8.58728,-25.94923 -21.43738,-55.91155 -25.21831,-82.83008 z;
          m 371.84999,255.58676 c -7.50614,12.52122 -12.95258,5.60416 -31.56971,15.03002 l 56.78802,67.80006 c -15.37949,-22.41587 -30.01276,-51.45057 -25.21831,-82.83008 z;
          m 371.84999,255.58676 c -4.2358,15.64425 -12.97639,3.9857 -31.56971,15.03002 l 56.78802,67.80006 c 12.81685,-41.1301 -12.72692,-54.11968 -25.21831,-82.83008 z;
          m 371.84999,255.58676 c -18.25116,-3.541 -16.04596,14.54969 -31.56971,15.03002 l 56.78802,67.80006 c 10.96791,-34.02912 -0.87772,-64.40648 -25.21831,-82.83008 z;
          m 371.84999,255.58676 c -20.59676,-9.45094 -13.4016,9.80974 -31.56971,15.03002 l 56.78802,67.80006 c 6.29088,-33.71012 -22.8747,-51.60149 -25.21831,-82.83008 z;
          m 367.0503,254.30159 c -8.4052,15.30421 -17.65743,19.80778 -26.77002,16.31519 l 56.78802,67.80006 c -4.18612,-48.76745 -26.23707,-57.19672 -30.018,-84.11525 z;
          m 371.84999,255.58676 c -8.4052,15.30421 -15.92022,14.79036 -31.56971,15.03002 l 56.78802,67.80006 c -8.58728,-25.94923 -21.43738,-55.91155 -25.21831,-82.83008 z" 
          
    />

    </path>

</g>


    <path
       style="fill:#782121;fill-rule:evenodd;stroke-width:3;stroke-linecap:square"
       d="m 41.23283,271.61565 -0.638363,24.3791 c -6.987917,38.72891 -4.764146,62.98343 -7.108689,94.41703 -3.27825,46.96285 10.567617,129.50264 21.989549,130.42852 7.428483,0.60217 13.831686,-33.31681 13.832053,-133.99547 -1.739425,-30.10134 4.687728,-51.22432 -5.715133,-90.84923 l 0.76085,-15.68187 -1.874297,-5.12731 -16.277034,-4.79979 z"
       transform="rotate(-43.883823)"
       id="path45" />



<g transform="translate( -28 35 )">
<g transform="rotate(-5)">

    <path
       id="flap_1"
       style="fill:#661c1c;fill-rule:evenodd;stroke-width:3;stroke-linecap:square"
       d="m 14.970598,433.21054 c 16.841879,4.60621 31.863822,4.27813 42.921237,-6.79876 l 9.21218,87.95942 C 54.433429,490.15221 31.680706,454.65057 14.970598,433.21054 Z">

<animate
      attributeName="d"
      dur="4s"
      repeatCount="indefinite"
      values="
          m 302.38924,310.57404 c 15.56293,-7.91589 26.46081,-18.2601 27.1964,-33.89412 l 65.96596,58.90853 c -25.66399,-9.40546 -66.3772,-20.38213 -93.16236,-25.01441 z;
          m 302.38924,310.57404 c 15.56293,-7.91589 26.46081,-18.2601 27.1964,-33.89412 l 65.96596,58.90853 c -15.526,-15.96057 -30.56674,2.0919 -93.16236,-25.01441 z;
          m 302.38924,310.57404 c 24.98384,-5.91943 26.46081,-18.2601 27.1964,-33.89412 l 65.96596,58.90853 c -78.45414,-57.14015 -30.56674,2.0919 -93.16236,-25.01441 z;
          m 311.35347,288.61705 c 24.98384,-5.91943 17.49658,3.69689 18.23217,-11.93713 l 65.96596,58.90853 c -37.33575,3.5871 -48.33694,-53.70877 -84.19813,-46.9714 z;
          m 317.03158,280.58113 c 12.30833,-3.42188 11.81847,11.73281 12.55406,-3.90121 l 65.96596,58.90853 c -50.163,-9.84752 -56.32687,-31.64127 -78.52002,-55.00732 z;
          m 308.69465,298.5906 c 2.74363,-10.44295 26.33635,-4.18958 20.89099,-21.91068 l 65.96596,58.90853 C 325.67601,350.4405 341.25074,287.25564 308.69465,298.5906 Z;
          m 302.38924,310.57404 c 15.56293,-7.91589 26.46081,-18.2601 27.1964,-33.89412 l 65.96596,58.90853 c -25.66399,-9.40546 -66.3772,-20.38213 -93.16236,-25.01441 z" 
          
/>
    </path>
</g>
</g>


<g  id="tentacles_v2">

    <path id="tent_0"
        style="display:inline;fill:#782121;fill-opacity:1;stroke:none;stroke-width:1px;stroke-linecap:butt;stroke-linejoin:miter;stroke-opacity:1"
        d="m 239.24832,157.48089 -7.68634,3.08164 c -18.21201,-37.50278 -51.8799,-69.774819 -78.13489,-113.054 35.16655,37.141629 61.98138,71.67105 85.82123,109.97236 z"
    >

        <animate id="tent_0_anim"
            attributeName="d"
            dur="5s"
            repeatCount="indefinite"
            values="
                m 239.24832,157.48089 -7.68634,3.08164 c -18.21201,-37.50278 -51.8799,-69.774819 -78.13489,-113.054 35.16655,37.141629 61.98138,71.67105 85.82123,109.97236 z;
                m 240.70737,162.54208 -4.73444,-7.50759 c 100.20096,-8.20319 28.0009,-52.68549 14.34158,-85.852956 46.19768,41.893796 80.04201,86.872826 -9.60714,93.360546 z;
                m 240.39917,161.92501 -7.97516,-4.18691 c -20.89959,-39.75799 35.90018,-81.182142 68.9154,-74.726335 -28.83165,2.613827 -79.99771,36.107215 -60.94024,78.913245 z;
                m 239.24832,157.48089 -7.68634,3.08164 c -18.21201,-37.50278 -51.8799,-69.774819 -78.13489,-113.054 35.16655,37.141629 61.98138,71.67105 85.82123,109.97236 z"
        />

    </path>

    <path id="tent_1"
         style="fill:#782121;fill-opacity:1;stroke:none;stroke-width:1px;stroke-linecap:butt;stroke-linejoin:miter;stroke-opacity:1"
         d="M 220.63129,168.23331 C 178.57706,139.47942 156.1713,100.54652 132.52704,62.255249 c 27.43243,37.194759 54.91158,74.348201 93.64429,101.545471 z"
    >

        <animate id="tent_1_anim"
            attributeName="d"
            dur="5s"
            repeatCount="indefinite"
            values="
                M 220.63129,168.23331 C 178.57706,139.47942 156.1713,100.54652 132.52704,62.255249 c 27.43243,37.194759 54.91158,74.348201 93.64429,101.545471 z;
                m 222.16593,170.56888 c -76.7485,75.00884 -77.89127,-17.57324 -92.65287,-44.77207 21.17386,9.42609 14.23501,114.42407 94.46061,37.00318 z;
                m 224.35059,172.30484 c -42.05423,-28.75389 -118.13577,-24.36077 -123.01077,6.32638 -0.69956,-43.78174 81.25243,-39.62872 119.98514,-16.7301 z;
                m 220.63129,168.23331 C 178.57706,139.47942 156.1713,100.54652 132.52704,62.255249 c 27.43243,37.194759 54.91158,74.348201 93.64429,101.545471 z"
        />

    </path>

    <path id="tent_3"
        style="fill:#782121;stroke:none;stroke-width:1px;stroke-linecap:butt;stroke-linejoin:miter;stroke-opacity:1"
        d="M 223.53767,166.53023 C 177.3816,130.02689 132.06935,67.40294 136.87199,51.78768 c 5.5348,13.311634 33.09159,62.29569 90.3336,110.57374 z"
    >
        <animate id="tent_3_anim"
            attributeName="d"
            dur="5s"
            repeatCount="indefinite"
            values="
                M 223.53767,166.53023 C 177.3816,130.02689 132.06935,67.40294 136.87199,51.78768 c 5.5348,13.311634 33.09159,62.29569 90.3336,110.57374 z;
                m 227.64806,173.89281 c -59.4954,101.35548 -65.12588,-39.34049 -60.32324,-54.95575 6.33288,11.60007 10.28997,141.15105 55.95598,44.5193 z;
                m 229.12668,171.65828 c -42.05894,-0.77942 -38.92513,59.49779 -45.20689,68.18758 -8.97493,-10.91008 -2.06618,-79.32816 39.39942,-77.02633 z;
                M 223.53767,166.53023 C 177.3816,130.02689 132.06935,67.40294 136.87199,51.78768 c 5.5348,13.311634 33.09159,62.29569 90.3336,110.57374 z"
        />
    </path>

    <path id="tent_4"
        style="fill:#782121;stroke:none;stroke-width:1px;stroke-linecap:butt;stroke-linejoin:miter;stroke-opacity:1"
        d="M 228.81323,161.18007 C 189.92727,98.582346 150.09676,66.298164 143.26025,50.482479 c 15.57573,7.37357 45.28871,41.506688 92.31474,105.848961 2.65567,8.04388 -0.86355,8.74629 -6.76176,4.84863 z"
    >
        <animate id="tent_4_anim"
            attributeName="d"
            dur="5s"
            repeatCount="indefinite"
            values="
                M 228.81323,161.18007 C 189.92727,98.582346 150.09676,66.298164 143.26025,50.482479 c 15.57573,7.37357 45.28871,41.506688 92.31474,105.848961 2.65567,8.04388 -0.86355,8.74629 -6.76176,4.84863 z;
                m 234.84476,159.28395 c 99.49023,41.04379 0.1766,-35.78187 -1.27338,-56.5564 13.16885,-1.37675 125.70138,115.62603 9.71198,71.44809 -13.67179,-2.98669 -16.98372,-16.44942 -8.4386,-14.89169 z;
                m 238.51769,155.50455 c 7.63639,-11.39473 37.81989,-55.618645 78.79625,0.12036 -34.32091,-14.94742 -45.06408,-37.08048 -79.61314,17.78312 -13.67179,-2.98669 -6.62407,-13.39472 0.81689,-17.90348 z;
                M 228.81323,161.18007 C 189.92727,98.582346 150.09676,66.298164 143.26025,50.482479 c 15.57573,7.37357 45.28871,41.506688 92.31474,105.848961 2.65567,8.04388 -0.86355,8.74629 -6.76176,4.84863 z"
        />
    </path>



</g>

    <g
       id="g45">
      <path
         id="path6"
         style="fill:#c8beb7;fill-rule:evenodd;stroke-width:3.6058;stroke-linecap:square"
         d="m 233.45219,171.41936 a 8.7999247,5.002995 50.967366 0 1 1.65559,9.98637 8.7999247,5.002995 50.967366 0 1 -9.42812,-3.68497 8.7999247,5.002995 50.967366 0 1 -1.6556,-9.98636 8.7999247,5.002995 50.967366 0 1 9.42813,3.68496 z" />
      <path
         id="path7"
         style="fill:#000000;fill-rule:evenodd;stroke-width:2.20873;stroke-linecap:square"
         d="m 231.22756,173.45466 a 5.4253853,3.0448169 53.70772 0 1 0.98858,6.27526 5.4253853,3.0448169 53.70772 0 1 -5.62969,-2.31557 5.4253853,3.0448169 53.70772 0 1 -0.98858,-6.27525 5.4253853,3.0448169 53.70772 0 1 5.62969,2.31556 z" />
    </g>
    <g
       id="g44">
      <path
         id="ellipse11"
         style="fill:#c8beb7;fill-opacity:1;fill-rule:evenodd;stroke-width:2.02085;stroke-linecap:square"
         d="m 269.63867,187.92383 a 2.5943451,2.3131027 0 0 0 -2.59375,2.3125 2.5943451,2.3131027 0 0 0 2.59375,2.3125 2.5943451,2.3131027 0 0 0 2.59571,-2.3125 2.5943451,2.3131027 0 0 0 -2.59571,-2.3125 z m -7.83398,4.1914 a 2.5943451,2.3131027 0 0 0 -2.59571,2.31446 2.5943451,2.3131027 0 0 0 0.65625,1.5332 2.5943451,2.3131027 0 0 0 -2.22851,2.28906 2.5943451,2.3131027 0 0 0 2.59375,2.3125 2.5943451,2.3131027 0 0 0 2.59375,-2.3125 2.5943451,2.3131027 0 0 0 -0.65039,-1.5332 2.5943451,2.3131027 0 0 0 2.22461,-2.28906 2.5943451,2.3131027 0 0 0 -2.59375,-2.31446 z m 12.1582,5.80665 a 2.5943451,2.3131027 0 0 0 -2.59375,2.3125 2.5943451,2.3131027 0 0 0 2.59375,2.3125 2.5943451,2.3131027 0 0 0 2.5957,-2.3125 2.5943451,2.3131027 0 0 0 -2.5957,-2.3125 z m -19.67187,3.2246 a 2.5943451,2.3131027 0 0 0 -2.59375,2.31446 2.5943451,2.3131027 0 0 0 0.27734,1.03125 2.5943451,2.3131027 0 0 0 -0.99609,1.8164 2.5943451,2.3131027 0 0 0 2.59375,2.3125 2.5943451,2.3131027 0 0 0 2.59375,-2.3125 2.5943451,2.3131027 0 0 0 -0.2754,-1.0332 2.5943451,2.3131027 0 0 0 0.9961,-1.81445 2.5943451,2.3131027 0 0 0 -2.5957,-2.31446 z m 6.30273,0.56836 a 2.5943451,2.3131027 0 0 0 -2.59375,2.3125 2.5943451,2.3131027 0 0 0 2.59375,2.31446 2.5943451,2.3131027 0 0 0 2.59375,-2.31446 2.5943451,2.3131027 0 0 0 -2.59375,-2.3125 z m 11.46484,10.71094 a 2.5943451,2.3131027 0 0 0 -2.5957,2.3125 2.5943451,2.3131027 0 0 0 2.5957,2.31445 2.5943451,2.3131027 0 0 0 2.59375,-2.31445 2.5943451,2.3131027 0 0 0 -2.59375,-2.3125 z m 29.56446,11.10938 a 2.5943451,2.3131027 0 0 0 -2.59375,2.3125 2.5943451,2.3131027 0 0 0 2.59375,2.3125 2.5943451,2.3131027 0 0 0 2.5957,-2.3125 2.5943451,2.3131027 0 0 0 -2.5957,-2.3125 z m -9.9961,4 a 2.5943451,2.3131027 0 0 0 -2.59375,2.3125 2.5943451,2.3131027 0 0 0 2.59375,2.3125 2.5943451,2.3131027 0 0 0 2.59375,-2.3125 2.5943451,2.3131027 0 0 0 -2.59375,-2.3125 z m 16.90821,3.76757 a 2.5943451,2.3131027 0 0 0 -2.59375,2.31446 2.5943451,2.3131027 0 0 0 2.59375,2.3125 2.5943451,2.3131027 0 0 0 2.5957,-2.3125 2.5943451,2.3131027 0 0 0 -2.5957,-2.31446 z m 7.2539,2.625 a 2.5943451,2.3131027 0 0 0 -2.5957,2.3125 2.5943451,2.3131027 0 0 0 2.5957,2.31446 2.5943451,2.3131027 0 0 0 2.59375,-2.31446 2.5943451,2.3131027 0 0 0 -2.59375,-2.3125 z m -13.83984,3.6875 a 2.5943451,2.3131027 0 0 0 -2.59375,2.3125 2.5943451,2.3131027 0 0 0 2.59375,2.31446 2.5943451,2.3131027 0 0 0 2.59375,-2.31446 2.5943451,2.3131027 0 0 0 -2.59375,-2.3125 z m 6.17578,0.49415 a 2.5943451,2.3131027 0 0 0 -2.59375,2.31445 2.5943451,2.3131027 0 0 0 0.14063,0.73633 2.5943451,2.3131027 0 0 0 -2.06836,2.25976 2.5943451,2.3131027 0 0 0 2.59375,2.3125 2.5943451,2.3131027 0 0 0 2.59375,-2.3125 2.5943451,2.3131027 0 0 0 -0.13672,-0.73828 2.5943451,2.3131027 0 0 0 2.0664,-2.25781 2.5943451,2.3131027 0 0 0 -2.5957,-2.31445 z m -10.19336,2.44726 a 2.5943451,2.3131027 0 0 0 -2.59375,2.31445 2.5943451,2.3131027 0 0 0 2.59375,2.3125 2.5943451,2.3131027 0 0 0 2.59375,-2.3125 2.5943451,2.3131027 0 0 0 -2.59375,-2.31445 z m -6.09766,0.92774 a 2.5943451,2.3131027 0 0 0 -2.5957,2.3125 2.5943451,2.3131027 0 0 0 2.5957,2.3125 2.5943451,2.3131027 0 0 0 2.59375,-2.3125 2.5943451,2.3131027 0 0 0 -2.59375,-2.3125 z m 33.79102,1.43554 a 2.5943451,2.3131027 0 0 0 -2.59375,2.31446 2.5943451,2.3131027 0 0 0 2.59375,2.3125 2.5943451,2.3131027 0 0 0 2.59375,-2.3125 2.5943451,2.3131027 0 0 0 -2.59375,-2.31446 z m -39.2168,0.87305 a 2.5943451,2.3131027 0 0 0 -2.59375,2.3125 2.5943451,2.3131027 0 0 0 2.59375,2.3125 2.5943451,2.3131027 0 0 0 2.59571,-2.3125 2.5943451,2.3131027 0 0 0 -2.59571,-2.3125 z m 15.11328,1.61133 a 2.5943451,2.3131027 0 0 0 -2.59375,2.3125 2.5943451,2.3131027 0 0 0 0.002,0.0234 2.5943451,2.3131027 0 0 0 -1.625,2.13868 2.5943451,2.3131027 0 0 0 2.59375,2.31445 2.5943451,2.3131027 0 0 0 1.15039,-0.24414 2.5943451,2.3131027 0 0 0 2.57422,2.07226 2.5943451,2.3131027 0 0 0 2.59375,-2.3125 2.5943451,2.3131027 0 0 0 -2.59375,-2.31445 2.5943451,2.3131027 0 0 0 -0.34766,0.0215 2.5943451,2.3131027 0 0 0 0.83984,-1.69922 2.5943451,2.3131027 0 0 0 -2.59375,-2.3125 z m 27.79688,3.14453 a 2.5943451,2.3131027 0 0 0 -2.59375,2.31445 2.5943451,2.3131027 0 0 0 2.59375,2.3125 2.5943451,2.3131027 0 0 0 2.5957,-2.3125 2.5943451,2.3131027 0 0 0 -2.5957,-2.31445 z m -38.89063,0.8125 a 2.5943451,2.3131027 0 0 0 -2.5957,2.3125 2.5943451,2.3131027 0 0 0 2.5957,2.31445 2.5943451,2.3131027 0 0 0 2.59375,-2.31445 2.5943451,2.3131027 0 0 0 -2.59375,-2.3125 z m 6.50586,3.07812 a 2.5943451,2.3131027 0 0 0 -2.59375,2.31446 2.5943451,2.3131027 0 0 0 2.59375,2.3125 2.5943451,2.3131027 0 0 0 2.59375,-2.3125 2.5943451,2.3131027 0 0 0 -2.59375,-2.31446 z m 24.00977,0.33008 a 2.5943451,2.3131027 0 0 0 -2.59375,2.31445 2.5943451,2.3131027 0 0 0 2.59375,2.3125 2.5943451,2.3131027 0 0 0 2.59375,-2.3125 2.5943451,2.3131027 0 0 0 -2.59375,-2.31445 z m 6.62695,0.99805 a 2.5943451,2.3131027 0 0 0 -2.59375,2.3125 2.5943451,2.3131027 0 0 0 2.59375,2.31445 2.5943451,2.3131027 0 0 0 2.59375,-2.31445 2.5943451,2.3131027 0 0 0 -2.59375,-2.3125 z m -38.38476,1.36719 a 2.5943451,2.3131027 0 0 0 -2.59375,2.3125 2.5943451,2.3131027 0 0 0 2.59375,2.3125 2.5943451,2.3131027 0 0 0 2.59375,-2.3125 2.5943451,2.3131027 0 0 0 -2.59375,-2.3125 z m 27.70312,2.33984 a 2.5943451,2.3131027 0 0 0 -2.59375,2.31445 2.5943451,2.3131027 0 0 0 2.59375,2.3125 2.5943451,2.3131027 0 0 0 2.59571,-2.3125 2.5943451,2.3131027 0 0 0 -2.59571,-2.31445 z m 9.65821,2.45117 a 2.5943451,2.3131027 0 0 0 -2.59376,2.3125 2.5943451,2.3131027 0 0 0 0.43165,1.27344 2.5943451,2.3131027 0 0 0 -0.97852,-0.17188 2.5943451,2.3131027 0 0 0 -2.59375,2.3125 2.5943451,2.3131027 0 0 0 2.59375,2.31446 2.5943451,2.3131027 0 0 0 2.59375,-2.31446 2.5943451,2.3131027 0 0 0 -0.43359,-1.27929 2.5943451,2.3131027 0 0 0 0.98047,0.17773 2.5943451,2.3131027 0 0 0 2.5957,-2.3125 2.5943451,2.3131027 0 0 0 -2.5957,-2.3125 z m -9.20313,2.69531 a 2.5943451,2.3131027 0 0 0 -2.59375,2.3125 2.5943451,2.3131027 0 0 0 2.59375,2.31446 2.5943451,2.3131027 0 0 0 2.5957,-2.31446 2.5943451,2.3131027 0 0 0 -2.5957,-2.3125 z" />
      <path
         id="ellipse43"
         style="fill:#000000;fill-opacity:1;fill-rule:evenodd;stroke-width:0.89593;stroke-linecap:square"
         d="M 269.11133,189 A 1.1115627,1.0611305 0 0 0 268,190.06055 a 1.1115627,1.0611305 0 0 0 1.11133,1.0625 1.1115627,1.0611305 0 0 0 1.11133,-1.0625 A 1.1115627,1.0611305 0 0 0 269.11133,189 Z m -7,4 A 1.1115627,1.0611305 0 0 0 261,194.06055 a 1.1115627,1.0611305 0 0 0 1.11133,1.0625 1.1115627,1.0611305 0 0 0 1.11133,-1.0625 A 1.1115627,1.0611305 0 0 0 262.11133,193 Z m -2,4 A 1.1115627,1.0611305 0 0 0 259,198.06055 a 1.1115627,1.0611305 0 0 0 1.11133,1.0625 1.1115627,1.0611305 0 0 0 1.11133,-1.0625 A 1.1115627,1.0611305 0 0 0 260.11133,197 Z m 13,2 A 1.1115627,1.0611305 0 0 0 272,200.06055 a 1.1115627,1.0611305 0 0 0 1.11133,1.0625 1.1115627,1.0611305 0 0 0 1.11133,-1.0625 A 1.1115627,1.0611305 0 0 0 273.11133,199 Z m -19,3 A 1.1115627,1.0611305 0 0 0 253,203.06055 a 1.1115627,1.0611305 0 0 0 1.11133,1.0625 1.1115627,1.0611305 0 0 0 1.11133,-1.0625 A 1.1115627,1.0611305 0 0 0 254.11133,202 Z m 7,1 A 1.1115627,1.0611305 0 0 0 260,204.06055 a 1.1115627,1.0611305 0 0 0 1.11133,1.0625 1.1115627,1.0611305 0 0 0 1.11133,-1.0625 A 1.1115627,1.0611305 0 0 0 261.11133,203 Z m -8,2 A 1.1115627,1.0611305 0 0 0 252,206.06055 a 1.1115627,1.0611305 0 0 0 1.11133,1.0625 1.1115627,1.0611305 0 0 0 1.11133,-1.0625 A 1.1115627,1.0611305 0 0 0 253.11133,205 Z m 18.92969,8.81836 a 1.1115627,1.0611305 0 0 0 -1.11133,1.06055 1.1115627,1.0611305 0 0 0 1.11133,1.0625 1.1115627,1.0611305 0 0 0 1.11328,-1.0625 1.1115627,1.0611305 0 0 0 -1.11328,-1.06055 z m 29.49414,10.68359 a 1.1115627,1.0611305 0 0 0 -1.11133,1.06055 1.1115627,1.0611305 0 0 0 1.11133,1.0625 1.1115627,1.0611305 0 0 0 1.11132,-1.0625 1.1115627,1.0611305 0 0 0 -1.11132,-1.06055 z m -9.99414,4.26953 a 1.1115627,1.0611305 0 0 0 -1.11133,1.06055 1.1115627,1.0611305 0 0 0 1.11133,1.06055 1.1115627,1.0611305 0 0 0 1.11132,-1.06055 1.1115627,1.0611305 0 0 0 -1.11132,-1.06055 z m 17.09179,3.75391 a 1.1115627,1.0611305 0 0 0 -1.11133,1.06055 1.1115627,1.0611305 0 0 0 1.11133,1.06054 1.1115627,1.0611305 0 0 0 1.11133,-1.06054 1.1115627,1.0611305 0 0 0 -1.11133,-1.06055 z M 316.11133,235 A 1.1115627,1.0611305 0 0 0 315,236.06055 a 1.1115627,1.0611305 0 0 0 1.11133,1.0625 1.1115627,1.0611305 0 0 0 1.11133,-1.0625 A 1.1115627,1.0611305 0 0 0 316.11133,235 Z m -14,4 A 1.1115627,1.0611305 0 0 0 301,240.06055 a 1.1115627,1.0611305 0 0 0 1.11133,1.0625 1.1115627,1.0611305 0 0 0 1.11133,-1.0625 A 1.1115627,1.0611305 0 0 0 302.11133,239 Z m 5.95312,0.77539 a 1.1115627,1.0611305 0 0 0 -1.11133,1.0625 1.1115627,1.0611305 0 0 0 1.11133,1.06055 1.1115627,1.0611305 0 0 0 1.11133,-1.06055 1.1115627,1.0611305 0 0 0 -1.11133,-1.0625 z m -10.58007,2.0918 a 1.1115627,1.0611305 0 0 0 -1.11133,1.06054 1.1115627,1.0611305 0 0 0 1.11133,1.06055 1.1115627,1.0611305 0 0 0 1.11132,-1.06055 1.1115627,1.0611305 0 0 0 -1.11132,-1.06054 z m 8.74609,0.68554 a 1.1115627,1.0611305 0 0 0 -1.11133,1.06055 1.1115627,1.0611305 0 0 0 1.11133,1.0625 1.1115627,1.0611305 0 0 0 1.11133,-1.0625 1.1115627,1.0611305 0 0 0 -1.11133,-1.06055 z m -14.69922,0.35743 a 1.1115627,1.0611305 0 0 0 -1.11133,1.06054 1.1115627,1.0611305 0 0 0 1.11133,1.06055 1.1115627,1.0611305 0 0 0 1.11133,-1.06055 1.1115627,1.0611305 0 0 0 -1.11133,-1.06054 z M 325.11133,244 A 1.1115627,1.0611305 0 0 0 324,245.06055 a 1.1115627,1.0611305 0 0 0 1.11133,1.0625 1.1115627,1.0611305 0 0 0 1.11133,-1.0625 A 1.1115627,1.0611305 0 0 0 325.11133,244 Z m -39,1 A 1.1115627,1.0611305 0 0 0 285,246.06055 a 1.1115627,1.0611305 0 0 0 1.11133,1.0625 1.1115627,1.0611305 0 0 0 1.11133,-1.0625 A 1.1115627,1.0611305 0 0 0 286.11133,245 Z m 15.23047,1.86914 a 1.1115627,1.0611305 0 0 0 -1.11133,1.06055 1.1115627,1.0611305 0 0 0 1.11133,1.0625 1.1115627,1.0611305 0 0 0 1.11132,-1.0625 1.1115627,1.0611305 0 0 0 -1.11132,-1.06055 z M 300.11133,249 A 1.1115627,1.0611305 0 0 0 299,250.06055 a 1.1115627,1.0611305 0 0 0 1.11133,1.0625 1.1115627,1.0611305 0 0 0 1.11133,-1.0625 A 1.1115627,1.0611305 0 0 0 300.11133,249 Z m 29,1 A 1.1115627,1.0611305 0 0 0 328,251.06055 a 1.1115627,1.0611305 0 0 0 1.11133,1.0625 1.1115627,1.0611305 0 0 0 1.11133,-1.0625 A 1.1115627,1.0611305 0 0 0 329.11133,250 Z m -38.75,0.62305 a 1.1115627,1.0611305 0 0 0 -1.11133,1.06054 1.1115627,1.0611305 0 0 0 1.11133,1.0625 1.1115627,1.0611305 0 0 0 1.11133,-1.0625 1.1115627,1.0611305 0 0 0 -1.11133,-1.06054 z m 13.58984,0.35351 a 1.1115627,1.0611305 0 0 0 -1.11133,1.0625 1.1115627,1.0611305 0 0 0 1.11133,1.06055 1.1115627,1.0611305 0 0 0 1.11133,-1.06055 1.1115627,1.0611305 0 0 0 -1.11133,-1.0625 z M 297.11133,254 A 1.1115627,1.0611305 0 0 0 296,255.06055 a 1.1115627,1.0611305 0 0 0 1.11133,1.0625 1.1115627,1.0611305 0 0 0 1.11133,-1.0625 A 1.1115627,1.0611305 0 0 0 297.11133,254 Z m 24,0 A 1.1115627,1.0611305 0 0 0 320,255.06055 a 1.1115627,1.0611305 0 0 0 1.11133,1.0625 1.1115627,1.0611305 0 0 0 1.11133,-1.0625 A 1.1115627,1.0611305 0 0 0 321.11133,254 Z m 6,1 A 1.1115627,1.0611305 0 0 0 326,256.06055 a 1.1115627,1.0611305 0 0 0 1.11133,1.0625 1.1115627,1.0611305 0 0 0 1.11133,-1.0625 A 1.1115627,1.0611305 0 0 0 327.11133,255 Z m -37.79688,1.57227 a 1.1115627,1.0611305 0 0 0 -1.11133,1.06054 1.1115627,1.0611305 0 0 0 1.11133,1.06055 1.1115627,1.0611305 0 0 0 1.11133,-1.06055 1.1115627,1.0611305 0 0 0 -1.11133,-1.06054 z M 317.11133,259 A 1.1115627,1.0611305 0 0 0 316,260.06055 a 1.1115627,1.0611305 0 0 0 1.11133,1.0625 1.1115627,1.0611305 0 0 0 1.11133,-1.0625 A 1.1115627,1.0611305 0 0 0 317.11133,259 Z m 10,2 A 1.1115627,1.0611305 0 0 0 326,262.06055 a 1.1115627,1.0611305 0 0 0 1.11133,1.0625 1.1115627,1.0611305 0 0 0 1.11133,-1.0625 A 1.1115627,1.0611305 0 0 0 327.11133,261 Z m -10,3 A 1.1115627,1.0611305 0 0 0 316,265.06055 a 1.1115627,1.0611305 0 0 0 1.11133,1.0625 1.1115627,1.0611305 0 0 0 1.11133,-1.0625 A 1.1115627,1.0611305 0 0 0 317.11133,264 Z m 6,0 A 1.1115627,1.0611305 0 0 0 322,265.06055 a 1.1115627,1.0611305 0 0 0 1.11133,1.0625 1.1115627,1.0611305 0 0 0 1.11133,-1.0625 A 1.1115627,1.0611305 0 0 0 323.11133,264 Z" />
    </g>
    <path
       id="rect8"
       style="fill:url(#linearGradient9);fill-opacity:1;fill-rule:evenodd;stroke-width:3;stroke-linecap:square"
       transform="rotate(-39.985762)"
       d="m 60.416029,298.08626 c 6.186858,-3.64174 14.403325,-3.89826 24.016022,-1.82599 26.663829,45.55232 18.021709,90.35666 14.590707,135.57512 l -3.981086,-4.50934 c -6.281249,-6.02099 -13.48,-6.28118 -21.234218,-3.05371 l -10.238607,6.67183 C 41.807904,382.7643 41.803532,338.67511 60.416029,298.08626 Z" />
  </g>

</svg>
