<?xml version="1.0" encoding="UTF-8" standalone="no"?>
<svg
   id="svg_root"
   width="50"
   height="50"
   viewBox="215 150 320 240"
   version="1.1"
   xmlns="http://www.w3.org/2000/svg"
   xmlns:svg="http://www.w3.org/2000/svg">

  <g id="facegroup_1"  style="border:solid red 1px">
    <polygon
       points="371.27857,155.59605 416.68259,159.24743 454.36882,195.32347 451.60213,311.55527 407.71244,374.68423 346.98006,376.52916 296.43549,316.62872 287.15258,200.96346 325.48714,162.40963 "
       fill="#ffe3d7"
       stroke="none"
       stroke-width="1"
       id="polygon1" />
    <polygon
       points="338.31009,315.60725 335.7262,309.33397 363.0368,301.48544 376.48891,302.54251 390.04631,300.46612 417.54017,306.35817 415.10162,312.82099 "
       fill="#916e6e"
       stroke="none"
       stroke-width="1"
       id="polygon2" />
    <polygon
       points="344.38969,325.66051 366.07357,340.48977 377.73991,341.61424 389.39995,339.60943 409.68544,323.30807 417.58865,322.45096 392.73983,351.10731 378.09162,353.89549 363.38654,352.2151 336.56017,325.50891 "
       fill="#ac9393"
       stroke="none"
       stroke-width="1"
       id="polygon3" />
    <polygon
       points="395.82237,225.47506 407.65507,228.04625 421.48205,227.18913 432.15229,222.65101 423.02559,217.74233 409.26392,217.36755 "
       fill="#000000"
       stroke="none"
       stroke-width="1"
       id="polygon4" />
    <polygon
       points="350.60371,226.73451 338.77098,230.08704 324.92302,230.38612 313.26296,226.46719 322.44862,221.09096 336.25027,219.56417 "
       fill="#000000"
       stroke="none"
       stroke-width="1"
       id="polygon5" />
    <polygon
       points="408.41942,200.91358 389.10259,207.34277 391.58321,196.07231 409.71657,193.8232 425.77782,192.93766 438.11596,197.05453 445.77911,204.64499 441.66431,208.15332 434.28967,202.28439 423.24451,199.85112 "
       fill="#c8b900"
       stroke="none"
       stroke-width="1"
       id="polygon6" />
    <polygon
       points="336.74297,203.00385 356.72108,208.17362 353.84869,197.21695 335.0288,196.08301 318.15683,196.21679 305.3207,201.11608 297.53017,209.40152 302.23251,212.57711 309.86721,206.08583 321.2019,202.86386 "
       fill="#c8b900"
       stroke="none"
       stroke-width="1"
       id="polygon7" />
  </g>

</svg>
