<svg id="svg_root" 
width="50" height="80" 
viewBox="280 240 100 200"
xmlns="http://www.w3.org/2000/svg"

style='background-color: black'
>




<g id="facegroup_1" ><polygon points="371.27857208251953,155.5960464477539 416.6825866699219,159.24742698669434 454.3688201904297,195.32346725463867 451.60213470458984,311.55527114868164 407.71244049072266,374.6842288970947 346.9800567626953,376.52915954589844 296.435489654541,316.62872314453125 287.1525764465332,200.96345901489258 325.4871368408203,162.40962982177734" fill="rgb(255, 227, 215)" stroke="none" stroke-width="1"></polygon><polygon points="376.4889144897461,302.5425052642822 390.0463104248047,300.4661178588867 417.54016876220703,306.3581657409668 415.10162353515625,312.820987701416 338.3100891113281,315.6072521209717 335.72620391845703,309.3339729309082 363.03680419921875,301.4854431152344" fill="rgb(145, 110, 110)" stroke="none" stroke-width="1"></polygon><polygon points="377.73990631103516,341.61423683166504 389.3999481201172,339.609432220459 409.68544006347656,323.30806732177734 417.5886535644531,322.4509620666504 392.73983001708984,351.1073112487793 378.0916213989258,353.89549255371094 363.38653564453125,352.2150993347168 336.56017303466797,325.50890922546387 344.38968658447266,325.66051483154297 366.07357025146484,340.4897689819336" fill="rgb(172, 147, 147)" stroke="none" stroke-width="1"></polygon><polygon points="395.82237243652344,225.47505855560303 407.65506744384766,228.04624557495117 421.48204803466797,227.18912601470947 432.1522903442383,222.65101432800293 423.0255889892578,217.74232864379883 409.263916015625,217.36754894256592" fill="rgb(0, 0, 0)" stroke="none" stroke-width="1"></polygon><polygon points="350.6037139892578,226.7345094680786 338.77098083496094,230.0870418548584 324.9230194091797,230.38611888885498 313.2629585266113,226.46718978881836 322.44861602783203,221.09095573425293 336.2502670288086,219.56417083740234" fill="rgb(0, 0, 0)" stroke="none" stroke-width="1"></polygon><polygon points="391.58321380615234,196.0723114013672 409.71656799316406,193.82320404052734 425.77781677246094,192.93766021728516 438.11595916748047,197.05452919006348 445.77911376953125,204.64499473571777 441.66431427001953,208.15332412719727 434.28966522216797,202.28439331054688 423.24451446533203,199.85112190246582 408.41941833496094,200.91357707977295 389.1025924682617,207.3427677154541" fill="rgb(200, 185, 0)" stroke="none" stroke-width="1"></polygon><polygon points="353.8486862182617,197.21694946289062 335.02880096435547,196.08301162719727 318.15683364868164,196.21679306030273 305.3207015991211,201.11608028411865 297.5301742553711,209.40151691436768 302.2325134277344,212.57710933685303 309.8672103881836,206.08583450317383 321.20189666748047,202.86386489868164 336.7429733276367,203.0038547515869 356.72107696533203,208.17362308502197" fill="rgb(200, 185, 0)" stroke="none" stroke-width="1"></polygon></g></svg>
