<?xml version="1.0" encoding="UTF-8" standalone="no"?>
<!-- Created with Inkscape (http://www.inkscape.org/) -->

<svg
   width="200"
   height="200"
   viewBox="-15 -15 30 30"
   version="1.1"
   id="svg1"
   xmlns="http://www.w3.org/2000/svg"
   xmlns:svg="http://www.w3.org/2000/svg">
  <defs
     id="defs1" />
  <g  id="demon_boid"  >
    <path
       style="display:inline;fill:#ac9393;stroke:none;stroke-width:1px;stroke-linecap:butt;stroke-linejoin:miter;stroke-opacity:1"
       d="M 5.6235848,0.32544769 C 5.2621954,0.25830069 5.0673364,0.38284069 4.8170459,0.44357629 4.6073524,0.66574019 4.8164757,1.0583521 4.6015447,1.4171165 4.0835605,1.74079 3.7658292,1.4894395 3.5052072,1.0741008 2.6669412,0.75212729 1.8845224,0.81433979 1.1202585,1.0014438 0.77365283,1.0862988 0.46274003,1.2036688 0.10339863,1.2326304 c -0.2959382,0.023852 -0.5183909,-0.067875 -0.75301561,-0.1765407 l -7.79987392,-0.78373381 -0.2526608,0.1429183 -0.191973,-0.033887 c -0.328621,0.014596 -0.802648,0.1320869 -1.2253503,0.2132583 -0.208728,-0.2182222 -0.292544,-0.412616 -0.274802,-0.5876365 0.5120043,-0.047955 1.0895553,0.097236 1.5295343,-0.1629543 -0.421025,-0.2200778 -0.998567,-0.022271 -1.5190223,-0.1013483 -0.02915,-0.2316075 0.14048,-0.3954864 0.328712,-0.5530287 0.4355103,0.071735 0.8525193,0.1408467 1.1263523,0.1896523 l 0.241508,-0.00231 0.1854463,0.074198 7.91049453,-0.68543469 c 0.2416393,-0.1123794 0.4617326,-0.1797105 0.7533632,-0.1716971 0.332219,0.00913 0.6356431,0.1731377 0.93781177,0.2636006 0.8711399,0.26080089 1.694533,0.35984699 2.393765,0.038265 0.329361,-0.3135058 0.6758456,-0.6206572 1.2541963,-0.2834974 0.1722886,0.39306028 0.0394,0.63886089 0.106535,0.94350329 0.2639801,0.077704 0.5279601,0.2386594 0.7919402,0.1402875"
       id="path87" />
    <path
       id="rect87"
       style="fill:#ac9393;fill-rule:evenodd;stroke-width:0.01;stroke-linecap:square"
       d="M 4.7662675,-1.3502986 3.4634231,-0.78122521 C 3.8284434,-1.2455175 2.1146732,-1.1929264 1.4519244,-1.3715958 L -0.58249867,-2.485726 c -0.0955582,-0.1060676 -0.12967382,-0.1809781 -0.20748625,-0.3110538 0.10419314,-0.053739 0.37016305,0.3087766 0.34655805,0.1153898 0.0534717,-0.2540727 0.002035,-0.4996004 -0.26230706,-0.6195047 -0.0636067,-0.028851 -0.12045,-0.011776 -0.17336612,-0.1393598 l 0.52365488,0.1229519 c 0.060639,0.3372391 0.2085634,0.5466068 0.342759,0.8498092 L 2.1804322,-1.784425 c 0.7320785,0.1091476 2.3093742,0.051543 2.5858349,0.4341293 z" />
    <path
       id="path88"
       style="fill:#ac9393;fill-rule:evenodd;stroke-width:0.01;stroke-linecap:square"
       d="M 4.7030923,1.321095 3.4002479,0.75202159 C 3.7652682,1.2163139 2.0919367,1.142864 1.4291879,1.3215335 l -2.03442308,1.1141301 c -0.0955582,0.1060677 -0.1296739,0.1809781 -0.2074863,0.3110538 0.1041931,0.053739 0.37016311,-0.3087766 0.34655811,-0.1153898 0.053472,0.2540727 0.00204,0.4996004 -0.26230711,0.6195047 -0.063607,0.028851 -0.12045,0.011776 -0.1733661,0.1393598 l 0.52365491,-0.1229519 c 0.060639,-0.337239 0.2085634,-0.5466068 0.3427589,-0.8498091 L 2.1576957,1.7343626 C 2.8897742,1.625215 4.4266313,1.7036786 4.7030923,1.321095 Z" />
    <path
       id="rect88"
       style="fill:#666666;fill-rule:evenodd;stroke-width:0.01;stroke-linecap:square"
       d="m -0.02226637,-0.15140461 c -0.339214,0.00879 -0.4540658,0.013619 -0.65332791,0.073023 l -3.38807772,-0.0751291 3.39226872,-0.0833219 c 0.19423081,0.064045 0.31472271,0.06932 0.64913691,0.085428 z" />
    <path
       style="display:inline;fill:#916f6f;stroke:none;stroke-width:1px;stroke-linecap:butt;stroke-linejoin:miter;stroke-opacity:1"
       d="m 6.8811187,-6.6561665 c -1.4106382,1.6358833 -2.1897952,3.6832153 -2.49517,6.03924549 -0.6783873,0.1585873 -1.2971769,0.0998258 -1.8936663,-0.0402632 C 3.2741201,-1.4698133 3.2471132,-3.5696261 1.8643188,-4.8195944 2.5345917,-6.3178855 2.3013864,-7.6058462 0.37619963,-8.4999122 0.97344073,-9.6268596 0.20929493,-10.552398 -0.81253568,-11.439814 2.5212751,-11.837239 6.1536049,-10.30454 6.8811187,-6.6561665 Z"
       id="path89" />
    <path
       style="display:inline;fill:#916f6f;stroke:none;stroke-width:1px;stroke-linecap:butt;stroke-linejoin:miter;stroke-opacity:1"
       d="M 6.7725391,6.6092018 C 5.3619009,4.9733185 4.5827439,2.9259865 4.2773691,0.56995599 3.5989818,0.41136899 2.9801922,0.47012599 2.3837028,0.61021599 3.1655405,1.4228456 3.1385336,3.5226584 1.7557392,4.7726267 2.4260121,6.2709178 2.1928068,7.5588785 0.26762003,8.452944 0.86486113,9.579892 0.10071533,10.505429 -0.92111528,11.392845 2.4126955,11.79027 6.0450253,10.257571 6.7725391,6.6091988 Z"
       id="path90" />
    <path
       style="display:inline;fill:#ac9393;stroke:none;stroke-width:0.840756px;stroke-linecap:butt;stroke-linejoin:miter;stroke-opacity:1"
       d="M 6.4684793,-1.0582606 C 7.0708294,-1.041053 7.105006,-0.85368664 7.4747992,-0.03772582 7.0914989,0.61116882 7.2290884,1.1115966 6.3981382,1.1047962 5.8568934,1.1411222 5.4156995,0.63500583 5.4274007,0.00453321 5.4093617,-0.52214437 5.8651505,-1.0621017 6.4684793,-1.0582606 Z"
       id="path86" />
    <path
       id="path91"
       style="fill:#d38d5f;fill-opacity:1;fill-rule:evenodd;stroke:none;stroke-width:0.01;stroke-linecap:square;stroke-dasharray:none;stroke-opacity:1"
       d="m 6.8851512,0.00190734 c 1.357e-4,-0.192177 -0.1210704,-0.75930192 0.054036,-0.94882192 C 6.7710397,-1.1692226 6.4824213,-1.1537575 6.1597886,-1.2246335 c -0.718311,-0.157799 -0.9273851,0.1246668 -1.3726459,-0.5845641 -0.04923,0.345479 -0.185078,0.507568 0.13548,0.84344594 C 4.3851434,-1.3047876 3.8782814,-1.0998287 3.3582551,-1.1287687 c 0.3214703,0.21190604 0.3191143,0.38701204 0.3031322,0.56056904 -0.259543,0.310945 -0.5843839,0.425861 -0.9203532,0.507369 0.3070896,0.226849 0.4846976,0.6563 1.0644222,0.456554 C 3.496545,0.79089634 3.4084447,1.1097164 3.2387663,1.4567444 3.7721554,1.2989784 4.1324063,0.84333739 4.8527229,0.84491939 4.5184787,1.0783214 4.5970427,1.3829024 4.5082194,1.6586214 5.0446642,1.1674054 5.452341,1.5811564 5.950076,1.3081773 6.3421922,1.0931233 6.6149334,1.2815063 6.8133735,1.0195657 6.6809295,0.79589073 6.8554285,0.23498534 6.8851512,0.00190734 Z" />
    <path
       id="path92"
       style="fill:#deaa87;fill-opacity:1;fill-rule:evenodd;stroke:none;stroke-width:0.00686623;stroke-linecap:square;stroke-dasharray:none;stroke-opacity:1"
       d="m 6.8943773,0.02042117 c 7.81e-5,-0.15741838 -0.097178,-0.6365987 0.0036,-0.79184065 -0.096777,-0.18209968 -0.4077733,0.0858818 -0.5934646,0.0278249 -0.413424,-0.12925826 -0.568751,-0.10098064 -1.1979066,-0.41567162 0.081169,0.24406814 0.3614907,0.3494423 0.5459881,0.62457076 -0.3093463,-0.27771528 -1.3023074,-0.39221405 -1.6016087,-0.41591973 0.1850223,0.17357904 0.3230112,0.44618566 0.3138127,0.5883518 C 4.0903453,-0.27049297 3.7134544,0.0888715 3.354344,0.0992318 3.8320873,0.37312393 4.3912224,0.0926508 4.6089643,0.22990661 4.4311703,0.55360557 4.0805337,0.57260377 3.9828752,0.85686559 4.7446743,0.40810165 5.3441396,0.78892559 5.6971172,0.69632953 5.5047429,0.88751669 4.7742473,1.0884853 4.7231251,1.3143356 5.031876,0.91196469 5.921203,1.1628998 6.2076745,0.93929379 6.433357,0.76313618 6.6665388,1.0862318 6.780751,0.87166779 6.704523,0.68844838 6.87727,0.21134292 6.8943773,0.02042117 Z" />
    <path
       style="fill:#c83737;stroke:none;stroke-width:0.703731px;stroke-linecap:butt;stroke-linejoin:miter;stroke-opacity:1"
       d="m 7.1163182,0.20945108 c 0.022933,0.052014 0.049061,0.0898198 0.061269,0.18952901 -0.026272,0.1058667 -0.060514,0.16058244 -0.092122,0.23220113 -0.00262,-0.14960749 0.055784,-0.26229419 0.030853,-0.42173014 z"
       id="path94" />
    <path
       style="fill:#c83737;stroke:none;stroke-width:0.703731px;stroke-linecap:butt;stroke-linejoin:miter;stroke-opacity:1"
       d="m 7.1238212,-0.22495153 c 0.022933,-0.052014 0.049061,-0.0898198 0.061269,-0.18952901 -0.026272,-0.1058667 -0.060514,-0.16058244 -0.092122,-0.23220113 -0.00262,0.14960749 0.055784,0.26229419 0.030853,0.42173014 z"
       id="path95" />
    <path
       style="fill:#916f6f;stroke:none;stroke-width:0.703731px;stroke-linecap:butt;stroke-linejoin:miter;stroke-opacity:1"
       d="m 7.0912993,-0.12878993 c -0.012517,-0.18994799 -0.039937,-0.43315905 -0.062345,-0.63001714 -0.00262,0.14960749 0.027717,0.47453608 0.062345,0.63001714 z"
       id="path96" />
    <path
       style="fill:#916f6f;stroke:none;stroke-width:0.703731px;stroke-linecap:butt;stroke-linejoin:miter;stroke-opacity:1"
       d="M 7.0861757,0.1396898 C 7.0736587,0.32963779 7.0437497,0.57038026 7.0213417,0.76723835 7.0187217,0.61763086 7.0515487,0.29517086 7.0861757,0.1396898 Z"
       id="path97" />
    <path
       style="fill:#4d4d4d;stroke:none;stroke-width:0.703731px;stroke-linecap:butt;stroke-linejoin:miter;stroke-opacity:1"
       d="m 7.1062836,0.17228685 c 0.04263,0.11610754 0.0031,0.31278906 -0.029857,0.51278175 0.00438,-0.15236009 0.048062,-0.35672801 0.029857,-0.51278175 z"
       id="path98" />
    <path
       style="fill:#4d4d4d;stroke:none;stroke-width:0.703731px;stroke-linecap:butt;stroke-linejoin:miter;stroke-opacity:1"
       d="m 7.1155551,-0.18234135 c 0.04263,-0.11610754 0.0031,-0.31278906 -0.029857,-0.51278175 0.00438,0.15236009 0.048062,0.35672801 0.029857,0.51278175 z"
       id="path99" />
  </g>
</svg>
