<?xml version="1.0" encoding="UTF-8" standalone="no"?>
<!-- Created with Inkscape (http://www.inkscape.org/) -->

<svg
   width="200"
   height="200"
   viewBox="-10 -10 20 20"
   version="1.1"
   id="svg1"
   xmlns="http://www.w3.org/2000/svg"
   xmlns:svg="http://www.w3.org/2000/svg">
  <defs
     id="defs1" />
  <g id="waspboid" >
    <path
       id="path77"
       style="display:inline;fill:#000000;stroke:none;stroke-width:0.530755px;stroke-linecap:butt;stroke-linejoin:miter;stroke-opacity:1"
       d="m 0.28522674,-2.6726259 c -0.16240542,-0.3757072 -0.48422018,-0.1410534 -0.767506,0.1200196 l -0.390506,1.0061302 -0.32023234,1.30123656 c -0.1638264,0.640289 0.085977,1.25283764 0.23293314,1.88149284 l 0.2643387,0.2886512 0.1396317,0.3197176 0.090486,0.056111 -0.03678,-0.3056805 0.1693742,0.3656547 0.1450509,0.075481 0.006,-0.5396952 -0.5650479,-0.405553 c -0.1015265,-0.3382879 0.0302323,-0.82017873 0.1061341,-1.26768591 l -0.064145,-0.58548311 C 0.08957944,-1.162958 0.28636816,-2.2082895 0.28522674,-2.6726259 Z" />
    <path
       id="path62"
       style="display:inline;fill:#ffe680;stroke:none;stroke-width:1px;stroke-linecap:butt;stroke-linejoin:miter;stroke-opacity:1"
       d="m -0.40580987,-3.1818435 c -0.58448159,0.083559 -0.76749923,0.3362296 -1.10701313,0.522978 -0.2055382,0.4215286 -0.1060347,0.7113791 -0.1590521,1.0670686 -0.3047137,0.85064554 -1.9108785,0.97823559 -2.546875,1.7949219 -0.4357374,0.8314417 -0.261265,1.4114065 0.3457031,2.2597656 l 2.3203125,2.5566406 c 0.172357,0.3035685 0.2913563,0.9574152 0.1435503,1.5131106 L -1.1757813,7.2480469 -0.82421875,5.5722656 1.1074219,8.4414062 -0.31640625,4.6601562 -0.10742188,3.8925781 -1.5820312,1.8535156 C -1.7812574,1.0586788 -1.897433,0.29676362 -1.0742187,-0.09277344 -0.80900708,-0.3991637 -0.42962193,-0.63891513 -0.05698995,-0.79739974 0.43856414,-1.0204564 0.42927998,-1.298659 0.35438347,-1.5841236 0.11595915,-2.4928668 -0.07561879,-2.6933804 0.31640625,-3.2773438 l -0.71048206,-0.3772716 c 0.0487216,0.1680046 0.25202377,0.3665948 -0.0117341,0.4727719 z" />
    <path
       id="path83"
       style="display:inline;fill:#000000;fill-opacity:1;stroke:none;stroke-width:1px;stroke-linecap:butt;stroke-linejoin:miter;stroke-opacity:1"
       d="m -2.6753789,1.8094139 1.5409565,2.5027179 C -1.3452076,4.4280379 -1.472766,5.4421781 -1.3759906,6.58081 l 0.2334029,0.7154051 0.35156252,-1.6757813 0.2687836,-0.5500183 0.2390289,-0.3620911 0.2089844,-0.7675781 L -1.5488376,1.9016838 -1.6956209,1.0838611 c 0.073565,0.383287 -0.2899492,0.6590995 -0.979758,0.7255528 z" />
    <path id="wing_up"
       style="display:none;fill:#ececec;stroke:none;stroke-width:1px;stroke-linecap:butt;stroke-linejoin:miter;stroke-opacity:1"
       d="m -7.992788,-8.7714279 c 1.400027,0.3007324 2.8177589,0.7089838 4.4806388,2.6059735 l 2.79507616,3.128152 -0.83036006,0.5415096 C -2.7489027,-4.5361981 -4.8474489,-4.4367427 -6.5253585,-5.3406617 -7.2904344,-6.4405312 -9.2782681,-7.7905874 -7.992788,-8.7714279 Z"
    />
    <path id="wing_down"
       style="display:none;fill:#ececec;stroke:none;stroke-width:0.58151px;stroke-linecap:butt;stroke-linejoin:miter;stroke-opacity:1"
       d="m -9.3144511,-4.3101974 c 1.4990431,-0.2636349 4.1238068,0.1142442 5.7866867,0.7557197 l 2.79507613,1.0577985 -0.83036003,0.1831139 c -1.2014696,-0.6899721 -4.6060637,-0.530839 -6.2839733,-0.8365032 -0.8962153,-0.095448 -2.2574084,-0.2516399 -1.4674295,-1.1601289 z"
    />
    <path id="wing_animation_path" 
        display="inline"
        fill="#ececec"
    >
        <animate id="wind_anim"
            attributeName="d"
            values="
m -7.992788,-8.7714279 c 1.400027,0.3007324 2.8177589,0.7089838 4.4806388,2.6059735 l 2.79507616,3.128152 -0.83036006,0.5415096 C -2.7489027,-4.5361981 -4.8474489,-4.4367427 -6.5253585,-5.3406617 -7.2904344,-6.4405312 -9.2782681,-7.7905874 -7.992788,-8.7714279 Z; 
m -9.3144511,-4.3101974 c 1.4990431,-0.2636349 4.1238068,0.1142442 5.7866867,0.7557197 l 2.79507613,1.0577985 -0.83036003,0.1831139 c -1.2014696,-0.6899721 -4.6060637,-0.530839 -6.2839733,-0.8365032 -0.8962153,-0.095448 -2.2574084,-0.2516399 -1.4674295,-1.1601289 z; 
m -7.992788,-8.7714279 c 1.400027,0.3007324 2.8177589,0.7089838 4.4806388,2.6059735 l 2.79507616,3.128152 -0.83036006,0.5415096 C -2.7489027,-4.5361981 -4.8474489,-4.4367427 -6.5253585,-5.3406617 -7.2904344,-6.4405312 -9.2782681,-7.7905874 -7.992788,-8.7714279 Z
"
            dur="0.1s"
            repeatCount="indefinite" 
        />
    </path>
    <path
       id="path74"
       style="display:inline;fill:#000000;stroke:none;stroke-width:1px;stroke-linecap:butt;stroke-linejoin:miter;stroke-opacity:1"
       d="m -0.00754644,7.9606058 c 0.01346605,0.093205 0.39096832,0.097696 0.5865522,0.1462959 C 0.78102412,8.2678443 0.83100155,8.4922272 0.95699944,8.68489 1.2042142,8.9159075 1.4554111,8.8753375 1.7046169,8.9705612 L 1.1296278,7.9602227 0.3806172,6.9589047 0.27969333,7.2193504 c 0.0113838,0.321621 -0.29755762,0.3536005 -0.28723977,0.7412554 z" />
    <path
       id="path75"
       style="display:inline;fill:#000000;stroke:none;stroke-width:1px;stroke-linecap:butt;stroke-linejoin:miter;stroke-opacity:1"
       d="m -1.9592493,6.6075285 c -0.057241,0.074779 0.2034182,0.3478818 0.3053745,0.5217206 0.026114,0.2569669 -0.099415,0.449549 -0.1491224,0.6743236 0.00759,0.3382699 0.2121908,0.4895502 0.3182862,0.7343253 L -1.1641002,7.420488 -0.97157982,6.1849353 -1.2283773,6.294811 c -0.2220435,0.2329514 -0.4608605,0.034371 -0.730872,0.3127175 z" />
    <path
       id="path76"
       style="display:inline;fill:#000000;stroke:none;stroke-width:0.628773px;stroke-linecap:butt;stroke-linejoin:miter;stroke-opacity:1"
       d="M -0.91193096,-2.9312522 C -1.2949766,-2.830695 -1.4629305,-2.7829009 -1.5399413,-2.3391348 l 0.3555344,1.285757 0.6316812,1.55040631 C -0.24771344,1.2637295 0.42213802,1.7498047 1.0078517,2.3152497 l 0.4520067,0.1398202 0.3582265,0.2480774 0.1242275,0.00338 -0.252553,-0.2960484 0.4186988,0.27783 0.1888061,-0.00965 L 1.9173354,2.1128064 1.102182,2.0342131 C 0.76612669,1.7436006 0.54443801,1.1614213 0.29536583,0.64905354 L -0.18249991,0.07818431 C -0.01550861,-1.2395407 -0.41442627,-1.7399512 -0.91193096,-2.9312522 Z" />
    <g
       id="g81">
      <path
         style="fill:#000000;fill-opacity:1;stroke:none;stroke-width:1px;stroke-linecap:butt;stroke-linejoin:miter;stroke-opacity:1"
         d="M 0.42598372,-5.0160372 C 0.53818817,-5.569249 0.76696064,-6.4931038 1.1455622,-7.0596809 l 1.2281776,-1.2719014 c 0.2975225,-0.114299 0.269102,0.0333 0.2915591,0.1400183 -0.092151,0.265062 -0.6059193,0.4655612 -1.3009909,1.2876697 -0.49635646,0.7631133 -0.63775073,1.4489034 -0.8235219,1.9821347 z"
         id="path80" />
      <path
         style="display:inline;fill:#000000;stroke:none;stroke-width:0.52284px;stroke-linecap:butt;stroke-linejoin:miter;stroke-opacity:1"
         d="m 1.1588113,-5.1571715 c 0.5576445,-0.0191 0.8637404,0.4654154 0.9638946,1.1104117 0.089354,0.5754411 -0.2235831,0.6858616 -0.4541203,0.5758045 -0.4030177,-0.1923978 -0.79423398,-0.5861364 -0.79858688,-1.0385192 -0.00193,-0.2003342 0.070139,-0.6402071 0.28881258,-0.647697 z"
         id="path79" />
      <path
         style="fill:#000000;fill-opacity:1;stroke:none;stroke-width:1px;stroke-linecap:butt;stroke-linejoin:miter;stroke-opacity:1"
         d="M 0.72370073,-4.9876637 C 1.0309292,-5.4612076 1.5825058,-6.2368414 2.142479,-6.6251438 l 1.6089931,-0.7330037 c 0.3187105,0.00275 0.2381512,0.1296486 0.2199155,0.2371687 -0.1829198,0.2128146 -0.7344218,0.2109743 -1.682517,0.7209765 -0.7415884,0.5279757 -1.1245844,1.1141621 -1.49293011,1.5421433 z"
         id="path81" />
      <path
         style="display:inline;fill:#ffe680;fill-opacity:1;stroke:none;stroke-width:1px;stroke-linecap:butt;stroke-linejoin:miter;stroke-opacity:1"
         d="m -0.40404036,-3.6065039 c 0,0 -0.30915587,-0.5748476 0.04987,-1.0477621 0.21894492,-0.2883977 0.78733902,-0.7483903 0.78733902,-0.7483903 l 0.95227874,0.5958478 c 0.5579281,0.7131845 0.6995498,1.4515714 0.8711282,2.3111949 l -0.5758609,0.1450923 c -1.2037228,-0.542051 -1.93715413,-0.8454024 -2.08475506,-1.2559826 z"
         id="path68" />
      <path
         style="display:inline;fill:#000000;stroke:none;stroke-width:0.692162px;stroke-linecap:butt;stroke-linejoin:miter;stroke-opacity:1"
         d="m -0.40744363,-5.3298074 c 0.68388878,-0.3174754 1.32113165,0.094088 1.78697143,0.8044764 0.4156047,0.6337813 0.084564,0.9299372 -0.260561,0.9215887 -0.60333512,-0.014594 -1.29849067,-0.2737137 -1.54321417,-0.8068033 -0.10837394,-0.2360746 -0.25137467,-0.7947678 0.0168037,-0.9192618 z"
         id="path69" />
      <path
         style="display:inline;fill:#4d4d4d;stroke:none;stroke-width:0.304795px;stroke-linecap:butt;stroke-linejoin:miter;stroke-opacity:1"
         d="m 1.6528122,-2.3541257 c 0.036652,0.018638 0.053864,0.052538 0.1642543,0.013286 l 0.2914164,-0.120334 -0.2627993,-0.033595 -0.3313551,-0.1682778 z"
         id="path73" />
      <path
         style="display:inline;fill:#333333;stroke:none;stroke-width:0.304795px;stroke-linecap:butt;stroke-linejoin:miter;stroke-opacity:1"
         d="m 1.488485,-2.7771232 c 0.101631,-0.05998 0.2528305,-0.053943 0.6107045,0.072176 0.2262152,-0.00114 0.2348426,0.1068919 0.1299115,0.2309749 l -0.3376132,0.018903 -0.370527,-0.1714365 c -0.02659,-0.039433 -0.07385,-0.06474 -0.032476,-0.1506174 z"
         id="path72" />
      <path
         style="display:inline;fill:#f2f2f2;stroke:none;stroke-width:0.253377px;stroke-linecap:butt;stroke-linejoin:miter;stroke-opacity:1"
         d="m -0.05824822,-5.4103348 c 0.36271016,-0.038954 0.64069912,0.1099221 0.8091904,0.3259559 0.15032162,0.1927371 -0.037332,0.24889 -0.20608083,0.2244233 -0.29500086,-0.042771 -0.6143512,-0.1554812 -0.689308,-0.310828 -0.033194,-0.068794 -0.0560338,-0.2242759 0.08619843,-0.2395512 z"
         id="path78" />
    </g>
    <path
       id="path82"
       style="display:inline;fill:#000000;fill-opacity:1;stroke:none;stroke-width:1px;stroke-linecap:butt;stroke-linejoin:miter;stroke-opacity:1"
       d="m -3.8228894,-0.19248581 c -1.0304197,0.87639315 -0.6894686,1.76112461 -0.0825,2.60948361 l 2.2536716,2.450674 0.3659841,0.6518231 L 0.30392793,7.3664315 0.83788885,7.6992031 -0.3802986,4.58469 -1.1020394,3.7256793 -2.5305061,1.7786063 c -0.79336,0.151079 -1.8275131,-0.6432654 -1.2923833,-1.97109211 z" />
    <path
       style="fill:#000000;fill-opacity:1;stroke:none;stroke-width:1px;stroke-linecap:butt;stroke-linejoin:miter;stroke-opacity:1"
       d="M -3.3866635,2.3702277 C -3.7611952,1.5572347 -4.1544162,0.74862846 -3.7456581,-0.24821696 -5.1822376,0.74374204 -5.13403,2.089807 -5.0789778,3.2195433 -4.9030765,1.7850866 -3.9507948,1.921052 -3.3866635,2.3702277 Z"
       id="path84" />
  </g>
</svg>
