<?xml version="1.0" encoding="UTF-8" standalone="no"?>
<!-- Created with Inkscape (http://www.inkscape.org/) -->

<svg
   width="260"
   height="100"
   viewBox="0 0 260 100"
   version="1.1"
   id="svg1"
   inkscape:version="1.3.2 (091e20e, 2023-11-25)"
   sodipodi:docname="anim_fixed_int_update.svg"
   xmlns:inkscape="http://www.inkscape.org/namespaces/inkscape"
   xmlns:sodipodi="http://sodipodi.sourceforge.net/DTD/sodipodi-0.dtd"
   xmlns:xlink="http://www.w3.org/1999/xlink"
   xmlns="http://www.w3.org/2000/svg"
   xmlns:svg="http://www.w3.org/2000/svg">
  <sodipodi:namedview
     id="namedview1"
     pagecolor="#ffffff"
     bordercolor="#666666"
     borderopacity="1.0"
     inkscape:showpageshadow="2"
     inkscape:pageopacity="0.0"
     inkscape:pagecheckerboard="0"
     inkscape:deskcolor="#d1d1d1"
     inkscape:document-units="px"
     inkscape:zoom="2"
     inkscape:cx="138.75"
     inkscape:cy="119.25"
     inkscape:window-width="1770"
     inkscape:window-height="985"
     inkscape:window-x="86"
     inkscape:window-y="41"
     inkscape:window-maximized="0"
     inkscape:current-layer="svg1"
     showgrid="true">
    <inkscape:grid
       id="grid1"
       units="px"
       originx="0"
       originy="0"
       spacingx="1"
       spacingy="1"
       empcolor="#3f3fff"
       empopacity="0.25098039"
       color="#3f3fff"
       opacity="0.1254902"
       empspacing="5"
       dotted="false"
       gridanglex="30"
       gridanglez="30"
       visible="true" />
  </sodipodi:namedview>
  <defs
     id="defs1">
    <linearGradient
       id="linearGradient49"
       inkscape:collect="always">
      <stop
         style="stop-color:#9e852a;stop-opacity:1;"
         offset="0"
         id="stop49" />
      <stop
         style="stop-color:#decc85;stop-opacity:1;"
         offset="0.69601518"
         id="stop51" />
      <stop
         style="stop-color:#c9ad3d;stop-opacity:1;"
         offset="1"
         id="stop50" />
    </linearGradient>
    <linearGradient
       inkscape:collect="always"
       xlink:href="#linearGradient49"
       id="linearGradient50"
       x1="-24.5"
       y1="0.43000001"
       x2="24.5"
       y2="0.43000001"
       gradientUnits="userSpaceOnUse" />
  </defs>
  <g
     inkscape:label="diagram"
     inkscape:groupmode="layer"
     id="layer1">
    <rect
       style="fill:#cccccc;fill-opacity:0.997616;fill-rule:evenodd;stroke:#000000;stroke-width:0.5;stroke-linecap:square;stroke-dasharray:none;stroke-opacity:1"
       id="rect1"
       width="75"
       height="80"
       x="92.751953"
       y="10.681641"
       ry="13.58325"
       inkscape:label="box" />
    <g
       id="g7"
       transform="translate(-22.248047,-74.318359)"
       inkscape:label="delta_t">
      <rect
         style="fill:#666666;fill-opacity:0.997616;fill-rule:evenodd;stroke:none;stroke-width:0.5;stroke-linecap:square;stroke-dasharray:none;stroke-opacity:1"
         id="rect2"
         width="15"
         height="15"
         x="200"
         y="140"
         ry="0" />
      <text
         xml:space="preserve"
         style="font-style:normal;font-variant:normal;font-weight:normal;font-stretch:normal;font-size:8px;line-height:normal;font-family:sans-serif;font-variant-ligatures:normal;font-variant-position:normal;font-variant-caps:normal;font-variant-numeric:normal;font-variant-alternates:normal;font-variant-east-asian:normal;font-feature-settings:normal;font-variation-settings:normal;text-indent:0;text-align:start;text-decoration-line:none;text-decoration-style:solid;text-decoration-color:#000000;letter-spacing:normal;word-spacing:normal;text-transform:none;writing-mode:lr-tb;direction:ltr;text-orientation:mixed;dominant-baseline:auto;baseline-shift:baseline;text-anchor:start;white-space:normal;shape-padding:0;shape-margin:0;inline-size:0;opacity:1;vector-effect:none;fill:#ececec;fill-opacity:1;stroke:none;stroke-width:2;stroke-linecap:butt;stroke-linejoin:miter;stroke-miterlimit:4;stroke-dasharray:none;stroke-dashoffset:0;stroke-opacity:1;-inkscape-stroke:none;stop-color:#000000;stop-opacity:1"
         x="207.5"
         y="147.5"
         id="text2"
         transform="translate(-4.6171875,2.859375)"><tspan
           sodipodi:role="line"
           id="tspan2"
           x="207.5"
           y="147.5"
           style="font-style:normal;font-variant:normal;font-weight:normal;font-stretch:normal;font-size:8px;font-family:serif;-inkscape-font-specification:serif;fill:#ececec">Δt</tspan></text>
    </g>
    <path
       style="fill:none;stroke:#000000;stroke-width:1px;stroke-linecap:butt;stroke-linejoin:miter;stroke-opacity:1"
       d="m 197.75195,20.681641 h 5 l 0.27211,60 h -5.35361"
       id="path2"
       inkscape:label="interval_line" />
    <text
       xml:space="preserve"
       style="font-style:normal;font-variant:normal;font-weight:normal;font-stretch:normal;font-size:12px;line-height:normal;font-family:sans-serif;font-variant-ligatures:normal;font-variant-position:normal;font-variant-caps:normal;font-variant-numeric:normal;font-variant-alternates:normal;font-variant-east-asian:normal;font-feature-settings:normal;font-variation-settings:normal;text-indent:0;text-align:start;text-decoration-line:none;text-decoration-style:solid;text-decoration-color:#000000;letter-spacing:normal;word-spacing:normal;text-transform:none;writing-mode:lr-tb;direction:ltr;text-orientation:mixed;dominant-baseline:auto;baseline-shift:baseline;text-anchor:start;white-space:normal;shape-padding:0;shape-margin:0;inline-size:0;opacity:1;vector-effect:none;fill:#333333;fill-opacity:1;stroke:none;stroke-width:2;stroke-linecap:butt;stroke-linejoin:miter;stroke-miterlimit:4;stroke-dasharray:none;stroke-dashoffset:0;stroke-opacity:1;-inkscape-stroke:none;stop-color:#000000;stop-opacity:1"
       x="190"
       y="115"
       id="text3"
       transform="rotate(-90,186.80644,83.154494)"
       inkscape:label="interval_text"><tspan
         sodipodi:role="line"
         id="tspan3"
         x="190"
         y="115">INTERVAL</tspan></text>
    <text
       xml:space="preserve"
       style="font-style:normal;font-variant:normal;font-weight:normal;font-stretch:normal;font-size:12px;line-height:normal;font-family:sans-serif;font-variant-ligatures:normal;font-variant-position:normal;font-variant-caps:normal;font-variant-numeric:normal;font-variant-alternates:normal;font-variant-east-asian:normal;font-feature-settings:normal;font-variation-settings:normal;text-indent:0;text-align:start;text-decoration-line:none;text-decoration-style:solid;text-decoration-color:#000000;letter-spacing:normal;word-spacing:normal;text-transform:none;writing-mode:lr-tb;direction:ltr;text-orientation:mixed;dominant-baseline:auto;baseline-shift:baseline;text-anchor:start;white-space:normal;shape-padding:0;shape-margin:0;inline-size:0;opacity:1;vector-effect:none;fill:#333333;fill-opacity:1;stroke:none;stroke-width:2;stroke-linecap:butt;stroke-linejoin:miter;stroke-miterlimit:4;stroke-dasharray:none;stroke-dashoffset:0;stroke-opacity:1;-inkscape-stroke:none;stop-color:#000000;stop-opacity:1"
       x="130"
       y="110"
       id="text4"
       transform="translate(-29.429811,-83.535156)"
       inkscape:label="update_text"><tspan
         sodipodi:role="line"
         id="tspan4"
         x="130"
         y="110"
         style="font-style:normal;font-variant:normal;font-weight:normal;font-stretch:normal;font-family:Monospace;-inkscape-font-specification:Monospace">update( )</tspan></text>
    <text
       xml:space="preserve"
       style="font-style:normal;font-variant:normal;font-weight:normal;font-stretch:normal;font-size:8px;line-height:normal;font-family:sans-serif;font-variant-ligatures:normal;font-variant-position:normal;font-variant-caps:normal;font-variant-numeric:normal;font-variant-alternates:normal;font-variant-east-asian:normal;font-feature-settings:normal;font-variation-settings:normal;text-indent:0;text-align:start;text-decoration-line:none;text-decoration-style:solid;text-decoration-color:#000000;letter-spacing:normal;word-spacing:normal;text-transform:none;writing-mode:lr-tb;direction:ltr;text-orientation:mixed;dominant-baseline:auto;baseline-shift:baseline;text-anchor:start;white-space:normal;shape-padding:0;shape-margin:0;inline-size:0;opacity:1;vector-effect:none;fill:#333333;fill-opacity:1;stroke:none;stroke-width:2;stroke-linecap:butt;stroke-linejoin:miter;stroke-miterlimit:4;stroke-dasharray:none;stroke-dashoffset:0;stroke-opacity:1;-inkscape-stroke:none;stop-color:#000000;stop-opacity:1"
       x="135"
       y="130"
       id="text6"
       transform="translate(15.388337,-103.98633)"
       inkscape:label="dt"><tspan
         sodipodi:role="line"
         id="tspan6"
         x="135"
         y="130"
         style="font-style:normal;font-variant:normal;font-weight:normal;font-stretch:normal;font-size:8px;font-family:serif;-inkscape-font-specification:serif;fill:#d40000">Δt</tspan></text>
    <text
       xml:space="preserve"
       style="font-style:normal;font-variant:normal;font-weight:normal;font-stretch:normal;font-size:6px;line-height:normal;font-family:sans-serif;font-variant-ligatures:normal;font-variant-position:normal;font-variant-caps:normal;font-variant-numeric:normal;font-variant-alternates:normal;font-variant-east-asian:normal;font-feature-settings:normal;font-variation-settings:normal;text-indent:0;text-align:start;text-decoration-line:none;text-decoration-style:solid;text-decoration-color:#000000;letter-spacing:normal;word-spacing:normal;text-transform:none;writing-mode:lr-tb;direction:ltr;text-orientation:mixed;dominant-baseline:auto;baseline-shift:baseline;text-anchor:start;white-space:normal;shape-padding:0;shape-margin:0;inline-size:0;opacity:1;vector-effect:none;fill:#d40000;fill-opacity:1;stroke:none;stroke-width:2;stroke-linecap:butt;stroke-linejoin:miter;stroke-miterlimit:4;stroke-dasharray:none;stroke-dashoffset:0;stroke-opacity:1;-inkscape-stroke:none;stop-color:#000000;stop-opacity:1"
       x="130"
       y="110"
       id="text7"
       transform="translate(46.438974,-19.15332)"
       inkscape:label="accumulator"><tspan
         sodipodi:role="line"
         id="tspan7"
         x="130"
         y="110"
         style="font-style:normal;font-variant:normal;font-weight:normal;font-stretch:normal;font-size:6px;font-family:Monospace;-inkscape-font-specification:Monospace;fill:#d40000">accumulator</tspan></text>
    <text
       xml:space="preserve"
       style="font-style:normal;font-variant:normal;font-weight:normal;font-stretch:normal;font-size:12px;line-height:normal;font-family:sans-serif;font-variant-ligatures:normal;font-variant-position:normal;font-variant-caps:normal;font-variant-numeric:normal;font-variant-alternates:normal;font-variant-east-asian:normal;font-feature-settings:normal;font-variation-settings:normal;text-indent:0;text-align:start;text-decoration-line:none;text-decoration-style:solid;text-decoration-color:#000000;letter-spacing:normal;word-spacing:normal;text-transform:none;writing-mode:lr-tb;direction:ltr;text-orientation:mixed;dominant-baseline:auto;baseline-shift:baseline;text-anchor:start;white-space:normal;shape-padding:0;shape-margin:0;inline-size:0;opacity:1;vector-effect:none;fill:#333333;fill-opacity:1;stroke:none;stroke-width:2;stroke-linecap:butt;stroke-linejoin:miter;stroke-miterlimit:4;stroke-dasharray:none;stroke-dashoffset:0;stroke-opacity:1;-inkscape-stroke:none;stop-color:#000000;stop-opacity:1"
       x="130"
       y="110"
       id="text51"
       transform="translate(-120.26494,-60.90039)"
       inkscape:label="trans_text"><tspan
         sodipodi:role="line"
         id="tspan51"
         x="130"
         y="110"
         style="font-style:normal;font-variant:normal;font-weight:normal;font-stretch:normal;font-family:Monospace;-inkscape-font-specification:Monospace">transform()</tspan></text>
  </g>
  <g
     inkscape:label="gear"
     transform="translate(130.25195,60.251641)"
     id="g48"
     style="fill:#decd87;stroke:#93710b;stroke-width:0.5;stroke-dasharray:none;stroke-opacity:1">
    <path
       id="path47"
       style="fill:url(#linearGradient50);fill-opacity:1;stroke:#93710b;stroke-width:0.5;stroke-dasharray:none;stroke-opacity:1"
       d="m -0.7734375,-24.497734 -0.9746094,2.285156 -0.2050781,1.365234 0.082031,0.88086 -2.5195312,0.40039 -0.1933594,-0.863281 -0.6171875,-1.236328 -1.6328125,-1.873047 -1.4726562,0.478516 -0.2207032,2.474609 0.2265626,1.363281 0.3515624,0.8125 -2.273437,1.15625 -0.449219,-0.759765 -0.970703,-0.984375 -2.13086,-1.275391 -1.251953,0.908203 0.554688,2.421875 0.636719,1.226563 0.583984,0.664062 -1.802734,1.802735 -0.664063,-0.583985 -1.226562,-0.636719 -2.419922,-0.554687 -0.910157,1.251953 1.275391,2.130859 0.984375,0.96875 0.761719,0.451172 -1.158203,2.2734378 -0.8125,-0.3515625 -1.363282,-0.2265625 -2.472656,0.2207031 -0.478515,1.4726562 1.871093,1.6328125 1.236328,0.6171875 0.863282,0.1933594 -0.400391,2.5195313 -0.878906,-0.082031 -1.367188,0.2050781 -2.285156,0.9746094 V 0.77375 l 2.285156,0.9746094 1.367188,0.2050781 0.878906,-0.082031 0.400391,2.5195312 -0.863282,0.1933594 -1.236328,0.6171875 -1.871093,1.6328125 0.478515,1.4726562 2.472656,0.2207032 1.363282,-0.2285157 0.8125,-0.3496093 1.158203,2.2714845 -0.761719,0.451172 -0.984375,0.970703 -1.275391,2.130859 0.910157,1.251953 2.419922,-0.554687 1.226562,-0.636719 0.664063,-0.583984 1.802734,1.802734 -0.583984,0.664062 -0.636719,1.226563 -0.554688,2.419922 1.251953,0.910156 2.13086,-1.275391 0.970703,-0.984375 0.449219,-0.761718 2.273437,1.158203 -0.3515624,0.8125 -0.2265626,1.363281 0.2207032,2.472656 1.4726562,0.478516 1.6328125,-1.871094 0.6171875,-1.236328 0.1933594,-0.863281 2.5195312,0.398437 -0.082031,0.88086 0.2050781,1.367187 0.9746094,2.285156 h 1.546875 L 1.7480469,22.213203 1.953125,20.846016 1.8710938,19.965156 4.390625,19.566719 4.5839844,20.43 l 0.6171875,1.236328 1.6328125,1.871094 1.4726562,-0.478516 0.2207032,-2.472656 -0.2265626,-1.363281 -0.3515624,-0.8125 2.2734372,-1.158203 0.449219,0.761718 0.970703,0.984375 2.13086,1.275391 1.251953,-0.910156 -0.554688,-2.419922 -0.636719,-1.226563 -0.583984,-0.664062 1.802734,-1.802734 0.664063,0.583984 1.226562,0.636719 2.419922,0.554687 0.910157,-1.251953 -1.275391,-2.130859 -0.984375,-0.970703 -0.761719,-0.451172 1.158203,-2.2714847 0.8125,0.3496093 1.363282,0.2285157 L 23.058594,8.3069531 23.537109,6.8342969 21.666016,5.2014844 20.429688,4.5842969 19.566406,4.3909375 19.966797,1.8714063 20.845703,1.9534375 22.212891,1.7483594 24.498047,0.77375 v -1.546875 l -2.285156,-0.9746094 -1.367188,-0.2050781 -0.878906,0.082031 -0.400391,-2.5195313 0.863282,-0.1933594 1.236328,-0.6171875 1.871093,-1.6328125 -0.478515,-1.4726562 -2.472656,-0.2207031 -1.363282,0.2265625 -0.8125,0.3515625 -1.158203,-2.2734375 0.761719,-0.451172 0.984375,-0.96875 1.275391,-2.130859 -0.910157,-1.251953 -2.419922,0.554687 -1.226562,0.636719 -0.664063,0.583985 -1.802734,-1.802735 0.583984,-0.664062 0.636719,-1.226563 0.554688,-2.421875 -1.251953,-0.908203 -2.13086,1.275391 -0.970703,0.984375 -0.449219,0.759765 -2.2734372,-1.15625 0.3515624,-0.8125 0.2265626,-1.363281 -0.2207032,-2.474609 -1.4726562,-0.478516 -1.6328125,1.873047 -0.6171875,1.236328 -0.1933594,0.863281 -2.5195312,-0.40039 0.082031,-0.88086 -0.2050781,-1.365234 -0.9746094,-2.285156 z M 0,-2.4996875 a 2.5,2.5 0 0 1 2.5,2.5 2.5,2.5 0 0 1 -2.5,2.5 2.5,2.5 0 0 1 -2.5,-2.5 2.5,2.5 0 0 1 2.5,-2.5 z" />
  </g>
</svg>
