<?xml version="1.0" encoding="UTF-8" standalone="no"?>
<!-- Created with Inkscape (http://www.inkscape.org/) -->

<svg
   width="100"
   height="100"
   viewBox="0 0 26.458333 26.458334"
   version="1.1"
   id="svg1"
   xmlns="http://www.w3.org/2000/svg"
   xmlns:svg="http://www.w3.org/2000/svg">
  <defs
     id="defs1" />
  <g
     id="layer1">
    <path
       id="rect3"
       style="fill:#999999;fill-opacity:1;stroke:none;stroke-width:0.132292;stroke-opacity:1"
       d="m 6.4441158,3.2371212 v 0.2449463 h -0.315743 v 0.5291666 h 0.315743 V 4.1631628 H 20.467032 V 4.0112341 h 0.213424 V 3.4820675 H 20.467032 V 3.2371212 Z" />
    <path
       id="path4"
       style="fill:#999999;fill-opacity:1;stroke:none;stroke-width:0.132292;stroke-opacity:1"
       d="m 6.21487,23.261419 v 0.244946 H 5.899127 v 0.529167 H 6.21487 v 0.151929 h 14.022917 v -0.151929 h 0.213424 v -0.529167 h -0.213424 v -0.244946 z" />
    <path
       style="color:#000000;fill:#999999;fill-opacity:1;-inkscape-stroke:none"
       d="m 7.1445312,3.9355469 c -0.2694051,1.5915538 -0.080442,2.7083759 0.3652344,3.5625 0.445676,0.8541241 1.1400713,1.4384643 1.8574219,1.9863281 0.7173505,0.547864 1.4575915,1.062807 2.0253905,1.773438 0.567799,0.71063 0.969986,1.613768 1.007813,2.96875 0.0238,0.852612 -0.296259,1.514724 -0.800782,2.130859 -0.504522,0.616135 -1.195489,1.176846 -1.8867184,1.796875 -1.3824591,1.240057 -2.7690024,2.743002 -2.6035156,5.425781 l 0.2636719,-0.01563 C 7.2134612,20.97734 8.5208555,19.580237 9.890625,18.351562 10.57551,17.737225 11.275401,17.171768 11.804688,16.525391 12.333974,15.879013 12.6918,15.14242 12.666016,14.21875 12.626806,12.814204 12.198301,11.841091 11.599609,11.091797 11.000918,10.342502 10.238114,9.816276 9.5273438,9.2734375 8.8165731,8.730599 8.1603931,8.1746879 7.7441406,7.3769531 7.3278882,6.5792184 7.1435672,5.5323095 7.40625,3.9804688 Z"
       id="path5" />
    <path
       style="color:#000000;fill:#999999;fill-opacity:1;-inkscape-stroke:none"
       d="M 19.775391,3.9609375 19.511719,4 c 0.220717,1.5390823 -0.01223,2.6118213 -0.482422,3.4472656 -0.470189,0.8354444 -1.185288,1.4373935 -1.945313,2.0078125 -0.760024,0.5704189 -1.562837,1.1067469 -2.191406,1.8203129 -0.628569,0.713565 -1.07598,1.610205 -1.109375,2.86914 -0.02574,0.970503 0.355941,1.74701 0.921875,2.425781 0.565934,0.678772 1.313783,1.268381 2.048828,1.896485 1.47009,1.256207 2.876109,2.636948 2.730469,5.138672 L 19.75,23.621094 c 0.151774,-2.607095 -1.344012,-4.090617 -2.824219,-5.355469 -0.740103,-0.632426 -1.477153,-1.217059 -2.017578,-1.865234 -0.540425,-0.648176 -0.88516,-1.349613 -0.861328,-2.248047 0.03185,-1.200548 0.445278,-2.024613 1.042969,-2.703125 0.59769,-0.678512 1.386541,-1.206982 2.154297,-1.7832034 0.767756,-0.5762217 1.516011,-1.2021157 2.015625,-2.0898437 0.499613,-0.8877281 0.742581,-2.0326442 0.515625,-3.6152344 z"
       id="path6" />
  </g>
  <g
     id="layer3"
     style="display:inline">
    <path
       style="fill:#999999;fill-opacity:1;stroke:none;stroke-width:0.264583px;stroke-linecap:butt;stroke-linejoin:miter;stroke-opacity:1"
       d="M 13.255831,12.067055 C 11.856268,9.9449528 8.9780639,8.6109824 8.1315434,7.0319783 9.9216899,7.5795207 14.680595,8.2083314 18.547463,7.5161367 16.900366,9.4059001 14.290997,10.546689 13.255831,12.067055 Z"
       id="path7" />
    <path
       style="fill:#999999;fill-opacity:1;stroke:none;stroke-width:0.264583px;stroke-linecap:butt;stroke-linejoin:miter;stroke-opacity:1"
       d="m 8.7655076,22.843011 9.7456574,-0.05641 c -2.637751,-1.084263 -2.555206,-2.027663 -5.201345,-2.080987 -1.954292,-0.03938 -2.724205,0.972773 -4.5443124,2.137397 z"
       id="path8" />
    <ellipse
       style="fill:#999999;fill-opacity:1;stroke:none;stroke-width:0.132292;stroke-opacity:1"
       id="path9"
       cx="12.862309"
       cy="17.395864"
       rx="0.16538703"
       ry="0.19941808" />
    <ellipse
       style="fill:#999999;fill-opacity:1;stroke:none;stroke-width:0.132292;stroke-opacity:1"
       id="ellipse9"
       cx="13.356294"
       cy="14.464067"
       rx="0.16538703"
       ry="0.19941808" />
    <ellipse
       style="fill:#999999;fill-opacity:1;stroke:none;stroke-width:0.132292;stroke-opacity:1"
       id="ellipse10"
       cx="13.192262"
       cy="15.799108"
       rx="0.16538703"
       ry="0.19941808" />
    <ellipse
       style="fill:#999999;fill-opacity:1;stroke:none;stroke-width:0.132292;stroke-opacity:1"
       id="ellipse11"
       cx="13.375157"
       cy="16.746632"
       rx="0.16538703"
       ry="0.19941808" />
    <ellipse
       style="fill:#999999;fill-opacity:1;stroke:none;stroke-width:0.132292;stroke-opacity:1"
       id="ellipse12"
       cx="13.219221"
       cy="18.004196"
       rx="0.16538703"
       ry="0.19941808" />
    <ellipse
       style="fill:#999999;fill-opacity:1;stroke:none;stroke-width:0.132292;stroke-opacity:1"
       id="ellipse13"
       cx="12.829756"
       cy="18.748812"
       rx="0.16538703"
       ry="0.19941808" />
    <ellipse
       style="fill:#999999;fill-opacity:1;stroke:none;stroke-width:0.132292;stroke-opacity:1"
       id="ellipse14"
       cx="14.078669"
       cy="19.83423"
       rx="0.16538703"
       ry="0.19941808" />
    <ellipse
       style="fill:#999999;fill-opacity:1;stroke:none;stroke-width:0.132292;stroke-opacity:1"
       id="ellipse15"
       cx="13.710207"
       cy="18.925323"
       rx="0.16538703"
       ry="0.19941808" />
    <ellipse
       style="fill:#999999;fill-opacity:1;stroke:none;stroke-width:0.132292;stroke-opacity:1"
       id="ellipse16"
       cx="13.853792"
       cy="17.642984"
       rx="0.16538703"
       ry="0.19941808" />
    <ellipse
       style="fill:#999999;fill-opacity:1;stroke:none;stroke-width:0.132292;stroke-opacity:1"
       id="ellipse17"
       cx="12.791767"
       cy="20.222567"
       rx="0.16538703"
       ry="0.19941808" />
    <ellipse
       style="fill:#999999;fill-opacity:1;stroke:none;stroke-width:0.132292;stroke-opacity:1"
       id="ellipse18"
       cx="13.362496"
       cy="19.636534"
       rx="0.16538703"
       ry="0.19941808" />
    <ellipse
       style="fill:#999999;fill-opacity:1;stroke:none;stroke-width:0.132292;stroke-opacity:1"
       id="ellipse19"
       cx="13.529977"
       cy="16.242491"
       rx="0.16538703"
       ry="0.19941808" />
    <ellipse
       style="fill:#999999;fill-opacity:1;stroke:none;stroke-width:0.132292;stroke-opacity:1"
       id="ellipse20"
       cx="13.148663"
       cy="15.28466"
       rx="0.16538703"
       ry="0.19941808" />
    <ellipse
       style="fill:#999999;fill-opacity:1;stroke:none;stroke-width:0.132292;stroke-opacity:1"
       id="ellipse21"
       cx="13.379998"
       cy="20.590515"
       rx="0.16538703"
       ry="0.19941808" />
    <ellipse
       style="fill:#999999;fill-opacity:1;stroke:none;stroke-width:0.132292;stroke-opacity:1"
       id="ellipse22"
       cx="14.162791"
       cy="20.423229"
       rx="0.16538703"
       ry="0.19941808" />
  </g>
</svg>
