<?xml version="1.0" encoding="UTF-8" standalone="no"?>
<!-- Created with Inkscape (http://www.inkscape.org/) -->

<svg
   width="300"
   height="200"
   viewBox="0 0 79.375 52.916668"
   version="1.1"
   id="svg1"
   xmlns:xlink="http://www.w3.org/1999/xlink"
   xmlns="http://www.w3.org/2000/svg"
   xmlns:svg="http://www.w3.org/2000/svg">
  <defs
     id="defs1">
    <linearGradient
       id="linearGradient16">
      <stop
         style="stop-color:#dbdee3;stop-opacity:1"
         offset="0"
         id="stop16" />
      <stop
         style="stop-color:#e7ebeb;stop-opacity:0.82352942;"
         offset="0.17521474"
         id="stop18" />
      <stop
         style="stop-color:#93a7ac;stop-opacity:0;"
         offset="1"
         id="stop17" />
    </linearGradient>
    <radialGradient
       xlink:href="#linearGradient16"
       id="radialGradient17"
       cx="34.997818"
       cy="29.5236"
       fx="34.997818"
       fy="29.5236"
       r="34.124996"
       gradientTransform="matrix(3.0109165,0.15142771,-0.05404618,1.0753728,-67.111686,-9.5478533)"
       gradientUnits="userSpaceOnUse" />
  </defs>
  <g
     id="layer3"
     style="display:none">
    <ellipse
       style="fill:#93a7ac;stroke-width:0.264583"
       id="ellipse6"
       cx="117.59452"
       cy="-27.864958"
       rx="22.192986"
       ry="15.600046" />
    <ellipse
       style="fill:#93a7ac;stroke-width:0.173269"
       id="ellipse7"
       cx="97.063431"
       cy="-25.802612"
       rx="14.868076"
       ry="9.9863272" />
    <ellipse
       style="fill:#93a7ac;stroke-width:0.153442"
       id="ellipse8"
       cx="138.65228"
       cy="-25.398386"
       rx="12.517189"
       ry="9.3025103" />
    <ellipse
       style="fill:#93a7ac;stroke-width:0.173269"
       id="ellipse9"
       cx="127.6432"
       cy="-21.128742"
       rx="14.868076"
       ry="9.9863272" />
    <ellipse
       style="fill:#93a7ac;stroke-width:0.173269"
       id="ellipse10"
       cx="106.55911"
       cy="-35.718414"
       rx="14.868076"
       ry="9.9863272" />
    <path
       id="path1"
       style="fill:#93a7ac;stroke-width:0.262038"
       d="m 107.63583,7.7219042 c -8.132598,-9.8e-5 -14.783627,4.6320758 -14.78351,10.0944368 0.01044,0.199779 0.0299,0.399299 0.05834,0.598286 -5.691345,1.46276 -9.560573,4.640126 -9.569868,8.733092 -1.18e-4,5.462361 6.305408,9.934324 14.438007,9.934226 1.821159,-0.0041 3.625381,-0.235072 5.321101,-0.681197 4.06441,2.688399 9.43151,4.189313 15.01242,4.198236 0.94898,-3.93e-4 1.89693,-0.04399 2.83789,-0.130508 2.17678,0.811475 4.62434,1.239006 7.11392,1.242633 5.30793,-0.0024 10.43828,-2.074009 13.04784,-5.178534 6.03026,-0.698683 10.47081,-4.291871 10.47881,-8.827561 2.1e-4,-5.08828 -6.63031,-9.457539 -13.3412,-8.888893 -3.7081,-5.427345 -13.21859,-9.4571328 -21.57544,-8.594322 -2.28986,-1.7931898 -5.35063,-2.2668908 -9.03831,-2.4998948 z" />
  </g>
  <g
     id="layer1">
    <path
       id="path10"
       style="fill:#374548;stroke-width:0.264583"
       d="M 28.4825 8.7632895 A 14.868076 9.9863272 0 0 0 13.614156 18.74976 A 14.868076 9.9863272 0 0 0 13.673067 19.353858 A 14.868076 9.9863272 0 0 0 4.1186117 28.665434 A 14.868076 9.9863272 0 0 0 18.986955 38.651905 A 14.868076 9.9863272 0 0 0 24.359754 37.964091 A 22.192986 15.600046 0 0 0 39.518002 42.203109 A 22.192986 15.600046 0 0 0 42.38346 42.071334 A 14.868076 9.9863272 0 0 0 49.566484 43.326038 A 14.868076 9.9863272 0 0 0 62.503679 38.249345 A 12.517189 9.3025103 0 0 0 73.092697 29.070061 A 12.517189 9.3025103 0 0 0 60.575631 19.767269 A 12.517189 9.3025103 0 0 0 59.497661 19.819979 A 22.192986 15.600046 0 0 0 39.518002 11.003463 A 22.192986 15.600046 0 0 0 37.991997 11.073743 A 14.868076 9.9863272 0 0 0 28.4825 8.7632895 z " />
    <path
       id="path16"
       style="fill:url(#radialGradient17);stroke-width:0.262038;fill-opacity:1"
       d="m 28.70094,9.0043156 c -8.132599,-9.83e-5 -14.783628,4.6320764 -14.783511,10.0944374 0.01044,0.199779 0.0299,0.399299 0.05834,0.598286 -5.6913448,1.46276 -9.560573,4.640126 -9.569868,8.733092 -1.175e-4,5.462361 6.305408,9.934324 14.438007,9.934226 1.821159,-0.0041 3.625384,-0.235072 5.321109,-0.681197 4.064402,2.688399 9.431501,4.189313 15.012415,4.198236 0.94898,-3.93e-4 1.896927,-0.04399 2.837891,-0.130508 2.176779,0.811475 4.624342,1.239006 7.113918,1.242633 5.307929,-0.0024 10.438278,-2.074009 13.047845,-5.178534 C 68.20734,37.116304 72.647892,33.523116 72.655893,28.987426 72.6561,23.899146 66.02558,19.529887 59.314692,20.098533 55.606591,14.671188 46.096099,10.6414 37.739251,11.504211 35.449389,9.7110206 32.388618,9.2373193 28.70094,9.0043156 Z" />
    <g
       id="g15">
      <path
         style="fill:#374548;fill-opacity:1;stroke:none;stroke-width:0.264583px;stroke-linecap:butt;stroke-linejoin:miter;stroke-opacity:1"
         d="m 37.781196,11.163837 c -2.957697,0.512623 -3.526228,1.759675 -4.725933,2.812704 1.449268,-0.969727 2.506575,-2.039711 5.033001,-2.576981 z"
         id="path11" />
      <path
         style="fill:#374548;fill-opacity:1;stroke:none;stroke-width:0.264583px;stroke-linecap:butt;stroke-linejoin:miter;stroke-opacity:1"
         d="m 13.707484,19.373796 -0.02821,0.419261 c 1.463001,-0.421938 2.363633,-0.387274 3.516522,-0.557423 -1.101935,-4.16e-4 -1.903274,-0.230444 -3.488312,0.138162 z"
         id="path12" />
      <path
         style="fill:#374548;fill-opacity:1;stroke:none;stroke-width:0.264583px;stroke-linecap:butt;stroke-linejoin:miter;stroke-opacity:1"
         d="m 58.945144,19.686203 1.699651,2.035325 -1.03758,-1.77226 z"
         id="path13" />
      <path
         style="fill:#374548;fill-opacity:1;stroke:none;stroke-width:0.264583px;stroke-linecap:butt;stroke-linejoin:miter;stroke-opacity:1"
         d="m 24.022119,37.709691 0.332119,0.235212 c 1.606716,-0.454577 2.489268,-1.744388 3.617902,-2.750374 -1.281315,0.950029 -2.418843,2.113572 -3.950021,2.515162 z"
         id="path14" />
      <path
         style="fill:#374548;fill-opacity:1;stroke:none;stroke-width:0.264583px;stroke-linecap:butt;stroke-linejoin:miter;stroke-opacity:1"
         d="m 41.991859,41.891754 c -1.221189,-0.39038 -1.781758,-1.363031 -2.330291,-2.346291 0.793385,0.968624 1.611092,1.920117 3.008369,2.463418 z"
         id="path15" />
    </g>
  </g>
</svg>
