<?xml version="1.0" encoding="UTF-8" standalone="no"?>
<!-- Created with Inkscape (http://www.inkscape.org/) -->

<svg
   width="100"
   height="400"
   viewBox="0 0 100 400"
   version="1.1"
   id="svg1"
   inkscape:version="1.3.2 (091e20e, 2023-11-25)"
   sodipodi:docname="hair_effects.svg"
   xmlns:inkscape="http://www.inkscape.org/namespaces/inkscape"
   xmlns:sodipodi="http://sodipodi.sourceforge.net/DTD/sodipodi-0.dtd"
   xmlns="http://www.w3.org/2000/svg"
   xmlns:svg="http://www.w3.org/2000/svg">
  <sodipodi:namedview
     id="namedview1"
     pagecolor="#ffffff"
     bordercolor="#666666"
     borderopacity="1.0"
     inkscape:showpageshadow="2"
     inkscape:pageopacity="0.0"
     inkscape:pagecheckerboard="0"
     inkscape:deskcolor="#d1d1d1"
     inkscape:document-units="px"
     inkscape:zoom="4.6159931"
     inkscape:cx="35.745288"
     inkscape:cy="361.89396"
     inkscape:window-width="1351"
     inkscape:window-height="991"
     inkscape:window-x="346"
     inkscape:window-y="118"
     inkscape:window-maximized="0"
     inkscape:current-layer="layer1" />
  <defs
     id="defs1">
    <marker
       style="overflow:visible"
       id="marker33"
       refX="0"
       refY="0"
       orient="auto-start-reverse"
       inkscape:stockid="Triangle arrow"
       markerWidth="1"
       markerHeight="1"
       viewBox="0 0 1 1"
       inkscape:isstock="true"
       inkscape:collect="always"
       preserveAspectRatio="xMidYMid">
      <path
         transform="scale(0.5)"
         style="fill:context-stroke;fill-rule:evenodd;stroke:context-stroke;stroke-width:1pt"
         d="M 5.77,0 -2.88,5 V -5 Z"
         id="path33" />
    </marker>
    <marker
       style="overflow:visible"
       id="Triangle"
       refX="0"
       refY="0"
       orient="auto-start-reverse"
       inkscape:stockid="Triangle arrow"
       markerWidth="1"
       markerHeight="1"
       viewBox="0 0 1 1"
       inkscape:isstock="true"
       inkscape:collect="always"
       preserveAspectRatio="xMidYMid">
      <path
         transform="scale(0.5)"
         style="fill:context-stroke;fill-rule:evenodd;stroke:context-stroke;stroke-width:1pt"
         d="M 5.77,0 -2.88,5 V -5 Z"
         id="path135" />
    </marker>
  </defs>
  <g
     inkscape:label="Layer 1"
     inkscape:groupmode="layer"
     id="layer1">
    <path
       style="fill:#333333;fill-opacity:1;stroke:none;stroke-width:1px;stroke-linecap:butt;stroke-linejoin:miter;stroke-opacity:1"
       d="m 11.832786,408.02643 c 2.711053,-12.36304 4.413142,-24.32039 6.112754,-36.27674 1.038229,-6.32586 0.603541,-17.45781 13.67298,-13.35677 l -1.05143,26.27085 c -4.356063,2.23661 -4.056931,13.54746 -4.744049,23.42245 z"
       id="path24"
       sodipodi:nodetypes="cccccc"
       inkscape:export-filename="hair_effect.svg"
       inkscape:export-xdpi="96"
       inkscape:export-ydpi="96" />
    <path
       style="fill:#333333;stroke:none;stroke-width:1px;stroke-linecap:butt;stroke-linejoin:miter;stroke-opacity:1"
       d="m 26.129598,363.18024 c 0.970333,-9.32842 17.619796,-5.04738 18.149866,-12.71355 l 13.195221,-0.43091 c 1.234315,5.39056 17.182471,7.6918 17.780255,12.29997 0.760471,17.65243 -10.288288,27.84525 -8.984161,41.68996 L 38.078748,403.77066 C 31.60038,384.56634 26.382013,384.02095 26.129598,363.18024 Z"
       id="path22"
       sodipodi:nodetypes="ccccccc" />
    <path
       style="color:#000000;fill:#000000;-inkscape-stroke:none"
       d="m 10.473011,11.133731 1.429523,1.005599 78.187647,0.304901 -1.429533,-1.005581 z"
       id="path1"
       sodipodi:nodetypes="ccccc"
       inkscape:label="line"
       inkscape:export-filename="jitter_nodes.svg"
       inkscape:export-xdpi="96"
       inkscape:export-ydpi="96" />
    <path
       style="color:#000000;fill:#000000;-inkscape-stroke:none"
       d="m 11.13675,55.068199 0.0042,2.0321 3.8217,-0.303 2.1384,-1.1215 2.2136,0.1188 1.4082,-0.2756 0.0442,0.6227 3.0154,0.4962 0.5089,-0.4018 3.7243,-0.086 2.3665,-0.9743 0.4274,0.8528 3.5101,0.3774 1.7884,0.319 0.4608,-1.2623 2.8895,0.5658 0.7599,0.1959 2.404,-0.9476 1.8511,1.3404 3.529,0.0378 2.7098,1.8797 -1.1923,-2.8337 3.8552,-0.4859 1.618,-0.2456 2.5285,-0.3579 1.9656,1.9842 2.2855,-1.0936 2.4154,-1.2868 0.9611,3.1353 0.92,-0.844 3.1255,-0.1917 0.3725,-2.0929 4.2924,1.8242 0.7641,-0.1394 0.7219,1.1104 2.4849,-1.6573 0.0596,1.1834 4.9328,-2.3851 2.8057,3.1745 2.1805,-0.7649 0.055,1.2573 1.5268,-1.7528 -0.2773,-0.9292 -1.295,-0.2128 -2.7094,-0.0179 -0.6408,0.4436 -4.1132,-0.8231 -2.8056,-0.7788 -0.4534,0.9753 -2.3028,0.9026 -2.2359,-0.5585 1.1349,-0.0161 -3.712,1.711 -1.3167,-3.6892 -2.127,2.7239 -2.6824,0.0909 -4.039,0.011 -0.2077,-1.4536 -2.1899,-0.1311 -3.1408,0.1737 -0.9756,0.5018 -1.9912,0.3964 -2.6062,-1.7041 -0.2199,-0.3101 -1.7469,3.3948 -2.9238,-1.2177 -0.9331,0.3836 -3.0739,-2.0983 -2.5479,1.0074 -0.7825,0.0351 -1.447,-1.1735 -2.8345,1.2065 -2.821,1.9061 -1.3557,-2.3053 -2.2461,0.2977 -0.8993,-0.9192 -3.3941,1.5031 -0.2929,-2.4073 -3.0193,1.5079 -0.8658,0.6303 -2.7441,-1.05 0.2657,-1.4011 z"
       id="path2"
       sodipodi:nodetypes="ccccc"
       inkscape:label="jitter" />
    <path
       style="color:#000000;fill:#000000;stroke-width:0.941083;-inkscape-stroke:none"
       d="m 10.569383,94.824955 1.45e-4,13.115475 1.43e-4,13.1142 0.131114,-1.95551 0.131106,-1.95551 0.07336,-7.23733 0.07336,-7.23863 0.07594,0.76672 0.07594,0.76671 0.09662,-3.55735 0.0031,8.03761 0.103446,3.20239 0.103445,3.20239 0.03492,-5.1863 0.127772,-0.55503 0.127765,-0.55503 0.08119,-6.28733 0.08119,-6.288606 0.02933,11.007656 0.120423,2.43568 0.120416,2.43567 0.122709,4.11755 0.03162,-16.293346 0.09913,3.651576 0.09913,3.65158 0.05213,2.52861 0.08248,-6.11565 0.08248,-6.115656 0.06351,8.650716 0.0635,8.65072 0.121068,0.24396 0.121069,0.24396 0.09297,12.13192 0.09297,12.13063 -0.04091,-18.28759 -0.04091,-18.28888 0.132259,-3.135266 0.132259,-3.13657 0.111017,-3.170121 0.08675,-2.309182 0.08674,-2.310474 0.06744,12.805703 0.06744,12.80569 0.07841,-7.05791 0.0784,-7.05791 0.08287,-8.304797 0.08287,-8.304795 0.03298,20.235352 0.03297,20.23407 0.06312,-10.89408 0.107229,-1.23655 0.107222,-1.23785 0.01278,-13.506586 0.01278,-13.507873 0.09817,7.849154 0.09815,7.845279 0.0982,7.851736 0.05243,-1.79933 0.04953,14.33268 0.08525,-10.6953 0.08524,-10.696576 0.0041,15.274926 0.112821,-10.2616 0.11278,-10.259008 0.112855,-10.265473 0.06418,13.658895 0.06414,13.653736 0.06419,13.66277 0.07481,-4.93589 0.0748,-4.93719 0.0038,16.22882 0.05238,-11.31229 0.05238,-11.31228 -0.01903,-11.993806 -0.08885,-2.746751 -0.09296,-0.114877 -0.09294,-0.116169 -0.04397,5.725847 -0.09406,-3.541871 -0.09405,-3.539281 -0.0941,-3.543158 -0.09625,-5.026245 -0.09625,-5.026249 -0.03111,12.588852 -0.079,5.825232 -0.079,5.825226 -0.0767,-3.603816 -0.07671,-3.605113 0.07786,-0.207807 -0.08489,7.361236 -0.08487,7.35996 -0.08492,7.36382 -0.04517,-23.809481 -0.04518,-23.809491 -0.07297,17.58025 -0.07297,17.578952 -0.09203,0.5873 -0.09203,0.58601 -0.09238,0.0478 -0.09234,0.0465 -0.09241,0.0478 -0.01425,-18.762594 -0.07512,-0.845452 -0.07513,-0.846742 -0.107752,1.121677 -0.10775,1.120386 -0.06694,6.477068 -0.06831,2.558301 -0.06831,2.5583 -0.08941,-10.997336 -0.08941,-10.998627 -0.01509,-4.002668 -0.05992,21.909481 -0.05993,21.909476 -0.100311,-7.85819 -0.100301,-7.85948 -0.06403,4.95138 -0.105451,-13.54143 -0.105461,-13.542729 -0.0874,6.501593 -0.08742,6.501593 -0.05369,0.453061 -0.09929,-15.147153 -0.09724,7.787197 -0.09725,7.785909 -0.09678,12.302299 -0.09678,12.30101 -0.04651,-14.87738 -0.04651,-14.878672 -0.07705,1.921953 -0.07706,1.920661 -0.06171,-11.864733 -0.116438,9.701406 -0.116443,9.700119 -0.01003,-15.535675 -0.01003,-15.536964 -0.103583,9.732383 -0.103583,9.731092 -0.0594,8.135704 -0.09414,-6.776525 -0.09415,-6.776527 0.01823,-18.084939 -0.08428,10.283543 -0.08425,10.27967 z"
       id="path3"
       sodipodi:nodetypes="ccccc"
       inkscape:label="stretch"
       inkscape:export-filename="hilights.svg"
       inkscape:export-xdpi="96"
       inkscape:export-ydpi="96" />
    <path
       style="color:#000000;fill:#000000;stroke-width:0.941083;-inkscape-stroke:none"
       d="m 11.527396,168.74916 1.45e-4,13.11548 1.43e-4,13.1142 0.131114,-1.95551 0.131106,-1.95551 0.07336,-7.23733 0.07336,-7.23863 0.07594,0.76672 0.07594,0.76671 0.09662,-3.55735 0.0031,8.03761 0.103446,3.20239 0.103445,3.20239 0.03492,-5.1863 0.127772,-0.55503 0.127765,-0.55503 0.08119,-6.28733 0.08119,-6.28861 0.02933,11.00766 0.120423,2.43568 0.120416,2.43567 0.122709,4.11755 0.03162,-16.29335 0.09913,3.65158 0.09913,3.65158 0.05213,2.52861 0.08248,-6.11565 0.08248,-6.11566 0.06351,8.65072 0.0635,8.65072 0.121068,0.24396 0.121069,0.24396 0.09297,12.13192 0.09297,12.13063 -0.04091,-18.28759 -0.04091,-18.28888 0.132259,-3.13527 0.132259,-3.13657 0.111017,-3.17012 0.08675,-2.30919 0.08674,-2.31047 0.06744,12.80571 0.06744,12.80569 0.07841,-7.05791 0.0784,-7.05791 0.08287,-8.3048 0.08287,-8.3048 0.03298,20.23536 0.03297,20.23407 0.06312,-10.89408 0.107229,-1.23655 0.107222,-1.23785 0.01278,-13.50659 0.01278,-13.50788 0.09817,7.84916 0.09815,7.84528 0.0982,7.85174 0.05243,-1.79933 0.04953,14.33268 0.08525,-10.6953 0.08524,-10.69658 0.0041,15.27493 0.112821,-10.2616 0.11278,-10.25901 0.112855,-10.26548 0.06418,13.6589 0.06414,13.65374 0.06419,13.66277 0.07481,-4.93589 0.0748,-4.93719 0.0038,16.22882 0.05238,-11.31229 0.05238,-11.31228 -0.01903,-11.99381 -0.08885,-2.74675 -0.09296,-0.11488 -0.09294,-0.11617 -0.04397,5.72585 -0.09406,-3.54187 -0.09405,-3.53928 -0.0941,-3.54316 -0.09625,-5.02625 -0.09625,-5.02625 -0.03111,12.58886 -0.079,5.82523 -0.079,5.82523 -0.0767,-3.60382 -0.07671,-3.60512 0.07786,-0.2078 -0.08489,7.36124 -0.08487,7.35996 -0.08492,7.36382 -0.04517,-23.80949 -0.04518,-23.80949 -0.07297,17.58025 -0.07297,17.57896 -0.09203,0.5873 -0.09203,0.58601 -0.09238,0.0478 -0.09234,0.0465 -0.09241,0.0478 -0.01425,-18.7626 -0.07512,-0.84545 -0.07513,-0.84674 -0.107752,1.12167 -0.10775,1.12039 -0.06694,6.47707 -0.06831,2.5583 -0.06831,2.5583 -0.08941,-10.99734 -0.08941,-10.99863 -0.01509,-4.00266 -0.05992,21.90948 -0.05993,21.90948 -0.100311,-7.85819 -0.100301,-7.85948 -0.06403,4.95138 -0.105451,-13.54144 -0.105461,-13.54273 -0.0874,6.5016 -0.08742,6.50159 -0.05369,0.45306 -0.09929,-15.14715 -0.09724,7.7872 -0.09725,7.7859 -0.09678,12.30231 -0.09678,12.30101 -0.04651,-14.87738 -0.04651,-14.87868 -0.07705,1.92195 -0.07706,1.92067 -0.06171,-11.86474 -0.116438,9.70141 -0.116443,9.70012 -0.01003,-15.53568 -0.01003,-15.53696 -0.103583,9.73238 -0.103583,9.73109 -0.0594,8.13571 -0.09414,-6.77653 -0.09415,-6.77652 0.01823,-18.08494 -0.08428,10.28354 -0.08425,10.27967 z"
       id="path4"
       sodipodi:nodetypes="ccccc"
       inkscape:label="stretch2" />
    <path
       style="color:#000000;fill:#000000;stroke-width:0.941083;-inkscape-stroke:none"
       d="m 11.558271,240.71509 1.45e-4,13.11548 1.43e-4,13.1142 0.131114,-1.95551 0.131106,-1.95551 0.07336,-7.23733 0.07336,-7.23863 0.07594,0.76672 0.07594,0.76671 0.09662,-3.55735 0.0031,8.03761 0.103446,3.20239 0.103445,3.20239 0.03492,-5.1863 0.127772,-0.55503 0.127765,-0.55503 0.08119,-6.28733 0.08119,-6.28861 0.02933,11.00766 0.120423,2.43568 0.120416,2.43567 0.122709,4.11755 0.03162,-16.29335 0.09913,3.65158 0.09913,3.65158 0.05213,2.52861 0.08248,-6.11565 0.08248,-6.11566 0.06351,8.65072 0.0635,8.65072 0.121068,0.24396 0.121069,0.24396 0.09297,12.13192 0.09297,12.13063 -0.04091,-18.28759 -0.04091,-18.28888 0.132259,-3.13527 0.132259,-3.13657 0.111017,-3.17012 0.08675,-2.30919 0.08674,-2.31047 0.06744,12.80571 0.06744,12.80569 0.07841,-7.05791 0.0784,-7.05791 0.08287,-8.3048 0.08287,-8.3048 0.03298,20.23536 0.03297,20.23407 0.06312,-10.89408 0.107229,-1.23655 0.107222,-1.23785 0.01278,-13.50659 0.01278,-13.50788 0.09817,7.84916 0.09815,7.84528 0.0982,7.85174 0.05243,-1.79933 0.04953,14.33268 0.08525,-10.6953 0.08524,-10.69658 0.0041,15.27493 0.112821,-10.2616 0.11278,-10.25901 0.112855,-10.26548 0.06418,13.6589 0.06414,13.65374 0.06419,13.66277 0.07481,-4.93589 0.0748,-4.93719 0.0038,16.22882 0.05238,-11.31229 0.05238,-11.31228 -0.01903,-11.99381 -0.08885,-2.74675 -0.09296,-0.11488 -0.09294,-0.11617 -0.04397,5.72585 -0.09406,-3.54187 -0.09405,-3.53928 -0.0941,-3.54316 -0.09625,-5.02625 -0.09625,-5.02625 -0.03111,12.58886 -0.079,5.82523 -0.079,5.82523 -0.0767,-3.60382 -0.07671,-3.60512 0.07786,-0.2078 -0.08489,7.36124 -0.08487,7.35996 -0.08492,7.36382 -0.04517,-23.80949 -0.04518,-23.80949 -0.07297,17.58025 -0.07297,17.57896 -0.09203,0.5873 -0.09203,0.58601 -0.09238,0.0478 -0.09234,0.0465 -0.09241,0.0478 -0.01425,-18.7626 -0.07512,-0.84545 -0.07513,-0.84674 -0.107752,1.12167 -0.10775,1.12039 -0.06694,6.47707 -0.06831,2.5583 -0.06831,2.5583 -0.08941,-10.99734 -0.08941,-10.99863 -0.01509,-4.00266 -0.05992,21.90948 -0.05993,21.90948 -0.100311,-7.85819 -0.100301,-7.85948 -0.06403,4.95138 -0.105451,-13.54144 -0.105461,-13.54273 -0.0874,6.5016 -0.08742,6.50159 -0.05369,0.45306 -0.09929,-15.14715 -0.09724,7.7872 -0.09725,7.7859 -0.09678,12.30231 -0.09678,12.30101 -0.04651,-14.87738 -0.04651,-14.87868 -0.07705,1.92195 -0.07706,1.92067 -0.06171,-11.86474 -0.116438,9.70141 -0.116443,9.70012 -0.01003,-15.53568 -0.01003,-15.53696 -0.103583,9.73238 -0.103583,9.73109 -0.0594,8.13571 -0.09414,-6.77653 -0.09415,-6.77652 0.01823,-18.08494 -0.08428,10.28354 -0.08425,10.27967 z"
       id="path5"
       sodipodi:nodetypes="ccccc"
       inkscape:label="stetch3" />
    <path
       d="m 47.9152 76.3747 c -13.5503 18.9259 -13.3045 35.6854 0.9823 50.2394"
       style="fill:none;stroke:#000000;stroke-width:1px;stroke-linecap:butt;stroke-linejoin:miter;stroke-opacity:1"
       id="path6"
       inkscape:label="curve" />
    <path
       d="m 122.80268,106.43221 0.1015,-8.7809 2.5499,-8.5612 -0.6229,1.1894 -0.5892,1.2085 -1.4252,4.7986 -0.6981,4.9316 -0.0427,-0.568 -0.0427,-0.567 -0.187,2.504 0.4909,-5.5776 0.3625,-2.1428 0.5145,-2.2161 -0.9532,3.5254 -0.208,0.3737 -0.1945,0.3031 -0.5756,4.4373 0.085,4.4 0.1205,-7.7283 0.1805,-1.7264 0.2682,-1.7222 0.709,-2.8555 -1.8856,11.4064 -0.0352,-2.592 0.1769,-2.6024 0.2663,-1.807 -0.6738,4.3484 -0.0556,4.406 0.0825,-6.2475 1.277,-6.1421 -0.0639,-0.2068 -0.0639,-0.2068 3.418,-8.2041 4.6501,-7.6036 -6.6654,11.6543 -3.1611,12.9876 -0.1697,2.305 0.019,2.319 0.2159,2.353 0.2766,1.698 0.3742,1.685 -1.3681,-9.444 1.4935,-9.4405 -1.2557,5.1263 -0.4693,5.2752 0.6243,6.239 1.8887,5.995 -2.6212,-14.95 4.1433,-14.6072 -2.9873,7.6005 -0.3424,0.9001 -0.3376,0.9143 -0.7771,10.2563 2.5586,9.975 -2.0089,-5.707 -0.856,-5.933 0.2845,-6.0752 -0.2369,1.3837 2.7337,-10.6115 -2.4381,7.7826 -0.6805,8.2764 1.4253,-11.7301 -1.5181,7.8441 0.3655,8.057 2.3374,7.631 -2.9003,-10.305 0.5913,-10.682 3.4481,-10.0364 -1.5896,3.4667 -1.3183,3.6049 5.0411,-11.4211 -3.8502,7.7822 -2.424,8.5458 -0.1774,9.6079 0.4402,2.114 0.1081,0.064 0.1082,0.065 -0.5407,-4.551 0.3796,2.823 0.6211,2.767 0.8392,2.584 1.5669,3.68 1.9218,3.364 -3.833,-8.992 -0.766,-4.501 -0.1073,-4.46 0.1188,2.733 0.365,2.793 -0.0541,0.163 -0.2696,-5.647 0.7301,-5.652 1.553,-5.3741 -1.4859,17.9451 8.1012,15.997 -6.7011,-11.435 -1.6984,-13.1977 0.14,-0.4753 0.1383,-0.4184 0.0956,-0.025 0.0955,-0.0239 0.0957,-0.025 1.6123,13.8813 0.2894,0.555 0.2992,0.58 -0.1993,-0.833 -0.1914,-0.824 -1.1339,-4.659 -0.1912,-1.881 -0.0742,-1.886 1.5452,7.919 3.5388,7.235 1.6656,2.414 -6.2113,-14.607 1.7893,-15.7501 -1.395,5.5647 -0.4478,5.6794 0.294,-3.5802 0.489,9.7252 3.6051,9.024 -1.9595,-4.232 -1.291,-4.46 -0.0147,-0.337 4.1679,9.894 -2.4593,-4.992 -1.4842,-5.268 -0.3001,-8.6064 2.0743,-8.46 -2.0651,10.2914 1.5091,10.22 -0.3268,-1.291 -0.2834,-1.386 3.0754,7.675 -2.5237,-6.276 -0.9497,-6.545 2.4937,10.337 5.9168,8.997 -3.9588,-5.537 -2.7482,-6.018 -1.2277,-5.485 1.0704,4.486 1.7911,4.253 7.3528,10.13 -4.5415,-5.533 -3.3807,-6.205 z"
       style="color:#000000;fill:#000000;stroke-width:0.941083;-inkscape-stroke:none"
       id="path7"
       inkscape:label="input_1" />
    <path
       d="m 72.433593,105.25304 c 0.209467,-3.86766 -0.433542,-7.891623 0.943772,-11.6088 0.569209,-1.911101 1.138419,-3.822202 1.707628,-5.733303 -2.095384,3.69882 -2.831585,7.960588 -3.3354,12.128103 -0.133628,-1.67268 -0.34479,2.53356 -0.160951,0.0743 0.237684,-2.860319 0.451437,-5.747733 1.226413,-8.523927 -0.92146,3.272153 -2.13209,6.55911 -1.881166,10.018537 -5.37e-4,0.81589 0.08821,3.5939 0.09506,1.42605 0.05093,-4.123583 -0.101654,-8.355084 1.208027,-12.324055 -0.612228,3.725531 -1.230629,7.450044 -1.84559,11.175125 -0.08258,-2.339001 0.0064,-4.692398 0.408,-7.001403 -0.522604,2.793684 -0.835672,5.639903 -0.722494,8.484883 -0.0423,-3.424356 0.0099,-6.899923 0.929073,-10.220636 0.408735,-3.436454 2.045334,-6.54951 3.392039,-9.68508 1.434352,-2.939114 3.30425,-5.629471 4.971782,-8.435667 -2.221632,3.922381 -4.508742,7.807648 -6.689465,11.753171 -1.048889,4.873035 -2.653457,9.64275 -3.268021,14.598712 -0.146948,2.90418 0.144824,5.8287 0.846986,8.65002 -0.330043,-3.58364 -1.456604,-7.13347 -1.161418,-10.750456 0.428939,-2.711349 0.857879,-5.422698 1.286818,-8.134047 -1.481154,5.053013 -2.153661,10.423863 -1.186845,15.641133 0.365887,2.2418 1.103597,4.39998 1.884389,6.52587 -0.755275,-4.93191 -1.897936,-9.82628 -2.447452,-14.775148 1.353336,-4.771185 2.706672,-9.54237 4.060008,-14.313555 -1.212103,3.177071 -2.555141,6.304368 -3.674988,9.516367 -0.101683,3.742392 -0.966315,7.492246 -0.493378,11.230986 0.760854,2.96628 1.521711,5.93257 2.282566,8.89885 -1.696599,-4.32024 -3.034974,-8.89493 -2.784538,-13.58415 0.01951,-1.022344 0.196204,-3.587937 0.143827,-3.603183 0.40445,-1.153386 0.685527,-2.597568 1.041789,-3.873587 0.505107,-1.960694 1.010215,-3.921389 1.515323,-5.882083 -1.157647,3.881874 -2.792899,7.717836 -2.77159,11.838588 -0.11567,1.406805 -0.23134,2.813615 -0.34701,4.220415 0.4751,-3.910034 0.9502,-7.820069 1.4253,-11.730103 -0.630305,3.714017 -1.826394,7.416111 -1.368069,11.226253 -0.02039,2.82501 0.313435,5.66826 1.331625,8.31881 0.407083,1.32901 0.814163,2.65803 1.221244,3.98704 -0.954148,-3.47185 -1.993525,-6.92023 -2.894676,-10.4066 0.436931,-4.05994 -0.02731,-8.263517 1.14768,-12.216233 0.962032,-2.80019 1.924064,-5.60038 2.886096,-8.40057 -1.08257,2.246509 -2.055346,4.548486 -2.85116,6.91275 1.682789,-3.744615 3.319924,-7.509488 4.98436,-11.26225 -1.894978,3.919163 -4.159149,7.734848 -5.066024,12.041711 -0.89265,2.661526 -1.470026,5.455474 -1.266318,8.273258 -0.0537,2.342354 -0.289014,4.716604 0.187611,7.032694 0.642388,0.17005 -0.428523,-3.96547 0.04143,-1.81929 0.733995,4.73467 2.566976,9.26191 5.096095,13.31753 -1.591795,-4.21526 -4.133002,-8.19584 -4.45303,-12.78854 -0.188881,-1.64223 -0.272762,-3.29661 -0.248627,-4.94952 -0.006,1.64452 0.23937,3.27527 0.395144,4.909 -0.447505,-4.76616 -0.07568,-9.629098 1.48358,-14.176645 0.288287,-0.932346 0.698659,-2.701387 0.475865,-0.917373 -0.467312,5.643693 -0.934624,11.287388 -1.401936,16.931078 2.700404,5.33233 5.400796,10.66467 8.1012,15.997 -2.209505,-3.967 -4.779309,-7.75363 -6.753044,-11.83865 -0.548819,-4.26468 -1.097637,-8.52937 -1.646456,-12.794053 0.931988,-1.349785 0.824779,1.859903 0.968012,2.501313 0.40313,3.4708 0.806259,6.94159 1.209388,10.41239 0.83726,1.10353 -0.121333,-1.62197 -0.184226,-2.00684 -0.563734,-2.26991 -1.063788,-4.58895 -1.017174,-6.94116 0.83694,3.69472 1.028802,7.64411 3.036345,10.96567 1.049641,2.23098 2.098997,4.49537 3.632533,6.44439 -2.022022,-4.82546 -4.089819,-9.63153 -6.130578,-14.44906 0.596433,-5.25003 1.192867,-10.500069 1.7893,-15.750103 -0.914864,3.310038 -1.708822,6.694229 -1.756252,10.144917 0.06584,-0.657122 0.207194,-3.292922 0.292122,-1.28242 0.267743,3.215446 -0.07675,6.537226 0.85729,9.660416 1.050713,2.63007 2.101427,5.26013 3.152141,7.89019 -1.354478,-2.79049 -2.666394,-5.65937 -3.178879,-8.74221 1.42228,3.17592 2.708868,6.40999 4.081576,9.60721 -2.326693,-4.32229 -4.317639,-9.07742 -4.075641,-14.08446 -0.113587,-2.6798 -0.338072,-5.438295 0.621958,-8.006249 0.378535,-1.407967 1.086915,-4.617689 1.226984,-4.891614 -0.585566,3.651456 -1.847014,7.236127 -1.859073,10.953863 0.453491,3.07116 0.906981,6.14231 1.360472,9.21346 -0.364141,-0.76324 -0.599553,-3.05544 0.04301,-1.04684 0.807398,2.01495 1.614792,4.0299 2.42219,6.04484 -1.28879,-3.24017 -2.891546,-6.45436 -3.064274,-10.00144 -0.136375,-0.93985 -0.272751,-1.87971 -0.409126,-2.81956 0.91884,3.52265 1.576765,7.1131 2.661425,10.59204 1.916355,2.91399 3.83272,5.82797 5.749075,8.74196 -2.076492,-2.89813 -4.336925,-5.73185 -5.625799,-9.09396 -1.134518,-2.33459 -1.728897,-4.88348 -2.184135,-7.42551 0.789924,4.32419 2.497702,8.54274 5.403721,11.88376 1.559416,2.15673 3.120419,4.31231 4.685813,6.46471 -2.413271,-2.90081 -4.943842,-5.76622 -6.585155,-9.19833 -1.703577,-2.80802 -2.262258,-6.04454 -3.124138,-9.16067 z"
       style="color:#000000;fill:#cccccc;stroke-width:0.941083;-inkscape-stroke:none"
       id="path8"
       inkscape:label="output_1" />
    <path
       d="m 25.577653,158.44482 c 18.7673,13.7692 35.5285,13.718 50.2474,-0.39876"
       style="fill:none;stroke:#000000;stroke-width:1px;stroke-linecap:butt;stroke-linejoin:miter;stroke-opacity:1"
       id="path9"
       inkscape:label="curve_2" />
    <path
       d="m 68.37113,174.46698 -2.82118,1.32215 -2.82092,1.32191 0.83035,-0.0995 0.96571,-0.0707 1.72854,-0.69141 1.72884,-0.69153 0.10354,0.13395 0.0954,0.13221 1.00759,-0.31072 -1.49586,0.86038 -0.25766,0.40903 -0.11166,0.43329 1.03439,-0.54298 0.61808,0.0311 0.53051,0.0116 1.33125,-0.65167 1.2465,-0.6659 -1.51172,1.26669 0.0866,0.33747 0.23365,0.35269 0.13689,0.55585 1.93146,-1.91142 -0.0442,0.46932 0.0445,0.47315 -0.0492,0.31964 0.92469,-0.70453 0.79521,-0.71666 -0.37286,1.06589 -0.29909,1.06936 0.68159,0.0633 0.7005,0.0547 0.0397,1.50636 0.75593,1.5128 -0.0267,-2.26437 -0.0496,-2.26598 0.5526,-0.38315 0.43217,-0.39095 0.22627,-0.39727 0.25851,-0.29439 0.006,-0.29018 0.91176,1.55799 1.15763,1.54015 -0.20296,-0.87685 -0.23168,-0.87932 -0.43669,-1.02306 -0.77661,-0.99731 2.31483,2.38272 2.31464,2.38271 -0.74274,-1.34035 0.41019,-0.21528 0.20089,-0.19461 -1.89905,-1.54696 -1.89922,-1.54709 1.30345,0.86645 1.56242,0.82486 1.71597,0.7949 -0.0845,-0.23992 2.90322,1.48705 -1.76478,-1.19043 -1.81637,-1.18498 3.14644,1.57185 -1.72325,-1.14475 -1.88789,-1.1117 -2.12249,-1.05858 3.33709,1.27386 3.42836,1.2454 3.48443,1.2298 -0.97346,-0.52614 -0.85299,-0.56686 4.09473,1.47132 -2.69926,-1.07344 -2.69926,-1.07357 -3.07187,-1.07319 -0.94148,-0.1722 -0.2014,0.0427 -0.29861,0.0667 1.25391,0.57454 -1.05988,-0.2778 -1.09749,-0.26852 -0.93952,-0.31469 -1.15074,-0.48801 -1.33858,-0.44975 2.48295,1.3198 1.01423,0.6378 0.85416,0.66999 -0.89648,-0.34304 -0.89461,-0.34565 0.22609,-0.0702 1.01166,0.85321 0.8866,0.87066 0.88878,0.86869 -3.83491,-2.65458 -3.58701,-2.69332 2.27258,2.04153 2.22382,2.04352 -0.31425,0.11488 -0.27412,0.10386 -0.40581,0.0447 -0.33956,0.0343 -0.41637,0.0354 -1.37831,-2.27638 -0.0371,-0.10188 -0.32885,-0.0905 -0.0506,0.14261 -0.37643,0.15004 0.10199,0.79886 -0.2308,0.3194 -0.17762,0.31605 -0.26466,-1.36325 0.20471,-1.36127 0.0465,-0.49556 -0.80011,2.69988 -1.07685,2.68751 -0.16086,-0.9874 0.11057,-0.9806 -0.62416,0.58519 0.6812,-1.6663 1.05702,-1.6392 -0.94722,0.74848 -0.79162,0.75949 -0.24699,0.0328 1.6883,-1.78849 -1.3334,0.86397 -1.20515,0.87587 -2.11104,1.35656 -2.22148,1.33552 2.11527,-1.70184 2.288,-1.67509 -0.58232,0.16886 -0.58217,0.16873 2.0045,-1.30766 -2.10727,0.9843 -2.07284,0.98629 2.87796,-1.66568 2.8782,-1.66581 -1.92679,1.01984 -2.25647,0.94903 -1.79816,0.81185 1.15585,-0.75095 1.09972,-0.7637 3.79341,-1.84581 -2.1537,1.05017 -2.47476,0.97341 z"
       style="color:#000000;fill:#cccccc;stroke-width:0.201567;-inkscape-stroke:none"
       id="path10"
       inkscape:label="output_2" />
    <path
       d="m 119.26744,152.38669 -2.82118,1.32215 -2.82092,1.32191 0.83035,-0.0995 0.96571,-0.0707 1.72854,-0.69141 1.72884,-0.69153 0.10354,0.13395 0.0954,0.13221 1.00759,-0.31072 -1.49586,0.86038 -0.25766,0.40903 -0.11166,0.43329 1.03439,-0.54298 0.61808,0.0311 0.53051,0.0116 1.33125,-0.65167 1.2465,-0.6659 -1.51172,1.26669 0.0866,0.33747 0.23365,0.35269 0.13689,0.55585 1.93146,-1.91142 -0.0442,0.46932 0.0445,0.47315 -0.0492,0.31964 0.92469,-0.70453 0.79521,-0.71666 -0.37286,1.06589 -0.29909,1.06936 0.68159,0.0633 0.7005,0.0547 0.0397,1.50636 0.75593,1.5128 -0.0267,-2.26437 -0.0496,-2.26598 0.5526,-0.38315 0.43217,-0.39095 0.22627,-0.39727 0.25851,-0.29439 0.006,-0.29018 0.91176,1.55799 1.15763,1.54015 -0.20296,-0.87685 -0.23168,-0.87932 -0.43669,-1.02306 -0.77661,-0.99731 2.31483,2.38272 2.31464,2.38271 -0.74274,-1.34035 0.41019,-0.21528 0.20089,-0.19461 -1.89905,-1.54696 -1.89922,-1.54709 1.30345,0.86645 1.56242,0.82486 1.71597,0.7949 -0.0845,-0.23992 2.90322,1.48705 -1.76478,-1.19043 -1.81637,-1.18498 3.14644,1.57185 -1.72325,-1.14475 -1.88789,-1.1117 -2.12249,-1.05858 3.33709,1.27386 3.42836,1.2454 3.48443,1.2298 -0.97346,-0.52614 -0.85299,-0.56686 4.09473,1.47132 -2.69926,-1.07344 -2.69926,-1.07357 -3.07187,-1.07319 -0.94148,-0.1722 -0.2014,0.0427 -0.29861,0.0667 1.25391,0.57454 -1.05988,-0.2778 -1.09749,-0.26852 -0.93952,-0.31469 -1.15074,-0.48801 -1.33858,-0.44975 2.48295,1.3198 1.01423,0.6378 0.85416,0.66999 -0.89648,-0.34304 -0.89461,-0.34565 0.22609,-0.0702 1.01166,0.85321 0.8866,0.87066 0.88878,0.86869 -3.83491,-2.65458 -3.58701,-2.69332 2.27258,2.04153 2.22382,2.04352 -0.31425,0.11488 -0.27412,0.10386 -0.40581,0.0447 -0.33956,0.0343 -0.41637,0.0354 -1.37831,-2.27638 -0.0371,-0.10188 -0.32885,-0.0905 -0.0506,0.14261 -0.37643,0.15004 0.10199,0.79886 -0.2308,0.3194 -0.17762,0.31605 -0.26466,-1.36325 0.20471,-1.36127 0.0465,-0.49556 -0.80011,2.69988 -1.07685,2.68751 -0.16086,-0.9874 0.11057,-0.9806 -0.62416,0.58519 0.6812,-1.6663 1.05702,-1.6392 -0.94722,0.74848 -0.79162,0.75949 -0.24699,0.0328 1.6883,-1.78849 -1.3334,0.86397 -1.20515,0.87587 -2.11104,1.35656 -2.22148,1.33552 2.11527,-1.70184 2.288,-1.67509 -0.58232,0.16886 -0.58217,0.16873 2.0045,-1.30766 -2.10727,0.9843 -2.07284,0.98629 2.87796,-1.66568 2.8782,-1.66581 -1.92679,1.01984 -2.25647,0.94903 -1.79816,0.81185 1.15585,-0.75095 1.09972,-0.7637 3.79341,-1.84581 -2.1537,1.05017 -2.47476,0.97341 z"
       style="color:#000000;fill:#000000;stroke-width:0.201567;-inkscape-stroke:none"
       id="path11"
       inkscape:label="inpyu_2" />
    <path
       d="m 49.0918 219.419 c -18.2008 20.2951 19.9593 36.9107 -0.625717 56.7047"
       style="fill:none;stroke:#000000;stroke-width:1px;stroke-linecap:butt;stroke-linejoin:miter;stroke-opacity:1"
       id="path12"
       inkscape:label="curve_s" />
    <path
       d="m 122.97248,250.5782 c -1.98237,-3.96475 -5.856,-11.66698 -7.49059,-18.0024 -0.90142,-0.46277 0.85707,5.02774 1.61157,6.56774 1.33604,2.80127 3.95368,9.09944 1.23157,3.5179 -0.83509,-1.40766 -3.83488,-8.59914 -2.03418,-3.73142 1.01695,3.15407 3.93171,8.87637 4.57513,10.29542 -2.18362,-4.58914 -4.85217,-8.95239 -6.6566,-13.71724 1.78343,4.00567 3.56687,8.01133 5.3503,12.017 -1.00773,-1.75212 -3.09968,-5.81465 -3.29629,-6.04137 0.83799,1.88064 3.67229,7.60257 3.17434,6.7927 -2.1354,-4.85146 -5.54781,-9.47507 -6.05977,-14.83039 -0.42147,-3.80455 0.57288,-5.41405 1.92402,-9.92826 0.9539,-1.91063 2.90464,-7.00644 1.0469,-2.52088 -0.98179,5.54279 -5.55511,9.83339 -2.40582,14.74285 2.28564,6.66098 5.26568,13.07553 7.53674,19.72727 -1.10989,-1.78701 -2.66173,-6.00172 -3.97448,-8.64137 -1.22937,-2.64815 -3.70279,-8.22582 -4.2088,-8.9791 2.7566,7.38183 7.31108,14.12265 8.65539,21.9931 -0.30969,-0.24893 -2.37706,-6.05931 -3.2972,-8.32434 -2.89236,-7.28165 -8.03066,-16.50536 -6.14114,-23.83505 -1.28261,6.18482 0.41052,13.01783 3.64089,17.89075 2.46924,4.55691 3.86102,9.55722 5.46388,14.45242 -1.1425,-6.0904 -4.33477,-11.4609 -7.12996,-16.89833 0.13526,-0.37199 -2.05711,-5.68223 -2.82448,-7.9875 -1.48428,-4.12075 0.89236,3.33251 1.34608,4.58722 0.5712,2.23107 3.48072,8.15656 3.51745,7.94314 -1.48382,-3.15396 -2.96763,-6.30791 -4.45145,-9.46186 2.88071,7.33876 7.25656,14.14838 8.57408,22.02344 0.28719,1.34374 -1.16422,-3.81587 -1.65046,-5.17305 -1.27511,-4.82767 -4.02198,-9.02374 -5.96947,-13.55924 -1.33714,-3.96161 -3.40909,-7.6416 -1.68054,-12.15015 -0.14083,2.18268 0.88339,8.68954 1.37091,7.74176 -1.39666,-3.76933 -0.17667,-10.48818 0.05,-13.03725 l -2.65834,9.85449 c 1.97476,6.25449 4.44802,12.33791 7.59426,18.09389 2.42603,4.64808 -1.76919,-4.64212 0.66013,0.41199 1.80641,3.66087 3.25152,7.79543 2.50163,11.92587 -0.34975,-4.9793 -0.51733,-10.1461 -3.17265,-14.55272 -1.90369,-3.84904 0.41018,0.33008 1.07201,1.85995 -2.45972,-5.13874 -5.12394,-10.22073 -6.79485,-15.68859 2.60584,5.97484 5.52304,11.89491 7.93474,17.9039 0.65474,5.46941 0.29075,11.1125 -1.27067,16.95971 l 2.8712,-12.584 c -1.56377,-4.11793 -4.87444,-10.96159 -5.30245,-13.40479 2.34785,4.46216 3.90072,9.32193 6.16626,13.81764 -0.18826,-2.78199 -2.80532,-8.76442 -3.00681,-9.01582 1.91408,3.97391 2.44445,8.49292 2.04073,13.00189 -0.55795,2.49796 -1.95083,8.7219 -0.11833,2.84537 -0.17872,-4.64163 -0.42725,-9.2802 -0.6186,-13.92129 -2.43217,-5.44933 -4.86433,-10.89867 -7.2965,-16.348 1.12081,3.34142 4.07991,9.68797 4.87453,10.7784 -2.19777,-4.53686 1.29417,2.73202 2.05038,4.01633 2.53155,4.46353 3.4939,9.92734 3.31409,14.40427 0.21157,-3.56371 0.0346,-7.22937 -1.32296,-10.57566 1.91704,3.9351 2.84496,7.92378 1.349,12.04966 0.39737,-3.96756 0.62568,-8.03951 -0.9573,-11.80154 -2.2084,-6.03828 -5.52732,-11.60742 -7.53601,-17.73523 -1.38999,-3.58682 1.44921,3.27518 2.05076,4.61796 2.26514,5.29828 4.52777,10.59763 6.78845,15.89781 -0.62238,-3.11223 -0.8532,-2.38115 -0.34769,0.0495 0.36209,2.3305 0.72419,4.66099 1.08629,6.99148 -0.32625,-4.98636 -0.78319,-10.04085 -3.22881,-14.50964 -1.23388,-2.90086 0.98144,3.30316 1.35105,4.41556 2.57477,4.67953 1.9389,9.49727 -0.33634,14.14508 -0.57245,2.01889 -3.01106,8.05765 -0.71987,3.28477 0.66936,-3.03787 3.10126,-7.39314 2.9533,-11.57832 0.51672,-2.61506 -1.86667,-7.38034 -1.91591,-8.25385 1.50492,3.35538 2.6178,7.21535 2.51216,10.81074 -2.26219,4.74656 -4.52439,9.49311 -6.78658,14.23966 1.37071,-4.18666 3.55664,-7.32242 6.14344,-11.39873 1.47162,-4.46189 0.15207,-8.89441 -1.32725,-13.12945 l -0.19727,-0.67591 -0.19727,-0.67591 z"
       style="color:#000000;fill:#000000;stroke-width:0.941083;-inkscape-stroke:none"
       id="path13"
       inkscape:label="input_s"
       sodipodi:nodetypes="sccccccccccccccccccccccccccccccccccccccccccccccccccccccccccccccccccccccccs" />
    <path
       d="m 81.709435,250.69848 c -1.846804,-4.99674 -5.800487,-11.76603 -7.491883,-18.06871 0.166182,1.88758 0.624732,3.51727 1.010654,5.09367 0.899744,2.39895 2.317781,4.85917 2.976324,7.19094 -1.406362,-2.45086 -2.473157,-5.07674 -3.737282,-7.59888 1.253595,4.16776 3.28301,8.04078 5.134394,11.96391 -2.18363,-4.58903 -4.852046,-8.95234 -6.6566,-13.71724 1.783429,4.00567 3.566871,8.01133 5.3503,12.017 -1.141475,-1.99029 -2.14863,-4.05526 -3.29629,-6.04137 1.035644,2.30895 2.217127,4.55342 3.229957,6.87054 -2.411193,-5.35099 -6.234461,-10.43072 -6.213293,-16.5503 0.01321,-3.02599 1.302828,-5.85249 2.211291,-8.67864 0.496902,-1.08009 1.40397,-3.18244 1.532514,-3.72518 -0.934665,2.00941 -1.187431,4.26054 -2.202967,6.25117 -1.267245,2.90968 -2.913605,6.30254 -1.27096,9.40192 1.198044,2.50996 1.94485,5.23571 3.061244,7.79485 1.66594,4.18922 3.411109,8.35052 4.868624,12.61893 -1.86459,-3.4642 -3.170592,-7.1979 -4.926227,-10.7186 -1.077269,-2.30381 -2.051557,-4.66123 -3.257053,-6.90187 2.756115,7.37802 7.309914,14.12424 8.65539,21.9931 -1.912139,-4.25106 -3.273147,-8.74248 -5.26001,-12.96983 -2.346898,-5.62284 -5.156018,-11.5376 -4.452522,-17.79398 0.193961,-1.20238 0.33916,-1.7078 0.06822,-0.22897 -0.8578,5.97046 0.798429,12.1403 4.075233,17.15263 2.326504,4.43761 3.683707,9.28365 5.235506,14.02393 -1.140361,-6.08057 -4.336089,-11.46741 -7.12996,-16.89833 -0.821495,-3.08109 -2.20531,-5.99588 -3.211401,-9.02496 0.181187,1.11508 1.102157,3.66937 1.626806,5.32112 0.910185,2.86221 2.163929,5.62764 3.623645,8.2467 -1.483817,-3.15395 -2.967629,-6.30791 -4.45145,-9.46186 2.900224,7.39333 7.345477,14.28471 8.60556,22.24263 -1.410602,-4.4409 -2.550188,-9.00478 -4.826496,-13.11223 -2.113399,-4.07999 -4.105595,-8.30593 -5.034511,-12.8304 -0.277069,-1.72708 0.783374,-6.38928 1.423988,-8.02056 0.03906,2.61079 -0.631668,8.17297 0.271325,10.63231 -0.209217,-1.91983 -0.720501,-5.06596 -0.347062,-7.46624 0.06594,-1.57456 0.563236,-4.58725 0.539991,-5.37118 -0.866864,3.20857 -2.181038,5.79745 -2.130567,10.16126 2.130046,6.72722 4.363372,12.76574 7.881832,18.88923 -0.207029,-0.94536 -1.390978,-3.55137 -0.302235,-1.3516 1.900552,3.78671 3.486685,8.0611 2.710375,12.35853 -0.31611,-5.07764 -0.601378,-10.43673 -3.338944,-14.89037 -0.644002,-1.20115 -0.588941,-1.48015 0.106321,-0.0781 0.571839,1.03014 1.60236,3.26695 0.552313,1.07213 -2.288842,-4.72826 -4.675175,-9.44545 -6.21518,-14.48503 2.609325,5.98369 5.500783,11.84404 7.93474,17.9039 0.689942,5.66587 0.211527,11.45349 -1.27067,16.95971 l 2.8712,-12.584 c -1.674314,-4.50366 -4.02367,-8.76208 -5.30245,-13.40479 2.351721,4.47083 3.895033,9.30895 6.16626,13.81764 -0.433432,-3.15308 -1.690896,-6.13958 -3.00681,-9.01582 1.995291,4.2547 2.618015,9.16629 1.865137,13.78964 -0.241524,1.41484 -0.86287,3.25333 -0.775796,4.44347 1.264879,-2.22003 0.655881,-4.75565 0.629165,-7.17167 -0.138934,-3.04513 -0.289132,-6.08975 -0.414706,-9.13547 -2.432171,-5.44933 -4.864329,-10.89867 -7.2965,-16.348 1.361288,3.6987 2.906248,7.35968 4.87453,10.7784 0.43602,0.86554 1.585987,3.23961 2.396079,4.6504 2.180867,4.22149 3.121604,9.03725 2.968391,13.7702 0.213144,-3.55843 0.03243,-7.23584 -1.32296,-10.57566 1.855604,3.66793 2.865866,8.08139 1.349,12.04966 0.509464,-4.33606 0.523351,-8.8989 -1.383798,-12.92847 -2.342432,-5.92393 -5.535358,-11.49984 -7.460076,-17.58876 3.077804,7.15889 6.12926,14.32967 9.189774,21.49623 -0.08726,-1.12821 -0.90727,-3.06084 -0.503414,-0.77814 0.463008,2.59789 0.821985,5.21378 1.242014,7.81912 -0.281811,-5.24116 -0.952511,-10.64131 -3.593988,-15.27467 0.700919,2.52804 1.650463,4.98084 2.693991,7.38307 1.397589,3.94047 0.517105,8.29864 -1.314103,11.9426 -0.470594,1.70824 -1.276489,3.37422 -1.654487,5.06899 1.234579,-1.95199 1.537705,-4.30225 2.461602,-6.40334 1.38106,-3.71277 2.164758,-7.93411 0.680595,-11.73921 -0.238373,-0.8289 -1.298496,-3.39082 -1.030278,-3.15782 1.427948,3.30413 2.456815,6.8664 2.372248,10.49472 -2.262188,4.74656 -4.524388,9.49311 -6.78658,14.23966 1.327085,-4.14784 3.832829,-7.75596 6.14344,-11.39873 1.684989,-4.87294 0.461358,-8.51175 -1.225583,-13.07597 z"
       style="color:#000000;fill:#e6e6e6;stroke-width:0.941083;-inkscape-stroke:none"
       id="path14"
       inkscape:label="input_s"
       sodipodi:nodetypes="scccccccccccccccccccccccccccccccccccccccccccccccccccccccccccccccccccccccccccss" />
    <path
       style="fill:#1a1a1a;stroke:none;stroke-width:1px;stroke-linecap:butt;stroke-linejoin:miter;stroke-opacity:1"
       d="m 29.521966,355.34658 c -0.267029,5.60856 0.559084,10.89405 6.549253,14.65335 -1.157884,-3.29864 -2.404011,-6.1876 -1.220691,-8.7654 0.848277,5.21596 7.267256,16.37383 15.670479,15.45428 -1.488474,-2.07217 -2.042456,-10.03413 1.313703,-12.68282 -2.656249,8.35722 2.564527,12.62038 5.85272,12.66211 1.190311,2.61868 -2.276629,-8.40884 0.916184,-11.84004 0.123637,1.84347 4.366535,8.77299 6.447187,8.99032 -2.109823,-6.26798 5.417033,-10.38514 4.685356,-18.51993 -2.420512,-26.91127 -1.328103,-58.58121 -23.375272,-58.90772 -22.540379,-0.32159 -10.693708,31.89188 -16.838919,58.95585 z"
       id="path15"
       sodipodi:nodetypes="ccccccccscc" />
    <path
       d="m 40.316849,298.25246 -2.1489,0.79649 -2.148702,0.79634 0.63248,-0.06 0.735584,-0.0426 1.316633,-0.41652 1.316861,-0.41659 0.07886,0.0807 0.07267,0.0796 0.767484,-0.18718 -1.139401,0.51831 -0.19626,0.2464 -0.08505,0.26102 0.787897,-0.32709 0.470794,0.0187 0.404091,0.007 1.014016,-0.39258 0.949462,-0.40115 -1.151481,0.76307 0.06596,0.2033 0.177973,0.21247 0.104268,0.33485 1.471199,-1.15147 -0.03367,0.28272 0.03389,0.28504 -0.03748,0.19256 0.70434,-0.42443 0.605713,-0.43172 -0.284009,0.64211 -0.227817,0.6442 0.519168,0.0382 0.533573,0.0329 0.03024,0.90745 0.575794,0.91133 -0.02034,-1.36408 -0.03778,-1.36507 0.420918,-0.23082 0.329184,-0.23551 0.172351,-0.23933 0.196908,-0.17735 0.0045,-0.1748 0.69449,0.93855 0.881769,0.92782 -0.154594,-0.52822 -0.176472,-0.52973 -0.332628,-0.6163 -0.591545,-0.6008 1.763212,1.43539 1.763066,1.43538 -0.565747,-0.80744 0.312443,-0.12969 0.153018,-0.11724 -1.446511,-0.93191 -1.44664,-0.932 0.992841,0.52197 1.190099,0.4969 1.307059,0.47886 -0.06437,-0.14453 2.21139,0.89582 -1.344237,-0.71713 -1.383534,-0.71385 2.396652,0.94691 -1.312605,-0.68961 -1.43801,-0.66971 -1.616706,-0.63771 2.54187,0.7674 2.611391,0.75025 2.654098,0.74085 -0.741486,-0.31696 -0.649725,-0.34148 3.118966,0.88634 -2.056034,-0.64665 -2.056032,-0.64675 -2.339851,-0.6465 -0.717128,-0.10373 -0.153407,0.0257 -0.227452,0.0402 0.955106,0.34611 -0.807313,-0.16735 -0.835961,-0.16176 -0.715635,-0.18957 -0.876521,-0.29399 -1.019599,-0.27093 1.891268,0.79506 0.772542,0.38422 0.650616,0.40362 -0.682851,-0.20666 -0.681427,-0.20822 0.172213,-0.0423 0.770585,0.51399 0.675325,0.5245 0.676986,0.52332 -2.921061,-1.59917 -2.732234,-1.6225 1.73103,1.22986 1.693889,1.23104 -0.239365,0.0692 -0.208798,0.0626 -0.309106,0.0269 -0.258644,0.0206 -0.31715,0.0213 -1.049863,-1.37133 -0.02826,-0.0614 -0.250485,-0.0546 -0.03855,0.0859 -0.286727,0.0904 0.07769,0.48126 -0.175801,0.19241 -0.135293,0.19039 -0.201593,-0.82124 0.155928,-0.82005 0.03542,-0.29854 -0.609446,1.62646 -0.82024,1.619 -0.122527,-0.59483 0.08422,-0.59073 -0.475424,0.35252 0.518872,-1.0038 0.805134,-0.98749 -0.721499,0.4509 -0.60298,0.45753 -0.188133,0.0198 1.285983,-1.07743 -1.015654,0.52048 -0.917965,0.52764 -1.607985,0.81721 -1.692107,0.80454 1.611206,-1.02521 1.742775,-1.00911 -0.443554,0.10172 -0.44344,0.10165 1.526832,-0.78775 -1.605112,0.59295 -1.578887,0.59416 2.192148,-1.00343 2.192333,-1.00351 -1.467641,0.61436 -1.718759,0.57172 -1.369663,0.48906 0.880414,-0.45238 0.837659,-0.46007 2.889451,-1.11194 -1.640479,0.63264 -1.885032,0.5864 z"
       style="color:#000000;fill:#999999;stroke-width:0.13654;-inkscape-stroke:none"
       id="path16"
       inkscape:label="output_2" />
    <path
       d="m 33.388231,340.38646 -0.260128,-6.64053 -0.260205,-6.63936 0.324534,0.55372 0.415977,0.42628 0.26098,3.49473 0.261021,3.49537 0.165764,-0.63877 0.160256,-0.63105 0.231156,1.5907 -0.0015,-4.29159 0.223043,-2.00064 0.315853,-2.10521 0.04554,2.7163 0.331603,-0.0964 0.271686,-0.01 0.09897,3.26785 0.04497,3.32927 0.338513,-6.25795 0.331639,-1.62449 0.417232,-1.68525 0.543423,-2.67621 -0.683367,9.41261 0.37998,-2.27355 0.42703,-2.28434 0.249377,-1.55012 -0.146893,3.48798 -0.221166,3.53532 0.728544,-5.18735 0.767921,-5.19772 0.390504,-0.24658 0.392477,-0.20336 1.309205,-7.28151 1.668128,-7.25009 -1.951739,10.94849 -1.964414,10.95428 -0.05535,1.90124 -0.121456,1.92845 -0.228461,1.94101 -0.124475,1.44629 -0.245475,1.40388 1.783708,-7.45503 1.889751,-7.34726 -0.850833,4.22285 -0.867115,4.23227 -1.091334,4.90953 -1.237014,4.7553 3.182086,-11.321 3.181979,-11.32095 -1.513985,6.41726 0.01809,1.07696 -0.06748,0.9587 -2.261418,7.31544 -2.261614,7.31607 1.384937,-4.07643 1.477114,-3.85266 1.527232,-3.69437 -0.247091,1.15291 2.70561,-6.938 -1.889934,5.60294 -1.910725,5.57208 2.898222,-7.32686 -1.830336,5.38566 -1.883276,5.21143 -1.953562,4.93406 2.737181,-5.86909 2.757848,-5.72348 2.772158,-5.64312 -0.930767,2.45945 -0.906185,2.66691 3.280066,-6.75785 -2.250875,4.95554 -2.250984,4.95616 -2.434514,4.92178 -0.611975,0.75056 -0.06282,-0.2241 -0.09024,-0.34865 1.110586,-2.66904 -0.760801,1.2509 -0.771415,1.20275 -0.732995,1.43982 -0.985599,2.25958 -1.045528,2.05813 2.355055,-6.16587 1.046479,-2.9959 0.995054,-3.16557 -0.73603,1.58069 -0.737339,1.59347 0.05146,0.35925 1.229627,-4.03789 1.182859,-4.1332 1.182244,-4.12346 -4.164872,12.50296 -4.07572,12.71197 2.86914,-9.67465 2.84678,-9.6885 -0.05671,-0.58302 -0.04634,-0.52623 -0.161968,-0.25162 -0.138183,-0.19554 -0.17514,-0.20758 -2.628941,10.88852 -0.105527,0.48947 -0.239741,0.40894 0.09713,-0.6941 -0.05729,-0.7585 0.734245,-3.85449 0.159561,-1.56482 0.18293,-1.54399 -1.297693,6.56976 -1.064395,6.60118 -0.401315,2.40067 1.916619,-13.12691 1.769476,-13.09125 -0.924706,4.76116 -0.784947,4.75199 0.193015,-2.88459 -1.090426,8.11798 -0.881787,8.01974 0.173403,-3.7025 0.259609,-3.74216 -0.09379,-0.18019 -0.698106,8.79687 0.08172,-4.29475 0.155196,-4.34111 0.119734,-6.74492 0.04723,-6.65282 -0.413247,8.41513 -0.305115,8.30082 -0.142767,-0.86749 -0.142804,-0.86686 -0.130439,6.49913 -0.197103,-4.9443 -0.178414,-4.9509 -0.006,8.30687 -0.0059,8.3075 -0.07762,-5.1004 -0.300919,-4.78674 -0.19222,-4.0833 -0.07258,3.73267 -0.111186,3.78942 0.291536,9.25796 -0.163625,-5.26689 -0.387754,-4.92373 z"
       style="color:#000000;fill:#4d4d4d;stroke-width:0.316214;-inkscape-stroke:none"
       id="path17"
       inkscape:label="output_2" />
    <path
       d="m 44.776355,335.77105 -1.385088,4.60685 -1.38496,4.60601 0.407669,-0.34669 0.474125,-0.24634 0.848645,-2.40913 0.848792,-2.40954 0.05083,0.46673 0.04684,0.46067 0.494686,-1.08266 -0.734408,2.99787 -0.126501,1.42521 -0.05482,1.50974 0.507844,-1.89194 0.303453,0.10837 0.260459,0.0404 0.653591,-2.27066 0.611982,-2.32023 -0.742194,4.4136 0.04252,1.17587 0.114714,1.2289 0.06721,1.93678 0.94827,-6.66008 -0.0217,1.63528 0.02185,1.64863 -0.02416,1.11374 0.453986,-2.45484 0.390416,-2.4971 -0.183059,3.71395 -0.146842,3.72603 0.334635,0.22056 0.343917,0.1906 0.01949,5.2487 0.371132,5.27114 -0.0131,-7.88988 -0.02435,-7.89549 0.271305,-1.33504 0.212178,-1.36221 0.111089,-1.38423 0.126918,-1.02576 0.003,-1.01109 0.447638,5.4286 0.56835,5.36643 -0.09965,-3.05526 -0.113746,-3.06387 -0.214398,-3.56471 -0.381284,-3.47498 1.13649,8.30225 1.136397,8.30222 -0.364657,-4.67026 0.201387,-0.75011 0.09863,-0.67809 -0.932359,-5.39017 -0.932442,-5.39062 0.639942,3.01902 0.767087,2.87411 0.842473,2.76972 -0.04148,-0.83597 1.425366,5.18142 -0.866437,-4.14788 -0.891766,-4.1289 1.544778,5.47689 -0.846048,-3.98872 -0.926879,-3.87357 -1.042059,-3.68847 1.638379,4.43859 1.68319,4.33942 1.710717,4.28507 -0.47793,-1.83326 -0.418784,-1.97515 2.01035,5.12661 -1.32523,-3.74025 -1.32523,-3.74071 -1.508167,-3.73938 -0.462229,-0.60001 -0.09888,0.14879 -0.146606,0.2324 0.61562,2.00191 -0.520359,-0.96796 -0.538825,-0.93562 -0.461267,-1.09649 -0.564967,-1.7004 -0.65719,-1.5671 1.21903,4.59866 0.497947,2.22233 0.419359,2.33449 -0.440137,-1.19528 -0.439218,-1.20437 0.111001,-0.2446 0.496685,2.97289 0.435286,3.0337 0.436356,3.02682 -1.882789,-9.24951 -1.76108,-9.3845 1.115747,7.11343 1.091807,7.12036 -0.154284,0.40028 -0.134582,0.36189 -0.199237,0.15575 -0.166711,0.11951 -0.204421,0.12335 -0.676695,-7.93173 -0.01821,-0.35499 -0.161452,-0.31533 -0.02485,0.4969 -0.184813,0.5228 0.05008,2.78351 -0.113314,1.11291 -0.0872,1.10123 -0.129938,-4.75005 0.100505,-4.74316 0.02283,-1.72671 -0.392822,9.40736 -0.528691,9.36425 -0.07898,-3.44046 0.05428,-3.41676 -0.306437,2.03901 0.334442,-5.80599 0.518955,-5.71156 -0.465048,2.60797 -0.388654,2.64634 -0.121262,0.11429 0.828888,-6.23175 -0.654647,3.01038 -0.59168,3.05185 -1.036437,4.72675 -1.09066,4.65343 1.038514,-5.92983 1.123318,-5.83661 -0.285896,0.58837 -0.285822,0.58791 0.984129,-4.55636 -1.034586,3.42966 -1.017682,3.43659 1.412965,-5.80383 1.413082,-5.80428 -0.945978,3.55349 -1.107837,3.30676 -0.882826,2.82878 0.567477,-2.61658 0.539919,-2.66101 1.862415,-6.43147 -1.057382,3.65917 -1.215009,3.39172 z"
       style="color:#000000;fill:#4d4d4d;stroke-width:0.263636;-inkscape-stroke:none"
       id="path18"
       inkscape:label="output_2" />
    <path
       d="m 66.595936,342.36042 c -0.825467,-4.15008 -1.439734,-8.34548 -2.776674,-12.39755 -0.455847,-1.55124 -0.911696,-3.10248 -1.367543,-4.65372 0.33727,3.45981 1.554754,6.77448 2.095752,10.20604 0.0878,0.81888 0.689237,2.48609 -0.139109,1.10911 0.104127,0.7191 0.403327,2.98037 0.04212,1.14062 -0.480589,-2.67409 -1.152195,-5.32094 -2.259911,-7.84671 -0.144467,-0.0439 0.634794,2.24922 0.679976,3.11787 -0.5335,2.221 0.695063,4.54794 0.734931,6.82711 0.100984,0.77072 0.419995,2.77793 0.07665,1.012 -0.642988,-2.91098 -0.927951,-5.92 -2.289919,-8.6596 -0.338223,-0.76064 -0.993597,-2.61197 -1.107982,-2.74997 0.780964,3.35294 1.561927,6.70587 2.34289,10.05881 -0.559555,-2.03543 -1.178554,-4.0573 -1.812349,-6.0751 0.49563,2.55123 0.918613,5.11374 1.267719,7.68429 -0.741196,-3.54622 -1.550272,-7.09212 -2.665245,-10.55723 -1.17156,-0.81532 -1.224537,-2.43131 -1.869,-3.62116 -0.792733,-2.08086 -1.557924,-4.18697 -2.878579,-6.05699 -0.943252,-1.5166 -1.886505,-3.03319 -2.829758,-4.54979 1.858566,3.60633 3.964414,7.12869 5.663474,10.7895 0.992591,3.70173 2.177224,7.37379 3.039415,11.09635 0.18085,2.83701 0.259829,5.67821 0.317803,8.51904 -0.70075,-4.07576 -1.333086,-8.16711 -2.476521,-12.16761 -0.303951,-1.17929 -0.607902,-2.35859 -0.911854,-3.53789 1.550831,6.23257 2.304708,12.59199 2.876801,18.94762 -0.766309,-4.39512 -1.28347,-8.8317 -2.215664,-13.19956 -1.122944,-3.76942 -2.245885,-7.53883 -3.368829,-11.30824 0.643707,2.25955 1.55572,4.48348 2.02524,6.76675 0.01228,2.68306 0.977657,5.27412 1.392401,7.91789 0.656194,3.25351 0.952778,6.55205 1.432923,9.82807 -0.786491,-4.74587 -1.63833,-9.49098 -2.906501,-14.15583 0.243654,1.65991 -0.176742,-0.11978 -0.379076,-0.75619 -0.652147,-2.25227 -1.304295,-4.50453 -1.956443,-6.7568 1.059877,3.81074 2.03456,7.64109 2.627829,11.53495 0.221693,1.16509 0.269646,1.48203 -0.0034,0.23198 -0.61183,-2.69714 -1.223657,-5.39427 -1.835486,-8.0914 1.384488,5.96326 2.173928,12.0173 2.654383,18.0885 0.133294,1.29704 -0.242106,-1.41991 -0.318113,-1.91194 -0.59311,-4.89677 -1.648113,-9.73617 -2.877315,-14.53314 -0.784436,-2.4158 -1.646427,-4.81198 -2.441747,-7.22562 0.520914,1.56533 1.454964,4.74971 1.514379,5.40865 -1.100499,-2.85969 -2.200997,-5.71937 -3.301496,-8.57905 1.255825,3.1762 2.674447,6.3139 3.379578,9.63842 1.135149,3.87142 1.656892,7.85409 2.636519,11.75419 0.863198,-0.291 -0.314572,-2.99089 -0.0079,-3.14825 1.070565,4.08417 1.901844,8.21774 2.515623,12.37627 -0.566807,-4.90074 -0.954311,-9.81813 -1.633606,-14.70825 0.271603,1.18424 1.026795,3.32755 0.848557,3.97412 -0.498355,-4.38676 -1.325678,-8.74941 -2.423889,-13.05136 1.075578,5.10201 2.40955,10.16694 3.310738,15.29426 0.507757,4.60076 1.015517,9.20152 1.523267,13.80227 -0.453773,-5.69056 -0.734173,-11.40035 -1.767556,-17.03868 -0.0058,-1.8129 -1.116907,-3.86305 -0.346539,-5.54367 1.126347,0.84303 0.719008,3.65323 1.274408,5.19789 0.439605,2.2616 0.640435,4.57986 1.279029,6.79903 0.61239,0.72667 0.389029,-1.78628 0.325502,-2.27543 -0.323219,-1.97266 -0.34681,-3.96957 -0.556707,-5.95174 0.992448,5.38668 1.877452,10.79483 2.366071,16.23867 -0.570918,-4.86644 -0.908713,-9.76013 -1.633989,-14.60879 -0.917029,-4.24657 -1.834059,-8.49314 -2.751089,-12.73971 1.050239,3.1243 1.961474,6.28752 2.754223,9.46959 -0.109316,-0.78397 -0.434478,-2.58623 -0.437755,-2.72714 0.999039,4.78996 1.996978,9.5834 2.573626,14.43206 0.130548,0.80567 0.438031,3.385 0.284473,1.29596 -0.09337,-2.45331 -0.419679,-4.91551 -0.535674,-7.35319 0.516908,3.07928 0.884692,6.26935 1.342688,9.39166 -0.320539,-6.58927 -1.039148,-13.17501 -2.425788,-19.65571 -0.497738,-1.93774 -0.942949,-3.88596 -1.414203,-5.829 1.136772,4.44779 2.544654,8.85214 3.165996,13.39034 0.303992,1.79607 0.607983,3.59214 0.911976,5.38822 -7e-6,-0.92407 -0.120906,-3.45244 0.106107,-1.37613 0.293295,2.15585 0.586584,4.31171 0.879877,6.46756 -0.278679,-4.10872 -0.663797,-8.21184 -1.176719,-12.30254 0.789674,5.44803 1.651364,10.89248 1.985503,16.38265 0.08228,0.84096 0.253395,3.08351 0.280222,3.05153 -0.212523,-5.72105 -0.549457,-11.44429 -1.298714,-17.13076 0.929975,4.58162 1.664597,9.19757 1.87912,13.85434 0.155506,2.01009 0.311025,4.02019 0.466531,6.03029 -0.212722,-6.57549 -0.662222,-13.14412 -1.475577,-19.68303 z"
       style="color:#000000;fill:#666666;stroke-width:1.09613;-inkscape-stroke:none"
       id="path21"
       inkscape:label="stretch" />
    <path
       style="fill:#333333;fill-opacity:1;stroke:none;stroke-width:1px;stroke-linecap:butt;stroke-linejoin:miter;stroke-opacity:1"
       d="M 103.64638,401.15704 C 95.372987,389.92919 86.731339,375.57836 84.600209,366.6899 83.56198,360.36404 77.071402,357.10771 69.37522,358.78731 l 1.05143,26.27085 c 1.333364,-10.50487 12.914654,7.07376 18.331876,16.34719 z"
       id="path25"
       sodipodi:nodetypes="cccccc" />
    <path
       style="fill:#000000;stroke:none;stroke-width:1px;stroke-linecap:butt;stroke-linejoin:miter;stroke-opacity:1"
       d="m 32.988983,417.26034 -1.92507,-8.16928 11.033695,8.39387 z"
       id="path26" />
    <path
       style="fill:#262626;fill-opacity:1;stroke:none;stroke-width:1px;stroke-linecap:butt;stroke-linejoin:miter;stroke-opacity:1"
       d="m 38.220825,404.35644 c -3.562866,-9.43462 -9.502482,-16.34898 -9.112109,-29.97555 2.995929,18.4572 6.782446,20.96855 10.675047,29.99001 z"
       id="path27"
       sodipodi:nodetypes="cccc" />
    <path
       style="fill:#262626;fill-opacity:1;stroke:none;stroke-width:1px;stroke-linecap:butt;stroke-linejoin:miter;stroke-opacity:1"
       d="m 66.670993,404.01788 c -1.424027,-7.04533 5.287004,-18.35984 5.210289,-28.52313 -1.155829,9.56246 -6.481652,20.38868 -6.773227,28.53759 z"
       id="path28"
       sodipodi:nodetypes="cccc" />
    <path
       style="fill:#000000;fill-opacity:0.14193;stroke:none;stroke-width:1px;stroke-linecap:butt;stroke-linejoin:miter;stroke-opacity:1"
       d="m 39.866934,403.92023 c -1.691358,-1.9678 -7.080648,-0.77157 -4.382023,-9.06075 2.367787,-7.27297 10.946939,-9.38388 14.240053,-8.9478 17.974558,2.38024 17.09252,4.13404 16.44661,18.00272 z"
       id="path29"
       sodipodi:nodetypes="csscc" />
    <path
       style="fill:#000000;stroke:none;stroke-width:1px;stroke-linecap:butt;stroke-linejoin:miter;stroke-opacity:1;fill-opacity:0.18402176"
       d="m 23.041398,407.75733 c -1.087821,-12.4013 1.517759,-21.42799 6.051804,-31.40879 l 1.288234,8.22659 c -5.381117,4.49928 -3.176559,15.72443 -4.671613,23.6693 z"
       id="path30"
       sodipodi:nodetypes="ccccc" />
    <path
       style="fill:#000000;stroke:none;stroke-width:1px;stroke-linecap:butt;stroke-linejoin:miter;stroke-opacity:1;fill-opacity:0.1998852"
       d="m 71.138611,381.88402 c 0.336782,-2.78925 0.485829,-5.5085 0.419525,-8.14745 8.282098,8.26447 10.084905,14.85227 14.541033,22.12668 -4.987046,-4.66064 -11.568121,-16.66392 -14.960558,-13.97923 z"
       id="path31"
       sodipodi:nodetypes="cccc" />
    <text
       xml:space="preserve"
       style="font-style:normal;font-variant:normal;font-weight:normal;font-stretch:normal;font-size:12px;line-height:normal;font-family:sans-serif;font-variant-ligatures:normal;font-variant-position:normal;font-variant-caps:normal;font-variant-numeric:normal;font-variant-alternates:normal;font-variant-east-asian:normal;font-feature-settings:normal;font-variation-settings:normal;text-indent:0;text-align:start;text-decoration-line:none;text-decoration-style:solid;text-decoration-color:#000000;letter-spacing:normal;word-spacing:normal;text-transform:none;writing-mode:lr-tb;direction:ltr;text-orientation:mixed;dominant-baseline:auto;baseline-shift:baseline;text-anchor:start;white-space:normal;shape-padding:0;shape-margin:0;inline-size:0;opacity:1;vector-effect:none;fill:#333333;fill-opacity:1;stroke:none;stroke-width:2;stroke-linecap:butt;stroke-linejoin:miter;stroke-miterlimit:4;stroke-dasharray:none;stroke-dashoffset:0;stroke-opacity:1;-inkscape-stroke:none;stop-color:#000000;stop-opacity:1"
       x="-93.465698"
       y="378.39258"
       id="text31"
       transform="translate(-21.100107,58.614069)"><tspan
         sodipodi:role="line"
         id="tspan31"
         x="-93.465698"
         y="378.39258">https://images.halloweencostumes.com/products/67508/2-1-152352/addams-family-morticia-womens-costume-alt-1.jpg</tspan></text>
    <text
       xml:space="preserve"
       style="font-style:normal;font-variant:normal;font-weight:normal;font-stretch:normal;font-size:8px;line-height:normal;font-family:sans-serif;font-variant-ligatures:normal;font-variant-position:normal;font-variant-caps:normal;font-variant-numeric:normal;font-variant-alternates:normal;font-variant-east-asian:normal;font-feature-settings:normal;font-variation-settings:normal;text-indent:0;text-align:start;text-decoration-line:none;text-decoration-style:solid;text-decoration-color:#000000;letter-spacing:normal;word-spacing:normal;text-transform:none;writing-mode:lr-tb;direction:ltr;text-orientation:mixed;dominant-baseline:auto;baseline-shift:baseline;text-anchor:start;white-space:normal;shape-padding:0;shape-margin:0;inline-size:0;opacity:1;vector-effect:none;fill:#333333;fill-opacity:1;stroke:none;stroke-width:2;stroke-linecap:butt;stroke-linejoin:miter;stroke-miterlimit:4;stroke-dasharray:none;stroke-dashoffset:0;stroke-opacity:1;-inkscape-stroke:none;stop-color:#000000;stop-opacity:1"
       x="48.03606"
       y="37.782314"
       id="text32"
       transform="translate(-29.112544,-2.2741051)"><tspan
         sodipodi:role="line"
         id="tspan32"
         x="48.03606"
         y="37.782314"
         style="font-style:normal;font-variant:normal;font-weight:normal;font-stretch:normal;font-size:8px;font-family:FreeMono;-inkscape-font-specification:FreeMono">jitter nodes</tspan></text>
    <path
       style="fill:none;stroke:#000000;stroke-width:0.726448px;stroke-linecap:butt;stroke-linejoin:miter;stroke-opacity:1;marker-mid:url(#Triangle);marker-end:url(#marker33)"
       d="m 46.825886,15.921424 0.161831,7.841193"
       id="path32" />
    <path
       style="fill:none;stroke:#000000;stroke-width:0.726448px;stroke-linecap:butt;stroke-linejoin:miter;stroke-opacity:1;marker-mid:url(#Triangle);marker-end:url(#marker33)"
       d="m 47.30039,39.494569 0.161831,7.841193"
       id="path34" />
    <text
       xml:space="preserve"
       style="font-style:normal;font-variant:normal;font-weight:normal;font-stretch:normal;font-size:12px;line-height:normal;font-family:sans-serif;font-variant-ligatures:normal;font-variant-position:normal;font-variant-caps:normal;font-variant-numeric:normal;font-variant-alternates:normal;font-variant-east-asian:normal;font-feature-settings:normal;font-variation-settings:normal;text-indent:0;text-align:start;text-decoration-line:none;text-decoration-style:solid;text-decoration-color:#000000;letter-spacing:normal;word-spacing:normal;text-transform:none;writing-mode:lr-tb;direction:ltr;text-orientation:mixed;dominant-baseline:auto;baseline-shift:baseline;text-anchor:start;white-space:normal;shape-padding:0;shape-margin:0;inline-size:0;opacity:1;vector-effect:none;fill:#333333;fill-opacity:1;stroke:none;stroke-width:2;stroke-linecap:butt;stroke-linejoin:miter;stroke-miterlimit:4;stroke-dasharray:none;stroke-dashoffset:0;stroke-opacity:1;-inkscape-stroke:none;stop-color:#000000;stop-opacity:1"
       x="24.74198"
       y="102.71104"
       id="text34"
       transform="translate(-3.0995487)"><tspan
         sodipodi:role="line"
         id="tspan34"
         x="24.74198"
         y="102.71104">+</tspan></text>
    <path
       style="fill:none;stroke:#000000;stroke-width:0.726448px;stroke-linecap:butt;stroke-linejoin:miter;stroke-opacity:1;marker-mid:url(#Triangle);marker-end:url(#marker33)"
       d="m 50.251038,100.06585 7.841197,-0.161833"
       id="path35" />
    <text
       xml:space="preserve"
       style="font-style:normal;font-variant:normal;font-weight:normal;font-stretch:normal;font-size:12px;line-height:normal;font-family:sans-serif;font-variant-ligatures:normal;font-variant-position:normal;font-variant-caps:normal;font-variant-numeric:normal;font-variant-alternates:normal;font-variant-east-asian:normal;font-feature-settings:normal;font-variation-settings:normal;text-indent:0;text-align:start;text-decoration-line:none;text-decoration-style:solid;text-decoration-color:#000000;letter-spacing:normal;word-spacing:normal;text-transform:none;writing-mode:lr-tb;direction:ltr;text-orientation:mixed;dominant-baseline:auto;baseline-shift:baseline;text-anchor:start;white-space:normal;shape-padding:0;shape-margin:0;inline-size:0;opacity:1;vector-effect:none;fill:#333333;fill-opacity:1;stroke:none;stroke-width:2;stroke-linecap:butt;stroke-linejoin:miter;stroke-miterlimit:4;stroke-dasharray:none;stroke-dashoffset:0;stroke-opacity:1;-inkscape-stroke:none;stop-color:#000000;stop-opacity:1"
       x="24.74198"
       y="102.71104"
       id="text35"
       transform="translate(-3.3098664,71.161347)"><tspan
         sodipodi:role="line"
         id="tspan35"
         x="24.74198"
         y="102.71104">+</tspan></text>
    <path
       style="fill:none;stroke:#000000;stroke-width:0.726448px;stroke-linecap:butt;stroke-linejoin:miter;stroke-opacity:1;marker-mid:url(#Triangle);marker-end:url(#marker33)"
       d="m 48.611602,176.99267 7.841197,-0.16183"
       id="path36" />
    <text
       xml:space="preserve"
       style="font-style:normal;font-variant:normal;font-weight:normal;font-stretch:normal;font-size:12px;line-height:normal;font-family:sans-serif;font-variant-ligatures:normal;font-variant-position:normal;font-variant-caps:normal;font-variant-numeric:normal;font-variant-alternates:normal;font-variant-east-asian:normal;font-feature-settings:normal;font-variation-settings:normal;text-indent:0;text-align:start;text-decoration-line:none;text-decoration-style:solid;text-decoration-color:#000000;letter-spacing:normal;word-spacing:normal;text-transform:none;writing-mode:lr-tb;direction:ltr;text-orientation:mixed;dominant-baseline:auto;baseline-shift:baseline;text-anchor:start;white-space:normal;shape-padding:0;shape-margin:0;inline-size:0;opacity:1;vector-effect:none;fill:#333333;fill-opacity:1;stroke:none;stroke-width:2;stroke-linecap:butt;stroke-linejoin:miter;stroke-miterlimit:4;stroke-dasharray:none;stroke-dashoffset:0;stroke-opacity:1;-inkscape-stroke:none;stop-color:#000000;stop-opacity:1"
       x="24.74198"
       y="102.71104"
       id="text36"
       transform="translate(-0.45541075,146.53331)"><tspan
         sodipodi:role="line"
         id="tspan36"
         x="24.74198"
         y="102.71104">+</tspan></text>
    <path
       style="fill:none;stroke:#000000;stroke-width:0.726448px;stroke-linecap:butt;stroke-linejoin:miter;stroke-opacity:1;marker-mid:url(#Triangle);marker-end:url(#marker33)"
       d="m 56.859995,245.63118 7.841197,-0.16183"
       id="path37" />
  </g>
</svg>
