<?xml version="1.0" encoding="UTF-8" standalone="no"?>
<!-- Created with Inkscape (http://www.inkscape.org/) -->

<svg
   width="91.813591"
   height="111.85608"
   viewBox="0 0 91.813591 111.85608"
   version="1.1"
   id="svg1"
   sodipodi:docname="hair_effect.svg"
   inkscape:export-filename="hair_effect.png"
   inkscape:export-xdpi="96"
   inkscape:export-ydpi="96"
   inkscape:version="1.3.2 (091e20e, 2023-11-25)"
   xmlns:inkscape="http://www.inkscape.org/namespaces/inkscape"
   xmlns:sodipodi="http://sodipodi.sourceforge.net/DTD/sodipodi-0.dtd"
   xmlns="http://www.w3.org/2000/svg"
   xmlns:svg="http://www.w3.org/2000/svg">
  <sodipodi:namedview
     id="namedview1"
     pagecolor="#ffffff"
     bordercolor="#666666"
     borderopacity="1.0"
     inkscape:showpageshadow="2"
     inkscape:pageopacity="0.0"
     inkscape:pagecheckerboard="0"
     inkscape:deskcolor="#d1d1d1"
     inkscape:zoom="7.2950885"
     inkscape:cx="45.852768"
     inkscape:cy="33.995475"
     inkscape:window-width="1848"
     inkscape:window-height="1016"
     inkscape:window-x="72"
     inkscape:window-y="27"
     inkscape:window-maximized="1"
     inkscape:current-layer="svg1" />
  <defs
     id="defs1" />
  <g
     id="layer1"
     transform="translate(-11.832786,-296.38834)">
    <path
       style="fill:#333333;fill-opacity:1;stroke:none;stroke-width:1px;stroke-linecap:butt;stroke-linejoin:miter;stroke-opacity:1"
       d="m 11.832786,408.02643 c 2.711053,-12.36304 4.413142,-24.32039 6.112754,-36.27674 1.038229,-6.32586 0.603541,-17.45781 13.67298,-13.35677 l -1.05143,26.27085 c -4.356063,2.23661 -4.056931,13.54746 -4.744049,23.42245 z"
       id="path24" />
    <path
       style="fill:#333333;stroke:none;stroke-width:1px;stroke-linecap:butt;stroke-linejoin:miter;stroke-opacity:1"
       d="m 26.129598,363.18024 c 0.970333,-9.32842 17.619796,-5.04738 18.149866,-12.71355 l 13.195221,-0.43091 c 1.234315,5.39056 17.182471,7.6918 17.780255,12.29997 0.760471,17.65243 -10.288288,27.84525 -8.984161,41.68996 L 38.078748,403.77066 C 31.60038,384.56634 26.382013,384.02095 26.129598,363.18024 Z"
       id="path22" />
    <path
       style="fill:#1a1a1a;stroke:none;stroke-width:1px;stroke-linecap:butt;stroke-linejoin:miter;stroke-opacity:1"
       d="m 29.521966,355.34658 c -0.267029,5.60856 0.559084,10.89405 6.549253,14.65335 -1.157884,-3.29864 -2.404011,-6.1876 -1.220691,-8.7654 0.848277,5.21596 7.267256,16.37383 15.670479,15.45428 -1.488474,-2.07217 -2.042456,-10.03413 1.313703,-12.68282 -2.656249,8.35722 2.564527,12.62038 5.85272,12.66211 1.190311,2.61868 -2.276629,-8.40884 0.916184,-11.84004 0.123637,1.84347 4.366535,8.77299 6.447187,8.99032 -2.109823,-6.26798 5.417033,-10.38514 4.685356,-18.51993 -2.420512,-26.91127 -1.328103,-58.58121 -23.375272,-58.90772 -22.540379,-0.32159 -10.693708,31.89188 -16.838919,58.95585 z"
       id="path15" />
    <path
       d="m 40.316849,298.25246 -2.1489,0.79649 -2.148702,0.79634 0.63248,-0.06 0.735584,-0.0426 1.316633,-0.41652 1.316861,-0.41659 0.07886,0.0807 0.07267,0.0796 0.767484,-0.18718 -1.139401,0.51831 -0.19626,0.2464 -0.08505,0.26102 0.787897,-0.32709 0.470794,0.0187 0.404091,0.007 1.014016,-0.39258 0.949462,-0.40115 -1.151481,0.76307 0.06596,0.2033 0.177973,0.21247 0.104268,0.33485 1.471199,-1.15147 -0.03367,0.28272 0.03389,0.28504 -0.03748,0.19256 0.70434,-0.42443 0.605713,-0.43172 -0.284009,0.64211 -0.227817,0.6442 0.519168,0.0382 0.533573,0.0329 0.03024,0.90745 0.575794,0.91133 -0.02034,-1.36408 -0.03778,-1.36507 0.420918,-0.23082 0.329184,-0.23551 0.172351,-0.23933 0.196908,-0.17735 0.0045,-0.1748 0.69449,0.93855 0.881769,0.92782 -0.154594,-0.52822 -0.176472,-0.52973 -0.332628,-0.6163 -0.591545,-0.6008 1.763212,1.43539 1.763066,1.43538 -0.565747,-0.80744 0.312443,-0.12969 0.153018,-0.11724 -1.446511,-0.93191 -1.44664,-0.932 0.992841,0.52197 1.190099,0.4969 1.307059,0.47886 -0.06437,-0.14453 2.21139,0.89582 -1.344237,-0.71713 -1.383534,-0.71385 2.396652,0.94691 -1.312605,-0.68961 -1.43801,-0.66971 -1.616706,-0.63771 2.54187,0.7674 2.611391,0.75025 2.654098,0.74085 -0.741486,-0.31696 -0.649725,-0.34148 3.118966,0.88634 -2.056034,-0.64665 -2.056032,-0.64675 -2.339851,-0.6465 -0.717128,-0.10373 -0.153407,0.0257 -0.227452,0.0402 0.955106,0.34611 -0.807313,-0.16735 -0.835961,-0.16176 -0.715635,-0.18957 -0.876521,-0.29399 -1.019599,-0.27093 1.891268,0.79506 0.772542,0.38422 0.650616,0.40362 -0.682851,-0.20666 -0.681427,-0.20822 0.172213,-0.0423 0.770585,0.51399 0.675325,0.5245 0.676986,0.52332 -2.921061,-1.59917 -2.732234,-1.6225 1.73103,1.22986 1.693889,1.23104 -0.239365,0.0692 -0.208798,0.0626 -0.309106,0.0269 -0.258644,0.0206 -0.31715,0.0213 -1.049863,-1.37133 -0.02826,-0.0614 -0.250485,-0.0546 -0.03855,0.0859 -0.286727,0.0904 0.07769,0.48126 -0.175801,0.19241 -0.135293,0.19039 -0.201593,-0.82124 0.155928,-0.82005 0.03542,-0.29854 -0.609446,1.62646 -0.82024,1.619 -0.122527,-0.59483 0.08422,-0.59073 -0.475424,0.35252 0.518872,-1.0038 0.805134,-0.98749 -0.721499,0.4509 -0.60298,0.45753 -0.188133,0.0198 1.285983,-1.07743 -1.015654,0.52048 -0.917965,0.52764 -1.607985,0.81721 -1.692107,0.80454 1.611206,-1.02521 1.742775,-1.00911 -0.443554,0.10172 -0.44344,0.10165 1.526832,-0.78775 -1.605112,0.59295 -1.578887,0.59416 2.192148,-1.00343 2.192333,-1.00351 -1.467641,0.61436 -1.718759,0.57172 -1.369663,0.48906 0.880414,-0.45238 0.837659,-0.46007 2.889451,-1.11194 -1.640479,0.63264 -1.885032,0.5864 z"
       style="color:#000000;fill:#999999;stroke-width:0.13654;-inkscape-stroke:none"
       id="path16" />
    <path
       d="m 33.388231,340.38646 -0.260128,-6.64053 -0.260205,-6.63936 0.324534,0.55372 0.415977,0.42628 0.26098,3.49473 0.261021,3.49537 0.165764,-0.63877 0.160256,-0.63105 0.231156,1.5907 -0.0015,-4.29159 0.223043,-2.00064 0.315853,-2.10521 0.04554,2.7163 0.331603,-0.0964 0.271686,-0.01 0.09897,3.26785 0.04497,3.32927 0.338513,-6.25795 0.331639,-1.62449 0.417232,-1.68525 0.543423,-2.67621 -0.683367,9.41261 0.37998,-2.27355 0.42703,-2.28434 0.249377,-1.55012 -0.146893,3.48798 -0.221166,3.53532 0.728544,-5.18735 0.767921,-5.19772 0.390504,-0.24658 0.392477,-0.20336 1.309205,-7.28151 1.668128,-7.25009 -1.951739,10.94849 -1.964414,10.95428 -0.05535,1.90124 -0.121456,1.92845 -0.228461,1.94101 -0.124475,1.44629 -0.245475,1.40388 1.783708,-7.45503 1.889751,-7.34726 -0.850833,4.22285 -0.867115,4.23227 -1.091334,4.90953 -1.237014,4.7553 3.182086,-11.321 3.181979,-11.32095 -1.513985,6.41726 0.01809,1.07696 -0.06748,0.9587 -2.261418,7.31544 -2.261614,7.31607 1.384937,-4.07643 1.477114,-3.85266 1.527232,-3.69437 -0.247091,1.15291 2.70561,-6.938 -1.889934,5.60294 -1.910725,5.57208 2.898222,-7.32686 -1.830336,5.38566 -1.883276,5.21143 -1.953562,4.93406 2.737181,-5.86909 2.757848,-5.72348 2.772158,-5.64312 -0.930767,2.45945 -0.906185,2.66691 3.280066,-6.75785 -2.250875,4.95554 -2.250984,4.95616 -2.434514,4.92178 -0.611975,0.75056 -0.06282,-0.2241 -0.09024,-0.34865 1.110586,-2.66904 -0.760801,1.2509 -0.771415,1.20275 -0.732995,1.43982 -0.985599,2.25958 -1.045528,2.05813 2.355055,-6.16587 1.046479,-2.9959 0.995054,-3.16557 -0.73603,1.58069 -0.737339,1.59347 0.05146,0.35925 1.229627,-4.03789 1.182859,-4.1332 1.182244,-4.12346 -4.164872,12.50296 -4.07572,12.71197 2.86914,-9.67465 2.84678,-9.6885 -0.05671,-0.58302 -0.04634,-0.52623 -0.161968,-0.25162 -0.138183,-0.19554 -0.17514,-0.20758 -2.628941,10.88852 -0.105527,0.48947 -0.239741,0.40894 0.09713,-0.6941 -0.05729,-0.7585 0.734245,-3.85449 0.159561,-1.56482 0.18293,-1.54399 -1.297693,6.56976 -1.064395,6.60118 -0.401315,2.40067 1.916619,-13.12691 1.769476,-13.09125 -0.924706,4.76116 -0.784947,4.75199 0.193015,-2.88459 -1.090426,8.11798 -0.881787,8.01974 0.173403,-3.7025 0.259609,-3.74216 -0.09379,-0.18019 -0.698106,8.79687 0.08172,-4.29475 0.155196,-4.34111 0.119734,-6.74492 0.04723,-6.65282 -0.413247,8.41513 -0.305115,8.30082 -0.142767,-0.86749 -0.142804,-0.86686 -0.130439,6.49913 -0.197103,-4.9443 -0.178414,-4.9509 -0.006,8.30687 -0.0059,8.3075 -0.07762,-5.1004 -0.300919,-4.78674 -0.19222,-4.0833 -0.07258,3.73267 -0.111186,3.78942 0.291536,9.25796 -0.163625,-5.26689 -0.387754,-4.92373 z"
       style="color:#000000;fill:#4d4d4d;stroke-width:0.316214;-inkscape-stroke:none"
       id="path17" />
    <path
       d="m 44.776355,335.77105 -1.385088,4.60685 -1.38496,4.60601 0.407669,-0.34669 0.474125,-0.24634 0.848645,-2.40913 0.848792,-2.40954 0.05083,0.46673 0.04684,0.46067 0.494686,-1.08266 -0.734408,2.99787 -0.126501,1.42521 -0.05482,1.50974 0.507844,-1.89194 0.303453,0.10837 0.260459,0.0404 0.653591,-2.27066 0.611982,-2.32023 -0.742194,4.4136 0.04252,1.17587 0.114714,1.2289 0.06721,1.93678 0.94827,-6.66008 -0.0217,1.63528 0.02185,1.64863 -0.02416,1.11374 0.453986,-2.45484 0.390416,-2.4971 -0.183059,3.71395 -0.146842,3.72603 0.334635,0.22056 0.343917,0.1906 0.01949,5.2487 0.371132,5.27114 -0.0131,-7.88988 -0.02435,-7.89549 0.271305,-1.33504 0.212178,-1.36221 0.111089,-1.38423 0.126918,-1.02576 0.003,-1.01109 0.447638,5.4286 0.56835,5.36643 -0.09965,-3.05526 -0.113746,-3.06387 -0.214398,-3.56471 -0.381284,-3.47498 1.13649,8.30225 1.136397,8.30222 -0.364657,-4.67026 0.201387,-0.75011 0.09863,-0.67809 -0.932359,-5.39017 -0.932442,-5.39062 0.639942,3.01902 0.767087,2.87411 0.842473,2.76972 -0.04148,-0.83597 1.425366,5.18142 -0.866437,-4.14788 -0.891766,-4.1289 1.544778,5.47689 -0.846048,-3.98872 -0.926879,-3.87357 -1.042059,-3.68847 1.638379,4.43859 1.68319,4.33942 1.710717,4.28507 -0.47793,-1.83326 -0.418784,-1.97515 2.01035,5.12661 -1.32523,-3.74025 -1.32523,-3.74071 -1.508167,-3.73938 -0.462229,-0.60001 -0.09888,0.14879 -0.146606,0.2324 0.61562,2.00191 -0.520359,-0.96796 -0.538825,-0.93562 -0.461267,-1.09649 -0.564967,-1.7004 -0.65719,-1.5671 1.21903,4.59866 0.497947,2.22233 0.419359,2.33449 -0.440137,-1.19528 -0.439218,-1.20437 0.111001,-0.2446 0.496685,2.97289 0.435286,3.0337 0.436356,3.02682 -1.882789,-9.24951 -1.76108,-9.3845 1.115747,7.11343 1.091807,7.12036 -0.154284,0.40028 -0.134582,0.36189 -0.199237,0.15575 -0.166711,0.11951 -0.204421,0.12335 -0.676695,-7.93173 -0.01821,-0.35499 -0.161452,-0.31533 -0.02485,0.4969 -0.184813,0.5228 0.05008,2.78351 -0.113314,1.11291 -0.0872,1.10123 -0.129938,-4.75005 0.100505,-4.74316 0.02283,-1.72671 -0.392822,9.40736 -0.528691,9.36425 -0.07898,-3.44046 0.05428,-3.41676 -0.306437,2.03901 0.334442,-5.80599 0.518955,-5.71156 -0.465048,2.60797 -0.388654,2.64634 -0.121262,0.11429 0.828888,-6.23175 -0.654647,3.01038 -0.59168,3.05185 -1.036437,4.72675 -1.09066,4.65343 1.038514,-5.92983 1.123318,-5.83661 -0.285896,0.58837 -0.285822,0.58791 0.984129,-4.55636 -1.034586,3.42966 -1.017682,3.43659 1.412965,-5.80383 1.413082,-5.80428 -0.945978,3.55349 -1.107837,3.30676 -0.882826,2.82878 0.567477,-2.61658 0.539919,-2.66101 1.862415,-6.43147 -1.057382,3.65917 -1.215009,3.39172 z"
       style="color:#000000;fill:#4d4d4d;stroke-width:0.263636;-inkscape-stroke:none"
       id="path18" />
    <path
       d="m 66.595936,342.36042 c -0.825467,-4.15008 -1.439734,-8.34548 -2.776674,-12.39755 -0.455847,-1.55124 -0.911696,-3.10248 -1.367543,-4.65372 0.33727,3.45981 1.554754,6.77448 2.095752,10.20604 0.0878,0.81888 0.689237,2.48609 -0.139109,1.10911 0.104127,0.7191 0.403327,2.98037 0.04212,1.14062 -0.480589,-2.67409 -1.152195,-5.32094 -2.259911,-7.84671 -0.144467,-0.0439 0.634794,2.24922 0.679976,3.11787 -0.5335,2.221 0.695063,4.54794 0.734931,6.82711 0.100984,0.77072 0.419995,2.77793 0.07665,1.012 -0.642988,-2.91098 -0.927951,-5.92 -2.289919,-8.6596 -0.338223,-0.76064 -0.993597,-2.61197 -1.107982,-2.74997 0.780964,3.35294 1.561927,6.70587 2.34289,10.05881 -0.559555,-2.03543 -1.178554,-4.0573 -1.812349,-6.0751 0.49563,2.55123 0.918613,5.11374 1.267719,7.68429 -0.741196,-3.54622 -1.550272,-7.09212 -2.665245,-10.55723 -1.17156,-0.81532 -1.224537,-2.43131 -1.869,-3.62116 -0.792733,-2.08086 -1.557924,-4.18697 -2.878579,-6.05699 -0.943252,-1.5166 -1.886505,-3.03319 -2.829758,-4.54979 1.858566,3.60633 3.964414,7.12869 5.663474,10.7895 0.992591,3.70173 2.177224,7.37379 3.039415,11.09635 0.18085,2.83701 0.259829,5.67821 0.317803,8.51904 -0.70075,-4.07576 -1.333086,-8.16711 -2.476521,-12.16761 -0.303951,-1.17929 -0.607902,-2.35859 -0.911854,-3.53789 1.550831,6.23257 2.304708,12.59199 2.876801,18.94762 -0.766309,-4.39512 -1.28347,-8.8317 -2.215664,-13.19956 -1.122944,-3.76942 -2.245885,-7.53883 -3.368829,-11.30824 0.643707,2.25955 1.55572,4.48348 2.02524,6.76675 0.01228,2.68306 0.977657,5.27412 1.392401,7.91789 0.656194,3.25351 0.952778,6.55205 1.432923,9.82807 -0.786491,-4.74587 -1.63833,-9.49098 -2.906501,-14.15583 0.243654,1.65991 -0.176742,-0.11978 -0.379076,-0.75619 -0.652147,-2.25227 -1.304295,-4.50453 -1.956443,-6.7568 1.059877,3.81074 2.03456,7.64109 2.627829,11.53495 0.221693,1.16509 0.269646,1.48203 -0.0034,0.23198 -0.61183,-2.69714 -1.223657,-5.39427 -1.835486,-8.0914 1.384488,5.96326 2.173928,12.0173 2.654383,18.0885 0.133294,1.29704 -0.242106,-1.41991 -0.318113,-1.91194 -0.59311,-4.89677 -1.648113,-9.73617 -2.877315,-14.53314 -0.784436,-2.4158 -1.646427,-4.81198 -2.441747,-7.22562 0.520914,1.56533 1.454964,4.74971 1.514379,5.40865 -1.100499,-2.85969 -2.200997,-5.71937 -3.301496,-8.57905 1.255825,3.1762 2.674447,6.3139 3.379578,9.63842 1.135149,3.87142 1.656892,7.85409 2.636519,11.75419 0.863198,-0.291 -0.314572,-2.99089 -0.0079,-3.14825 1.070565,4.08417 1.901844,8.21774 2.515623,12.37627 -0.566807,-4.90074 -0.954311,-9.81813 -1.633606,-14.70825 0.271603,1.18424 1.026795,3.32755 0.848557,3.97412 -0.498355,-4.38676 -1.325678,-8.74941 -2.423889,-13.05136 1.075578,5.10201 2.40955,10.16694 3.310738,15.29426 0.507757,4.60076 1.015517,9.20152 1.523267,13.80227 -0.453773,-5.69056 -0.734173,-11.40035 -1.767556,-17.03868 -0.0058,-1.8129 -1.116907,-3.86305 -0.346539,-5.54367 1.126347,0.84303 0.719008,3.65323 1.274408,5.19789 0.439605,2.2616 0.640435,4.57986 1.279029,6.79903 0.61239,0.72667 0.389029,-1.78628 0.325502,-2.27543 -0.323219,-1.97266 -0.34681,-3.96957 -0.556707,-5.95174 0.992448,5.38668 1.877452,10.79483 2.366071,16.23867 -0.570918,-4.86644 -0.908713,-9.76013 -1.633989,-14.60879 -0.917029,-4.24657 -1.834059,-8.49314 -2.751089,-12.73971 1.050239,3.1243 1.961474,6.28752 2.754223,9.46959 -0.109316,-0.78397 -0.434478,-2.58623 -0.437755,-2.72714 0.999039,4.78996 1.996978,9.5834 2.573626,14.43206 0.130548,0.80567 0.438031,3.385 0.284473,1.29596 -0.09337,-2.45331 -0.419679,-4.91551 -0.535674,-7.35319 0.516908,3.07928 0.884692,6.26935 1.342688,9.39166 -0.320539,-6.58927 -1.039148,-13.17501 -2.425788,-19.65571 -0.497738,-1.93774 -0.942949,-3.88596 -1.414203,-5.829 1.136772,4.44779 2.544654,8.85214 3.165996,13.39034 0.303992,1.79607 0.607983,3.59214 0.911976,5.38822 -7e-6,-0.92407 -0.120906,-3.45244 0.106107,-1.37613 0.293295,2.15585 0.586584,4.31171 0.879877,6.46756 -0.278679,-4.10872 -0.663797,-8.21184 -1.176719,-12.30254 0.789674,5.44803 1.651364,10.89248 1.985503,16.38265 0.08228,0.84096 0.253395,3.08351 0.280222,3.05153 -0.212523,-5.72105 -0.549457,-11.44429 -1.298714,-17.13076 0.929975,4.58162 1.664597,9.19757 1.87912,13.85434 0.155506,2.01009 0.311025,4.02019 0.466531,6.03029 -0.212722,-6.57549 -0.662222,-13.14412 -1.475577,-19.68303 z"
       style="color:#000000;fill:#666666;stroke-width:1.09613;-inkscape-stroke:none"
       id="path21" />
    <path
       style="fill:#333333;fill-opacity:1;stroke:none;stroke-width:1px;stroke-linecap:butt;stroke-linejoin:miter;stroke-opacity:1"
       d="M 103.64638,401.15704 C 95.372987,389.92919 86.731339,375.57836 84.600209,366.6899 83.56198,360.36404 77.071402,357.10771 69.37522,358.78731 l 1.05143,26.27085 c 1.333364,-10.50487 12.914654,7.07376 18.331876,16.34719 z"
       id="path25" />
    <path
       style="fill:#262626;fill-opacity:1;stroke:none;stroke-width:1px;stroke-linecap:butt;stroke-linejoin:miter;stroke-opacity:1"
       d="m 38.220825,404.35644 c -3.562866,-9.43462 -9.502482,-16.34898 -9.112109,-29.97555 2.995929,18.4572 6.782446,20.96855 10.675047,29.99001 z"
       id="path27" />
    <path
       style="fill:#262626;fill-opacity:1;stroke:none;stroke-width:1px;stroke-linecap:butt;stroke-linejoin:miter;stroke-opacity:1"
       d="m 66.670993,404.01788 c -1.424027,-7.04533 5.287004,-18.35984 5.210289,-28.52313 -1.155829,9.56246 -6.481652,20.38868 -6.773227,28.53759 z"
       id="path28" />
    <path
       style="fill:#000000;fill-opacity:0.14193;stroke:none;stroke-width:1px;stroke-linecap:butt;stroke-linejoin:miter;stroke-opacity:1"
       d="m 39.866934,403.92023 c -1.691358,-1.9678 -7.080648,-0.77157 -4.382023,-9.06075 2.367787,-7.27297 10.946939,-9.38388 14.240053,-8.9478 17.974558,2.38024 17.09252,4.13404 16.44661,18.00272 z"
       id="path29" />
    <path
       style="fill:#000000;fill-opacity:0.184022;stroke:none;stroke-width:1px;stroke-linecap:butt;stroke-linejoin:miter;stroke-opacity:1"
       d="m 23.041398,407.75733 c -1.087821,-12.4013 1.517759,-21.42799 6.051804,-31.40879 l 1.288234,8.22659 c -5.381117,4.49928 -3.176559,15.72443 -4.671613,23.6693 z"
       id="path30" />
    <path
       style="fill:#000000;fill-opacity:0.199885;stroke:none;stroke-width:1px;stroke-linecap:butt;stroke-linejoin:miter;stroke-opacity:1"
       d="m 71.138611,381.88402 c 0.336782,-2.78925 0.485829,-5.5085 0.419525,-8.14745 8.282098,8.26447 10.084905,14.85227 14.541033,22.12668 -4.987046,-4.66064 -11.568121,-16.66392 -14.960558,-13.97923 z"
       id="path31" />
  </g>
</svg>
