<?xml version="1.0" encoding="UTF-8" standalone="no"?>
<!-- Created with Inkscape (http://www.inkscape.org/) -->

<svg
   width="81.839439"
   height="212.53641"
   viewBox="0 0 81.839439 212.53641"
   version="1.1"
   id="svg1"
   xmlns="http://www.w3.org/2000/svg"
   xmlns:svg="http://www.w3.org/2000/svg">
  <defs
     id="defs1">
    <marker
       style="overflow:visible"
       id="marker33"
       refX="0"
       refY="0"
       orient="auto-start-reverse"
       markerWidth="1"
       markerHeight="1"
       viewBox="0 0 1 1"
       preserveAspectRatio="xMidYMid">
      <path
         transform="scale(0.5)"
         style="fill:context-stroke;fill-rule:evenodd;stroke:context-stroke;stroke-width:1pt"
         d="M 5.77,0 -2.88,5 V -5 Z"
         id="path33" />
    </marker>
    <marker
       style="overflow:visible"
       id="Triangle"
       refX="0"
       refY="0"
       orient="auto-start-reverse"
       markerWidth="1"
       markerHeight="1"
       viewBox="0 0 1 1"
       preserveAspectRatio="xMidYMid">
      <path
         transform="scale(0.5)"
         style="fill:context-stroke;fill-rule:evenodd;stroke:context-stroke;stroke-width:1pt"
         d="M 5.77,0 -2.88,5 V -5 Z"
         id="path135" />
    </marker>
  </defs>
  <g
     id="layer1"
     transform="translate(-10.569383,-63.975742)">
    <path
       style="color:#000000;fill:#000000;stroke-width:0.941083;-inkscape-stroke:none"
       d="m 10.569383,94.824955 1.45e-4,13.115475 1.43e-4,13.1142 0.131114,-1.95551 0.131106,-1.95551 0.07336,-7.23733 0.07336,-7.23863 0.07594,0.76672 0.07594,0.76671 0.09662,-3.55735 0.0031,8.03761 0.103446,3.20239 0.103445,3.20239 0.03492,-5.1863 0.127772,-0.55503 0.127765,-0.55503 0.08119,-6.28733 0.08119,-6.288606 0.02933,11.007656 0.120423,2.43568 0.120416,2.43567 0.122709,4.11755 0.03162,-16.293346 0.09913,3.651576 0.09913,3.65158 0.05213,2.52861 0.08248,-6.11565 0.08248,-6.115656 0.06351,8.650716 0.0635,8.65072 0.121068,0.24396 0.121069,0.24396 0.09297,12.13192 0.09297,12.13063 -0.04091,-18.28759 -0.04091,-18.28888 0.132259,-3.135266 0.132259,-3.13657 0.111017,-3.170121 0.08675,-2.309182 0.08674,-2.310474 0.06744,12.805703 0.06744,12.80569 0.07841,-7.05791 0.0784,-7.05791 0.08287,-8.304797 0.08287,-8.304795 0.03298,20.235352 0.03297,20.23407 0.06312,-10.89408 0.107229,-1.23655 0.107222,-1.23785 0.01278,-13.506586 0.01278,-13.507873 0.09817,7.849154 0.09815,7.845279 0.0982,7.851736 0.05243,-1.79933 0.04953,14.33268 0.08525,-10.6953 0.08524,-10.696576 0.0041,15.274926 0.112821,-10.2616 0.11278,-10.259008 0.112855,-10.265473 0.06418,13.658895 0.06414,13.653736 0.06419,13.66277 0.07481,-4.93589 0.0748,-4.93719 0.0038,16.22882 0.05238,-11.31229 0.05238,-11.31228 -0.01903,-11.993806 -0.08885,-2.746751 -0.09296,-0.114877 -0.09294,-0.116169 -0.04397,5.725847 -0.09406,-3.541871 -0.09405,-3.539281 -0.0941,-3.543158 -0.09625,-5.026245 -0.09625,-5.026249 -0.03111,12.588852 -0.079,5.825232 -0.079,5.825226 -0.0767,-3.603816 -0.07671,-3.605113 0.07786,-0.207807 -0.08489,7.361236 -0.08487,7.35996 -0.08492,7.36382 -0.04517,-23.809481 -0.04518,-23.809491 -0.07297,17.58025 -0.07297,17.578952 -0.09203,0.5873 -0.09203,0.58601 -0.09238,0.0478 -0.09234,0.0465 -0.09241,0.0478 -0.01425,-18.762594 -0.07512,-0.845452 -0.07513,-0.846742 -0.107752,1.121677 -0.10775,1.120386 -0.06694,6.477068 -0.06831,2.558301 -0.06831,2.5583 -0.08941,-10.997336 -0.08941,-10.998627 -0.01509,-4.002668 -0.05992,21.909481 -0.05993,21.909476 -0.100311,-7.85819 -0.100301,-7.85948 -0.06403,4.95138 -0.105451,-13.54143 -0.105461,-13.542729 -0.0874,6.501593 -0.08742,6.501593 -0.05369,0.453061 -0.09929,-15.147153 -0.09724,7.787197 -0.09725,7.785909 -0.09678,12.302299 -0.09678,12.30101 -0.04651,-14.87738 -0.04651,-14.878672 -0.07705,1.921953 -0.07706,1.920661 -0.06171,-11.864733 -0.116438,9.701406 -0.116443,9.700119 -0.01003,-15.535675 -0.01003,-15.536964 -0.103583,9.732383 -0.103583,9.731092 -0.0594,8.135704 -0.09414,-6.776525 -0.09415,-6.776527 0.01823,-18.084939 -0.08428,10.283543 -0.08425,10.27967 z"
       id="path3" />
    <path
       style="color:#000000;fill:#000000;stroke-width:0.941083;-inkscape-stroke:none"
       d="m 11.527396,168.74916 1.45e-4,13.11548 1.43e-4,13.1142 0.131114,-1.95551 0.131106,-1.95551 0.07336,-7.23733 0.07336,-7.23863 0.07594,0.76672 0.07594,0.76671 0.09662,-3.55735 0.0031,8.03761 0.103446,3.20239 0.103445,3.20239 0.03492,-5.1863 0.127772,-0.55503 0.127765,-0.55503 0.08119,-6.28733 0.08119,-6.28861 0.02933,11.00766 0.120423,2.43568 0.120416,2.43567 0.122709,4.11755 0.03162,-16.29335 0.09913,3.65158 0.09913,3.65158 0.05213,2.52861 0.08248,-6.11565 0.08248,-6.11566 0.06351,8.65072 0.0635,8.65072 0.121068,0.24396 0.121069,0.24396 0.09297,12.13192 0.09297,12.13063 -0.04091,-18.28759 -0.04091,-18.28888 0.132259,-3.13527 0.132259,-3.13657 0.111017,-3.17012 0.08675,-2.30919 0.08674,-2.31047 0.06744,12.80571 0.06744,12.80569 0.07841,-7.05791 0.0784,-7.05791 0.08287,-8.3048 0.08287,-8.3048 0.03298,20.23536 0.03297,20.23407 0.06312,-10.89408 0.107229,-1.23655 0.107222,-1.23785 0.01278,-13.50659 0.01278,-13.50788 0.09817,7.84916 0.09815,7.84528 0.0982,7.85174 0.05243,-1.79933 0.04953,14.33268 0.08525,-10.6953 0.08524,-10.69658 0.0041,15.27493 0.112821,-10.2616 0.11278,-10.25901 0.112855,-10.26548 0.06418,13.6589 0.06414,13.65374 0.06419,13.66277 0.07481,-4.93589 0.0748,-4.93719 0.0038,16.22882 0.05238,-11.31229 0.05238,-11.31228 -0.01903,-11.99381 -0.08885,-2.74675 -0.09296,-0.11488 -0.09294,-0.11617 -0.04397,5.72585 -0.09406,-3.54187 -0.09405,-3.53928 -0.0941,-3.54316 -0.09625,-5.02625 -0.09625,-5.02625 -0.03111,12.58886 -0.079,5.82523 -0.079,5.82523 -0.0767,-3.60382 -0.07671,-3.60512 0.07786,-0.2078 -0.08489,7.36124 -0.08487,7.35996 -0.08492,7.36382 -0.04517,-23.80949 -0.04518,-23.80949 -0.07297,17.58025 -0.07297,17.57896 -0.09203,0.5873 -0.09203,0.58601 -0.09238,0.0478 -0.09234,0.0465 -0.09241,0.0478 -0.01425,-18.7626 -0.07512,-0.84545 -0.07513,-0.84674 -0.107752,1.12167 -0.10775,1.12039 -0.06694,6.47707 -0.06831,2.5583 -0.06831,2.5583 -0.08941,-10.99734 -0.08941,-10.99863 -0.01509,-4.00266 -0.05992,21.90948 -0.05993,21.90948 -0.100311,-7.85819 -0.100301,-7.85948 -0.06403,4.95138 -0.105451,-13.54144 -0.105461,-13.54273 -0.0874,6.5016 -0.08742,6.50159 -0.05369,0.45306 -0.09929,-15.14715 -0.09724,7.7872 -0.09725,7.7859 -0.09678,12.30231 -0.09678,12.30101 -0.04651,-14.87738 -0.04651,-14.87868 -0.07705,1.92195 -0.07706,1.92067 -0.06171,-11.86474 -0.116438,9.70141 -0.116443,9.70012 -0.01003,-15.53568 -0.01003,-15.53696 -0.103583,9.73238 -0.103583,9.73109 -0.0594,8.13571 -0.09414,-6.77653 -0.09415,-6.77652 0.01823,-18.08494 -0.08428,10.28354 -0.08425,10.27967 z"
       id="path4" />
    <path
       style="color:#000000;fill:#000000;stroke-width:0.941083;-inkscape-stroke:none"
       d="m 11.558271,240.71509 1.45e-4,13.11548 1.43e-4,13.1142 0.131114,-1.95551 0.131106,-1.95551 0.07336,-7.23733 0.07336,-7.23863 0.07594,0.76672 0.07594,0.76671 0.09662,-3.55735 0.0031,8.03761 0.103446,3.20239 0.103445,3.20239 0.03492,-5.1863 0.127772,-0.55503 0.127765,-0.55503 0.08119,-6.28733 0.08119,-6.28861 0.02933,11.00766 0.120423,2.43568 0.120416,2.43567 0.122709,4.11755 0.03162,-16.29335 0.09913,3.65158 0.09913,3.65158 0.05213,2.52861 0.08248,-6.11565 0.08248,-6.11566 0.06351,8.65072 0.0635,8.65072 0.121068,0.24396 0.121069,0.24396 0.09297,12.13192 0.09297,12.13063 -0.04091,-18.28759 -0.04091,-18.28888 0.132259,-3.13527 0.132259,-3.13657 0.111017,-3.17012 0.08675,-2.30919 0.08674,-2.31047 0.06744,12.80571 0.06744,12.80569 0.07841,-7.05791 0.0784,-7.05791 0.08287,-8.3048 0.08287,-8.3048 0.03298,20.23536 0.03297,20.23407 0.06312,-10.89408 0.107229,-1.23655 0.107222,-1.23785 0.01278,-13.50659 0.01278,-13.50788 0.09817,7.84916 0.09815,7.84528 0.0982,7.85174 0.05243,-1.79933 0.04953,14.33268 0.08525,-10.6953 0.08524,-10.69658 0.0041,15.27493 0.112821,-10.2616 0.11278,-10.25901 0.112855,-10.26548 0.06418,13.6589 0.06414,13.65374 0.06419,13.66277 0.07481,-4.93589 0.0748,-4.93719 0.0038,16.22882 0.05238,-11.31229 0.05238,-11.31228 -0.01903,-11.99381 -0.08885,-2.74675 -0.09296,-0.11488 -0.09294,-0.11617 -0.04397,5.72585 -0.09406,-3.54187 -0.09405,-3.53928 -0.0941,-3.54316 -0.09625,-5.02625 -0.09625,-5.02625 -0.03111,12.58886 -0.079,5.82523 -0.079,5.82523 -0.0767,-3.60382 -0.07671,-3.60512 0.07786,-0.2078 -0.08489,7.36124 -0.08487,7.35996 -0.08492,7.36382 -0.04517,-23.80949 -0.04518,-23.80949 -0.07297,17.58025 -0.07297,17.57896 -0.09203,0.5873 -0.09203,0.58601 -0.09238,0.0478 -0.09234,0.0465 -0.09241,0.0478 -0.01425,-18.7626 -0.07512,-0.84545 -0.07513,-0.84674 -0.107752,1.12167 -0.10775,1.12039 -0.06694,6.47707 -0.06831,2.5583 -0.06831,2.5583 -0.08941,-10.99734 -0.08941,-10.99863 -0.01509,-4.00266 -0.05992,21.90948 -0.05993,21.90948 -0.100311,-7.85819 -0.100301,-7.85948 -0.06403,4.95138 -0.105451,-13.54144 -0.105461,-13.54273 -0.0874,6.5016 -0.08742,6.50159 -0.05369,0.45306 -0.09929,-15.14715 -0.09724,7.7872 -0.09725,7.7859 -0.09678,12.30231 -0.09678,12.30101 -0.04651,-14.87738 -0.04651,-14.87868 -0.07705,1.92195 -0.07706,1.92067 -0.06171,-11.86474 -0.116438,9.70141 -0.116443,9.70012 -0.01003,-15.53568 -0.01003,-15.53696 -0.103583,9.73238 -0.103583,9.73109 -0.0594,8.13571 -0.09414,-6.77653 -0.09415,-6.77652 0.01823,-18.08494 -0.08428,10.28354 -0.08425,10.27967 z"
       id="path5" />
    <path
       d="m 47.9152,76.3747 c -13.5503,18.9259 -13.3045,35.6854 0.9823,50.2394"
       style="fill:none;stroke:#000000;stroke-width:1px;stroke-linecap:butt;stroke-linejoin:miter;stroke-opacity:1"
       id="path6" />
    <path
       d="m 72.433593,105.25304 c 0.209467,-3.86766 -0.433542,-7.891623 0.943772,-11.6088 0.569209,-1.911101 1.138419,-3.822202 1.707628,-5.733303 -2.095384,3.69882 -2.831585,7.960588 -3.3354,12.128103 -0.133628,-1.67268 -0.34479,2.53356 -0.160951,0.0743 0.237684,-2.860319 0.451437,-5.747733 1.226413,-8.523927 -0.92146,3.272153 -2.13209,6.55911 -1.881166,10.018537 -5.37e-4,0.81589 0.08821,3.5939 0.09506,1.42605 0.05093,-4.123583 -0.101654,-8.355084 1.208027,-12.324055 -0.612228,3.725531 -1.230629,7.450044 -1.84559,11.175125 -0.08258,-2.339001 0.0064,-4.692398 0.408,-7.001403 -0.522604,2.793684 -0.835672,5.639903 -0.722494,8.484883 -0.0423,-3.424356 0.0099,-6.899923 0.929073,-10.220636 0.408735,-3.436454 2.045334,-6.54951 3.392039,-9.68508 1.434352,-2.939114 3.30425,-5.629471 4.971782,-8.435667 -2.221632,3.922381 -4.508742,7.807648 -6.689465,11.753171 -1.048889,4.873035 -2.653457,9.64275 -3.268021,14.598712 -0.146948,2.90418 0.144824,5.8287 0.846986,8.65002 -0.330043,-3.58364 -1.456604,-7.13347 -1.161418,-10.750456 0.428939,-2.711349 0.857879,-5.422698 1.286818,-8.134047 -1.481154,5.053013 -2.153661,10.423863 -1.186845,15.641133 0.365887,2.2418 1.103597,4.39998 1.884389,6.52587 -0.755275,-4.93191 -1.897936,-9.82628 -2.447452,-14.775148 1.353336,-4.771185 2.706672,-9.54237 4.060008,-14.313555 -1.212103,3.177071 -2.555141,6.304368 -3.674988,9.516367 -0.101683,3.742392 -0.966315,7.492246 -0.493378,11.230986 0.760854,2.96628 1.521711,5.93257 2.282566,8.89885 -1.696599,-4.32024 -3.034974,-8.89493 -2.784538,-13.58415 0.01951,-1.022344 0.196204,-3.587937 0.143827,-3.603183 0.40445,-1.153386 0.685527,-2.597568 1.041789,-3.873587 0.505107,-1.960694 1.010215,-3.921389 1.515323,-5.882083 -1.157647,3.881874 -2.792899,7.717836 -2.77159,11.838588 -0.11567,1.406805 -0.23134,2.813615 -0.34701,4.220415 0.4751,-3.910034 0.9502,-7.820069 1.4253,-11.730103 -0.630305,3.714017 -1.826394,7.416111 -1.368069,11.226253 -0.02039,2.82501 0.313435,5.66826 1.331625,8.31881 0.407083,1.32901 0.814163,2.65803 1.221244,3.98704 -0.954148,-3.47185 -1.993525,-6.92023 -2.894676,-10.4066 0.436931,-4.05994 -0.02731,-8.263517 1.14768,-12.216233 0.962032,-2.80019 1.924064,-5.60038 2.886096,-8.40057 -1.08257,2.246509 -2.055346,4.548486 -2.85116,6.91275 1.682789,-3.744615 3.319924,-7.509488 4.98436,-11.26225 -1.894978,3.919163 -4.159149,7.734848 -5.066024,12.041711 -0.89265,2.661526 -1.470026,5.455474 -1.266318,8.273258 -0.0537,2.342354 -0.289014,4.716604 0.187611,7.032694 0.642388,0.17005 -0.428523,-3.96547 0.04143,-1.81929 0.733995,4.73467 2.566976,9.26191 5.096095,13.31753 -1.591795,-4.21526 -4.133002,-8.19584 -4.45303,-12.78854 -0.188881,-1.64223 -0.272762,-3.29661 -0.248627,-4.94952 -0.006,1.64452 0.23937,3.27527 0.395144,4.909 -0.447505,-4.76616 -0.07568,-9.629098 1.48358,-14.176645 0.288287,-0.932346 0.698659,-2.701387 0.475865,-0.917373 -0.467312,5.643693 -0.934624,11.287388 -1.401936,16.931078 2.700404,5.33233 5.400796,10.66467 8.1012,15.997 -2.209505,-3.967 -4.779309,-7.75363 -6.753044,-11.83865 -0.548819,-4.26468 -1.097637,-8.52937 -1.646456,-12.794053 0.931988,-1.349785 0.824779,1.859903 0.968012,2.501313 0.40313,3.4708 0.806259,6.94159 1.209388,10.41239 0.83726,1.10353 -0.121333,-1.62197 -0.184226,-2.00684 -0.563734,-2.26991 -1.063788,-4.58895 -1.017174,-6.94116 0.83694,3.69472 1.028802,7.64411 3.036345,10.96567 1.049641,2.23098 2.098997,4.49537 3.632533,6.44439 -2.022022,-4.82546 -4.089819,-9.63153 -6.130578,-14.44906 0.596433,-5.25003 1.192867,-10.500069 1.7893,-15.750103 -0.914864,3.310038 -1.708822,6.694229 -1.756252,10.144917 0.06584,-0.657122 0.207194,-3.292922 0.292122,-1.28242 0.267743,3.215446 -0.07675,6.537226 0.85729,9.660416 1.050713,2.63007 2.101427,5.26013 3.152141,7.89019 -1.354478,-2.79049 -2.666394,-5.65937 -3.178879,-8.74221 1.42228,3.17592 2.708868,6.40999 4.081576,9.60721 -2.326693,-4.32229 -4.317639,-9.07742 -4.075641,-14.08446 -0.113587,-2.6798 -0.338072,-5.438295 0.621958,-8.006249 0.378535,-1.407967 1.086915,-4.617689 1.226984,-4.891614 -0.585566,3.651456 -1.847014,7.236127 -1.859073,10.953863 0.453491,3.07116 0.906981,6.14231 1.360472,9.21346 -0.364141,-0.76324 -0.599553,-3.05544 0.04301,-1.04684 0.807398,2.01495 1.614792,4.0299 2.42219,6.04484 -1.28879,-3.24017 -2.891546,-6.45436 -3.064274,-10.00144 -0.136375,-0.93985 -0.272751,-1.87971 -0.409126,-2.81956 0.91884,3.52265 1.576765,7.1131 2.661425,10.59204 1.916355,2.91399 3.83272,5.82797 5.749075,8.74196 -2.076492,-2.89813 -4.336925,-5.73185 -5.625799,-9.09396 -1.134518,-2.33459 -1.728897,-4.88348 -2.184135,-7.42551 0.789924,4.32419 2.497702,8.54274 5.403721,11.88376 1.559416,2.15673 3.120419,4.31231 4.685813,6.46471 -2.413271,-2.90081 -4.943842,-5.76622 -6.585155,-9.19833 -1.703577,-2.80802 -2.262258,-6.04454 -3.124138,-9.16067 z"
       style="color:#000000;fill:#cccccc;stroke-width:0.941083;-inkscape-stroke:none"
       id="path8" />
    <path
       d="m 25.577653,158.44482 c 18.7673,13.7692 35.5285,13.718 50.2474,-0.39876"
       style="fill:none;stroke:#000000;stroke-width:1px;stroke-linecap:butt;stroke-linejoin:miter;stroke-opacity:1"
       id="path9" />
    <path
       d="m 68.37113,174.46698 -2.82118,1.32215 -2.82092,1.32191 0.83035,-0.0995 0.96571,-0.0707 1.72854,-0.69141 1.72884,-0.69153 0.10354,0.13395 0.0954,0.13221 1.00759,-0.31072 -1.49586,0.86038 -0.25766,0.40903 -0.11166,0.43329 1.03439,-0.54298 0.61808,0.0311 0.53051,0.0116 1.33125,-0.65167 1.2465,-0.6659 -1.51172,1.26669 0.0866,0.33747 0.23365,0.35269 0.13689,0.55585 1.93146,-1.91142 -0.0442,0.46932 0.0445,0.47315 -0.0492,0.31964 0.92469,-0.70453 0.79521,-0.71666 -0.37286,1.06589 -0.29909,1.06936 0.68159,0.0633 0.7005,0.0547 0.0397,1.50636 0.75593,1.5128 -0.0267,-2.26437 -0.0496,-2.26598 0.5526,-0.38315 0.43217,-0.39095 0.22627,-0.39727 0.25851,-0.29439 0.006,-0.29018 0.91176,1.55799 1.15763,1.54015 -0.20296,-0.87685 -0.23168,-0.87932 -0.43669,-1.02306 -0.77661,-0.99731 2.31483,2.38272 2.31464,2.38271 -0.74274,-1.34035 0.41019,-0.21528 0.20089,-0.19461 -1.89905,-1.54696 -1.89922,-1.54709 1.30345,0.86645 1.56242,0.82486 1.71597,0.7949 -0.0845,-0.23992 2.90322,1.48705 -1.76478,-1.19043 -1.81637,-1.18498 3.14644,1.57185 -1.72325,-1.14475 -1.88789,-1.1117 -2.12249,-1.05858 3.33709,1.27386 3.42836,1.2454 3.48443,1.2298 -0.97346,-0.52614 -0.85299,-0.56686 4.09473,1.47132 -2.69926,-1.07344 -2.69926,-1.07357 -3.07187,-1.07319 -0.94148,-0.1722 -0.2014,0.0427 -0.29861,0.0667 1.25391,0.57454 -1.05988,-0.2778 -1.09749,-0.26852 -0.93952,-0.31469 -1.15074,-0.48801 -1.33858,-0.44975 2.48295,1.3198 1.01423,0.6378 0.85416,0.66999 -0.89648,-0.34304 -0.89461,-0.34565 0.22609,-0.0702 1.01166,0.85321 0.8866,0.87066 0.88878,0.86869 -3.83491,-2.65458 -3.58701,-2.69332 2.27258,2.04153 2.22382,2.04352 -0.31425,0.11488 -0.27412,0.10386 -0.40581,0.0447 -0.33956,0.0343 -0.41637,0.0354 -1.37831,-2.27638 -0.0371,-0.10188 -0.32885,-0.0905 -0.0506,0.14261 -0.37643,0.15004 0.10199,0.79886 -0.2308,0.3194 -0.17762,0.31605 -0.26466,-1.36325 0.20471,-1.36127 0.0465,-0.49556 -0.80011,2.69988 -1.07685,2.68751 -0.16086,-0.9874 0.11057,-0.9806 -0.62416,0.58519 0.6812,-1.6663 1.05702,-1.6392 -0.94722,0.74848 -0.79162,0.75949 -0.24699,0.0328 1.6883,-1.78849 -1.3334,0.86397 -1.20515,0.87587 -2.11104,1.35656 -2.22148,1.33552 2.11527,-1.70184 2.288,-1.67509 -0.58232,0.16886 -0.58217,0.16873 2.0045,-1.30766 -2.10727,0.9843 -2.07284,0.98629 2.87796,-1.66568 2.8782,-1.66581 -1.92679,1.01984 -2.25647,0.94903 -1.79816,0.81185 1.15585,-0.75095 1.09972,-0.7637 3.79341,-1.84581 -2.1537,1.05017 -2.47476,0.97341 z"
       style="color:#000000;fill:#cccccc;stroke-width:0.201567;-inkscape-stroke:none"
       id="path10" />
    <path
       d="m 49.0918,219.419 c -18.2008,20.2951 19.9593,36.9107 -0.625717,56.7047"
       style="fill:none;stroke:#000000;stroke-width:1px;stroke-linecap:butt;stroke-linejoin:miter;stroke-opacity:1"
       id="path12" />
    <path
       d="m 81.709435,250.69848 c -1.846804,-4.99674 -5.800487,-11.76603 -7.491883,-18.06871 0.166182,1.88758 0.624732,3.51727 1.010654,5.09367 0.899744,2.39895 2.317781,4.85917 2.976324,7.19094 -1.406362,-2.45086 -2.473157,-5.07674 -3.737282,-7.59888 1.253595,4.16776 3.28301,8.04078 5.134394,11.96391 -2.18363,-4.58903 -4.852046,-8.95234 -6.6566,-13.71724 1.783429,4.00567 3.566871,8.01133 5.3503,12.017 -1.141475,-1.99029 -2.14863,-4.05526 -3.29629,-6.04137 1.035644,2.30895 2.217127,4.55342 3.229957,6.87054 -2.411193,-5.35099 -6.234461,-10.43072 -6.213293,-16.5503 0.01321,-3.02599 1.302828,-5.85249 2.211291,-8.67864 0.496902,-1.08009 1.40397,-3.18244 1.532514,-3.72518 -0.934665,2.00941 -1.187431,4.26054 -2.202967,6.25117 -1.267245,2.90968 -2.913605,6.30254 -1.27096,9.40192 1.198044,2.50996 1.94485,5.23571 3.061244,7.79485 1.66594,4.18922 3.411109,8.35052 4.868624,12.61893 -1.86459,-3.4642 -3.170592,-7.1979 -4.926227,-10.7186 -1.077269,-2.30381 -2.051557,-4.66123 -3.257053,-6.90187 2.756115,7.37802 7.309914,14.12424 8.65539,21.9931 -1.912139,-4.25106 -3.273147,-8.74248 -5.26001,-12.96983 -2.346898,-5.62284 -5.156018,-11.5376 -4.452522,-17.79398 0.193961,-1.20238 0.33916,-1.7078 0.06822,-0.22897 -0.8578,5.97046 0.798429,12.1403 4.075233,17.15263 2.326504,4.43761 3.683707,9.28365 5.235506,14.02393 -1.140361,-6.08057 -4.336089,-11.46741 -7.12996,-16.89833 -0.821495,-3.08109 -2.20531,-5.99588 -3.211401,-9.02496 0.181187,1.11508 1.102157,3.66937 1.626806,5.32112 0.910185,2.86221 2.163929,5.62764 3.623645,8.2467 -1.483817,-3.15395 -2.967629,-6.30791 -4.45145,-9.46186 2.900224,7.39333 7.345477,14.28471 8.60556,22.24263 -1.410602,-4.4409 -2.550188,-9.00478 -4.826496,-13.11223 -2.113399,-4.07999 -4.105595,-8.30593 -5.034511,-12.8304 -0.277069,-1.72708 0.783374,-6.38928 1.423988,-8.02056 0.03906,2.61079 -0.631668,8.17297 0.271325,10.63231 -0.209217,-1.91983 -0.720501,-5.06596 -0.347062,-7.46624 0.06594,-1.57456 0.563236,-4.58725 0.539991,-5.37118 -0.866864,3.20857 -2.181038,5.79745 -2.130567,10.16126 2.130046,6.72722 4.363372,12.76574 7.881832,18.88923 -0.207029,-0.94536 -1.390978,-3.55137 -0.302235,-1.3516 1.900552,3.78671 3.486685,8.0611 2.710375,12.35853 -0.31611,-5.07764 -0.601378,-10.43673 -3.338944,-14.89037 -0.644002,-1.20115 -0.588941,-1.48015 0.106321,-0.0781 0.571839,1.03014 1.60236,3.26695 0.552313,1.07213 -2.288842,-4.72826 -4.675175,-9.44545 -6.21518,-14.48503 2.609325,5.98369 5.500783,11.84404 7.93474,17.9039 0.689942,5.66587 0.211527,11.45349 -1.27067,16.95971 l 2.8712,-12.584 c -1.674314,-4.50366 -4.02367,-8.76208 -5.30245,-13.40479 2.351721,4.47083 3.895033,9.30895 6.16626,13.81764 -0.433432,-3.15308 -1.690896,-6.13958 -3.00681,-9.01582 1.995291,4.2547 2.618015,9.16629 1.865137,13.78964 -0.241524,1.41484 -0.86287,3.25333 -0.775796,4.44347 1.264879,-2.22003 0.655881,-4.75565 0.629165,-7.17167 -0.138934,-3.04513 -0.289132,-6.08975 -0.414706,-9.13547 -2.432171,-5.44933 -4.864329,-10.89867 -7.2965,-16.348 1.361288,3.6987 2.906248,7.35968 4.87453,10.7784 0.43602,0.86554 1.585987,3.23961 2.396079,4.6504 2.180867,4.22149 3.121604,9.03725 2.968391,13.7702 0.213144,-3.55843 0.03243,-7.23584 -1.32296,-10.57566 1.855604,3.66793 2.865866,8.08139 1.349,12.04966 0.509464,-4.33606 0.523351,-8.8989 -1.383798,-12.92847 -2.342432,-5.92393 -5.535358,-11.49984 -7.460076,-17.58876 3.077804,7.15889 6.12926,14.32967 9.189774,21.49623 -0.08726,-1.12821 -0.90727,-3.06084 -0.503414,-0.77814 0.463008,2.59789 0.821985,5.21378 1.242014,7.81912 -0.281811,-5.24116 -0.952511,-10.64131 -3.593988,-15.27467 0.700919,2.52804 1.650463,4.98084 2.693991,7.38307 1.397589,3.94047 0.517105,8.29864 -1.314103,11.9426 -0.470594,1.70824 -1.276489,3.37422 -1.654487,5.06899 1.234579,-1.95199 1.537705,-4.30225 2.461602,-6.40334 1.38106,-3.71277 2.164758,-7.93411 0.680595,-11.73921 -0.238373,-0.8289 -1.298496,-3.39082 -1.030278,-3.15782 1.427948,3.30413 2.456815,6.8664 2.372248,10.49472 -2.262188,4.74656 -4.524388,9.49311 -6.78658,14.23966 1.327085,-4.14784 3.832829,-7.75596 6.14344,-11.39873 1.684989,-4.87294 0.461358,-8.51175 -1.225583,-13.07597 z"
       style="color:#000000;fill:#e6e6e6;stroke-width:0.941083;-inkscape-stroke:none"
       id="path14" />
    <text
       xml:space="preserve"
       style="font-style:normal;font-variant:normal;font-weight:normal;font-stretch:normal;font-size:12px;line-height:normal;font-family:sans-serif;font-variant-ligatures:normal;font-variant-position:normal;font-variant-caps:normal;font-variant-numeric:normal;font-variant-alternates:normal;font-variant-east-asian:normal;font-feature-settings:normal;font-variation-settings:normal;text-indent:0;text-align:start;text-decoration-line:none;text-decoration-style:solid;text-decoration-color:#000000;letter-spacing:normal;word-spacing:normal;text-transform:none;writing-mode:lr-tb;direction:ltr;text-orientation:mixed;dominant-baseline:auto;baseline-shift:baseline;text-anchor:start;white-space:normal;shape-padding:0;shape-margin:0;inline-size:0;opacity:1;vector-effect:none;fill:#333333;fill-opacity:1;stroke:none;stroke-width:2;stroke-linecap:butt;stroke-linejoin:miter;stroke-miterlimit:4;stroke-dasharray:none;stroke-dashoffset:0;stroke-opacity:1;-inkscape-stroke:none;stop-color:#000000;stop-opacity:1"
       x="24.74198"
       y="102.71104"
       id="text34"
       transform="translate(-3.0995487)"><tspan
         id="tspan34"
         x="24.74198"
         y="102.71104">+</tspan></text>
    <path
       style="fill:none;stroke:#000000;stroke-width:0.726448px;stroke-linecap:butt;stroke-linejoin:miter;stroke-opacity:1;marker-mid:url(#Triangle);marker-end:url(#marker33)"
       d="m 50.251038,100.06585 7.841197,-0.161833"
       id="path35" />
    <text
       xml:space="preserve"
       style="font-style:normal;font-variant:normal;font-weight:normal;font-stretch:normal;font-size:12px;line-height:normal;font-family:sans-serif;font-variant-ligatures:normal;font-variant-position:normal;font-variant-caps:normal;font-variant-numeric:normal;font-variant-alternates:normal;font-variant-east-asian:normal;font-feature-settings:normal;font-variation-settings:normal;text-indent:0;text-align:start;text-decoration-line:none;text-decoration-style:solid;text-decoration-color:#000000;letter-spacing:normal;word-spacing:normal;text-transform:none;writing-mode:lr-tb;direction:ltr;text-orientation:mixed;dominant-baseline:auto;baseline-shift:baseline;text-anchor:start;white-space:normal;shape-padding:0;shape-margin:0;inline-size:0;opacity:1;vector-effect:none;fill:#333333;fill-opacity:1;stroke:none;stroke-width:2;stroke-linecap:butt;stroke-linejoin:miter;stroke-miterlimit:4;stroke-dasharray:none;stroke-dashoffset:0;stroke-opacity:1;-inkscape-stroke:none;stop-color:#000000;stop-opacity:1"
       x="24.74198"
       y="102.71104"
       id="text35"
       transform="translate(-3.3098664,71.161347)"><tspan
         id="tspan35"
         x="24.74198"
         y="102.71104">+</tspan></text>
    <path
       style="fill:none;stroke:#000000;stroke-width:0.726448px;stroke-linecap:butt;stroke-linejoin:miter;stroke-opacity:1;marker-mid:url(#Triangle);marker-end:url(#marker33)"
       d="m 48.611602,176.99267 7.841197,-0.16183"
       id="path36" />
    <text
       xml:space="preserve"
       style="font-style:normal;font-variant:normal;font-weight:normal;font-stretch:normal;font-size:12px;line-height:normal;font-family:sans-serif;font-variant-ligatures:normal;font-variant-position:normal;font-variant-caps:normal;font-variant-numeric:normal;font-variant-alternates:normal;font-variant-east-asian:normal;font-feature-settings:normal;font-variation-settings:normal;text-indent:0;text-align:start;text-decoration-line:none;text-decoration-style:solid;text-decoration-color:#000000;letter-spacing:normal;word-spacing:normal;text-transform:none;writing-mode:lr-tb;direction:ltr;text-orientation:mixed;dominant-baseline:auto;baseline-shift:baseline;text-anchor:start;white-space:normal;shape-padding:0;shape-margin:0;inline-size:0;opacity:1;vector-effect:none;fill:#333333;fill-opacity:1;stroke:none;stroke-width:2;stroke-linecap:butt;stroke-linejoin:miter;stroke-miterlimit:4;stroke-dasharray:none;stroke-dashoffset:0;stroke-opacity:1;-inkscape-stroke:none;stop-color:#000000;stop-opacity:1"
       x="24.74198"
       y="102.71104"
       id="text36"
       transform="translate(-0.45541075,146.53331)"><tspan
         id="tspan36"
         x="24.74198"
         y="102.71104">+</tspan></text>
    <path
       style="fill:none;stroke:#000000;stroke-width:0.726448px;stroke-linecap:butt;stroke-linejoin:miter;stroke-opacity:1;marker-mid:url(#Triangle);marker-end:url(#marker33)"
       d="m 56.859995,245.63118 7.841197,-0.16183"
       id="path37" />
  </g>
</svg>
