<?xml version="1.0" encoding="UTF-8" standalone="no"?>
<!-- Created with Inkscape (http://www.inkscape.org/) -->

<svg
   width="79.617165"
   height="47.400967"
   viewBox="0 0 79.617165 47.400967"
   version="1.1"
   id="svg1"
   xmlns="http://www.w3.org/2000/svg"
   xmlns:svg="http://www.w3.org/2000/svg">
  <defs
     id="defs1">
    <marker
       style="overflow:visible"
       id="marker33"
       refX="0"
       refY="0"
       orient="auto-start-reverse"
       markerWidth="1"
       markerHeight="1"
       viewBox="0 0 1 1"
       preserveAspectRatio="xMidYMid">
      <path
         transform="scale(0.5)"
         style="fill:context-stroke;fill-rule:evenodd;stroke:context-stroke;stroke-width:1pt"
         d="M 5.77,0 -2.88,5 V -5 Z"
         id="path33" />
    </marker>
    <marker
       style="overflow:visible"
       id="Triangle"
       refX="0"
       refY="0"
       orient="auto-start-reverse"
       markerWidth="1"
       markerHeight="1"
       viewBox="0 0 1 1"
       preserveAspectRatio="xMidYMid">
      <path
         transform="scale(0.5)"
         style="fill:context-stroke;fill-rule:evenodd;stroke:context-stroke;stroke-width:1pt"
         d="M 5.77,0 -2.88,5 V -5 Z"
         id="path135" />
    </marker>
  </defs>
  <g
     id="layer1"
     transform="translate(-10.473011,-11.133731)">
    <path
       style="color:#000000;fill:#000000;-inkscape-stroke:none"
       d="m 10.473011,11.133731 1.429523,1.005599 78.187647,0.304901 -1.429533,-1.005581 z"
       id="path1" />
    <path
       style="color:#000000;fill:#000000;-inkscape-stroke:none"
       d="m 11.13675,55.068199 0.0042,2.0321 3.8217,-0.303 2.1384,-1.1215 2.2136,0.1188 1.4082,-0.2756 0.0442,0.6227 3.0154,0.4962 0.5089,-0.4018 3.7243,-0.086 2.3665,-0.9743 0.4274,0.8528 3.5101,0.3774 1.7884,0.319 0.4608,-1.2623 2.8895,0.5658 0.7599,0.1959 2.404,-0.9476 1.8511,1.3404 3.529,0.0378 2.7098,1.8797 -1.1923,-2.8337 3.8552,-0.4859 1.618,-0.2456 2.5285,-0.3579 1.9656,1.9842 2.2855,-1.0936 2.4154,-1.2868 0.9611,3.1353 0.92,-0.844 3.1255,-0.1917 0.3725,-2.0929 4.2924,1.8242 0.7641,-0.1394 0.7219,1.1104 2.4849,-1.6573 0.0596,1.1834 4.9328,-2.3851 2.8057,3.1745 2.1805,-0.7649 0.055,1.2573 1.5268,-1.7528 -0.2773,-0.9292 -1.295,-0.2128 -2.7094,-0.0179 -0.6408,0.4436 -4.1132,-0.8231 -2.8056,-0.7788 -0.4534,0.9753 -2.3028,0.9026 -2.2359,-0.5585 1.1349,-0.0161 -3.712,1.711 -1.3167,-3.6892 -2.127,2.7239 -2.6824,0.0909 -4.039,0.011 -0.2077,-1.4536 -2.1899,-0.1311 -3.1408,0.1737 -0.9756,0.5018 -1.9912,0.3964 -2.6062,-1.7041 -0.2199,-0.3101 -1.7469,3.3948 -2.9238,-1.2177 -0.9331,0.3836 -3.0739,-2.0983 -2.5479,1.0074 -0.7825,0.0351 -1.447,-1.1735 -2.8345,1.2065 -2.821,1.9061 -1.3557,-2.3053 -2.2461,0.2977 -0.8993,-0.9192 -3.3941,1.5031 -0.2929,-2.4073 -3.0193,1.5079 -0.8658,0.6303 -2.7441,-1.05 0.2657,-1.4011 z"
       id="path2" />
    <text
       xml:space="preserve"
       style="font-style:normal;font-variant:normal;font-weight:normal;font-stretch:normal;font-size:8px;line-height:normal;font-family:sans-serif;font-variant-ligatures:normal;font-variant-position:normal;font-variant-caps:normal;font-variant-numeric:normal;font-variant-alternates:normal;font-variant-east-asian:normal;font-feature-settings:normal;font-variation-settings:normal;text-indent:0;text-align:start;text-decoration-line:none;text-decoration-style:solid;text-decoration-color:#000000;letter-spacing:normal;word-spacing:normal;text-transform:none;writing-mode:lr-tb;direction:ltr;text-orientation:mixed;dominant-baseline:auto;baseline-shift:baseline;text-anchor:start;white-space:normal;shape-padding:0;shape-margin:0;inline-size:0;opacity:1;vector-effect:none;fill:#333333;fill-opacity:1;stroke:none;stroke-width:2;stroke-linecap:butt;stroke-linejoin:miter;stroke-miterlimit:4;stroke-dasharray:none;stroke-dashoffset:0;stroke-opacity:1;-inkscape-stroke:none;stop-color:#000000;stop-opacity:1"
       x="48.03606"
       y="37.782314"
       id="text32"
       transform="translate(-29.112544,-2.2741051)"><tspan
         id="tspan32"
         x="48.03606"
         y="37.782314"
         style="font-style:normal;font-variant:normal;font-weight:normal;font-stretch:normal;font-size:8px;font-family:FreeMono;-inkscape-font-specification:FreeMono">jitter nodes</tspan></text>
    <path
       style="fill:none;stroke:#000000;stroke-width:0.726448px;stroke-linecap:butt;stroke-linejoin:miter;stroke-opacity:1;marker-mid:url(#Triangle);marker-end:url(#marker33)"
       d="m 46.825886,15.921424 0.161831,7.841193"
       id="path32" />
    <path
       style="fill:none;stroke:#000000;stroke-width:0.726448px;stroke-linecap:butt;stroke-linejoin:miter;stroke-opacity:1;marker-mid:url(#Triangle);marker-end:url(#marker33)"
       d="m 47.30039,39.494569 0.161831,7.841193"
       id="path34" />
  </g>
</svg>
