<?xml version="1.0" encoding="UTF-8" standalone="no"?>
<!-- Created with Inkscape (http://www.inkscape.org/) -->

<svg
   width="280"
   height="280"
   viewBox="0 0 280 280"
   version="1.1"
   id="svg1"
   inkscape:version="1.3.2 (091e20e, 2023-11-25)"
   sodipodi:docname="lattice_queen.svg"
   inkscape:export-filename="lattice_queen.png"
   inkscape:export-xdpi="96"
   inkscape:export-ydpi="96"
   xmlns:inkscape="http://www.inkscape.org/namespaces/inkscape"
   xmlns:sodipodi="http://sodipodi.sourceforge.net/DTD/sodipodi-0.dtd"
   xmlns:xlink="http://www.w3.org/1999/xlink"
   xmlns="http://www.w3.org/2000/svg"
   xmlns:svg="http://www.w3.org/2000/svg">
  <sodipodi:namedview
     id="namedview1"
     pagecolor="#ffffff"
     bordercolor="#666666"
     borderopacity="1.0"
     inkscape:showpageshadow="2"
     inkscape:pageopacity="0.0"
     inkscape:pagecheckerboard="0"
     inkscape:deskcolor="#d1d1d1"
     inkscape:document-units="px"
     inkscape:zoom="1.632"
     inkscape:cx="131.12745"
     inkscape:cy="135.72304"
     inkscape:window-width="1465"
     inkscape:window-height="889"
     inkscape:window-x="260"
     inkscape:window-y="115"
     inkscape:window-maximized="0"
     inkscape:current-layer="layer2" />
  <defs
     id="defs1">
    <linearGradient
       id="linearGradient56"
       inkscape:collect="always">
      <stop
         style="stop-color:#fbebeb;stop-opacity:1;"
         offset="0"
         id="stop56" />
      <stop
         style="stop-color:#e3a372;stop-opacity:0.98135781;"
         offset="1"
         id="stop57" />
    </linearGradient>
    <inkscape:path-effect
       effect="lattice2"
       gridpoint0="35.627716,16.274015"
       gridpoint1="232.68723,36.30486"
       gridpoint2="62.006535,227.08884"
       gridpoint3="212.80933,223.81026"
       gridpoint4="91.709122,33.314062"
       gridpoint5="193.97556,41.143785"
       gridpoint6="99.643281,223.81026"
       gridpoint7="154.10072,214.61362"
       gridpoint8x9="147.07239,87.022662"
       gridpoint10x11="169.89875,244.69662"
       gridpoint12="61.921265,91.755303"
       gridpoint13="212.80933,91.755303"
       gridpoint14="38.543491,173.75073"
       gridpoint15="203.76457,184.13972"
       gridpoint16="99.643281,91.755303"
       gridpoint17="175.08731,91.755303"
       gridpoint18="99.643281,179.79194"
       gridpoint19="175.08731,179.79194"
       gridpoint20x21="137.3653,91.755303"
       gridpoint22x23="137.3653,179.79194"
       gridpoint24x26="61.921265,135.77362"
       gridpoint25x27="212.80933,135.77362"
       gridpoint28x30="99.643281,135.77362"
       gridpoint29x31="175.08731,135.77362"
       gridpoint32x33x34x35="137.3653,135.77362"
       id="path-effect42"
       is_visible="true"
       lpeversion="1"
       horizontal_mirror="false"
       vertical_mirror="false"
       perimetral="false"
       live_update="true" />
    <inkscape:path-effect
       effect="lattice2"
       gridpoint0="61.921265,47.736984"
       gridpoint1="212.80933,47.736984"
       gridpoint2="61.921265,223.81026"
       gridpoint3="212.80933,223.81026"
       gridpoint4="99.643281,47.736984"
       gridpoint5="175.08731,47.736984"
       gridpoint6="99.643281,223.81026"
       gridpoint7="175.08731,223.81026"
       gridpoint8x9="137.3653,47.736984"
       gridpoint10x11="137.3653,223.81026"
       gridpoint12="61.921265,91.755303"
       gridpoint13="212.80933,91.755303"
       gridpoint14="61.921265,179.79194"
       gridpoint15="212.80933,179.79194"
       gridpoint16="99.643281,91.755303"
       gridpoint17="175.08731,91.755303"
       gridpoint18="99.643281,179.79194"
       gridpoint19="175.08731,179.79194"
       gridpoint20x21="137.3653,91.755303"
       gridpoint22x23="137.3653,179.79194"
       gridpoint24x26="61.921265,135.77362"
       gridpoint25x27="212.80933,135.77362"
       gridpoint28x30="99.643281,135.77362"
       gridpoint29x31="175.08731,135.77362"
       gridpoint32x33x34x35="137.3653,135.77362"
       id="path-effect41"
       is_visible="true"
       lpeversion="1"
       horizontal_mirror="false"
       vertical_mirror="false"
       perimetral="false"
       live_update="true" />
    <inkscape:path-effect
       effect="lattice2"
       gridpoint0="181.25931,73.765908"
       gridpoint1="483.83758,95.908851"
       gridpoint2="197.07246,379.42018"
       gridpoint3="401.18194,358.53095"
       gridpoint4="256.35822,111.41823"
       gridpoint5="374.92974,111.41823"
       gridpoint6="256.35822,379.42018"
       gridpoint7="362.33162,377.38068"
       gridpoint8x9="319.54886,140.29978"
       gridpoint10x11="374.60187,428.58603"
       gridpoint12="178.97683,149.57541"
       gridpoint13="430.04506,200.81265"
       gridpoint14="197.07246,312.41969"
       gridpoint15="434.2155,312.41969"
       gridpoint16="256.35822,178.41872"
       gridpoint17="374.92974,178.41872"
       gridpoint18="256.35822,312.41969"
       gridpoint19="361.52494,290.11819"
       gridpoint20x21="315.64398,178.41872"
       gridpoint22x23="315.64398,312.41969"
       gridpoint24x26="167.03952,236.59728"
       gridpoint25x27="424.12961,246.59152"
       gridpoint28x30="322.69042,256.48473"
       gridpoint29x31="374.92974,245.41921"
       gridpoint32x33x34x35="315.64398,245.41921"
       id="path-effect31"
       is_visible="true"
       lpeversion="1"
       horizontal_mirror="false"
       vertical_mirror="false"
       perimetral="false"
       live_update="true" />
    <inkscape:path-effect
       effect="lattice2"
       gridpoint0="211.16621,91.943649"
       gridpoint1="455.86296,108.43449"
       gridpoint2="227.79091,341.75687"
       gridpoint3="410.86089,361.01989"
       gridpoint4="271.89411,114.19105"
       gridpoint5="364.53863,114.19105"
       gridpoint6="271.89411,361.01989"
       gridpoint7="364.53863,361.01989"
       gridpoint8x9="321.46822,146.77253"
       gridpoint10x11="364.27196,374.99606"
       gridpoint12="145.12062,157.97487"
       gridpoint13="410.86089,175.89826"
       gridpoint14="166.65173,297.45777"
       gridpoint15="337.91663,280.81202"
       gridpoint16="271.89411,175.89826"
       gridpoint17="364.53863,175.89826"
       gridpoint18="271.89411,299.31268"
       gridpoint19="364.53863,299.31268"
       gridpoint20x21="318.21637,175.89826"
       gridpoint22x23="318.21637,299.31268"
       gridpoint24x26="210.80899,218.56633"
       gridpoint25x27="410.86089,237.60547"
       gridpoint28x30="271.89411,237.60547"
       gridpoint29x31="364.53863,237.60547"
       gridpoint32x33x34x35="318.21637,237.60547"
       id="path-effect19"
       is_visible="true"
       lpeversion="1"
       horizontal_mirror="false"
       vertical_mirror="false"
       perimetral="false"
       live_update="true" />
    <inkscape:path-effect
       effect="lattice2"
       gridpoint0="204.0607,98.031763"
       gridpoint1="440.83934,97.432758"
       gridpoint2="192.44576,411.55751"
       gridpoint3="443.28672,411.55751"
       gridpoint4="242.9745,52.328554"
       gridpoint5="399.09195,79.034701"
       gridpoint6="255.156,411.55751"
       gridpoint7="380.57648,411.55751"
       gridpoint8x9="320.06562,125.99228"
       gridpoint10x11="361.44572,447.17147"
       gridpoint12="108.09251,165.67609"
       gridpoint13="517.47443,158.5182"
       gridpoint14="192.44576,333.7905"
       gridpoint15="400.37323,332.26811"
       gridpoint16="255.156,178.2565"
       gridpoint17="380.57648,178.2565"
       gridpoint18="260.80393,334.67509"
       gridpoint19="371.46028,331.90317"
       gridpoint20x21="425.96035,239.48968"
       gridpoint22x23="317.86624,333.7905"
       gridpoint24x26="169.28875,252.27623"
       gridpoint25x27="443.28672,256.0235"
       gridpoint28x30="255.156,256.0235"
       gridpoint29x31="380.57648,256.0235"
       gridpoint32x33x34x35="317.86624,256.0235"
       id="path-effect18"
       is_visible="true"
       lpeversion="1"
       horizontal_mirror="false"
       vertical_mirror="false"
       perimetral="false"
       live_update="true" />
    <inkscape:path-effect
       effect="lattice2"
       gridpoint0="86.417001,90.770447"
       gridpoint1="477.43632,83.309443"
       gridpoint2="142.79194,400.52154"
       gridpoint3="458.14405,409.40349"
       gridpoint4="205.59052,53.355814"
       gridpoint5="378.72928,78.031534"
       gridpoint6="225.88416,419.41814"
       gridpoint7="355.51928,419.41814"
       gridpoint8x9="290.70172,91.353561"
       gridpoint10x11="345.47525,454.24594"
       gridpoint12="161.0666,173.36971"
       gridpoint13="420.33684,173.36971"
       gridpoint14="161.0666,337.402"
       gridpoint15="355.15262,319.90947"
       gridpoint16="225.88416,173.36971"
       gridpoint17="355.51928,173.36971"
       gridpoint18="225.88416,337.402"
       gridpoint19="323.55569,326.58204"
       gridpoint20x21="290.70172,173.36971"
       gridpoint22x23="234.17181,321.50226"
       gridpoint24x26="142.18518,252.11824"
       gridpoint25x27="420.33684,255.38585"
       gridpoint28x30="225.88416,255.38585"
       gridpoint29x31="355.51928,255.38585"
       gridpoint32x33x34x35="290.70172,255.38585"
       id="path-effect16"
       is_visible="true"
       lpeversion="1"
       horizontal_mirror="false"
       vertical_mirror="false"
       perimetral="false"
       live_update="true" />
    <inkscape:path-effect
       effect="lattice2"
       gridpoint0="172.32137,118.89536"
       gridpoint1="317.40477,118.89536"
       gridpoint2="181.81899,300.37774"
       gridpoint3="317.40477,305.56195"
       gridpoint4="208.59222,118.89536"
       gridpoint5="281.13392,118.89536"
       gridpoint6="208.59222,305.56195"
       gridpoint7="305.40377,332.38455"
       gridpoint8x9="244.86307,118.89536"
       gridpoint10x11="244.86307,305.56195"
       gridpoint12="145.02149,123.8996"
       gridpoint13="360.51422,138.35862"
       gridpoint14="172.32137,258.8953"
       gridpoint15="317.40477,258.8953"
       gridpoint16="208.59222,165.56201"
       gridpoint17="300.60503,163.63512"
       gridpoint18="208.59222,258.8953"
       gridpoint19="281.13392,258.8953"
       gridpoint20x21="244.86307,165.56201"
       gridpoint22x23="244.86307,258.8953"
       gridpoint24x26="172.32137,212.22865"
       gridpoint25x27="317.40477,212.22865"
       gridpoint28x30="208.59222,212.22865"
       gridpoint29x31="233.613,190.78216"
       gridpoint32x33x34x35="244.86307,212.22865"
       id="path-effect14"
       is_visible="true"
       lpeversion="1"
       horizontal_mirror="false"
       vertical_mirror="false"
       perimetral="false"
       live_update="true" />
    <inkscape:path-effect
       effect="lattice2"
       gridpoint0="220.07415,98.0056"
       gridpoint1="358.65986,98.0056"
       gridpoint2="220.07415,331.02556"
       gridpoint3="358.65986,331.02556"
       gridpoint4="249.48917,89.965303"
       gridpoint5="327.46678,93.429964"
       gridpoint6="254.72058,331.02556"
       gridpoint7="324.01343,331.02556"
       gridpoint8x9="289.36701,98.0056"
       gridpoint10x11="329.89109,358.88725"
       gridpoint12="187.85686,128.08765"
       gridpoint13="395.77058,126.01453"
       gridpoint14="205.63563,276.59522"
       gridpoint15="392.87979,272.35866"
       gridpoint16="254.72058,156.26059"
       gridpoint17="324.01343,156.26059"
       gridpoint18="254.72058,272.77057"
       gridpoint19="324.40556,255.64621"
       gridpoint20x21="322.9237,172.14774"
       gridpoint22x23="289.36701,272.77057"
       gridpoint24x26="220.07415,214.51558"
       gridpoint25x27="371.26676,192.81121"
       gridpoint28x30="220.55843,238.34233"
       gridpoint29x31="324.01343,214.51558"
       gridpoint32x33x34x35="289.36701,214.51558"
       id="path-effect13"
       is_visible="true"
       lpeversion="1"
       horizontal_mirror="false"
       vertical_mirror="false"
       perimetral="false"
       live_update="true" />
    <inkscape:path-effect
       effect="lattice2"
       gridpoint0="170.6722,164.34502"
       gridpoint1="419.90812,171.16716"
       gridpoint2="143.72679,386.46513"
       gridpoint3="447.92408,433.15594"
       gridpoint4="191.67644,120.3109"
       gridpoint5="373.42365,131.28403"
       gridpoint6="290.39886,459.66895"
       gridpoint7="373.42365,433.15594"
       gridpoint8x9="312.82438,94.614168"
       gridpoint10x11="327.79613,463.18767"
       gridpoint12="149.92234,206.75201"
       gridpoint13="402.1571,223.60758"
       gridpoint14="149.92234,357.68796"
       gridpoint15="447.92408,357.68796"
       gridpoint16="224.42278,206.75201"
       gridpoint17="373.42365,206.75201"
       gridpoint18="204.50994,307.97846"
       gridpoint19="387.53391,319.48489"
       gridpoint20x21="298.92321,206.75201"
       gridpoint22x23="295.45572,305.54902"
       gridpoint24x26="172.6588,284.95666"
       gridpoint25x27="490.51592,232.01442"
       gridpoint28x30="224.42278,282.21999"
       gridpoint29x31="431.14031,294.96698"
       gridpoint32x33x34x35="342.35036,285.29486"
       id="path-effect11"
       is_visible="true"
       lpeversion="1"
       horizontal_mirror="false"
       vertical_mirror="false"
       perimetral="false"
       live_update="true" />
    <inkscape:path-effect
       effect="lattice2"
       gridpoint0="52.963997,88.532397"
       gridpoint1="428.12249,88.532397"
       gridpoint2="52.963997,427.93187"
       gridpoint3="386.41183,415.54658"
       gridpoint4="179.87862,101.84927"
       gridpoint5="277.22688,56.566746"
       gridpoint6="146.75362,427.93187"
       gridpoint7="334.33287,427.93187"
       gridpoint8x9="192.02313,46.580845"
       gridpoint10x11="240.54324,427.93187"
       gridpoint12="52.963997,173.38227"
       gridpoint13="428.12249,173.38227"
       gridpoint14="52.963997,343.082"
       gridpoint15="428.12249,343.082"
       gridpoint16="146.75362,173.38227"
       gridpoint17="334.33287,173.38227"
       gridpoint18="146.75362,343.082"
       gridpoint19="334.33287,343.082"
       gridpoint20x21="240.54324,173.38227"
       gridpoint22x23="240.54324,343.082"
       gridpoint24x26="74.541597,297.91753"
       gridpoint25x27="482.97615,259.94329"
       gridpoint28x30="123.61788,232.85935"
       gridpoint29x31="334.33287,258.23213"
       gridpoint32x33x34x35="300.09191,266.34644"
       id="path-effect9"
       is_visible="true"
       lpeversion="1"
       horizontal_mirror="false"
       vertical_mirror="false"
       perimetral="false"
       live_update="true" />
    <inkscape:path-effect
       effect="lattice2"
       gridpoint0="173.56181,120.60094"
       gridpoint1="443.37453,120.60094"
       gridpoint2="173.56181,375.16562"
       gridpoint3="443.37453,375.16562"
       gridpoint4="241.01499,120.60094"
       gridpoint5="375.92135,120.60094"
       gridpoint6="241.01499,375.16562"
       gridpoint7="375.92135,375.16562"
       gridpoint8x9="308.46817,120.60094"
       gridpoint10x11="308.46817,375.16562"
       gridpoint12="173.56181,184.24211"
       gridpoint13="443.37453,184.24211"
       gridpoint14="173.56181,311.52445"
       gridpoint15="443.37453,311.52445"
       gridpoint16="241.01499,184.24211"
       gridpoint17="375.92135,184.24211"
       gridpoint18="241.01499,311.52445"
       gridpoint19="375.92135,311.52445"
       gridpoint20x21="308.46817,184.24211"
       gridpoint22x23="308.46817,311.52445"
       gridpoint24x26="173.56181,247.88328"
       gridpoint25x27="443.37453,247.88328"
       gridpoint28x30="241.01499,247.88328"
       gridpoint29x31="375.92135,247.88328"
       gridpoint32x33x34x35="308.46817,247.88328"
       id="path-effect8"
       is_visible="true"
       lpeversion="1"
       horizontal_mirror="false"
       vertical_mirror="false"
       perimetral="false"
       live_update="true" />
    <inkscape:path-effect
       effect="lattice2"
       gridpoint0="173.56181,120.60094"
       gridpoint1="443.37453,120.60094"
       gridpoint2="173.56181,375.16562"
       gridpoint3="443.37453,375.16562"
       gridpoint4="241.01499,120.60094"
       gridpoint5="375.92135,120.60094"
       gridpoint6="241.01499,375.16562"
       gridpoint7="375.92135,375.16562"
       gridpoint8x9="308.46817,120.60094"
       gridpoint10x11="308.46817,375.16562"
       gridpoint12="173.56181,184.24211"
       gridpoint13="443.37453,184.24211"
       gridpoint14="173.56181,311.52445"
       gridpoint15="443.37453,311.52445"
       gridpoint16="241.01499,184.24211"
       gridpoint17="375.92135,184.24211"
       gridpoint18="241.01499,311.52445"
       gridpoint19="375.92135,311.52445"
       gridpoint20x21="308.46817,184.24211"
       gridpoint22x23="308.46817,311.52445"
       gridpoint24x26="173.56181,247.88328"
       gridpoint25x27="443.37453,247.88328"
       gridpoint28x30="241.01499,247.88328"
       gridpoint29x31="375.92135,247.88328"
       gridpoint32x33x34x35="308.46817,247.88328"
       id="path-effect7"
       is_visible="true"
       lpeversion="1"
       horizontal_mirror="false"
       vertical_mirror="false"
       perimetral="false"
       live_update="true" />
    <inkscape:path-effect
       effect="lattice2"
       gridpoint0="173.56181,120.60094"
       gridpoint1="443.37453,120.60094"
       gridpoint2="173.56181,375.16562"
       gridpoint3="443.37453,375.16562"
       gridpoint4="241.01499,120.60094"
       gridpoint5="375.92135,120.60094"
       gridpoint6="241.01499,375.16562"
       gridpoint7="375.92135,375.16562"
       gridpoint8x9="308.46817,120.60094"
       gridpoint10x11="308.46817,375.16562"
       gridpoint12="173.56181,184.24211"
       gridpoint13="443.37453,184.24211"
       gridpoint14="173.56181,311.52445"
       gridpoint15="443.37453,311.52445"
       gridpoint16="241.01499,184.24211"
       gridpoint17="375.92135,184.24211"
       gridpoint18="241.01499,311.52445"
       gridpoint19="375.92135,311.52445"
       gridpoint20x21="308.46817,184.24211"
       gridpoint22x23="308.46817,311.52445"
       gridpoint24x26="173.56181,247.88328"
       gridpoint25x27="443.37453,247.88328"
       gridpoint28x30="241.01499,247.88328"
       gridpoint29x31="375.92135,247.88328"
       gridpoint32x33x34x35="308.46817,247.88328"
       id="path-effect6"
       is_visible="true"
       lpeversion="1"
       horizontal_mirror="false"
       vertical_mirror="false"
       perimetral="false"
       live_update="true" />
    <inkscape:path-effect
       effect="lattice2"
       gridpoint0="200.87816,93.686058"
       gridpoint1="364.06166,93.686058"
       gridpoint2="200.87816,317.95228"
       gridpoint3="428.38863,352.60777"
       gridpoint4="241.67404,93.686058"
       gridpoint5="323.26578,93.686058"
       gridpoint6="189.94539,387.31418"
       gridpoint7="320.17081,382.89632"
       gridpoint8x9="269.82006,54.727852"
       gridpoint10x11="305.34496,405.168"
       gridpoint12="200.87816,149.75261"
       gridpoint13="495.01257,132.95293"
       gridpoint14="200.87816,261.88572"
       gridpoint15="364.06166,261.88572"
       gridpoint16="241.67404,149.75261"
       gridpoint17="323.26578,149.75261"
       gridpoint18="241.67404,261.88572"
       gridpoint19="323.26578,261.88572"
       gridpoint20x21="304.19518,126.78149"
       gridpoint22x23="282.46991,261.88572"
       gridpoint24x26="91.574768,109.69905"
       gridpoint25x27="364.06166,205.81917"
       gridpoint28x30="241.67404,205.81917"
       gridpoint29x31="323.26578,205.81917"
       gridpoint32x33x34x35="323.5396,212.42605"
       id="path-effect4"
       is_visible="true"
       lpeversion="1"
       horizontal_mirror="false"
       vertical_mirror="false"
       perimetral="false"
       live_update="true" />
    <radialGradient
       inkscape:collect="always"
       xlink:href="#linearGradient56"
       id="radialGradient57"
       cx="200.6736"
       cy="154.47037"
       fx="200.6736"
       fy="154.47037"
       r="141.18779"
       gradientTransform="matrix(0.06633006,-1.4351815,1.2397594,0.05733361,-98.175164,399.68306)"
       gradientUnits="userSpaceOnUse" />
  </defs>
  <g
     inkscape:groupmode="layer"
     id="layer2"
     inkscape:label="background"
     sodipodi:insensitive="true"
     style="display:inline">
    <rect
       style="fill:url(#radialGradient57);fill-opacity:1;fill-rule:evenodd;stroke:none;stroke-width:0.3;stroke-linecap:square;stroke-dasharray:none;stroke-opacity:0.819608"
       id="rect56"
       width="282.37558"
       height="283.08234"
       x="-0.84503937"
       y="-1.4917868" />
  </g>
  <g
     inkscape:label="queen of hearts"
     inkscape:groupmode="layer"
     id="layer1"
     style="display:inline">
    <path
       style="fill:#c83737;fill-opacity:1;stroke:none;stroke-width:1px;stroke-linecap:butt;stroke-linejoin:miter;stroke-opacity:1"
       sodipodi:type="inkscape:offset"
       inkscape:radius="1.637725"
       inkscape:original="M 82.251953 192.66797 C 96.227358 221.15673 91.4644 283.20346 10.3125 283.07812 L 226.23828 283.51953 C 140.72125 270.55356 126.74551 249.3984 148.51367 233.60156 L 82.251953 192.66797 z "
       xlink:href="#path53"
       id="path59"
       inkscape:href="#path53"
       d="m 83.113281,191.27539 a 1.6378888,1.6378888 0 0 0 -2.332031,2.11328 c 6.748247,13.75625 9.017421,35.98057 -0.289063,54.47852 -9.306483,18.49795 -30.01926,33.63429 -70.177734,33.57226 a 1.6386745,1.6386745 0 0 0 -0.0059,3.27735 l 215.925776,0.4414 a 1.6378888,1.6378888 0 0 0 0.25,-3.25781 c -42.64102,-6.46517 -67.38085,-15.07992 -78.33789,-23.57227 -5.47851,-4.24617 -7.41659,-8.21005 -7.0664,-11.93164 0.35019,-3.72158 3.16055,-7.67052 8.39453,-11.46875 a 1.6378888,1.6378888 0 0 0 -0.0996,-2.71875 z" />
    <path
       style="fill:#c25757;fill-opacity:1;stroke:none;stroke-width:1px;stroke-linecap:butt;stroke-linejoin:miter;stroke-opacity:1"
       d="m 82.252876,192.66881 66.260004,40.93191 c -21.76816,15.79684 -7.79193,36.95359 77.7251,49.91956 L 10.312946,283.07793 c 81.1519,0.12534 85.915335,-61.92036 71.93993,-90.40912 z"
       id="path53"
       sodipodi:nodetypes="ccccc" />
    <g
       id="g52"
       inkscape:label="head">
      <path
         style="display:inline;fill:#c83737;fill-opacity:1;stroke:none;stroke-width:1px;stroke-linecap:butt;stroke-linejoin:miter;stroke-opacity:1"
         sodipodi:type="inkscape:offset"
         inkscape:radius="1.7261553"
         inkscape:original="M 94.083984 47.564453 C 83.987725 47.259945 75.077352 48.540326 67.126953 52.632812 C 56.706386 57.996823 49.320816 67.622205 44.333984 79.619141 C 39.453141 91.361096 36.933544 105.32976 37.128906 118.66016 C 37.327466 132.2087 40.270214 145.4668 46.828125 158.73242 C 53.428867 172.08468 63.754422 185.53106 77.832031 198.6543 C 91.826103 211.69966 108.17005 223.09408 123.18359 230.93359 C 138.26594 238.80903 150.86438 242.56309 159.44727 241.73828 C 168.16227 240.90078 172.36209 235.59328 176.08008 227.78711 C 179.77696 220.02525 183.30648 210.02594 188.63672 199.51562 C 193.96696 189.00532 200.64971 178.43347 206.3125 167.48047 C 212.17007 156.15073 216.2413 145.40128 218.22656 132.23242 C 220.12135 119.66341 219.83122 106.07075 218.32422 94.355469 C 216.80944 82.579703 214.19385 72.778619 209.42969 66.808594 C 204.56142 60.708097 197.82172 58.922259 187.51953 58.046875 C 177.40053 57.187057 164.1861 56.913676 149.3418 55.066406 C 134.49751 53.219136 118.84073 49.95131 104.58398 48.351562 C 100.94688 47.943444 97.449404 47.665956 94.083984 47.564453 z "
         xlink:href="#path51"
         id="path57"
         inkscape:href="#path51"
         d="M 94.136719,45.839844 C 83.864142,45.530018 74.62465,46.832028 66.337891,51.097656 55.4653,56.694348 47.833315,66.704491 42.740234,78.957031 c -4.986265,11.995572 -7.536698,26.163029 -7.33789,39.728519 0.20198,13.78189 3.209432,27.3212 9.878906,40.8125 6.713633,13.58062 17.173216,27.18079 31.373047,40.41797 14.117689,13.16059 30.564243,24.62763 45.730473,32.54687 15.23243,7.95381 27.98908,11.88204 37.22851,10.99414 4.67683,-0.44944 8.33779,-2.17283 11.19531,-4.81445 2.85752,-2.64163 4.9279,-6.11951 6.83008,-10.11328 3.76095,-7.89638 7.2676,-17.84185 12.53711,-28.23243 5.27819,-10.40766 11.9608,-20.98082 17.66992,-32.02343 5.91228,-11.43555 10.07142,-22.4073 12.08789,-35.78321 1.92601,-12.77607 1.6285,-26.50043 0.10352,-38.355464 -1.5314,-11.904933 -4.11127,-21.953148 -9.25781,-28.402344 -5.2503,-6.579219 -12.67705,-8.519476 -23.11328,-9.40625 -10.21456,-0.867938 -23.37091,-1.138314 -38.11133,-2.972656 -14.74432,-1.83483 -30.40092,-5.10362 -44.77735,-6.716797 -3.67279,-0.412123 -7.216471,-0.693601 -10.640621,-0.796875 z" />
      <path
         style="display:inline;fill:#d35f5f;fill-opacity:1;stroke:#d35f5f;stroke-width:1px;stroke-linecap:butt;stroke-linejoin:miter;stroke-opacity:1"
         d="m 218.2259,132.23145 c -1.98526,13.16886 -6.05535,23.91978 -11.91292,35.24952 -5.66279,10.953 -12.34671,21.52426 -17.67695,32.03457 -5.33024,10.51031 -8.8593,20.50921 -12.55618,28.27107 -3.71799,7.80617 -7.91676,13.11348 -16.63176,13.95098 -8.58289,0.82481 -21.18133,-2.92813 -36.26368,-10.80357 C 108.17087,223.09451 91.8255,211.70022 77.831428,198.65486 63.753819,185.53162 53.428248,172.08466 46.827506,158.7324 40.269595,145.46678 37.326798,132.20936 37.128238,118.66082 36.932876,105.33042 39.453586,91.361688 44.334429,79.619733 49.321261,67.622797 56.706511,57.996891 67.127078,52.63288 77.72761,47.176231 90.03605,46.71966 104.58446,48.352133 c 14.25675,1.599747 29.91286,4.867652 44.75715,6.714922 14.8443,1.84727 28.05903,2.119224 38.17803,2.979042 10.30219,0.875384 17.04112,2.661028 21.90939,8.761525 4.76416,5.970025 7.38033,15.77246 8.89511,27.548226 1.507,11.715282 1.79659,25.306592 -0.0982,37.875602 z"
         id="path51"
         inkscape:label="heart" />
      <path
         style="fill:#c83737;fill-opacity:1;stroke:none;stroke-width:1px;stroke-linecap:butt;stroke-linejoin:miter;stroke-opacity:1"
         sodipodi:type="inkscape:offset"
         inkscape:radius="1.8304672"
         inkscape:original="M 105.83008 92.707031 C 97.373811 92.854919 89.523926 93.907437 82.460938 96.585938 C 73.116178 100.12976 66.10673 106.21166 61.503906 114.39844 C 56.956152 122.48727 54.890062 132.46202 55.732422 143.17383 C 56.580446 153.95766 60.326282 165.14262 67.005859 176.36328 C 73.703727 187.61466 83.252257 198.71823 94.970703 208.99023 C 106.61767 219.19957 119.467 227.73575 130.99805 233.42969 C 142.60292 239.16008 152.3657 241.80587 159.41016 241.11719 C 166.52913 240.42123 170.54608 236.46134 173.72656 230.46289 C 176.56191 225.11537 179.61129 215.94403 182.55859 207.91992 C 185.74855 199.23514 189.46296 190.11025 192.82227 180.79492 C 196.26331 171.25294 198.99205 162.12539 200.54297 152.13672 C 202.05069 142.42625 202.23987 132.96063 201.25391 124.90039 C 200.26594 116.82369 198.13756 110.3012 194.41211 106.07031 C 190.59804 101.73876 185.31403 99.884681 177.73242 98.724609 C 171.67824 97.798252 159.19573 96.853728 149.4375 95.910156 C 139.60115 94.95903 124.79667 93.271593 114.48047 92.833984 C 111.53368 92.708983 108.64883 92.657735 105.83008 92.707031 z "
         xlink:href="#path50"
         id="path58"
         inkscape:href="#path50"
         d="M 105.79883,90.876953 C 97.210552,91.02715 89.147277,92.093428 81.8125,94.875 c -9.710231,3.68242 -17.10221,10.08576 -21.904297,18.62695 -4.746729,8.44274 -6.86766,18.78091 -6,29.81446 0.873295,11.10518 4.726191,22.56081 11.525391,33.98242 6.818236,11.45358 16.490588,22.69025 28.330078,33.06836 11.768458,10.31584 24.725618,18.92664 36.423828,24.70312 11.76973,5.8118 21.74111,8.61793 29.40039,7.86914 7.72178,-0.75489 12.43276,-5.3517 15.75586,-11.61914 2.98666,-5.63289 6.00105,-14.78559 8.93359,-22.76953 3.17447,-8.64261 6.89161,-17.77323 10.26758,-27.13476 3.46265,-9.6019 6.23172,-18.85479 7.80664,-28.99805 1.53183,-9.86574 1.72911,-19.48056 0.71875,-27.74024 -1.01202,-8.27329 -3.17159,-15.14475 -7.28515,-19.8164 -4.197,-4.76643 -10.03124,-6.760372 -17.77539,-7.945314 -6.24214,-0.955116 -18.67064,-1.887684 -28.39649,-2.828125 -9.80503,-0.948098 -24.61351,-2.639121 -35.05469,-3.082032 -2.97616,-0.126247 -5.89701,-0.178971 -8.75976,-0.128906 z" />
      <path
         style="fill:#f4d7d7;fill-opacity:1;stroke:none;stroke-width:1px;stroke-linecap:butt;stroke-linejoin:miter;stroke-opacity:1"
         d="m 200.54261,152.13747 c -1.55092,9.98867 -4.27901,19.11456 -7.72005,28.65654 -3.35931,9.31533 -7.07346,18.44192 -10.26342,27.1267 -2.9473,8.02411 -5.99674,17.19472 -8.83209,22.54224 -3.18048,5.99845 -7.19727,9.95759 -14.31624,10.65355 -7.04446,0.68868 -16.80881,-1.95626 -28.41368,-7.68665 -11.53105,-5.69394 -24.37987,-14.2294 -36.026834,-24.43874 C 83.25185,198.71911 73.704565,187.61487 67.006697,176.36349 60.32712,165.14283 56.579488,153.9575 55.731464,143.17367 c -0.84236,-10.71181 1.224544,-20.68633 5.772298,-28.77516 4.602824,-8.18678 11.611819,-14.26876 20.956579,-17.812579 9.417318,-3.571334 20.233769,-4.251944 32.020919,-3.751938 10.3162,0.437609 25.11959,2.125002 34.95594,3.076128 9.75823,0.943572 22.24092,1.887169 28.2951,2.813526 7.58161,1.160072 12.86649,3.015573 16.68056,7.347123 3.72545,4.23089 5.85312,10.75236 6.84109,18.82906 0.98596,8.06024 0.79638,17.52717 -0.71134,27.23764 z"
         id="path50" />
      <path
         style="color:#000000;fill:#d35f5f;-inkscape-stroke:none"
         d="m 93.455078,151.55469 c -1.842945,-0.39192 -4.328228,1.12448 -2.82802,3.08561 2.082021,5.46778 6.517218,10.46751 11.368432,13.50124 8.50132,5.10164 18.98956,5.55807 28.71066,4.23765 1.35909,0.11777 2.71921,-0.48653 1.05064,-1.51017 -7.89589,-8.0114 -18.24351,-12.93896 -28.5576,-17.05881 -3.11896,-1.19735 -6.38267,-2.15779 -9.744112,-2.25552 z m 0.01367,0.30468 c 6.281436,0.21147 11.949452,3.23646 17.608432,5.64596 7.58804,3.51705 14.9724,7.84217 20.77822,13.94988 -1.01416,1.39592 -3.15702,0.41841 -4.62541,0.94933 -10.01341,0.69558 -20.56607,-1.5924 -28.531677,-7.93972 -3.316052,-2.59935 -6.188371,-5.90256 -7.776637,-9.84223 -1.486412,-1.60879 1.048524,-3.2242 2.547072,-2.76322 z"
         id="path49"
         sodipodi:nodetypes="cccccccccccccc" />
      <path
         style="fill:#d40000;fill-opacity:1;stroke:none;stroke-width:1px;stroke-linecap:butt;stroke-linejoin:miter;stroke-opacity:1"
         d="m 119.84116,165.5602 c 0.10851,1.51654 -0.64725,2.75644 -2.12279,3.40866 -1.48003,0.6542 -3.56858,0.66567 -5.8627,-0.007 -2.29018,-0.67173 -4.58895,-1.97196 -6.35855,-3.59559 -1.77173,-1.62558 -2.85687,-3.43095 -2.98908,-4.99314 -0.1324,-1.56449 0.70028,-2.74353 2.29674,-3.2994 1.59416,-0.55507 3.81336,-0.44217 6.12529,0.26956 2.31253,0.71192 4.53409,1.96425 6.18378,3.48537 1.65384,1.52495 2.61849,3.2108 2.72731,4.73175 z"
         id="path48" />
      <path
         style="color:#000000;fill:#d35f5f;-inkscape-stroke:none"
         d="m 193.51758,153.66211 c -2.55617,0.18525 -4.57827,1.96152 -6.50959,3.46686 -4.91927,4.19275 -8.66014,9.58141 -11.79779,15.18214 -0.58891,0.53785 -0.47985,1.36163 0.45267,1.03873 5.32717,0.0481 10.97468,-1.90301 15.10429,-5.10412 3.33994,-2.46011 5.33619,-6.42617 6.57949,-10.40309 0.3284,-0.99613 0.58096,-2.01724 0.75493,-3.05158 -1.51458,-0.42073 -2.98259,-1.1267 -4.584,-1.12894 z m 0.006,0.30078 c 1.47314,0.0145 2.83397,0.64207 4.22656,1.04102 -0.88471,5.27771 -4.08801,10.05623 -8.52038,13.0259 -3.90435,2.87537 -8.58609,5.0143 -13.51411,4.98143 -0.90579,-0.54885 0.69166,-1.64027 0.82864,-2.40197 3.41238,-5.70249 7.49795,-11.20382 13.01123,-15.03532 1.18316,-0.81029 2.50807,-1.52319 3.96806,-1.61106 z"
         id="path47"
         sodipodi:nodetypes="ccccccccccccccc" />
      <path
         style="fill:#d40000;fill-opacity:1;stroke:none;stroke-width:1px;stroke-linecap:butt;stroke-linejoin:miter;stroke-opacity:1"
         d="m 182.95098,164.25132 c -0.16778,1.45631 0.12813,2.6163 0.80566,3.23103 0.67898,0.61605 1.6874,0.64016 2.82992,0.0888 1.13647,-0.54846 2.34098,-1.63736 3.31966,-3.01931 0.98434,-1.38995 1.667,-2.97375 1.87332,-4.44869 0.20571,-1.47057 -0.0855,-2.69985 -0.79772,-3.38177 -0.71461,-0.6842 -1.7815,-0.75307 -2.96503,-0.18656 -1.18195,0.56576 -2.3799,1.7159 -3.32844,3.1691 -0.94979,1.45512 -1.56946,3.08997 -1.73737,4.54741 z"
         id="path46" />
      <path
         style="fill:#e9afaf;fill-opacity:1;stroke:none;stroke-width:1px;stroke-linecap:butt;stroke-linejoin:miter;stroke-opacity:1"
         d="m 168.18474,222.38024 c -0.11075,4.92852 -8.0703,6.83038 -10.47355,8.84297 -5.22639,-1.74738 -8.68775,-3.4496 -12.73019,-10.88443 7.38546,-0.69258 14.78708,-1.32158 23.20374,2.04146 z"
         id="path52"
         sodipodi:nodetypes="cccc" />
      <path
         style="fill:#de8787;fill-opacity:1;stroke:none;stroke-width:1px;stroke-linecap:butt;stroke-linejoin:miter;stroke-opacity:1"
         d="m 144.981,220.33878 c -1.9875,-2.57902 0.55882,-8.01954 2.66397,-9.48895 2.13087,-1.48736 8.73421,-2.43665 11.14712,3.75915 1.18011,-3.33173 5.53743,-3.79271 7.35403,-2.64204 3.01672,1.91085 4.99368,5.31579 2.03862,10.4133 -6.23108,-1.56745 -13.83258,-2.32645 -23.20374,-2.04146 z"
         id="path45"
         sodipodi:nodetypes="cscscc" />
      <path
         style="fill:#de8787;fill-opacity:1;stroke:none;stroke-width:1px;stroke-linecap:butt;stroke-linejoin:miter;stroke-opacity:1"
         d="m 89.515778,153.31011 c 3.470061,-2.21052 11.222492,-0.63939 19.901012,3.28363 8.62595,3.89927 17.84572,9.86319 24.85339,17.26841 -4.64922,-6.41034 -14.92981,-16.81102 -24.97091,-23.65174 -9.914893,-6.75474 -19.655093,-9.66108 -19.783492,3.0997 z"
         id="path44" />
      <path
         style="fill:#de8787;fill-opacity:1;stroke:none;stroke-width:1px;stroke-linecap:butt;stroke-linejoin:miter;stroke-opacity:1"
         d="m 198.44198,156.71057 c -1.67927,-2.81586 -5.75773,-2.74841 -10.26594,0.47561 -4.40568,3.1507 -9.68837,9.45163 -13.79684,17.25227 2.74706,-6.57592 8.951,-17.40135 14.59705,-23.36582 2.82101,-2.9801 5.43882,-4.65743 7.26393,-3.99406 1.82119,0.66195 2.76038,3.62916 2.2018,9.632 z"
         id="path43" />
      <path
         style="fill:#6c5353;fill-opacity:1;stroke:none;stroke-width:1px;stroke-linecap:butt;stroke-linejoin:miter;stroke-opacity:1"
         d="m 133.09208,159.49449 c -4.76559,-6.83311 -13.4951,-15.18542 -23.52473,-21.67074 -10.017277,-6.47733 -21.187207,-10.87372 -28.985585,-6.89085 5.142544,-4.18049 15.976663,-2.25754 26.758195,3.24792 10.8306,5.53052 20.70642,14.02992 25.75212,25.31367 z"
         id="path42" />
      <path
         style="fill:#6c5353;fill-opacity:1;stroke:none;stroke-width:1px;stroke-linecap:butt;stroke-linejoin:miter;stroke-opacity:1"
         d="m 175.35917,162.21002 c 3.25014,-6.96269 8.14032,-14.82598 12.86876,-19.56235 4.81889,-4.82697 9.44034,-6.44518 12.97889,-0.85324 -2.07696,-5.09665 -6.45106,-6.09826 -11.37124,-2.50692 -4.76748,3.47988 -10.67757,11.54432 -14.47641,22.92251 z"
         id="path41" />
      <path
         style="fill:#e9afaf;fill-opacity:1;stroke:none;stroke-width:1px;stroke-linecap:butt;stroke-linejoin:miter;stroke-opacity:1"
         d="m 166.51966,203.23478 c 1.1521,0.0515 3.27417,-0.66794 1.69373,-2.85626 -2.8999,-9.72484 -1.67049,-25.00642 0.939,-31.23664 -5.31657,7.01131 -3.31176,23.0518 -3.07337,31.21736 -5.66678,0.18204 -15.30526,-4.04386 -17.43792,-0.60589 5.06261,-1.20881 11.81797,2.13606 17.87856,3.48143 z"
         id="path60"
         sodipodi:nodetypes="cccccc" />
    </g>
    <path
       id="rect53"
       style="fill:#e9afaf;fill-rule:evenodd;stroke:#b93939;stroke-width:1;stroke-linecap:square;stroke-dasharray:none;stroke-opacity:1"
       d="M 61.558813,27.545105 C 129.02527,12.886206 194.2417,2.1935592 218.39661,34.805219 L 186.74322,57.991711 C 166.55103,58.672007 171.76211,71.284963 154.88567,77.163791 130.74698,65.14582 125.76156,51.955911 93.761385,48.209357 Z"
       sodipodi:nodetypes="cccccc" />
    <g
       id="g57"
       inkscape:label="hearts">
      <path
         id="rect54"
         style="fill:#d40000;fill-rule:evenodd;stroke-width:0.3;stroke-linecap:square;stroke-opacity:0.819608"
         d="m 159.12501,38.340843 c 34.74915,-18.911421 19.35907,15.610138 -2.91978,23.156416 -17.74961,-10.544087 -26.02295,-51.466656 2.91978,-23.156416 z"
         sodipodi:nodetypes="ccc" />
      <path
         id="path54"
         style="fill:#d40000;fill-rule:evenodd;stroke-width:0.19553;stroke-linecap:square;stroke-opacity:0.819608"
         d="m 117.21112,33.443142 c 22.34655,-13.500148 13.50748,9.110853 -1.00493,14.853796 -12.23202,-5.956331 -19.390609,-31.63796 1.00493,-14.853796 z"
         sodipodi:nodetypes="ccc" />
      <path
         id="path55"
         style="fill:#d40000;fill-rule:evenodd;stroke-width:0.121352;stroke-linecap:square;stroke-opacity:0.819608"
         d="m 86.81593,35.151422 c 5.873005,-11.866254 10.876442,3.336941 5.779404,9.202823 -8.876204,-1.6258 -23.486416,-16.083537 -5.779404,-9.202823 z"
         sodipodi:nodetypes="ccc" />
      <path
         id="path56"
         style="fill:#d40000;fill-rule:evenodd;stroke-width:0.131961;stroke-linecap:square;stroke-opacity:0.819608"
         d="m 195.82601,42.662132 c 15.64879,-6.400465 0.6307,10.975452 -7.98607,12.532654 -1.74387,-7.967237 8.58117,-31.706883 7.98607,-12.532654 z"
         sodipodi:nodetypes="ccc" />
    </g>
  </g>
</svg>
