<?xml version="1.0" encoding="UTF-8" standalone="no"?>
<!-- Created with Inkscape (http://www.inkscape.org/) -->

<svg
   width="280"
   height="280"
   viewBox="0 0 280 280"
   version="1.1"
   id="svg1"
   xmlns="http://www.w3.org/2000/svg"
   xmlns:svg="http://www.w3.org/2000/svg">
  <defs
     id="defs1" />
  <g
     id="layer1">
    <path
       id="path41"
       style="fill:none;fill-opacity:1;stroke:#d35f5f;stroke-width:1px;stroke-linecap:butt;stroke-linejoin:miter;stroke-opacity:1"
       d="m 175.35917,162.21002 c 3.25014,-6.96269 8.14032,-14.82598 12.86876,-19.56235 4.81889,-4.82697 9.44034,-6.44518 12.97889,-0.85324 -2.07696,-5.09665 -6.45106,-6.09826 -11.37124,-2.50692 -4.76748,3.47988 -10.67757,11.54432 -14.47641,22.92251 z m -42.26709,-2.71553 c -4.76559,-6.83311 -13.4951,-15.18542 -23.52473,-21.67074 -10.017277,-6.47733 -21.187207,-10.87372 -28.985585,-6.89085 5.142544,-4.18049 15.976663,-2.25754 26.758195,3.24792 10.8306,5.53052 20.70642,14.02992 25.75212,25.31367 z m 65.3499,-2.78392 c -1.67927,-2.81586 -5.75773,-2.74841 -10.26594,0.47561 -4.40568,3.1507 -9.68837,9.45163 -13.79684,17.25227 2.74706,-6.57592 8.951,-17.40135 14.59705,-23.36582 2.82101,-2.9801 5.43882,-4.65743 7.26393,-3.99406 1.82119,0.66195 2.76038,3.62916 2.2018,9.632 z M 89.515778,153.31011 c 3.470061,-2.21052 11.222492,-0.63939 19.901012,3.28363 8.62595,3.89927 17.84572,9.86319 24.85339,17.26841 -4.64922,-6.41034 -14.92981,-16.81102 -24.97091,-23.65174 -9.914893,-6.75474 -19.655093,-9.66108 -19.783492,3.0997 z m 57.797632,66.62132 c -1.9875,-2.57902 -1.98968,-5.9974 0.11145,-7.47255 2.08767,-1.4657 6.11792,-0.92251 11.32455,3.87232 1.18011,-3.33173 4.63252,-5.53778 6.77737,-5.38384 2.28278,0.16384 3.48255,2.78574 2.29713,9.7339 -0.11075,4.92852 -1.74197,6.11348 -5.18927,9.41138 -5.22639,-1.74738 -11.27879,-2.72638 -15.32123,-10.16121 z m 35.63757,-55.68011 c -0.16778,1.45631 0.12813,2.6163 0.80566,3.23103 0.67898,0.61605 1.6874,0.64016 2.82992,0.0888 1.13647,-0.54846 2.34098,-1.63736 3.31966,-3.01931 0.98434,-1.38995 1.667,-2.97375 1.87332,-4.44869 0.20571,-1.47057 -0.0855,-2.69985 -0.79772,-3.38177 -0.71461,-0.6842 -1.7815,-0.75307 -2.96503,-0.18656 -1.18195,0.56576 -2.3799,1.7159 -3.32844,3.1691 -0.94979,1.45512 -1.56946,3.08997 -1.73737,4.54741 z m 16.24118,-8.71217 c -1.70058,-2.85106 -5.82541,-2.84089 -10.37139,0.36256 -4.44861,3.13483 -9.75254,9.43923 -13.90111,17.27227 6.62864,0.34614 12.36601,-3.21157 16.41435,-6.61248 4.33872,-3.64485 7.28403,-7.73328 7.85815,-11.02235 z m -79.351,10.02105 c 0.10851,1.51654 -0.64725,2.75644 -2.12279,3.40866 -1.48003,0.6542 -3.56858,0.66567 -5.8627,-0.007 -2.29018,-0.67173 -4.58895,-1.97196 -6.35855,-3.59559 -1.77173,-1.62558 -2.85687,-3.43095 -2.98908,-4.99314 -0.1324,-1.56449 0.70028,-2.74353 2.29674,-3.2994 1.59416,-0.55507 3.81336,-0.44217 6.12529,0.26956 2.31253,0.71192 4.53409,1.96425 6.18378,3.48537 1.65384,1.52495 2.61849,3.2108 2.72731,4.73175 z M 89.515778,153.31011 c 3.470061,-2.21052 11.222492,-0.63939 19.901012,3.28363 8.62595,3.89927 17.84572,9.86319 24.85339,17.26841 -12.42309,1.90351 -24.1043,-2.06528 -31.90497,-6.6971 -7.956398,-4.72428 -12.440012,-10.40477 -12.849432,-13.85494 z m 111.026832,-1.17264 c -1.55092,9.98867 -4.27901,19.11456 -7.72005,28.65654 -3.35931,9.31533 -7.07346,18.44192 -10.26342,27.1267 -2.9473,8.02411 -5.99674,17.19472 -8.83209,22.54224 -3.18048,5.99845 -7.19727,9.95759 -14.31624,10.65355 -7.04446,0.68868 -16.80881,-1.95626 -28.41368,-7.68665 -11.53105,-5.69394 -24.37987,-14.2294 -36.026834,-24.43874 C 83.25185,198.71911 73.704565,187.61487 67.006697,176.36349 60.32712,165.14283 56.579488,153.9575 55.731464,143.17367 c -0.84236,-10.71181 1.224544,-20.68633 5.772298,-28.77516 4.602824,-8.18678 11.611819,-14.26876 20.956579,-17.812579 9.417318,-3.571334 20.233769,-4.251944 32.020919,-3.751938 10.3162,0.437609 25.11959,2.125002 34.95594,3.076128 9.75823,0.943572 22.24092,1.887169 28.2951,2.813526 7.58161,1.160072 12.86649,3.015573 16.68056,7.347123 3.72545,4.23089 5.85312,10.75236 6.84109,18.82906 0.98596,8.06024 0.79638,17.52717 -0.71134,27.23764 z m 17.68329,-19.90602 c -1.98526,13.16886 -6.05535,23.91978 -11.91292,35.24952 -5.66279,10.953 -12.34671,21.52426 -17.67695,32.03457 -5.33024,10.51031 -8.8593,20.50921 -12.55618,28.27107 -3.71799,7.80617 -7.91676,13.11348 -16.63176,13.95098 -8.58289,0.82481 -21.18133,-2.92813 -36.26368,-10.80357 C 108.17087,223.09451 91.8255,211.70022 77.831428,198.65486 63.753819,185.53162 53.428248,172.08466 46.827506,158.7324 40.269595,145.46678 37.326798,132.20936 37.128238,118.66082 36.932876,105.33042 39.453586,91.361688 44.334429,79.619733 49.321261,67.622797 56.706511,57.996891 67.127078,52.63288 77.72761,47.176231 90.03605,46.71966 104.58446,48.352133 c 14.25675,1.599747 29.91286,4.867652 44.75715,6.714922 14.8443,1.84727 28.05903,2.119224 38.17803,2.979042 10.30219,0.875384 17.04112,2.661028 21.90939,8.761525 4.76416,5.970025 7.38033,15.77246 8.89511,27.548226 1.507,11.715282 1.79659,25.306592 -0.0982,37.875602 z" />
  </g>
</svg>
